<svg width="48" height="48" viewBox="0 0 48 48" fill="none" xmlns="http://www.w3.org/2000/svg">
<path d="M12.3262 25.9174L13.4955 17.1321L3.3534 10.0914L12.6201 13.2303L14.8086 9.87252L22.7998 4.91401L40.4141 14.6184L41.327 29.4252L33.4797 40.3302L27.2768 41.2806L30.4845 35.4092V29.7566L28.1522 25.3421L25.7824 23.7726L22.137 27.5306V31.5074L19.2919 34.1711L15.6778 34.6088L14.077 35.5155L11.4508 34.6776L10.3566 30.7383L12.3262 27.9683V25.9174Z" fill="white"/>
<path d="M28.5211 10.0163C26.589 9.61616 24.4755 9.72246 24.4755 9.72246C24.4755 9.72246 23.7814 12.9302 19.4795 13.7743C19.5107 13.7743 25.1633 15.7064 28.5211 10.0163Z" fill="#94A6C3"/>
<path d="M30.2719 39.1234C32.6042 37.2976 34.355 34.7839 35.1616 31.9389C35.1991 31.8326 35.5243 31.645 35.7431 31.5012C36.1058 31.2823 36.4747 31.101 36.5435 30.8071C36.6873 29.9692 36.7624 29.0938 36.7624 28.2184C36.7624 27.8933 36.431 27.5619 36.1058 27.2367C35.8494 27.0179 35.5931 26.7615 35.5931 26.5802C35.2304 23.2599 33.6985 20.1585 31.2536 17.9012L30.9972 18.1576C33.3671 20.3836 34.899 23.41 35.2304 26.6177C35.2679 26.9116 35.5556 27.1992 35.8494 27.4931C36.1058 27.7119 36.3997 28.0433 36.3997 28.1871C36.3997 29.025 36.3247 29.8629 36.1808 30.7008C36.1433 30.8446 35.8182 30.9947 35.5618 31.1385C35.1991 31.3198 34.8677 31.5012 34.799 31.795C33.9236 34.8965 31.9164 37.5977 29.2527 39.3485C29.7279 38.3293 31.2223 35.009 32.0227 33.327L31.8789 27.9308L27.2455 23.4475L24.6193 23.8101L21.7367 28.481C21.7367 28.481 23.0874 30.1943 21.1865 32.2015C19.3294 34.1711 17.8662 34.6088 17.8662 34.6088L16.5156 33.8772C16.9158 33.3645 17.7224 32.6017 18.3414 32.0889C19.3982 31.2135 20.4549 31.1385 20.4549 30.1943C20.4987 28.2184 18.379 28.7624 18.379 28.7624L17.6099 29.494L17.2847 32.1952L15.684 34.2024L15.5026 34.1649L12.8764 33.5834C12.8764 33.5834 14.4834 32.7455 14.7398 31.795C14.9962 30.8821 14.2271 27.8557 14.1895 27.6744C14.2271 27.7119 14.9586 28.331 15.2838 29.3502C15.8653 27.7432 16.6344 26.2112 16.8533 26.0674C17.0721 25.9236 20.0235 24.3541 20.0235 24.3541L19.0418 26.9428L19.7733 26.5426L21.5241 22.2407C21.5241 22.2407 23.2374 21.4028 24.513 21.4028C26.8078 21.3653 30.2031 18.5577 28.6712 13.5242C29.1089 13.7055 36.6936 17.501 38.0067 24.9419C38.9884 30.6633 35.7431 36.022 30.2719 39.1234Z" fill="#94A6C3"/>
<path d="M21.5929 10.8167C22.4308 9.82875 22.1057 8.37184 22.1057 8.37184L19.6608 11.986C19.6233 11.986 20.53 12.0235 21.5929 10.8167Z" fill="#1B314F"/>
<path d="M13.383 30.5507L13.6769 29.0938C13.6769 29.0938 12.4701 31.2073 12.3638 31.5012C12.2512 31.8326 12.4388 32.4141 12.9078 32.3766C13.383 32.339 13.9645 31.645 13.9645 31.1385C13.9645 30.4819 13.383 30.5507 13.383 30.5507Z" fill="#1B314F"/>
<path d="M35.0491 7.35262C35.0491 7.35262 36.8749 7.42766 38.7695 7.64651C34.4988 4.28872 30.4532 3.30702 27.1705 3.30702C22.6497 3.30702 19.5858 5.17037 19.3982 5.27667L20.8238 3.01314C20.8238 3.01314 15.1337 2.46289 13.1266 8.48439C12.6138 7.20881 12.1449 5.34545 12.1449 5.34545C12.1449 5.34545 9.18727 7.94039 10.5754 12.2424C7.1801 11.0043 2.33414 9.28475 2.14655 9.25349C1.89018 9.21597 1.81515 9.32852 1.81515 9.32852C1.81515 9.32852 1.74012 9.43482 1.95897 9.62241C2.3654 9.9413 10.0252 15.6001 11.7072 16.6944C11.3445 18.0075 11.3445 18.6265 11.7072 19.2456C12.2199 20.0834 12.2512 20.5211 12.1824 21.1402C12.1074 21.7592 11.4508 27.1242 11.307 27.7807C11.1632 28.4373 9.63122 30.7696 9.7 31.4636C9.77504 32.1577 10.7192 35.1091 11.5634 35.4405C12.1824 35.6593 13.7143 36.1345 14.7336 36.1345C15.0962 36.1345 15.4276 36.0595 15.5714 35.9157C16.1905 35.3717 16.3718 35.2591 16.8095 35.2591C16.847 35.2591 16.8845 35.2591 16.9158 35.2591C17.0971 35.2591 17.316 35.2966 17.5723 35.2966C18.1539 35.2966 18.923 35.1841 19.467 34.6776C20.2673 33.8772 21.6555 32.783 22.0932 32.2703C22.6434 31.5762 22.931 30.632 22.7872 29.6816C22.6747 28.8062 23.1499 28.0371 23.7001 27.2742C24.3942 26.3613 25.6698 24.7231 25.6698 24.7231C28.1897 26.6114 29.7592 29.494 29.7592 32.7017C29.7592 38.3918 24.8007 42.9877 18.6729 42.9877C17.7224 42.9877 16.8158 42.8814 15.9028 42.6625C18.7104 43.6442 21.0802 43.9756 23.0186 43.9756C27.1392 43.9756 29.3277 42.4812 29.3277 42.4812C29.3277 42.4812 28.5649 43.4691 27.3206 44.5946C27.3581 44.5946 27.3581 44.5946 27.3581 44.5946C34.1799 43.6442 37.5002 38.0291 37.5002 38.0291C37.5002 38.0291 37.2438 39.855 36.9187 41.093C45.9916 34.2712 44.4596 25.736 44.4221 25.4484C44.4972 25.5547 45.4101 26.6489 45.879 27.2367C47.3422 12.2048 35.0491 7.35262 35.0491 7.35262ZM21.0802 31.3573C20.9364 31.5387 20.3174 32.0889 19.8797 32.4891C19.442 32.8893 18.9667 33.2895 18.6041 33.6584C18.4603 33.8022 18.1664 33.8772 17.7287 33.8772C17.5849 33.8772 17.4348 33.8772 17.3285 33.8772C17.2535 33.8772 17.1847 33.8772 17.1096 33.8772C17.0346 33.8772 16.9971 33.8772 16.9658 33.8772C16.8533 33.8772 16.747 33.8772 16.6344 33.8772C17.1847 33.1457 18.7854 31.4699 19.3357 31.1072C19.9922 30.6695 20.3236 30.2318 19.9172 29.469C19.517 28.6999 18.4603 28.8875 18.4603 28.8875C18.4603 28.8875 19.0793 28.6311 19.6295 28.6311C18.9355 28.4498 18.0601 28.6311 17.6599 29.0313C17.2222 29.4315 17.2972 30.8571 17.1159 31.7638C16.9346 32.7142 16.3155 33.1894 15.3651 34.0648C14.8524 34.54 14.4897 34.6839 14.1958 34.6839C13.5768 34.5776 12.8452 34.39 12.3325 34.2086C11.9698 33.7334 11.4195 32.164 11.2757 31.5074C11.382 31.1447 11.8197 30.3756 12.0386 29.9379C12.4763 29.1001 12.7326 28.6248 12.8077 28.1871C12.9515 27.5681 13.4267 23.7351 13.608 22.1344C14.0833 22.7534 14.7398 23.7789 14.5897 24.4354C15.6465 22.941 14.8836 21.4778 14.5147 20.8963C14.1896 20.3148 13.7519 19.1455 14.1145 17.9074C14.4772 16.6694 15.7903 13.2366 15.7903 13.2366C15.7903 13.2366 16.228 14.0057 16.847 13.8556C17.4661 13.7118 22.4621 6.19584 22.4621 6.19584C22.4621 6.19584 23.8127 9.14719 22.387 11.3044C20.9301 13.4554 19.5045 13.8556 19.5045 13.8556C19.5045 13.8556 21.5116 14.2183 23.3687 12.8676C24.1316 14.656 24.8632 16.5131 24.9007 16.7694C24.7881 17.0258 23.3312 20.5274 23.1874 20.7462C23.1124 20.8213 22.6059 20.9651 22.237 21.0401C21.6179 21.2215 21.2553 21.334 21.1052 21.4403C20.8488 21.6592 19.6796 24.8669 19.1356 26.4363C18.479 26.6177 17.8225 26.9866 17.3472 27.7119C17.6036 27.5306 18.404 27.418 18.9917 27.3493C19.5045 27.3117 21.0677 28.1496 21.4741 29.7191C21.4741 29.7566 21.4741 29.7566 21.4741 29.7941C21.5554 30.3694 21.3741 30.9196 21.0802 31.3573ZM17.6536 31.795C17.985 31.3198 17.9475 30.5195 17.985 30.2631C18.0226 30.0067 18.0913 29.5315 18.3852 29.4627C18.6791 29.3877 19.3732 29.5002 19.3732 30.0067C19.3732 30.4819 18.8604 30.5882 18.4978 30.9196C18.2352 31.1698 17.7224 31.72 17.6536 31.795ZM32.204 24.8231C32.5667 22.966 32.6042 21.359 32.4979 20.0459C33.9173 21.9405 34.7927 24.2416 35.0491 26.6114C35.0866 26.9053 35.3742 27.1929 35.6681 27.4868C35.9245 27.7057 36.2184 27.9996 36.2184 28.1809C36.2184 29.0188 36.1433 29.8567 35.9995 30.7008C35.962 30.8071 35.6369 30.9947 35.3805 31.1385C35.0178 31.3198 34.6864 31.5012 34.6176 31.795C33.8173 34.6026 32.0977 37.085 29.8029 38.8358C33.192 35.2966 34.8302 29.4565 32.204 24.8231ZM29.9092 39.1609C32.2791 37.3351 34.1049 34.7839 34.9053 31.9013C34.9428 31.795 35.2679 31.6075 35.4868 31.4636C35.8494 31.2823 36.2184 31.0635 36.2872 30.7696C36.431 29.9317 36.506 29.0563 36.506 28.1809C36.506 27.8557 36.1746 27.5243 35.8494 27.1992C35.6681 26.9803 35.3742 26.724 35.3742 26.5426C35.0803 23.8789 34.0236 21.3653 32.3854 19.2831C31.6538 14.9061 28.74 13.5555 28.6649 13.5179C28.74 13.6305 30.6346 16.363 29.3215 19.5707C27.9708 22.8159 24.5068 22.3095 24.2129 22.3407C23.919 22.3407 22.7935 23.7976 21.3678 26.4989C21.1865 26.4238 20.4174 26.2425 19.542 26.3926C20.1985 24.5667 21.1865 21.9781 21.3678 21.7592C21.4429 21.6842 21.9869 21.5404 22.3558 21.4341C23.0499 21.2527 23.375 21.1402 23.4876 20.9964C23.5626 20.8838 23.9253 20.0459 24.2879 19.1705C24.6193 19.1705 25.4572 19.0955 25.526 19.058C25.601 18.9829 26.2951 17.2009 26.2951 16.982C26.2951 16.8007 24.8694 13.2616 24.3254 11.911C24.5818 11.6171 24.8382 11.2544 25.0883 10.8542C32.5667 11.6608 38.4069 18.0075 38.4069 25.6985C38.4069 31.6075 34.9428 36.7536 29.9092 39.1609Z" fill="#1B314F"/>
<path d="M20.2048 19.4644C20.8989 18.664 20.5362 17.1696 19.2544 16.9132C19.5858 16.1504 20.0548 14.6184 20.0548 14.6184C20.0548 14.6184 16.3343 20.4524 16.0092 20.5649C15.6778 20.6775 15.3526 19.3956 15.3526 19.3956C14.6586 22.0593 16.5219 22.422 16.7408 21.5841C17.76 21.3215 19.5108 20.2273 20.2048 19.4644Z" fill="#1B314F"/>
<path d="M17.0284 20.8838L18.923 17.6386C18.923 17.6386 20.0172 18.1888 19.467 19.0642C18.7792 20.0834 17.0284 20.8838 17.0284 20.8838Z" fill="#FFD923"/>
<path d="M40.4828 35.9157C39.9326 36.6473 39.3135 37.4101 38.5882 38.1417C43.2904 29.0938 38.8071 20.815 38.6257 20.4899C38.9571 20.8213 39.2823 21.1839 39.5762 21.5091C43.1841 25.5172 43.6218 31.5387 40.4828 35.9157Z" fill="#D82122"/>
<path d="M44.8598 24.2791C43.2153 19.8646 40.883 16.1066 35.7431 12.7176C30.7846 9.43482 25.4572 9.69119 25.1633 9.7287C25.1258 9.7287 25.0882 9.7287 25.0882 9.7287C25.2696 9.65367 25.4509 9.61615 25.6322 9.58489C26.764 9.22222 28.2209 8.92834 29.6841 8.747C33.5546 8.1905 37.4564 9.5036 40.1201 12.3174C40.1576 12.3549 40.1576 12.3549 40.1952 12.3924C43.2215 15.6001 44.791 19.6082 44.8598 24.2791Z" fill="#D82122"/>
<path d="M34.5738 6.22086C29.1401 5.20164 25.6385 5.70813 23.1186 6.65856C23.0436 6.36468 22.7872 5.78316 22.5684 5.30794C21.8118 6.22086 21.0051 7.31511 20.4987 8.00918C19.1105 8.95961 18.529 9.87253 18.529 9.87253C19.3294 7.13378 21.6679 5.09535 24.513 4.58261C25.3134 4.4388 26.1888 4.36376 27.1392 4.36376C29.6528 4.40128 32.1665 5.02031 34.5738 6.22086Z" fill="#D82122"/>
<path d="M14.4772 13.2241C10.2128 13.0802 11.6322 8.11547 11.7072 7.82784C11.7072 7.86535 11.9948 11.7296 14.4772 13.2241Z" fill="#D82122"/>
<path d="M18.6729 4.28872C15.3901 6.25837 16.0467 10.9605 16.0467 10.9605C12.9077 6.18959 18.4165 4.40127 18.6729 4.28872Z" fill="#D82122"/>
<path d="M13.2766 14.5372C13.4955 14.7185 13.7143 15.0499 13.4579 15.5251C13.3141 15.7815 13.0953 15.744 12.7639 15.6001C12.3262 15.3813 9.69998 13.8493 7.33015 12.2799C10.0314 13.2303 12.7639 14.2495 13.2016 14.4684C13.2016 14.4684 13.2391 14.5059 13.2766 14.5372Z" fill="white"/>
</svg>
