<svg width="48" height="48" viewBox="0 0 48 48" fill="none" xmlns="http://www.w3.org/2000/svg">
<path d="M24 48C37.2548 48 48 37.2548 48 24C48 10.7452 37.2548 0 24 0C10.7451 0 0 10.7452 0 24C0 37.2548 10.7451 48 24 48Z" fill="url(#paint0_linear)"/>
<path d="M35.892 33.8624L27.1049 13.5616C26.6093 12.512 25.8726 12 24.9014 12H24.1245C23.1534 12 22.4167 12.512 21.9211 13.5616L18.0968 22.4064H15.2035C14.3395 22.4128 13.6363 23.0784 13.6296 23.9104V23.9296C13.6363 24.7552 14.3395 25.4272 15.2035 25.4336H16.7573L13.1072 33.8624C13.0402 34.048 13 34.24 13 34.4384C13 34.912 13.154 35.2832 13.4286 35.5712C13.7032 35.8592 14.0984 36 14.594 36C14.9222 35.9936 15.237 35.8976 15.4982 35.712C15.7795 35.5264 15.9737 35.2576 16.1277 34.9504L20.1462 25.4272H22.9324C23.7963 25.4208 24.4996 24.7552 24.5063 23.9232V23.8848C24.4996 23.0592 23.7963 22.3872 22.9324 22.3808H21.4455L24.513 15.0784L32.8714 34.944C33.0255 35.2512 33.2197 35.52 33.501 35.7056C33.7622 35.8912 34.0837 35.9872 34.4052 35.9936C34.9008 35.9936 35.2892 35.8528 35.5705 35.5648C35.8518 35.2768 35.9992 34.9056 35.9992 34.432C36.0059 34.24 35.9724 34.0416 35.892 33.8624Z" fill="white"/>
<defs>
<linearGradient id="paint0_linear" x1="41.8941" y1="8.94347" x2="6.18207" y2="38.9915" gradientUnits="userSpaceOnUse">
<stop stop-color="#B6509E"/>
<stop offset="1" stop-color="#2EBAC6"/>
</linearGradient>
</defs>
</svg>
