<svg width="48" height="48" viewBox="0 0 48 48" fill="none" xmlns="http://www.w3.org/2000/svg">
<g clip-path="url(#clip0)">
<path d="M1219.33 6.82499C1273.81 -21.5875 1340.32 44.325 1311.38 98.7625C1294.56 143.137 1230.81 154.937 1198.25 121.112C1163.75 88.65 1175 24.4875 1219.33 6.82499ZM633.262 70C666.362 56.375 708.262 86.7 704.887 122.775C708.4 161.937 660.512 190.762 626.775 172.15C582.075 154.837 587.187 82.275 633.262 70ZM1833.59 173.25C1781.86 167 1773.68 85.675 1823.48 69.3C1862.1 50.4625 1897.54 85.7875 1903.19 122.4C1895.09 153.662 1868.91 182.287 1833.59 173.25ZM766.612 319.437C821.95 284.437 900.912 336.562 892.4 400.837C889.525 465.737 803.325 503.337 754.688 459.462C707.662 425 714.787 345.937 766.612 319.437ZM1611.38 356.575C1636.06 292.95 1736.1 291.025 1764.2 352.962C1791.97 401.162 1757.81 460.85 1708.33 477.237C1642.78 489.475 1580.51 418.612 1611.38 356.575ZM1148.75 473.625C1148.21 418.937 1198.03 378.188 1250 374.462C1284.47 381.375 1322.05 396.062 1336.84 430.85C1364.4 478.837 1339.92 544.912 1290.12 566.937C1267.35 579.7 1240.43 574.912 1215.62 573.425C1177.71 554.812 1145.79 518.312 1148.75 473.625ZM277.187 553.312C327.737 522.237 395.937 578.95 376.8 633.862C366.262 681.362 302.412 700.688 265.912 670.362C226.95 641.95 233.125 573.637 277.187 553.312ZM2148.75 553.212C2191.64 519.912 2262.41 558.112 2257.3 612.262C2260.18 661.637 2198.99 698.875 2156.41 673.45C2109.52 652.375 2104.74 580.237 2148.75 553.212ZM1393.85 651.525C1464.62 626.1 1548.69 656.525 1589.02 719.625C1642.24 796.763 1613.92 914.237 1531.35 958.5C1445.79 1010.85 1320.85 966.475 1289.25 870.925C1253.38 785.388 1305.64 678.337 1393.85 651.525ZM978.6 659.938C1057.04 622.913 1162.6 653.975 1200.49 734.213C1245.08 812.312 1210.6 921.062 1130.89 961.388C1051.08 1006.71 938.475 972.35 899.85 888.5C856.537 807.412 895 697.275 978.6 659.938ZM562.812 802.088C568.775 751.55 616.45 718.663 664.55 715.263C716.375 721.513 757.775 761.763 763.412 814.213C760.012 866.138 719.888 916.888 664.863 916.575C604.325 921.788 551.25 861.562 562.812 802.088ZM1790.91 726.25C1853.06 690.075 1939.36 742.737 1936.6 814.138C1940.86 889.788 1845.35 943.1 1783.46 898.725C1719.18 861.775 1724.19 757.713 1790.91 726.25ZM809.612 992.875C882.3 972.875 965.412 1007.14 1001.06 1073.95C1040.11 1141.2 1024.15 1234.62 963.5 1283.95C885.712 1356.3 742.25 1327.25 700.85 1228.51C653.275 1138 711.062 1016.7 809.612 992.875ZM1597.23 992.5C1667.89 972.288 1750.9 999.525 1788.89 1063.9C1839.11 1137.53 1815.14 1247.34 1740.36 1294.8C1662.04 1349.91 1540.71 1320.98 1497.61 1234.8C1445.36 1145.66 1497.94 1019.69 1597.23 992.5ZM342.1 1076.5C404.887 1052.75 474.487 1122.04 449.05 1184.29C433.512 1241 353.587 1261.96 312.3 1220.15C263.987 1180.89 281.875 1093.53 342.1 1076.5ZM2043.98 1166.84C2042.16 1114.81 2080.23 1068.74 2133.57 1065.86C2176.57 1072.68 2218.39 1107.36 2214.99 1154.18C2218.93 1216 2144.43 1258.03 2091.75 1228.97C2067.06 1216.43 2054.4 1191.1 2043.98 1166.84ZM33.375 1107.04C71.15 1090.55 117.875 1123.29 109.25 1165.24C107.225 1212.74 37.1 1231 11.3375 1191.31C-11.425 1163.75 2.19998 1121.25 33.375 1107.04ZM2415.16 1106.09C2441.76 1087.15 2484.44 1100.76 2494.98 1131.84C2512.85 1165.78 2480.07 1212.28 2441.88 1206.54C2388.25 1211.43 2370.9 1129.7 2415.16 1106.09ZM1014.79 1334.1C1114.19 1308.25 1221.04 1391.14 1221.66 1493.49C1228.15 1596.91 1122.91 1688.62 1021.16 1664.74C942.513 1652.07 880.8 1576.31 883.35 1496.84C883.138 1420.82 940.5 1350.17 1014.79 1334.1ZM1408.44 1333.89C1509.32 1305.69 1619.36 1390.06 1617.76 1494.77C1623.09 1596.29 1521.14 1684.91 1421.51 1664.77C1327.76 1652.65 1258.59 1549.65 1284.76 1458.67C1297.98 1398.05 1348.62 1348.75 1408.44 1333.89ZM649.45 1396.89C719.263 1384.97 784.712 1462.86 756.4 1529.15C735.75 1599.79 632.95 1618.95 587.5 1561.25C534.187 1505.84 573.987 1404.54 649.45 1396.89ZM1803.89 1400C1866.14 1373.92 1942.55 1427.78 1937.76 1495.34C1940.26 1569.71 1845.93 1621 1785.05 1577.59C1716.1 1538.61 1728.65 1423.91 1803.89 1400ZM2126.56 1723.65C2102.19 1678.21 2146.46 1617.99 2196.91 1626.4C2222.03 1625.97 2239.59 1645.76 2255.66 1662.36C2258.96 1689.29 2264.5 1721.41 2242.15 1742.16C2211.8 1780.57 2143.05 1769.61 2126.56 1723.65ZM276.975 1639.05C324.125 1607.66 391.975 1654.47 381.375 1709.6C375.737 1758.35 314.325 1786.21 273.875 1758.55C230.462 1733.44 232.062 1661.94 276.975 1639.05ZM1208.48 1741.1C1270.2 1713.86 1348.84 1767.6 1342.99 1835.59C1347.56 1910.71 1250.3 1962.74 1189.95 1917.62C1122.91 1878.89 1134.09 1764.92 1208.48 1741.1ZM777.037 1841.75C829.612 1814.09 900.162 1861.86 895.375 1920.7C896.975 1969.01 849.825 2010.19 802.15 2003.05C762.662 2002.2 736.913 1966.8 724.25 1933.14C724.9 1896.45 740 1855.59 777.037 1841.75ZM1650.96 1842.6C1705.03 1809.19 1781.86 1857.17 1776.75 1920.1C1778.14 1985.86 1691.3 2027.99 1640.96 1984.79C1592.22 1950.92 1598.18 1869.52 1650.96 1842.6ZM1802.94 2218.31C1778.89 2181.93 1807.2 2138.09 1846.25 2129.79C1877.65 2136.17 1910.85 2159.79 1904.25 2196.19C1899.68 2245.45 1827.62 2260.56 1802.94 2218.31ZM596.55 2186.71C606.125 2157.88 629.325 2129.21 663.275 2136.71C712.763 2140.22 727.45 2214.81 684.138 2237.8C645.188 2264.06 600 2228.1 596.55 2186.71ZM1178.56 2219.8C1188.04 2177.14 1243.26 2156.39 1279.66 2179.05C1303.71 2189.38 1310.74 2216.29 1316.91 2239.16C1313.61 2251.07 1310.66 2263 1307.76 2274.91C1292.86 2292.57 1273.71 2310.24 1248.91 2309.6C1202.82 2315 1161.25 2262.9 1178.56 2219.8Z" fill="#3CC8C8"/>
<path d="M23.4602 4.12031C24.4192 3.62025 25.5898 4.78031 25.0803 5.73841C24.7844 6.51942 23.6624 6.7271 23.0893 6.13178C22.4821 5.56043 22.6801 4.43117 23.4602 4.12031ZM13.1455 5.23219C13.7281 4.99239 14.4655 5.52611 14.4061 6.16104C14.4679 6.8503 13.6251 7.35762 13.0313 7.03004C12.2446 6.72534 12.3346 5.44823 13.1455 5.23219ZM34.2713 7.0494C33.3609 6.9394 33.2168 5.50807 34.0933 5.21987C34.7731 4.88833 35.3968 5.51005 35.4963 6.15444C35.3537 6.70466 34.893 7.20846 34.2713 7.0494ZM15.4925 9.62231C16.4664 9.0063 17.8562 9.92371 17.7063 11.055C17.6557 12.1972 16.1386 12.859 15.2826 12.0868C14.4549 11.4802 14.5803 10.0887 15.4925 9.62231ZM30.3603 10.2759C30.7948 9.15612 32.5555 9.12224 33.0501 10.2123C33.5389 11.0607 32.9376 12.1112 32.0667 12.3996C30.913 12.615 29.8172 11.3678 30.3603 10.2759ZM22.2181 12.336C22.2086 11.3735 23.0853 10.6563 24.0001 10.5907C24.6069 10.7124 25.2682 10.9709 25.5285 11.5832C26.0136 12.4278 25.5828 13.5907 24.7063 13.9783C24.3055 14.2029 23.8316 14.1187 23.3951 14.0925C22.7278 13.7649 22.166 13.1225 22.2181 12.336ZM6.87856 13.7385C7.76824 13.1916 8.96856 14.1897 8.63174 15.1562C8.44628 15.9922 7.32252 16.3323 6.68012 15.7986C5.99437 15.2985 6.10306 14.0962 6.87856 13.7385ZM39.8182 13.7368C40.573 13.1507 41.8186 13.823 41.7286 14.776C41.7792 15.645 40.7023 16.3004 39.953 15.8529C39.1278 15.482 39.0435 14.2124 39.8182 13.7368ZM26.5319 15.4671C27.7775 15.0196 29.257 15.5551 29.967 16.6656C30.9035 18.0233 30.4052 20.0908 28.9519 20.8698C27.446 21.7912 25.2471 21.0102 24.6909 19.3285C24.0595 17.8231 24.9793 15.939 26.5319 15.4671ZM19.2235 15.6151C20.604 14.9635 22.4619 15.5102 23.1287 16.9224C23.9134 18.2969 23.3067 20.2109 21.9037 20.9207C20.499 21.7184 18.5173 21.1136 17.8375 19.6378C17.0752 18.2107 17.7521 16.2723 19.2235 15.6151ZM11.9056 18.117C12.0105 17.2275 12.8496 16.6487 13.6962 16.5888C14.6083 16.6988 15.3369 17.4073 15.4361 18.3304C15.3763 19.2443 14.6701 20.1375 13.7017 20.132C12.6362 20.2237 11.7021 19.1637 11.9056 18.117ZM33.5202 16.7822C34.614 16.1455 36.1329 17.0724 36.0843 18.3291C36.1593 19.6605 34.4783 20.5988 33.3891 19.8178C32.2576 19.1675 32.3458 17.336 33.5202 16.7822ZM16.2493 21.4748C17.5286 21.1228 18.9914 21.7259 19.6188 22.9018C20.3061 24.0854 20.0251 25.7297 18.9577 26.5978C17.5886 27.8711 15.0637 27.3599 14.335 25.6221C13.4977 24.0291 14.5148 21.8942 16.2493 21.4748ZM30.1113 21.4682C31.355 21.1125 32.816 21.5919 33.4846 22.7249C34.3685 24.0207 33.9466 25.9534 32.6305 26.7887C31.252 27.7587 29.1167 27.2494 28.3581 25.7327C27.4385 24.1639 28.3638 21.9467 30.1113 21.4682ZM8.02102 22.9466C9.12608 22.5286 10.351 23.7481 9.90335 24.8437C9.62989 25.8419 8.2232 26.2108 7.49654 25.4749C6.64624 24.7839 6.96106 23.2463 8.02102 22.9466ZM37.9741 24.5366C37.9422 23.6209 38.6121 22.81 39.5511 22.7594C40.3079 22.8793 41.0438 23.4898 40.9839 24.3137C41.0532 25.4019 39.742 26.1415 38.815 25.6302C38.3805 25.4093 38.1576 24.9636 37.9741 24.5366ZM2.58744 23.4841C3.25229 23.1939 4.07465 23.7701 3.92285 24.5084C3.88721 25.3444 2.653 25.6659 2.19958 24.9674C1.79896 24.4823 2.03876 23.7342 2.58744 23.4841ZM44.507 23.4674C44.9752 23.1341 45.7263 23.3737 45.9117 23.9206C46.2263 24.5179 45.6495 25.3363 44.9772 25.2353C44.0334 25.3213 43.728 23.883 44.507 23.4674ZM19.8604 27.4804C21.6098 27.0255 23.4904 28.4843 23.5014 30.2856C23.6156 32.1059 21.7634 33.7201 19.9726 33.2997C18.5883 33.0768 17.5022 31.7434 17.5471 30.3446C17.5433 29.0068 18.5529 27.7633 19.8604 27.4804ZM26.7886 27.4767C28.5642 26.9804 30.5009 28.4654 30.4728 30.3083C30.5665 32.0949 28.7721 33.6547 27.0187 33.3003C25.3687 33.0869 24.1513 31.2741 24.6119 29.6729C24.8445 28.6059 25.7359 27.7383 26.7886 27.4767ZM13.4304 28.5855C14.6591 28.3758 15.811 29.7466 15.3127 30.9133C14.9493 32.1565 13.14 32.4938 12.3401 31.4783C11.4018 30.503 12.1023 28.7201 13.4304 28.5855ZM33.7486 28.6403C34.8442 28.1813 36.189 29.1291 36.1048 30.3182C36.1488 31.6272 34.4884 32.5299 33.417 31.7658C32.2035 31.0798 32.4244 29.0611 33.7486 28.6403ZM39.4277 34.3365C38.9987 33.5368 39.7779 32.4769 40.6658 32.6249C41.1078 32.6174 41.4169 32.9657 41.6998 33.2579C41.7579 33.7317 41.8554 34.2971 41.462 34.6623C40.9278 35.3384 39.7178 35.1455 39.4277 34.3365ZM6.87482 32.8476C7.70466 32.2951 8.89882 33.119 8.71226 34.0892C8.61304 34.9472 7.53218 35.4376 6.82026 34.9508C6.0562 34.5088 6.08436 33.2504 6.87482 32.8476ZM23.2693 34.6436C24.3556 34.1643 25.7397 35.11 25.6367 36.3066C25.7172 37.6288 24.0054 38.5445 22.9432 37.7505C21.7634 37.0687 21.96 35.063 23.2693 34.6436ZM15.6759 36.4151C16.6013 35.9282 17.843 36.7691 17.7587 37.8046C17.7869 38.6549 16.957 39.3796 16.1179 39.254C15.4229 39.239 14.9697 38.616 14.7469 38.0235C14.7583 37.3778 15.0241 36.6586 15.6759 36.4151ZM31.0571 36.43C32.0086 35.842 33.3609 36.6866 33.2709 37.794C33.2954 38.9515 31.767 39.6929 30.8811 38.9326C30.0233 38.3366 30.128 36.9039 31.0571 36.43ZM33.7318 43.0426C33.3086 42.4022 33.8069 41.6306 34.4941 41.4846C35.0468 41.597 35.6311 42.0126 35.5149 42.6532C35.4344 43.5202 34.1663 43.7862 33.7318 43.0426ZM12.4994 42.4864C12.6679 41.9789 13.0762 41.4744 13.6737 41.6064C14.5447 41.6683 14.8032 42.981 14.0409 43.3856C13.3554 43.8478 12.5601 43.2149 12.4994 42.4864ZM22.7428 43.0688C22.9096 42.3179 23.8815 41.9527 24.5222 42.3516C24.9455 42.5333 25.0691 43.007 25.1778 43.4096C25.1197 43.6192 25.0678 43.8291 25.0167 44.0388C24.7545 44.3496 24.4175 44.6605 23.981 44.6493C23.1698 44.7443 22.4381 43.8273 22.7428 43.0688Z" fill="#3CC8C8"/>
</g>
<defs>
<clipPath id="clip0">
<rect width="48" height="48" fill="white"/>
</clipPath>
</defs>
</svg>
