<svg width="48" height="48" viewBox="0 0 48 48" fill="none" xmlns="http://www.w3.org/2000/svg">
<path d="M38.7341 33.2111L29.4941 23.9712L38.7341 14.7312L33.2402 9.23679L24.0003 18.4767L14.7598 9.23679L9.26593 14.7312L18.5059 23.9712L9.26593 33.2111L14.7598 38.7049L24.0003 29.465L33.2402 38.7049L38.7341 33.2111Z" fill="#1B75BC"/>
<path d="M20.7919 3.20844L15.3958 8.60451L19.9415 13.1502L24.0003 9.04253L28.0585 13.1502L32.6048 8.60451L27.2088 3.20844L24.0003 0L20.7919 3.20844ZM20.7919 44.7916L15.3958 39.3955L19.9415 34.8498L24.0003 38.9568L28.0585 34.8498L32.6048 39.3955L27.2088 44.7916L24.0003 48L20.7919 44.7916Z" fill="#3C3C3B"/>
</svg>
