<svg width="48" height="48" viewBox="0 0 48 48" fill="none" xmlns="http://www.w3.org/2000/svg">
<path d="M36.451 12.586C31.8659 12.586 28.7224 15.4625 26.0063 19.025L27.6161 21.3858C30.1039 17.9714 32.7492 15.2787 36.451 15.2787C38.475 15.2748 40.4346 15.9897 41.9806 17.296C43.5267 18.6023 44.5586 20.4151 44.8926 22.4114H34.3361V25.1041H47.6239C47.8157 23.5279 47.6692 21.9289 47.1942 20.4137C46.7192 18.8986 45.9266 17.5022 44.8693 16.3175C43.8119 15.1329 42.5142 14.1874 41.0626 13.5439C39.611 12.9005 38.0388 12.5739 36.451 12.586Z" fill="#EE306F"/>
<path d="M36.2058 32.4049C31.6036 32.4049 28.5667 28.4461 24.7121 22.6375C20.8575 16.8289 17.2182 12.5862 11.5741 12.5862C8.56372 12.5667 5.66846 13.742 3.52343 15.8543C1.37841 17.9666 0.158754 20.8435 0.132001 23.8539C0.158445 26.8645 1.37796 29.7416 3.52302 31.8542C5.66808 33.9668 8.56352 35.1423 11.5741 35.1228C16.2272 35.1228 19.418 32.2322 22.1769 28.6469L20.5525 26.251C18.0237 29.6958 15.3357 32.4055 11.5736 32.4055C9.28797 32.4211 7.0895 31.5295 5.46035 29.9264C3.83121 28.3233 2.9044 26.1394 2.88322 23.8539C2.90471 21.5684 3.83173 19.3848 5.46097 17.7819C7.09021 16.179 9.28866 15.2877 11.5741 15.3034C16.1763 15.3034 19.0493 19.0603 23.0596 25.0615C27.07 31.0627 30.5617 35.1228 36.2058 35.1228C38.4995 35.1294 40.7425 34.4475 42.6444 33.1652C44.5463 31.8829 46.0195 30.0593 46.8735 27.9304H43.8448C43.0867 29.2901 41.9785 30.4221 40.6352 31.2089C39.2919 31.9957 37.7625 32.4087 36.2058 32.4049Z" fill="#EE306F"/>
</svg>
