<svg width="48" height="48" viewBox="0 0 48 48" fill="none" xmlns="http://www.w3.org/2000/svg">
<g clip-path="url(#clip0)">
<path d="M24 48.0001C25.1169 48.0001 26.2087 47.6689 27.1373 47.0484C28.066 46.4278 28.7898 45.5459 29.2172 44.514C29.6446 43.4822 29.7564 42.3467 29.5386 41.2513C29.3207 40.1559 28.7828 39.1497 27.9931 38.3599C27.2033 37.5702 26.1971 37.0323 25.1017 36.8144C24.0063 36.5965 22.8708 36.7084 21.839 37.1358C20.8071 37.5632 19.9252 38.287 19.3046 39.2157C18.6841 40.1443 18.3529 41.2361 18.3529 42.353C18.3529 43.8507 18.9479 45.287 20.0069 46.3461C21.066 47.4051 22.5023 48.0001 24 48.0001Z" fill="#1C1C1C"/>
<path d="M30.1271 0H17.8447L0.705887 47.2941H11.0824L24 11.6824L36.8894 47.2941H47.2941L30.1271 0Z" fill="#1C1C1C"/>
</g>
<defs>
<clipPath id="clip0">
<rect width="48" height="48" fill="white"/>
</clipPath>
</defs>
</svg>
