<svg width="48" height="48" viewBox="0 0 48 48" fill="none" xmlns="http://www.w3.org/2000/svg">
<path d="M23.5 47C22.3949 47 21.2898 46.6987 20.3228 46.1508L6.20485 38.0699C4.21563 36.9193 3 34.8375 3 32.5638V16.4019C3 14.1557 4.21563 12.0464 6.17722 10.9233L20.3228 2.84234C22.2844 1.71922 24.7156 1.71922 26.7049 2.84234L40.8228 10.9233C42.7844 12.0464 44 14.1557 44 16.4019V32.5912C44 34.8375 42.7844 36.9467 40.8228 38.0699L26.7049 46.1508C25.7102 46.6987 24.6327 47 23.5 47ZM23.5 4.1846C22.7817 4.1846 22.0633 4.37635 21.4279 4.73246L7.28235 12.8408C5.98383 13.5804 5.21024 14.9501 5.21024 16.4019V32.5912C5.21024 34.0705 6.01146 35.4127 7.28235 36.1523L21.4003 44.2607C22.6988 45.0003 24.2736 45.0003 25.5721 44.2607L39.69 36.1797C40.9609 35.4401 41.7621 34.0979 41.7621 32.6186V16.4019C41.7621 14.9227 40.9609 13.553 39.69 12.8408L25.5997 4.73246C24.9643 4.37635 24.246 4.1846 23.5 4.1846ZM23.5 39.6587C22.8922 39.6587 22.312 39.4943 21.7871 39.193L11.5094 33.3308C10.4596 32.7282 9.7965 31.6051 9.7965 30.3724V18.6208C9.7965 17.4155 10.4319 16.2923 11.5094 15.6623L21.7871 9.80018C22.8646 9.19753 24.1631 9.19753 25.2129 9.80018L35.4629 15.6623C36.5128 16.265 37.1759 17.3881 37.1759 18.6208V30.3724C37.1759 31.5777 36.5128 32.7282 35.4629 33.3308L25.1853 39.193C24.688 39.4943 24.1078 39.6587 23.5 39.6587ZM23.5 10.9781C23.1961 10.9781 22.8922 11.0603 22.6159 11.2246L12.3383 17.0867C11.7857 17.4155 11.4542 17.9907 11.4542 18.6208V30.3724C11.4542 31.0024 11.7857 31.5777 12.3383 31.9064L22.6159 37.7685C23.1685 38.0972 23.8315 38.0972 24.3841 37.7685L34.6341 31.9064C35.1867 31.5777 35.5182 31.0024 35.5182 30.3724V18.6208C35.5182 17.9907 35.1867 17.4155 34.6341 17.0867L24.3841 11.2246C24.1354 11.0603 23.8315 10.9781 23.5 10.9781ZM23.5 32.2077C23.1961 32.2077 22.8922 32.1256 22.6159 31.9886L17.4218 28.9753C16.8693 28.674 16.5377 28.0714 16.5377 27.4687V21.497C16.5377 20.867 16.8693 20.2917 17.4218 19.9904L22.6159 17.0046C23.1685 16.7032 23.8315 16.7032 24.3841 17.0046L29.5782 19.9904C30.1307 20.2917 30.4623 20.867 30.4623 21.497V27.4687C30.4623 28.0988 30.1307 28.674 29.5782 28.9753L24.3841 31.9612C24.1078 32.1256 23.8039 32.2077 23.5 32.2077ZM23.5 17.8811C23.3895 17.8811 23.279 17.9085 23.1685 17.9633L17.9744 20.9492C17.781 21.0587 17.6429 21.2779 17.6429 21.497V27.4687C17.6429 27.6879 17.781 27.907 17.9744 28.044L23.1685 31.0298C23.3619 31.1394 23.6105 31.1394 23.8315 31.0298L29.0256 28.044C29.219 27.9344 29.3571 27.6879 29.3571 27.4687V21.497C29.3571 21.2779 29.219 21.0587 29.0256 20.9492L23.8315 17.9633C23.721 17.9085 23.6105 17.8811 23.5 17.8811Z" fill="url(#paint0_linear)"/>
<defs>
<linearGradient id="paint0_linear" x1="3" y1="24.4905" x2="44.0111" y2="24.4905" gradientUnits="userSpaceOnUse">
<stop stop-color="#E168FD"/>
<stop offset="1" stop-color="#7B00FC"/>
</linearGradient>
</defs>
</svg>
