<svg width="48" height="48" viewBox="0 0 48 48" fill="none" xmlns="http://www.w3.org/2000/svg">
<path fill-rule="evenodd" clip-rule="evenodd" d="M26.3351 2.66L40.6197 10.03C42.6915 11.13 44 13.22 44 15.64V19.05H38.766V15.64C38.766 15.31 38.5479 14.98 38.2207 14.76L23.9362 7.39C23.7181 7.28 23.391 7.28 23.0638 7.39L8.77926 14.76C8.45213 14.87 8.23404 15.2 8.23404 15.64V19.05H3V15.64C3 13.33 4.30851 11.13 6.38032 10.03L20.6649 2.66C22.4096 1.78 24.4814 1.78 26.3351 2.66ZM27.9707 23.78C27.9707 21.25 25.8989 19.27 23.5 19.27C20.992 19.27 19.0293 21.25 19.0293 23.78C19.0293 26.31 21.1011 28.29 23.5 28.29C25.8989 28.29 27.9707 26.31 27.9707 23.78ZM38.1117 33.24C38.4388 33.13 38.6569 32.8 38.6569 32.36V28.95H43.891V32.36C43.891 34.67 42.5825 36.87 40.5106 37.97L26.2261 45.34C25.3537 45.78 24.3723 46 23.391 46C22.4096 46 21.4282 45.78 20.5559 45.34L6.38032 37.97C4.30851 36.87 3 34.78 3 32.36V28.95H8.23404V32.36C8.23404 32.69 8.45213 33.02 8.77926 33.24L20.883 39.4V33.24C16.7394 32.03 13.7952 28.29 13.7952 23.78C13.7952 18.39 18.1569 13.88 23.609 13.88C28.9521 13.88 33.4229 18.28 33.4229 23.78C33.4229 28.29 30.3697 32.14 26.3351 33.24V39.4L38.1117 33.24Z" fill="#245AE5" fill-opacity="0.9"/>
</svg>
