<svg width="48" height="48" viewBox="0 0 48 48" fill="none" xmlns="http://www.w3.org/2000/svg">
<path d="M24 48C37.2548 48 48 37.2548 48 24C48 10.7452 37.2548 0 24 0C10.7452 0 0 10.7452 0 24C0 37.2548 10.7452 48 24 48Z" fill="url(#paint0_linear)" fill-opacity="0.05"/>
<path d="M42.75 22.41C42.915 18.9525 40.5 16.6575 37.77 15.0825L36 25.5C36.3654 25.4492 36.7375 25.4779 37.0909 25.584C37.4442 25.6902 37.7705 25.8713 38.0475 26.115C38.3648 26.4264 38.5546 26.845 38.5795 27.2889C38.6045 27.7328 38.4629 28.17 38.1825 28.515C39.8925 28.23 42.555 26.5875 42.75 22.41Z" fill="url(#paint1_linear)"/>
<path fill-rule="evenodd" clip-rule="evenodd" d="M19.5 10.2975L17.4 8.175C20.58 7.785 28.9725 8.28 37.095 13.3725C37.1693 13.827 37.1693 14.2905 37.095 14.745L37.7775 15.09C38.3231 15.995 38.6824 16.9999 38.8344 18.0457C38.9864 19.0915 38.9279 20.1571 38.6625 21.18C37.9575 24 36.75 25.245 36.21 25.5C35.1225 25.5 33.27 26.13 32.67 28.92C32.07 31.71 30.915 32.3175 30.42 32.2725L18.42 32.415L10.5 27.75L9.35999 18.0975L11.61 15.0975L15.63 11.8125L18.495 10.6425L19.5 10.2975ZM33.6825 14.25C33.3436 14.6092 32.9484 14.9106 32.5125 15.1425C29.43 14.4825 28.3125 12.8925 28.3125 12.8925C30.9337 12.8142 33.5267 13.4521 35.8125 14.7375C35.1165 14.5191 34.4042 14.3561 33.6825 14.25Z" fill="url(#paint2_linear)"/>
<path fill-rule="evenodd" clip-rule="evenodd" d="M32.565 28.92C30.282 30.018 27.7783 30.5798 25.245 30.5625C17.6775 30.5625 11.55 25.8075 11.55 19.95C11.55 15.615 14.895 11.895 19.6875 10.245C10.5675 10.77 3.23254 18.0975 3.23254 27.1425C3.23254 37.5825 12.54 46.2075 24 46.2075C27.9827 46.1745 31.8846 45.0808 35.3041 43.0389C38.7236 40.9969 41.5371 38.0806 43.455 34.59C38.3175 35.745 32.25 33.5475 32.565 28.92Z" fill="url(#paint3_linear)"/>
<defs>
<linearGradient id="paint0_linear" x1="24" y1="16.7925" x2="24" y2="48.63" gradientUnits="userSpaceOnUse">
<stop stop-color="#01E8F8"/>
<stop offset="1" stop-color="#01E8F8" stop-opacity="0"/>
</linearGradient>
<linearGradient id="paint1_linear" x1="38.925" y1="18.1275" x2="39.99" y2="30.855" gradientUnits="userSpaceOnUse">
<stop stop-color="#01E8F7"/>
<stop offset="1" stop-color="#00C2FF"/>
</linearGradient>
<linearGradient id="paint2_linear" x1="17.9625" y1="11.2875" x2="30.3225" y2="30.9075" gradientUnits="userSpaceOnUse">
<stop stop-color="#01E8F7"/>
<stop offset="1" stop-color="#00B3EC"/>
</linearGradient>
<linearGradient id="paint3_linear" x1="1235.25" y1="1404.15" x2="1282.53" y2="-114.554" gradientUnits="userSpaceOnUse">
<stop stop-color="#01E8F7"/>
<stop offset="1" stop-color="#00C2FF"/>
</linearGradient>
</defs>
</svg>
