<svg width="48" height="48" viewBox="0 0 48 48" fill="none" xmlns="http://www.w3.org/2000/svg">
<path fill-rule="evenodd" clip-rule="evenodd" d="M24 0C37.2528 0 48 10.7472 48 24C48 37.2528 37.2528 48 24 48C10.7472 48 0 37.2528 0 24C0 10.7472 10.7472 0 24 0Z" fill="#263145"/>
<path fill-rule="evenodd" clip-rule="evenodd" d="M25.4736 8.496H22.1184L8.256 32.64H32.8944H32.9664L31.2 29.76H13.248L25.4736 8.496Z" fill="#CCD9E2"/>
<path fill-rule="evenodd" clip-rule="evenodd" d="M37.6944 35.472L39.408 32.568L25.4256 8.496L13.2 29.76H16.56L25.4736 14.232L37.6944 35.472Z" fill="#AAAAAA"/>
<path fill-rule="evenodd" clip-rule="evenodd" d="M8.256 32.6401L9.9696 35.4721H37.6944L25.4736 14.1649L23.784 17.1409L32.8512 32.6401H8.256Z" fill="#5A5967"/>
</svg>
