<svg width="48" height="48" viewBox="0 0 48 48" fill="none" xmlns="http://www.w3.org/2000/svg">
<path d="M36.0552 35.9043L24 47.9595L18.02 41.9795C24.4685 41.5983 30.6947 39.5018 36.0552 35.9043ZM47.4831 23.5234L46.0059 22.0543L24 0.0404053L1.98611 22.0543L0.0960302 23.9443L0.779001 24.532C1.54933 25.1753 2.34348 25.7868 3.16146 26.3586C11.8654 32.4894 22.6579 34.3398 32.6245 31.9017C36.6905 30.917 40.5501 29.2254 44.0364 26.9065C44.9021 26.3347 45.7439 25.7153 46.5698 25.0641C47.0225 24.6988 47.4672 24.3255 47.904 23.9443L47.4831 23.5234ZM29.8052 29.0587C23.2376 25.0244 15.6773 22.904 7.97402 22.9358C18.0121 18.56 30.3294 17.9644 41.6222 24.4605C38.0247 26.7477 34.0063 28.3122 29.8052 29.0587Z" fill="#2B71FF"/>
</svg>
