<svg width="48" height="48" viewBox="0 0 48 48" fill="none" xmlns="http://www.w3.org/2000/svg">
<path d="M24 48C37.2548 48 48 37.2548 48 24C48 10.7452 37.2548 0 24 0C10.7452 0 0 10.7452 0 24C0 37.2548 10.7452 48 24 48Z" fill="#2E3148"/>
<path d="M24 37.926C31.6911 37.926 37.926 31.6911 37.926 24C37.926 16.3089 31.6911 10.074 24 10.074C16.3089 10.074 10.074 16.3089 10.074 24C10.074 31.6911 16.3089 37.926 24 37.926Z" fill="#1B1E36"/>
<path d="M24.0491 3.06187C21.4586 3.06187 19.3579 12.4582 19.3579 24.0495C19.3579 35.6407 21.4579 45.0371 24.0491 45.0371C26.6404 45.0371 28.7404 35.6407 28.7404 24.0495C28.7404 12.4582 26.64 3.06187 24.0491 3.06187ZM24.3731 43.8529C24.3469 43.9053 24.3087 43.9507 24.2616 43.9855C24.2145 44.0203 24.1598 44.0435 24.102 44.0531C24.0442 44.0627 23.985 44.0585 23.9291 44.0409C23.8733 44.0232 23.8224 43.9926 23.7806 43.9515C22.5874 42.5692 21.9911 40.0009 21.9911 40.0009C19.9043 33.285 20.4011 18.8651 20.4011 18.8651C21.3818 7.4175 23.166 4.713 23.7731 4.11263C23.8353 4.05148 23.9169 4.0142 24.0038 4.00734C24.0907 4.00048 24.1773 4.02448 24.2482 4.07512C25.1291 4.6995 25.8679 7.30988 25.8679 7.30988C27.2007 12.4375 27.8676 17.7154 27.852 23.0134C28.0496 29.6306 26.7589 37.0384 26.7589 37.0384C25.7647 42.6668 24.3716 43.8529 24.3716 43.8529H24.3731Z" fill="#6F7390"/>
<path d="M42.2527 13.605C40.9627 11.3573 31.7677 14.2114 21.7087 19.98C11.6497 25.7486 4.554 32.2466 5.84287 34.4925C7.13175 36.7384 16.3279 33.8861 26.3869 28.1175C36.4459 22.3489 43.5416 15.8509 42.2527 13.605ZM7.03311 34.1846C6.53924 34.1224 6.651 33.7166 6.651 33.7166C7.25662 31.9942 9.18449 30.1988 9.18449 30.1988C13.9736 25.0463 26.7292 18.3015 26.7292 18.3015C37.146 13.455 40.3815 13.6594 41.2042 13.8855C41.2885 13.909 41.3617 13.9616 41.4109 14.034C41.4602 14.1063 41.4822 14.1937 41.4731 14.2808C41.3745 15.3559 39.4732 17.295 39.4732 17.295C35.69 21.0046 31.444 24.2106 26.8402 26.8335C21.1987 30.2993 14.1311 32.8639 14.1311 32.8639C8.75324 34.8019 7.03274 34.1846 7.03274 34.1846H7.03311Z" fill="#6F7390"/>
<path d="M42.2081 34.5698C43.5079 32.3276 36.4301 25.7993 26.4064 19.9879C16.3826 14.1765 7.18876 11.2879 5.89013 13.5326C4.59151 15.7774 11.6681 22.3031 21.6975 28.1145C31.7269 33.9259 40.9095 36.8141 42.2081 34.5698ZM6.75151 14.3989C6.71959 14.3496 6.69971 14.2934 6.69346 14.235C6.68722 14.1766 6.69478 14.1176 6.71554 14.0626C6.7363 14.0077 6.76968 13.9584 6.81299 13.9187C6.8563 13.879 6.90833 13.85 6.96488 13.8341C8.75926 13.4966 11.28 14.2676 11.28 14.2676C18.1373 15.8291 30.3649 23.4885 30.3649 23.4885C39.7774 30.0761 41.223 32.9779 41.4394 33.801C41.4613 33.8855 41.4527 33.975 41.4151 34.0537C41.3775 34.1325 41.3134 34.1954 41.2339 34.2315C40.2521 34.6815 37.623 34.0114 37.623 34.0114C32.5175 32.5943 27.6156 30.5259 23.0381 27.8573C17.2151 24.7166 11.457 19.884 11.457 19.884C7.08187 16.1989 6.75413 14.4023 6.75413 14.4023L6.75151 14.3989Z" fill="#6F7390"/>
<path d="M24 26.469C25.3636 26.469 26.469 25.3636 26.469 24C26.469 22.6364 25.3636 21.531 24 21.531C22.6364 21.531 21.531 22.6364 21.531 24C21.531 25.3636 22.6364 26.469 24 26.469Z" fill="#B7B9C8"/>
<path d="M34.1235 16.0001C34.9144 16.0001 35.5556 15.3368 35.5556 14.5185C35.5556 13.7002 34.9144 13.0369 34.1235 13.0369C33.3326 13.0369 32.6914 13.7002 32.6914 14.5185C32.6914 15.3368 33.3326 16.0001 34.1235 16.0001Z" fill="#B7B9C8"/>
<path d="M10.6174 21.0375C11.4083 21.0375 12.0495 20.3742 12.0495 19.5559C12.0495 18.7376 11.4083 18.0742 10.6174 18.0742C9.82643 18.0742 9.18524 18.7376 9.18524 19.5559C9.18524 20.3742 9.82643 21.0375 10.6174 21.0375Z" fill="#B7B9C8"/>
<path d="M21.0863 39.21C21.8772 39.21 22.5184 38.5467 22.5184 37.7284C22.5184 36.9101 21.8772 36.2467 21.0863 36.2467C20.2953 36.2467 19.6541 36.9101 19.6541 37.7284C19.6541 38.5467 20.2953 39.21 21.0863 39.21Z" fill="#B7B9C8"/>
</svg>
