<svg width="48" height="48" viewBox="0 0 48 48" fill="none" xmlns="http://www.w3.org/2000/svg">
<g clip-path="url(#clip0)">
<path d="M11.1742 6.12115H20.8774C22.5806 6.12115 23.9742 4.74389 23.9742 3.06057C23.9742 1.37726 22.5806 0 20.8774 0H11.1742C9.47097 0 8.07742 1.37726 8.07742 3.06057C8.07742 4.74389 9.44517 6.12115 11.1742 6.12115Z" fill="#050505"/>
<path d="M36.7742 41.9043H27.0452C25.3419 41.9043 23.9484 43.2816 23.9484 44.9649C23.9484 46.6482 25.3419 48.0254 27.0452 48.0254H36.7484C38.4516 48.0254 39.8452 46.6482 39.8452 44.9649C39.8452 43.256 38.4774 41.9043 36.7742 41.9043Z" fill="#050505"/>
<path d="M39.7936 30.4016C39.2 28.8203 37.4194 28.0042 35.8194 28.5908L10.0129 38.0276C8.41291 38.6142 7.5871 40.374 8.18065 41.9553C8.7742 43.5366 10.5548 44.3527 12.1548 43.7661L37.9613 34.3294C39.5871 33.7427 40.3871 31.9829 39.7936 30.4016Z" fill="#050505"/>
<path d="M39.7936 18.2105C39.2 16.6292 37.4194 15.813 35.8194 16.3996L10.0129 25.8364C8.41291 26.423 7.5871 28.1828 8.18065 29.7641C8.7742 31.3454 10.5548 32.1616 12.1548 31.575L37.9613 22.1382C39.5871 21.5516 40.3871 19.7918 39.7936 18.2105Z" fill="#050505"/>
<path d="M12.1806 19.4091L37.9871 9.9723C39.5871 9.38569 40.4129 7.62586 39.8194 6.04457C39.2258 4.46327 37.4452 3.64712 35.8452 4.23373L10.0387 13.6705C8.4129 14.2571 7.6129 16.0169 8.18064 17.5982C8.77419 19.1795 10.5548 19.9957 12.1806 19.4091Z" fill="#050505"/>
</g>
<defs>
<clipPath id="clip0">
<rect width="32" height="48" fill="white" transform="translate(8)"/>
</clipPath>
</defs>
</svg>
