<svg width="48" height="48" viewBox="0 0 48 48" fill="none" xmlns="http://www.w3.org/2000/svg">
<path d="M24 48C37.2548 48 48 37.2548 48 24C48 10.7452 37.2548 0 24 0C10.7452 0 0 10.7452 0 24C0 37.2548 10.7452 48 24 48Z" fill="#E84142"/>
<path d="M32.4661 24.6236C33.2976 23.1874 34.6394 23.1874 35.4709 24.6236L40.6488 33.7134C41.4803 35.1496 40.8 36.3213 39.137 36.3213H28.7055C27.0614 36.3213 26.3811 35.1496 27.1937 33.7134L32.4661 24.6236ZM22.4504 7.12441C23.2819 5.68819 24.6047 5.68819 25.4362 7.12441L26.589 9.20315L29.3102 13.9842C29.9717 15.3449 29.9717 16.9512 29.3102 18.3118L20.1827 34.1291C19.3512 35.4142 17.9717 36.2268 16.4409 36.3213H8.863C7.2 36.3213 6.51969 35.1685 7.35118 33.7134L22.4504 7.12441Z" fill="white"/>
</svg>
