<svg width="48" height="48" viewBox="0 0 48 48" fill="none" xmlns="http://www.w3.org/2000/svg">
<path d="M35.9714 23.2419C36.3034 23.0759 36.8014 23.4079 36.8014 23.7399L37.4653 26.2296C37.6313 26.5616 37.2993 27.0596 36.9674 27.0596C36.6354 27.2255 36.1374 26.8936 36.1374 26.5616L35.4735 24.0718C35.3075 23.7399 35.4735 23.2419 35.9714 23.2419ZM16.8832 4.65165C16.7172 4.31968 16.7172 3.82173 17.0492 3.65574L19.207 2.16188C19.539 1.9959 20.0369 1.9959 20.2029 2.32787C20.3689 2.82582 20.3689 3.15779 20.0369 3.48976L17.8791 4.98362C17.5472 4.98362 17.0492 4.98362 16.8832 4.65165Z" fill="white"/>
<path fill-rule="evenodd" clip-rule="evenodd" d="M28.0042 13.4489C25.5144 12.9509 22.8587 13.2829 20.5349 14.7767C23.8546 13.6149 27.6722 14.4448 30.328 17.1005C33.9796 20.9182 33.9796 27.0596 30.328 30.7113C29.83 31.2092 29.3321 31.5412 28.8341 31.8731C30.162 31.3752 31.4899 30.7113 32.4858 29.5494C35.1415 26.8936 35.8055 23.076 34.8095 19.7563C31.9878 18.7604 29.498 16.4366 28.0042 13.4489Z" fill="#FFAE54"/>
<path d="M43.7727 35.0268C37.7973 46.1478 23.8546 50.2974 12.8996 44.156C1.77864 38.1805 -2.20499 24.0718 3.77045 12.9509C7.75408 5.64756 15.0574 1.33197 22.8587 1C23.8546 1 24.6845 1.49795 25.1824 2.49386C25.6804 3.48977 26.0124 4.81764 25.8464 6.14552C25.8464 6.64347 25.8464 7.14143 25.8464 7.63938C25.8464 9.96316 26.5103 12.2869 27.5062 14.2788C22.6927 12.4529 17.2152 14.4447 14.7254 19.0923C11.9037 24.2378 13.8955 30.5452 18.875 33.367C23.8546 36.1887 30.328 34.1969 32.9837 29.2174C34.4776 26.3956 34.6436 23.0759 33.4817 20.2542C35.4735 21.2501 37.6313 21.7481 39.9551 21.7481C41.2829 21.7481 42.4448 21.5821 43.7727 21.2501C44.4366 21.0841 45.2666 21.0841 45.7645 21.4161C46.2625 21.7481 46.5944 22.08 46.5944 22.578C46.7604 26.7276 45.7645 31.0432 43.7727 35.0268Z" fill="url(#paint0_radial)" stroke="#AC562A" stroke-width="1.0716"/>
<path d="M37.7973 30.5452L38.6272 30.2133C39.2911 31.8731 38.4612 33.367 37.9633 34.5289C37.9633 34.5289 37.9633 34.5289 37.9633 34.6948C37.6313 35.3588 37.2993 35.8567 37.2993 36.3547C37.1333 37.1846 37.1333 38.0145 37.2993 38.5125C37.4653 39.0104 37.9633 39.5084 38.6272 39.6744C39.1251 39.8404 39.9551 39.6744 40.951 39.0104C44.9346 34.3629 46.7604 28.3874 46.4285 22.744C46.4285 22.246 46.0965 21.7481 45.5985 21.4161C45.1006 21.0841 44.2707 21.0841 43.6067 21.2501C42.4448 21.5821 41.117 21.7481 39.9551 21.7481C37.6313 21.7481 35.4735 21.2501 33.4817 20.0882C34.6436 22.91 34.4776 26.0637 33.1497 28.8854C32.9837 29.3833 32.6517 29.7153 32.3198 30.2133C32.9837 30.0473 33.6477 29.7153 34.6436 29.0514C35.8055 28.2215 37.2993 29.0514 37.7973 30.5452ZM37.7973 30.5452C38.2952 31.8731 37.6313 33.035 37.1333 34.1969C36.8014 34.8608 36.4694 35.5248 36.3034 36.1887L37.7973 30.5452ZM21.8628 13.6148C19.539 14.2788 17.7131 13.9468 16.3853 13.2829C15.0574 12.4529 13.8955 11.291 13.3976 9.96316C12.7336 8.4693 12.5676 6.97544 12.8996 5.64757C13.2316 4.31969 13.8955 3.32378 14.8914 2.82583C17.7131 1.66394 20.7009 1 23.5226 1C24.3525 1 25.0165 1.49795 25.5144 2.32788C26.0124 3.1578 26.1784 4.31969 26.0124 5.3156C25.8464 5.97953 25.8464 6.80946 25.8464 7.63938C25.8464 9.96316 26.5103 12.2869 27.5062 14.2788C25.6804 13.4488 23.6886 13.2829 21.8628 13.6148Z" fill="#AC562A" stroke="#AC562A" stroke-width="1.0716"/>
<path d="M6.4262 19.9222C7.0679 19.9222 7.5881 19.402 7.5881 18.7603C7.5881 18.1186 7.0679 17.5984 6.4262 17.5984C5.78451 17.5984 5.26431 18.1186 5.26431 18.7603C5.26431 19.402 5.78451 19.9222 6.4262 19.9222Z" fill="#AC562A"/>
<path d="M23.6886 40.6702C24.3303 40.6702 24.8505 40.15 24.8505 39.5083C24.8505 38.8666 24.3303 38.3464 23.6886 38.3464C23.0469 38.3464 22.5267 38.8666 22.5267 39.5083C22.5267 40.15 23.0469 40.6702 23.6886 40.6702Z" fill="#AC562A"/>
<path d="M16.3853 42.4961C17.4853 42.4961 18.3771 41.6043 18.3771 40.5043C18.3771 39.4042 17.4853 38.5125 16.3853 38.5125C15.2852 38.5125 14.3935 39.4042 14.3935 40.5043C14.3935 41.6043 15.2852 42.4961 16.3853 42.4961Z" fill="#AC562A"/>
<defs>
<radialGradient id="paint0_radial" cx="0" cy="0" r="1" gradientUnits="userSpaceOnUse" gradientTransform="translate(23.7487 24.0384) rotate(90) scale(23.8651 23.6247)">
<stop offset="0.3335" stop-color="#F7B450"/>
<stop offset="0.6477" stop-color="#FFC977"/>
<stop offset="1" stop-color="#FF9900"/>
</radialGradient>
</defs>
</svg>
