<svg width="48" height="48" viewBox="0 0 48 48" fill="none" xmlns="http://www.w3.org/2000/svg">
<path fill-rule="evenodd" clip-rule="evenodd" d="M24 0C37.2528 0 48 10.7472 48 24C48 37.2528 37.2528 48 24 48C10.7472 48 0 37.2528 0 24C0 10.7472 10.7472 0 24 0Z" fill="#1E1E1E"/>
<path d="M24.36 34.032C16.6848 34.032 10.464 31.8144 10.464 28.8432C10.464 27.2928 12.1584 25.896 14.8704 24.912C16.9872 26.2704 20.5392 26.9664 24.5664 26.9664C28.4976 26.9664 31.9728 26.1168 34.1088 24.816C36.6672 25.7904 38.256 27.1488 38.256 28.6464C38.256 31.6224 32.0352 34.032 24.36 34.032Z" fill="white"/>
<path d="M24.4416 26.2992C18.624 26.2992 13.9056 24.4752 13.9056 22.224C13.9056 20.976 15.36 19.8576 17.64 19.1136C19.2672 19.9632 21.7056 20.5056 24.4416 20.5056C27.1776 20.5056 29.616 19.9632 31.2432 19.1136C33.528 19.8624 34.9776 20.976 34.9776 22.224C34.9824 24.4752 30.264 26.2992 24.4416 26.2992Z" fill="white"/>
<path d="M24.4032 19.8288C19.9056 19.8288 16.2576 18.3216 16.2576 16.4688C16.2576 14.616 19.9056 13.1088 24.4032 13.1088C28.9008 13.1088 32.5488 14.616 32.5488 16.4688C32.5488 18.3216 28.9008 19.8288 24.4032 19.8288Z" fill="white"/>
</svg>
