<svg width="48" height="48" viewBox="0 0 48 48" fill="none" xmlns="http://www.w3.org/2000/svg">
<path d="M24 48C37.2548 48 48 37.2548 48 24C48 10.7452 37.2548 0 24 0C10.7452 0 0 10.7452 0 24C0 37.2548 10.7452 48 24 48Z" fill="#516AFF"/>
<path d="M28.2 17.4L32.4 19.8V7.8L24 3.6L10.95 10.95V37.05L24 44.55L36.9 36.9V24L24.45 16.5L20.25 18.6L32.7 25.95L32.85 34.8L24 39.75L15 34.65V13.05L24 8.1L28.2 10.35V17.4Z" fill="white"/>
<path d="M23.55 24.6L26.4 23.1L29.55 25.05L20.25 30.3V19.5L23.55 21.45" fill="white"/>
</svg>
