<svg width="48" height="48" viewBox="0 0 48 48" fill="none" xmlns="http://www.w3.org/2000/svg">
<path d="M23.9992 47.9984C37.2536 47.9984 47.9984 37.2536 47.9984 23.9992C47.9984 10.7448 37.2536 0 23.9992 0C10.7448 0 0 10.7448 0 23.9992C0 37.2536 10.7448 47.9984 23.9992 47.9984Z" fill="#FF5000"/>
<path d="M39.8434 34.7634C39.8469 34.76 39.8504 34.755 39.8538 34.7516C39.8555 34.7499 39.8573 34.7465 39.8607 34.7448C39.8642 34.7415 39.8677 34.7381 39.8694 34.733C39.8711 34.7296 39.8729 34.7279 39.8763 34.7246C39.8798 34.7212 39.8815 34.7178 39.885 34.7127C39.8867 34.7094 39.8885 34.706 39.8919 34.7043C39.8954 34.7009 39.8971 34.6975 39.8989 34.6925C39.9006 34.6891 39.9023 34.6857 39.9058 34.6823C39.9075 34.6789 39.911 34.6756 39.9127 34.6722C39.9144 34.6688 39.9162 34.6654 39.9196 34.662C39.9214 34.6587 39.9231 34.6553 39.9266 34.6519C39.9283 34.6485 39.93 34.6451 39.9335 34.6401C39.9352 34.6367 39.937 34.6333 39.9387 34.6299C39.9404 34.6265 39.9422 34.6215 39.9439 34.6181C39.9456 34.6147 39.9474 34.6113 39.9491 34.608C39.9508 34.6029 39.9525 34.5995 39.9543 34.5944C39.956 34.5911 39.9577 34.5877 39.9577 34.5843C39.9595 34.5792 39.9612 34.5759 39.9629 34.5708C39.9647 34.5674 39.9647 34.564 39.9664 34.5623C39.9681 34.5573 39.9699 34.5522 39.9716 34.5471C39.9733 34.5438 39.9733 34.5404 39.9751 34.5387C39.9768 34.5336 39.9785 34.5285 39.9803 34.5235C39.9803 34.5218 39.982 34.5184 39.982 34.5167V34.515C39.9837 34.51 39.9837 34.5049 39.9855 34.4998C39.9855 34.4964 39.9872 34.4931 39.9872 34.4897C39.9889 34.4846 39.9889 34.4812 39.9907 34.4762C39.9907 34.4728 39.9924 34.4677 39.9924 34.4643C39.9924 34.4609 39.9941 34.4576 39.9941 34.4542C39.9941 34.4491 39.9959 34.444 39.9959 34.439C39.9959 34.4373 39.9959 34.4339 39.9959 34.4322C39.9959 34.4255 39.9976 34.4204 39.9976 34.4136C39.9976 34.4119 39.9976 34.4119 39.9976 34.4103C40.0011 34.3697 40.0011 34.3308 39.9959 34.292C39.9941 34.2852 39.9941 34.2768 39.9924 34.27C39.9924 34.27 39.9924 34.27 39.9924 34.2683C39.9855 34.2227 39.9716 34.1771 39.9543 34.1331C39.9543 34.1314 39.9526 34.1297 39.9526 34.1281C39.9508 34.123 39.9474 34.1179 39.9456 34.1129C39.9439 34.1095 39.9439 34.1078 39.9422 34.1044C39.9404 34.101 39.9387 34.0959 39.937 34.0926C39.9352 34.0892 39.9335 34.0858 39.9318 34.0824C39.93 34.0791 39.9283 34.0757 39.9266 34.0723C39.9248 34.0689 39.9214 34.0638 39.9196 34.0605C39.9196 34.0605 39.9196 34.0588 39.9179 34.0588L24.6813 8.47678C24.6345 8.25879 24.4665 8.07967 24.2413 8.02053C24.1824 8.00532 24.1218 7.99856 24.0612 8.00025C24.0023 7.99856 23.9416 8.00532 23.8827 8.02053C23.6558 8.07967 23.4878 8.25879 23.441 8.47678L8.08315 34.096L8.08141 34.0976C8.07968 34.1027 8.07622 34.1061 8.07449 34.1112C8.07275 34.1145 8.07102 34.1179 8.06929 34.1196C8.06756 34.123 8.06582 34.1281 8.06409 34.1314C8.06236 34.1348 8.06063 34.1382 8.05889 34.1433C8.05716 34.1466 8.05543 34.15 8.05543 34.1517C8.0537 34.1568 8.05197 34.1602 8.0485 34.1652C8.04677 34.1669 8.04677 34.1703 8.04504 34.172C8.04331 34.1771 8.03984 34.1838 8.03811 34.1889C8.03811 34.1906 8.03638 34.1906 8.03638 34.1923C8.03464 34.199 8.03118 34.2058 8.02945 34.2125C8.02945 34.2125 8.02945 34.2125 8.02945 34.2142C8.02425 34.2294 8.02079 34.2447 8.01559 34.2599C8.01386 34.2666 8.01213 34.2751 8.01039 34.2835C8.01039 34.2852 8.01039 34.2869 8.01039 34.2886C8.00866 34.2953 8.00866 34.3004 8.00693 34.3072C8.00693 34.3106 8.0052 34.3139 8.0052 34.319C8.0052 34.3224 8.00346 34.3275 8.00346 34.3308C8.00346 34.3359 8.00173 34.3427 8.00173 34.3477C8.00173 34.3494 8.00173 34.3511 8.00173 34.3545C8.00173 34.3612 8 34.368 8 34.3748C8 34.3765 8 34.3765 8 34.3781C8 34.3849 8 34.3934 8 34.4001V34.4018C8 34.4086 8 34.4153 8 34.4221C8 34.4238 8 34.4238 8 34.4255C8 34.4322 8 34.4373 8.00173 34.444C8.00173 34.4457 8.00173 34.4474 8.00173 34.4491C8.00173 34.4542 8.00346 34.4609 8.00346 34.466C8.00346 34.4694 8.00346 34.4711 8.0052 34.4745C8.0052 34.4795 8.00693 34.4846 8.00693 34.488C8.00693 34.4914 8.00866 34.4947 8.00866 34.4981C8.00866 34.5015 8.01039 34.5066 8.01039 34.51C8.01039 34.515 8.01213 34.5184 8.01386 34.5235C8.01386 34.5268 8.01559 34.5302 8.01559 34.5336C8.01732 34.5387 8.01732 34.5437 8.01905 34.5488C8.01905 34.5505 8.01905 34.5505 8.01905 34.5522C8.01905 34.5539 8.02079 34.5556 8.02079 34.559C8.02252 34.564 8.02425 34.5691 8.02598 34.5742C8.02772 34.5775 8.02772 34.5809 8.02945 34.5826C8.03118 34.5877 8.03291 34.5928 8.03464 34.5978C8.03638 34.6012 8.03638 34.6046 8.03811 34.6063C8.03984 34.6113 8.04157 34.6147 8.04331 34.6198C8.04504 34.6232 8.04677 34.6265 8.04677 34.6299C8.0485 34.635 8.05023 34.6384 8.05197 34.6434C8.0537 34.6468 8.05543 34.6502 8.05716 34.6536C8.0589 34.657 8.06063 34.662 8.06236 34.6654C8.06409 34.6688 8.06582 34.6722 8.06756 34.6756C8.06929 34.6789 8.07102 34.6823 8.07449 34.6874C8.07622 34.6908 8.07795 34.6941 8.08141 34.6975C8.08315 34.7009 8.08488 34.7043 8.08834 34.7077C8.09008 34.711 8.09354 34.7144 8.09527 34.7178C8.097 34.7212 8.09874 34.7246 8.1022 34.7279C8.10393 34.7313 8.1074 34.7347 8.10913 34.7398C8.11086 34.7431 8.11259 34.7465 8.11606 34.7482C8.11952 34.7516 8.12126 34.755 8.12472 34.76C8.12645 34.7634 8.12818 34.7651 8.13165 34.7685C8.13511 34.7719 8.13858 34.7769 8.14031 34.7803C8.14204 34.7837 8.14377 34.7854 8.14724 34.7871C8.1507 34.7905 8.15417 34.7955 8.15763 34.7989C8.15936 34.8006 8.16283 34.804 8.16456 34.8057C8.16803 34.8091 8.17149 34.8124 8.17495 34.8175C8.17669 34.8192 8.17842 34.8209 8.17842 34.8226L8.18015 34.8243C8.18535 34.8293 8.19228 34.8361 8.19747 34.8412C8.1992 34.8428 8.1992 34.8428 8.20094 34.8445C8.20787 34.8513 8.2148 34.8564 8.22172 34.8631C8.22346 34.8648 8.22692 34.8665 8.23039 34.8699C8.23558 34.8733 8.23905 34.8766 8.24424 34.88C8.24771 34.8817 8.25117 34.8851 8.25464 34.8868C8.2581 34.8902 8.2633 34.8918 8.26676 34.8952C8.27023 34.8969 8.27369 34.9003 8.27716 34.902C8.28235 34.9054 8.28582 34.9071 8.29101 34.9104C8.29448 34.9121 8.29794 34.9138 8.30141 34.9172C8.30833 34.9223 8.317 34.9256 8.32393 34.929C8.32739 34.9307 8.33085 34.9324 8.33259 34.9341C8.33778 34.9375 8.34298 34.9392 8.34818 34.9425C8.35164 34.9442 8.35511 34.9459 8.35857 34.9476C8.36377 34.9493 8.36896 34.9527 8.37589 34.9544C8.37936 34.9561 8.38109 34.9561 8.38455 34.9578C8.39148 34.9594 8.39668 34.9628 8.40361 34.9645C8.40534 34.9645 8.40707 34.9662 8.41054 34.9662C8.42786 34.973 8.44691 34.978 8.46597 34.9831H8.4677C8.47636 34.9848 8.48502 34.9865 8.49368 34.9882C8.49542 34.9882 8.49715 34.9882 8.50061 34.9899C8.50754 34.9915 8.51447 34.9932 8.52313 34.9932C8.52486 34.9932 8.52833 34.9932 8.53006 34.9949C8.53699 34.9966 8.54392 34.9966 8.55085 34.9966C8.55431 34.9966 8.55604 34.9966 8.55951 34.9983C8.56644 34.9983 8.57337 35 8.58029 35C8.58376 35 8.58549 35 8.58896 35C8.59762 35 8.60628 35 8.61494 35H8.61667L39.3861 34.9645C39.3948 34.9645 39.4052 34.9645 39.4138 34.9645C39.4156 34.9645 39.419 34.9645 39.4208 34.9645C39.4277 34.9645 39.4346 34.9628 39.4415 34.9628C39.445 34.9628 39.4467 34.9628 39.4502 34.9628C39.4571 34.9628 39.4641 34.9611 39.471 34.9611C39.4727 34.9611 39.4762 34.9611 39.4779 34.9594C39.4848 34.9578 39.4918 34.9578 39.4987 34.9561C39.5004 34.9561 39.5022 34.9561 39.5056 34.9544C39.5143 34.9527 39.5212 34.951 39.5299 34.9493C39.5316 34.9493 39.5316 34.9493 39.5334 34.9476C39.5524 34.9425 39.5697 34.9375 39.5888 34.9307C39.5905 34.9307 39.5923 34.929 39.594 34.929C39.6009 34.9273 39.6078 34.924 39.6148 34.9223C39.6182 34.9206 39.62 34.9206 39.6234 34.9189C39.6286 34.9172 39.6338 34.9138 39.6408 34.9121C39.6442 34.9104 39.6477 34.9087 39.6511 34.9071C39.6563 34.9054 39.6615 34.902 39.6667 34.9003C39.6702 34.8986 39.6737 34.8969 39.6771 34.8952C39.6841 34.8918 39.6893 34.8885 39.6962 34.8851C39.6996 34.8834 39.7048 34.88 39.7083 34.8783C39.7135 34.875 39.7187 34.8733 39.7222 34.8699C39.7256 34.8682 39.7291 34.8648 39.7326 34.8631C39.736 34.8597 39.7412 34.8581 39.7447 34.8547C39.7481 34.853 39.7516 34.8496 39.7551 34.8479C39.7603 34.8445 39.7637 34.8412 39.7689 34.8378C39.7724 34.8361 39.7741 34.8327 39.7776 34.831C39.7845 34.8259 39.7915 34.8192 39.7984 34.8124C39.7984 34.8124 39.7984 34.8124 39.8001 34.8124C39.807 34.8057 39.814 34.8006 39.8209 34.7938L39.8226 34.7922C39.8244 34.7905 39.8261 34.7888 39.8278 34.7871C39.8313 34.7837 39.8348 34.7803 39.8382 34.7753C39.84 34.7685 39.8417 34.7668 39.8434 34.7634ZM24.0438 20.2074L29.3046 28.7393H18.8073L24.0438 20.2074ZM30.8359 28.8964L24.657 18.8742L24.6865 10.8763L37.7024 32.7323L30.8359 28.8964ZM23.4272 10.8763V18.8742L17.276 28.8964L10.3039 32.7695L23.4272 10.8763ZM10.943 33.7969L15.206 31.4294L17.8841 29.9424H30.2279L32.2113 31.0492L37.0771 33.7681L10.943 33.7969Z" fill="white"/>
</svg>
