<svg width="48" height="48" viewBox="0 0 48 48" fill="none" xmlns="http://www.w3.org/2000/svg">
<path d="M24 48C37.2548 48 48 37.2548 48 24C48 10.7452 37.2548 0 24 0C10.7452 0 0 10.7452 0 24C0 37.2548 10.7452 48 24 48Z" fill="#82BB47"/>
<path d="M35.2566 24.9968L35.2432 24.972L35.241 24.9678C35.2329 24.9429 35.2267 24.9168 35.2177 24.8898L35.2165 24.8877L35.2154 24.8856L35.2142 24.8835L35.2131 24.8814L35.2119 24.8794L35.2108 24.8773L35.2085 24.8731C34.9268 23.931 34.3684 23.0954 33.6057 22.4747L33.6046 22.4726C33.5821 22.4554 33.5584 22.4361 33.5357 22.4191L33.5046 22.3959L33.482 22.3788L33.4723 22.3706L33.4508 22.3555L33.4412 22.3474L33.4197 22.3323L33.41 22.3242L33.3874 22.3071L33.3756 22.2999L33.353 22.2828L33.3412 22.2756L33.3169 22.2596L33.305 22.2524L33.2907 22.2309L33.2778 22.2218L33.2535 22.2058L33.2406 22.1967L33.2162 22.1806L33.2034 22.1715L33.179 22.1554L33.1661 22.1463L33.1403 22.128L33.1275 22.1189L33.0997 22.1019L33.0868 22.0929L33.0591 22.0757L33.0462 22.0667L33.0184 22.0496L33.0056 22.0406L32.9778 22.0234L32.9628 22.0156L32.935 21.9985L32.9201 21.9906L32.8902 21.9747L32.8752 21.9668L32.8442 21.9488L32.8293 21.9409L32.7983 21.923L32.7833 21.915L32.7523 21.8971L32.7363 21.8872L32.7052 21.8692L32.6891 21.8592L32.6561 21.8423L32.6401 21.8324L32.607 21.8155L32.5846 21.8033L32.5835 21.8012C32.5674 21.7912 32.5504 21.7843 32.5343 21.7743C31.8481 21.4216 31.1072 21.1875 30.3429 21.0819C30.5573 20.8515 30.7536 20.605 30.93 20.3444L30.9582 20.3026L30.9603 20.3015L30.9733 20.2811L30.9904 20.2533L30.9995 20.2404L31.0165 20.2127L31.0255 20.1998L31.0427 20.172L31.0517 20.1592L31.0688 20.1314L31.0778 20.1185L31.0949 20.0907L31.1039 20.0779L31.1189 20.0511L31.128 20.0382L31.1429 20.0115L31.15 19.9996L31.1649 19.9729L31.1721 19.9611L31.187 19.9344L31.1942 19.9225L31.2071 19.8969L31.2142 19.8851L31.2271 19.8595L31.2342 19.8477L31.2471 19.8221L31.2542 19.8103L31.2682 19.7867L31.2753 19.7749L31.2897 19.7514L31.2968 19.7396L31.3091 19.7172L31.3163 19.7054L31.3284 19.683L31.3334 19.6724L31.3456 19.6499L31.3505 19.6393L31.3628 19.6169L31.3676 19.6062L31.3799 19.5839L31.3848 19.5732L31.3946 19.5517L31.3996 19.5411L31.4095 19.5196L31.4144 19.5089L31.4243 19.4874L31.4292 19.4768L31.4401 19.4524L31.4549 19.4205C31.4657 19.396 31.4744 19.3726 31.4853 19.3481L31.4874 19.347C31.8162 18.5364 31.8933 17.6455 31.7086 16.7905L31.7075 16.7884L31.7052 16.7843L31.7041 16.7822L31.703 16.7801L31.7018 16.778L31.7007 16.776L31.6995 16.7739L31.6984 16.7719C31.6935 16.7478 31.6885 16.7238 31.6816 16.7008V16.6956L31.6804 16.6935L31.6793 16.6914L31.6781 16.6894L31.6793 16.6914L31.6692 16.6729C31.6621 16.6395 31.6549 16.6058 31.6442 16.5718C31.637 16.5384 31.6264 16.504 31.617 16.4715L31.6048 16.4488L31.6025 16.4446C31.5954 16.4218 31.5886 16.3988 31.5815 16.3759L31.5803 16.3738L31.5792 16.3718L31.578 16.3697L31.577 16.3676L31.5758 16.3656L31.5746 16.3635L31.5735 16.3614C31.3234 15.5232 30.8266 14.7796 30.1479 14.2277L30.1466 14.2255C30.1273 14.2093 30.1058 14.1941 30.0864 14.178L30.0596 14.1577L30.0381 14.142L30.0284 14.1339L30.0101 14.1196L30.0004 14.1114L29.9821 14.0971L29.9725 14.089L29.9521 14.0759L29.9424 14.0678L29.9209 14.0527L29.9112 14.0446L29.8897 14.0295L29.88 14.0214L29.8585 14.0063L29.8467 13.9991L29.8252 13.984L29.8134 13.9768L29.7919 13.9617L29.78 13.9546L29.7565 13.9406L29.7447 13.9334L29.7212 13.9195L29.7094 13.9123L29.6858 13.8983L29.674 13.8912L29.6505 13.8768L29.6387 13.8697L29.6143 13.8536L29.6025 13.8464L29.5778 13.8303L29.566 13.8232L29.5393 13.8082L29.5274 13.801L29.5007 13.7861L29.4878 13.777L29.4611 13.7621L29.4483 13.753L29.4215 13.7381L29.4087 13.729L29.3809 13.7119L29.366 13.704L29.3382 13.6869L29.3233 13.679L29.2933 13.6631L29.2784 13.6552L29.2485 13.6393L29.227 13.6294L29.2258 13.6273L29.181 13.6035C27.8704 12.9224 26.2053 12.7172 24.53 13.147L24.0942 13.2589L22.9898 8.97031L20.4357 9.62511L21.5318 13.9008L19.4885 14.4249L18.3889 10.1632L15.8348 10.8179L16.9334 15.0932L11.6656 16.4489L12.3665 19.1731L14.489 18.628C14.6561 18.5849 14.83 18.5752 15.0008 18.5993C15.1716 18.6234 15.336 18.681 15.4845 18.7687C15.6331 18.8563 15.7629 18.9724 15.8666 19.1103C15.9703 19.2481 16.0459 19.405 16.0889 19.5721L16.0895 19.5745L19.036 31.0379C19.0937 31.2631 19.0597 31.5019 18.9415 31.702C18.8233 31.9021 18.6306 32.0472 18.4055 32.1054L16.5457 32.5838L16.655 35.8237L21.916 34.4715L23.0291 38.739L25.5821 38.0822L24.4824 33.8047L26.5257 33.2806L27.6254 37.5576L30.1784 36.9007L29.0752 32.6067C29.5079 32.4937 29.8799 32.3974 30.1374 32.3308C32.0254 31.8452 33.5521 30.7381 34.4759 29.3581L34.5071 29.3121L34.5092 29.3109L34.5243 29.2894L34.5444 29.2573L34.5543 29.2412L34.5744 29.2091L34.5844 29.193L34.6023 29.162L34.6123 29.1459L34.6302 29.1149L34.6381 29.0999L34.6561 29.0689L34.664 29.054L34.6819 29.023L34.6898 29.008L34.7057 28.9781L34.7137 28.9632L34.7296 28.9333L34.7374 28.9183L34.7546 28.8905L34.7624 28.8756L34.7795 28.8478L34.7874 28.8329L34.8023 28.8061L34.8103 28.7912L34.8252 28.7645L34.8332 28.7496L34.8481 28.7229L34.8541 28.7091L34.8691 28.6823L34.8752 28.6685L34.888 28.6429L34.8952 28.6311L34.9081 28.6055L34.9153 28.5937L34.9281 28.5681L34.9352 28.5562L34.9481 28.5307L34.9552 28.5188L34.9681 28.4933L34.9753 28.4814L34.9882 28.4558L34.9953 28.444L35.0062 28.4196L35.0133 28.4078L35.0242 28.3834L35.0291 28.3728L35.0409 28.3451L35.0567 28.3099C35.0686 28.2823 35.0814 28.2566 35.0911 28.2301L35.0921 28.2269C35.4616 27.3151 35.5485 26.3132 35.3415 25.3513L35.3404 25.3493L35.3392 25.3472L35.3381 25.3451L35.3369 25.343L35.3358 25.341L35.3346 25.3389L35.3335 25.3368L35.3324 25.3347L35.3141 25.2565V25.2513L35.313 25.2492L35.3119 25.2471L35.3106 25.245L35.3095 25.243L35.3084 25.2409L35.3073 25.2388L35.3061 25.2367L35.305 25.2346L35.3038 25.2326L35.3027 25.2306L35.3015 25.2285L35.3005 25.2264L35.2993 25.2243L35.2948 25.2161C35.2854 25.1786 35.2778 25.14 35.2662 25.1035C35.2644 25.0807 35.2589 25.0408 35.2566 24.9968ZM20.2489 17.3284C20.6847 17.2166 22.4865 16.764 23.0806 16.6093C24.0252 16.3675 24.9556 16.4614 25.6828 16.8114L25.7073 16.8222L25.7179 16.8271L25.7329 16.835L25.74 16.839L25.7549 16.8469L25.7621 16.8509L25.777 16.8588L25.7841 16.8628L25.7991 16.8707L25.8063 16.8746L25.8213 16.8826L25.8284 16.8865L25.8434 16.8945L25.8506 16.8984L25.8655 16.9064L25.8726 16.9103L25.8875 16.9182L25.8947 16.9222L25.9096 16.9301L25.9168 16.9341L25.9297 16.9432L25.9368 16.9471L25.9496 16.9562L25.9568 16.9602L25.9696 16.9693L25.9768 16.9732L25.9886 16.9804L25.9958 16.9843L26.0076 16.9915L26.0148 16.9954L26.0266 17.0026L26.0337 17.0065L26.0456 17.0137L26.0527 17.0176L26.0646 17.0248L26.07 17.0299L26.0818 17.0371L26.0861 17.04L26.0979 17.0472L26.1022 17.0502L26.114 17.0574L26.1183 17.0603L26.1301 17.0675L26.1343 17.0705L26.1441 17.0786L26.1483 17.0816L26.1601 17.0888L26.1762 17.0988C26.1881 17.1059 26.1988 17.116 26.2106 17.1231C26.5827 17.404 26.8561 17.7956 26.9915 18.2416L26.9948 18.2477C26.9983 18.2592 27.0029 18.2726 27.0064 18.2842L27.0075 18.2864L27.0142 18.2986C27.019 18.3173 27.0247 18.333 27.0296 18.3517C27.0348 18.3708 27.0382 18.3904 27.0397 18.4102L27.0464 18.4224L27.0476 18.4244C27.0494 18.4372 27.0526 18.4498 27.0571 18.4619L27.0604 18.468C27.1561 18.9241 27.1052 19.3988 26.915 19.8243L26.8983 19.8626L26.8894 19.8808L26.8822 19.8927L26.8803 19.899L26.8753 19.9097L26.8734 19.9161L26.8662 19.9279L26.8643 19.9341L26.8571 19.9459L26.8552 19.9523L26.848 19.9641L26.8461 19.9702L26.8389 19.982L26.837 19.9884L26.8298 20.0002L26.8278 20.0067L26.8207 20.0185L26.8167 20.0256L26.8095 20.0375L26.8055 20.0446L26.7983 20.0564L26.7944 20.0636L26.7872 20.0754L26.7833 20.0826L26.7742 20.0954L26.7702 20.1026L26.7611 20.1155L26.7572 20.1226L26.7481 20.1355L26.7441 20.1426L26.7351 20.1555L26.7311 20.1626L26.722 20.1755L26.7181 20.1827L26.709 20.1956L26.705 20.2027L26.6959 20.2156L26.692 20.2227L26.6829 20.2355L26.679 20.2427L26.6678 20.2567L26.6638 20.2638L26.6527 20.2778L26.6487 20.285L26.6375 20.299L26.6336 20.3061L26.6224 20.3201L26.6143 20.3298L26.5992 20.3512C26.1295 21.0095 25.3598 21.5411 24.4152 21.7829C23.8199 21.9353 22.0229 22.4066 21.5874 22.5185L20.2489 17.3284ZM30.2328 26.117L30.2396 26.1292L30.2407 26.1312C30.2432 26.1456 30.2468 26.1573 30.2493 26.1719L30.2504 26.1741L30.2516 26.1762L30.2528 26.1782L30.254 26.1803C30.3547 26.6831 30.2823 27.2051 30.0486 27.6615L30.0257 27.7031L30.0147 27.7224L30.0068 27.7373L30.0028 27.7445L29.9957 27.7563L29.9917 27.7635L29.9846 27.7753L29.9806 27.7824L29.9715 27.7953L29.9676 27.8024L29.9585 27.8152L29.9546 27.8224L29.9455 27.8353L29.9415 27.8425L29.9324 27.8553L29.9285 27.8625L29.9194 27.8753L29.9154 27.8824L29.9063 27.8953L29.9024 27.9025L29.8933 27.9154L29.8894 27.9226L29.8803 27.9354L29.8763 27.9426L29.8672 27.9554L29.8633 27.9625L29.8521 27.9765L29.8482 27.9837L29.837 27.9976L29.8331 28.0048L29.823 28.0209L29.8191 28.0281L29.809 28.0441L29.805 28.0513L29.7951 28.0674L29.7889 28.076L29.779 28.0921L29.7729 28.1007L29.7607 28.1178L29.7546 28.1264L29.7424 28.1435L29.7363 28.1521L29.7241 28.1692L29.718 28.1778L29.7058 28.195L29.6997 28.2035L29.6876 28.2207L29.6774 28.2316L29.6581 28.2552C29.0876 28.9837 28.1675 29.5829 27.0497 29.8698C26.345 30.0518 24.2154 30.6087 23.6973 30.741L22.2475 25.1C22.7645 24.9658 24.9 24.4296 25.6047 24.2474C26.7223 23.9608 27.8194 24.0419 28.6677 24.404L28.6953 24.4158L28.7091 24.4219L28.7294 24.4297L28.7389 24.4325L28.7572 24.4414L28.7667 24.4441L28.785 24.4531L28.7945 24.4559L28.8127 24.4648L28.8199 24.4687L28.8382 24.4776L28.8453 24.4816L28.8636 24.4905L28.8708 24.4944L28.889 24.5033L28.8962 24.5073L28.9112 24.5152L28.9183 24.5192L28.9333 24.5271L28.9405 24.5311L28.9554 24.539L28.9625 24.5429L28.9774 24.5509L28.9846 24.5548L28.9995 24.5628L29.0067 24.5667L29.0216 24.5747L29.0288 24.5786L29.0438 24.5866L29.0509 24.5905L29.0658 24.5985L29.073 24.6024L29.0879 24.6103L29.0951 24.6143L29.1079 24.6233L29.1151 24.6273L29.128 24.6364L29.1351 24.6404L29.148 24.6495L29.1552 24.6534L29.168 24.6625L29.1752 24.6664L29.1881 24.6755L29.1952 24.6795L29.2071 24.6867L29.2142 24.6906L29.2271 24.6997L29.2442 24.7119C29.2571 24.721 29.272 24.7289 29.285 24.7379C29.7121 25.0259 30.029 25.4502 30.1839 25.9415L30.1883 25.9497C30.1929 25.9632 30.1964 25.9747 30.201 25.9882L30.2022 25.9902L30.2088 26.0024C30.2136 26.0212 30.2183 26.0399 30.2243 26.0608C30.2348 26.0653 30.2365 26.0884 30.2332 26.1168L30.2328 26.117Z" fill="white"/>
</svg>
