<svg width="48" height="48" viewBox="0 0 48 48" fill="none" xmlns="http://www.w3.org/2000/svg">
<path d="M9.1262 33.5361C9.84048 32.8255 10.8076 32.4275 11.8151 32.4295C12.8226 32.4315 13.7881 32.8332 14.4996 33.5466C15.2111 34.2599 15.6104 35.2265 15.6097 36.234C15.6091 37.2415 15.2085 38.2076 14.4961 38.92C13.7837 39.6324 12.8176 40.033 11.8101 40.0336C10.8026 40.0343 9.83603 39.635 9.12268 38.9235C8.40933 38.212 8.00755 37.2465 8.00557 36.239C8.0036 35.2315 8.4016 34.2644 9.11216 33.5501L9.1262 33.5361Z" fill="#FDBA4D"/>
<path d="M35.1557 8.82445C35.688 8.29218 36.3661 7.92968 37.1043 7.78281C37.8426 7.63594 38.6078 7.7113 39.3033 7.99934C39.9987 8.28739 40.5931 8.77519 41.0113 9.40106C41.4295 10.0269 41.6527 10.7628 41.6527 11.5155C41.6527 12.2682 41.4295 13.004 41.0113 13.6299C40.5931 14.2558 39.9987 14.7436 39.3033 15.0316C38.6078 15.3197 37.8426 15.395 37.1043 15.2482C36.3661 15.1013 35.688 14.7388 35.1557 14.2065C34.4431 13.4942 34.0423 12.5282 34.0414 11.5207C34.0405 10.5131 34.4396 9.54639 35.151 8.83288H35.1557" fill="#FDBA4D"/>
<path d="M14.0065 30.6082L18.022 34.6237L21.7005 30.9452C20.7927 30.5807 19.9681 30.0362 19.2764 29.3445C18.5847 28.6528 18.0402 27.8282 17.6757 26.9203L14.0065 30.6082Z" fill="#FDBA4D"/>
<path d="M32.0631 20.7829L35.7416 17.1044L31.7262 13.0889L28.0476 16.7674C28.9556 17.1317 29.7802 17.6762 30.4719 18.368C31.1628 19.0549 31.7045 19.8771 32.0631 20.7829Z" fill="#FDBA4D"/>
<path d="M35.0274 38.7281C34.4951 38.1958 34.1326 37.5177 33.9858 36.7795C33.8389 36.0412 33.9143 35.276 34.2023 34.5805C34.4904 33.8851 34.9782 33.2907 35.604 32.8725C36.2299 32.4543 36.9657 32.2311 37.7184 32.2311C38.4712 32.2311 39.207 32.4543 39.8329 32.8725C40.4587 33.2907 40.9465 33.8851 41.2346 34.5805C41.5226 35.276 41.598 36.0412 41.4511 36.7795C41.3043 37.5177 40.9418 38.1958 40.4095 38.7281C40.0567 39.0815 39.6378 39.362 39.1766 39.5535C38.7155 39.745 38.2211 39.8438 37.7218 39.8443C37.2224 39.8447 36.7279 39.7468 36.2664 39.556C35.8049 39.3653 35.3855 39.0856 35.0321 38.7328L35.0274 38.7281Z" fill="#5DA9DD"/>
<path d="M9.50807 13.8677C8.97579 13.3354 8.6133 12.6573 8.46643 11.919C8.31956 11.1808 8.39491 10.4155 8.68296 9.72008C8.971 9.02464 9.4588 8.43024 10.0847 8.01204C10.7105 7.59384 11.4464 7.37063 12.1991 7.37063C12.9518 7.37063 13.6877 7.59384 14.3135 8.01204C14.9394 8.43024 15.4272 9.02464 15.7152 9.72008C16.0033 10.4155 16.0786 11.1808 15.9318 11.919C15.7849 12.6573 15.4224 13.3354 14.8901 13.8677C14.5371 14.2208 14.1179 14.5009 13.6566 14.692C13.1952 14.8831 12.7008 14.9815 12.2014 14.9815C11.7021 14.9815 11.2076 14.8831 10.7463 14.692C10.285 14.5009 9.86581 14.2208 9.51275 13.8677" fill="#5DA9DD"/>
<path d="M31.4229 34.4637L35.4384 30.4482L31.7598 26.7697C31.3954 27.6775 30.8509 28.5021 30.1591 29.1938C29.4674 29.8855 28.6428 30.43 27.735 30.7945" fill="#5DA9DD"/>
<path d="M22.0076 16.5587L18.3291 12.8802L14.3136 16.8957L17.9921 20.5742C18.3564 19.6663 18.9008 18.8416 19.5927 18.15C20.2796 17.459 21.1017 16.9173 22.0076 16.5587Z" fill="#5DA9DD"/>
<path d="M28.7328 5.80956C28.732 6.81893 28.3304 7.78669 27.6163 8.50003C26.9022 9.21336 25.934 9.61388 24.9246 9.61351C23.9153 9.61314 22.9473 9.21191 22.2337 8.49804C21.5201 7.78418 21.1193 6.81613 21.1193 5.80675C21.1193 4.79738 21.5201 3.82933 22.2337 3.11547C22.9473 2.4016 23.9153 2.00037 24.9246 2C25.934 1.99963 26.9022 2.40015 27.6163 3.11348C28.3304 3.82682 28.732 4.79458 28.7328 5.80395V5.80956Z" fill="#18568C"/>
<path d="M28.7328 42.1961C28.732 43.2054 28.3304 44.1732 27.6163 44.8865C26.9022 45.5999 25.934 46.0004 24.9246 46C23.9153 45.9996 22.9473 45.5984 22.2337 44.8845C21.5201 44.1707 21.1193 43.2026 21.1193 42.1932C21.1193 41.1839 21.5201 40.2158 22.2337 39.502C22.9473 38.7881 23.9153 38.3869 24.9246 38.3865C25.934 38.3861 26.9022 38.7866 27.6163 39.5C28.3304 40.2133 28.732 41.1811 28.7328 42.1904V42.1961Z" fill="#18568C"/>
<path d="M26.3066 11.6128H23.9104V16.3303C24.7032 16.1927 25.5138 16.1927 26.3066 16.3303" fill="#18568C"/>
<path d="M26.3066 31.883C25.5138 32.0206 24.7032 32.0206 23.9104 31.883V36.6005H26.3066" fill="#18568C"/>
<path d="M41.7789 26.7696C40.7696 26.7689 39.8018 26.3673 39.0885 25.6532C38.3751 24.939 37.9746 23.9708 37.975 22.9615C37.9754 21.9521 38.3766 20.9842 39.0905 20.2706C39.8043 19.557 40.7724 19.1561 41.7817 19.1561C42.7911 19.1561 43.7592 19.557 44.473 20.2706C45.1869 20.9842 45.5881 21.9521 45.5885 22.9615C45.5889 23.9708 45.1884 24.939 44.475 25.6532C43.7617 26.3673 42.7939 26.7689 41.7845 26.7696H41.7789Z" fill="#18578C"/>
<path d="M6.80956 27.4164C6.05614 27.4164 5.31964 27.193 4.69318 26.7745C4.06672 26.3559 3.57844 25.761 3.29008 25.0649C3.00171 24.3689 2.92622 23.603 3.07313 22.864C3.22005 22.125 3.58278 21.4462 4.11547 20.9134C4.64815 20.3806 5.32686 20.0177 6.06578 19.8706C6.8047 19.7235 7.57065 19.7988 8.26677 20.087C8.96289 20.3752 9.55793 20.8634 9.97664 21.4897C10.3954 22.1161 10.6189 22.8525 10.6191 23.6059C10.6192 24.1063 10.5208 24.6018 10.3294 25.0641C10.138 25.5264 9.85742 25.9465 9.50366 26.3003C9.1499 26.6542 8.7299 26.9348 8.26764 27.1264C7.80538 27.3179 7.30992 27.4164 6.80956 27.4164Z" fill="#18578C"/>
<path d="M32.0921 24.8049H36.8096V22.405H32.0921C32.2297 23.1978 32.2297 24.0084 32.0921 24.8012V24.8049Z" fill="#18578C"/>
<path d="M17.4343 24.805C17.2967 24.0122 17.2967 23.2016 17.4343 22.4088H12.7168V24.805" fill="#18578C"/>
<path d="M30.2098 23.8877C30.2098 24.9559 29.893 26 29.2996 26.8882C28.7061 27.7764 27.8627 28.4686 26.8758 28.8774C25.8889 29.2861 24.803 29.3931 23.7554 29.1847C22.7077 28.9763 21.7454 28.4619 20.9901 27.7066C20.2348 26.9513 19.7204 25.989 19.512 24.9413C19.3036 23.8937 19.4106 22.8078 19.8193 21.8209C20.2281 20.834 20.9203 19.9905 21.8085 19.3971C22.6966 18.8037 23.7408 18.4869 24.809 18.4869C26.2412 18.4874 27.6147 19.0566 28.6274 20.0693C29.6401 21.082 30.2093 22.4555 30.2098 23.8877Z" fill="#18568B"/>
</svg>
