<svg width="48" height="48" viewBox="0 0 48 48" fill="none" xmlns="http://www.w3.org/2000/svg">
<path d="M24 48C37.2548 48 48 37.2548 48 24C48 10.7452 37.2548 0 24 0C10.7452 0 0 10.7452 0 24C0 37.2548 10.7452 48 24 48Z" fill="#000D2B"/>
<path d="M23.88 8.82L17.103 12.7905L23.88 16.7625L30.7845 12.7905L23.88 8.82ZM24.9945 30.021V37.9635L34.2 32.712V24.768L24.9945 30.021ZM31.899 15.288V23.232L24.993 27.204V19.26L31.899 15.288ZM15.276 23.232L22.182 27.204V19.26L15.276 15.288V23.232ZM15.276 33.993L22.182 37.9635V30.021L15.276 26.0505V33.9915V33.993Z" fill="white"/>
</svg>
