<?xml version="1.0" encoding="utf-8"?>
<!-- Generator: Adobe Illustrator 23.0.1, SVG Export Plug-In . SVG Version: 6.00 Build 0)  -->
<svg version="1.1" id="Layer_1" xmlns="http://www.w3.org/2000/svg" xmlns:xlink="http://www.w3.org/1999/xlink" x="0px" y="0px"
	 viewBox="0 0 69 69" style="enable-background:new 0 0 69 69;" xml:space="preserve">
<style type="text/css">
	.st0{fill:#ECB500;}
	.st1{fill:#FFFFFF;}
</style>
<title>bsv_sm</title>
<circle class="st0" cx="34.5" cy="34.5" r="34.5"/>
<path class="st1" d="M35.8,55.9c0-0.1,0.1-0.3,0.1-0.4c-0.1-0.3-0.2-0.7-0.4-0.8c-0.2-0.1-0.6,0.1-0.8,0.3c-0.2,0.2-0.3,0.6-0.4,0.9
	c-0.2,0.5-0.6,0.9-1.1,1.1c0,0-0.1-0.1-0.1-0.1c-0.1-1.1-0.2-1.2-1.2-0.6c-0.3,0.1-0.5,0.3-0.9,0.5c0.3,0.2,0.5,0.3,0.7,0.4
	c0.5,0.4,1,0.7,1.3,1.1c0.2,0.3,0.2,0.8,0.2,1.1c0,0.5,0,1,0,1.5c0,0.5-0.2,1-0.8,1.4c-0.1-0.5-0.2-0.9-0.3-1.3
	c-0.1-0.3-0.2-0.5-0.6-0.5c-0.6,0-1-0.4-1.4-0.9c-0.2-0.3-0.4-0.4-0.7-0.1c-0.4,0.3-0.8,0.5-1.2,0.7c-0.6,0.3-1,0.8-1.3,1.4
	c-0.2,0.6-0.4,1.1-0.6,1.7c-0.2,0.6-0.5,0.9-1.2,0.9c-0.6,0-0.3,0.5-0.3,0.7c-0.5-0.1-0.6-0.4-0.7-0.8c-0.1-0.5-0.2-1.1-0.2-1.6
	c-0.1-0.5,0.2-0.9,0.5-1.3c0.4-0.4,0.8-0.8,1.2-1.2c0.2-0.2,0.3-0.4,0.5-0.7c-0.7-0.1-1.2-0.1-1.7-0.2c-0.4,0-0.8-0.1-1.2,0
	c-0.3,0.1-0.7,0.2-1,0.5c-0.4,0.4-0.8,0.9-1.5,0.6c-0.1,0-0.4,0.1-0.4,0.3c-0.1,0.3-0.2,0.7-0.3,1.1c-0.1-0.2-0.3-0.3-0.3-0.5
	c-0.1-0.6-0.3-1.2-0.3-1.8c0-0.3,0.2-0.6,0.5-0.8c1.1-0.9,2.3-1.4,3.7-1.2c0.2,0,0.5,0,0.7,0c0,0,0.1-0.1,0.1-0.1
	c-0.3-0.2-0.5-0.6-0.8-0.7c-0.5-0.3-1.1-0.4-1.6-0.7c-0.3-0.2-0.5-0.5-0.8-0.7c-0.2-0.1-0.4-0.2-0.6-0.3c-0.2,0-0.5,0.1-0.7,0.1
	c0.1-0.7,0.6-1.1,1.3-1.2c0.3,0,0.7-0.2,1-0.2c0.3,0,0.7-0.1,1,0c0.8,0.3,1.4,0.9,1.8,1.6c0.2,0.3,0.5,0.6,0.8,0.9
	c0.4-0.9-0.1-2.1-0.8-2.5c-0.4-0.2-0.6-0.4-0.6-0.8c0-0.7-0.1-0.8-0.8-0.9c-0.1,0-0.3-0.1-0.4-0.1c0.4-0.5,1-0.6,1.7-0.4
	c0.4,0.1,0.8,0.2,1.2,0.3c0.6,0,0.9,0.4,1.1,0.8c0.4,0.7,0.7,1.4,1.1,2.2c0.1-0.3,0.3-0.4,0.3-0.6c0.3-0.7,0.5-1.5,0.8-2.2
	c0.1-0.3,0.1-0.5-0.3-0.7c-2.2-0.8-4.3-1.9-6.2-3.2c-0.1-0.1-0.2-0.1-0.3-0.1c-0.2,0-0.4,0-0.6,0c0.1,0.2,0.1,0.4,0.2,0.6
	c0.1,0.1,0.2,0.2,0.3,0.4c-0.4,0-0.7,0.1-0.9,0c-0.6-0.2-1.1-0.6-1.4-1.2c-0.3-0.6-0.5-1.3-0.6-2c-0.1-0.6-0.3-1.1-0.8-1.5
	c-0.4-0.4-0.7-0.8-1-1.2c-0.1,0-0.1,0.1-0.2,0.1c0.1,0.3,0.1,0.6,0.2,0.9c0,0.2,0,0.4,0,0.6c-0.2-0.1-0.5-0.1-0.6-0.3
	c-0.7-0.8-0.8-1.8-1-2.8c-0.2-1.1-0.6-2.2-0.9-3.2c0-0.1-0.1-0.1-0.2-0.1c0,0.2,0.1,0.4,0.1,0.5c0,0.1-0.1,0.3-0.1,0.4
	c-0.1-0.1-0.3-0.1-0.4-0.2c-0.5-0.7-0.5-1.5-0.4-2.2c0.1-1.2,0.4-2.4,0.6-3.6c0.1-0.3,0.1-0.5-0.2-0.7c-0.1-0.1-0.1-0.4-0.1-0.6
	c0.3-1.5,1.1-2.8,1.8-4.2c0.1-0.2,0.2-0.4,0.3-0.6c-0.5-0.2-0.4-0.6-0.1-0.9c0.7-0.8,1.5-1.5,2.3-2.3c0.2-0.2,0.6-0.3,0.9-0.3
	c1,0.2,1.9,0.4,2.9,0.6c0.2,0,0.3,0.1,0.5,0.2c-0.2,0.5-0.6,0.9-0.6,1.3c0,0.8-0.5,1.3-0.9,1.8c-1,1.2-1,1.2,0.1,2.3
	c0.4,0.4,0.6,0.8,0.3,1.4c-0.3,0.8,0.1,1.5,0.5,2.1c0.1,0.1,0.2,0.2,0.3,0.2c0.6,0,0.6,0.4,0.8,0.8c0.1,0.4,0.5,0.7,0.7,1.1
	c0.2,0.2,0.4,0.4,0.6,0.7c0.8,1.6,2.2,2.1,3.9,1.4c0.8-0.3,0.8-0.3,1,0.6c0.6,2.6,1.9,4.7,4.3,6.1c1.8,1.1,4,0.6,5.2-1.2
	c0.7-1.1,1.3-2.2,2.1-3.2c0.5-0.7,1.3-1.1,1.9-1.7c0.1-0.1,0.4-0.1,0.6-0.2c-0.1,0.3-0.1,0.6-0.2,0.8c0,0.2,0,0.5,0,0.7
	c0.1,0.2,0.2,0.4,0.3,0.6c0.2-0.1,0.3-0.3,0.5-0.4c0.2-0.1,0.4-0.3,0.6-0.4c0.5-0.1,0.7-0.4,0.7-0.9c0.2-1.2,0.3-2.5,1.1-3.6
	c0.1-0.2,0.3-0.3,0.4-0.5c0.1,0,0.1,0,0.2,0c0,0.3,0.1,0.7,0.1,1c0,0.3,0.1,0.4,0.5,0.3c0.8-0.4,1.3-0.9,1.1-1.9
	c-0.1-0.7,0-1.4,0.1-2.1c0.1-0.4,0.3-0.7,0.5-1.1c0.1,0,0.1,0,0.2,0c0.1,0.3,0.2,0.6,0.2,1c1.1-0.4,1.3-0.8,1.2-2
	c-0.1-0.8,0.1-1.7,0.1-2.6c0-0.1,0.2-0.3,0.3-0.5c0.1,0.4,0.2,0.7,0.2,1c0.8-0.3,1.1-0.9,0.9-1.7c-0.1-0.9-0.3-1.7-0.3-2.6
	c0-0.3,0.1-0.7,0.3-1.1c0.2,0.3,0.4,0.4,0.6,0.7c0.1-0.3,0.3-0.6,0.3-0.8c-0.1-0.7-0.2-1.4-0.3-2.1c-0.1-0.7,0-1.4,0.5-2.2
	c0.1,0.3,0.2,0.5,0.3,0.6c0.2,0.5,0.5,1.1,0.8,1.6c0.4,0.7,0.8,1.3,1.2,2c0.1,0.2,0.3,0.5,0.5,0.5c1.2,0.6,2.2,1.4,3.2,2.4
	c0.3,0.3,0.6,0.5,0.9,0.8c0.1,0,0.1,0,0.2,0c0-0.3,0-0.7,0-1c0-0.3,0-0.6,0-0.9c0-0.1,0.1-0.3,0.2-0.4c0.5-0.3,1-0.5,1.5-0.8
	c0.1,0.7,0.2,1.3,0.3,1.9c0.9-0.4,1.8-0.4,2.6,0.1c-0.4,0.6-0.8,1.1-1.2,1.7c0.1,0,0.3,0,0.4,0c1,0,1.8,0.5,2.2,1.5
	c0,0.1,0,0.2,0,0.3c0,0-0.2,0-0.3,0c-0.3-0.3-0.5-0.1-0.8,0c-0.2,0.1-0.5,0.1-0.7,0c-0.6-0.1-1.3,0.1-1.6,0.7
	c0.2,0.1,0.4,0.2,0.5,0.3c0.4,0.4,0.7,0.7,1.1,1.1c0.2,0.2,0.2,0.4,0.4,0.7c0.3,0.4,0.3,0.8-0.1,1c-0.4-0.1-0.8-0.2-1.1-0.3
	c-0.2-0.1-0.5-0.3-0.6-0.5c-0.4-0.8-1.1-1.2-1.9-1.5c-0.1,0-0.4,0-0.5,0.1c-0.2,0.2-0.4,0.5-0.5,0.8c-0.1,0.2,0,0.5-0.1,0.7
	c0,0.1,0,0.2-0.1,0.3c0,0-0.2,0-0.3-0.1c-1.1-0.6-1.4-1.9-0.7-2.9c0.3-0.4,0.3-0.6-0.2-0.8c-0.4-0.1-0.7-0.2-1.2-0.3
	c0,0.5,0,1,0,1.4c0.6,6.4-1.4,12-5.8,16.7c-3.2,3.5-7.3,5.5-12,6.3c-0.5,0.1-1.1,0.1-1.6,0.3c-0.3,0.1-0.6,0.4-0.6,0.7
	c-0.3,1.4-1.4,2-2.4,2.7C35.9,56,35.8,55.9,35.8,55.9z"/>
<path class="st1" d="M19.6,13c-0.1-0.5,0.2-0.8,0.5-1c0.7-0.5,1.4-0.6,2.2-0.4c0.6,0.1,1.1,0.1,1.7-0.3c0.3-0.2,0.6-0.4,1-0.5
	c0-0.1,0-0.1,0-0.2c-0.3-0.1-0.6-0.2-1-0.4c0-0.5,0.7-1,1.4-1c0.6,0,1.2,0.1,1.8,0.3c0.7,0.2,1.9,0,2.4-0.6
	c-0.3-0.1-0.6-0.3-0.9-0.4C29,8,29.5,7.9,29.9,7.8c0.7-0.1,1.5,0,2,0.5c0.7,0.6,1.5,0.4,2.3,0.4c0-0.6-0.5-0.7-0.8-1
	c0.9-0.6,2.4-0.4,3.2,0.6C37.1,8.9,37.4,9.1,38,9c0.3,0,0.5,0.1,0.8,0.2c0.2-0.6-0.4-0.7-0.6-1.1C38.6,7.8,39,7.9,39.4,8
	c1,0.2,1.8,0.8,2.2,1.8c0.1,0.2,0.4,0.4,0.6,0.5c0.3,0.2,0.6,0.3,1,0.4c0.4-0.7-0.4-0.9-0.5-1.3c0.8-0.2,1.5-0.1,2.1,0.4
	c0.5,0.4,0.8,1,1.1,1.6c0.3,0.6,0.9,0.8,1.3,1c0.3,0.1,0.4-0.2,0.2-0.4c-0.2-0.3-0.4-0.6-0.7-1c0.3,0,0.6,0,0.8,0.1
	c0.9,0.3,1.3,1,1.7,1.8c0.2,0.5,0.5,0.8,1.1,1c-0.2-0.5-0.3-0.9-0.4-1.3c0.2,0,0.4,0,0.4,0.1c1.1,0.9,2,2,2.4,3.4
	c0.1,0.7,0,1.4-0.1,2.1c-0.1,0.8-0.2,1.6-0.3,2.4c0,0.2,0,0.5-0.2,0.7c-0.6,0.7-0.7,1.5-0.8,2.3c0,0.2,0,0.4,0,0.5
	c0.1,0.7,0,1.3-0.6,1.9C50,26.6,50,27.6,50,28.5c0,0.5-0.2,0.7-0.6,0.9c-0.7,0.3-1,1-1.3,1.7c-0.1,0.3-0.3,0.6-0.4,1
	c-0.1,0-0.1,0-0.2-0.1c0-0.3,0-0.6,0-0.9c0.3-1.9,0.2-3.7-0.5-5.5c-0.1-0.2,0-0.6,0.1-0.8c0.8-1.1,0.8-2.4,0.8-3.7
	c0-0.4-0.1-0.9-0.2-1.3c-0.2-0.8-0.9-1.4-1.7-1.4c-0.8,0-1.6,0.7-1.8,1.5c-0.1,0.4-0.1,0.8-0.2,1.3c-0.3-0.2-0.5-0.3-0.6-0.4
	c-3.2-2.4-6.7-3.1-10.5-1.7c-0.3,0.1-0.5,0.3-0.8,0.3c-0.4,0-0.9,0.1-1.2-0.1c-2.1-1.1-4.3-1.7-6.7-2c-1.8-0.2-3.7-0.5-5.3-1.5
	c-0.6-0.4-0.6-0.4-0.1-1c0.4-0.4,0.8-0.8,1.2-1.2c0.1-0.1,0.1-0.4,0.2-0.6C20.2,13,20,13,19.8,13C19.8,13,19.7,13,19.6,13z"/>
<path class="st1" d="M44.2,28.6c-0.3,0.1-0.6,0.2-0.9,0.2c-0.6,0-0.7,0.1-0.8,0.8c0,0.2-0.1,0.3-0.1,0.5c-0.2-0.1-0.3-0.1-0.5-0.2
	c0,0-0.1-0.1-0.1-0.1c-0.6-0.5-0.7-0.5-1,0.2c-0.3,0.6-0.6,0.7-1,0.1c-0.3-0.4-0.5-0.2-0.7,0c-0.5,0.5-0.5,0.5-0.9-0.1
	c-0.5,0.4-0.7,1.2-1.6,1.2c0-0.3,0-0.6,0.1-0.9c-0.1,0-0.1,0-0.2-0.1c-0.4,0.3-0.6,0.8-0.6,1.4c-0.1,1.2,0.4,2.3,0.8,3.4
	c0.6,1.4,1.1,2.7,1.6,4.1c0.3,0.8,0.3,1.7,0,2.6c-0.5,1.4-2,2.1-3.3,1.4c-1.4-0.7-2.3-1.8-3-3.1c-0.2-0.3-0.3-0.7-0.5-1
	c-0.1-0.2,0-0.4,0-0.7c0.1,0,0.1,0,0.2-0.1c0.1,0.2,0.3,0.4,0.4,0.5c0.6,0.8,1.2,1.6,1.9,2.3c0.8,0.8,1.5,0.9,2.2,0.5
	c0.7-0.4,1.1-1.4,0.8-2.4c-0.3-0.8-0.6-1.5-1-2.3c-0.7-1.5-1.6-2.9-1.9-4.5c-0.1-0.4,0-0.9-0.2-1.2c-0.2-0.2-0.8-0.1-1.2-0.2
	c-0.5-0.1-0.9-0.1-1.4-0.2c-0.1,0-0.2-0.2-0.3-0.3c-0.2-0.3-0.3-0.6-0.6-0.9c-0.3-0.3-0.7-0.1-0.7,0.3c0,0.3,0.1,0.7,0.3,1
	c0.4,0.5,1,0.8,1.5,1.3c0.2,0.2,0.4,0.1,0.6-0.1c0.1-0.1,0.3-0.3,0.5-0.2c0.2,0.1,0.4,0.2,0.5,0.4c0.2,0.7,0.4,1.4,0.6,2.2
	c0,0.2,0,0.4,0,0.5c-0.3,0.9-1.6,1.5-2.6,1.3c0.2-0.2,0.4-0.4,0.5-0.7c0.1-0.3,0.2-0.6,0.3-0.9c-0.3-0.1-0.6-0.2-0.8-0.2
	c-0.3,0.1-0.7,0.2-1,0.4c-0.5,0.3-0.9,0.6-1.4,0.9c-1.1,0.5-2.2,0-2.7-1c-0.2-0.4-0.4-0.6-1-0.6c0.1-0.3,0.1-0.6,0.2-0.9
	c0.1-0.4,0.2-0.7-0.1-1c-0.3-0.3-0.6-0.7-1.2-0.4c-0.1,0-0.2,0-0.3,0c-0.1-0.6,0-0.7,1-1.6c-0.5-0.4-1-0.8-1.5-1.2
	c-0.4-0.3-0.3-0.6,0-0.9c1.3-1.2,3.1-1.2,4.7-0.1c0.2,0.1,0.3,0.2,0.6,0.4c-0.4-1-1-1.5-1.8-1.8c-0.8-0.3-1.6-0.4-2.5-0.7
	c0.8-1,2.3-0.6,3.2-1.5c-0.2-0.2-0.4-0.3-0.6-0.4c-1.7-0.9-3.6-1.4-5.5-1.9c-2-0.4-4-1-5.6-2.2c-1.1-0.8-2.1-1.7-2.7-2.9
	c-0.1-0.3-0.2-0.6-0.3-0.9c0.1,0,0.1-0.1,0.2-0.1c0.2,0.1,0.4,0.2,0.6,0.3c0.6,0.5,1.2,1.1,1.8,1.6c1.5,1.2,3.2,1.7,5.1,2
	c2,0.3,4,0.5,6,0.9c0.8,0.2,1.6,0.6,2.4,0.9c0.6,0.2,1.1,0.1,1.6-0.2c-0.1-0.1-0.2-0.2-0.4-0.3c-1.9-1.1-3.9-1.6-6-1.8
	c-1.8-0.2-3.6-0.3-5.2-1.1c-1.3-0.6-2.4-1.3-3.1-2.6c-0.2-0.3-0.2-0.6-0.3-0.9c0-0.1,0.1-0.4,0.2-0.4c0.1,0,0.4,0,0.5,0.1
	c0.3,0.3,0.5,0.6,0.7,0.8c1.7,1.9,4,2.7,6.4,3.2c1.6,0.3,3.1,0.5,4.7,0.8c1.4,0.3,2.7,1,3.8,1.9c0.3,0.2,0.6,0.3,1,0.2
	c0.9-0.2,1.5,0.2,1.7,1.1c0.1,0.5,0,1.1,0,1.6c0,0.3-0.1,0.5,0,0.8c0.1,0.4,0.3,0.6,0.7,0.5c0.9-0.3,1.6-0.1,2.4,0.4
	c0.1,0.1,0.3,0.2,0.4,0.1c0.8-0.4,1.6-0.6,2.1-1.5c0.5-1,1.2-1.3,2.4-1.2c0.8,0.1,1.6,0.1,2.4,0.1c0.8,0,1.3-0.5,1.4-1.2
	c0.1-0.5,0.1-1,0.1-1.5c0-0.2,0-0.4,0.1-0.6c0-0.1,0.2-0.3,0.2-0.2c0.1,0,0.3,0.1,0.3,0.2c0.2,1.2,0.2,2.3-0.2,3.5
	c-0.2,0.5-0.7,0.6-1.2,0.7c-0.8,0-1.6,0-2.4,0c-0.4,0-0.8,0.2-1.1,0.4c-0.4,0.2-0.5,0.6-0.4,1c0.1,0.4,0.4,0.6,0.8,0.7
	c0.2,0,0.5,0.2,0.6,0.3c0.3,0.9,0.7,1.6,1.9,1.5C44.3,28.4,44.3,28.5,44.2,28.6z M29.3,26.4c0.4,0.7,0.9,1.1,1.6,1.1
	c0.7,0,1.2-0.4,1.6-0.8c0.1-0.1,0.1-0.3,0-0.4c-0.1-0.5-0.6-0.6-1.1-0.5c-0.5,0.2-1.1,0.3-1.6,0.4C29.7,26.3,29.5,26.4,29.3,26.4z
	 M38.1,27.2c0.5,0.7,1.9,1.4,2.6,1c0.2-0.1,0.3-0.2,0.5-0.3c-0.1-0.2-0.2-0.4-0.3-0.5C40,27,39.1,27.1,38.1,27.2z"/>
<path class="st1" d="M4,35.9c0.8,0.5,1.6,0.9,2.5,0.6C6.8,36.4,7,36.2,7.2,36c-2.7,0.1-4.4-0.9-4.7-3.7C2.5,31,2.9,30,4,29.2
	c0,0.6,0,1.2,0.1,1.7c0.2,1.4,1.3,2.5,2.7,2.8c1.5,0.3,3-0.3,3.8-1.6c0,0,0-0.1,0-0.2c-0.3,0.2-0.5,0.3-0.7,0.4
	c-1.4,1-3.4,0.4-4.3-0.6C5,31,4.9,29.7,5.5,28.8c0.3-0.4,0.5-0.4,0.8,0c0.5,0.8,1.5,1.2,2.6,1.1c1.4-0.2,2.3-0.9,2.8-2.2
	c0.7-1.9,1.4-3.8,2.5-5.6c0.4-0.6,0.4-0.6,1-0.3c0.4,0.2,0.9,0.5,1.3,0.7c0.5,0.3,0.6,0.3,0.1,0.8c-1.5,1.6-2.5,3.5-3.4,5.5
	c-0.8,1.8-1.3,3.6-2,5.4c-0.3,0.9-0.7,1.8-1.5,2.6c-1.1,1.1-3.4,1.4-4.7,0.8C4.4,37.3,3.9,36.6,4,35.9z"/>
<path class="st1" d="M37.2,32.5c0.4,0.5,0.9,0.7,1.5,0.4c0.7-0.3,0.3-1,0.3-1.7c0.3,0.2,0.5,0.4,0.8,0.5c0.2,0.1,0.5,0.3,0.6,0.3
	c0.4-0.1,0.7-0.3,0.6-0.8c0-0.1,0-0.1,0-0.3c0.2,0.1,0.4,0.2,0.5,0.4c0.4,0.4,0.9,0.7,1.3,1.1c0.4,0.3,0.5,0.7,0.3,1.2
	c-0.1,0-0.2,0-0.3,0c-0.3-0.1-0.5,0-0.5,0.3c-0.1,0.9-0.1,0.9-0.9,0.6c-0.1-0.1-0.3-0.1-0.5-0.1c-0.1,0.4-0.2,0.8-0.3,1.2
	c0,0.1-0.2,0.3-0.3,0.4c-0.1-0.1-0.3-0.2-0.3-0.3c-0.4-0.8-0.7-0.9-1.5-0.5c-0.4,0.2-0.7,0.1-0.8-0.3c-0.2-0.6-0.4-1.2-0.7-1.8
	c-0.1-0.2-0.1-0.3-0.1-0.5C37.1,32.5,37.1,32.5,37.2,32.5z"/>
<path class="st1" d="M6.9,27.5c0.4,0,1-0.2,1.3-0.6c0.3-0.4,0.7-0.4,1.2-0.2c0.6,0.3,1.1,1.3,0.9,2c0,0.1-0.2,0.3-0.4,0.3
	c-0.7,0-1.4-0.1-2.1-0.1C7,28.7,6.7,28.3,6.9,27.5z"/>
</svg>
