<svg width="48" height="48" viewBox="0 0 48 48" fill="none" xmlns="http://www.w3.org/2000/svg">
<g clip-path="url(#clip0)">
<path d="M47.4162 29.7826C44.2103 42.6398 31.1858 50.4638 18.3256 47.2583C5.47145 44.0528 -2.35418 31.0299 0.852426 18.1734C4.05679 5.31473 17.0805 -2.51073 29.9369 0.694756C42.7964 3.90024 50.6213 16.9247 47.4154 29.7826H47.4162Z" fill="#F7931A"/>
<path d="M34.7172 20.5577C35.1943 17.3642 32.7625 15.6474 29.4374 14.5022L30.516 10.1762L27.8817 9.51997L26.8316 13.732C26.14 13.5595 25.4289 13.3967 24.7224 13.2355L25.78 8.99572L23.1479 8.33948L22.0686 12.664C21.4955 12.5335 20.9329 12.4045 20.3869 12.2687L20.3899 12.2552L16.758 11.3485L16.0574 14.1609C16.0574 14.1609 18.0114 14.6087 17.9701 14.6364C19.0367 14.9027 19.2303 15.6084 19.1972 16.1679L17.9686 21.0962C18.0421 21.1149 18.1374 21.1419 18.2424 21.1839L17.9649 21.1149L16.2419 28.0186C16.1114 28.3426 15.7806 28.8286 15.035 28.6441C15.0613 28.6824 13.1208 28.1664 13.1208 28.1664L11.8134 31.1814L15.2413 32.0356C15.8789 32.1954 16.5037 32.3626 17.118 32.5201L16.0281 36.8963L18.6587 37.5526L19.7388 33.2236C20.4566 33.4186 21.1542 33.5986 21.8368 33.7681L20.7612 38.0768L23.3947 38.7331L24.4846 34.3659C28.9753 35.2156 32.353 34.8728 33.7729 30.8124C34.9183 27.5424 33.7166 25.6561 31.3539 24.4254C33.0746 24.0271 34.3707 22.8954 34.7165 20.5577H34.7172ZM28.6993 28.9944C27.8847 32.2644 22.3791 30.4974 20.5932 30.0534L22.0393 24.2566C23.8245 24.7021 29.5484 25.5841 28.7001 28.9944H28.6993ZM29.5132 20.5104C28.7706 23.4849 24.1876 21.9737 22.7001 21.6032L24.0113 16.3457C25.4987 16.7162 30.2872 17.4077 29.5132 20.5104Z" fill="white"/>
</g>
<defs>
<clipPath id="clip0">
<rect width="48" height="48" fill="white"/>
</clipPath>
</defs>
</svg>
