<svg width="48" height="48" viewBox="0 0 48 48" fill="none" xmlns="http://www.w3.org/2000/svg">
<path d="M23.9854 47.9709C37.2322 47.9709 47.9709 37.2322 47.9709 23.9854C47.9709 10.7386 37.2322 0 23.9854 0C10.7386 0 0 10.7386 0 23.9854C0 37.2322 10.7386 47.9709 23.9854 47.9709Z" fill="black"/>
<path d="M16.0583 32.9617H29.173C32.5537 32.9617 35.2933 30.193 35.2933 26.8123C35.2933 23.6648 32.9326 21.071 29.8725 20.6921V20.6338H29.1439H19.031H18.8561C17.0783 20.6338 15.5045 19.7012 14.5719 18.3315C15.5045 16.9034 17.1366 16.0291 18.8561 16.0291H31.9417C33.7778 16.0291 35.2641 14.5427 35.2641 12.7067C35.2641 10.8706 33.7778 9.38428 31.9417 9.38428H18.8561C15.4754 9.38428 12.7067 12.1529 12.7067 15.5336C12.7067 18.9143 15.4754 21.683 18.8561 21.683H19.031H29.1439C31.9709 21.683 34.2732 23.9854 34.2732 26.8123C34.2732 27.4535 34.1566 28.0655 33.9235 28.6192C32.816 26.8706 30.8634 25.7631 28.7359 25.7631H18.8561C16.0291 25.7631 13.7268 23.4608 13.7268 20.6338H12.7067C12.7067 24.0145 15.4754 26.7832 18.8561 26.7832H28.7359C30.7177 26.7832 32.4954 27.9198 33.3698 29.6976C32.4372 31.0382 30.9217 31.9125 29.173 31.9125H16.0583C14.2222 31.9125 12.7359 33.3988 12.7359 35.2349C12.7359 37.071 14.2222 38.5573 16.0583 38.5573H29.1439C32.5246 38.5573 35.2933 35.7886 35.2933 32.408H34.2732C34.2732 35.2349 31.9709 37.5373 29.1439 37.5373H16.0583C14.776 37.5373 13.7559 36.5172 13.7559 35.2349C13.7268 34.0109 14.776 32.9617 16.0583 32.9617ZM14.0765 17.3406C13.8725 16.7868 13.7559 16.1748 13.7559 15.5628C13.7559 12.7358 16.0583 10.4335 18.8852 10.4335H31.9709C33.2532 10.4335 34.2732 11.4535 34.2732 12.7358C34.2732 14.0182 33.2532 15.0382 31.9709 15.0382H18.8561C16.9909 15.0382 15.2131 15.8834 14.0765 17.3406Z" fill="white"/>
</svg>
