<svg width="48" height="48" viewBox="0 0 48 48" fill="none" xmlns="http://www.w3.org/2000/svg">
<path fill-rule="evenodd" clip-rule="evenodd" d="M38.9779 38.8505L32.5584 40.2905L20.0718 27.804L15.2686 32.6073L30.3967 47.7354L44.6661 44.5387L47.8628 30.2693L45.2212 27.6277L40.4179 32.431L38.9779 38.8505Z" fill="#010604"/>
<path fill-rule="evenodd" clip-rule="evenodd" d="M38.9779 8.89799L40.4179 15.3208L27.9347 27.8041L32.7379 32.6074L47.8628 17.4825L44.6661 3.21309L30.3967 0.0163574L27.7551 2.65799L32.5584 7.46126L38.9779 8.89799Z" fill="#010604"/>
<path fill-rule="evenodd" clip-rule="evenodd" d="M17.6098 47.7354L20.2514 45.0938L15.4482 40.2905L9.02856 38.8505L7.58856 32.4309L20.0718 19.9444L15.2686 15.1411L0.143661 30.2693L3.3404 44.5387L17.6098 47.7354Z" fill="#010604"/>
<path fill-rule="evenodd" clip-rule="evenodd" d="M7.58856 15.3208L9.02856 8.89799L15.4482 7.46126L27.9347 19.9445L32.7379 15.1413L17.6098 0.0163574L3.3404 3.21309L0.143661 17.4825L2.78529 20.1241L7.58856 15.3208Z" fill="#010604"/>
<path fill-rule="evenodd" clip-rule="evenodd" d="M30.3935 47.7354L15.2686 32.6072L20.0718 27.804L30.3935 47.7354Z" fill="#232423"/>
<path fill-rule="evenodd" clip-rule="evenodd" d="M20.0718 19.9444L0.143661 30.2693L15.2686 15.1411L20.0718 19.9444Z" fill="#232423"/>
<path fill-rule="evenodd" clip-rule="evenodd" d="M32.738 15.1413L27.9347 19.9445L17.6098 0.0163574L32.738 15.1413Z" fill="#232423"/>
<path fill-rule="evenodd" clip-rule="evenodd" d="M47.8629 17.4824L32.738 32.6073L27.9347 27.8041L47.8629 17.4824Z" fill="#232423"/>
<path fill-rule="evenodd" clip-rule="evenodd" d="M44.6661 44.5389L30.3934 47.7357L38.9779 38.8507L40.4179 32.4312L44.6661 44.5389Z" fill="#232423"/>
<path fill-rule="evenodd" clip-rule="evenodd" d="M15.4481 40.2908L3.3404 44.5389L0.143661 30.2695L9.02856 38.8508L15.4481 40.2908Z" fill="#232423"/>
<path fill-rule="evenodd" clip-rule="evenodd" d="M17.6098 0.0163574L9.02856 8.89799L7.58856 15.3208L3.34039 3.21309L17.6098 0.0163574Z" fill="#232423"/>
<path fill-rule="evenodd" clip-rule="evenodd" d="M47.8629 17.4825L38.978 8.89803L32.5584 7.4613L44.6661 3.21313L47.8629 17.4825Z" fill="#232423"/>
<path fill-rule="evenodd" clip-rule="evenodd" d="M47.8628 30.2695L44.6661 44.5389L40.4179 32.4312L47.8628 30.2695Z" fill="#3E3F3E"/>
<path fill-rule="evenodd" clip-rule="evenodd" d="M17.6098 47.7354L3.34039 44.5387L15.4481 40.2905L17.6098 47.7354Z" fill="#3E3F3E"/>
<path fill-rule="evenodd" clip-rule="evenodd" d="M7.58856 15.3209L0.143661 17.4825L3.3404 3.21313L7.58856 15.3209Z" fill="#3E3F3E"/>
<path fill-rule="evenodd" clip-rule="evenodd" d="M44.6661 3.21309L32.5583 7.46126L30.3934 0.0163574L44.6661 3.21309Z" fill="#3E3F3E"/>
<path fill-rule="evenodd" clip-rule="evenodd" d="M38.9779 38.8505L30.3935 47.7354L20.0718 27.804L32.5584 40.2905L38.9779 38.8505Z" fill="#010604"/>
<path fill-rule="evenodd" clip-rule="evenodd" d="M7.58856 32.4311L9.02856 38.8507L0.143661 30.2695L20.0718 19.9446L7.58856 32.4311Z" fill="#010604"/>
<path fill-rule="evenodd" clip-rule="evenodd" d="M27.9347 19.9445L15.4482 7.46126L9.02856 8.89799L17.6098 0.0163574L27.9347 19.9445Z" fill="#010604"/>
<path fill-rule="evenodd" clip-rule="evenodd" d="M27.9347 27.8041L40.418 15.3208L38.978 8.89795L47.8629 17.4824L27.9347 27.8041Z" fill="#010604"/>
<path fill-rule="evenodd" clip-rule="evenodd" d="M47.8628 30.2693L40.4179 32.4309L45.2212 27.6277L47.8628 30.2693Z" fill="#010604"/>
<path fill-rule="evenodd" clip-rule="evenodd" d="M20.2514 45.0938L17.6098 47.7354L15.4482 40.2905L20.2514 45.0938Z" fill="#010604"/>
<path fill-rule="evenodd" clip-rule="evenodd" d="M7.58856 15.3208L2.78529 20.1241L0.143661 17.4824L7.58856 15.3208Z" fill="#010604"/>
<path fill-rule="evenodd" clip-rule="evenodd" d="M32.5584 7.46126L27.7551 2.65799L30.3935 0.0163574L32.5584 7.46126Z" fill="#010604"/>
</svg>
