<svg width="48" height="48" viewBox="0 0 48 48" fill="none" xmlns="http://www.w3.org/2000/svg">
<path d="M24 48C37.2548 48 48 37.2548 48 24C48 10.7452 37.2548 0 24 0C10.7452 0 0 10.7452 0 24C0 37.2548 10.7452 48 24 48Z" fill="black"/>
<path d="M41.6145 20.3085C41.3773 19.1562 41.0266 18.0302 40.5675 16.947C40.1151 15.8801 39.5616 14.8589 38.9145 13.8975C38.2729 12.9477 37.541 12.0621 36.729 11.253C35.9195 10.441 35.0334 9.70909 34.083 9.06753C33.1202 8.4237 32.0998 7.87034 31.035 7.41453C28.8329 6.48057 26.4655 5.99927 24.0735 5.99927C21.6816 5.99927 19.3141 6.48057 17.112 7.41453C14.9827 8.31268 13.0487 9.61696 11.418 11.2545C10.6061 12.0631 9.87422 12.9482 9.23251 13.8975C8.5886 14.8609 8.03524 15.8817 7.57951 16.947C6.64555 19.1491 6.16425 21.5166 6.16425 23.9085C6.16425 26.3005 6.64555 28.668 7.57951 30.87C8.02051 31.935 8.59051 32.9445 9.23251 33.918C9.87418 34.8683 10.6061 35.7544 11.418 36.564C12.2275 37.3761 13.1137 38.108 14.064 38.7495C15.018 39.3915 16.047 39.9435 17.112 40.4025C19.3141 41.3365 21.6816 41.8178 24.0735 41.8178C26.4655 41.8178 28.8329 41.3365 31.035 40.4025C32.1 39.9615 33.1095 39.3915 34.083 38.7495C35.0334 38.108 35.9195 37.3761 36.729 36.564C37.5411 35.7545 38.273 34.8684 38.9145 33.918C39.5565 32.964 40.1085 31.935 40.5675 30.87C41.9806 27.5374 42.3457 23.8537 41.6145 20.3085V20.3085ZM24.09 39.576C15.4395 39.576 8.44201 32.559 8.44201 23.9265C8.44201 15.294 15.459 8.27703 24.09 8.27703C32.7225 8.27703 39.7395 15.294 39.7395 23.9265C39.7395 32.559 32.724 39.576 24.09 39.576Z" fill="white"/>
<path d="M24.3675 38.2171H24.7905C24.864 38.2171 24.936 38.2171 25.0095 38.1976H25.029C25.1025 38.1976 25.1565 38.1976 25.23 38.1796H25.2855C25.341 38.1796 25.3965 38.1796 25.4505 38.1616H25.506C25.5615 38.1616 25.617 38.1436 25.6905 38.1436H25.7265C25.8 38.1436 25.8735 38.1241 25.947 38.1241C26.0205 38.1241 26.076 38.1061 26.1495 38.0881H26.1855C26.241 38.0881 26.2965 38.0701 26.3505 38.0701H26.388C26.4615 38.0506 26.517 38.0506 26.5905 38.0326C26.736 38.0146 26.883 37.9771 27.012 37.9411H27.0495C27.1035 37.9231 27.177 37.9231 27.2325 37.9036H27.2505C27.3975 37.8676 27.5265 37.8301 27.6735 37.7941C26.2977 37.8377 24.922 37.7082 23.5785 37.4086C21.5565 36.9676 19.629 36.1786 17.994 34.8181C16.705 33.7454 15.6706 32.3996 14.9655 30.8781C14.2604 29.3566 13.9023 27.6974 13.917 26.0206C13.9302 23.5189 14.8204 21.1011 16.4325 19.1881C18.5265 16.7086 21.5025 15.4036 24.5505 15.3301H24.9735V12.8881H24.4965C23.5692 12.905 22.6461 13.0156 21.741 13.2181C20.8303 13.424 19.9438 13.7257 19.0965 14.1181C18.2325 14.5231 17.424 15.0181 16.671 15.5881C15.8929 16.1796 15.1844 16.8574 14.559 17.6086C13.9702 18.3038 13.4592 19.0613 13.035 19.8676C12.6154 20.6448 12.2766 21.4631 12.024 22.3096C11.7762 23.1429 11.6104 23.9985 11.529 24.8641L11.4735 25.6711V26.1481C11.4915 27.0856 11.6025 28.0036 11.8035 28.9036C12.006 29.8231 12.318 30.7036 12.7035 31.5496C13.164 32.5591 13.9905 34.0471 15.2205 35.1676C17.732 37.1474 20.838 38.2219 24.036 38.2171H24.3675Z" fill="white"/>
<path d="M28.371 35.865C27.4651 35.8326 26.5627 35.7344 25.671 35.571C21.888 34.8915 18.636 32.577 17.4435 29.088C15.9915 24.8445 18.2145 20.253 22.4385 18.858C23.2435 18.5882 24.087 18.4515 24.936 18.453C26.0205 18.453 27.1035 18.6735 28.0965 19.077L29.124 16.8915C28.815 16.7676 28.5029 16.6516 28.188 16.5435C27.1357 16.2132 26.039 16.0458 24.936 16.047C23.831 16.0491 22.7335 16.2289 21.6855 16.5795C20.3481 17.0206 19.1163 17.7336 18.0675 18.6735C17.5617 19.1241 17.1006 19.6224 16.6905 20.1615C16.2851 20.6945 15.9344 21.2669 15.6435 21.87C15.0512 23.0826 14.7017 24.3993 14.6145 25.746C14.523 27.141 14.706 28.536 15.165 29.859C15.6327 31.22 16.3843 32.466 17.37 33.5145C18.27 34.488 19.317 35.223 20.583 35.9025C21.906 36.6 23.541 36.9675 25.248 37.2075C26.3505 37.353 27.8205 37.3905 28.683 37.3905C29.436 37.1145 29.748 36.9855 30.153 36.8205C30.5025 36.6555 30.8505 36.4905 31.2 36.288C31.5495 36.0855 31.605 36.048 32.1915 35.664C32.2438 35.6315 32.293 35.5944 32.3385 35.553C30.318 35.9025 29.8035 35.883 28.371 35.865V35.865Z" fill="white"/>
<path d="M32.8905 33.129C32.3205 33.165 31.512 33.219 30.594 33.219C28.959 33.219 26.9565 33.0735 25.2495 32.5035C22.6035 31.623 20.106 29.364 20.106 26.571C20.1054 25.9099 20.2352 25.2553 20.4879 24.6444C20.7406 24.0336 21.1112 23.4786 21.5787 23.0111C22.0461 22.5437 22.6011 22.173 23.212 21.9204C23.8228 21.6677 24.4775 21.5379 25.1385 21.5385C27.03 21.5385 28.665 22.5855 29.529 24.1095L31.7145 23.0265C31.3718 22.3813 30.9317 21.7929 30.4095 21.282C29.7176 20.5889 28.8959 20.0391 27.9913 19.6639C27.0867 19.2888 26.1171 19.0957 25.1378 19.0957C24.1585 19.0957 23.1888 19.2888 22.2842 19.6639C21.3796 20.0391 20.5579 20.5889 19.866 21.282C19.1732 21.9738 18.6235 22.7955 18.2485 23.6999C17.8735 24.6044 17.6805 25.5739 17.6805 26.553C17.6854 27.5791 17.9051 28.5929 18.3255 29.529C18.7095 30.3735 19.2435 31.164 19.923 31.899C21.117 33.183 22.7505 34.212 24.4965 34.8C26.1675 35.3505 28.629 35.553 31.017 35.388C31.677 35.3325 32.1735 35.277 33.018 35.094C33.833 34.4509 34.5727 33.7177 35.223 32.9085C34.653 32.964 33.606 33.0735 32.8905 33.129V33.129Z" fill="white"/>
</svg>
