<svg width="48" height="48" viewBox="0 0 48 48" fill="none" xmlns="http://www.w3.org/2000/svg">
<path fill-rule="evenodd" clip-rule="evenodd" d="M8.55 7.5C7.8 3.6 10.8 0 14.7 0C18.15 0 21 2.85 21 6.3V14.1C21.9 14.1 22.8 13.95 23.7 13.95C24.6 13.95 25.35 13.95 26.25 14.1V6.3C26.25 2.85 29.1 0 32.55 0C36.45 0 39.45 3.6 38.85 7.5L37.2 16.65C43.05 19.2 47.55 23.7 47.55 29.25V32.7C47.55 37.35 44.55 41.25 40.2 43.8C35.85 46.5 30.15 48 23.7 48C17.25 48 11.55 46.5 7.2 43.8C3 41.25 0 37.35 0 32.7V29.25C0 23.7 4.35 19.2 10.2 16.65L8.55 7.5ZM34.95 17.85L36.9 7.05C37.35 4.35 35.4 1.8 32.55 1.8C30.15 1.8 28.2 3.75 28.2 6.15V16.05C27.6 15.9 26.85 15.9 26.25 15.9C25.35 15.9 24.6 15.75 23.7 15.75C22.8 15.75 21.9 15.75 21 15.9C20.4 15.9 19.65 16.05 19.05 16.05V6.3C19.05 3.9 17.1 1.95 14.7 1.95C12 1.95 9.9 4.5 10.5 7.2L12.45 18C6.15 20.4 1.95 24.6 1.95 29.4V32.85C1.95 40.2 11.7 46.2 23.7 46.2C35.7 46.2 45.45 40.2 45.45 32.85V29.4C45.6 24.45 41.4 20.25 34.95 17.85Z" fill="#633001"/>
<path d="M45.6 32.7C45.6 40.05 35.85 46.05 23.85 46.05C11.85 46.05 2.09998 40.05 2.09998 32.7V29.25H45.75V32.7H45.6Z" fill="#FEDC90"/>
<path fill-rule="evenodd" clip-rule="evenodd" d="M10.5 7.20007C9.89998 4.50007 12 1.95007 14.7 1.95007C17.1 1.95007 19.05 3.90007 19.05 6.30007V16.2001C20.55 16.0501 22.05 15.9001 23.7 15.9001C25.2 15.9001 26.7 16.0501 28.2 16.2001V6.30007C28.2 3.90007 30.15 1.95007 32.55 1.95007C35.25 1.95007 37.35 4.50007 36.9 7.20007L34.95 18.0001C41.25 20.4001 45.6 24.6001 45.6 29.4001C45.6 36.7501 35.85 42.7501 23.85 42.7501C11.85 42.7501 2.09998 36.7501 2.09998 29.4001C2.09998 24.6001 6.29998 20.4001 12.6 18.0001L10.5 7.20007Z" fill="#D1884F"/>
<path d="M17.7 28.35C17.7 30.3 16.65 31.95 15.3 31.95C13.95 31.95 12.9 30.3 12.9 28.35C12.9 26.4 13.95 24.75 15.3 24.75C16.65 24.75 17.7 26.4 17.7 28.35Z" fill="#633001"/>
<path d="M34.35 28.35C34.35 30.3 33.3 31.95 31.95 31.95C30.6 31.95 29.55 30.3 29.55 28.35C29.55 26.4 30.6 24.75 31.95 24.75C33.3 24.75 34.35 26.4 34.35 28.35Z" fill="#633001"/>
</svg>
