<svg width="48" height="48" viewBox="0 0 48 48" fill="none" xmlns="http://www.w3.org/2000/svg">
<path d="M18.9474 42.9473C26.6223 42.9473 32.8421 36.7275 32.8421 29.0526C32.8421 21.3776 26.6223 15.1579 18.9474 15.1579C11.2724 15.1579 5.05263 21.3776 5.05263 29.0526C5.05263 36.7275 11.2724 42.9473 18.9474 42.9473ZM18.9474 48C8.48337 48 0 39.5166 0 29.0526C0 18.5886 8.48337 10.1052 18.9474 10.1052C29.4114 10.1052 37.8947 18.5886 37.8947 29.0526C37.8947 39.5166 29.4114 48 18.9474 48Z" fill="#FBCC5C"/>
<path d="M29.0526 32.8421C36.7276 32.8421 42.9474 26.6223 42.9474 18.9474C42.9474 11.2724 36.7276 5.05263 29.0526 5.05263C21.3777 5.05263 15.1579 11.2724 15.1579 18.9474C15.1579 26.6223 21.3777 32.8421 29.0526 32.8421ZM29.0526 37.8947C18.5886 37.8947 10.1053 29.4114 10.1053 18.9474C10.1053 8.48337 18.5886 0 29.0526 0C39.5166 0 48 8.48337 48 18.9474C48 29.4114 39.5166 37.8947 29.0526 37.8947Z" fill="#35D07F"/>
<path d="M29.6792 37.8947C30.9928 36.3031 31.9326 34.4387 32.4328 32.4328C34.4337 31.9326 36.2981 30.9928 37.8947 29.6791C37.824 31.9983 37.3238 34.2821 36.4194 36.4244C34.2821 37.3238 31.9983 37.824 29.6792 37.8947ZM15.5672 15.5671C13.5663 16.0673 11.7019 17.0071 10.1053 18.3208C10.176 16.0016 10.6762 13.7179 11.5806 11.5806C13.7179 10.6812 16.0067 10.181 18.3208 10.1052C17.0072 11.6968 16.0674 13.5612 15.5672 15.5671Z" fill="#5EA33B"/>
</svg>
