<svg width="48" height="48" viewBox="0 0 48 48" fill="none" xmlns="http://www.w3.org/2000/svg">
<circle cx="24" cy="24" r="24" fill="#FBCC5C"/>
<path d="M27.1579 29.5263C31.9541 29.5263 35.8421 25.6383 35.8421 20.8421C35.8421 16.0459 31.9541 12.1579 27.1579 12.1579C22.3617 12.1579 18.4737 16.0459 18.4737 20.8421C18.4737 25.6383 22.3617 29.5263 27.1579 29.5263ZM27.1579 32.6842C20.6179 32.6842 15.3158 27.3821 15.3158 20.8421C15.3158 14.3021 20.6179 9 27.1579 9C33.6979 9 39 14.3021 39 20.8421C39 27.3821 33.6979 32.6842 27.1579 32.6842Z" fill="white"/>
<path d="M20.8421 35.842C25.6383 35.842 29.5263 31.954 29.5263 27.1578C29.5263 22.3616 25.6383 18.4736 20.8421 18.4736C16.0459 18.4736 12.1579 22.3616 12.1579 27.1578C12.1579 31.954 16.0459 35.842 20.8421 35.842ZM20.8421 38.9999C14.3021 38.9999 9 33.6978 9 27.1578C9 20.6178 14.3021 15.3157 20.8421 15.3157C27.3821 15.3157 32.6842 20.6178 32.6842 27.1578C32.6842 33.6978 27.3821 38.9999 20.8421 38.9999Z" fill="white"/>
</svg>
