<svg width="48" height="48" viewBox="0 0 48 48" fill="none" xmlns="http://www.w3.org/2000/svg">
<circle cx="24" cy="24" r="24" fill="#1F1A23"/>
<path d="M29.34 27.64C28.38 29.45 26.49 30.68 24.3 30.68C21.15 30.68 18.6 28.13 18.6 24.98C18.6 21.83 21.15 19.28 24.3 19.28C26.49 19.28 28.38 20.51 29.34 22.32H35.27C34.08 17.36 29.63 13.66 24.3 13.66C18.06 13.66 13 18.72 13 24.96C13 31.2 18.06 36.26 24.3 36.26C29.61 36.26 34.06 32.59 35.26 27.65H29.34V27.64Z" fill="#FFB0C2"/>
<path d="M33.23 18.06C34.5 17.02 35.32 15.44 35.32 13.67C35.32 10.54 32.78 8 29.65 8C26.52 8 23.98 10.54 23.98 13.67C24.09 13.67 24.19 13.67 24.3 13.67C27.94 13.66 31.17 15.38 33.23 18.06Z" fill="#CB8EE9"/>
<path d="M29.65 19.33C31.01 19.33 32.25 18.85 33.23 18.06C31.17 15.39 27.94 13.67 24.3 13.67C24.19 13.67 24.09 13.67 23.98 13.67C23.98 16.79 26.52 19.33 29.65 19.33Z" fill="#CB65B7"/>
</svg>
