<svg width="48" height="48" viewBox="0 0 48 48" fill="none" xmlns="http://www.w3.org/2000/svg">
<path d="M28.4798 25.1199C28.4798 24.7999 28.4798 24.6399 28.1598 24.4799C27.0398 23.6799 25.7598 22.8799 24.6398 22.0799C24.5214 22.0008 24.3822 21.9586 24.2398 21.9586C24.0974 21.9586 23.9582 22.0008 23.8398 22.0799L20.3198 24.6399C20.1728 24.7149 20.0499 24.8296 19.965 24.9711C19.8802 25.1125 19.8368 25.275 19.8398 25.4399C19.8323 25.7849 19.7207 26.1195 19.5198 26.3999C19.4407 26.5183 19.3984 26.6575 19.3984 26.7999C19.3984 26.9423 19.4407 27.0815 19.5198 27.1999C20.7998 29.7599 21.9198 32.3199 23.1998 34.8799C23.6798 35.6799 23.9998 36.6399 24.4798 37.5999C24.6398 37.4399 24.6398 37.2799 24.7998 37.1199C26.2398 33.9199 27.5198 30.7199 28.9598 27.5199C29.1198 27.1999 29.1198 27.0399 28.7998 26.8799C28.6199 26.6283 28.4979 26.3401 28.4426 26.0358C28.3873 25.7315 28.4 25.4187 28.4798 25.1199Z" fill="#CD0124"/>
<path d="M23.0398 20.96C19.8398 18.72 16.6398 16.48 13.5999 14.4L13.4398 14.56C13.5998 14.88 13.5999 15.04 13.7599 15.36L17.1198 22.56C17.4398 23.2 17.5998 23.84 18.5598 24C18.8364 24.0249 19.1142 23.9693 19.3598 23.84C20.3198 23.04 21.4398 22.4 22.3998 21.6L23.0398 20.96Z" fill="#CD0124"/>
<path d="M24 0C19.2533 0 14.6131 1.40758 10.6663 4.04473C6.71954 6.68188 3.6434 10.4302 1.8269 14.8156C0.0103989 19.201 -0.464881 24.0266 0.461164 28.6822C1.38721 33.3377 3.67299 37.6141 7.02945 40.9706C10.3859 44.327 14.6623 46.6128 19.3178 47.5388C23.9734 48.4649 28.799 47.9896 33.1844 46.1731C37.5698 44.3566 41.3181 41.2805 43.9553 37.3337C46.5924 33.3869 48 28.7467 48 24C48 17.6348 45.4714 11.5303 40.9706 7.02944C36.4697 2.52856 30.3652 0 24 0V0ZM36.96 13.92C36.64 13.92 36.48 14.08 36.32 14.4C35.04 17.6 33.6 20.8 32.32 24V24.64C32.4478 24.9105 32.5158 25.2053 32.5192 25.5045C32.5227 25.8036 32.4616 26.1 32.3401 26.3734C32.2186 26.6467 32.0396 26.8907 31.8152 27.0886C31.5908 27.2865 31.3264 27.4336 31.04 27.52C30.88 27.52 30.72 27.68 30.56 28C29.12 31.2 27.68 34.56 26.4 37.76C26.3209 37.8784 26.2787 38.0176 26.2787 38.16C26.2787 38.3024 26.3209 38.4416 26.4 38.56C26.699 38.9704 26.8321 39.4784 26.7728 39.9827C26.7135 40.4869 26.4661 40.9502 26.08 41.28C25.7446 41.6113 25.3005 41.8101 24.83 41.8395C24.3594 41.8689 23.8941 41.727 23.52 41.44C23.3202 41.3036 23.1493 41.1291 23.017 40.9265C22.8847 40.724 22.7937 40.4973 22.7491 40.2595C22.7045 40.0218 22.7073 39.7775 22.7572 39.5408C22.8071 39.3041 22.9032 39.0795 23.04 38.88C23.1185 38.7322 23.1595 38.5673 23.1595 38.4C23.1595 38.2326 23.1185 38.0678 23.04 37.92C21.44 34.72 20 31.52 18.4 28.32C18.3272 28.1574 18.2166 28.0145 18.0775 27.9032C17.9383 27.7918 17.7746 27.7153 17.6 27.68C17.274 27.6258 16.9659 27.4934 16.7021 27.2943C16.4384 27.0952 16.2267 26.8352 16.0852 26.5365C15.9437 26.2378 15.8766 25.9093 15.8897 25.579C15.9027 25.2488 15.9954 24.9266 16.16 24.64C16.2391 24.5216 16.2813 24.3824 16.2813 24.24C16.2813 24.0976 16.2391 23.9584 16.16 23.84C14.72 20.64 13.28 17.6 11.68 14.4C11.68 14.24 11.52 14.08 11.04 14.08C10.5695 14.0138 10.1366 13.7861 9.81546 13.4358C9.49437 13.0855 9.30508 12.6345 9.28001 12.16C9.30959 11.7155 9.45912 11.2873 9.71269 10.9211C9.96626 10.5548 10.3144 10.2641 10.72 10.08C11.1506 9.91319 11.626 9.90182 12.0641 10.0479C12.5022 10.1939 12.8756 10.4882 13.12 10.88C13.28 11.2 13.44 11.2 13.92 11.2H34.24C34.56 11.2 34.88 11.2 35.04 10.72C35.2583 10.3431 35.6032 10.0559 36.0134 9.90939C36.4235 9.76291 36.8723 9.76666 37.28 9.92C37.6774 10.0705 38.0239 10.3309 38.2788 10.6709C38.5338 11.0108 38.6868 11.4163 38.72 11.84C38.726 12.3404 38.5513 12.8262 38.228 13.2083C37.9047 13.5904 37.4545 13.843 36.96 13.92Z" fill="#CD0124"/>
<path d="M24.0003 19.84C24.1187 19.9191 24.2579 19.9613 24.4003 19.9613C24.5427 19.9613 24.6819 19.9191 24.8003 19.84C27.8403 17.6 30.8803 15.52 33.7603 13.28C33.9203 13.12 34.0803 13.12 34.0803 12.96V12.8H13.9203C14.1034 12.8672 14.2679 12.9768 14.4003 13.12L24.0003 19.84Z" fill="#CD0124"/>
<path d="M25.6 20.9603C26.88 21.9203 28.16 22.7203 29.44 23.5203C29.76 23.6803 30.24 23.5203 30.72 23.5203C30.88 23.5203 31.04 23.2003 31.04 23.0403C32.16 20.4803 33.28 17.7603 34.4 15.2003C34.4 15.0403 34.56 14.8803 34.56 14.7203H34.4C31.68 16.6403 28.64 18.7203 25.6 20.9603Z" fill="#CD0124"/>
</svg>
