<svg width="48" height="48" viewBox="0 0 48 48" fill="none" xmlns="http://www.w3.org/2000/svg">
<path d="M5.86319 21.8781V23.1037C5.80831 32.6707 8.62538 38.3232 11.0583 41.4329L15.5583 40.189L17.7717 39.5854L17.4425 39.1098L5.86319 21.8781Z" fill="#8F8E8A"/>
<path d="M30.4669 36.0915L30.54 35.8354L36.412 15.9146C31.1986 6.36585 22.4912 0.731707 22.1254 0.493902L21.3388 0L30.0827 36.2012L30.4669 36.0915Z" fill="#8F8E8A"/>
<path d="M29.3693 37.4268L19.3632 40.189L22.4729 44.8354L24.5949 48C25.4181 47.9634 26.2229 47.8536 27.0278 47.689L29.2778 40.0427L29.662 38.7439L29.3693 37.4268Z" fill="#413B38"/>
<path d="M11.7717 42.2744C13.3266 44.0305 14.8083 44.9817 15.5949 45.4024C18.0095 46.9939 20.6986 47.8902 23.4425 47.9817L18.3754 40.4451L16.6559 40.9207L11.7717 42.2744Z" fill="#413B38"/>
<path d="M29.1315 36.4573L21.229 3.75L20.4059 4.42683C12.2107 11.1585 9.21074 18.4573 8.13147 23.4695L18.7778 39.311L29.1315 36.4573Z" fill="#77CBEC"/>
<path d="M40.0156 33.4573C40.8205 29.5976 41.1315 23.4878 38.2229 15.7317L37.8388 14.689L32.2961 33.4207L31.601 35.7622L38.4242 33.878L40.0156 33.4573Z" fill="#5E5957"/>
<path d="M30.7229 38.7622L31.5827 42.3475L32.351 45.5488C34.9851 43.9207 38.5888 40.7378 41.7351 34.6829L42.1376 33.9146L39.9242 34.5366V34.5183L33.9973 36.1463L31.2534 36.8963L30.7229 38.7622Z" fill="#413B38"/>
<path d="M28.8754 47.1768C29.4608 46.9939 30.3571 46.6646 31.4547 46.0792L30.6132 42.5488L30.1559 40.6646L29.6071 42.5488L28.1803 47.3963C28.3998 47.3232 28.6376 47.25 28.8754 47.1768Z" fill="#413B38"/>
<path d="M28.162 47.3963L29.5888 42.5488L28.162 47.3963Z" fill="#413B38"/>
</svg>
