<svg width="48" height="48" viewBox="0 0 48 48" fill="none" xmlns="http://www.w3.org/2000/svg">
<g clip-path="url(#clip0)">
<path d="M40.9698 40.9711C50.3423 31.5986 50.3423 16.4028 40.9698 7.03032C31.5973 -2.34217 16.4014 -2.34217 7.02895 7.03032C-2.34354 16.4028 -2.34354 31.5986 7.02895 40.9711C16.4014 50.3436 31.5973 50.3436 40.9698 40.9711Z" fill="#1F1F1F"/>
<path d="M12.6646 15.6976L25.1235 8.5082C25.5508 8.26029 26.0835 8.26029 26.5108 8.5082L34.3596 13.0392C35.1508 13.4928 35.2932 14.5741 34.6497 15.2176L31.9912 17.8919C31.5481 18.3403 30.8571 18.43 30.3138 18.1135L26.5266 15.9297C26.0888 15.6766 25.5508 15.6766 25.113 15.9297L11.9736 23.5834V16.895C11.9736 16.4045 12.2374 15.9456 12.6646 15.6976Z" fill="#FA8C16"/>
<path d="M34.3859 34.9503L26.5108 39.4972C26.0835 39.7451 25.5508 39.7451 25.1235 39.4972L12.6646 32.3024C12.2374 32.0545 11.9736 31.5956 11.9736 31.0998V25.0339L18.393 21.3152V27.3969C18.393 27.8928 18.6567 28.3517 19.084 28.5996L25.1235 32.0862C25.5508 32.3341 26.0835 32.3341 26.5108 32.0862L30.3297 29.8813C30.873 29.5701 31.5587 29.6598 32.0018 30.1029L34.6708 32.7719C35.3196 33.4154 35.1771 34.4914 34.3859 34.9503Z" fill="white"/>
</g>
<defs>
<clipPath id="clip0">
<rect width="48" height="48" fill="white"/>
</clipPath>
</defs>
</svg>
