<svg width="48" height="48" viewBox="0 0 48 48" fill="none" xmlns="http://www.w3.org/2000/svg">
<path d="M42.3202 37.0706C41.1806 37.0706 40.2137 37.8649 39.972 38.9699L30.9072 38.5383C30.9417 38.3656 30.959 38.1929 30.959 38.0203C30.959 37.7095 30.9072 37.3987 30.8209 37.0879L34.1187 35.1886C34.9302 36.1901 36.3979 36.3973 37.4511 35.6375C38.5043 34.8778 38.7806 33.4275 38.0727 32.3397C37.3648 31.2519 35.9317 30.9066 34.8094 31.5455C33.6871 32.1843 33.2554 33.6001 33.8425 34.757L30.6482 36.6045C29.8885 34.9987 28.0065 34.2735 26.3662 34.9469C24.7259 35.6203 23.8971 37.4678 24.4842 39.1426L18.5446 40.5757C18.5101 39.7642 18.1648 39.0045 17.595 38.4174L18.6655 36.9325C19.8741 37.3469 21.2036 36.7426 21.6871 35.5512C22.1705 34.3598 21.6353 32.9958 20.4784 32.4606C19.3216 31.9081 17.923 32.3742 17.3187 33.4965C16.7144 34.6188 17.0943 36.0347 18.182 36.708L17.1979 38.0721C16.5072 37.5541 15.6266 37.3296 14.7633 37.4332L13.7446 31.6145C15.0223 31.3383 16.0065 30.3368 16.2827 29.0764C16.559 27.7987 16.0755 26.4865 15.0396 25.7095C14.0036 24.9152 12.605 24.8116 11.4655 25.416L8.89281 20.3915C9.44533 20.1152 9.89425 19.6836 10.2223 19.1656L12.3633 19.7354C12.3461 19.8563 12.3288 19.9599 12.3288 20.0807C12.3288 21.3239 13.2784 22.3771 14.5216 22.498C15.7648 22.6188 16.9043 21.7728 17.1288 20.5296C17.3532 19.2865 16.6108 18.0951 15.4022 17.767C14.1935 17.4217 12.9331 18.0606 12.4842 19.2347L10.464 18.6994C10.7403 18.0433 10.7921 17.3181 10.6194 16.6275L16.5763 13.8822C17.6813 15.2634 19.6842 15.557 21.1345 14.521C22.5849 13.485 22.9648 11.4994 21.9979 10.0145L25.7964 6.3023C26.2626 6.59582 26.7979 6.78575 27.3331 6.82028V8.46057C26.0727 8.5987 25.123 9.70374 25.1921 10.9814C25.2612 12.2591 26.3144 13.2606 27.5921 13.2606C28.8698 13.2606 29.923 12.2591 29.9921 10.9814C30.0612 9.70374 29.1288 8.5987 27.8511 8.46057V6.82028C28.3345 6.78575 28.7835 6.64762 29.1979 6.42316L33.359 11.1714C32.3921 12.4491 32.4612 14.2275 33.5144 15.4188C34.5849 16.6102 36.3461 16.8865 37.7274 16.0577C39.1087 15.2289 39.6957 13.5541 39.1604 12.0519L40.4554 11.3268C41.2842 12.2937 42.7173 12.4663 43.736 11.6893C44.7547 10.9296 44.9964 9.49654 44.2885 8.44331C43.5806 7.39007 42.1648 7.06201 41.077 7.71813C39.9892 8.37424 39.5921 9.75554 40.1792 10.8951L38.9533 11.5858C38.4525 10.6706 37.5547 10.0491 36.536 9.89366C35.5173 9.73827 34.464 10.0663 33.7216 10.7915L29.6468 6.1469C30.0439 5.83611 30.372 5.42172 30.5964 4.9728L34.1705 5.55985C34.4468 6.80302 35.6554 7.61453 36.8986 7.39007C38.159 7.18287 39.0223 6.02604 38.8842 4.76561C38.7461 3.50518 37.641 2.55554 36.3806 2.6246C35.1029 2.69366 34.1187 3.72964 34.1015 5.00733L30.7863 4.45482C31.2525 2.86633 30.4928 1.17424 28.9907 0.466327C27.4885 -0.241587 25.7101 0.276399 24.795 1.65769C23.8799 3.03899 24.1216 4.88647 25.3648 5.99151L21.6698 9.60014C21.1 8.94402 20.2885 8.52964 19.4252 8.46057V5.93971C20.6856 5.80158 21.6353 4.69654 21.5662 3.41884C21.4971 2.14115 20.4612 1.15697 19.1835 1.15697C17.9058 1.15697 16.8525 2.15841 16.7835 3.43611C16.7144 4.71381 17.6468 5.81884 18.9245 5.95697V8.46057C17.7849 8.5469 16.7662 9.22028 16.2309 10.2217C15.6957 11.2404 15.713 12.4491 16.2827 13.4505L10.4813 16.1095C10.2741 15.6088 9.94605 15.1771 9.53166 14.8318L11.7935 10.757C12.0007 10.8088 12.1907 10.8433 12.3978 10.8433C13.6237 10.8433 14.6425 9.9282 14.7978 8.71956C14.9532 7.51093 14.159 6.38863 12.9849 6.0951C11.7935 5.80158 10.5849 6.44043 10.1532 7.58C9.72159 8.71956 10.2223 9.99726 11.2928 10.567L9.10001 14.5383C7.77051 13.744 6.09569 13.9685 5.00792 15.0735C3.93741 16.1786 3.74749 17.8534 4.559 19.1656C5.37051 20.4778 6.959 21.0649 8.42662 20.5987L11.0338 25.6922C10.3777 26.1757 9.91152 26.9009 9.75612 27.6951L7.85684 27.1426C7.90864 26.9527 7.92591 26.7455 7.92591 26.5555C7.92591 25.3296 7.0108 24.3109 5.80216 24.1728C4.59353 24.0347 3.47123 24.8116 3.1777 26.003C2.88418 27.1944 3.54029 28.403 4.69713 28.8174C5.8367 29.2318 7.11439 28.7311 7.66691 27.6433L9.68706 28.2304C9.68706 28.2822 9.68706 28.3339 9.68706 28.3857C9.68706 29.5253 10.2568 30.5786 11.2237 31.1829L9.92878 32.875C8.97914 32.0289 7.52878 32.0807 6.63094 32.9958C5.7331 33.9109 5.69857 35.344 6.56188 36.2937C7.42519 37.2433 8.85828 37.3469 9.85972 36.5354C10.8612 35.7239 11.0338 34.2908 10.2914 33.2548L11.6899 31.4246C12.1043 31.6145 12.5705 31.7009 13.0367 31.7009C13.1058 31.7009 13.1748 31.7009 13.2439 31.6836L14.2799 37.5368C12.8986 37.9512 11.9317 39.2116 11.8799 40.6447C11.8453 42.0951 12.7432 43.3901 14.1072 43.8735C15.4712 44.357 16.9907 43.9081 17.8712 42.7512L22.7058 44.9095C22.6712 45.0821 22.6367 45.2721 22.6367 45.4447C22.6367 46.6706 23.5518 47.7066 24.7777 47.8447C26.0036 47.9829 27.1259 47.1886 27.4022 45.9973C27.6784 44.8059 27.005 43.5973 25.8482 43.1829C24.6914 42.7685 23.4137 43.3037 22.8784 44.4088L18.1648 42.3023C18.372 41.9224 18.5101 41.508 18.5446 41.0764L24.6914 39.5742C25.1576 40.4375 25.9863 41.0419 26.9533 41.2491C27.9202 41.439 28.9216 41.1973 29.6813 40.5929L31.9777 42.5786C31.4425 43.7527 31.9086 45.1339 33.0482 45.721C34.1878 46.3253 35.5863 45.9282 36.2425 44.8232C36.8986 43.7181 36.5878 42.3023 35.5345 41.5771C34.464 40.8519 33.031 41.0937 32.254 42.1124L30.0612 40.2304C30.3892 39.885 30.6309 39.4534 30.7863 39.0045L39.9202 39.4534C39.9374 40.7829 41.0079 41.8361 42.3374 41.8361C43.6669 41.8361 44.7374 40.7483 44.7202 39.4361C44.7202 38.1411 43.6497 37.0706 42.3202 37.0706Z" fill="#FF473E"/>
</svg>
