<svg width="48" height="48" viewBox="0 0 48 48" fill="none" xmlns="http://www.w3.org/2000/svg">
<circle cx="24" cy="24" r="24" fill="#E1AA4C"/>
<path fill-rule="evenodd" clip-rule="evenodd" d="M23.9644 8L34.8021 11.2701C34.9609 11.3321 35.0912 11.4505 35.1676 11.6028C35.2441 11.7552 35.2614 11.9304 35.2163 12.0948C35.1711 12.2591 35.0666 12.401 34.9231 12.4928C34.7794 12.5845 34.6069 12.62 34.4387 12.592L23.9957 9.45961L13.5841 12.592C13.4088 12.6509 13.2173 12.6378 13.0516 12.5556C12.886 12.4733 12.7598 12.3287 12.7009 12.1534C12.6418 11.978 12.6549 11.7865 12.7372 11.621C12.8194 11.4553 12.964 11.3291 13.1393 11.2701L23.9644 8Z" fill="white"/>
<path fill-rule="evenodd" clip-rule="evenodd" d="M39.5961 13.1997C39.5716 13.0529 39.5014 12.9175 39.3957 12.8128C39.2899 12.7082 39.1539 12.6395 39.0067 12.6166C38.8597 12.5937 38.7092 12.6177 38.5766 12.6853C38.4439 12.7529 38.336 12.8604 38.2681 12.9929L32.0035 25.24H15.9726L9.70811 12.9929C9.64172 12.8686 9.54063 12.7663 9.41719 12.6985C9.29374 12.6306 9.15323 12.6002 9.01275 12.6108C8.85854 12.6275 8.714 12.694 8.60098 12.8003C8.48796 12.9066 8.41259 13.0467 8.3863 13.1997C7.81819 17.17 8.03098 21.2133 9.01275 25.1023C10.5538 31.2289 14.4442 38.3391 23.7093 42.8558L24.0101 42.9999L24.317 42.8558C33.5696 38.3391 37.4724 31.2289 39.0136 25.1084C39.9828 21.2149 40.1807 17.1691 39.5961 13.1997ZM10.3095 24.7701C9.57456 21.7784 9.29577 18.6927 9.48258 15.6178L14.9453 26.2673L22.3437 40.6069C19.3503 38.9445 16.7351 36.6783 14.6635 33.9523C12.5919 31.2262 11.1092 28.0994 10.3095 24.7701ZM23.9661 40.7385L16.6867 26.6495H31.3081L23.9661 40.7385ZM37.6354 24.7701C36.8297 28.0962 35.3439 31.2193 33.2718 33.9428C31.1995 36.6662 28.5857 38.9309 25.5949 40.5944L33.0183 26.2423L38.4748 15.5927C38.6658 18.6767 38.3825 21.7718 37.6354 24.7701Z" fill="white"/>
</svg>
