<svg width="48" height="48" viewBox="0 0 48 48" fill="none" xmlns="http://www.w3.org/2000/svg">
<path d="M26.6749 25.7906C27.5941 25.3457 28.3682 24.6558 28.9093 23.7993C29.4504 22.9428 29.7367 21.9541 29.7357 20.9454C29.7357 17.9689 27.2921 15.5567 24.2804 15.5567C21.2686 15.5567 18.8239 17.9687 18.8239 20.9451C18.8227 21.9542 19.1092 22.9433 19.6507 23.7999C20.1923 24.6564 20.9671 25.3461 21.887 25.7903V32.4456H26.6746V25.7906H26.6749ZM24.2806 41.25C14.6524 41.25 6.82032 33.5123 6.82032 24C6.82032 14.4877 14.6535 6.75138 24.2806 6.75138C32.1374 6.75138 38.7971 11.9034 40.9821 18.9681H46.9998C44.6779 8.68591 35.3876 1 24.2806 1C11.4232 1 1 11.2973 1 24C1 36.7027 11.4232 47 24.2806 47C35.3876 47 44.6779 39.3141 47 29.0317H40.9823C38.7957 36.098 32.1374 41.25 24.2806 41.25Z" fill="#3AB03E"/>
</svg>
