<svg width="48" height="48" viewBox="0 0 48 48" fill="none" xmlns="http://www.w3.org/2000/svg">
<path d="M24 48C37.2548 48 48 37.2548 48 24C48 10.7452 37.2548 0 24 0C10.7452 0 0 10.7452 0 24C0 37.2548 10.7452 48 24 48Z" fill="#F9AD17"/>
<path d="M14.88 13.28H25.32L26.92 13.52C29.7573 14.1493 31.9573 15.416 33.52 17.32L34.64 18.92L35.48 20.64H38.24V23.2H36.04L36 23.24V26H38.24V28.64H35.32L35.28 28.84C34.592 30.4987 33.6187 31.872 32.36 32.96C31.4598 33.7636 30.4325 34.4124 29.32 34.88L27.4 35.52L26.12 35.76C25.8032 35.8176 25.7729 35.7958 25.48 35.84H14.88V28.68L14.84 28.64H11.76V26H14.88V23.2H11.76V20.64H14.88V13.28ZM17.44 15.6V20.56H32.48L32.16 19.84L31.28 18.64C30.1067 17.2533 28.5333 16.32 26.56 15.84L25.68 15.68L24.96 15.6H17.44ZM17.44 23.2V26H33.28L33.36 25.92V23.36L33.28 23.2H17.44ZM17.44 28.64V33.52H24.8L26.16 33.36C27.8667 32.9867 29.3067 32.32 30.48 31.36C31.3013 30.6396 31.9797 29.7712 32.48 28.8V28.64H17.44Z" fill="#FCFCFC"/>
</svg>
