<svg width="48" height="48" viewBox="0 0 48 48" fill="none" xmlns="http://www.w3.org/2000/svg">
<path fill-rule="evenodd" clip-rule="evenodd" d="M18.0001 14.8388C17.868 15.5768 17.6947 16.5455 17.6153 16.9914L17.4707 17.8023L22.2029 17.8245C26.3005 17.8437 27.0007 17.8553 27.4251 17.9108C31.1507 18.3978 32.0343 20.2649 30.8091 25.0614C30 28.2288 28.5711 29.5291 25.3712 30.0096C24.9729 30.0693 24.4327 30.0776 20.1321 30.0897L15.337 30.1033L15.2966 30.3045C15.2744 30.4151 15.1077 31.3397 14.9262 32.3589C14.7447 33.3783 14.5861 34.2688 14.5738 34.3379L14.5513 34.4634L19.5075 34.463C24.4178 34.4626 25.6647 34.4391 26.684 34.3271C31.973 33.7463 35.2647 30.1436 36.2964 23.8065C37.307 17.599 35.3785 14.3992 30.1784 13.6547C29.1557 13.5082 28.6875 13.4974 23.3986 13.4972L18.2405 13.497L18.0001 14.8388ZM13.3565 21.8591C12.2512 22.0591 11.5997 22.678 11.2638 23.8469C11.1679 24.1811 10.7373 26.0111 10.7373 26.085C10.7373 26.1667 21.0973 26.1153 21.3942 26.032C22.3601 25.7613 22.9639 25.1403 23.2605 24.1129C23.3686 23.7386 23.7881 21.9449 23.7881 21.8571C23.7881 21.7731 13.822 21.7749 13.3565 21.8591Z" fill="#FBFBFC"/>
<path fill-rule="evenodd" clip-rule="evenodd" d="M22.5526 0.00729869C7.96631 1.02697 -2.20761 14.1096 0.411685 28.4785C2.77166 41.4253 15.6397 50.1106 28.6403 47.5317C38.6283 45.5504 46.2943 37.5007 47.745 27.4706C49.8367 13.0083 38.8011 0.116897 24.2322 0.00387798C23.4251 -0.00243738 22.6694 -0.000858662 22.5526 0.00729869ZM28.9235 13.4981C34.6543 13.8966 37.0654 16.716 36.5136 22.374C35.8598 29.078 32.7225 33.2743 27.6626 34.2124C26.4172 34.4434 26.5615 34.4387 20.2796 34.4533L14.5121 34.4667L14.5335 34.3782C14.5453 34.3295 14.7226 33.3518 14.9274 32.2054C15.1323 31.0592 15.3096 30.1054 15.3216 30.0859C15.3349 30.0645 16.952 30.0612 19.4017 30.0776C24.4557 30.1113 25.2487 30.0773 26.4385 29.7756C29.1658 29.084 30.3182 27.6016 31.0644 23.8258C31.8552 19.8233 30.6935 18.1717 26.8964 17.8996C26.5822 17.8771 24.4927 17.8607 21.9058 17.8606C17.7167 17.8603 17.4558 17.8564 17.4558 17.7936C17.4558 17.7202 18.1809 13.6348 18.2131 13.526C18.2368 13.4465 27.8225 13.4217 28.9235 13.4981ZM23.8088 21.9048C23.7514 22.2175 23.3953 23.7291 23.3015 24.0574C22.9823 25.1751 22.3981 25.7837 21.3845 26.0553L21.066 26.1405L15.8791 26.1521L10.6922 26.1637L10.7177 26.0373C11.2427 23.4472 11.5871 22.6572 12.4023 22.174C13.096 21.7627 12.972 21.7706 18.8019 21.7649L23.8354 21.76L23.8088 21.9048Z" fill="#048CE4"/>
<path fill-rule="evenodd" clip-rule="evenodd" d="M29.153 28.353L29.02 28.4977L29.1649 28.3647C29.2996 28.2409 29.3274 28.2082 29.2979 28.2082C29.2914 28.2082 29.2263 28.2734 29.153 28.353Z" fill="#58B2EC"/>
<path fill-rule="evenodd" clip-rule="evenodd" d="M20.7504 13.4874C22.1484 13.4931 24.4245 13.4931 25.8086 13.4874C27.1926 13.4818 26.0489 13.4772 23.2668 13.4772C20.4849 13.4772 19.3525 13.4818 20.7504 13.4874ZM28.8366 13.5243C28.8844 13.5335 28.9626 13.5335 29.0104 13.5243C29.0582 13.5151 29.0191 13.5076 28.9234 13.5076C28.8279 13.5076 28.7888 13.5151 28.8366 13.5243ZM19.65 17.8506C20.8674 17.8562 22.8482 17.8562 24.0517 17.8506C25.2553 17.8449 24.2591 17.8403 21.8383 17.8403C19.4172 17.8403 18.4326 17.8449 19.65 17.8506ZM26.8679 17.8875C26.9159 17.8967 26.9854 17.8963 27.0222 17.8867C27.0592 17.8771 27.0199 17.8695 26.935 17.8699C26.85 17.8704 26.8199 17.8783 26.8679 17.8875ZM36.5406 20.177C36.5406 20.2725 36.5481 20.3116 36.5573 20.2638C36.5665 20.2161 36.5665 20.1378 36.5573 20.09C36.5481 20.0423 36.5406 20.0813 36.5406 20.177ZM31.3316 21.7794C31.3317 21.9917 31.3381 22.0737 31.3459 21.9615C31.3538 21.8492 31.3537 21.6754 31.3458 21.5753C31.3379 21.4752 31.3314 21.567 31.3316 21.7794ZM36.5416 21.6441C36.5416 21.761 36.5488 21.8087 36.5577 21.7504C36.5666 21.692 36.5666 21.5964 36.5577 21.5379C36.5488 21.4797 36.5416 21.5274 36.5416 21.6441ZM18.805 21.7889C22.7112 21.7967 23.7717 21.8091 23.7985 21.847C23.8236 21.8825 23.8285 21.88 23.8168 21.8373C23.8029 21.7861 23.215 21.7792 18.8233 21.7791L13.8455 21.7789L18.805 21.7889ZM10.6986 26.1328C10.6986 26.1487 12.9531 26.1576 15.7085 26.1525C18.464 26.1474 19.9105 26.1387 18.9231 26.1333C14.1801 26.1069 10.6986 26.1066 10.6986 26.1328ZM24.3002 30.0893C24.359 30.0982 24.4458 30.0979 24.4933 30.0888C24.5408 30.0796 24.4928 30.0724 24.3866 30.0726C24.2805 30.0729 24.2415 30.0804 24.3002 30.0893ZM25.8254 34.4134C25.8734 34.4226 25.9428 34.4223 25.9798 34.4126C26.0167 34.403 25.9775 34.3954 25.8925 34.3959C25.8075 34.3963 25.7773 34.4042 25.8254 34.4134ZM24.9378 34.453C25.0287 34.4612 25.1676 34.4612 25.2467 34.4527C25.3258 34.4444 25.2514 34.4379 25.0816 34.438C24.9117 34.4381 24.847 34.4448 24.9378 34.453Z" fill="#8CC8F4"/>
<path fill-rule="evenodd" clip-rule="evenodd" d="M28.3926 13.4851C28.4298 13.4948 28.4906 13.4948 28.5277 13.4851C28.5649 13.4753 28.5345 13.4674 28.4602 13.4674C28.3859 13.4674 28.3555 13.4753 28.3926 13.4851ZM30.2749 18.9921C30.2749 18.9986 30.3314 19.0552 30.4005 19.1176L30.5258 19.231L30.4126 19.1055C30.3068 18.9885 30.2749 18.9622 30.2749 18.9921ZM36.5807 20.8913C36.5808 21.0186 36.5881 21.0661 36.5966 20.9968C36.6053 20.9273 36.605 20.8231 36.5962 20.7651C36.5874 20.7071 36.5804 20.7638 36.5807 20.8913ZM16.4422 30.0905C17.0633 30.0965 18.0798 30.0965 18.701 30.0905C19.3221 30.0846 18.814 30.0797 17.5716 30.0797C16.3293 30.0797 15.821 30.0846 16.4422 30.0905ZM23.9137 30.0892C23.9721 30.098 24.0676 30.098 24.126 30.0892C24.1844 30.0804 24.1365 30.0732 24.0198 30.0732C23.903 30.0732 23.8552 30.0804 23.9137 30.0892Z" fill="#34A4EC"/>
</svg>
