<svg width="48" height="48" viewBox="0 0 48 48" fill="none" xmlns="http://www.w3.org/2000/svg">
<path d="M29.5116 4.03352V2.76505C29.5119 2.56258 29.4318 2.36828 29.2889 2.22484C29.146 2.08139 28.952 2.00053 28.7495 2H28.7188C24.5978 2.19877 20.7005 3.93264 17.7936 6.86044C14.8867 9.78823 13.1808 13.6979 13.0115 17.8202C13.0304 18.3564 13.4634 18.4961 13.7181 18.4961H15.0064C15.2026 18.4956 15.391 18.4199 15.533 18.2845C15.6749 18.1492 15.7596 17.9646 15.7695 17.7687C15.9494 14.3719 17.3808 11.1621 19.7876 8.75844C22.1944 6.35475 25.4061 4.9275 28.803 4.75199C29.3402 4.68361 29.5116 4.39028 29.5116 4.03352ZM17.917 18.502H19.1448C19.3374 18.5007 19.5223 18.4267 19.6626 18.2947C19.8028 18.1627 19.8879 17.9826 19.9009 17.7905C20.0725 15.4764 21.0735 13.302 22.7198 11.6668C24.3662 10.0315 26.5473 9.04533 28.8625 8.8894C29.0445 8.8774 29.2144 8.79425 29.3355 8.65794C29.4566 8.52162 29.5191 8.34311 29.5096 8.16102V6.90047C29.5091 6.69721 29.4279 6.50247 29.2839 6.35903C29.1399 6.21558 28.9449 6.13516 28.7416 6.13542C28.7248 6.13443 28.7079 6.13443 28.6911 6.13542C25.6951 6.33401 22.8733 7.61397 20.7504 9.73724C18.6275 11.8605 17.348 14.6826 17.1499 17.6785C17.1363 17.8814 17.2039 18.0814 17.3377 18.2345C17.4715 18.3876 17.6606 18.4814 17.8635 18.4951H17.914L17.917 18.502ZM29.5086 11.0408V12.3063C29.5086 12.8217 29.0607 13.008 28.8427 13.0337C27.6242 13.1826 26.4904 13.7343 25.6213 14.6011C24.7521 15.4679 24.1974 16.6002 24.0453 17.8183C24.0233 18.005 23.9338 18.1773 23.7936 18.3027C23.6534 18.4281 23.4723 18.4979 23.2842 18.4991H22.0564C21.8542 18.4999 21.6599 18.4204 21.5163 18.278C21.3726 18.1357 21.2914 17.9422 21.2903 17.74C21.2888 17.7156 21.2888 17.6911 21.2903 17.6666C21.4822 15.7733 22.3218 14.0043 23.6674 12.6585C25.013 11.3128 26.7819 10.4729 28.6752 10.2808C28.7748 10.2715 28.8752 10.2819 28.9707 10.3115C29.0662 10.341 29.155 10.3891 29.232 10.453C29.3089 10.5168 29.3725 10.5952 29.4191 10.6837C29.4657 10.7722 29.4945 10.8689 29.5037 10.9685C29.5052 10.9933 29.5052 11.0181 29.5037 11.0428L29.5086 11.0408ZM43.9653 29.4734C43.6085 29.4734 43.3152 29.3009 43.2458 28.7648C43.0706 25.3673 41.6436 22.1551 39.2399 19.7476C36.8363 17.3401 33.6263 15.9079 30.2291 15.7273C30.0332 15.7176 29.8486 15.633 29.7133 15.4909C29.5781 15.3489 29.5027 15.1603 29.5027 14.9642V13.6759C29.5027 13.4212 29.6424 12.9882 30.1776 12.9693C34.2999 13.1382 38.2098 14.8437 41.1381 17.7501C44.0664 20.6566 45.801 24.5536 46.0008 28.6746C46.0085 28.877 45.9357 29.0741 45.7982 29.2228C45.6607 29.3714 45.4698 29.4594 45.2674 29.4674H45.2367L43.9653 29.4734ZM29.4967 17.8787C29.4967 17.7781 29.5166 17.6784 29.5552 17.5855C29.5937 17.4925 29.6503 17.4081 29.7215 17.337C29.7928 17.266 29.8773 17.2097 29.9704 17.1713C30.0634 17.133 30.1631 17.1134 30.2638 17.1137C30.2809 17.1127 30.2981 17.1127 30.3153 17.1137C33.3126 17.3107 36.1363 18.5901 38.2606 20.7137C40.385 22.8373 41.6653 25.6605 41.8634 28.6578C41.8767 28.8604 41.8092 29.0601 41.6757 29.2132C41.5422 29.3662 41.3534 29.4601 41.1508 29.4743H41.1003H39.8447C39.6626 29.4839 39.4841 29.4213 39.3478 29.3002C39.2115 29.1791 39.1283 29.0092 39.1163 28.8272C38.9601 26.5119 37.9735 24.3307 36.3379 22.6845C34.7023 21.0383 32.5275 20.0378 30.2132 19.8666C30.021 19.8541 29.8408 19.769 29.7089 19.6287C29.577 19.4883 29.5033 19.3031 29.5027 19.1105L29.4967 17.8787ZM36.952 29.4734H35.6944C35.1781 29.4734 34.9928 29.0254 34.966 28.8064C34.817 27.5881 34.2652 26.4546 33.3984 25.5856C32.5316 24.7167 31.3994 24.1621 30.1815 24.01C29.9947 23.9886 29.8221 23.8995 29.6966 23.7594C29.5711 23.6193 29.5014 23.438 29.5007 23.2499V22.0181C29.5002 21.918 29.5194 21.8188 29.5572 21.7262C29.595 21.6335 29.6507 21.5492 29.7211 21.4781C29.7915 21.4069 29.8752 21.3504 29.9675 21.3116C30.0597 21.2728 30.1587 21.2526 30.2588 21.2521C30.2832 21.2506 30.3077 21.2506 30.3322 21.2521C32.2252 21.4439 33.994 22.2835 35.3396 23.6289C36.6851 24.9742 37.5249 26.7429 37.717 28.636C37.7355 28.8369 37.6734 29.0369 37.5445 29.1921C37.4155 29.3472 37.2302 29.4448 37.0293 29.4634C37.0052 29.4649 36.981 29.4649 36.957 29.4634L36.952 29.4734ZM4.03512 18.4941C4.39187 18.4941 4.68521 18.6656 4.75458 19.2017C4.93011 22.5994 6.35771 25.8117 8.76198 28.2189C11.1662 30.6261 14.3768 32.0576 17.7743 32.2372C17.97 32.2474 18.1544 32.3321 18.2895 32.4741C18.4246 32.616 18.5002 32.8043 18.5007 33.0003V34.2886C18.5007 34.5443 18.3609 34.9773 17.8258 34.9952C13.7032 34.827 9.7928 33.122 6.86408 30.2156C3.93536 27.3093 2.20041 23.4121 2.0006 19.2909C1.99662 19.1907 2.0124 19.0908 2.04706 18.9967C2.08171 18.9027 2.13454 18.8164 2.20255 18.7428C2.27056 18.6692 2.3524 18.6097 2.44341 18.5677C2.53442 18.5257 2.6328 18.502 2.73295 18.4981H2.76466L4.03512 18.4941ZM18.5036 30.0888C18.5034 30.1894 18.4833 30.2889 18.4446 30.3818C18.4058 30.4746 18.3492 30.5589 18.2779 30.6299C18.2066 30.7008 18.122 30.757 18.0289 30.7953C17.9359 30.8335 17.8362 30.8531 17.7356 30.8528H17.6851C14.6889 30.6552 11.8665 29.3761 9.74286 27.2533C7.6192 25.1306 6.33886 22.3088 6.13999 19.3127C6.13284 19.2124 6.14553 19.1117 6.17733 19.0163C6.20912 18.9209 6.25941 18.8328 6.32531 18.7568C6.39121 18.6809 6.47143 18.6187 6.56138 18.5738C6.65133 18.5289 6.74925 18.5021 6.84954 18.4951H8.15865C8.34106 18.4856 8.51986 18.5485 8.65623 18.67C8.7926 18.7915 8.87553 18.9619 8.88703 19.1442C9.04345 21.4595 10.0301 23.6405 11.6657 25.2867C13.3012 26.9328 15.4759 27.9335 17.7901 28.1048C17.9823 28.1173 18.1626 28.2024 18.2945 28.3428C18.4264 28.4831 18.5001 28.6683 18.5007 28.8609L18.5036 30.0888ZM11.0484 18.4941H12.3069C12.8233 18.4941 13.0086 18.942 13.0353 19.1601C13.1845 20.3784 13.7363 21.512 14.6031 22.3811C15.4698 23.2502 16.6019 23.805 17.8199 23.9575C18.0066 23.9786 18.1792 24.0676 18.3047 24.2075C18.4302 24.3475 18.4999 24.5286 18.5007 24.7166V25.9484C18.5009 26.1503 18.4212 26.3442 18.279 26.4875C18.1367 26.6309 17.9435 26.7121 17.7416 26.7134C17.7168 26.7134 17.693 26.7134 17.6692 26.7134C15.7759 26.5214 14.007 25.6817 12.6613 24.3361C11.3156 22.9906 10.4756 21.2218 10.2833 19.3285C10.2741 19.2285 10.2847 19.1276 10.3146 19.0318C10.3446 18.9359 10.3932 18.8469 10.4577 18.7698C10.5221 18.6928 10.6012 18.6293 10.6904 18.583C10.7795 18.5367 10.8769 18.5085 10.977 18.5001C11.0008 18.5001 11.0246 18.5001 11.0494 18.5001L11.0484 18.4941ZM18.5076 43.9627C18.5076 43.6059 18.679 43.3126 19.2152 43.2442C22.6116 43.0684 25.8228 41.6414 28.2296 39.2385C30.6364 36.8355 32.0684 33.6266 32.2497 30.2305C32.2594 30.0345 32.344 29.8497 32.486 29.7144C32.628 29.579 32.8166 29.5034 33.0128 29.5031H34.3011C34.5558 29.5031 34.9888 29.6428 35.0077 30.1789C34.8385 34.3012 33.1328 38.2109 30.2261 41.1388C27.3194 44.0667 23.4223 45.8009 19.3014 46.0002C19.0991 46.0077 18.9021 45.9347 18.7535 45.7973C18.6049 45.6598 18.5168 45.4691 18.5086 45.2668V43.9627H18.5076ZM30.1022 29.4942C30.2028 29.4942 30.3024 29.514 30.3953 29.5526C30.4882 29.5912 30.5726 29.6477 30.6436 29.719C30.7146 29.7903 30.7708 29.8748 30.809 29.9679C30.8472 30.0609 30.8667 30.1606 30.8663 30.2612C30.8663 30.278 30.8663 30.2949 30.8663 30.3127C30.6698 33.3102 29.3907 36.1342 27.2673 38.259C25.1438 40.3837 22.3206 41.6645 19.3232 41.8628C19.1204 41.8764 18.9204 41.809 18.7672 41.6755C18.6139 41.5419 18.5199 41.353 18.5056 41.1502C18.5056 41.1334 18.5056 41.1165 18.5056 41.0997V39.8441C18.4961 39.662 18.5587 39.4835 18.6798 39.3472C18.8009 39.2109 18.9708 39.1277 19.1527 39.1157C21.4679 38.9596 23.6489 37.9733 25.2952 36.3381C26.9415 34.7029 27.9425 32.5286 28.1143 30.2146C28.1266 30.0222 28.2116 29.8417 28.352 29.7096C28.4923 29.5775 28.6777 29.5037 28.8704 29.5031L30.1022 29.4942ZM18.5076 36.9484V35.6938C18.5076 35.1785 18.9565 34.9922 19.1745 34.9664C20.3928 34.8171 21.5263 34.2653 22.3954 33.3985C23.2644 32.5318 23.8193 31.3998 23.972 30.1819C23.9935 29.9951 24.0828 29.8227 24.2228 29.6973C24.3629 29.5718 24.544 29.502 24.732 29.5011H25.9639C26.1658 29.5003 26.3598 29.5797 26.5032 29.7219C26.6467 29.864 26.7278 30.0573 26.7289 30.2592C26.7289 30.2843 26.7289 30.3091 26.7289 30.3335C26.5362 32.2265 25.6961 33.995 24.3504 35.3403C23.0048 36.6856 21.2361 37.5253 19.343 37.7174C19.243 37.7266 19.1422 37.7158 19.0464 37.6858C18.9505 37.6559 18.8616 37.6073 18.7846 37.5428C18.7076 37.4783 18.6441 37.3993 18.5978 37.3102C18.5514 37.2211 18.5231 37.1238 18.5145 37.0237C18.5131 36.9996 18.5131 36.9755 18.5145 36.9514L18.5076 36.9484Z" fill="#FF5C00"/>
</svg>
