<svg width="48" height="48" viewBox="0 0 48 48" fill="none" xmlns="http://www.w3.org/2000/svg">
<path fill-rule="evenodd" clip-rule="evenodd" d="M18.684 26.428L14.724 30.5656C14.0112 31.3096 13.3128 32.0608 12.5976 32.8C12.4776 32.9248 12.3072 32.9992 12.1608 33.0976C11.8488 33.0472 11.6088 32.8528 11.568 32.5696C11.5017 32.1386 11.4425 31.7066 11.3904 31.2736C11.3184 30.7024 11.1432 30.544 10.5648 30.472C9.372 30.328 8.1816 30.172 6.9888 30.016L4.2672 29.6632C3.7248 29.5912 3.528 29.2024 3.8112 28.7392C4.464 27.688 5.1216 26.6416 5.7768 25.5952L9.7848 19.192C9.9432 18.9328 10.1208 18.7552 10.4616 18.7648C10.6776 18.7696 10.9032 18.7168 11.1168 18.6616C11.3712 18.5992 11.5704 18.676 11.748 18.844C12.0624 19.1392 12.3816 19.432 12.6936 19.7296L16.3128 23.164C17.0928 23.9032 17.88 24.6376 18.66 25.3768C19.0632 25.756 19.0632 26.0296 18.684 26.428ZM45.3 31.9936C45.5256 32.1808 45.7704 32.3584 45.8184 32.6776C45.8784 33.0856 45.7152 33.3808 45.3696 33.604C43.3296 34.924 41.2896 36.2512 39.2496 37.5736L35.3064 40.1296C35.182 40.2084 35.0633 40.2958 34.9512 40.3912C34.8518 40.4728 34.7729 40.5765 34.7208 40.694C34.6687 40.8116 34.6449 40.9396 34.6512 41.068C34.6704 41.56 34.6992 42.052 34.7064 42.5416C34.7136 43.1056 34.2984 43.4584 33.732 43.3936C33.5279 43.3667 33.3426 43.2607 33.216 43.0984C32.7416 42.5511 32.268 42.0031 31.7952 41.4544C31.2024 40.768 30.612 40.0768 30.0168 39.3928C29.8942 39.2704 29.8013 39.1215 29.7451 38.9576C29.689 38.7937 29.6711 38.6191 29.6928 38.4472L29.7744 35.5792C29.784 35.2432 29.9832 35.0272 30.252 34.8544L33.5112 32.7712C35.3352 31.6072 37.164 30.448 38.9832 29.272C39.3672 29.0248 39.7248 28.9504 40.1472 29.1664C40.4592 29.3248 40.812 29.3536 41.1504 29.248C41.6568 29.0872 42.0456 29.2288 42.4368 29.5744C43.3728 30.4 44.3448 31.1872 45.3024 31.9936H45.3ZM27.7848 34.3744C27.9329 34.5191 28.0384 34.7018 28.0896 34.9024C28.1784 35.3512 28.0008 35.656 27.5784 35.86C26.1744 36.5368 24.7728 37.2208 23.3568 37.876C23.1024 37.9912 22.7832 38.0056 22.4928 38.02C21.3192 38.0728 20.1456 38.104 18.972 38.152C18.2784 38.1784 17.5872 38.2216 16.9488 38.2552H16.4784C16.372 38.2579 16.2661 38.2391 16.1672 38.1999C16.0682 38.1607 15.9782 38.102 15.9024 38.0272C15.7536 37.8904 15.6 37.7584 15.4536 37.6192C14.628 36.8344 13.8168 36.0352 12.9744 35.2672C12.504 34.84 12.4968 34.2664 12.9456 33.808C13.956 32.7664 14.9544 31.7152 15.9576 30.664C17.04 29.5312 18.1224 28.3936 19.2024 27.256C19.2843 27.1596 19.3852 27.081 19.4986 27.025C19.6121 26.9691 19.7359 26.937 19.8623 26.9307C19.9886 26.9244 20.115 26.944 20.2335 26.9884C20.352 27.0328 20.4601 27.101 20.5512 27.1888L24.8712 31.4824C25.8408 32.4472 26.82 33.4024 27.7848 34.3744ZM33.732 15.0568C33.2688 14.3416 33.792 13.3528 34.5624 13.2256C36.6216 12.8824 38.6736 12.4888 40.7304 12.1312C41.184 12.052 41.544 12.2608 41.7936 12.6352C42.2256 13.2832 42.6504 13.9336 43.0776 14.584C43.98 15.952 44.8848 17.32 45.7776 18.6928C45.8976 18.8776 45.9576 19.1008 46.0464 19.3048L45.9936 19.3288C45.9789 19.6792 45.849 20.015 45.624 20.284C44.3664 21.9736 43.0944 23.656 41.8392 25.348C41.7208 25.4982 41.5675 25.6172 41.3927 25.6947C41.2179 25.7722 41.0268 25.8059 40.836 25.7929C40.6452 25.7799 40.4605 25.7206 40.2978 25.6201C40.1351 25.5195 39.9994 25.3809 39.9024 25.216C38.0664 22.168 36.2112 19.1296 34.3632 16.0888C34.1544 15.7432 33.9504 15.3928 33.732 15.0568ZM30.12 23.5336L29.76 26.7376C29.6592 27.6256 29.5512 28.5088 29.4504 29.3968L29.0952 32.5168C29.0712 32.7352 29.0688 32.9584 29.0232 33.1696C28.9992 33.2728 28.9224 33.4048 28.836 33.4384C28.7496 33.472 28.596 33.424 28.5192 33.3592C28.1784 33.064 27.8544 32.752 27.528 32.4424C26.352 31.3288 25.1832 30.2128 24.0072 29.104C22.9848 28.1368 21.96 27.1768 20.9328 26.2168C20.592 25.9 20.5896 25.7992 20.9184 25.456L25.6176 20.536L28.8264 17.1664L30.4008 15.5104C30.4464 15.4624 30.4848 15.3976 30.54 15.3784C30.6528 15.3376 30.792 15.2824 30.8904 15.3136C30.972 15.3424 31.0104 15.4888 31.0344 15.5296L30.7944 17.6416L30.4848 20.356L30.12 23.5336ZM39.2544 25.9816C39.408 26.2288 39.432 26.464 39.264 26.7208C39.0808 27.0089 39.0028 27.3515 39.0432 27.6904C39.072 27.9928 38.9472 28.1776 38.6904 28.3384C36.6816 29.6128 34.6824 30.8968 32.6808 32.1784C32.052 32.5816 31.4232 32.9824 30.792 33.3808C30.5424 33.5392 30.2856 33.5272 30.1488 33.3256C30.072 33.2152 30.0624 33.0616 30.0408 32.9848L30.3048 31.0456L30.8928 26.7688L31.5408 22.0888L32.172 17.512L32.412 15.808C32.4168 15.7624 32.4192 15.7096 32.4432 15.676C32.5056 15.5968 32.5752 15.4792 32.6544 15.4648C32.7408 15.4504 32.8752 15.5176 32.9304 15.592C33.0768 15.7888 33.1944 16.0072 33.324 16.2184L38.016 23.9368C38.4288 24.6184 38.8368 25.3024 39.2544 25.9792V25.9816ZM29.5272 14.212C29.6016 14.26 29.7456 14.3104 29.8224 14.4136C29.94 14.572 29.8368 14.7208 29.7144 14.848L28.0824 16.564L23.3256 21.5416C22.332 22.5856 21.3432 23.6344 20.3496 24.676C19.9896 25.0504 19.7016 25.0504 19.3272 24.6952C18.168 23.596 17.0088 22.492 15.8472 21.3952C14.7192 20.3296 13.5864 19.2664 12.4536 18.2032C12.3024 18.0592 12.1824 17.9032 12.1992 17.6824C12.2232 17.3824 12.396 17.212 12.7392 17.1544C13.3656 17.0416 13.9944 16.9312 14.6232 16.8232L20.6592 15.7672L27.7872 14.5168L29.5272 14.212ZM13.3536 15.7288C14.472 14.9632 15.5904 14.2024 16.7112 13.4416L27.5352 6.06884C27.8952 5.82404 28.1232 5.87444 28.3032 6.26324C29.0496 7.86164 29.7912 9.46244 30.5352 11.0632C30.6312 11.2696 30.7224 11.4784 30.8208 11.6872C30.9 11.8552 30.8472 11.992 30.7464 12.1432C30.6153 12.3286 30.5043 12.5273 30.4152 12.736C30.336 12.9352 30.216 13.0432 30 13.0816C28.4064 13.3648 26.8152 13.6576 25.224 13.9408L19.5744 14.956L13.4064 16.0648C13.32 16.0792 13.2312 16.0648 13.1424 16.0648L13.0896 15.9664C13.1784 15.8872 13.2576 15.796 13.3536 15.7288ZM2.0976 19.3912C1.392 19.3768 0.972 18.6904 1.3104 18.0592C1.596 17.5264 1.9128 17.0128 2.22 16.492C3.1032 14.9824 3.9912 13.4776 4.8696 11.968C5.01294 11.7215 5.22025 11.5184 5.4696 11.38C7.812 10.0336 10.1496 8.68004 12.492 7.33124C12.6407 7.24025 12.8038 7.17532 12.9744 7.13924C13.1343 7.10767 13.2999 7.12357 13.4509 7.18498C13.6019 7.24639 13.7316 7.35063 13.824 7.48484C13.9262 7.61599 13.9884 7.77392 14.0028 7.93958C14.0173 8.10524 13.9835 8.27155 13.9056 8.41844C13.5528 9.17204 13.1856 9.91844 12.8256 10.6672C12.1536 12.04 11.4816 13.4104 10.8168 14.7856C10.7538 14.9376 10.6558 15.0726 10.5306 15.1793C10.4055 15.2861 10.2568 15.3618 10.0968 15.4C9.79908 15.471 9.52677 15.6229 9.30993 15.8389C9.09309 16.0549 8.94015 16.3266 8.868 16.624C8.83155 16.7709 8.75716 16.9056 8.65229 17.0147C8.54741 17.1238 8.41572 17.2034 8.2704 17.2456C6.3456 17.9224 4.4232 18.6136 2.5008 19.2976C2.3712 19.3456 2.2344 19.36 2.1 19.3936L2.0976 19.3912ZM12.0648 15.0088C12.0743 14.9087 12.102 14.8111 12.1464 14.7208L14.6616 9.20805C15.1848 8.06084 15.7152 6.91604 16.2312 5.76644C16.3512 5.50244 16.5264 5.37044 16.824 5.35844C17.6088 5.33444 18.3936 5.29364 19.1784 5.26244L23.8104 5.08724C24.3528 5.06324 24.8976 5.02724 25.4424 5.00084C25.8312 4.98404 26.0976 5.21924 26.1 5.60084C26.1168 5.83364 25.968 5.98484 25.776 6.11684L24.2928 7.12724L15.4272 13.1584L12.5952 15.088C12.5292 15.138 12.4584 15.1814 12.384 15.2176C12.216 15.2896 12.0552 15.1888 12.0648 15.0088ZM8.7936 18.9688C8.4024 19.6 8.0064 20.2264 7.6128 20.8552C6.1416 23.2072 4.6704 25.5616 3.1968 27.9112C3.13602 28.0238 3.05461 28.124 2.9568 28.2064C2.7024 28.3888 2.364 28.2616 2.244 27.9424C2.052 27.4288 1.8696 26.9104 1.6848 26.3944L0.0792 21.8776C0.0408 21.7648 0.0144 21.6496 0 21.5944C0.0024 21.2896 0.1032 21.16 0.3888 21.0664C1.2432 20.7904 2.0976 20.5192 2.952 20.248L7.788 18.712L8.424 18.5152C8.5752 18.4672 8.7264 18.4024 8.8512 18.5704C8.964 18.7216 8.8704 18.8464 8.7936 18.9688ZM47.4768 25.2304L47.9616 28.0048C47.976 28.0936 47.9856 28.1848 48 28.3024C47.976 28.4224 47.9496 28.5664 47.9112 28.7056L47.2752 31C47.0928 31.66 46.5696 31.816 46.0416 31.3696C44.9592 30.4576 43.872 29.5456 42.7848 28.6384C42.5376 28.432 42.4344 28.1944 42.492 27.868C42.5625 27.5431 42.5237 27.2039 42.3816 26.9032C42.2328 26.608 42.2808 26.3464 42.4752 26.0872C43.3632 24.8968 44.244 23.7016 45.1296 22.5112L45.6696 21.7816C45.8496 21.5344 46.0872 21.4144 46.3896 21.4816C46.7064 21.5536 46.8696 21.7696 46.9224 22.0792L47.4744 25.2304H47.4768ZM29.3232 6.16484L29.2752 6.06404C29.2104 5.92004 29.184 5.75204 29.3304 5.67044C29.4589 5.61284 29.604 5.6043 29.7384 5.64644C29.9496 5.71124 30.1392 5.83124 30.3384 5.92964L38.4072 9.95924L39.84 10.6792C40.0008 10.7584 40.128 10.852 40.0944 11.0536C40.0608 11.2528 39.9096 11.296 39.7344 11.3272C37.7952 11.6728 35.8584 12.0232 33.9216 12.3712L33.732 12.4096C33.6768 12.3736 33.5712 12.3328 33.504 12.256C33.3314 12.039 33.1141 11.8617 32.8669 11.7362C32.6196 11.6107 32.3483 11.54 32.0712 11.5288C31.8552 11.5192 31.7448 11.392 31.6632 11.212C31.3224 10.4728 30.9744 9.73844 30.6312 9.00164L29.3232 6.16484Z" fill="#5BC1D4"/>
</svg>
