<svg width="48" height="48" viewBox="0 0 48 48" fill="none" xmlns="http://www.w3.org/2000/svg">
<g clip-path="url(#clip0)">
<path d="M21.0994 28.4445H32.9357C37.3333 28.4445 40.9357 24.889 40.9357 20.4445C40.9357 16.0001 37.3801 12.4913 32.9825 12.4913H29.193L21.0994 5.47375H32.9357C41.2164 5.42697 47.9532 12.117 47.9532 20.3977C48 26.5264 44.2573 32.0469 38.5497 34.3393L47.9064 42.4328H37.2398L21.0994 28.4445Z" fill="url(#paint0_linear)"/>
<path d="M26.9001 19.5088H15.0638C10.6662 19.5088 7.06385 23.0644 7.06385 27.5088C7.06385 31.9533 10.6194 35.5088 15.0638 35.5088H18.8533L26.9001 42.5264H15.0638C6.78314 42.5264 0.0463017 35.8363 -0.000481916 27.6024C-0.0472655 21.427 3.69542 15.9065 9.40303 13.6141L0.0463017 5.47375H10.7598L26.9001 19.5088Z" fill="#4971FA"/>
<path d="M26.9001 19.5088H15.0638C10.6662 19.5088 7.06385 23.0644 7.06385 27.5088C7.06385 31.9533 10.6194 35.5088 15.0638 35.5088H18.8533L26.9001 42.5264H15.0638C6.78314 42.5264 0.0463017 35.8363 -0.000481916 27.6024C-0.0472655 21.427 3.69542 15.9065 9.40303 13.6141L0.0463017 5.47375H10.7598L26.9001 19.5088Z" fill="url(#paint1_linear)"/>
</g>
<defs>
<linearGradient id="paint0_linear" x1="21.1223" y1="23.9557" x2="47.9432" y2="23.9557" gradientUnits="userSpaceOnUse">
<stop stop-color="#62D0C9"/>
<stop offset="1" stop-color="#7DE2AC"/>
</linearGradient>
<linearGradient id="paint1_linear" x1="0.0833543" y1="23.977" x2="26.9045" y2="23.977" gradientUnits="userSpaceOnUse">
<stop stop-color="#3268FB"/>
<stop offset="1" stop-color="#4795FA"/>
</linearGradient>
<clipPath id="clip0">
<rect width="48" height="48" fill="white"/>
</clipPath>
</defs>
</svg>
