<svg width="48" height="48" viewBox="0 0 48 48" fill="none" xmlns="http://www.w3.org/2000/svg">
<path d="M24 48C37.2548 48 48 37.2548 48 24C48 10.7452 37.2548 0 24 0C10.7452 0 0 10.7452 0 24C0 37.2548 10.7452 48 24 48Z" fill="#666666"/>
<path fill-rule="evenodd" clip-rule="evenodd" d="M37.623 31.725C37.3143 32.2401 36.8163 32.614 36.2355 32.7668C35.6547 32.9196 35.0372 32.8391 34.515 32.5425L27.3465 28.4775V25.8975L29.6235 24.6075L36.7905 28.671C37.8795 29.2875 38.2515 30.6555 37.623 31.7235V31.725ZM26.2755 37.2135C26.2755 38.448 25.257 39.4485 24 39.4485C22.743 39.4485 21.7245 38.448 21.7245 37.2135V29.085L24 27.795L26.2755 29.085V37.2135ZM13.485 32.5425C12.9626 32.8389 12.345 32.9192 11.7641 32.7662C11.1833 32.6131 10.6855 32.2389 10.377 31.7235C10.2281 31.4692 10.1315 31.1877 10.0927 30.8956C10.054 30.6035 10.074 30.3066 10.1516 30.0223C10.2291 29.7379 10.3626 29.472 10.5443 29.24C10.7259 29.0079 10.9521 28.8145 11.2095 28.671L18.3765 24.606L20.6535 25.8975V28.4775L13.485 32.5425ZM11.2095 19.329C10.9521 19.1855 10.7259 18.9921 10.5443 18.76C10.3626 18.528 10.2291 18.2621 10.1516 17.9777C10.074 17.6934 10.054 17.3965 10.0927 17.1044C10.1315 16.8123 10.2281 16.5308 10.377 16.2765C10.6855 15.7611 11.1833 15.3869 11.7641 15.2338C12.345 15.0808 12.9626 15.1611 13.485 15.4575L20.6535 19.5225V22.1025L18.3765 23.3925L11.2095 19.329ZM21.7245 10.7865C21.7245 9.552 22.7445 8.5515 24 8.5515C25.257 8.5515 26.2755 9.552 26.2755 10.7865V18.9135L24 20.205L21.7245 18.915V10.7865ZM27.3465 23.3175L28.5525 24L27.3465 24.6825V23.3175ZM25.071 20.8125L26.2755 20.1285V21.495L25.071 20.8125ZM21.7245 21.495V20.13L22.929 20.8125L21.7245 21.495ZM20.6535 24.6825L19.4475 24L20.6535 23.3175V24.6825ZM22.929 27.1875L21.7245 27.8715V26.505L22.929 27.1875ZM26.2755 26.505V27.87L25.071 27.1875L26.2755 26.505ZM24 26.58L21.7245 25.29V22.71L24 21.42L26.2755 22.71V25.29L24 26.58ZM34.515 15.4575C35.0374 15.1611 35.655 15.0808 36.2358 15.2338C36.8167 15.3869 37.3145 15.7611 37.623 16.2765C38.253 17.3445 37.878 18.7125 36.7905 19.329L29.6235 23.394L27.3465 22.1025V19.5225L34.515 15.4575ZM37.326 27.7605L30.6945 24L37.326 20.2395C37.7048 20.0287 38.0376 19.7443 38.305 19.4031C38.5724 19.0619 38.7689 18.6707 38.8831 18.2525C38.9972 17.8343 39.0267 17.3975 38.9698 16.9678C38.9128 16.5381 38.7706 16.124 38.5515 15.75C37.6275 14.178 35.58 13.6395 33.9795 14.547L27.3465 18.3075V10.785C27.3465 8.9715 25.848 7.5 24 7.5C22.152 7.5 20.6535 8.9715 20.6535 10.7865V18.3075L14.0205 14.547C12.42 13.6395 10.3725 14.178 9.44999 15.75C9.23087 16.124 9.08866 16.5381 9.03172 16.9678C8.97477 17.3975 9.00424 17.8343 9.1184 18.2525C9.23255 18.6707 9.42909 19.0619 9.69648 19.4031C9.96387 19.7443 10.2967 20.0287 10.6755 20.2395L17.3055 24L10.6755 27.7605C10.2966 27.9712 9.9636 28.2555 9.69606 28.5966C9.42852 28.9378 9.23183 29.3289 9.11753 29.7471C9.00324 30.1653 8.97364 30.6022 9.03047 31.032C9.0873 31.4618 9.22942 31.8759 9.44849 32.25C10.3725 33.822 12.42 34.3605 14.0205 33.453L20.6535 29.6925V37.2135C20.6535 39.0285 22.152 40.5 24 40.5C25.848 40.5 27.3465 39.0285 27.3465 37.2135V29.6925L33.9795 33.453C35.58 34.3605 37.6275 33.822 38.5515 32.25C38.7706 31.876 38.9128 31.4619 38.9698 31.0322C39.0267 30.6025 38.9972 30.1657 38.8831 29.7475C38.7689 29.3293 38.5724 28.9381 38.305 28.5969C38.0376 28.2557 37.7048 27.9713 37.326 27.7605Z" fill="white"/>
</svg>
