<svg width="48" height="48" viewBox="0 0 48 48" fill="none" xmlns="http://www.w3.org/2000/svg">
<path d="M24 45.9591C36.1277 45.9591 45.9591 36.1276 45.9591 23.9999C45.9591 11.8722 36.1277 2.04077 24 2.04077C11.8723 2.04077 2.04083 11.8722 2.04083 23.9999C2.04083 36.1276 11.8723 45.9591 24 45.9591Z" fill="#002352"/>
<path fill-rule="evenodd" clip-rule="evenodd" d="M24 4.0817C12.9994 4.0817 4.0817 12.9994 4.0817 24C4.0817 35.0006 12.9994 43.9183 24 43.9183C35.0006 43.9183 43.9183 35.0006 43.9183 24C43.9183 12.9994 35.0006 4.0817 24 4.0817ZM0 24C0 10.7452 10.7452 0 24 0C37.2548 0 48 10.7452 48 24C48 37.2548 37.2548 48 24 48C10.7452 48 0 37.2548 0 24Z" fill="#0066CC"/>
<path d="M11.6949 18.2976H27.2013C27.2013 18.2976 32.5535 18.2476 28.852 25.1504C28.852 25.1504 26.1509 30.5527 19.4481 30.4527L23.0596 21.2288C23.1032 21.1194 23.1197 21.0012 23.1077 20.884C23.0957 20.7669 23.0555 20.6545 22.9907 20.5562C22.9258 20.4579 22.8382 20.3768 22.7352 20.3197C22.6322 20.2627 22.517 20.2313 22.3993 20.2284L17.6473 20.1484L11.6448 34.7544C11.6448 34.7544 13.6457 34.9545 14.7461 34.8545L14.1459 36.3551H16.9771C17.0556 36.3557 17.1323 36.332 17.1968 36.2872C17.2613 36.2424 17.3103 36.1788 17.3372 36.105L17.8474 34.7544L19.0479 34.6544L18.3476 36.3551H21.1088C21.2104 36.3558 21.3098 36.3256 21.3938 36.2684C21.4778 36.2112 21.5424 36.1298 21.579 36.035L22.3493 34.0542C22.3493 34.0542 30.7528 32.6536 34.5544 25.8507C34.5544 25.8507 39.6565 17.9474 33.654 15.1463C32.4842 14.6099 31.2332 14.2718 29.9525 14.1459L30.6527 12.4151C30.674 12.3638 30.6823 12.308 30.6771 12.2527C30.6718 12.1974 30.653 12.1442 30.6224 12.0978C30.5918 12.0514 30.5503 12.0132 30.5015 11.9866C30.4527 11.9599 30.3982 11.9456 30.3426 11.9449H27.7515L26.9512 14.0458H25.8507L26.471 12.4151C26.4901 12.3629 26.4965 12.3069 26.4896 12.2518C26.4827 12.1966 26.4628 12.1439 26.4316 12.0979C26.4003 12.052 26.3585 12.0141 26.3097 11.9875C26.2609 11.9609 26.2064 11.9463 26.1509 11.9449H23.5498L22.7495 14.0458H14.6661C14.4488 14.0451 14.2355 14.1033 14.0487 14.2143C13.862 14.3253 13.7088 14.4849 13.6057 14.6761L11.6949 18.2976Z" fill="white"/>
</svg>
