<svg width="48" height="48" viewBox="0 0 48 48" fill="none" xmlns="http://www.w3.org/2000/svg">
<path d="M46.8756 19.4795C46.5482 17.903 45.97 16.3894 45.1629 14.9962C43.5006 12.2257 39.8737 8.19586 35.3401 5.02235C35.3401 5.02235 31.9148 2.80593 30.3028 2.05033C24.4092 -0.669823 17.8103 -1.22393 12.1685 3.76302C2.69832 12.1753 -2.03676 23.9123 2.69832 35.5989C2.79907 35.8507 5.41847 43.0037 21.1349 47.7892C28.036 47.9907 32.0659 47.5877 36.4987 45.0187C42.2916 41.694 45.6666 35.6492 46.8756 29.5037C47.2282 27.6399 47.2786 21.3433 46.8756 19.4795Z" fill="#04FFCC"/>
<path d="M28.5448 2.90666V14.1399L15.5485 13.3339L10.209 20.0839L9.55411 32.8283L13.9869 37.5634L20.6362 40.888L29.3508 41.8451L38.8209 39.4272V16.0037L37.0075 6.28166C37.0075 6.28166 31.9198 2.30218 28.5952 1.34509" fill="#7DF8FB"/>
<path d="M43.7525 30.763C41.939 30.6623 42.9465 27.791 42.1405 24.5168C41.1834 20.8899 42.5939 18.3712 44.4577 18.472C45.3326 18.6097 46.1617 18.9552 46.8756 19.4795C46.5483 17.903 45.97 16.3894 45.1629 14.9962C43.5006 12.2257 39.8737 8.19586 35.3401 5.02235V35.3974C35.3409 36.0949 35.1038 36.7719 34.6681 37.3166C34.2324 37.8614 33.624 38.2414 32.9434 38.3939C32.2627 38.5465 31.5504 38.4625 30.9238 38.1559C30.2973 37.8492 29.794 37.3382 29.4969 36.7071C27.6991 37.8213 25.638 38.4386 23.5237 38.4959C21.4095 38.5532 19.3179 38.0486 17.4624 37.0335C15.6069 36.0184 14.054 34.5291 12.9621 32.7178C11.8703 30.9064 11.2785 28.8377 11.2474 26.7229C11.2162 24.6082 11.7467 22.523 12.7847 20.6802C13.8227 18.8374 15.331 17.303 17.1558 16.2337C18.9805 15.1643 21.0564 14.5982 23.1714 14.5932C25.2864 14.5882 27.3648 15.1445 29.1946 16.2052V4.41787C29.1859 3.96476 29.2813 3.51569 29.4734 3.10523C29.6655 2.69477 29.9493 2.33388 30.3028 2.05033C24.4092 -0.669823 17.8103 -1.22393 12.1685 3.76302C2.69832 12.1753 -2.03676 23.9123 2.69832 35.5989C2.79907 35.8507 2.89982 36.1026 3.00056 36.3041C3.13699 36.0202 3.32486 35.764 3.55467 35.5485C6.02295 33.0298 8.74311 38.1679 14.536 41.1399C18.2133 43.0037 20.3289 45.472 21.1349 47.7892C26.5248 48.444 32.0659 47.5877 36.4987 45.0187C42.2917 41.694 45.6667 35.6492 46.8756 29.5037C46.0064 30.2638 44.9058 30.7076 43.7525 30.763ZM24.0112 6.88615C25.3713 6.83578 26.6306 8.44772 26.681 9.20332C26.7314 9.95892 25.5224 9.65668 24.2127 10.11C22.7519 10.6138 21.6941 10.1604 21.6437 9.40481C21.5933 8.64922 22.5957 6.93653 24.0112 6.88615Z" fill="#2C398F"/>
<path d="M21.0342 30.9645C23.9558 32.6268 27.4819 31.972 28.1368 28.2444C28.4894 26.0783 28.2879 22.7033 26.3737 21.6455C20.0267 18.0186 14.6871 27.3377 21.0342 30.9645Z" fill="#2C398F"/>
</svg>
