<svg width="48" height="48" viewBox="0 0 48 48" fill="none" xmlns="http://www.w3.org/2000/svg">
<circle cx="24" cy="24" r="24" fill="#FFF553"/>
<path d="M23.2744 30.5858C23.0045 29.9401 22.5483 29.3896 21.964 29.0045C21.3796 28.6193 20.6937 28.4172 19.9939 28.4239C19.5125 28.4205 19.0353 28.5141 18.5909 28.6993C18.1669 28.8728 17.7818 29.1289 17.4579 29.4528C17.134 29.7767 16.8778 30.1619 16.7043 30.5858C16.3371 31.4785 16.3371 32.4801 16.7043 33.3728C16.878 33.7966 17.1342 34.1815 17.4581 34.5053C17.782 34.829 18.1671 35.0851 18.5909 35.2586C19.4887 35.6269 20.4954 35.6269 21.3932 35.2586C21.8156 35.0839 22.1993 34.8273 22.5222 34.5037C22.8451 34.18 23.1007 33.7957 23.2744 33.3728C23.6416 32.4801 23.6416 31.4785 23.2744 30.5858ZM21.6586 32.7914C21.5751 33.0304 21.4466 33.2511 21.28 33.4417C21.1188 33.6222 20.9225 33.768 20.7031 33.8701C20.4777 33.974 20.2325 34.0277 19.9844 34.0277C19.7362 34.0277 19.491 33.974 19.2656 33.8701C19.0463 33.7682 18.8503 33.6224 18.6896 33.4417C18.5213 33.2516 18.3915 33.0308 18.3071 32.7914C18.1235 32.2653 18.1235 31.6926 18.3071 31.1665C18.3916 30.9272 18.5215 30.7064 18.6896 30.5162C18.8505 30.3357 19.0465 30.19 19.2656 30.0878C19.491 29.984 19.7362 29.9302 19.9844 29.9302C20.2325 29.9302 20.4777 29.984 20.7031 30.0878C20.9224 30.1902 21.1186 30.3359 21.28 30.5162C21.4464 30.7069 21.5749 30.9276 21.6586 31.1665C21.8422 31.6926 21.8422 32.2653 21.6586 32.7914Z" fill="#040000"/>
<path d="M15.4894 30.5912C15.311 30.1664 15.0511 29.7807 14.7244 29.4559C14.3964 29.1331 14.0101 28.8756 13.586 28.697C13.143 28.5093 12.6664 28.4141 12.1853 28.417H9.28123V35.5455H12.1845C13.134 35.5502 14.0472 35.1805 14.7259 34.5166C15.0519 34.1928 15.3117 33.8088 15.491 33.3858C15.6785 32.9481 15.7741 32.4766 15.7717 32.0004C15.775 31.5159 15.6794 31.0359 15.491 30.5897L15.4894 30.5912ZM13.8209 32.8082C13.7367 33.047 13.6088 33.2681 13.4437 33.46C13.2871 33.6417 13.0946 33.7891 12.8784 33.8931C12.6628 33.9982 12.4259 34.0524 12.186 34.0514H11.0331V29.9141H12.1845C12.4249 29.9133 12.6621 29.9691 12.8769 30.0771C13.0934 30.1849 13.2857 30.3356 13.4422 30.52C13.6073 30.7161 13.7351 30.9406 13.8194 31.1826C13.9126 31.4456 13.9592 31.7229 13.9571 32.0019C13.959 32.2762 13.9124 32.5487 13.8194 32.8067" fill="#040000"/>
<path d="M38.4434 30.5858C38.1735 29.9403 37.7174 29.3898 37.1332 29.0047C36.5491 28.6196 35.8633 28.4174 35.1637 28.4239C34.682 28.4204 34.2045 28.5141 33.7599 28.6993C33.3361 28.8729 32.9512 29.1292 32.6274 29.4531C32.3036 29.777 32.0476 30.162 31.8741 30.5858C31.5058 31.4783 31.5058 32.4803 31.8741 33.3728C32.0477 33.7965 32.3039 34.1813 32.6276 34.5051C32.9514 34.8288 33.3362 35.085 33.7599 35.2586C34.6577 35.6269 35.6643 35.6269 36.5622 35.2586C36.9846 35.0839 37.3683 34.8273 37.6912 34.5037C38.014 34.18 38.2697 33.7957 38.4434 33.3728C38.8106 32.4801 38.8106 31.4785 38.4434 30.5858ZM36.8276 32.7914C36.7441 33.0304 36.6155 33.2511 36.4489 33.4417C36.2881 33.6222 36.092 33.768 35.8729 33.8701C35.6473 33.9739 35.402 34.0277 35.1537 34.0277C34.9055 34.0277 34.6601 33.9739 34.4346 33.8701C34.2153 33.7682 34.0192 33.6224 33.8585 33.4417C33.6906 33.2514 33.5607 33.0306 33.476 32.7914C33.2924 32.2653 33.2924 31.6926 33.476 31.1665C33.5609 30.9273 33.6907 30.7066 33.8585 30.5162C34.0194 30.3357 34.2155 30.19 34.4346 30.0878C34.6601 29.984 34.9055 29.9302 35.1537 29.9302C35.402 29.9302 35.6473 29.984 35.8729 30.0878C36.0919 30.1902 36.2879 30.3359 36.4489 30.5162C36.6154 30.7069 36.7439 30.9276 36.8276 31.1665C37.0122 31.6924 37.0122 32.2655 36.8276 32.7914Z" fill="#040000"/>
<path d="M30.6592 30.5912C30.4809 30.1663 30.221 29.7806 29.8941 29.4559C29.5655 29.1329 29.1784 28.8753 28.7535 28.697C28.3117 28.5098 27.8364 28.4146 27.3565 28.417H24.4494V35.5455H27.3565C28.3061 35.5502 29.2192 35.1805 29.898 34.5165C30.2241 34.193 30.484 33.8089 30.663 33.3858C30.8503 32.9481 30.9456 32.4765 30.943 32.0004C30.9465 31.516 30.8512 31.036 30.663 30.5897L30.6592 30.5912ZM28.9922 32.8082C28.908 33.047 28.7801 33.2681 28.615 33.46C28.4583 33.6417 28.2659 33.7891 28.0497 33.8931C27.8353 33.9977 27.5997 34.0519 27.3611 34.0514H26.2136V29.9141H27.3611C27.6002 29.9139 27.836 29.9697 28.0497 30.0771C28.2662 30.1849 28.4585 30.3356 28.615 30.52C28.7801 30.716 28.9079 30.9406 28.9922 31.1826C29.0854 31.4456 29.132 31.7229 29.1299 32.0019C29.1318 32.2762 29.0852 32.5487 28.9922 32.8067" fill="#040000"/>
<path d="M27.0505 12.1792C27.1675 11.9953 27.2676 11.8013 27.3497 11.5994C27.4883 11.2632 27.572 10.907 27.5975 10.5444C27.674 9.8482 27.5096 9.28285 27.1125 9.11454C26.7155 8.94623 26.2121 9.20787 25.7745 9.73115C25.7745 9.69673 25.7745 9.6623 25.7745 9.62711C25.7745 8.17355 25.1135 7 24.2987 7C23.484 7 22.8222 8.17585 22.8222 9.62711C22.8222 9.72962 22.8222 9.83137 22.8322 9.93312C22.3364 9.2553 21.6846 8.90722 21.2187 9.13137C20.6365 9.41137 20.5662 10.4786 21.0619 11.5152C21.1729 11.7292 21.2965 11.9364 21.4322 12.1356C15.11 13.1378 11.5113 18.2497 11.0614 26.6391H14.5974C14.97 19.7324 18.193 15.8315 24.0073 15.9508C29.3456 16.061 33.4324 19.5564 33.3773 26.6391H36.9133C36.9776 18.2842 32.8586 13.4806 27.0482 12.18" fill="#040000"/>
<path d="M21.4536 20.6932C21.2663 20.6932 21.0867 20.7676 20.9543 20.9001C20.8219 21.0325 20.7475 21.2121 20.7475 21.3994V23.1352C20.7444 23.2299 20.7603 23.3243 20.7944 23.4128C20.8285 23.5012 20.8801 23.5819 20.946 23.65C21.0119 23.7181 21.0908 23.7723 21.1781 23.8093C21.2654 23.8463 21.3592 23.8653 21.454 23.8653C21.5488 23.8653 21.6426 23.8463 21.7299 23.8093C21.8171 23.7723 21.8961 23.7181 21.962 23.65C22.0279 23.5819 22.0794 23.5012 22.1135 23.4128C22.1476 23.3243 22.1636 23.2299 22.1605 23.1352V21.3994C22.1605 21.3066 22.1422 21.2147 22.1067 21.129C22.0711 21.0432 22.0191 20.9654 21.9534 20.8998C21.8878 20.8342 21.8098 20.7822 21.7241 20.7468C21.6383 20.7113 21.5464 20.6931 21.4536 20.6932Z" fill="#040000"/>
<path d="M26.932 20.6932C26.7447 20.6932 26.5651 20.7676 26.4327 20.9001C26.3002 21.0325 26.2258 21.2121 26.2258 21.3994V23.1352C26.2227 23.2299 26.2387 23.3243 26.2728 23.4128C26.3069 23.5012 26.3584 23.5819 26.4244 23.65C26.4903 23.7181 26.5692 23.7723 26.6565 23.8093C26.7437 23.8463 26.8376 23.8653 26.9324 23.8653C27.0271 23.8653 27.121 23.8463 27.2082 23.8093C27.2955 23.7723 27.3744 23.7181 27.4404 23.65C27.5063 23.5819 27.5578 23.5012 27.5919 23.4128C27.626 23.3243 27.642 23.2299 27.6389 23.1352V21.3994C27.6389 21.3066 27.6206 21.2147 27.585 21.129C27.5495 21.0432 27.4974 20.9654 27.4318 20.8998C27.3661 20.8342 27.2882 20.7822 27.2024 20.7468C27.1167 20.7113 27.0248 20.6931 26.932 20.6932Z" fill="#040000"/>
</svg>
