<svg width="48" height="48" viewBox="0 0 48 48" fill="none" xmlns="http://www.w3.org/2000/svg">
<path d="M24.1638 2C14.9734 2.03692 7.53215 9.47818 7.49523 18.6686C7.49523 20.5091 7.7923 22.3373 8.37418 24.0829C8.80841 25.2713 10.0969 25.9112 11.3064 25.5438C12.4754 25.0955 13.096 23.8175 12.7233 22.6221C12.2293 21.2615 12.0096 19.8182 12.0746 18.3732C12.275 11.7353 17.8177 6.51608 24.4556 6.71649C31.0935 6.91689 36.3127 12.4596 36.1123 19.0975C35.9242 25.3117 31.0302 30.3587 24.823 30.7366C24.823 30.7366 22.4832 30.879 21.3195 31.0214C20.8905 31.0829 20.4651 31.1673 20.045 31.2746C19.9852 31.3361 19.8885 31.3361 19.827 31.2763L19.8252 31.2746C19.783 31.22 19.783 31.1427 19.8252 31.0882L20.1874 29.1123L22.3848 19.2293C22.6485 17.9952 21.8627 16.7806 20.6286 16.5169C19.3945 16.2532 18.1798 17.039 17.9162 18.273C17.9162 18.273 12.6899 42.4637 12.6899 42.6834C12.391 43.8593 13.1012 45.0549 14.2773 45.3536C14.2896 45.3571 14.3036 45.3609 14.3159 45.3626H14.4372C15.6115 45.6665 16.8104 44.96 17.1128 43.7858C17.1181 43.7662 17.1233 43.7469 17.1269 43.726C17.1233 43.6888 17.1233 43.6521 17.1269 43.617C17.1919 43.332 17.8511 40.1134 17.8511 40.1134C18.3503 37.6838 20.3087 35.8223 22.7592 35.4461C23.2637 35.3687 25.3838 35.2263 25.3838 35.2263C34.539 34.314 41.2207 26.152 40.3066 16.9968C39.4733 8.64667 32.556 2.21798 24.1638 2Z" fill="#1E1E1E"/>
<path d="M25.1744 40.4331C23.6714 40.1203 22.2018 41.0852 21.8889 42.5868C21.8854 42.6009 21.8836 42.6146 21.8801 42.6287C21.5549 44.1213 22.5006 45.5963 23.9949 45.9215C23.9966 45.9215 23.9984 45.9215 24.0002 45.9232H24.0775C25.5401 46.2766 27.0114 45.3763 27.363 43.9157C27.3665 43.9051 27.3683 43.8927 27.3718 43.8824V43.7294C27.6302 42.221 26.6669 40.7741 25.1744 40.4331Z" fill="#E6007A"/>
</svg>
