<svg width="48" height="48" viewBox="0 0 48 48" fill="none" xmlns="http://www.w3.org/2000/svg">
<path d="M42.5713 27.619H36.7644C37.1242 25.2475 37.1242 22.8334 36.7644 20.4581H42.5713C43.1865 20.4581 43.6855 19.959 43.6855 19.3438C43.6855 18.7286 43.1865 18.2296 42.5713 18.2296H36.3156C35.275 14.0901 33.1316 10.3066 30.1063 7.29281C25.077 2.25985 18.1212 -0.223824 11.0298 0.472495C10.937 0.484175 10.8673 0.569135 10.879 0.662095C10.8906 0.743375 10.9524 0.805295 11.0298 0.812975C16.3996 1.34689 21.4172 3.72225 25.2356 7.53681C28.2415 10.5427 30.3268 14.2219 31.3481 18.2337H14.7282C14.113 18.2337 13.614 18.7328 13.614 19.348C13.614 19.9632 14.113 20.4622 14.7282 20.4622H31.8007C31.9825 21.6461 32.0716 22.8453 32.0716 24.0408C32.0716 25.2401 31.9826 26.4355 31.8007 27.6193H14.7282C14.113 27.6193 13.614 28.1184 13.614 28.7336C13.614 29.3488 14.113 29.8478 14.7282 29.8478H31.3481C30.3268 33.8596 28.2415 37.5387 25.2356 40.5448C21.4172 44.3593 16.3996 46.7347 11.0298 47.2686C10.937 47.2763 10.8673 47.3614 10.8751 47.4543C10.8828 47.5356 10.9486 47.6014 11.0298 47.6091C18.125 48.3054 25.077 45.8217 30.1063 40.7886C33.1278 37.771 35.275 33.9913 36.3156 29.848H42.5713C43.1865 29.848 43.6855 29.3489 43.6855 28.7337C43.6854 28.1182 43.1863 27.619 42.5713 27.619Z" fill="#3B218C"/>
</svg>
