<svg width="48" height="48" viewBox="0 0 48 48" fill="none" xmlns="http://www.w3.org/2000/svg">
<g clip-path="url(#clip0)">
<path fill-rule="evenodd" clip-rule="evenodd" d="M38.3625 9.52495C38.175 9.33745 38.0625 9.14995 38.0625 8.88745C38.0625 8.62495 38.175 8.43745 38.3625 8.24995C38.7375 7.91245 39.3375 7.91245 39.75 8.24995C39.9375 8.43745 40.05 8.62495 40.05 8.88745C40.05 9.14995 39.9375 9.33745 39.75 9.52495C39.5625 9.67495 39.3 9.78745 39.075 9.78745C38.8125 9.82495 38.55 9.74995 38.3625 9.52495Z" fill="#0D022B"/>
<path fill-rule="evenodd" clip-rule="evenodd" d="M35.9625 12.1125C35.8125 11.925 35.7 11.7375 35.7 11.475C35.7 11.2125 35.8125 11.025 35.9625 10.8375C36.3 10.5 36.9 10.5 37.2375 10.8375C37.3875 11.025 37.5 11.2125 37.5 11.475C37.5 11.7375 37.3875 11.925 37.2375 12.1125C37.05 12.2625 36.8625 12.375 36.6 12.375C36.3375 12.375 36.15 12.2625 35.9625 12.1125Z" fill="#0D022B"/>
<path fill-rule="evenodd" clip-rule="evenodd" d="M33.3375 14.5875C33.1875 14.4375 33.075 14.2125 33.075 13.95C33.075 13.6875 33.1875 13.5 33.3375 13.3125C33.675 12.975 34.275 12.975 34.6125 13.3125C34.7625 13.4625 34.875 13.6875 34.875 13.95C34.875 14.2125 34.7625 14.4 34.6125 14.5875C34.425 14.775 34.2375 14.85 33.975 14.85C33.7125 14.85 33.4875 14.7375 33.3375 14.5875Z" fill="#0D022B"/>
<path fill-rule="evenodd" clip-rule="evenodd" d="M30.825 17.1C30.6375 16.95 30.525 16.725 30.525 16.4625C30.525 16.2 30.6375 16.0125 30.825 15.825C31.2 15.4875 31.8 15.4875 32.2125 15.825C32.4 15.975 32.5125 16.2 32.5125 16.4625C32.5125 16.725 32.4 16.95 32.2125 17.1C32.025 17.2875 31.7625 17.3625 31.5375 17.3625C31.275 17.3625 31.05 17.325 30.825 17.1Z" fill="#0D022B"/>
<path fill-rule="evenodd" clip-rule="evenodd" d="M28.425 19.6125C28.2375 19.4625 28.1625 19.2375 28.1625 18.975C28.1625 18.7125 28.275 18.525 28.425 18.3375C28.7625 18 29.3625 18 29.7 18.3375C29.8875 18.4875 29.9625 18.7125 29.9625 18.975C29.9625 19.2375 29.85 19.4625 29.7 19.6125C29.55 19.8 29.325 19.875 29.0625 19.875C28.8375 19.9125 28.575 19.8375 28.425 19.6125Z" fill="#0D022B"/>
<path fill-rule="evenodd" clip-rule="evenodd" d="M25.5375 21.4875C25.5375 21.225 25.65 21.0375 25.8 20.85C26.1375 20.5125 26.7375 20.5125 27.075 20.85C27.2625 21.0375 27.3375 21.225 27.3375 21.4875C27.3375 21.75 27.225 21.9375 27.075 22.125C26.925 22.2751 26.7 22.3876 26.4375 22.3876C26.175 22.3876 25.9875 22.2751 25.8 22.125C25.6125 21.975 25.5375 21.75 25.5375 21.4875Z" fill="#0D022B"/>
<path fill-rule="evenodd" clip-rule="evenodd" d="M20.85 27.0375C20.7 26.8875 20.5875 26.6625 20.5875 26.4C20.5875 26.1375 20.7 25.95 20.85 25.7625C21.1875 25.425 21.7875 25.425 22.125 25.7625C22.3125 25.95 22.3875 26.1375 22.3875 26.4C22.3875 26.6625 22.275 26.85 22.125 27.0375C21.975 27.225 21.75 27.3 21.4875 27.3C21.2625 27.3375 21.0375 27.2625 20.85 27.0375Z" fill="#0D022B"/>
<path fill-rule="evenodd" clip-rule="evenodd" d="M18.2625 29.55C18.075 29.4 17.9625 29.175 17.9625 28.9125C17.9625 28.65 18.075 28.4625 18.2625 28.275C18.6375 27.9375 19.2375 27.9375 19.65 28.275C19.8375 28.4625 19.95 28.65 19.95 28.9125C19.95 29.175 19.8375 29.3625 19.65 29.55C19.4625 29.7375 19.2 29.8125 18.975 29.8125C18.675 29.85 18.45 29.7375 18.2625 29.55Z" fill="#0D022B"/>
<path fill-rule="evenodd" clip-rule="evenodd" d="M15.825 32.1C15.675 31.95 15.5625 31.725 15.5625 31.4625C15.5625 31.2 15.675 30.975 15.825 30.825C16.1625 30.4875 16.7625 30.4875 17.1 30.825C17.25 30.975 17.3625 31.2 17.3625 31.4625C17.3625 31.725 17.25 31.9125 17.1 32.1C16.9125 32.2875 16.725 32.3625 16.4625 32.3625C16.2 32.3625 16.05 32.25 15.825 32.1Z" fill="#0D022B"/>
<path fill-rule="evenodd" clip-rule="evenodd" d="M13.3125 34.6125C13.125 34.4625 13.05 34.2375 13.05 33.975C13.05 33.7125 13.1625 33.525 13.3125 33.3375C13.65 33 14.25 33 14.5875 33.3375C14.7375 33.525 14.85 33.7125 14.85 33.975C14.85 34.2375 14.7375 34.4625 14.5875 34.6125C14.4 34.8 14.2125 34.875 13.95 34.875C13.725 34.875 13.4625 34.8 13.3125 34.6125Z" fill="#0D022B"/>
<path fill-rule="evenodd" clip-rule="evenodd" d="M10.725 37.125C10.5375 36.975 10.425 36.75 10.425 36.4875C10.425 36.225 10.5375 36.0375 10.725 35.85C11.1 35.5125 11.7 35.5125 12.0375 35.85C12.225 36.0375 12.3375 36.225 12.3375 36.4875C12.3375 36.75 12.225 36.975 12.0375 37.125C11.85 37.275 11.5875 37.3875 11.3625 37.3875C11.1 37.3875 10.875 37.3125 10.725 37.125Z" fill="#0D022B"/>
<path fill-rule="evenodd" clip-rule="evenodd" d="M8.24999 39.6375C8.06249 39.45 7.98749 39.2625 7.98749 39C7.98749 38.7375 8.09999 38.55 8.24999 38.3625C8.58749 38.025 9.18749 38.025 9.52499 38.3625C9.71249 38.55 9.78749 38.7375 9.78749 39C9.78749 39.2625 9.67499 39.45 9.52499 39.6375C9.37499 39.7875 9.14999 39.9 8.88749 39.9C8.69999 39.9375 8.47499 39.825 8.24999 39.6375Z" fill="#0D022B"/>
<path fill-rule="evenodd" clip-rule="evenodd" d="M9.52499 9.52495C9.67499 9.33745 9.78749 9.14995 9.78749 8.88745C9.78749 8.62495 9.67499 8.43745 9.52499 8.24995C9.18749 7.91245 8.58749 7.91245 8.24999 8.24995C8.06249 8.43745 7.98749 8.62495 7.98749 8.88745C7.98749 9.14995 8.09999 9.33745 8.24999 9.52495C8.39999 9.67495 8.62499 9.78745 8.88749 9.78745C9.14999 9.82495 9.37499 9.74995 9.52499 9.52495Z" fill="#0D022B"/>
<path fill-rule="evenodd" clip-rule="evenodd" d="M12.0375 12.1125C12.225 11.925 12.3375 11.7375 12.3375 11.475C12.3375 11.2125 12.225 11.025 12.0375 10.8375C11.6625 10.5 11.0625 10.5 10.65 10.8375C10.4625 11.025 10.35 11.2125 10.35 11.475C10.35 11.7375 10.4625 11.925 10.65 12.1125C10.8375 12.2625 11.1 12.375 11.325 12.375C11.5875 12.3375 11.85 12.2625 12.0375 12.1125Z" fill="#0D022B"/>
<path fill-rule="evenodd" clip-rule="evenodd" d="M14.5875 14.5875C14.7375 14.4375 14.85 14.2125 14.85 13.95C14.85 13.6875 14.7375 13.5 14.5875 13.3125C14.25 12.975 13.65 12.975 13.3125 13.3125C13.1625 13.4625 13.05 13.6875 13.05 13.95C13.05 14.2125 13.1625 14.4 13.3125 14.5875C13.5 14.775 13.6875 14.85 13.95 14.85C14.175 14.85 14.4 14.7375 14.5875 14.5875Z" fill="#0D022B"/>
<path fill-rule="evenodd" clip-rule="evenodd" d="M17.1 17.1C17.25 16.95 17.3625 16.725 17.3625 16.4625C17.3625 16.2 17.25 16.0125 17.1 15.825C16.7625 15.4875 16.1625 15.4875 15.825 15.825C15.675 15.975 15.5625 16.2 15.5625 16.4625C15.5625 16.725 15.675 16.95 15.825 17.1C16.0125 17.2875 16.2 17.3625 16.4625 17.3625C16.6875 17.3625 16.9125 17.325 17.1 17.1Z" fill="#0D022B"/>
<path fill-rule="evenodd" clip-rule="evenodd" d="M19.575 19.6125C19.7625 19.4625 19.875 19.2375 19.875 18.975C19.875 18.7125 19.7625 18.525 19.575 18.3375C19.2375 18 18.6 18 18.2625 18.3375C18.075 18.4875 17.9625 18.7125 17.9625 18.975C17.9625 19.2375 18.075 19.4625 18.2625 19.6125C18.45 19.8 18.7125 19.875 18.9375 19.875C19.1625 19.9125 19.425 19.8375 19.575 19.6125Z" fill="#0D022B"/>
<path fill-rule="evenodd" clip-rule="evenodd" d="M22.3875 21.4875C22.3875 21.225 22.275 21.0375 22.125 20.85C21.7875 20.5125 21.1875 20.5125 20.85 20.85C20.6625 21.0375 20.5875 21.225 20.5875 21.4875C20.5875 21.75 20.7 21.9375 20.85 22.125C21 22.2751 21.225 22.3876 21.4875 22.3876C21.75 22.3876 21.9375 22.2751 22.125 22.125C22.3125 21.975 22.3875 21.75 22.3875 21.4875Z" fill="#0D022B"/>
<path fill-rule="evenodd" clip-rule="evenodd" d="M24.6375 24.675C24.825 24.4875 24.9 24.3 24.9 24.0375C24.9 23.775 24.7875 23.5875 24.6375 23.4C24.3 23.0625 23.7 23.0625 23.3625 23.4C23.175 23.5875 23.1 23.775 23.1 24.0375C23.1 24.3 23.2125 24.4875 23.3625 24.675C23.5125 24.825 23.7375 24.9375 24 24.9375C24.2625 24.9375 24.4875 24.825 24.6375 24.675Z" fill="#0D022B"/>
<path fill-rule="evenodd" clip-rule="evenodd" d="M27.15 27.0375C27.3375 26.8875 27.45 26.6625 27.45 26.4C27.45 26.1375 27.3375 25.95 27.15 25.7625C26.775 25.425 26.175 25.425 25.8375 25.7625C25.65 25.95 25.5375 26.1375 25.5375 26.4C25.5375 26.6625 25.65 26.85 25.8375 27.0375C26.025 27.225 26.2875 27.3 26.5125 27.3C26.7 27.3375 26.9625 27.2625 27.15 27.0375Z" fill="#0D022B"/>
<path fill-rule="evenodd" clip-rule="evenodd" d="M29.7 29.55C29.85 29.4 29.9625 29.175 29.9625 28.9125C29.9625 28.65 29.85 28.4625 29.7 28.275C29.3625 27.9375 28.7625 27.9375 28.425 28.275C28.275 28.4625 28.1625 28.65 28.1625 28.9125C28.1625 29.175 28.275 29.3625 28.425 29.55C28.6125 29.7375 28.8 29.8125 29.0625 29.8125C29.25 29.85 29.5125 29.7375 29.7 29.55Z" fill="#0D022B"/>
<path fill-rule="evenodd" clip-rule="evenodd" d="M32.2125 32.1C32.3625 31.95 32.475 31.725 32.475 31.4625C32.475 31.2 32.3625 30.975 32.2125 30.825C31.875 30.4875 31.275 30.4875 30.9375 30.825C30.7875 30.975 30.675 31.2 30.675 31.4625C30.675 31.725 30.7875 31.9125 30.9375 32.1C31.125 32.2875 31.3125 32.3625 31.575 32.3625C31.8375 32.3625 32.025 32.25 32.2125 32.1Z" fill="#0D022B"/>
<path fill-rule="evenodd" clip-rule="evenodd" d="M34.575 34.6125C34.7625 34.4625 34.8375 34.2375 34.8375 33.975C34.8375 33.7125 34.725 33.525 34.575 33.3375C34.2375 33 33.6375 33 33.3 33.3375C33.15 33.525 33.0375 33.7125 33.0375 33.975C33.0375 34.2375 33.15 34.4625 33.3 34.6125C33.4875 34.8 33.675 34.875 33.9375 34.875C34.1625 34.875 34.425 34.8 34.575 34.6125Z" fill="#0D022B"/>
<path fill-rule="evenodd" clip-rule="evenodd" d="M37.2375 37.125C37.425 36.975 37.5 36.75 37.5 36.4875C37.5 36.225 37.3875 36.0375 37.2375 35.85C36.9 35.5125 36.3 35.5125 35.9625 35.85C35.775 36.0375 35.7 36.225 35.7 36.4875C35.7 36.75 35.8125 36.975 35.9625 37.125C36.1125 37.275 36.3375 37.3875 36.6 37.3875C36.8625 37.3875 37.0875 37.3125 37.2375 37.125Z" fill="#0D022B"/>
<path fill-rule="evenodd" clip-rule="evenodd" d="M39.75 39.6375C39.9375 39.45 40.05 39.2625 40.05 39C40.05 38.7375 39.9375 38.55 39.75 38.3625C39.375 38.025 38.775 38.025 38.4375 38.3625C38.25 38.55 38.1375 38.7375 38.1375 39C38.1375 39.2625 38.25 39.45 38.4375 39.6375C38.625 39.7875 38.8875 39.9 39.1125 39.9C39.3 39.9375 39.525 39.825 39.75 39.6375Z" fill="#0D022B"/>
<path fill-rule="evenodd" clip-rule="evenodd" d="M15.4875 10.2375C18.0375 8.55 20.85 7.7625 23.9625 7.725C27 7.725 29.8125 8.55 32.4375 10.2375L37.8375 4.8375C33.6 1.6125 29.025 0 23.9625 0C18.9 0 14.25 1.6125 10.125 4.8375L15.4875 10.2375Z" fill="#0D022B"/>
<path fill-rule="evenodd" clip-rule="evenodd" d="M10.0875 32.4C8.3625 29.775 7.5375 27 7.5375 24C7.5375 20.9625 8.3625 18.15 10.0875 15.6L4.725 10.2375C1.575 14.3625 0 18.9375 0 24.0375C0 29.0625 1.575 33.675 4.7625 37.875L10.0875 32.4Z" fill="#0D022B"/>
<path fill-rule="evenodd" clip-rule="evenodd" d="M32.4 37.7625C29.85 39.4875 27.0375 40.3875 24 40.425C20.8875 40.425 18.0375 39.6 15.4875 37.8L10.0875 43.1625C14.25 46.425 18.9 48.0375 24 48C29.0625 47.9625 33.6375 46.3125 37.7625 43.1625L32.4 37.7625Z" fill="#0D022B"/>
<path fill-rule="evenodd" clip-rule="evenodd" d="M37.6875 15.525C39.4125 18.15 40.3125 21 40.2375 24.075C40.2 27.075 39.3375 29.8125 37.6875 32.325L43.0875 37.6875C46.275 33.5625 47.925 28.9875 47.925 23.9625C47.9625 18.8625 46.35 14.2125 43.0875 10.05L37.6875 15.525Z" fill="#0D022B"/>
<path fill-rule="evenodd" clip-rule="evenodd" d="M43.3125 39.45C45.375 39.45 47.1 41.1375 47.1 43.2375C47.1 45.3 45.4125 47.025 43.3125 47.025C41.25 47.025 39.525 45.3375 39.525 43.2375C39.525 41.1375 41.2125 39.45 43.3125 39.45Z" fill="#0D022B"/>
<path fill-rule="evenodd" clip-rule="evenodd" d="M4.6875 39.45C6.75 39.45 8.4375 41.1375 8.4375 43.2375C8.4375 45.3 6.75 47.025 4.6875 47.025C2.625 47.025 0.9375 45.3375 0.9375 43.2375C0.9375 41.1375 2.625 39.45 4.6875 39.45Z" fill="#0D022B"/>
<path fill-rule="evenodd" clip-rule="evenodd" d="M43.3875 0.824951C45.45 0.824951 47.1375 2.51245 47.1375 4.61245C47.1375 6.71245 45.45 8.39995 43.3875 8.39995C41.325 8.39995 39.6375 6.71245 39.6375 4.61245C39.6375 2.51245 41.325 0.824951 43.3875 0.824951Z" fill="#0D022B"/>
<path fill-rule="evenodd" clip-rule="evenodd" d="M4.61251 0.824951C6.67501 0.824951 8.40001 2.51245 8.40001 4.57495C8.40001 6.63745 6.71251 8.32495 4.61251 8.32495C2.55001 8.32495 0.825012 6.63745 0.825012 4.57495C0.825012 2.51245 2.51251 0.824951 4.61251 0.824951Z" fill="#0D022B"/>
</g>
<defs>
<clipPath id="clip0">
<rect width="48" height="48" fill="white"/>
</clipPath>
</defs>
</svg>
