<svg width="48" height="48" viewBox="0 0 48 48" fill="none" xmlns="http://www.w3.org/2000/svg">
<path d="M24.0075 24.8986L35.761 18.1126L24.0075 11.2861V24.8986Z" fill="#2A3D58"/>
<path d="M24.0075 24.8986L12.2535 18.1126L24.0075 11.2861V24.8986Z" fill="#0F2631"/>
<path d="M35.761 4.5L24.0075 11.286L35.761 18.1125V4.5Z" fill="#0F2631"/>
<path d="M35.761 4.5L47.515 11.286L35.761 18.1125V4.5Z" fill="#2A3D58"/>
<path d="M12.2535 4.5L0.5 11.286L12.2535 18.1125V4.5Z" fill="#0F2631"/>
<path d="M12.2535 4.5L24.0075 11.286L12.2535 18.1125V4.5Z" fill="#2A3D58"/>
<path d="M24.0075 43.6154L35.761 36.8294L24.0075 30.0034V43.6154Z" fill="#2A3D58"/>
<path d="M24.0075 43.6154L12.2535 36.8294L24.0075 30.0034V43.6154Z" fill="#0F2631"/>
<path d="M35.761 23.2175L24.0075 30.0035L35.761 36.8295V23.2175Z" fill="#0F2631"/>
<path d="M35.761 23.2175L47.515 30.0035L35.761 36.8295V23.2175Z" fill="#2A3D58"/>
<path d="M12.2535 23.2175L0.5 30.0035L12.2535 36.8295V23.2175Z" fill="#0F2631"/>
<path d="M12.2535 23.2175L24.0075 30.0035L12.2535 36.8295V23.2175Z" fill="#2A3D58"/>
</svg>
