<svg width="48" height="48" viewBox="0 0 48 48" fill="none" xmlns="http://www.w3.org/2000/svg">
<g clip-path="url(#clip0)">
<path d="M37.9434 33.5694C43.4948 33.5694 47.9951 29.0691 47.9951 23.5177C47.9951 17.9663 43.4948 13.4659 37.9434 13.4659C32.392 13.4659 27.8918 17.9663 27.8918 23.5177C27.8918 29.0691 32.392 33.5694 37.9434 33.5694Z" fill="#2B5EBA"/>
<path d="M25.2415 9.69358C27.9183 9.69358 30.0883 7.5236 30.0883 4.84679C30.0883 2.16998 27.9183 0 25.2415 0C22.5647 0 20.3948 2.16998 20.3948 4.84679C20.3948 7.5236 22.5647 9.69358 25.2415 9.69358Z" fill="#2B5EBA"/>
<path d="M25.2415 47.0593C27.9183 47.0593 30.0883 44.8893 30.0883 42.2124C30.0883 39.5356 27.9183 37.3656 25.2415 37.3656C22.5647 37.3656 20.3948 39.5356 20.3948 42.2124C20.3948 44.8893 22.5647 47.0593 25.2415 47.0593Z" fill="#2B5EBA"/>
<path d="M23.0211 30.7759C23.3076 30.8714 23.618 30.9192 23.9284 30.9192C25.5997 30.9192 26.9606 29.5582 26.9606 27.8869C26.9606 26.2156 25.5997 24.8547 23.9284 24.8547C22.854 24.8547 21.9228 25.4039 21.3737 26.2395V26.2634C21.2782 26.3828 21.2066 26.526 21.1588 26.6693C17.8162 32.5666 11.1071 28.6271 11.1071 28.6271C10.0088 27.9824 8.74337 27.6004 7.35857 27.6004C3.32355 27.6004 0.0525558 30.8714 0.0525558 34.9064C0.0525558 38.9414 3.32355 42.2124 7.35857 42.2124C10.1759 42.2124 12.6351 40.6127 13.8289 38.2729V38.249C14.0438 37.8431 14.2109 37.4134 14.3542 36.9597C17.8401 28.9614 23.0211 30.7759 23.0211 30.7759ZM21.3021 20.0557C21.4453 20.3183 21.6363 20.5809 21.8512 20.7958C23.045 21.9896 24.9551 21.9896 26.125 20.7958C27.3188 19.602 27.3188 17.692 26.125 16.5221C25.361 15.758 24.3104 15.4954 23.3554 15.7103H23.3315C23.1883 15.7342 23.0211 15.7819 22.8779 15.8535C16.3359 17.6681 14.3781 10.1233 14.3781 10.1233C14.0677 8.8818 13.423 7.71189 12.468 6.75686C9.6029 3.89176 4.99486 3.89176 2.15363 6.73298C-0.687596 9.5742 -0.711472 14.2061 2.15363 17.0473C4.1592 19.0529 7.00043 19.6498 9.53127 18.838H9.55515C9.98491 18.6948 10.4147 18.5038 10.8444 18.2889C18.9384 15.0895 21.3021 20.0557 21.3021 20.0557Z" fill="#2B5EBA"/>
</g>
<defs>
<clipPath id="clip0">
<rect width="48" height="48" fill="white"/>
</clipPath>
</defs>
</svg>
