<svg width="48" height="48" viewBox="0 0 48 48" fill="none" xmlns="http://www.w3.org/2000/svg">
<g clip-path="url(#clip0)">
<path d="M24 48C37.2548 48 48 37.2548 48 24C48 10.7452 37.2548 0 24 0C10.7452 0 0 10.7452 0 24C0 37.2548 10.7452 48 24 48Z" fill="url(#paint0_radial)"/>
<path d="M24.9097 43.6203C34.6236 43.6203 42.4983 36.243 42.4983 27.1428C42.4983 18.0425 34.6236 10.6653 24.9097 10.6653C15.1957 10.6653 7.32104 18.0425 7.32104 27.1428C7.32104 36.243 15.1957 43.6203 24.9097 43.6203Z" fill="url(#paint1_linear)"/>
<path d="M24.1664 48.3265C34.6539 48.3265 43.1557 40.3618 43.1557 30.5368C43.1557 20.7119 34.6539 12.7472 24.1664 12.7472C13.6789 12.7472 5.17705 20.7119 5.17705 30.5368C5.17705 40.3618 13.6789 48.3265 24.1664 48.3265Z" fill="url(#paint2_radial)"/>
<path d="M18.8454 40.4529C18.7586 40.4437 16.7082 40.2184 15.6423 39.6091C15.4608 39.5055 11.1776 37.0339 9.46576 33.9526C8.02255 31.3546 5.57816 26.6618 5.42369 24.4204C5.28313 22.3829 5.39366 18.0201 6.11401 16.5795C6.16419 16.4792 6.22616 16.342 6.30465 16.1681C6.77451 15.1271 7.7523 12.9611 9.69368 11.0482C12.1 8.67713 15.1862 7.47201 18.8667 7.46637C18.8909 7.46607 21.5455 7.43332 24.5319 7.43332C26.2864 7.43332 27.8107 7.4444 29.0625 7.46647C33.0372 7.5362 36.2124 7.87234 37.7237 8.13906L37.9841 8.1845C39.0435 8.36799 39.4399 8.43671 39.5256 9.20804C39.599 9.86874 40.1889 14.6625 40.1949 14.7109L40.2108 14.8401L36.549 17.0633H40.4836L40.8716 24.4307L36.5954 27.5529H40.4563L39.1362 35.3962L31.7967 39.5578L18.8631 40.4548L18.8454 40.4529Z" fill="url(#paint3_linear)"/>
<path d="M24.5319 7.63483C26.042 7.63483 27.6453 7.64309 29.0589 7.66788C33.2994 7.74224 36.4239 8.11425 37.6887 8.33744C38.9534 8.56063 39.251 8.56063 39.3254 9.23019C39.3997 9.89976 39.9949 14.7353 39.9949 14.7353L35.8288 17.2648H40.2925L40.6645 24.3322L35.9777 27.7543H40.2181L38.9535 35.2681L31.7372 39.3597L18.8671 40.2525C18.8671 40.2525 16.784 40.0293 15.7425 39.4342C14.7011 38.839 11.1301 36.5329 9.64221 33.8546C8.15436 31.1765 5.77375 26.564 5.62493 24.4066C5.4761 22.2492 5.62493 18.0087 6.29449 16.6696C6.96406 15.3304 9.64211 7.68199 18.8671 7.66788C18.8669 7.66788 21.5123 7.63483 24.5319 7.63483ZM24.5319 7.23178C21.5443 7.23178 18.8883 7.26453 18.8619 7.26483C15.1312 7.27047 11.9975 8.49514 9.55223 10.9046C7.58404 12.8439 6.59587 15.0331 6.12098 16.0851C6.04652 16.2502 5.98213 16.3927 5.93387 16.4893C5.19719 17.9627 5.08081 22.377 5.22269 24.4343C5.37998 26.7145 7.83837 31.4378 9.28974 34.0503C11.0285 37.1802 15.3589 39.6792 15.5424 39.7841C16.6445 40.4138 18.7356 40.6438 18.824 40.6532L18.8594 40.6571L18.8949 40.6546L31.765 39.7619L31.8563 39.7555L31.9359 39.7104L39.1522 35.6188L39.319 35.5241L39.3509 35.335L40.6155 27.8212L40.6946 27.3512H40.218H37.213L40.902 24.6577L41.0783 24.529L41.0669 24.311L40.6948 17.2436L40.6748 16.8617H40.2924H37.2692L40.204 15.0798L40.4267 14.9446L40.3949 14.6861C40.3889 14.6377 39.7992 9.84514 39.7259 9.18566C39.6235 8.26389 39.0872 8.17098 38.0186 7.98588C37.9369 7.97168 37.8503 7.95676 37.7587 7.94054C36.2404 7.67262 33.0526 7.33486 29.066 7.26493C27.8131 7.24297 26.2876 7.23178 24.5319 7.23178Z" fill="#692CC2"/>
<path d="M5.84612 24.4232C5.84612 24.4232 6.04764 27.0431 7.12247 29.4615C8.1973 31.8799 10.822 35.7045 11.7577 36.7167C13.1503 38.2228 15.8559 39.988 17.5353 40.1895C19.2147 40.391 23.8047 40.0711 24.8439 40.0566C25.519 40.0471 30.9981 39.4941 31.7371 39.3597C32.4761 39.2254 38.777 35.6178 38.9534 35.2681C39.0977 34.982 39.1778 33.9352 39.1778 33.9352L34.0448 35.1168L18.5815 35.8475C18.0753 35.8678 17.3219 35.7846 16.7266 35.733C15.9773 35.668 15.2609 35.5269 14.3907 35.2521C13.458 34.9576 12.291 34.3544 11.338 33.6315C9.99751 32.6145 8.39015 31.0177 7.45861 28.7226C6.86693 27.2654 5.84612 24.4232 5.84612 24.4232Z" fill="white"/>
<path d="M13.2874 17.3391L15.1473 14.8097C15.1473 14.8097 15.0729 14.1401 18.5693 14.0658C22.0658 13.9914 39.1765 14.5865 39.1765 14.5865L35.6799 17.3391H13.2874Z" fill="url(#paint4_linear)"/>
<path d="M39.7717 24.4066L35.3824 27.7543L15.9656 28.3495C15.9656 28.3495 14.2545 26.936 13.9569 26.3781C13.6593 25.8201 13.2873 25.0761 13.2873 25.0761C13.2873 25.0761 33.5225 24.9273 35.4568 24.8529C37.3911 24.7785 39.7717 24.4066 39.7717 24.4066Z" fill="url(#paint5_linear)"/>
<path d="M37.5398 35.4913C37.5398 35.4913 31.8858 38.839 31.4394 38.9878C30.9931 39.1367 20.2228 39.8803 19.1644 39.8806C17.7991 39.8809 16.1142 39.4342 14.9983 38.6159C13.8824 37.7976 12.1713 36.161 11.7993 35.4914C11.4273 34.8218 10.3858 33.6315 10.3858 33.6315C10.3858 33.6315 12.9152 35.2682 14.7006 35.7889C16.4862 36.3097 20.2487 36.1918 21.9598 36.1174C23.671 36.0431 37.5398 35.4913 37.5398 35.4913Z" fill="url(#paint6_linear)"/>
<path d="M35.4399 5.96753C35.4399 5.96753 31.4715 4.77703 28.9204 4.83376C26.3693 4.89048 23.0813 5.1172 21.3805 5.68409C19.6797 6.25097 18.9995 6.59115 18.9995 6.59115C18.9995 6.59115 20.0766 7.89501 19.9633 9.14224C19.8499 10.3895 18.6027 11.8634 17.1288 12.2602C15.6548 12.657 14.1809 12.8838 13.047 12.657C11.9131 12.4303 9.30539 10.9563 9.30539 10.9563L7.32118 9.53894C7.32118 9.53894 9.30539 6.81776 12.5935 5.23046C15.8815 3.64315 19.2263 2.28256 23.4214 2.28256C27.6166 2.28256 30.6212 3.24635 32.3787 4.09668C34.136 4.94711 35.4399 5.96753 35.4399 5.96753Z" fill="white"/>
<path d="M7.32108 9.53903C7.32108 9.53903 5.81176 11.4493 5.42897 12.2912C5.04617 13.1333 3.78312 15.5828 3.55348 17.9942C3.32385 20.4055 3.28556 22.2742 3.55348 23.5407C3.82141 24.8071 4.28068 26.5678 4.28068 26.5678C4.28068 26.5678 5.84995 20.0994 6.07959 18.5301C6.30922 16.9609 7.41922 13.631 8.37606 12.4827C9.33289 11.3344 10.2132 9.95659 10.2132 9.95659L7.32108 9.53903Z" fill="url(#paint7_linear)"/>
<path d="M10.2132 9.95648C10.2132 9.95648 8.53969 12.1412 8.17876 12.7471C7.81783 13.353 6.32444 15.7473 6.23264 16.9608C6.14085 18.1742 5.88814 20.7499 5.88814 20.7499C5.88814 20.7499 8.5674 15.9273 9.2946 15.0853C10.0218 14.2432 12.1269 11.4492 12.1269 11.4492L10.2132 9.95648Z" fill="url(#paint8_linear)"/>
</g>
<defs>
<radialGradient id="paint0_radial" cx="0" cy="0" r="1" gradientUnits="userSpaceOnUse" gradientTransform="translate(12.5451 9.19667) scale(25.908)">
<stop stop-color="#21FFE3"/>
<stop offset="1" stop-color="#8549DF"/>
</radialGradient>
<linearGradient id="paint1_linear" x1="25.6863" y1="43.6463" x2="24.2765" y2="13.6873" gradientUnits="userSpaceOnUse">
<stop stop-color="#21FFE3"/>
<stop offset="1" stop-color="#8549DF"/>
</linearGradient>
<radialGradient id="paint2_radial" cx="0" cy="0" r="1" gradientUnits="userSpaceOnUse" gradientTransform="translate(24.1663 30.5368) scale(22.456)">
<stop stop-color="#21FFE3"/>
<stop offset="0.1916" stop-color="#23FCE3" stop-opacity="0.8084"/>
<stop offset="0.3419" stop-color="#28F2E3" stop-opacity="0.6581"/>
<stop offset="0.478" stop-color="#31E1E2" stop-opacity="0.522"/>
<stop offset="0.6059" stop-color="#3ECAE2" stop-opacity="0.3941"/>
<stop offset="0.728" stop-color="#4FACE1" stop-opacity="0.272"/>
<stop offset="0.8458" stop-color="#6386E0" stop-opacity="0.1542"/>
<stop offset="0.958" stop-color="#7B5BDF" stop-opacity="0.042"/>
<stop offset="1" stop-color="#8549DF" stop-opacity="0"/>
</radialGradient>
<linearGradient id="paint3_linear" x1="7.80137" y1="12.5341" x2="38.5229" y2="30.5914" gradientUnits="userSpaceOnUse">
<stop stop-color="#21FFE3"/>
<stop offset="1" stop-color="#F8FFFB"/>
</linearGradient>
<linearGradient id="paint4_linear" x1="13.2874" y1="15.6992" x2="39.1765" y2="15.6992" gradientUnits="userSpaceOnUse">
<stop stop-color="#692CC2"/>
<stop offset="0.5189" stop-color="#3E5BDE"/>
<stop offset="1" stop-color="#229EE7"/>
</linearGradient>
<linearGradient id="paint5_linear" x1="13.2874" y1="26.378" x2="39.7717" y2="26.378" gradientUnits="userSpaceOnUse">
<stop stop-color="#692CC2"/>
<stop offset="0.5189" stop-color="#3E5BDE"/>
<stop offset="1" stop-color="#229EE7"/>
</linearGradient>
<linearGradient id="paint6_linear" x1="10.3859" y1="36.756" x2="37.5398" y2="36.756" gradientUnits="userSpaceOnUse">
<stop stop-color="#677CF4"/>
<stop offset="0.2764" stop-color="#374CD7"/>
<stop offset="0.3631" stop-color="#3752D8"/>
<stop offset="0.4747" stop-color="#3562DB"/>
<stop offset="0.5999" stop-color="#337CE1"/>
<stop offset="0.7351" stop-color="#30A1E9"/>
<stop offset="0.8766" stop-color="#2DD0F2"/>
<stop offset="1" stop-color="#29FFFC"/>
</linearGradient>
<linearGradient id="paint7_linear" x1="7.04413" y1="13.721" x2="2.43913" y2="25.4429" gradientUnits="userSpaceOnUse">
<stop stop-color="#F8FFFB"/>
<stop offset="1" stop-color="#F8FFFB" stop-opacity="0"/>
</linearGradient>
<linearGradient id="paint8_linear" x1="9.13469" y1="14.3571" x2="8.3667" y2="24.8895" gradientUnits="userSpaceOnUse">
<stop stop-color="#F8FFFB"/>
<stop offset="1" stop-color="#F8FFFB" stop-opacity="0"/>
</linearGradient>
<clipPath id="clip0">
<rect width="48" height="48" fill="white"/>
</clipPath>
</defs>
</svg>
