<svg width="48" height="48" viewBox="0 0 48 48" fill="none" xmlns="http://www.w3.org/2000/svg">
<circle cx="24" cy="24" r="24" fill="#2D2C2C"/>
<path d="M34.9807 33.5891L31.5655 17.4125C31.5398 17.3328 31.5142 17.2531 31.4628 17.2L24.4012 7.2125C24.2985 7.07969 24.1444 7 23.9904 7C23.8363 7 23.6822 7.07969 23.5795 7.2125L16.5179 17.2C16.4666 17.2531 16.4409 17.3328 16.4152 17.4125L13 33.5625V33.8016C13 33.8281 13.0257 33.8813 13.0257 33.9078C13.0514 33.9875 13.1284 34.0672 13.2054 34.1203H13.2311L23.7079 40.9203C23.7849 40.9734 23.8877 41 23.9904 41C24.0931 41 24.1701 40.9734 24.2728 40.9203L34.7496 34.1203H34.7753C34.8523 34.0672 34.9037 33.9875 34.9551 33.9078C34.9807 33.8813 34.9807 33.8281 34.9807 33.8016C35.0064 33.7484 35.0064 33.6687 34.9807 33.5891ZM33.2603 30.3484L29.6653 23.7875L30.9749 19.5375L33.2603 30.3484ZM24.5039 9.15156L30.487 17.625L28.972 22.5656L24.5039 14.3844V9.15156ZM23.9904 15.6063L28.5611 23.9203L25.7365 33.1375H22.2699L19.4453 23.9203L23.9904 15.6063ZM23.4768 9.15156V14.3844L19.0088 22.5391L17.4937 17.625L23.4768 9.15156ZM17.0058 19.5641L18.3154 23.8141L14.7205 30.375L17.0058 19.5641ZM18.752 25.1953L21.1914 33.1641H14.3866L18.752 25.1953ZM15.2854 34.2H21.5252L23.0659 39.2469L15.2854 34.2ZM23.9904 38.7422L22.6037 34.2H25.4027L23.9904 38.7422ZM24.9148 39.2469L26.4555 34.2H32.6954L24.9148 39.2469ZM26.7893 33.1375L29.2288 25.1688L33.5941 33.1375H26.7893Z" fill="white"/>
</svg>
