<svg width="48" height="48" viewBox="0 0 48 48" fill="none" xmlns="http://www.w3.org/2000/svg">
<path d="M9 26.1405C14.2216 28.9135 19.6703 31.8162 23.8784 34.0622L38.6351 26.1405C33.2919 34.0784 28.8405 40.6865 23.8784 48C18.9081 40.7027 13.4189 32.6513 9 26.1405ZM9.56757 23.9513L23.8946 16.3054L38.0351 23.8946L23.9027 31.5486L9.56757 23.9513ZM23.8784 13.8568L9 21.6892L23.8135 0L38.6351 21.7378L23.8784 13.8568Z" fill="#3AB83A"/>
<path d="M23.8784 34.0622L38.6352 26.1405C33.2919 34.0784 23.8784 48 23.8784 48V34.0622ZM23.8946 16.3054L38.0352 23.8946L23.9027 31.5486L23.8946 16.3054ZM23.8784 13.8568L23.8136 0L38.6352 21.7378L23.8784 13.8568Z" fill="#0B8311"/>
<path d="M9.56757 23.9514L23.8946 25.127L38.0351 23.9027L23.9027 31.5568L9.56757 23.9514Z" fill="#0B8311"/>
<path d="M23.8946 25.127L38.0351 23.9027L23.9027 31.5568L23.8946 25.127Z" fill="#146714"/>
</svg>
