<svg xmlns="http://www.w3.org/2000/svg" width="178.144" height="178.144" viewBox="0 0 178.144 178.144">
  <g id="Symbol_2_1" data-name="Symbol 2 – 1" transform="translate(1060 -1200)">
    <circle id="Ellipse_85" data-name="Ellipse 85" cx="89.072" cy="89.072" r="89.072" transform="translate(-1060 1200)" fill="#44a750"/>
    <path id="_" data-name="€" d="M69.459-11.1A35.958,35.958,0,0,0,96.585-22.605l8.768,8.631A41.317,41.317,0,0,1,89.461-2.74,54.51,54.51,0,0,1,68.774,1.1,54.243,54.243,0,0,1,46.717-3.356,47.6,47.6,0,0,1,29.592-15.892a46.959,46.959,0,0,1-9.864-18.769H4.11v-7.672H18.358q-.274-3.562-.274-5.617t.274-5.617H4.11v-7.672H19.728a46.959,46.959,0,0,1,9.864-18.769A47.6,47.6,0,0,1,46.717-92.543,54.243,54.243,0,0,1,68.774-97,54.364,54.364,0,0,1,89.53-93.16a42.1,42.1,0,0,1,15.823,11.1l-8.768,8.631Q85.762-84.8,69.459-84.8a38,38,0,0,0-21.92,6.439A34.245,34.245,0,0,0,34.25-61.239H77.679v7.672H32.332a36.067,36.067,0,0,0-.411,5.617,37.819,37.819,0,0,0,.411,5.617H77.679v7.672H34.25A34.245,34.245,0,0,0,47.539-17.536,38,38,0,0,0,69.459-11.1Z" transform="translate(-1029.461 1338.09)" fill="#fff"/>
  </g>
</svg>
