<svg width="48" height="48" viewBox="0 0 48 48" fill="none" xmlns="http://www.w3.org/2000/svg">
<path d="M23.9808 0C10.7394 0 0 10.7394 0 23.9808C0 37.2221 10.7394 47.9615 23.9808 47.9615C37.2221 47.9615 47.9615 37.2221 47.9615 23.9808C48 10.7394 37.2606 0 23.9808 0ZM22.903 35.7979C21.5942 36.7217 20.016 37.2606 18.4379 37.2606C15.6664 37.2606 13.1259 35.7594 11.2013 32.988C9.46913 30.332 8.50682 27.2526 8.42983 24.0962C8.42983 23.9808 8.50682 23.8653 8.62229 23.8268L10.5084 22.98C10.6624 22.903 10.8164 22.98 10.8933 23.1339C10.8933 23.1724 10.9318 23.2109 10.9318 23.2494C10.9318 26.4058 11.7787 29.3697 13.2799 31.5638C14.7041 33.6423 16.5517 34.7586 18.4763 34.7586C19.5156 34.7586 20.5549 34.4507 21.4018 33.8733C21.5172 33.7963 21.7097 33.8348 21.7867 33.9503C22.1716 34.4507 22.5565 34.9126 22.98 35.3745C23.0184 35.49 23.0184 35.6824 22.903 35.7979ZM36.7987 32.988C34.9126 35.7209 32.3336 37.2606 29.5622 37.2606C26.7907 37.2606 24.2502 35.7209 22.3256 32.988C20.5164 30.3705 19.5156 26.9062 19.5156 23.2494C19.5156 19.8621 21.4787 17.2061 23.9423 17.2061C26.4058 17.2061 28.3689 19.8621 28.3689 23.2494C28.4074 26.2133 27.7145 29.1002 26.3288 31.7177C26.2518 31.8717 26.0593 31.9102 25.9439 31.8332C25.9054 31.8332 25.9054 31.7947 25.8669 31.7562C25.6359 31.4868 25.405 31.2173 25.2125 30.9479C24.9816 30.6014 24.7891 30.2935 24.5966 29.9086C24.5581 29.8316 24.5581 29.7161 24.5966 29.6391C25.482 27.599 25.9054 25.405 25.9054 23.2109C25.9054 21.5557 25.0585 19.6696 23.9423 19.6696C22.826 19.6696 21.9791 21.5557 21.9791 23.2109C21.9791 26.3673 22.826 29.3312 24.3272 31.5253C25.7514 33.6039 27.599 34.7201 29.5237 34.7201C31.4483 34.7201 33.2959 33.5654 34.7201 31.5253C36.2213 29.3312 37.0682 26.3673 37.0682 23.2109C37.0682 20.0545 36.2213 17.0906 34.7201 14.8966C34.2967 14.2422 33.7578 13.6648 33.1804 13.1644C33.065 13.0489 33.065 12.8565 33.1419 12.741C33.1804 12.7025 33.2189 12.664 33.2574 12.664L35.1435 11.8172C35.259 11.7787 35.3745 11.7787 35.4515 11.8941C35.9519 12.3945 36.3753 12.9334 36.7602 13.4723C38.5694 16.0898 39.5702 19.5541 39.5702 23.2109C39.5702 26.8677 38.6079 30.3705 36.7987 32.988Z" fill="#A566FF"/>
</svg>
