<svg width="48" height="48" viewBox="0 0 48 48" fill="none" xmlns="http://www.w3.org/2000/svg">
<path d="M0 0V48H47.1111V0H0ZM16.4697 5.568H20.8744V10.176H16.4697V5.568ZM5.36224 5.568H9.95845V10.176H5.36224V5.568ZM9.76694 16.704V21.312H5.17073V16.704H9.76694ZM8.61789 42.048H6.7028V40.32H8.42638V42.048H8.61789ZM9.95845 32.832H5.36224V28.416H9.95845V32.832ZM19.7254 42.048H18.0018V40.32H19.7254V42.048ZM19.7254 31.296H18.0018V29.568H19.7254V31.296ZM21.0659 21.504H16.4697V16.896H21.0659V21.504ZM30.8329 42.048H29.1093V40.32H30.8329V42.048ZM30.8329 31.296H29.1093V29.568H30.8329V31.296ZM30.8329 19.968H29.1093V18.24H30.8329V19.968ZM32.3649 10.176H27.7687V5.568H32.3649V10.176ZM42.1319 42.048H40.4083V40.32H42.1319V42.048ZM42.1319 31.296H40.4083V29.568H42.1319V31.296ZM42.1319 19.968H40.4083V18.24H42.1319V19.968ZM42.1319 8.832H40.4083V7.104H42.1319V8.832Z" fill="#202944"/>
</svg>
