<svg width="48" height="48" viewBox="0 0 48 48" fill="none" xmlns="http://www.w3.org/2000/svg">
<g clip-path="url(#clip0)">
<path fill-rule="evenodd" clip-rule="evenodd" d="M24.0004 48C10.8002 48 0 37.1997 0 23.8795C0.120002 10.6792 10.8002 -0.120965 24.1204 -0.000962679C37.3207 0.119039 48.0008 10.7992 48.0008 24.2395C47.8808 37.3197 37.2007 48 24.0004 48Z" fill="#0090FF"/>
<path fill-rule="evenodd" clip-rule="evenodd" d="M26.2806 21.119L25.5606 24.9591L32.4007 25.9191L31.9207 27.7191L25.2006 26.7591C24.7206 28.3192 24.4806 29.9992 23.8805 31.4392C23.2805 33.1192 22.6805 34.7993 21.9605 36.3593C21.0005 38.3994 19.3205 39.8395 17.0404 40.1995C15.7204 40.4395 14.2804 40.3195 13.2004 39.4795C12.8404 39.2395 12.4803 38.7595 12.4803 38.3994C12.4803 37.9194 12.7204 37.3193 13.0804 37.0793C13.3204 36.9593 13.9204 37.0793 14.2804 37.1993C14.6404 37.5594 15.0004 38.0394 15.2404 38.5194C15.9604 39.4795 16.9204 39.5995 17.8804 38.8795C18.9605 37.9194 19.5605 36.5993 19.9205 35.2793C20.6405 32.3992 21.3605 29.6392 21.9605 26.7591V26.2791L15.6004 25.3191L15.8404 23.5191L22.4405 24.4791L23.2805 20.759L16.4404 19.679L16.6804 17.759L23.7605 18.719C24.0005 17.999 24.1206 17.399 24.3606 16.799C24.9606 14.6389 25.5606 12.4789 27.0006 10.5588C28.4406 8.63881 30.1207 7.43879 32.6407 7.55879C33.7207 7.55879 34.8007 7.9188 35.5208 8.75881C35.6408 8.87881 35.8808 9.11882 35.8808 9.35882C35.8808 9.83883 35.8808 10.4388 35.5208 10.7988C35.0407 11.1589 34.4407 11.0389 33.9607 10.5588C33.6007 10.1988 33.3607 9.83883 33.0007 9.47882C32.2807 8.51881 31.2007 8.39881 30.3607 9.23882C29.7606 9.83883 29.1606 10.6788 28.8006 11.5189C27.9606 14.0389 27.3606 16.679 26.5206 19.319L33.1207 20.279L32.6407 22.079L26.2806 21.119Z" fill="white"/>
</g>
<defs>
<clipPath id="clip0">
<rect width="48" height="48" fill="white"/>
</clipPath>
</defs>
</svg>
