<svg width="48" height="48" viewBox="0 0 48 48" fill="none" xmlns="http://www.w3.org/2000/svg">
<g clip-path="url(#clip0)">
<path d="M23.933 47.8698C19.1988 47.8698 14.5709 46.466 10.6345 43.8358C6.69811 41.2056 3.63008 37.4672 1.81836 33.0933C0.00664822 28.7194 -0.467379 23.9065 0.456225 19.2633C1.37983 14.62 3.65958 10.3549 7.0072 7.00726C10.3548 3.65965 14.6199 1.37989 19.2632 0.456286C23.9065 -0.467318 28.7194 0.00670925 33.0932 1.81842C37.4671 3.63014 41.2055 6.69817 43.8357 10.6346C46.4659 14.5709 47.8698 19.1989 47.8698 23.9331C47.8629 30.2794 45.3388 36.3638 40.8512 40.8513C36.3637 45.3388 30.2793 47.8629 23.933 47.8698Z" fill="#111722"/>
<path d="M33.4884 11.5498H24.0744H16.573V16.2196V38.1582H24.0744V16.2196H33.4884V11.5498Z" fill="#00A3E0"/>
<path d="M30.1387 21.4416L25.3974 26.1829L30.1387 30.9241L34.8799 26.1829L30.1387 21.4416Z" fill="white"/>
<path d="M23.933 47.8698C19.1988 47.8698 14.5709 46.466 10.6345 43.8358C6.6981 41.2056 3.63006 37.4672 1.81835 33.0933C0.00663296 28.7194 -0.467394 23.9065 0.45621 19.2633C1.37981 14.62 3.65957 10.3549 7.00718 7.00726C10.3548 3.65965 14.6199 1.37989 19.2632 0.456286C23.9065 -0.467318 28.7193 0.00670925 33.0932 1.81842C37.4671 3.63014 41.2055 6.69817 43.8357 10.6346C46.4659 14.5709 47.8698 19.1989 47.8698 23.9331C47.8629 30.2794 45.3388 36.3638 40.8512 40.8513C36.3637 45.3388 30.2793 47.8629 23.933 47.8698ZM23.933 3.53867C19.8994 3.53867 15.9563 4.73479 12.6025 6.97575C9.24864 9.21672 6.63464 12.4019 5.09103 16.1285C3.54743 19.8551 3.14355 23.9557 3.93047 27.9118C4.71739 31.868 6.65977 35.5019 9.51198 38.3541C12.3642 41.2063 15.9981 43.1487 19.9543 43.9356C23.9104 44.7226 28.011 44.3187 31.7376 42.7751C35.4642 41.2315 38.6494 38.6175 40.8904 35.2636C43.1313 31.9098 44.3274 27.9667 44.3274 23.9331C44.3205 18.5263 42.1696 13.3429 38.3464 9.51967C34.5232 5.69647 29.3398 3.54557 23.933 3.53867Z" fill="#6363FF"/>
</g>
<defs>
<clipPath id="clip0">
<rect width="48" height="48" fill="white"/>
</clipPath>
</defs>
</svg>
