<svg width="48" height="48" viewBox="0 0 48 48" fill="none" xmlns="http://www.w3.org/2000/svg">
<path fill-rule="evenodd" clip-rule="evenodd" d="M25.3602 30.9611V46.9722C25.3602 47.8224 24.8271 48.2287 24.1671 47.8685L15.1011 42.9032C14.7401 42.6592 14.4428 42.3322 14.2343 41.9496C14.0257 41.567 13.9118 41.14 13.9023 40.7044V25.0708C14.0332 25.1798 14.1741 25.2762 14.323 25.359L25.3602 30.9611Z" fill="#4C5FAB"/>
<path d="M34.0977 12.1778V0.843807C34.0977 0.143537 33.6482 -0.179222 33.1006 0.10031L16.346 8.69375C14.4758 9.65338 14.0406 9.80611 13.9455 10.8176C13.9523 10.7082 13.9878 10.6026 14.0485 10.5113C14.1091 10.4201 14.1928 10.3465 14.2911 10.2979C14.3893 10.2494 14.4986 10.2277 14.608 10.2349C14.7173 10.2422 14.8228 10.2782 14.9138 10.3392L27.5186 16.803L33.1006 13.9414C33.3993 13.7524 33.6467 13.4925 33.8206 13.1848C33.9946 12.8771 34.0898 12.5312 34.0977 12.1778Z" fill="#225FAC"/>
<path d="M13.9686 22.8864C14.1035 23.4257 14.4423 23.8916 14.9138 24.1861L33.0977 33.5115C33.6453 33.7997 34.0948 33.4596 34.0948 32.7593V21.434C34.086 21.0796 33.9905 20.7328 33.8167 20.4238C33.6429 20.1149 33.3961 19.8532 33.0977 19.6617L27.5186 16.803L14.9195 23.2639C14.8355 23.3182 14.7396 23.3517 14.64 23.3615C14.5404 23.3713 14.4398 23.3571 14.3468 23.3202C14.2537 23.2832 14.1709 23.2246 14.1051 23.1491C14.0393 23.0737 13.9925 22.9836 13.9686 22.8864Z" fill="#3EB3E3"/>
<path d="M13.9484 10.8176C13.9167 11.123 13.9167 11.5063 13.9167 12.0164V22.4772C13.9218 22.6151 13.9401 22.7521 13.9714 22.8864C13.9954 22.9836 14.0422 23.0737 14.108 23.1492C14.1738 23.2246 14.2566 23.2833 14.3497 23.3202C14.4427 23.3571 14.5432 23.3713 14.6429 23.3615C14.7425 23.3517 14.8383 23.3183 14.9224 23.2639L27.5215 16.803L14.9138 10.3392C14.8228 10.2788 14.7176 10.2435 14.6087 10.2366C14.4998 10.2297 14.391 10.2516 14.2932 10.3001C14.1954 10.3485 14.112 10.4219 14.0515 10.5127C13.991 10.6035 13.9554 10.7087 13.9484 10.8176Z" fill="#139FDA"/>
</svg>
