<svg width="48" height="48" viewBox="0 0 48 48" fill="none" xmlns="http://www.w3.org/2000/svg">
<path d="M23.9846 47.9537C37.2139 47.9537 47.9383 37.2292 47.9383 23.9999C47.9383 10.7706 37.2139 0.0461426 23.9846 0.0461426C10.7553 0.0461426 0.0308228 10.7706 0.0308228 23.9999C0.0308228 37.2292 10.7553 47.9537 23.9846 47.9537Z" fill="#FEFEFE"/>
<path d="M14.0886 34.5125C14.6435 34.5125 15.1676 34.2042 15.4143 33.711L18.9441 27.0058H13.4875C12.6551 27.0058 11.9923 26.3276 11.9923 25.5106V22.5048C11.9923 21.6724 12.6705 21.0096 13.4875 21.0096H22.1195L28.8247 8.30828C29.0867 7.81503 29.5954 7.50674 30.1503 7.50674H41.4489C37.0713 2.88247 30.8902 0 24.0154 0C10.7592 0 0 10.7437 0 24.0154C0 27.7765 0.863199 31.3526 2.42004 34.5279H14.0886V34.5125Z" fill="#9B1C2E"/>
<path d="M33.9114 13.4876C33.3565 13.4876 32.8324 13.7959 32.5857 14.2891L29.0559 20.9943H34.5125C35.3449 20.9943 36.0077 21.6726 36.0077 22.4895V25.4953C36.0077 26.3277 35.3295 26.9905 34.5125 26.9905H25.8805L19.1753 39.6918C18.9133 40.1851 18.4046 40.4934 17.8497 40.4934H6.55106C10.9287 45.1176 17.1098 48.0001 23.9846 48.0001C37.2408 48.0001 48 37.2564 48 23.9847C48 20.2236 47.1368 16.6475 45.58 13.4722H33.9114V13.4876Z" fill="#9B1C2E"/>
</svg>
