<svg width="48" height="48" viewBox="0 0 48 48" fill="none" xmlns="http://www.w3.org/2000/svg">
<path d="M24 48C37.2548 48 48 37.2548 48 24C48 10.7452 37.2548 0 24 0C10.7452 0 0 10.7452 0 24C0 37.2548 10.7452 48 24 48Z" fill="#00EF8B"/>
<path d="M34.5312 20.2463H27.7536V27.0239H34.5312V20.2463Z" fill="white"/>
<path d="M20.9808 29.5631C20.9808 30.0663 20.8316 30.5582 20.5521 30.9765C20.2725 31.3949 19.8752 31.7209 19.4103 31.9135C18.9455 32.106 18.434 32.1564 17.9405 32.0583C17.447 31.9601 16.9937 31.7178 16.6379 31.362C16.2821 31.0062 16.0398 30.5529 15.9417 30.0594C15.8435 29.566 15.8939 29.0544 16.0864 28.5896C16.279 28.1247 16.6051 27.7274 17.0234 27.4479C17.4418 27.1683 17.9336 27.0191 18.4368 27.0191H20.9808V20.2463H18.4368C16.5941 20.2463 14.7928 20.7928 13.2607 21.8165C11.7285 22.8402 10.5344 24.2953 9.8292 25.9978C9.12403 27.7002 8.93953 29.5735 9.29902 31.3808C9.65851 33.188 10.5458 34.8481 11.8488 36.1511C13.1518 37.4541 14.8119 38.3414 16.6192 38.7009C18.4265 39.0604 20.2998 38.8759 22.0022 38.1707C23.7046 37.4656 25.1597 36.2714 26.1834 34.7393C27.2072 33.2071 27.7536 31.4058 27.7536 29.5631V27.0191H20.9808V29.5631Z" fill="white"/>
<path d="M30.2976 16.8577H37.92V10.0801H30.2976C27.8274 10.0826 25.4591 11.065 23.7124 12.8117C21.9657 14.5584 20.9833 16.9267 20.9808 19.3969V20.2465H27.7536V19.3969C27.7549 18.723 28.0235 18.0772 28.5004 17.6011C28.9774 17.125 29.6237 16.8577 30.2976 16.8577Z" fill="white"/>
<path d="M20.9808 27.0191H27.7536V20.2463H20.9808V27.0191Z" fill="#16FF99"/>
</svg>
