<svg width="48" height="48" viewBox="0 0 48 48" fill="none" xmlns="http://www.w3.org/2000/svg">
<circle cx="24" cy="24" r="24" fill="#402A26"/>
<path fill-rule="evenodd" clip-rule="evenodd" d="M34.1218 12L33.9932 12.3519L33.5699 13.4778L33.2889 14.2038C31.1553 19.6453 29.4954 22.2279 27.7312 22.2279C26.7145 22.2279 26.1127 21.9257 25.3336 21.2167L25.1087 21.0062C24.5482 20.4732 24.3122 20.3422 23.773 20.3422C23.4919 20.3422 22.989 20.7132 22.3528 21.579C21.6929 22.4769 20.9692 23.8033 20.1916 25.5504L20.1191 25.7139L27.6883 25.7143L26.7459 27.7286H19.6776V36H17.6V12H34.1218ZM31.1766 14.015L19.6775 14.0143V22.0128C21.0553 19.551 22.3645 18.315 23.773 18.315C24.8681 18.315 25.5133 18.6327 26.3274 19.3719L26.5596 19.5891C27.0829 20.0866 27.2846 20.2007 27.7312 20.2007C28.225 20.2007 29.5328 18.0627 31.1766 14.015Z" fill="white"/>
</svg>
