<svg width="48" height="48" viewBox="0 0 48 48" fill="none" xmlns="http://www.w3.org/2000/svg">
<g clip-path="url(#clip0)">
<path d="M22.0183 15.596C14.6327 26.9235 10.0963 42.6547 8.326 48C7.3302 37.9187 12.5858 24.1817 16.4307 16.0668C14.6604 16.1499 5.22795 16.8146 0 22.2153C0 22.2153 2.82143 13.5465 19.1138 10.9154L19.1692 10.8046C31.9209 -7.83463 41.4917 3.29906 41.4917 3.29906C35.6829 2.32971 30.6209 5.23776 26.3057 9.97374C28.408 9.89065 42.0173 9.72447 45.9451 20.4981C45.9451 20.4981 38.0617 14.8482 22.0183 15.596ZM31.2294 28.5853C27.9654 28.5853 25.3099 31.2441 25.3099 34.5122C25.3099 37.7803 27.9654 40.4391 31.2294 40.4391C34.4934 40.4391 37.1489 37.7803 37.1489 34.5122C37.1489 31.2164 34.4934 28.5853 31.2294 28.5853Z" fill="#062144"/>
</g>
<defs>
<clipPath id="clip0">
<rect width="48" height="48" fill="white"/>
</clipPath>
</defs>
</svg>
