<svg width="48" height="48" viewBox="0 0 48 48" fill="none" xmlns="http://www.w3.org/2000/svg">
<path d="M24 48C37.2548 48 48 37.2548 48 24C48 10.7452 37.2548 0 24 0C10.7452 0 0 10.7452 0 24C0 37.2548 10.7452 48 24 48Z" fill="#002AEF"/>
<path fill-rule="evenodd" clip-rule="evenodd" d="M25.9206 19.0435L31.6824 15.6824V22.4045L25.9206 19.0435ZM31.6824 33.448L24 37.9294L16.3176 33.448V25.6055L24 30.0869L31.6824 25.6055V33.448ZM16.3176 15.6824L22.0794 19.0435L16.3176 22.4045V15.6824ZM24.9603 20.644L30.7221 24.005L24.9603 27.3661V20.644ZM23.0397 27.3661L17.2779 24.005L23.0397 20.644V27.3661ZM30.7221 14.0819L24 17.9231L17.2779 14.0819L24 10.0807L30.7221 14.0819ZM14.397 13.4417V34.4083L24 39.85L33.603 34.4083V13.4417L24 8L14.397 13.4417Z" fill="white"/>
</svg>
