<svg width="48" height="48" viewBox="0 0 48 48" fill="none" xmlns="http://www.w3.org/2000/svg">
<path d="M24 48C37.2548 48 48 37.2548 48 24C48 10.7452 37.2548 0 24 0C10.7452 0 0 10.7452 0 24C0 37.2548 10.7452 48 24 48Z" fill="#ED1968"/>
<path d="M19.05 40.35C17.1336 39.819 15.3466 38.9 13.8 37.65C12.276 36.476 10.958 35.0566 9.89999 33.45C8.77178 31.7599 7.95868 29.8796 7.49999 27.9C6.97486 25.5287 6.97486 23.0713 7.49999 20.7C7.94752 18.6941 8.70674 16.7707 9.74999 15C11.2773 12.5496 13.4595 10.5752 16.05 9.29998C16.9597 8.81035 17.914 8.40853 18.9 8.09998C20.4 9.89998 21.9 11.85 23.4 13.8C23.55 14.1 23.85 14.25 24 14.55C22.4954 14.6131 21.0177 14.9697 19.65 15.6C18.4409 16.2321 17.37 17.099 16.5 18.15C15.644 19.2816 14.9847 20.5493 14.55 21.9C14.1494 23.533 14.2013 25.2442 14.7 26.85L21.15 21.75C22.65 23.7 24.15 25.5 25.65 27.45C23.55 29.1 21.3 30.75 19.2 32.55C21.3 35.25 23.55 38.1 25.65 40.95C23.4322 41.2122 21.1841 41.0078 19.05 40.35ZM33.345 22.179C33.2899 21.9334 33.2249 21.6902 33.15 21.45C32.9475 21.609 28.485 25.02 26.7 26.55C25.2 24.6 23.7 22.8 22.2 20.85C24.3 19.2 26.55 17.55 28.65 15.75C26.55 13.05 24.45 10.35 22.2 7.49998C22.2 7.34998 22.05 7.34998 22.05 7.19998H24.15C27.9977 7.2359 31.7118 8.61544 34.65 11.1C36.0819 12.2832 37.2997 13.7039 38.25 15.3C39.3692 17.0181 40.087 18.9664 40.35 21C40.7518 23.3379 40.7009 25.7313 40.2 28.05C39.7706 29.9928 38.9544 31.8293 37.8 33.45C36.7925 35.0058 35.5239 36.376 34.05 37.5C32.6145 38.7472 30.9257 39.6683 29.1 40.2C27.75 38.55 26.55 37.05 25.35 35.4C24.9017 34.8868 24.5001 34.3346 24.15 33.75C25.5693 33.7547 26.9707 33.4325 28.2453 32.8081C29.52 32.1838 30.6336 31.2742 31.5 30.15C32.364 29.0448 32.9781 27.7654 33.3 26.4C33.579 25.2615 33.594 23.8545 33.345 22.179ZM26.2605 34.7385C27.2964 36.1534 28.3718 37.539 29.4855 38.8935C30.9101 38.3783 32.2265 37.6026 33.3675 36.606C34.7507 35.5486 35.9403 34.2595 36.8835 32.796C37.9492 31.3005 38.7032 29.6059 39.1005 27.813C39.5715 25.635 39.618 23.3865 39.2355 21.144C38.9901 19.2634 38.323 17.4626 37.284 15.876C36.3971 14.3873 35.2605 13.0624 33.924 11.9595C31.2242 9.67542 27.8193 8.39228 24.2835 8.32648C25.674 10.0965 27.0825 11.901 29.538 15.06L30.198 15.906L29.382 16.6035C28.3151 17.5109 27.2257 18.3917 26.115 19.245C26.01 19.3275 24.735 20.307 23.778 21.048C24.1725 21.5505 24.63 22.1235 25.329 22.998C26.019 23.8605 26.4765 24.435 26.871 24.9375C27.567 24.363 28.326 23.76 29.235 23.055C29.382 22.941 31.779 21.096 32.4555 20.565L33.7395 19.5555L34.224 21.1155C34.783 22.9132 34.8421 24.8292 34.395 26.658C34.0366 28.1794 33.353 29.6051 32.391 30.837C30.8613 32.8221 28.6642 34.1857 26.2065 34.6755L26.2605 34.7385Z" fill="white"/>
</svg>
