<svg width="48" height="48" viewBox="0 0 48 48" fill="none" xmlns="http://www.w3.org/2000/svg">
<g clip-path="url(#clip0)">
<path d="M24 47.9479C37.2261 47.9479 47.9479 37.2261 47.9479 24C47.9479 10.7739 37.2261 0.052063 24 0.052063C10.7739 0.052063 0.052063 10.7739 0.052063 24C0.052063 37.2261 10.7739 47.9479 24 47.9479Z" fill="black" stroke="black" stroke-width="0.436504"/>
<path d="M13.3863 10.3526L11.7808 11.9582L13.8121 13.9896L15.8479 16.0209L15.6794 16.5177C15.4621 17.1697 15.3734 17.7152 15.3734 18.4382C15.3734 20.7933 16.6064 22.7981 18.7885 23.9911C19.6667 24.4702 21.1747 25.0113 22.8468 25.4415C26.1112 26.2798 26.6124 26.4261 27.2555 26.7277C28.1337 27.1446 28.5683 27.597 28.7502 28.2801C28.83 28.5772 28.8256 29.2425 28.7458 29.5619C28.5417 30.3381 27.8809 31.1187 27.0603 31.5444C25.9515 32.1255 24.0222 32.2851 22.5674 31.9126C22.0263 31.7795 21.259 31.4025 20.8731 31.0876C20.0881 30.4401 19.476 29.3224 19.2054 28.0317C19.1611 27.8277 19.1256 27.6547 19.1212 27.6458C19.1079 27.6281 14.5661 28.0716 14.5439 28.0982C14.5262 28.1115 14.5395 28.2978 14.5706 28.5107C14.7125 29.5353 15.0717 30.755 15.4842 31.6021L15.7237 32.0944L13.75 34.0681L11.7808 36.0418L13.3908 37.6518L14.9963 39.2574L17.0321 37.2216L19.0635 35.1903L19.4139 35.3366C21.2679 36.1172 24.0488 36.3612 26.7454 35.9709C27.393 35.8777 28.3288 35.656 28.8211 35.4741L29.1139 35.3677L31.061 37.3148L33.0036 39.2574L34.6092 37.6518L36.2192 36.0418L34.4141 34.2367L32.6133 32.4359L32.8395 31.9747C33.3097 31.03 33.5048 30.2272 33.5447 29.1228C33.6157 27.016 33.0702 25.4282 31.8283 24.1198C30.5332 22.7581 29.074 22.1106 24.9536 21.0727C22.0485 20.3453 20.7977 19.8441 20.301 19.2143C19.8086 18.5934 19.7643 17.7241 20.1945 17.0898C20.4429 16.7217 21.055 16.327 21.7203 16.1052C22.4698 15.8524 23.7294 15.7371 24.6653 15.8346C26.639 16.0431 27.6325 16.8858 28.0672 18.7309C28.1204 18.9571 28.1692 19.1478 28.1736 19.1567C28.1825 19.17 31.3936 19.0547 32.3561 19.0059L32.9061 18.9793L32.875 18.5934C32.8129 17.8084 32.6577 17.1076 32.3738 16.3758L32.2186 15.9633L34.2189 13.9585L36.2192 11.9582L34.6136 10.3482L33.0036 8.74261L30.9811 10.7651L28.9542 12.792L28.4619 12.6058C27.2511 12.1534 26.0801 11.9538 24.3548 11.905C22.4698 11.8562 20.8155 12.1001 19.547 12.6146L19.0768 12.8053L17.0366 10.774L14.9963 8.74261L13.3863 10.3526Z" fill="white"/>
</g>
<defs>
<clipPath id="clip0">
<rect width="48" height="48" fill="white"/>
</clipPath>
</defs>
</svg>
