<svg width="48" height="48" viewBox="0 0 48 48" fill="none" xmlns="http://www.w3.org/2000/svg">
<path d="M46.7712 14.7725H45.5386V13.5398V12.3072V11.0784V9.84576H44.3098H43.0771V8.61696V7.38432H41.8483H40.6157V6.15552V4.92288H39.3869H38.1542V3.69408V2.46144H36.9254H35.6928H34.464H33.2314V1.23264V0H32.0026H30.7699H29.5411H28.3085H27.0797H25.847H24.6182H23.3856H22.1568H20.9242H19.6954H18.4627H17.2339H16.0013H14.7725V1.23264V2.46144H13.5398H12.311H11.0784H9.8496V3.69408V4.92288H8.61696H7.38816V6.15552V7.38432H6.15552H4.92672V8.61696V9.84576H3.69408H2.46144V11.0784V12.3072V13.5398V14.7725H1.23264H0V16.0013V17.2339V18.4627V19.1078H2.46144H3.69408H4.92672H6.15552H7.38816H8.61696H9.8496H11.0784H12.311H13.5398H14.7725H16.0013H17.2339H18.4627H19.6954H20.9242H22.1568H23.3856H24.6182H25.847H27.0797H28.3085H29.5411H30.7699H32.0026H33.2314H34.464H35.6928H36.9254H38.1542H39.3869H40.6157H41.8483H43.0771H44.3098H45.5386H48V18.4627V17.2339V16.0013V14.7725H46.7712Z" fill="#FA34F3"/>
<path d="M46.7712 18.4627H45.5386H44.3098H43.0771H41.8483H40.6157H39.3869H38.1542H36.9254H35.6928H34.464H33.2314H32.0026H30.7699H29.5411H28.3085H27.0797H25.847H24.6182H23.3856H22.1568H20.9242H19.6954H18.4627H17.2339H16.0013H14.7725H13.5398H12.311H11.0784H9.8496H8.61696H7.38816H6.15552H4.92672H3.69408H2.46144H1.23264H0V19.6953V20.9241V22.1568V23.3856V24.6182V25.847V28.6272H2.46144H3.69408H4.92672H6.15552H7.38816H8.61696H9.8496H11.0784H12.311H13.5398H14.7725H16.0013H17.2339H18.4627H19.6954H20.9242H22.1568H23.3856H24.6182H25.847H27.0797H28.3085H29.5411H30.7699H32.0026H33.2314H34.464H35.6928H36.9254H38.1542H39.3869H40.6157H41.8483H43.0771H44.3098H45.5386H48V25.847V24.6182V23.3856V22.1568V20.9241V19.6953V18.4627H46.7712Z" fill="#CF15F9"/>
<path d="M46.7712 25.847H45.5386H44.3098H43.0771H41.8483H40.6157H39.3869H38.1542H36.9254H35.6928H34.464H33.2314H32.0026H30.7699H29.5411H28.3085H27.0797H25.847H24.6182H23.3856H22.1568H20.9242H19.6954H18.4627H17.2339H16.0013H14.7725H13.5398H12.311H11.0784H9.8496H8.61696H7.38816H6.15552H4.92672H3.69408H2.46144H1.23264H0V27.0797V28.3085V29.5411V30.7699V32.0026V33.2314H1.23264H2.46144V34.3718H4.92672H6.15552H7.38816H8.61696H9.8496H11.0784H12.311H13.5398H14.7725H16.0013H17.2339H18.4627H19.6954H20.9242H22.1568H23.3856H24.6182H25.847H27.0797H28.3085H29.5411H30.7699H32.0026H33.2314H34.464H35.6928H36.9254H38.1542H39.3869H40.6157H41.8483H43.0771H45.5386V33.2314H46.7712H48V32.0026V30.7699V29.5411V28.3085V27.0797V25.847H46.7712Z" fill="#AC15F9"/>
<path d="M44.3098 33.2314H43.0771H41.8483H40.6157H39.3869H38.1542H36.9254H35.6928H34.464H33.2314H32.0026H30.7699H29.5411H28.3085H27.0797H25.847H24.6182H23.3856H22.1568H20.9242H19.6954H18.4627H17.2339H16.0013H14.7725H13.5398H12.311H11.0784H9.8496H8.61696H7.38816H6.15552H4.92672H3.69408H2.46144V34.464V35.6928V36.9255V38.1543H3.69408H4.92672V39.3869V40.6157H6.15552H7.38816L7.4304 42.2093H9.8496H11.0784H12.311H13.5398H14.7725H16.0013H17.2339H18.4627H19.6954H20.9242H22.1568H23.3856H24.6182H25.847H27.0797H28.3085H29.5411H30.7699H32.0026H33.2314H34.464H35.6928H36.9254H38.1542H40.6157V40.6157H41.8483H43.0771V39.3869V38.1543H44.3098H45.5386V36.9255V35.6928V34.464V33.2314H44.3098Z" fill="#8F17F9"/>
<path d="M23.3856 48H22.1568H20.9242H19.6954H18.4627H17.2339H16.0013H14.7725V46.7712V45.5385H13.5398H12.311H11.0784H9.84959V44.3097V43.0771H8.61695H7.38815V41.8483V40.6157H8.61695H9.84959H11.0784H12.311H13.5398H14.7725H16.0013H17.2339H18.4627H19.6954H20.9242H22.1568H23.3856H24.6182H25.847H27.0797H28.3085H29.5411H30.7699H32.0026H33.2314H34.464H35.6928H36.9254H38.1542H39.3869H40.6157V41.8483V43.0771H39.3869H38.1542V44.3097V45.5385H36.9254H35.6928H34.464H33.2314V46.7712V48H32.0026H30.7699H29.5411H28.3085H27.0797H25.847H24.6182H23.3856Z" fill="#7E18F8"/>
<path d="M31.1501 27.7824V28.6272H31.9987H32.8435V27.7824V26.9338V26.089H31.9987H31.1501V26.9338V27.7824Z" fill="white"/>
<path d="M29.4566 28.6272H28.608H27.7632H26.9145H26.0659H25.2211V29.4758V30.3245H26.0659H26.9145H27.7632H28.608V31.1693V32.0179H29.4566H30.3014V31.1693V30.3245H31.15V29.4758V28.6272H30.3014H29.4566Z" fill="white"/>
<path d="M26.9145 26.0889H27.7632H28.608H29.4566H30.3014H31.15V25.2403V24.3917H30.3014H29.4566H28.608H27.7632H26.9145V25.2403V26.0889Z" fill="white"/>
<path d="M25.2211 21.8496V22.6982V23.5469V24.3917H26.0659H26.9145V23.5469V22.6982V21.8496H26.0659H25.2211Z" fill="white"/>
<path d="M31.15 20.1561H30.3014V19.3113V18.4627H29.4566H28.608V19.3113V20.1561H27.7632H26.9145V21.0048V21.8496H27.7632H28.608H29.4566H30.3014H31.15H31.9987H32.8435V21.0048V20.1561H31.9987H31.15Z" fill="white"/>
<path d="M42.1632 20.1562H41.3145H40.4697H39.6211H38.7763H37.9276H37.0828H36.2342H35.3856H34.5408V21.0048V21.8496H35.3856H36.2342H37.0828H37.9276V22.6983V23.5469V24.3917V25.2403V26.089V26.9338V27.7824V28.6272V29.4759V30.3245H38.7763H39.6211V29.4759V28.6272V27.7824V26.9338V26.089V25.2403V24.3917V23.5469V22.6983V21.8496H40.4697H41.3145H42.1632H43.0118V21.0048V20.1562H42.1632Z" fill="white"/>
<path d="M21.8304 20.1562V21.0048V21.8496V22.6983V23.5469V24.3917H20.9856H20.1369H19.2921H18.4435H17.5949V23.5469V22.6983V21.8496V21.0048V20.1562H16.7501H15.9014V21.0048V21.8496V22.6983V23.5469V24.3917V25.2403V26.089V26.9338V27.7824V28.6272V29.4759V30.3245H16.7501H17.5949V29.4759V28.6272V27.7824V26.9338V26.089H18.4435H19.2921H20.1369H20.9856H21.8304V26.9338V27.7824V28.6272V29.4759V30.3245H22.679H23.5238V29.4759V28.6272V27.7824V26.9338V26.089V25.2403V24.3917V23.5469V22.6983V21.8496V21.0048V20.1562H22.679H21.8304Z" fill="white"/>
<path d="M12.5107 20.1562H11.6659H10.8173H9.97245H9.12381H8.27517H7.43037V21.0048V21.8496H8.27517H9.12381H9.97245H10.8173H11.6659H12.5107H13.3593H14.208V21.0048V20.1562H13.3593H12.5107Z" fill="white"/>
<path d="M14.208 28.6272V27.7824V26.9337V26.0889V25.2403V24.3917H13.3593H12.5107H11.6659H10.8172H9.97245H9.12381V25.2403V26.0889H9.97245H10.8172H11.6659H12.5107V26.9337V27.7824V28.6272H13.3593H14.208Z" fill="white"/>
<path d="M7.43037 30.3245H8.27517H9.12381H9.97245H10.8173H11.6659H12.5107V29.4758V28.6272H11.6659H10.8173H9.97245H9.12381H8.27517H7.43037V29.4758V30.3245Z" fill="white"/>
<path d="M5.73309 21.8496V22.6982V23.5469V24.3917V25.2403V26.089V26.9338V27.7824V28.6272H6.58173H7.43037V27.7824V26.9338V26.089V25.2403V24.3917V23.5469V22.6982V21.8496H6.58173H5.73309Z" fill="white"/>
</svg>
