<svg width="48" height="48" viewBox="0 0 48 48" fill="none" xmlns="http://www.w3.org/2000/svg">
<g clip-path="url(#clip0)">
<path d="M24.0017 0C10.7664 0 0 10.7664 0 24.0017C0 37.237 10.7664 48.0034 24.0017 48.0034C37.237 48.0034 48.0034 37.237 48.0034 24.0017C48.0034 10.7664 37.2336 0 24.0017 0ZM24.0017 46.6419C11.5182 46.6419 1.36146 36.4851 1.36146 24.0017C1.36146 11.5182 11.5149 1.36146 24.0017 1.36146C36.4885 1.36146 46.6419 11.5182 46.6419 24.0017C46.6419 36.4851 36.4851 46.6419 24.0017 46.6419ZM28.5738 13.8754L26.4672 15.9819C25.7526 15.4705 24.8789 15.1725 23.934 15.1725C21.5226 15.1725 19.5617 17.1334 19.5617 19.5448C19.5617 21.7089 21.1399 23.5072 23.2058 23.8561V25.4377C21.1399 25.7865 19.5617 27.5848 19.5617 29.749C19.5617 32.1603 21.5226 34.1212 23.934 34.1212C26.3453 34.1212 28.3062 32.1603 28.3062 29.749C28.3062 27.5848 26.728 25.7865 24.6621 25.4377V23.8561C26.728 23.5072 28.3062 21.7089 28.3062 19.5448C28.3062 18.6033 28.0048 17.7295 27.4968 17.0115L29.6033 14.905L28.5738 13.8754ZM26.8499 29.7523C26.8499 31.361 25.5427 32.6683 23.934 32.6683C22.3253 32.6683 21.018 31.361 21.018 29.7523C21.018 28.1437 22.3253 26.8364 23.934 26.8364C25.5427 26.8364 26.8499 28.1437 26.8499 29.7523ZM23.934 22.4607C22.3253 22.4607 21.018 21.1535 21.018 19.5448C21.018 17.9361 22.3253 16.6288 23.934 16.6288C25.5427 16.6288 26.8499 17.9361 26.8499 19.5448C26.8499 21.1535 25.5427 22.4607 23.934 22.4607Z" fill="#181EA9"/>
</g>
<defs>
<clipPath id="clip0">
<rect width="48" height="48" fill="white"/>
</clipPath>
</defs>
</svg>
