<svg width="48" height="48" viewBox="0 0 48 48" fill="none" xmlns="http://www.w3.org/2000/svg">
<circle cx="24" cy="24" r="24" fill="#00A6C4"/>
<path d="M37.3758 15.2299L36.1595 16.4462C37.1262 17.9665 37.4303 19.8736 36.7676 21.6963C35.6621 24.7915 32.2363 26.4226 29.113 25.317C28.6701 25.1518 28.257 24.9584 27.8967 24.7089L24 28.6056L20.6008 25.1782C19.0259 26.2276 17.0081 26.5317 15.1011 25.869C11.8951 24.7089 10.2376 21.1989 11.3977 18.0211C11.563 17.5236 11.8125 17.0808 12.0885 16.6676L10.6243 15.2035L10.3484 15.6728C8.82801 18.1599 8.00008 21.0336 8.00008 23.9901C7.97199 32.8047 15.1573 40.0181 23.9719 40.0181H24C32.8147 40.0181 39.9736 32.8609 40 24.0446C40 21.1146 39.1985 18.2408 37.6782 15.7273L37.3758 15.2299Z" fill="white"/>
<path d="M13.8865 18.4639C13.4717 19.0159 13.2238 19.7083 13.2238 20.4536C13.2238 22.2499 14.6879 23.7141 16.4843 23.7141C17.2312 23.7141 17.922 23.4645 18.4739 23.0233L13.8865 18.4639ZM29.8864 22.7457C30.4119 23.1043 31.0201 23.2976 31.7108 23.2976C33.5071 23.2976 34.9713 21.8335 34.9713 20.0372C34.9713 19.3745 34.778 18.7383 34.4193 18.2127L29.8864 22.7457ZM24.0546 26.1731L10.8458 12.9081L11.3713 12.3561C14.6317 8.9023 19.0804 6.96716 23.8612 6.96716H23.8893C28.7247 6.96716 33.3683 9.03946 36.6007 12.6321L37.0981 13.184L24.0546 26.1731ZM13.0023 12.9081L24.0562 23.99L34.9713 13.1295C32.0413 10.2012 28.062 8.51395 23.9174 8.51395H23.8893C19.7712 8.51395 15.9307 10.0624 13.0023 12.9081Z" fill="white"/>
</svg>
