<svg width="48" height="48" viewBox="0 0 48 48" fill="none" xmlns="http://www.w3.org/2000/svg">
<path d="M24 48C37.2548 48 48 37.2548 48 24C48 10.7452 37.2548 0 24 0C10.7452 0 0 10.7452 0 24C0 37.2548 10.7452 48 24 48Z" fill="#6747ED"/>
<path fill-rule="evenodd" clip-rule="evenodd" d="M23.8352 27.0901C20.1982 27.0901 17.2784 24.2241 17.2784 20.6541C17.2784 17.0841 20.1982 14.218 23.8352 14.218C27.4722 14.218 30.392 17.0841 30.392 20.6541C30.392 24.2241 27.4722 27.0901 23.8352 27.0901ZM23.8352 11C29.265 11 33.6704 15.3242 33.6704 20.6541C33.6704 25.984 29.265 30.3082 23.8352 30.3082C18.4053 30.3082 14 25.984 14 20.6541C14 15.3242 18.4053 11 23.8352 11ZM33.2094 30.811C33.8753 31.4646 33.8753 32.4703 33.2094 33.0736L26.6526 39.5098C25.9867 40.1634 24.9621 40.1634 24.3474 39.5098C23.6815 38.8559 23.6815 37.8506 24.3474 37.247L30.9043 30.811C31.519 30.1573 32.5947 30.1573 33.2094 30.811ZM37 12.609C37 13.5141 36.2829 14.218 35.3608 14.218C34.4388 14.218 33.7216 13.5141 33.7216 12.609C33.7216 11.704 34.4388 11 35.3608 11C36.2316 11 37 11.704 37 12.609Z" fill="white"/>
</svg>
