<svg width="48" height="48" viewBox="0 0 48 48" fill="none" xmlns="http://www.w3.org/2000/svg">
<g clip-path="url(#clip0)">
<path d="M46.3785 12.7199L31.878 20.3399V29.1764L36.8655 26.5214V31.6454L22.812 39.7604L11.517 33.2384C10.6776 32.7538 9.98064 32.0567 9.49615 31.2173C9.01165 30.3778 8.75672 29.4256 8.75699 28.4564V15.4154L20.4135 8.68491C21.1423 8.26415 21.969 8.04263 22.8105 8.04263C23.652 8.04263 24.4787 8.26415 25.2075 8.68491L36.864 15.4154L43.9995 11.2949L25.8405 0.809909C24.9186 0.278503 23.8731 -0.0012207 22.809 -0.0012207C21.7449 -0.0012207 20.6994 0.278503 19.7775 0.809909L1.62149 11.2964V32.5679C1.62149 34.5479 2.67749 36.3749 4.39049 37.3649L22.812 47.9999L41.2065 37.3799C42.0563 36.8895 42.7619 36.1839 43.2525 35.3342C43.743 34.4845 44.0012 33.5206 44.001 32.5394V22.7264L46.377 21.4634V12.7199H46.3785Z" fill="#D35756"/>
</g>
<defs>
<clipPath id="clip0">
<rect width="48" height="48" fill="white"/>
</clipPath>
</defs>
</svg>
