<svg width="49" height="48" viewBox="0 0 49 48" fill="none" xmlns="http://www.w3.org/2000/svg">
<path d="M12.2826 44.1869L9.034 38.5635C8.98421 38.4606 8.95834 38.3478 8.95834 38.2335C8.95834 38.1192 8.98421 38.0064 9.034 37.9035L12.6434 31.656C12.7066 31.5592 12.7917 31.4786 12.8918 31.4207C12.9918 31.3627 13.1041 31.3291 13.2196 31.3225H20.4348C20.5505 31.3293 20.6629 31.3629 20.7633 31.4208C20.8636 31.4787 20.949 31.5592 21.0127 31.656L24.6204 37.9035C24.6719 38.0071 24.6987 38.1212 24.6987 38.2369C24.6987 38.3526 24.6719 38.4667 24.6204 38.5703L21.0025 44.8144C20.9387 44.9086 20.8546 44.9874 20.7563 45.0448C20.6581 45.1022 20.5482 45.1368 20.4348 45.1461H13.953C13.6198 45.1246 13.2959 45.027 13.0063 44.8607C12.7167 44.6944 12.4691 44.4639 12.2826 44.1869ZM35.7066 31.3277L28.5255 18.8805C28.438 18.7491 28.3213 18.6398 28.1846 18.5609C28.0479 18.482 27.8948 18.4357 27.7373 18.4257H13.358C13.2005 18.4357 13.0475 18.482 12.9107 18.5609C12.774 18.6398 12.6574 18.7491 12.5698 18.8805L5.3802 31.3345C5.31026 31.4759 5.27387 31.6316 5.27387 31.7893C5.27387 31.9471 5.31026 32.1027 5.3802 32.2441L7.4952 35.8962L11.1815 29.5153C11.2811 29.3634 11.4147 29.2367 11.5716 29.1453C11.7286 29.0539 11.9047 29.0003 12.086 28.9887H21.5582C21.7407 28.9989 21.9183 29.0518 22.0766 29.1433C22.2349 29.2348 22.3695 29.3622 22.4695 29.5153L27.2073 37.7223C27.2899 37.8855 27.333 38.0659 27.333 38.2489C27.333 38.4318 27.2899 38.6122 27.2073 38.7755L23.521 45.1564H27.7322C27.8901 45.147 28.0436 45.1009 28.1804 45.0216C28.3173 44.9424 28.4337 44.8322 28.5204 44.6999L35.7066 32.2475C35.7782 32.1048 35.8155 31.9473 35.8155 31.7876C35.8155 31.6279 35.7782 31.4704 35.7066 31.3277ZM48.7522 23.0917L37.7327 3.98312C37.5449 3.6965 37.2923 3.45813 36.9952 3.28733C36.6982 3.11652 36.3651 3.01809 36.0229 3L13.9667 3C13.6245 3.01809 13.2914 3.11652 12.9944 3.28733C12.6973 3.45813 12.4447 3.6965 12.2569 3.98312L1.23227 23.0917C1.07801 23.3958 0.99762 23.732 0.99762 24.0731C0.99762 24.4141 1.07801 24.7503 1.23227 25.0545L3.76103 29.4332L11.0857 16.7347C11.2096 16.5457 11.3761 16.3885 11.5718 16.2757C11.7675 16.1628 11.9869 16.0975 12.2125 16.085H28.8675C29.0928 16.0975 29.312 16.1628 29.5075 16.2757C29.7029 16.3886 29.869 16.5458 29.9925 16.7347L38.3174 31.1533C38.4194 31.3547 38.4726 31.5772 38.4726 31.803C38.4726 32.0287 38.4194 32.2513 38.3174 32.4527L30.9859 45.1461H36.0298C36.3719 45.128 36.705 45.0296 37.0021 44.8588C37.2991 44.688 37.5518 44.4496 37.7395 44.163L48.7642 25.0562C48.9177 24.7518 48.9976 24.4157 48.9976 24.0748C48.9976 23.7339 48.9177 23.3977 48.7642 23.0934L48.7522 23.0917Z" fill="url(#paint0_linear)"/>
<defs>
<linearGradient id="paint0_linear" x1="12.9973" y1="44.8572" x2="36.9992" y2="3.28895" gradientUnits="userSpaceOnUse">
<stop stop-color="#FFDC00"/>
<stop offset="0.33" stop-color="#E58E2F"/>
<stop offset="0.67" stop-color="#DB2D72"/>
<stop offset="1" stop-color="#FF00FF"/>
</linearGradient>
</defs>
</svg>
