<svg width="48" height="48" viewBox="0 0 48 48" fill="none" xmlns="http://www.w3.org/2000/svg">
<g clip-path="url(#clip0)">
<path d="M34.3134 26.675C34.3484 26.678 34.3822 26.6894 34.4118 26.7083C34.4414 26.7271 34.4661 26.7529 34.4836 26.7833C34.5012 26.8137 34.5112 26.8479 34.5127 26.883C34.5142 26.9181 34.5072 26.953 34.4923 26.9848L24.2923 44.6248C24.2733 44.6553 24.247 44.6807 24.2158 44.6986C24.1845 44.7165 24.1494 44.7264 24.1134 44.7274H17.8778C17.8415 44.7274 17.8059 44.7179 17.7746 44.6997C17.7432 44.6815 17.7172 44.6554 17.6992 44.6239C17.6813 44.5924 17.672 44.5567 17.6723 44.5205C17.6726 44.4842 17.6825 44.4487 17.7011 44.4176L27.9011 26.7776C27.919 26.7465 27.9447 26.7207 27.9757 26.7027C28.0068 26.6847 28.0419 26.6752 28.0778 26.675H34.3134ZM28.2502 21.6197C28.2142 21.6187 28.179 21.6088 28.1478 21.5909C28.1166 21.573 28.0903 21.5477 28.0712 21.5172L17.7011 3.58265C17.6825 3.55148 17.6726 3.51596 17.6723 3.47972C17.672 3.44347 17.6813 3.40779 17.6992 3.3763C17.7172 3.34481 17.7432 3.31865 17.7746 3.30047C17.8059 3.2823 17.8415 3.27276 17.8778 3.27283H24.1134C24.1494 3.27384 24.1845 3.28374 24.2158 3.30163C24.247 3.31952 24.2733 3.34485 24.2923 3.37537L34.6625 21.3099C34.681 21.3411 34.6909 21.3766 34.6913 21.4128C34.6916 21.4491 34.6823 21.4848 34.6643 21.5163C34.6464 21.5477 34.6204 21.5739 34.589 21.5921C34.5577 21.6103 34.522 21.6198 34.4858 21.6197H28.2502Z" fill="#E31337"/>
<path d="M29.4829 3.58274C29.4637 3.55061 29.4537 3.51384 29.4539 3.47641C29.4541 3.43898 29.4645 3.40232 29.4841 3.37041C29.5036 3.33849 29.5315 3.31254 29.5648 3.29535C29.598 3.27817 29.6354 3.27041 29.6727 3.27292H35.9171C35.953 3.27286 35.9882 3.28231 36.0193 3.30033C36.0503 3.31834 36.076 3.34427 36.0938 3.37547L47.9825 23.8977C48.0007 23.9288 48.0103 23.9642 48.0103 24.0002C48.0103 24.0362 48.0007 24.0716 47.9825 24.1027L36.0938 44.6249C36.076 44.6561 36.0503 44.682 36.0193 44.7001C35.9882 44.7181 35.953 44.7275 35.9171 44.7275H29.6727C29.6363 44.7279 29.6004 44.7187 29.5687 44.7007C29.537 44.6826 29.5107 44.6565 29.4925 44.625C29.4743 44.5934 29.4648 44.5576 29.465 44.5211C29.4653 44.4847 29.4752 44.449 29.4938 44.4177L41.3105 24.0002L29.4829 3.58274ZM24.408 23.8955C24.4271 23.9286 24.4372 23.9663 24.4372 24.0046C24.4372 24.0429 24.4271 24.0805 24.408 24.1136L12.4647 44.6249C12.4447 44.6542 12.4178 44.6781 12.3864 44.6946C12.3551 44.7112 12.3202 44.7198 12.2847 44.7198C12.2493 44.7198 12.2143 44.7112 12.183 44.6946C12.1516 44.6781 12.1247 44.6542 12.1047 44.6249L0.0283458 24.1049C0.00919636 24.0718 -0.00088501 24.0341 -0.00088501 23.9958C-0.00088501 23.9575 0.00919636 23.9199 0.0283458 23.8867L11.9716 3.37547C11.9917 3.34622 12.0185 3.32229 12.0499 3.30576C12.0812 3.28923 12.1162 3.28059 12.1516 3.28059C12.1871 3.28059 12.222 3.28923 12.2534 3.30576C12.2847 3.32229 12.3116 3.34622 12.3316 3.37547L24.408 23.8955Z" fill="#E31337"/>
</g>
<defs>
<clipPath id="clip0">
<rect width="48" height="48" fill="white"/>
</clipPath>
</defs>
</svg>
