<svg width="48" height="48" viewBox="0 0 48 48" fill="none" xmlns="http://www.w3.org/2000/svg">
<path d="M30.3917 12.485C31.7845 11.0922 34.0725 11.0922 35.4653 12.485C36.858 13.8777 36.858 16.1658 35.4653 17.5585C34.6446 18.3793 33.5503 18.7275 32.4311 18.5782C32.3813 18.5782 32.3316 18.5782 32.257 18.5782C31.9337 18.5285 31.5855 18.5782 31.2373 18.7275C30.7648 18.9513 30.4415 19.3244 30.2674 19.772C30.0933 20.2197 30.1181 20.7171 30.3171 21.1648C31.5109 23.7513 30.9637 26.885 28.9244 28.8995C26.885 30.9389 23.7762 31.486 21.1896 30.2922C20.7171 30.0684 20.2197 30.0684 19.772 30.2425C19.3244 30.4166 18.9513 30.7399 18.7523 31.1876C18.628 31.486 18.5534 31.7845 18.5782 32.1078C18.5782 32.1575 18.5782 32.2321 18.5782 32.2819C18.7772 33.4259 18.3793 34.5948 17.5834 35.4155C16.1907 36.8083 13.9026 36.8083 12.5098 35.4155C11.8383 34.744 11.4653 33.8487 11.4653 32.8788C11.4653 31.9337 11.8383 31.0135 12.5098 30.342C13.3306 29.5212 14.4249 29.1731 15.544 29.3223C15.5689 29.3223 15.5689 29.3223 15.5938 29.3223C15.7181 29.3472 15.8425 29.372 15.9668 29.372C16.2404 29.372 16.4891 29.3223 16.7378 29.1979C17.2104 28.9741 17.5337 28.601 17.6829 28.1782C17.857 27.7306 17.857 27.2083 17.6332 26.7358C16.4394 24.1244 16.9865 21.0155 19.0259 19.001C21.0653 16.9617 24.1741 16.4145 26.7606 17.6083C27.2083 17.8321 27.7306 17.8321 28.1782 17.658C28.6259 17.4839 28.999 17.1606 29.2228 16.713C29.3969 16.3648 29.4218 15.9668 29.372 15.5938C29.1979 14.4746 29.571 13.3057 30.3917 12.485ZM26.8352 26.8104C28.3772 25.2684 28.3772 22.7565 26.8352 21.1896C25.2933 19.6477 22.7813 19.6477 21.2145 21.1896C19.6725 22.7316 19.6725 25.2435 21.2145 26.8104C22.7813 28.3523 25.2933 28.3523 26.8352 26.8104ZM24 0C37.256 0 48 10.744 48 24C48 37.256 37.256 48 24 48C10.744 48 0 37.256 0 24C0 10.744 10.744 0 24 0ZM36.7834 18.9016C38.8974 16.7876 38.8974 13.3554 36.7834 11.2166C34.6694 9.10259 31.2373 9.10259 29.0984 11.2166C28.3026 12.0124 27.8301 12.9824 27.6062 13.9772C23.7513 12.5347 19.3492 13.4549 16.4145 16.3896C13.4798 19.3244 12.5596 23.7513 14.0269 27.6062C13.0073 27.8052 12.0373 28.3026 11.2415 29.0984C9.12746 31.2124 9.12746 34.6446 11.2415 36.7834C13.3554 38.8974 16.7876 38.8974 18.9264 36.7834C19.7223 35.9876 20.2197 34.9927 20.4187 33.9731C21.6124 34.4207 22.856 34.6446 24.0995 34.6446C26.8601 34.6446 29.571 33.5751 31.5855 31.5606C34.5202 28.6259 35.4404 24.2487 34.0228 20.4187C35.0176 20.1699 35.9876 19.6725 36.7834 18.9016Z" fill="#38A2FF"/>
</svg>
