<svg width="48" height="48" viewBox="0 0 48 48" fill="none" xmlns="http://www.w3.org/2000/svg">
<circle cx="24" cy="24" r="24" fill="#4B7F89"/>
<path d="M10.3025 14.023C9.86472 14.0574 9.5278 14.1262 9.54674 14.1779C9.72134 14.5935 10.801 17.0405 10.8157 17.0552C10.8305 17.07 11.0813 17.0872 11.3764 17.0995C12.6848 17.1487 13.7201 17.4044 14.8391 17.9578C15.6433 18.3537 16.2384 18.7792 16.8581 19.3965C17.7705 20.3064 18.3657 21.3171 18.7149 22.5542C18.7542 22.6968 18.7862 22.8247 18.7862 22.8443C18.7862 22.8714 18.587 22.8763 17.7066 22.8763C17.1114 22.8763 16.5999 22.8862 16.5679 22.8984C16.5212 22.9157 16.3982 23.1813 15.8867 24.3543C15.5424 25.1438 15.2571 25.8078 15.2522 25.8299C15.235 25.8938 15.4416 25.9504 15.958 26.0266C16.0638 26.0438 16.6983 26.0611 17.4484 26.0709L18.7542 26.0857L18.6755 26.3562C17.7951 29.3417 15.0629 31.4296 11.7158 31.6805C11.5264 31.6928 11.2781 31.7051 11.1625 31.7051H10.9534L10.3091 33.188C9.75577 34.4545 9.6697 34.671 9.70659 34.6833C9.87382 34.7447 10.2476 34.7669 11.1133 34.7669C12.22 34.7669 12.7585 34.7177 13.6709 34.5308C17.3967 33.7659 20.4929 31.3952 21.8947 28.2277C22.1652 27.6178 22.4825 26.6144 22.539 26.1939L22.5563 26.0734H25.3524L25.3623 26.1275C25.5639 27.1161 25.7828 27.7825 26.1615 28.5695C27.3002 30.9402 29.4348 32.8757 32.0785 33.9381C33.6839 34.581 35.4035 34.8898 37.1323 34.8456C37.8553 34.8234 38.4308 34.7423 38.4013 34.666C38.3767 34.6021 37.152 31.7912 37.1446 31.7838C37.1372 31.7764 36.8839 31.7666 36.5765 31.7543C35.7133 31.7198 35.0641 31.619 34.3312 31.41C33.2024 31.0853 32.0859 30.4976 31.2301 29.7795C30.1529 28.872 29.3733 27.7432 28.9602 26.4914C28.9135 26.3488 28.8667 26.1988 28.8593 26.1545L28.8421 26.0758L29.8947 26.0684C30.4726 26.0635 30.9645 26.0512 30.9842 26.0414C31.0161 26.0242 32.2753 23.169 32.2753 23.1124C32.2753 23.0755 31.958 22.9821 31.6703 22.9353C31.4588 22.9009 31.1907 22.8911 30.121 22.8837L28.8249 22.8714L28.8741 22.6968C29.5922 20.1539 31.7957 18.1349 34.6362 17.4192C35.2633 17.2618 35.8732 17.1807 36.6651 17.1487C37.1372 17.129 37.1963 17.1216 37.2258 17.0823C37.2454 17.0552 37.5356 16.4035 37.8701 15.6338C38.2808 14.6919 38.4702 14.2271 38.4529 14.2148C38.3988 14.1853 38.0545 14.1238 37.784 14.0967C37.3905 14.0549 36.2421 14.0623 35.7355 14.1066C32.8384 14.3648 30.2267 15.5329 28.2691 17.4413C27.0739 18.607 26.2353 19.9154 25.7189 21.4253C25.5861 21.8065 25.4262 22.4066 25.377 22.6968L25.3475 22.8763H22.5988L22.589 22.8198C22.5816 22.7902 22.5545 22.6501 22.525 22.5074C22.1192 20.4908 20.9732 18.5308 19.355 17.0872C17.513 15.442 15.2161 14.4115 12.688 14.0985C11.928 14.0057 10.9485 13.9738 10.3025 14.023Z" fill="white"/>
</svg>
