<svg width="48" height="48" viewBox="0 0 48 48" fill="none" xmlns="http://www.w3.org/2000/svg">
<path fill-rule="evenodd" clip-rule="evenodd" d="M29.0543 14.6015C29.0543 7.78953 25.7344 1.93154 23.2092 0.0239348C23.1988 0.0179348 23.0159 -0.0848651 23.0315 0.187535L23.0279 0.195935C22.8182 13.3483 16.096 16.9131 12.4003 21.7151C3.87158 32.7967 11.8032 44.9463 19.8801 47.1919C24.3993 48.4484 18.8364 44.9688 18.1201 37.6191C17.2537 28.7359 29.0543 21.9552 29.0543 14.6015Z" fill="#111114"/>
<path fill-rule="evenodd" clip-rule="evenodd" d="M32.9295 19.0794C32.8778 19.0442 32.8041 19.0202 32.7535 19.1042C32.6145 20.7598 30.9225 24.3014 28.7779 27.5534C21.5042 38.5843 25.6493 43.9018 27.98 46.7578C29.3334 48.4157 27.98 46.7578 31.3628 45.0634C31.6276 44.9307 37.963 41.3794 38.649 33.2883C39.3131 25.453 34.605 20.5142 32.9295 19.0794Z" fill="#2483FF"/>
</svg>
