<svg width="48" height="48" viewBox="0 0 48 48" fill="none" xmlns="http://www.w3.org/2000/svg">
<path d="M36.3405 12.2295C33.659 12.2295 30.7339 13.6587 27.6463 16.4763C26.1838 17.8034 24.9041 19.2326 23.9697 20.376C23.9697 20.376 25.4728 22.0706 27.1182 23.8878C28.012 22.7852 29.2917 21.2947 30.7745 19.9472C33.5168 17.4359 35.3043 16.9255 36.3405 16.9255C40.1998 16.9255 43.3281 20.0901 43.3281 24.0103C43.3281 27.8895 40.1998 31.0542 36.3405 31.095C36.1574 31.095 35.9339 31.0746 35.67 31.0134C36.7871 31.5238 38.006 31.8913 39.1435 31.8913C46.2124 31.8913 47.5934 27.1136 47.6747 26.7666C47.8778 25.8886 48 24.9698 48 24.0307C47.9795 17.5175 42.7593 12.2295 36.3405 12.2295Z" fill="url(#paint0_linear)"/>
<path d="M11.6597 35.7707C14.341 35.7707 17.266 34.3415 20.3536 31.5239C21.8161 30.1968 23.0959 28.7676 24.0303 27.6242C24.0303 27.6242 22.5271 25.9296 20.8817 24.1124C19.988 25.215 18.7082 26.7055 17.2254 28.053C14.4832 30.5439 12.6753 31.0747 11.6597 31.0747C7.80017 31.0747 4.67196 27.9101 4.67196 23.9899C4.67196 20.1106 7.80017 16.946 11.6597 16.9052C11.8425 16.9052 12.0659 16.9256 12.33 16.9868C11.2128 16.4764 9.99398 16.1089 8.85646 16.1089C1.78753 16.1089 0.406231 20.8865 0.325005 21.2336C0.121889 22.1116 0 23.0304 0 23.9695C0 30.4826 5.22044 35.7707 11.6597 35.7707Z" fill="url(#paint1_linear)"/>
<path fill-rule="evenodd" clip-rule="evenodd" d="M17.0337 20.0493C16.2618 19.3143 12.4836 16.3129 8.86785 16.2109C2.42438 16.0524 0.530255 20.6396 0.366948 21.2312C1.60116 16.0873 6.20177 12.2499 11.6711 12.2295C16.1298 12.2295 20.6355 16.5107 23.9645 20.3744C23.97 20.3679 23.9752 20.3615 23.9803 20.3555C23.9803 20.3555 25.4834 22.0501 27.1288 23.8672C27.1288 23.8672 28.9976 26.0315 30.9883 27.9302C31.7602 28.6653 35.5179 31.6258 39.1337 31.7279C45.756 31.9116 47.5841 27.0728 47.6854 26.7052C46.467 31.8708 41.8558 35.7296 36.3711 35.7501C31.911 35.7501 27.4038 31.4661 24.0606 27.6013C24.054 27.6092 24.0477 27.6168 24.0416 27.6241C24.0416 27.6241 22.5385 25.9295 20.8931 24.1123C20.8931 24.1123 19.0244 21.9481 17.0337 20.0493ZM0.356689 21.2743C0.358515 21.2639 0.361907 21.2495 0.366948 21.2312C0.363502 21.2456 0.360083 21.26 0.356689 21.2743Z" fill="#29ABE2"/>
<defs>
<linearGradient id="paint0_linear" x1="30.2251" y1="13.9343" x2="46.3602" y2="30.5575" gradientUnits="userSpaceOnUse">
<stop offset="0.21" stop-color="#F15A24"/>
<stop offset="0.6841" stop-color="#FBB03B"/>
</linearGradient>
<linearGradient id="paint1_linear" x1="17.7618" y1="34.0571" x2="1.62656" y2="17.434" gradientUnits="userSpaceOnUse">
<stop offset="0.21" stop-color="#ED1E79"/>
<stop offset="0.8929" stop-color="#522785"/>
</linearGradient>
</defs>
</svg>
