<svg width="48" height="48" viewBox="0 0 48 48" fill="none" xmlns="http://www.w3.org/2000/svg">
<path d="M42.2071 9.58621C44.3019 9.58621 46 7.88798 46 5.79311C46 3.69823 44.3019 2 42.2071 2C40.1119 2 38.4138 3.69823 38.4138 5.79311C38.4138 7.88798 40.1119 9.58621 42.2071 9.58621Z" fill="#18A0B1"/>
<path d="M13.0455 30.5088C11.617 28.0837 11.0345 25.2527 11.3897 22.4606C11.7448 19.6686 13.0175 17.0736 15.0077 15.0834C16.9979 13.0932 19.5929 11.8205 22.385 11.4654C25.177 11.1102 28.008 11.6926 30.4331 13.1212L33.4676 10.0867L33.3159 9.96534C30.052 7.81398 26.1433 6.86045 22.2555 7.26711C18.3676 7.6738 14.7409 9.41555 11.9929 12.1957C9.24486 14.9759 7.5455 18.6227 7.18415 22.5151C6.8228 26.4074 7.8218 30.3047 10.011 33.5432L13.0455 30.5088Z" fill="#18A0B1"/>
<path d="M34.9542 17.6579C36.3829 20.083 36.9652 22.9139 36.6101 25.706C36.2548 28.4981 34.9822 31.0931 32.992 33.0833C31.0018 35.0735 28.4068 36.3461 25.6147 36.7012C22.8226 37.0566 19.9917 36.474 17.5666 35.0454L14.5321 38.08C17.7822 40.2865 21.6998 41.2909 25.6105 40.9204C29.5213 40.5495 33.1805 38.8273 35.9582 36.0495C38.7359 33.2718 40.4584 29.6126 40.8289 25.7018C41.1995 21.791 40.1951 17.8734 37.9885 14.6234L34.9542 17.6579Z" fill="#18A0B1"/>
<path d="M5.79311 46C7.88798 46 9.58621 44.3015 9.58621 42.2067C9.58621 40.1119 7.88798 38.4137 5.79311 38.4137C3.69823 38.4137 2 40.1119 2 42.2067C2 44.3015 3.69823 46 5.79311 46Z" fill="#18A0B1"/>
</svg>
