<svg width="48" height="48" viewBox="0 0 48 48" fill="none" xmlns="http://www.w3.org/2000/svg">
<g clip-path="url(#clip0)">
<path d="M24 47.3446C36.8929 47.3446 47.3446 36.8929 47.3446 24C47.3446 11.1071 36.8929 0.655396 24 0.655396C11.1071 0.655396 0.65538 11.1071 0.65538 24C0.65538 36.8929 11.1071 47.3446 24 47.3446Z" fill="white"/>
<path d="M24 -0.000194525C28.7468 -0.000194525 33.3869 1.40738 37.3337 4.04454C41.2805 6.68169 44.3566 10.43 46.1731 14.8154C47.9896 19.2008 48.4649 24.0264 47.5388 28.682C46.6128 33.3375 44.327 37.6139 40.9706 40.9704C37.6141 44.3268 33.3377 46.6126 28.6822 47.5387C24.0266 48.4647 19.201 47.9894 14.8156 46.1729C10.4302 44.3564 6.68188 41.2803 4.04473 37.3335C1.40758 33.3867 0 28.7466 0 23.9998L0 23.7444C0.129231 10.6583 10.8246 -0.0340407 24 -0.000194525ZM24.5108 1.74134C11.7662 1.74442 1.80923 11.6921 1.75692 23.8614C1.70154 36.1506 11.6923 46.2614 24 46.2183C30.0954 46.1967 35.36 44.0398 39.6677 39.7414C44.5692 34.8521 46.7169 28.8552 46.1569 21.9875C45.7649 16.7985 43.4873 11.9325 39.7538 8.3075C35.4123 3.99981 30.1323 1.82134 24.5046 1.74134H24.5108Z" fill="#333333"/>
<path d="M45.5631 21.6431C45.1038 16.7479 42.9232 12.1742 39.4092 8.73538C35.16 4.47076 29.9815 2.30461 23.9446 2.29538C18.2796 2.41011 12.8842 4.73624 8.91161 8.77658C4.93904 12.8169 2.7045 18.2509 2.68561 23.9171C2.66673 29.5832 4.86499 35.032 8.81053 39.0987C12.7561 43.1655 18.1359 45.5275 23.8 45.68C29.8123 45.7231 35.0277 43.6185 39.2738 39.3661C44.1508 34.4862 46.2554 28.5261 45.5631 21.6431ZM33.3692 7.11692C33.5 7.11937 33.6272 7.16056 33.7346 7.23527C33.842 7.30998 33.9248 7.41486 33.9726 7.53665C34.0204 7.65843 34.031 7.79166 34.0031 7.91948C33.9752 8.04729 33.91 8.16396 33.8158 8.25474C33.7216 8.34551 33.6026 8.40631 33.4738 8.42945C33.345 8.45259 33.2123 8.43703 33.0924 8.38473C32.9725 8.33243 32.8707 8.24575 32.8001 8.13565C32.7294 8.02554 32.693 7.89696 32.6954 7.76615C32.6994 7.59095 32.7725 7.42444 32.8987 7.30285C33.0249 7.18126 33.194 7.11444 33.3692 7.11692ZM30.4 5.73538C30.5798 5.73619 30.752 5.8082 30.8788 5.93563C31.0057 6.06307 31.0769 6.23556 31.0769 6.41538C31.0745 6.50186 31.0551 6.58702 31.0198 6.666C30.9845 6.74498 30.9339 6.81622 30.8711 6.87565C30.8082 6.93509 30.7343 6.98155 30.6534 7.01239C30.5726 7.04323 30.4865 7.05784 30.4 7.05538C30.3159 7.0566 30.2325 7.04125 30.1544 7.01021C30.0762 6.97917 30.005 6.93305 29.9447 6.87448C29.8844 6.8159 29.8363 6.74602 29.803 6.66884C29.7697 6.59165 29.752 6.50866 29.7508 6.42461V6.39384C29.7523 6.22128 29.8209 6.05608 29.9421 5.93319C30.0633 5.81031 30.2275 5.73937 30.4 5.73538ZM27.2738 4.88615C27.4435 4.90224 27.6027 4.97559 27.7251 5.09414C27.8476 5.21269 27.9261 5.36938 27.9477 5.53846C27.9358 5.72182 27.8538 5.89355 27.7185 6.01791C27.5832 6.14228 27.4052 6.2097 27.2215 6.20615C27.049 6.19976 26.8858 6.1265 26.7663 6.00189C26.6469 5.87727 26.5806 5.71107 26.5815 5.53846C26.5895 5.36107 26.6663 5.19376 26.7955 5.072C26.9247 4.95023 27.0963 4.88357 27.2738 4.88615ZM24 4.61538C24.1301 4.61478 24.2575 4.65273 24.366 4.72444C24.4746 4.79615 24.5594 4.89842 24.6099 5.01832C24.6604 5.13823 24.6742 5.2704 24.6497 5.39816C24.6251 5.52592 24.5632 5.64353 24.4719 5.73617C24.3805 5.8288 24.2638 5.8923 24.1364 5.91865C24.009 5.945 23.8766 5.93302 23.756 5.88421C23.6354 5.83541 23.532 5.75198 23.4588 5.64444C23.3856 5.53691 23.3458 5.41009 23.3446 5.27999C23.3446 5.10532 23.4133 4.93765 23.536 4.81327C23.6586 4.6889 23.8253 4.61781 24 4.61538ZM20.7661 4.88923C20.9355 4.89812 21.0955 4.96937 21.2154 5.08925C21.3352 5.20913 21.4065 5.36915 21.4154 5.53846C21.4154 5.62519 21.3982 5.71106 21.365 5.79115C21.3317 5.87124 21.2829 5.94397 21.2214 6.00515C21.16 6.06633 21.087 6.11477 21.0068 6.14768C20.9265 6.18059 20.8406 6.19732 20.7538 6.19692H20.7292C20.6436 6.19611 20.5589 6.17844 20.4801 6.14492C20.4012 6.11139 20.3298 6.06266 20.2698 6.00152C20.2098 5.94037 20.1624 5.86801 20.1304 5.78856C20.0983 5.7091 20.0823 5.62412 20.0831 5.53846C20.0909 5.36479 20.1646 5.20063 20.2892 5.07943C20.4139 4.95823 20.58 4.88911 20.7538 4.88615L20.7661 4.88923ZM17.6031 5.73538C17.7775 5.73781 17.9438 5.809 18.066 5.93347C18.1881 6.05793 18.2562 6.2256 18.2554 6.39999C18.2595 6.5682 18.1973 6.73127 18.0821 6.85393C17.967 6.97659 17.8081 7.04896 17.64 7.05538H17.6092C17.5218 7.05867 17.4347 7.04459 17.3527 7.01397C17.2708 6.98335 17.1958 6.9368 17.132 6.87699C17.0682 6.81719 17.0169 6.74533 16.981 6.66557C16.9451 6.5858 16.9255 6.49972 16.9231 6.4123C16.9216 6.40313 16.9216 6.39378 16.9231 6.38461C16.9317 6.20991 17.0071 6.04519 17.1336 5.9244C17.2601 5.80361 17.4282 5.73595 17.6031 5.73538ZM14.6308 7.11692C14.7174 7.11086 14.8045 7.12193 14.8868 7.1495C14.9692 7.17706 15.0454 7.22059 15.111 7.27759C15.1765 7.33459 15.2302 7.40395 15.269 7.48171C15.3078 7.55946 15.3309 7.64409 15.3369 7.73076C15.343 7.81744 15.3319 7.90445 15.3043 7.98685C15.2768 8.06924 15.2332 8.1454 15.1762 8.21097C15.1192 8.27655 15.0499 8.33025 14.9721 8.36902C14.8944 8.40778 14.8097 8.43086 14.7231 8.43692H14.6308C14.4635 8.42549 14.3068 8.35099 14.1924 8.22847C14.078 8.10596 14.0143 7.94456 14.0143 7.77692C14.0143 7.60927 14.078 7.44788 14.1924 7.32536C14.3068 7.20285 14.4635 7.12834 14.6308 7.11692ZM11.9754 8.98461C12.1498 8.98858 12.3159 9.06006 12.4387 9.18402C12.5616 9.30798 12.6315 9.47475 12.6338 9.64923C12.633 9.82361 12.5634 9.99062 12.4401 10.1139C12.3168 10.2372 12.1498 10.3069 11.9754 10.3077C11.8915 10.311 11.8077 10.2976 11.729 10.2685C11.6503 10.2393 11.5781 10.1948 11.5166 10.1376C11.4551 10.0804 11.4056 10.0116 11.3708 9.9352C11.336 9.85878 11.3166 9.77623 11.3138 9.6923C11.3122 9.68108 11.3122 9.66968 11.3138 9.65846C11.308 9.48482 11.371 9.31592 11.4892 9.18855C11.6073 9.06118 11.771 8.98567 11.9446 8.97846L11.9754 8.98461ZM9.67999 11.2892C9.85465 11.2956 10.0198 11.3706 10.1395 11.4979C10.2593 11.6252 10.3242 11.7945 10.32 11.9692C10.3168 12.1433 10.2447 12.3091 10.1196 12.4302C9.99442 12.5513 9.82642 12.6179 9.6523 12.6154C9.47805 12.6099 9.31246 12.5381 9.18947 12.4145C9.06648 12.291 8.99539 12.125 8.99076 11.9508C8.9979 11.7733 9.07323 11.6055 9.20106 11.4823C9.32889 11.359 9.49935 11.2899 9.67692 11.2892H9.67999ZM7.79384 13.9723C7.96152 13.969 8.12381 14.0316 8.2458 14.1466C8.36779 14.2617 8.43973 14.4201 8.44615 14.5877C8.4492 14.5967 8.4492 14.6064 8.44615 14.6154C8.44862 14.7903 8.3817 14.9591 8.26002 15.0848C8.13835 15.2105 7.97184 15.2829 7.79692 15.2861C7.61785 15.283 7.44705 15.2102 7.3207 15.0833C7.19435 14.9564 7.12236 14.7852 7.11999 14.6061C7.12637 14.4326 7.19984 14.2682 7.32495 14.1477C7.45006 14.0272 7.61705 13.9599 7.79076 13.96L7.79384 13.9723ZM6.41538 16.9231C6.59221 16.9255 6.76092 16.9977 6.88481 17.1239C7.0087 17.2501 7.07775 17.4201 7.07692 17.5969V17.6123C7.06148 17.7816 6.98201 17.9387 6.85472 18.0515C6.72743 18.1642 6.56192 18.2242 6.39195 18.2191C6.22198 18.214 6.06036 18.1442 5.94006 18.024C5.81977 17.9038 5.74986 17.7423 5.74461 17.5723C5.75171 17.3987 5.82532 17.2344 5.95018 17.1136C6.07505 16.9927 6.24161 16.9245 6.41538 16.9231ZM5.55384 20.0708C5.73288 20.0716 5.90446 20.1426 6.03163 20.2686C6.15881 20.3947 6.23142 20.5656 6.23384 20.7446C6.22901 20.9187 6.15602 21.084 6.03057 21.2048C5.90512 21.3257 5.73725 21.3924 5.56307 21.3908C5.47943 21.3912 5.39653 21.3751 5.3191 21.3435C5.24167 21.3118 5.17123 21.2653 5.1118 21.2064C5.05237 21.1475 5.00511 21.0775 4.97273 21.0004C4.94035 20.9233 4.92347 20.8406 4.92307 20.7569C4.92132 20.5851 4.98649 20.4193 5.10479 20.2947C5.2231 20.1701 5.38524 20.0964 5.55692 20.0892L5.55384 20.0708ZM4.61538 24C4.61988 23.8256 4.69033 23.6594 4.81253 23.535C4.93473 23.4105 5.09958 23.337 5.27384 23.3292C5.36031 23.3284 5.4461 23.3446 5.5263 23.377C5.6065 23.4093 5.67954 23.4572 5.74125 23.5177C5.80297 23.5783 5.85215 23.6504 5.88599 23.73C5.91982 23.8096 5.93765 23.8951 5.93846 23.9815C5.94683 24.1533 5.88674 24.3213 5.77137 24.4488C5.656 24.5763 5.49478 24.6528 5.32307 24.6615H5.25538C5.08544 24.6509 4.92561 24.5771 4.80722 24.4547C4.68883 24.3324 4.62041 24.1702 4.61538 24ZM4.92307 27.2462C4.92304 27.072 4.99137 26.9048 5.11336 26.7805C5.23535 26.6562 5.40125 26.5848 5.57538 26.5815C5.75416 26.5847 5.92462 26.6576 6.05048 26.7846C6.17634 26.9116 6.24765 27.0827 6.24923 27.2615C6.24683 27.348 6.22743 27.4332 6.19211 27.5122C6.15679 27.5911 6.10625 27.6624 6.04339 27.7218C5.98052 27.7812 5.90656 27.8277 5.82573 27.8585C5.7449 27.8894 5.65878 27.904 5.5723 27.9015C5.4047 27.9057 5.24229 27.8432 5.12061 27.7279C4.99893 27.6126 4.9279 27.4537 4.92307 27.2861V27.2492V27.2462ZM6.43076 31.0554C6.25605 31.0587 6.08705 30.9931 5.96036 30.8727C5.83367 30.7524 5.75947 30.587 5.75384 30.4123C5.7554 30.2332 5.8266 30.0618 5.95238 29.9343C6.07816 29.8068 6.24863 29.7332 6.42769 29.7292C6.5995 29.737 6.76201 29.8095 6.88248 29.9322C7.00294 30.055 7.07242 30.2188 7.07692 30.3908C7.07611 30.5651 7.00647 30.7322 6.88316 30.8555C6.75985 30.9788 6.59284 31.0484 6.41846 31.0492L6.43076 31.0554ZM7.80615 34.0185C7.6321 34.0162 7.46553 33.9474 7.34074 33.826C7.21595 33.7047 7.14245 33.5401 7.13538 33.3662C7.13537 33.1901 7.20487 33.0212 7.32876 32.8962C7.45265 32.7711 7.6209 32.7001 7.79692 32.6985H7.8123C7.97998 32.6951 8.14227 32.7577 8.26426 32.8728C8.38625 32.9879 8.45819 33.1463 8.46461 33.3138C8.46613 33.3251 8.46613 33.3365 8.46461 33.3477C8.46502 33.4336 8.44844 33.5188 8.41584 33.5983C8.38324 33.6778 8.33526 33.75 8.27464 33.8109C8.21403 33.8718 8.14199 33.9202 8.06264 33.9531C7.9833 33.9861 7.89822 34.0031 7.8123 34.0031H7.79384L7.80615 34.0185ZM7.80615 28.8492L7.83999 28.7292H14.8554C16.6769 28.7292 16.6769 28.7292 16.6769 26.8831C16.6769 25.3446 16.6769 23.8062 16.6769 22.2677C16.6769 21.7662 16.7446 21.5323 17.3446 21.5569C18.6646 21.6123 19.9908 21.5938 21.3108 21.5569C21.7723 21.5569 21.9261 21.6985 21.9261 22.1508C21.9138 24.7313 21.9138 27.3149 21.9261 29.9015C21.9261 30.3938 21.7723 30.6431 21.2523 30.5938C21.1009 30.5785 20.9483 30.5785 20.7969 30.5938C20.2031 30.6585 20 30.4277 20 29.8461C20.0277 27.9785 20 26.1138 20 24.2462C20 23.7323 19.84 23.4954 19.2892 23.4954C18.7385 23.4954 18.5569 23.6677 18.5661 24.2154C18.5908 26.0831 18.5661 27.9508 18.5877 29.8154C18.5877 30.4308 18.4 30.6031 17.8061 30.5938C15.9169 30.5631 14.0215 30.68 12.1446 30.5415C11.2585 30.4769 10.4 29.9785 9.54153 29.64C8.95999 29.4123 8.38153 29.1138 7.79384 28.8431L7.80615 28.8492ZM9.74769 36.7015C9.65917 36.7118 9.56949 36.7045 9.4838 36.68C9.39811 36.6556 9.31809 36.6144 9.24834 36.559C9.17859 36.5035 9.12047 36.4348 9.07733 36.3569C9.03418 36.2789 9.00686 36.1932 8.99692 36.1046C8.99395 36.0698 8.99395 36.0348 8.99692 36C9.00762 35.8211 9.08494 35.6527 9.21366 35.5279C9.34237 35.4032 9.51314 35.3312 9.6923 35.3261C9.87187 35.3498 10.0374 35.4357 10.16 35.569C10.2827 35.7023 10.3545 35.8745 10.3631 36.0554C10.3381 36.2125 10.2658 36.3582 10.1559 36.4731C10.0459 36.588 9.90351 36.6666 9.74769 36.6985V36.7015ZM11.9631 38.9877C11.7941 38.9877 11.6321 38.9206 11.5127 38.8011C11.3933 38.6817 11.3261 38.5197 11.3261 38.3508V38.32C11.3274 38.2327 11.3457 38.1465 11.3803 38.0664C11.4148 37.9862 11.4647 37.9136 11.5273 37.8527C11.5899 37.7919 11.6638 37.7439 11.7449 37.7117C11.826 37.6794 11.9127 37.6634 12 37.6646C12.1745 37.6701 12.3402 37.7425 12.4627 37.8668C12.5853 37.9911 12.6554 38.1578 12.6585 38.3323C12.6581 38.4184 12.6407 38.5035 12.6074 38.5829C12.5741 38.6622 12.5255 38.7343 12.4643 38.7948C12.4032 38.8554 12.3307 38.9033 12.251 38.9359C12.1714 38.9685 12.0861 38.985 12 38.9846H11.9754L11.9631 38.9877ZM14.6646 40.8615C14.5805 40.8648 14.4967 40.8515 14.4178 40.8224C14.3388 40.7932 14.2664 40.7488 14.2047 40.6916C14.143 40.6345 14.0931 40.5657 14.058 40.4893C14.0229 40.4128 14.0032 40.3302 14 40.2462C13.9985 40.238 13.9985 40.2297 14 40.2215C13.995 40.0455 14.0598 39.8746 14.1802 39.746C14.3007 39.6175 14.467 39.5418 14.6431 39.5354H14.6615C14.836 39.5394 15.0021 39.6108 15.1249 39.7348C15.2477 39.8588 15.3176 40.0255 15.32 40.2C15.3212 40.2862 15.3053 40.3717 15.2733 40.4517C15.2413 40.5318 15.1937 40.6046 15.1333 40.6661C15.0729 40.7276 15.001 40.7766 14.9216 40.8101C14.8422 40.8437 14.7569 40.8611 14.6708 40.8615H14.6646ZM17.6246 42.2369C17.4506 42.2471 17.2796 42.1881 17.1488 42.0729C17.018 41.9576 16.938 41.7954 16.9261 41.6215C16.9261 41.6215 16.9261 41.5969 16.9261 41.5846C16.9338 41.4106 17.0068 41.2458 17.1305 41.1232C17.2543 41.0006 17.4197 40.9291 17.5938 40.9231C17.7685 40.9239 17.9358 40.9934 18.0597 41.1166C18.1835 41.2399 18.2538 41.4069 18.2554 41.5815C18.2595 41.7494 18.1972 41.9122 18.0819 42.0343C17.9667 42.1565 17.8079 42.2282 17.64 42.2338L17.6246 42.2369ZM15.12 32.24C14.5354 32.0061 13.9754 31.7108 13.4031 31.4431L13.4738 31.2554H22.4615C23.8523 31.2554 23.6738 31.3785 23.6923 30.0246C23.6923 26.0246 23.6923 21.9908 23.6923 17.9754C23.6923 17.3138 23.8738 17.1138 24.5354 17.1385C25.8154 17.1877 27.0954 17.1692 28.3785 17.1385C28.84 17.1385 29.0461 17.2585 29.0461 17.7538C29.0461 22.7262 29.0461 27.6974 29.0461 32.6677C29.0461 33.2031 28.8185 33.3692 28.3261 33.2831C28.1592 33.2388 27.9879 33.213 27.8154 33.2062C27 33.2338 26.9969 33.24 26.9969 32.3846V20.0769C26.9969 19.7385 27.1261 19.3015 26.5631 19.2123C25.9046 19.1077 25.7077 19.2615 25.7077 19.9508V32.4554C25.7077 33.3046 25.7077 33.3077 24.8338 33.3077C22.6615 33.3077 20.4923 33.2769 18.32 33.3077C17.0892 33.3569 16.1661 32.6523 15.1261 32.24H15.12ZM20.7661 43.0769C20.592 43.0827 20.4227 43.0193 20.2952 42.9005C20.1677 42.7817 20.0926 42.6172 20.0861 42.4431C20.0846 42.4349 20.0846 42.4266 20.0861 42.4185C20.0843 42.2865 20.1217 42.1571 20.1934 42.0463C20.2651 41.9356 20.368 41.8486 20.4891 41.7963C20.6102 41.744 20.7441 41.7288 20.8739 41.7525C21.0037 41.7763 21.1235 41.8379 21.2183 41.9297C21.313 42.0214 21.3785 42.1392 21.4064 42.2682C21.4343 42.3971 21.4233 42.5314 21.375 42.6541C21.3266 42.7769 21.243 42.8825 21.1346 42.9578C21.0263 43.033 20.898 43.0745 20.7661 43.0769ZM24 43.3846C23.821 43.3814 23.6506 43.3074 23.526 43.1788C23.4015 43.0502 23.3329 42.8775 23.3354 42.6985C23.339 42.5671 23.3813 42.4398 23.457 42.3324C23.5327 42.2249 23.6384 42.1423 23.7608 42.0946C23.8833 42.047 24.0171 42.0366 24.1454 42.0646C24.2738 42.0927 24.391 42.158 24.4824 42.2524C24.5738 42.3468 24.6354 42.466 24.6593 42.5952C24.6833 42.7244 24.6686 42.8578 24.6171 42.9786C24.5656 43.0995 24.4795 43.2025 24.3698 43.2747C24.26 43.3469 24.1314 43.3852 24 43.3846ZM27.2 43.0769C27.0305 43.0651 26.8721 42.9885 26.7575 42.8631C26.6429 42.7376 26.581 42.5729 26.5846 42.4031C26.5878 42.3154 26.6083 42.2292 26.6449 42.1494C26.6814 42.0697 26.7333 41.9979 26.7976 41.9382C26.8619 41.8784 26.9373 41.832 27.0195 41.8014C27.1018 41.7708 27.1892 41.7568 27.2769 41.76C27.3646 41.7632 27.4508 41.7837 27.5306 41.8202C27.6103 41.8568 27.6821 41.9087 27.7418 41.973C27.8016 42.0372 27.848 42.1127 27.8786 42.1949C27.9092 42.2772 27.9232 42.3646 27.92 42.4523C27.9089 42.6243 27.8308 42.785 27.7025 42.9001C27.5743 43.0151 27.406 43.0753 27.2338 43.0677L27.2 43.0769ZM30.3969 42.2338C30.2295 42.2364 30.0676 42.1735 29.9458 42.0586C29.824 41.9437 29.7518 41.7858 29.7446 41.6185V41.5877C29.7454 41.4138 29.8139 41.247 29.9358 41.1229C30.0576 40.9988 30.223 40.9271 30.3969 40.9231C30.5757 40.9263 30.7462 40.9991 30.872 41.1261C30.9979 41.2532 31.0692 41.4243 31.0708 41.6031C31.0628 41.7753 30.9879 41.9376 30.862 42.0554C30.7362 42.1732 30.5693 42.2372 30.3969 42.2338ZM33.3661 40.8554C33.2805 40.8574 33.1952 40.8426 33.1153 40.8117C33.0354 40.7808 32.9623 40.7344 32.9003 40.6753C32.8383 40.6161 32.7886 40.5453 32.754 40.4669C32.7193 40.3886 32.7005 40.3041 32.6985 40.2185C32.6976 40.0395 32.7677 39.8674 32.8935 39.74C33.0192 39.6125 33.1902 39.5401 33.3692 39.5385C33.5441 39.5417 33.7107 39.6141 33.8323 39.7398C33.954 39.8655 34.0209 40.0343 34.0185 40.2092C34.0226 40.3777 33.9605 40.5411 33.8454 40.6643C33.7303 40.7874 33.5715 40.8605 33.4031 40.8677H33.3754L33.3661 40.8554ZM33.9231 34.5077C34.0215 33.5292 33.88 19.7785 33.8831 15.6092C33.8831 15.2061 33.9261 14.8308 33.3077 14.84C32.8092 14.84 32.6923 15.0215 32.6923 15.4923C32.7108 17.6461 32.6585 33.8554 32.6585 33.8554V35.8923C32.4277 35.9169 32.24 35.9508 32.0431 35.9538C29.2246 35.9538 26.4031 36.0092 23.5877 35.9231C22.88 35.9015 22.1754 35.4523 21.4862 35.1631C20.6859 34.8433 19.9192 34.4454 19.1969 33.9754C19.3815 33.9754 19.5662 33.9415 19.7508 33.9415L29.1908 33.9815C30.6369 33.9815 30.6154 33.9815 30.6154 32.5908V13.5723C30.6154 13.04 30.7354 12.7938 31.3385 12.8123C32.7046 12.8554 34.0738 12.84 35.44 12.8123C35.8985 12.8123 36.0554 12.9692 36.0554 13.4277V35.0769C36.0554 35.9538 36.0554 35.9538 35.1508 35.9569C33.7538 35.9569 33.7754 35.9323 33.92 34.5138L33.9231 34.5077ZM36.0308 38.9815C35.8569 38.9824 35.6897 38.9147 35.5653 38.7932C35.4409 38.6717 35.3694 38.5061 35.3661 38.3323C35.3694 38.1535 35.4422 37.9831 35.5692 37.8572C35.6962 37.7313 35.8674 37.66 36.0462 37.6585C36.1326 37.6605 36.2179 37.6795 36.297 37.7144C36.3761 37.7494 36.4476 37.7996 36.5073 37.8621C36.567 37.9247 36.6138 37.9985 36.645 38.0791C36.6763 38.1598 36.6913 38.2458 36.6892 38.3323C36.6943 38.4162 36.6821 38.5002 36.6534 38.5792C36.6248 38.6581 36.5802 38.7304 36.5226 38.7915C36.4649 38.8526 36.3954 38.9013 36.3182 38.9345C36.241 38.9677 36.1579 38.9848 36.0738 38.9846H36.0277L36.0308 38.9815ZM36.0523 10.3046C35.88 10.3063 35.7138 10.2407 35.5891 10.1218C35.4644 10.0028 35.391 9.83991 35.3846 9.66769C35.3831 9.66059 35.3831 9.65325 35.3846 9.64615C35.3885 9.47215 35.4589 9.30625 35.5814 9.18261C35.7039 9.05897 35.8691 8.987 36.0431 8.98153C36.1294 8.98072 36.215 8.99697 36.2951 9.02935C36.3751 9.06173 36.4479 9.1096 36.5094 9.17022C36.5709 9.23083 36.6198 9.30299 36.6533 9.38255C36.6868 9.46212 36.7042 9.54751 36.7046 9.63384C36.7147 9.80233 36.6575 9.96794 36.5456 10.0943C36.4337 10.2206 36.2762 10.2974 36.1077 10.3077H36.0708L36.0523 10.3046ZM38.3292 36.68C38.162 36.6686 38.0053 36.5941 37.8909 36.4715C37.7764 36.349 37.7128 36.1876 37.7128 36.02C37.7128 35.8524 37.7764 35.691 37.8909 35.5684C38.0053 35.4459 38.162 35.3714 38.3292 35.36C38.4197 35.3538 38.5105 35.3663 38.5959 35.3967C38.6813 35.427 38.7596 35.4746 38.8259 35.5365C38.8921 35.5984 38.945 35.6733 38.9811 35.7565C39.0172 35.8396 39.0359 35.9293 39.0359 36.02C39.0359 36.1107 39.0172 36.2004 38.9811 36.2835C38.945 36.3667 38.8921 36.4416 38.8259 36.5035C38.7596 36.5653 38.6813 36.613 38.5959 36.6433C38.5105 36.6737 38.4197 36.6862 38.3292 36.68ZM38.3292 12.6246C38.1972 12.6246 38.0681 12.5855 37.9583 12.5121C37.8485 12.4387 37.7629 12.3344 37.7124 12.2124C37.6618 12.0904 37.6486 11.9562 37.6744 11.8267C37.7001 11.6971 37.7637 11.5782 37.8571 11.4848C37.9505 11.3914 38.0694 11.3278 38.199 11.3021C38.3285 11.2763 38.4627 11.2895 38.5847 11.3401C38.7067 11.3906 38.811 11.4762 38.8844 11.586C38.9578 11.6958 38.9969 11.8249 38.9969 11.9569C38.9945 12.1324 38.9231 12.2999 38.7981 12.4231C38.6732 12.5463 38.5047 12.6154 38.3292 12.6154V12.6246ZM43.0769 20.7477C43.0811 20.9153 43.0186 21.0777 42.9033 21.1994C42.788 21.3211 42.6291 21.3921 42.4615 21.3969H42.4246C42.2499 21.3978 42.0819 21.3298 41.957 21.2077C41.832 21.0856 41.7602 20.9193 41.7569 20.7446C41.7589 20.6541 41.7787 20.5649 41.8152 20.482C41.8517 20.3991 41.9042 20.3243 41.9696 20.2617C42.0351 20.1991 42.1122 20.1501 42.1966 20.1173C42.281 20.0845 42.371 20.0687 42.4615 20.0708C42.6316 20.0826 42.7904 20.1596 42.9051 20.2857C43.0197 20.4118 43.0813 20.5773 43.0769 20.7477ZM40.2031 13.9785C40.3775 13.9792 40.5447 14.0482 40.6689 14.1707C40.7931 14.2932 40.8645 14.4594 40.8677 14.6338C40.8637 14.8126 40.79 14.9828 40.6625 15.108C40.5349 15.2333 40.3634 15.3039 40.1846 15.3046C40.0105 15.2982 39.8459 15.2237 39.7262 15.097C39.6065 14.9704 39.5413 14.8019 39.5446 14.6277C39.5412 14.4597 39.6037 14.2971 39.7188 14.1746C39.8338 14.0521 39.9921 13.9795 40.16 13.9723H40.2062L40.2031 13.9785ZM40.2031 34.0185C40.0293 34.0185 39.8626 33.9494 39.7396 33.8265C39.6167 33.7036 39.5477 33.5369 39.5477 33.3631C39.5419 33.1938 39.6034 33.0292 39.7187 32.9052C39.8341 32.7812 39.9938 32.7079 40.1631 32.7015H40.1969C40.2843 32.6991 40.3713 32.714 40.4529 32.7453C40.5345 32.7767 40.6091 32.824 40.6723 32.8843C40.7355 32.9447 40.7862 33.017 40.8213 33.0971C40.8564 33.1771 40.8753 33.2634 40.8769 33.3508V33.3662C40.8706 33.539 40.7981 33.7028 40.6744 33.8236C40.5507 33.9445 40.3852 34.0131 40.2123 34.0154L40.2031 34.0185ZM41.5815 16.9231C41.7122 16.9231 41.8398 16.9619 41.9483 17.0347C42.0568 17.1075 42.1412 17.2109 42.1907 17.3317C42.2403 17.4526 42.2528 17.5855 42.2266 17.7134C42.2004 17.8414 42.1368 17.9587 42.0438 18.0504C41.9508 18.1421 41.8326 18.2041 41.7042 18.2284C41.5759 18.2528 41.4432 18.2384 41.3231 18.1872C41.2029 18.1359 41.1008 18.0501 41.0295 17.9406C40.9583 17.8311 40.9212 17.7029 40.9231 17.5723C40.9293 17.4005 41.001 17.2376 41.1234 17.1169C41.2458 16.9962 41.4097 16.9269 41.5815 16.9231ZM41.6031 31.0492C41.4289 31.0534 41.26 30.989 41.1328 30.8699C41.0056 30.7507 40.9303 30.5864 40.9231 30.4123C40.908 30.2356 40.9637 30.0602 41.0779 29.9246C41.1922 29.789 41.3556 29.7043 41.5323 29.6892C41.709 29.6741 41.8844 29.7298 42.02 29.8441C42.1556 29.9583 42.2403 30.1218 42.2554 30.2985C42.2585 30.3271 42.2585 30.356 42.2554 30.3846C42.2554 30.5588 42.1871 30.726 42.0651 30.8503C41.9431 30.9746 41.7772 31.046 41.6031 31.0492ZM42.4185 27.8954C42.2448 27.8914 42.0795 27.8203 41.9573 27.6969C41.835 27.5735 41.7654 27.4075 41.7631 27.2338C41.7703 27.0546 41.8474 26.8852 41.978 26.7621C42.1086 26.6391 42.2821 26.572 42.4615 26.5754C42.6327 26.5872 42.7925 26.6651 42.9073 26.7925C43.0221 26.92 43.0829 27.087 43.0769 27.2585C43.0773 27.342 43.0612 27.4247 43.0296 27.502C42.9979 27.5792 42.9513 27.6495 42.8924 27.7086C42.8335 27.7678 42.7635 27.8148 42.6863 27.8468C42.6092 27.8789 42.5266 27.8954 42.4431 27.8954H42.4185ZM42.7262 24.6461C42.6422 24.6494 42.5585 24.6361 42.4798 24.6069C42.401 24.5777 42.3289 24.5333 42.2674 24.4761C42.2059 24.4189 42.1563 24.3501 42.1215 24.2737C42.0867 24.1972 42.0674 24.1147 42.0646 24.0308C42.0631 24.0185 42.0631 24.0061 42.0646 23.9938C42.0565 23.9134 42.0644 23.8322 42.0877 23.7548C42.111 23.6775 42.1493 23.6054 42.2004 23.5429C42.2516 23.4803 42.3145 23.4284 42.3857 23.3902C42.4569 23.3519 42.535 23.3281 42.6154 23.32H42.6585C42.7508 23.3133 42.8435 23.3248 42.9314 23.354C43.0193 23.3832 43.1005 23.4294 43.1706 23.4899C43.2406 23.5505 43.298 23.6243 43.3394 23.7071C43.3809 23.7898 43.4057 23.88 43.4123 23.9723V24C43.4131 24.0848 43.3971 24.169 43.3651 24.2475C43.3331 24.3261 43.2858 24.3975 43.226 24.4576C43.1661 24.5177 43.0949 24.5654 43.0165 24.5977C42.9381 24.6301 42.854 24.6466 42.7692 24.6461H42.7292H42.7262Z" fill="#004B6A"/>
</g>
<defs>
<clipPath id="clip0">
<rect width="48" height="48" fill="white"/>
</clipPath>
</defs>
</svg>
