<svg width="48" height="48" viewBox="0 0 48 48" fill="none" xmlns="http://www.w3.org/2000/svg">
<path d="M30.2569 46.1037C30.1399 45.9868 30.023 45.8698 29.906 45.8698C27.2161 45.2851 24.5263 44.3494 22.1873 42.946C17.2753 40.0223 14.0007 35.6951 13.8837 30.6662C13.8837 28.795 14.2346 26.9238 15.0533 25.1695C15.5211 24 18.3279 20.0237 18.6787 19.322C20.5499 16.3982 19.9652 16.6321 17.2753 13.0066L13.5329 7.50992L11.0769 3.76749C9.67351 4.70309 8.2701 5.8726 6.98364 7.04211C4.41072 9.61503 2.42255 12.8897 1.25305 16.3982C0.0835363 19.9067 -0.267316 23.6491 0.200487 27.2746C0.668291 30.9001 2.0717 34.4086 4.17682 37.4493C6.28193 40.4901 9.08876 43.063 12.2464 44.8173C3.94292 38.7358 0.0835363 29.4967 3.24121 20.2576C4.05987 17.8016 5.34633 15.4626 6.98364 13.3575L9.67351 17.3338C9.79046 17.5677 9.90741 17.8016 9.90741 18.1524C9.90741 18.3863 9.79046 18.7372 9.67351 18.9711C8.38705 20.6084 7.33449 22.3627 6.63279 24.3508C3.12426 34.5256 12.5973 45.0512 22.5381 46.8054C24.4093 47.1563 27.9178 47.5071 29.7891 47.0393C29.906 47.0393 30.023 46.9224 30.023 46.9224C30.1399 46.8054 30.1399 46.8054 30.1399 46.6885C30.1399 46.5715 30.1399 46.4546 30.1399 46.3376C30.3738 46.3376 30.3738 46.2207 30.2569 46.1037Z" fill="url(#paint0_linear)"/>
<path d="M17.6262 1.89628C17.7431 2.01323 17.8601 2.13018 17.977 2.13018C20.6669 2.71493 23.3568 3.65054 25.6958 5.05395C30.6077 7.97772 33.8824 12.3049 33.9993 17.3338C33.9993 19.205 33.6485 21.0762 32.8298 22.8305C32.362 24 29.5552 27.9763 29.2043 28.678C27.3331 31.6018 27.9179 31.3679 30.6077 34.9934L34.3502 40.4901L36.9231 44.2325C38.3265 43.2969 39.7299 42.1274 41.0164 40.9579C43.5893 38.385 45.5774 35.1103 46.747 31.6018C47.9165 28.0933 48.2673 24.3509 47.7995 20.7254C47.3317 17.0999 45.9283 13.5914 43.8232 10.5506C41.7181 7.50992 38.9112 4.937 35.7536 3.18274C44.0571 9.26418 47.9165 18.5033 44.6418 27.7424C43.8232 30.1984 42.5367 32.5374 40.8994 34.6425L38.2095 30.6662C38.0926 30.4323 37.9756 30.1984 37.9756 29.8475C37.9756 29.6136 38.0926 29.2628 38.2095 29.0289C39.496 27.3916 40.5486 25.6373 41.2503 23.6491C44.7588 13.4744 35.2858 2.94884 25.3449 1.19457C23.4737 0.84372 19.9652 0.492868 18.094 0.960671C17.977 0.960671 17.8601 1.07762 17.8601 1.07762C17.6262 1.07762 17.5092 1.19457 17.5092 1.31152C17.5092 1.42847 17.5092 1.54543 17.5092 1.66238C17.5092 1.66238 17.5092 1.77933 17.6262 1.89628Z" fill="url(#paint1_linear)"/>
<defs>
<linearGradient id="paint0_linear" x1="8.93099" y1="42.9808" x2="26.4491" y2="12.6363" gradientUnits="userSpaceOnUse">
<stop stop-color="#174E5B"/>
<stop offset="0.07" stop-color="#195A6C"/>
<stop offset="0.21" stop-color="#1E779A"/>
<stop offset="0.4" stop-color="#27A7E3"/>
<stop offset="0.47" stop-color="#2ABAFF"/>
<stop offset="0.7" stop-color="#1DDAF0"/>
<stop offset="1" stop-color="#0EFFE0"/>
</linearGradient>
<linearGradient id="paint1_linear" x1="38.9553" y1="5.02015" x2="21.4359" y2="35.3622" gradientUnits="userSpaceOnUse">
<stop stop-color="#174E5B"/>
<stop offset="0.07" stop-color="#195A6C"/>
<stop offset="0.21" stop-color="#1E779A"/>
<stop offset="0.4" stop-color="#27A7E3"/>
<stop offset="0.47" stop-color="#2ABAFF"/>
<stop offset="0.7" stop-color="#1DDAF0"/>
<stop offset="1" stop-color="#0EFFE0"/>
</linearGradient>
</defs>
</svg>
