<svg width="48" height="48" viewBox="0 0 48 48" fill="none" xmlns="http://www.w3.org/2000/svg">
<path d="M24 0L3.21478 12V36L24 48L44.7852 36V12L24 0ZM24.4249 38.873L8.47113 29.7737L8.5358 25.3487L24.4157 34.4388L32.0739 30.0231L26.9376 27.0577L25.0162 28.1663L21.4134 26.097L23.3441 24.9792L20.8222 23.5196L19.2979 24.4065L15.6859 22.3372L17.2194 21.4503L9.08083 16.7483L24.4157 7.89838L38.8822 16.1478L35.0023 18.4018L24.4157 12.3326L16.7575 16.7483L21.0439 19.224L23.2333 17.9492L26.8453 20.0185L24.6374 21.2933L27.1594 22.7529L28.9515 21.709L32.5635 23.7783L30.7529 24.8314L39.7321 30.0139L24.4249 38.873Z" fill="black"/>
</svg>
