<svg width="48" height="48" viewBox="0 0 48 48" fill="none" xmlns="http://www.w3.org/2000/svg">
<path d="M33.9992 7.87248C35.343 7.87248 36.4329 6.77953 36.4329 5.43624C36.4329 4.09295 35.343 3 33.9992 3C32.6553 3.00611 31.5654 4.09905 31.5654 5.44234C31.5654 6.78563 32.6553 7.87248 33.9992 7.87248ZM34.7168 14.2043C35.8563 14.2043 36.779 13.2823 36.779 12.1405C36.779 11.0048 35.8563 10.0768 34.7168 10.0768C33.5774 10.0768 32.6547 10.9987 32.6547 12.1405C32.6547 13.2823 33.5774 14.2043 34.7168 14.2043ZM40.3773 15.0102C41.5105 15.0102 42.4332 14.0882 42.4332 12.9525C42.4332 11.8168 41.5105 10.8948 40.3773 10.8948C39.244 10.8948 38.3213 11.8168 38.3213 12.9525C38.3213 14.0882 39.244 15.0102 40.3773 15.0102ZM39.6975 20.4273C40.6698 20.4273 41.4562 19.6396 41.4562 18.6688C41.4562 17.698 40.6698 16.9103 39.6975 16.9103C38.7252 16.9103 37.9388 17.698 37.9388 18.6688C37.9388 19.6396 38.7252 20.4273 39.6975 20.4273ZM44.2289 22.1841C45.2073 22.1841 46 21.3903 46 20.4134C46 19.4364 45.2073 18.6427 44.2289 18.6427C43.2504 18.6427 42.4578 19.4364 42.4578 20.4134C42.4578 21.3903 43.2504 22.1841 44.2289 22.1841ZM34.0027 19.6943C34.9997 19.6943 35.8048 18.8883 35.8048 17.893C35.8048 16.8978 34.9997 16.0918 34.0027 16.0918C33.0057 16.0918 32.2006 16.8978 32.2006 17.893C32.2006 18.8822 33.0057 19.6943 34.0027 19.6943ZM32.3696 24.0048C33.2056 24.0048 33.8806 23.3271 33.8806 22.4967C33.8806 21.6602 33.2056 20.9885 32.3696 20.9885C31.5336 20.9885 30.8586 21.6663 30.8586 22.4967C30.8586 23.3271 31.5336 24.0048 32.3696 24.0048ZM38.0368 24.7667C38.8666 24.7667 39.5354 24.0951 39.5354 23.2647C39.5354 22.4343 38.8666 21.7626 38.0368 21.7626C37.207 21.7626 36.5382 22.4343 36.5382 23.2647C36.532 24.0951 37.207 24.7667 38.0368 24.7667ZM42.5554 26.5168C43.3914 26.5168 44.0664 25.8391 44.0664 25.0026C44.0664 24.1661 43.3914 23.4883 42.5554 23.4883C41.7194 23.4883 41.0444 24.1661 41.0444 25.0026C41.0444 25.8391 41.7194 26.5168 42.5554 26.5168ZM40.3232 29.7866C41.0292 29.7866 41.5989 29.2126 41.5989 28.5105C41.5989 27.8083 41.0292 27.2343 40.3232 27.2343C39.6172 27.2343 39.0475 27.8083 39.0475 28.5105C39.0475 29.2126 39.6172 29.7866 40.3232 29.7866ZM35.7833 28.0644C36.5016 28.0644 37.0899 27.4782 37.0899 26.7577C37.0899 26.0372 36.5078 25.4511 35.7833 25.4511C35.0587 25.4511 34.4766 26.0372 34.4766 26.7577C34.4766 27.4782 35.0649 28.0644 35.7833 28.0644ZM30.1236 27.2664C30.8357 27.2664 31.4178 26.6864 31.4178 25.972C31.4178 25.2576 30.8419 24.6776 30.1236 24.6776C29.4114 24.6776 28.8293 25.2576 28.8293 25.972C28.8293 26.6864 29.4052 27.2664 30.1236 27.2664ZM33.2695 30.3378C33.8949 30.3378 34.3965 29.831 34.3965 29.2143C34.3965 28.5915 33.8949 28.0909 33.2695 28.0909C32.644 28.0909 32.1424 28.5976 32.1424 29.2143C32.1424 29.8371 32.644 30.3378 33.2695 30.3378ZM37.8077 32.0886C38.4331 32.0886 38.9471 31.5818 38.9471 30.9529C38.9471 30.324 38.4393 29.8172 37.8077 29.8172C37.1822 29.8172 36.6682 30.324 36.6682 30.9529C36.6744 31.5818 37.1822 32.0886 37.8077 32.0886ZM35.2515 33.4023C35.7469 33.4023 36.1494 32.9994 36.1494 32.5048C36.1494 32.0102 35.7469 31.6072 35.2515 31.6072C34.7561 31.6072 34.3536 32.0102 34.3536 32.5048C34.3598 32.9994 34.7561 33.4023 35.2515 33.4023ZM32.8303 34.107C33.2823 34.107 33.6415 33.7406 33.6415 33.2949C33.6415 32.8431 33.2762 32.4828 32.8303 32.4828C32.3782 32.4828 32.019 32.8492 32.019 33.2949C32.0128 33.7467 32.3782 34.107 32.8303 34.107ZM30.7095 31.772C31.2421 31.772 31.6756 31.3384 31.6756 30.8072C31.6756 30.276 31.2421 29.8425 30.7095 29.8425C30.1769 29.8425 29.7435 30.276 29.7435 30.8072C29.7435 31.3384 30.1769 31.772 30.7095 31.772ZM27.5965 29.5582C28.2158 29.5582 28.7236 29.0575 28.7236 28.4347C28.7236 27.8119 28.222 27.3113 27.5965 27.3113C26.9772 27.3113 26.4694 27.8119 26.4694 28.4347C26.4756 29.0575 26.9772 29.5582 27.5965 29.5582ZM36.8266 43.628C38.1642 43.628 39.2479 42.5411 39.2479 41.2039C39.2479 39.8667 38.1642 38.7799 36.8266 38.7799C35.4889 38.7799 34.4052 39.8667 34.4052 41.2039C34.4052 42.5411 35.4889 43.628 36.8266 43.628ZM30.673 40.5588C31.7877 40.5588 32.6918 39.6552 32.6918 38.5378C32.6918 37.4204 31.7877 36.5168 30.673 36.5168C29.5583 36.5168 28.6542 37.4204 28.6542 38.5378C28.6542 39.6552 29.5583 40.5588 30.673 40.5588ZM27.1581 45C28.2851 45 29.1955 44.0902 29.1955 42.9606C29.1955 41.8372 28.2851 40.9213 27.1581 40.9213C26.031 40.9213 25.1207 41.8311 25.1207 42.9606C25.1207 44.0841 26.031 45 27.1581 45ZM26.1012 36.8175C27.0734 36.8175 27.8661 36.0298 27.8661 35.0529C27.8661 34.0759 27.0734 33.2883 26.1012 33.2883C25.1289 33.2883 24.3362 34.0759 24.3362 35.0529C24.3362 36.0237 25.1289 36.8175 26.1012 36.8175ZM22.5935 41.3184C23.5657 41.3184 24.3522 40.5307 24.3522 39.5599C24.3522 38.589 23.5657 37.8014 22.5935 37.8014C21.6212 37.8014 20.8348 38.589 20.8348 39.5599C20.8286 40.5307 21.6212 41.3184 22.5935 41.3184ZM18.8141 44.3747C19.7863 44.3747 20.5666 43.587 20.5666 42.6223C20.5666 41.6515 19.7801 40.8699 18.8141 40.8699C17.8418 40.8699 17.0615 41.6576 17.0615 42.6223C17.0615 43.587 17.848 44.3747 18.8141 44.3747ZM15.6685 40.3971C16.4922 40.3971 17.1672 39.7255 17.1672 38.9012C17.1672 38.0769 16.4984 37.4052 15.6685 37.4052C14.8449 37.4052 14.1699 38.0769 14.1699 38.9012C14.1761 39.7255 14.8449 40.3971 15.6685 40.3971ZM19.4549 37.3284C20.2847 37.3284 20.9535 36.6568 20.9535 35.8325C20.9535 35.0021 20.2847 34.3365 19.4549 34.3365C18.6251 34.3365 17.9563 35.0082 17.9563 35.8325C17.9563 36.6568 18.6251 37.3284 19.4549 37.3284ZM22.9883 32.8278C23.8182 32.8278 24.487 32.1561 24.487 31.3257C24.487 30.4954 23.8182 29.8237 22.9883 29.8237C22.1585 29.8237 21.4897 30.4954 21.4897 31.3257C21.4897 32.1561 22.1585 32.8278 22.9883 32.8278ZM17.584 33.4477C18.3024 33.4477 18.8845 32.8676 18.8845 32.1471C18.8845 31.4266 18.3024 30.8466 17.584 30.8466C16.8657 30.8466 16.2835 31.4266 16.2835 32.1471C16.2835 32.8676 16.8657 33.4477 17.584 33.4477ZM13.8175 36.5044C14.5297 36.5044 15.1056 35.9304 15.1056 35.216C15.1056 34.5016 14.5297 33.9277 13.8175 33.9277C13.1054 33.9277 12.5295 34.5016 12.5295 35.216C12.5295 35.9304 13.1054 36.5044 13.8175 36.5044ZM12.9506 32.9217C13.5636 32.9217 14.0653 32.421 14.0653 31.8104C14.0653 31.1937 13.5636 30.6992 12.9506 30.6992C12.3375 30.6992 11.8359 31.1998 11.8359 31.8104C11.8359 32.4271 12.3375 32.9217 12.9506 32.9217ZM12.9189 29.7785C13.4453 29.7785 13.8726 29.3511 13.8726 28.8199C13.8726 28.2948 13.4453 27.8613 12.9189 27.8613C12.3925 27.8613 11.9652 28.2887 11.9652 28.8199C11.9652 29.3511 12.3925 29.7785 12.9189 29.7785ZM13.4442 27.1644C13.8963 27.1644 14.2554 26.7981 14.2554 26.3523C14.2554 25.9066 13.8901 25.5403 13.4442 25.5403C12.9921 25.5403 12.6329 25.9066 12.6329 26.3523C12.6329 26.7981 12.9921 27.1644 13.4442 27.1644ZM16.692 26.7282C17.2246 26.7282 17.6581 26.2946 17.6581 25.7634C17.6581 25.2322 17.2246 24.7987 16.692 24.7987C16.1594 24.7987 15.726 25.2322 15.726 25.7634C15.726 26.2946 16.1594 26.7282 16.692 26.7282ZM20.2567 25.358C20.876 25.358 21.3838 24.8512 21.3838 24.2345C21.3838 23.6117 20.8822 23.111 20.2567 23.111C19.6375 23.111 19.1297 23.6178 19.1297 24.2345C19.1297 24.8573 19.6313 25.358 20.2567 25.358ZM21.1053 28.9231C21.8113 28.9231 22.3872 28.3491 22.3872 27.6409C22.3872 26.9326 21.8113 26.3586 21.1053 26.3586C20.3993 26.3586 19.8234 26.9326 19.8234 27.6409C19.8234 28.3491 20.3932 28.9231 21.1053 28.9231ZM16.7366 29.872C17.3559 29.872 17.8513 29.3713 17.8513 28.7546C17.8513 28.1379 17.3497 27.6373 16.7366 27.6373C16.1173 27.6373 15.6219 28.1379 15.6219 28.7546C15.6157 29.3713 16.1173 29.872 16.7366 29.872ZM4.41516 28.2159C5.74659 28.2159 6.83031 27.1351 6.83031 25.804C6.83031 24.473 5.74659 23.3922 4.41516 23.3922C3.08372 23.3922 2 24.473 2 25.804C2 27.1351 3.08372 28.2159 4.41516 28.2159ZM9.89725 23.9078C11.0429 23.9078 11.9656 22.9797 11.9656 21.8379C11.9656 20.6961 11.0367 19.768 9.89725 19.768C8.7516 19.768 7.82889 20.6961 7.82889 21.8379C7.82889 22.9858 8.75779 23.9078 9.89725 23.9078ZM7.75798 18.5964C8.89744 18.5964 9.81396 17.6744 9.81396 16.5387C9.81396 15.403 8.89125 14.481 7.75798 14.481C6.61852 14.481 5.702 15.403 5.702 16.5387C5.69581 17.6744 6.61852 18.5964 7.75798 18.5964ZM13.043 16.0797C14.0153 16.0797 14.8079 15.2921 14.8079 14.3151C14.8079 13.3382 14.0153 12.5505 13.043 12.5505C12.0708 12.5505 11.2781 13.3382 11.2781 14.3151C11.2781 15.2921 12.0708 16.0797 13.043 16.0797ZM15.2017 21.3786C16.1802 21.3786 16.9729 20.5848 16.9729 19.6079C16.9729 18.6309 16.1802 17.8372 15.2017 17.8372C14.2233 17.8372 13.4306 18.6309 13.4306 19.6079C13.4306 20.5848 14.2233 21.3786 15.2017 21.3786ZM20.0119 20.2782C20.8417 20.2782 21.5168 19.6066 21.5168 18.7701C21.5168 17.9397 20.8417 17.2619 20.0119 17.2619C19.1821 17.2619 18.5071 17.9336 18.5071 18.7701C18.5009 19.6005 19.1759 20.2782 20.0119 20.2782ZM24.1651 20.2917C24.8834 20.2917 25.4655 19.7116 25.4655 18.9972C25.4655 18.2828 24.8834 17.7028 24.1651 17.7028C23.4467 17.7028 22.8646 18.2828 22.8646 18.9972C22.8708 19.7116 23.4529 20.2917 24.1651 20.2917ZM27.598 21.0714C28.1987 21.0714 28.6941 20.5829 28.6941 19.9784C28.6941 19.374 28.2049 18.8855 27.598 18.8855C26.9973 18.8855 26.5019 19.374 26.5019 19.9784C26.5081 20.5768 26.9973 21.0714 27.598 21.0714ZM28.0454 17.0827C28.5717 17.0827 28.999 16.6553 28.999 16.1302C28.999 15.6051 28.5717 15.1776 28.0454 15.1776C27.519 15.1776 27.0917 15.6051 27.0917 16.1302C27.0917 16.6553 27.519 17.0827 28.0454 17.0827ZM25.4059 15.7773C26.0128 15.7773 26.5082 15.2827 26.5082 14.6721C26.5082 14.0616 26.0128 13.567 25.4059 13.567C24.799 13.567 24.3036 14.0616 24.3036 14.6721C24.3036 15.2827 24.7928 15.7773 25.4059 15.7773ZM22.0128 14.9863C22.725 14.9863 23.3009 14.4063 23.3009 13.698C23.3009 12.9836 22.725 12.4097 22.0128 12.4097C21.3006 12.4097 20.7247 12.9897 20.7247 13.698C20.7247 14.4124 21.3006 14.9863 22.0128 14.9863ZM17.866 14.9915C18.702 14.9915 19.3771 14.3137 19.3771 13.4833C19.3771 12.6529 18.702 11.9752 17.866 11.9752C17.03 11.9752 16.355 12.6529 16.355 13.4833C16.3612 14.3198 17.0362 14.9915 17.866 14.9915ZM12.2805 11.2199C13.228 11.2199 13.9897 10.4567 13.9897 9.51031C13.9897 8.5639 13.2218 7.80067 12.2805 7.80067C11.333 7.80067 10.5713 8.5639 10.5713 9.51031C10.5713 10.4567 11.3392 11.2199 12.2805 11.2199ZM17.0877 10.1838C17.9237 10.1838 18.5987 9.5061 18.5987 8.6757C18.5987 7.8453 17.9237 7.16755 17.0877 7.16755C16.2517 7.16755 15.5767 7.8453 15.5767 8.6757C15.5767 9.5061 16.2517 10.1838 17.0877 10.1838ZM21.2407 10.2034C21.9591 10.2034 22.5412 9.62333 22.5412 8.90284C22.5412 8.18235 21.9591 7.60229 21.2407 7.60229C20.5224 7.60229 19.9403 8.18235 19.9403 8.90284C19.9403 9.61722 20.5224 10.2034 21.2407 10.2034ZM24.6479 10.9771C25.2547 10.9771 25.744 10.4887 25.744 9.88417C25.744 9.27969 25.2547 8.79122 24.6479 8.79122C24.041 8.79122 23.5517 9.27969 23.5517 9.88417C23.5517 10.4825 24.0472 10.9771 24.6479 10.9771ZM27.2662 12.3177C27.805 12.3177 28.2446 11.878 28.2446 11.3407C28.2446 10.7973 27.805 10.3638 27.2662 10.3638C26.7274 10.3638 26.2877 10.8034 26.2877 11.3407C26.2877 11.878 26.7274 12.3177 27.2662 12.3177ZM29.1868 13.8554C29.6327 13.8554 29.9918 13.4952 29.9918 13.0494C29.9918 12.6037 29.6327 12.2435 29.1868 12.2435C28.7409 12.2435 28.3817 12.6037 28.3817 13.0494C28.3756 13.4952 28.7409 13.8554 29.1868 13.8554Z" fill="black"/>
</svg>
