<svg width="48" height="48" viewBox="0 0 48 48" fill="none" xmlns="http://www.w3.org/2000/svg">
<path d="M24 48C37.2548 48 48 37.2548 48 24C48 10.7452 37.2548 0 24 0C10.7452 0 0 10.7452 0 24C0 37.2548 10.7452 48 24 48Z" fill="#262626"/>
<path d="M24.7785 7.5V15.6855L31.8855 11.598L24.7785 7.5Z" fill="#00D4D5"/>
<path opacity="0.9" d="M31.8855 11.598V19.7835L38.991 15.6855L31.8855 11.598Z" fill="#00D4D5"/>
<path opacity="0.8" d="M24.7785 15.6855V23.871L31.8855 19.7835L24.7785 15.6855ZM31.8855 19.785V27.969L38.991 23.871L31.8855 19.785Z" fill="#00D4D5"/>
<path opacity="0.8" d="M24.7785 23.871V32.0565L31.8855 27.969L24.7785 23.871Z" fill="#00D4D5"/>
<path d="M31.8855 27.969V36.1545L38.991 32.0565L31.8855 27.969Z" fill="#00D4D5"/>
<path opacity="0.4" d="M6.4095 15.4094V23.5949L13.5165 19.4969L6.4095 15.4094Z" fill="#00D4D5"/>
<path opacity="0.2" d="M15.375 18.453V26.6385L22.47 22.551L15.375 18.453Z" fill="#00D4D5"/>
<path opacity="0.3" d="M10.107 23.6295V31.815L17.2125 27.717L10.107 23.6295Z" fill="#00D4D5"/>
<path opacity="0.9" d="M14.79 29.8065V37.992L21.885 33.894L14.79 29.8065Z" fill="#00D4D5"/>
<path opacity="0.7" d="M24.72 33.33V41.517L31.815 37.4175L24.72 33.33Z" fill="#00D4D5"/>
<path opacity="0.9" d="M16.5585 14.4105V22.5975L23.6535 18.51L16.5585 14.4105Z" fill="#00D4D5"/>
<path opacity="0.8" d="M24.7785 7.5V15.6855L17.6715 11.598L24.7785 7.5Z" fill="#00D4D5"/>
<path opacity="0.6" d="M16.5585 10.98V19.164L9.45 15.066L16.5585 10.98Z" fill="#00D4D5"/>
<path opacity="0.6" d="M23.6655 15.03V23.217L16.5585 19.1175L23.6655 15.03Z" fill="#00D4D5"/>
<path opacity="0.95" d="M15.342 18.453V26.6385L8.235 22.551L15.342 18.453Z" fill="#00D4D5"/>
<path opacity="0.6" d="M24.7785 23.871V32.0565L17.6835 27.969L24.7785 23.871Z" fill="#00D4D5"/>
<path opacity="0.55" d="M10.107 25.7776V33.9631L3 29.8636L10.107 25.7776Z" fill="#00D4D5"/>
<path d="M38.991 15.6855V23.871L31.8855 19.7835L38.991 15.6855Z" fill="#00D4D5"/>
<path opacity="0.95" d="M31.8855 19.7849V27.9689L24.7785 23.8709L31.8855 19.7849Z" fill="#00D4D5"/>
<path opacity="0.9" d="M38.991 23.871V32.0565L31.8855 27.969L38.991 23.871Z" fill="#00D4D5"/>
<path opacity="0.7" d="M31.8855 27.969V36.1545L24.7785 32.0565L31.8855 27.969Z" fill="#00D4D5"/>
<path opacity="0.4" d="M23.205 31.38V39.5655L16.0995 35.478L23.205 31.38Z" fill="#00D4D5"/>
<path d="M31.8855 11.598V19.7835L24.7785 15.6855L31.8855 11.598Z" fill="#00D4D5"/>
</svg>
