<svg width="48" height="48" viewBox="0 0 48 48" fill="none" xmlns="http://www.w3.org/2000/svg">
<path d="M14.568 34.7856L3.55677 36.024L10.0224 21.1056L3.40317 12.0816L19.4976 10.248L23.8704 0.192017L33.4512 13.2144L44.4624 11.976L38.0256 26.8224L44.5968 35.784L28.584 37.608L24.144 47.808L14.568 34.7856ZM19.1424 33.7968C18.72 34.0032 18.2688 34.176 17.8032 34.3056L17.3808 34.4208L23.5872 42.8592L25.7904 37.7904L25.392 37.7376C23.2224 37.464 21.2496 36.2928 19.9776 34.536L19.3584 33.6816L19.1424 33.7968ZM16.9824 26.1456L21.9888 33.072C23.0064 34.4784 24.6528 35.3184 26.3904 35.3184C26.592 35.3184 26.7936 35.3088 26.9904 35.2848L40.056 33.7968L34.8528 26.6976C34.5936 26.3472 34.296 26.0304 33.9648 25.752L33.6576 25.4976L29.9328 33.912L23.4528 25.3344L16.9824 26.1456ZM17.1984 17.712C15.2592 17.9184 13.5696 19.1616 12.792 20.9568L7.54557 33.0672L16.2624 32.088C16.6944 32.04 17.1168 31.9392 17.5248 31.7904L17.8992 31.6512L12.504 24.2016L23.1408 22.8528L25.6704 16.8096L17.1984 17.712ZM25.4304 23.8224L29.3712 29.04L31.776 23.6112L32.832 21.2208C33.624 19.4304 33.3984 17.3424 32.2368 15.768L24.4272 5.14082L20.9136 13.2144C20.7408 13.6128 20.616 14.0304 20.5392 14.4624L20.472 14.856L29.5872 13.8912L25.4304 23.8224ZM35.0064 15.5472L35.16 15.9168C36.0048 17.9376 35.9856 20.2416 35.1024 22.2336L34.6752 23.1936L34.8816 23.3328C35.2752 23.5968 35.6448 23.904 35.9856 24.2448L36.2976 24.552L40.4688 14.928L35.0064 15.5472ZM7.94397 14.0688L11.2656 18.6L11.5104 18.2832C12.8304 16.5696 14.8128 15.456 16.9392 15.2304L17.9808 15.12L18 14.8656C18.0336 14.3424 18.1248 13.8192 18.264 13.3104L18.384 12.8784L7.94397 14.0688Z" fill="url(#paint0_linear)"/>
<path d="M21.6768 48C14.7648 47.3328 8.55361 43.7376 4.48801 38.04L7.27201 37.728C7.73281 38.2944 8.22241 38.8368 8.72641 39.3456C11.7456 42.3792 15.5232 44.424 19.6656 45.2688L21.6768 48Z" fill="url(#paint1_linear)"/>
<path d="M27.4752 45.4224C31.9584 44.6976 36.0336 42.6 39.2736 39.3456C39.5616 39.0528 39.8544 38.7408 40.1472 38.4144L43.5216 38.0304C39.4704 43.7232 33.2688 47.3231 26.3568 47.9999L27.4752 45.4224Z" fill="url(#paint2_linear)"/>
<path d="M44.208 31.6943C45.1296 29.2415 45.6 26.6543 45.6 23.9999C45.6 21.6575 45.2304 19.3535 44.5056 17.1552L45.8592 14.0352C47.28 17.1696 48 20.5199 48 23.9999C48 27.4751 47.28 30.8207 45.864 33.9551L44.208 31.6943Z" fill="url(#paint3_linear)"/>
<path d="M2.1504 33.9887C0.7248 30.8447 0 27.4895 0 23.9999C0 20.4911 0.7296 17.1167 2.1744 13.9631L3.8256 16.2191C2.88 18.6959 2.4 21.3119 2.4 23.9999C2.4 26.3519 2.7696 28.6607 3.4992 30.8687L2.1504 33.9887Z" fill="url(#paint4_linear)"/>
<path d="M4.58884 9.8208C8.64964 4.2144 14.8128 0.6624 21.6624 0L20.544 2.5728C16.056 3.2928 11.9712 5.3952 8.72644 8.6544C8.48164 8.8992 8.23684 9.1632 7.99204 9.432L4.58884 9.8208Z" fill="url(#paint5_linear)"/>
<path d="M40.7328 10.272C40.272 9.7056 39.7824 9.1632 39.2736 8.6544C36.2592 5.6256 32.4864 3.5808 28.3536 2.736L26.3424 0C33.2496 0.672 39.4512 4.2672 43.512 9.96L40.7328 10.272Z" fill="url(#paint6_linear)"/>
<defs>
<linearGradient id="paint0_linear" x1="4.61264" y1="43.3201" x2="42.0517" y2="5.8811" gradientUnits="userSpaceOnUse">
<stop stop-color="#009DDE"/>
<stop offset="0.5" stop-color="#694D9F"/>
<stop offset="1" stop-color="#ED3554"/>
</linearGradient>
<linearGradient id="paint1_linear" x1="8.69748" y1="47.405" x2="46.1365" y2="9.96591" gradientUnits="userSpaceOnUse">
<stop stop-color="#009DDE"/>
<stop offset="0.5" stop-color="#694D9F"/>
<stop offset="1" stop-color="#ED3554"/>
</linearGradient>
<linearGradient id="paint2_linear" x1="19.3789" y1="58.0862" x2="56.8177" y2="20.6472" gradientUnits="userSpaceOnUse">
<stop stop-color="#009DDE"/>
<stop offset="0.5" stop-color="#694D9F"/>
<stop offset="1" stop-color="#ED3554"/>
</linearGradient>
<linearGradient id="paint3_linear" x1="15.5747" y1="54.282" x2="53.0137" y2="16.843" gradientUnits="userSpaceOnUse">
<stop stop-color="#009DDE"/>
<stop offset="0.5" stop-color="#694D9F"/>
<stop offset="1" stop-color="#ED3554"/>
</linearGradient>
<linearGradient id="paint4_linear" x1="-6.28452" y1="32.4228" x2="31.1545" y2="-5.01621" gradientUnits="userSpaceOnUse">
<stop stop-color="#009DDE"/>
<stop offset="0.5" stop-color="#694D9F"/>
<stop offset="1" stop-color="#ED3554"/>
</linearGradient>
<linearGradient id="paint5_linear" x1="-10.0808" y1="28.6266" x2="27.3582" y2="-8.81243" gradientUnits="userSpaceOnUse">
<stop stop-color="#009DDE"/>
<stop offset="0.5" stop-color="#694D9F"/>
<stop offset="1" stop-color="#ED3554"/>
</linearGradient>
<linearGradient id="paint6_linear" x1="0.599876" y1="39.3073" x2="38.0389" y2="1.86829" gradientUnits="userSpaceOnUse">
<stop stop-color="#009DDE"/>
<stop offset="0.5" stop-color="#694D9F"/>
<stop offset="1" stop-color="#ED3554"/>
</linearGradient>
</defs>
</svg>
