<svg width="48" height="48" viewBox="0 0 48 48" fill="none" xmlns="http://www.w3.org/2000/svg">
<path fill-rule="evenodd" clip-rule="evenodd" d="M24 0C37.2528 0 48 10.7472 48 24C48 37.2528 37.2528 48 24 48C10.7472 48 0 37.2528 0 24C0 10.7472 10.7472 0 24 0Z" fill="#B41514"/>
<path d="M23.808 39.6C23.1719 39.6 22.5502 39.4114 22.0213 39.058C21.4924 38.7046 21.0802 38.2023 20.8368 37.6147C20.5934 37.027 20.5297 36.3804 20.6538 35.7566C20.7779 35.1327 21.0842 34.5597 21.5339 34.1099C21.9837 33.6601 22.5567 33.3539 23.1806 33.2298C23.8044 33.1057 24.4511 33.1694 25.0387 33.4128C25.6264 33.6562 26.1286 34.0684 26.482 34.5973C26.8354 35.1261 27.024 35.7479 27.024 36.384C27.024 37.2369 26.6852 38.0549 26.0821 38.658C25.4789 39.2611 24.6609 39.6 23.808 39.6Z" fill="white"/>
<path d="M23.808 17.4239C23.1719 17.4239 22.5502 17.2353 22.0213 16.882C21.4924 16.5286 21.0802 16.0263 20.8368 15.4387C20.5934 14.851 20.5297 14.2044 20.6538 13.5805C20.7779 12.9567 21.0842 12.3837 21.5339 11.9339C21.9837 11.4841 22.5567 11.1778 23.1806 11.0537C23.8044 10.9296 24.4511 10.9933 25.0387 11.2367C25.6264 11.4802 26.1286 11.8924 26.482 12.4212C26.8354 12.9501 27.024 13.5719 27.024 14.2079C27.024 15.0609 26.6852 15.8789 26.0821 16.482C25.4789 17.0851 24.6609 17.4239 23.808 17.4239Z" fill="white"/>
<path d="M10.656 31.0079V26.5439H36.96V31.0079H10.656Z" fill="white"/>
<path d="M23.808 24.3359C16.3056 24.3359 10.2 18.384 9.94559 10.944H14.7024C14.952 15.7584 18.936 19.584 23.808 19.584C28.68 19.584 32.664 15.7584 32.9136 10.944H37.6704C37.416 18.384 31.3104 24.3359 23.808 24.3359Z" fill="white"/>
</svg>
