<svg width="48" height="48" viewBox="0 0 48 48" fill="none" xmlns="http://www.w3.org/2000/svg">
<path opacity="0.2" d="M7.31131 39.992L9.98498 48L28.3379 24L9.98498 0L7.181 7.83421L19.3721 23.9957L7.31131 39.992Z" fill="#FF564F"/>
<path d="M46.4324 47.9957H37.7229L19.3656 23.9957L37.7229 0H46.4324L28.3336 23.9957L46.4324 47.9957Z" fill="#F08179"/>
<path d="M3 0H9.98063V47.9957H3V0Z" fill="#FF564F"/>
<path d="M46.439 47.9957H37.7295L19.3721 23.9957L37.7295 0H46.439L28.3401 23.9957L46.439 47.9957Z" fill="#FF564F"/>
<path d="M46.439 47.9957H37.7295L19.3721 23.9957L37.7295 0H46.439L28.3401 23.9957L46.439 47.9957Z" fill="#FF564F"/>
<path d="M46.439 47.9957H37.7295L19.3721 23.9957L37.7295 0H46.439L28.3401 23.9957L46.439 47.9957Z" fill="#FF564F"/>
<path d="M46.439 47.9957H37.7295L19.3721 23.9957L37.7295 0H46.439L28.3401 23.9957L46.439 47.9957Z" fill="#FF564F"/>
</svg>
