<svg width="48" height="48" viewBox="0 0 48 48" fill="none" xmlns="http://www.w3.org/2000/svg">
<path d="M24 0C10.7815 0 0 10.7815 0 24C0 37.2185 10.7815 48 24 48C37.2185 48 48 37.2185 48 24C48 10.7815 37.2185 0 24 0ZM34.0431 18.6092H32.5662L27.9877 23.9262L32.5662 29.2431H34.0431V33.5262H24.3692V29.2431H25.8462L22.8185 25.8462H21.5631V29.3908H23.2615V33.6738H13.8831V29.3908H15.9508V24.0738V18.6831H13.8831V14.4H16.2462V16.0246H17.5015V14.4H19.7908V16.0246H21.0462V14.4H23.3354V18.6092H21.6369V22.1538H22.8923L25.92 18.6092H24.4431V14.4H34.1908L34.0431 18.6092Z" fill="black"/>
</svg>
