<svg width="48" height="48" viewBox="0 0 48 48" fill="none" xmlns="http://www.w3.org/2000/svg">
<path d="M44.5692 35.9997V12.0003L23.7846 0L3 12.0003V35.9997L23.7846 48L44.5692 35.9997Z" fill="url(#paint0_linear)"/>
<path d="M28.997 11.6205C29.3599 11.6205 29.7079 11.4763 29.9645 11.2197C30.2211 10.9631 30.3653 10.6151 30.3653 10.2522C30.3653 9.88932 30.2211 9.5413 29.9645 9.2847C29.7079 9.0281 29.3599 8.88394 28.997 8.88394H22.791C22.3806 8.88394 21.987 9.04697 21.6968 9.33718C21.4066 9.62738 21.2435 10.021 21.2435 10.4314V28.2377C18.9527 28.8814 17.269 31.0277 17.269 33.5805C17.269 36.6388 19.6902 39.1187 22.6769 39.1187C25.6637 39.1187 28.0848 36.6388 28.0848 33.5805C28.0848 31.0062 26.3693 28.8424 24.0452 28.2214V17.4193H27.6939C28.0568 17.4193 28.4048 17.2751 28.6614 17.0185C28.918 16.7619 29.0622 16.4139 29.0622 16.051C29.0622 15.6882 28.918 15.3401 28.6614 15.0835C28.4048 14.8269 28.0568 14.6828 27.6939 14.6828H24.0452V11.6205H28.997ZM25.6669 33.5778C25.6669 35.2719 24.3286 36.6402 22.6769 36.6402C21.0253 36.6402 19.687 35.2719 19.687 33.5778C19.687 31.8838 21.0253 30.5155 22.6769 30.5155C24.3286 30.5155 25.6669 31.8864 25.6669 33.5778Z" fill="white"/>
<defs>
<linearGradient id="paint0_linear" x1="23.7846" y1="41.5913" x2="23.7846" y2="0.0221508" gradientUnits="userSpaceOnUse">
<stop stop-color="#00BED3"/>
<stop offset="1" stop-color="#00AEE5"/>
</linearGradient>
</defs>
</svg>
