<svg width="48" height="48" viewBox="0 0 48 48" fill="none" xmlns="http://www.w3.org/2000/svg">
<g clip-path="url(#clip0)">
<path d="M3.77177e-06 23.9773C-0.0107482 30.3425 2.5075 36.4512 7.00077 40.9597C11.494 45.4682 17.5943 48.0071 23.9595 48.0178C30.3247 48.0286 36.4334 45.5103 40.9419 41.0171C45.4504 36.5238 47.9893 30.4236 48 24.0584V23.8767C47.9992 22.0306 47.7815 20.191 47.3514 18.3957C47.176 17.751 46.7571 17.1995 46.1832 16.8575C45.6092 16.5155 44.9249 16.4097 44.2744 16.5623C43.6239 16.715 43.0581 17.1141 42.6961 17.6757C42.3342 18.2373 42.2044 18.9175 42.3341 19.573C43.3045 23.5721 42.9418 27.7788 41.3013 31.5529C39.6607 35.327 36.8322 38.4618 33.246 40.4803C29.6598 42.4988 25.5123 43.2905 21.4348 42.7348C17.3573 42.1791 13.5729 40.3066 10.6576 37.4021C7.74224 34.4976 5.85561 30.7202 5.28477 26.6448C4.71393 22.5693 5.49013 18.419 7.49526 14.8253C9.50039 11.2316 12.6246 8.39139 16.3926 6.73681C20.1606 5.08224 24.3659 4.70393 28.3687 5.65945C29.0322 5.81428 29.73 5.69983 30.3093 5.34118C30.8887 4.98253 31.3022 4.4089 31.4595 3.74593C31.5393 3.41917 31.5535 3.07979 31.5011 2.7475C31.4488 2.41522 31.3309 2.09665 31.1544 1.81029C30.9779 1.52394 30.7462 1.27551 30.4729 1.07943C30.1995 0.883355 29.89 0.743536 29.5622 0.668095C26.4996 -0.0678899 23.322 -0.193089 20.2111 0.299655C17.1001 0.792399 14.1167 1.89342 11.4315 3.53979C8.7463 5.18616 6.41188 7.3456 4.56169 9.89466C2.7115 12.4437 1.38182 15.3324 0.648652 18.3957C0.21956 20.2253 0.00191892 22.0981 3.77177e-06 23.9773Z" fill="url(#paint0_linear)"/>
<path d="M36.1881 6.31461C36.1459 6.35677 36.1265 6.39893 36.1038 6.41839C35.5129 7.04561 35.1497 7.85309 35.0724 8.71136V9.12325C35.0724 9.22704 35.053 9.30812 35.053 9.4119C34.9649 10.3185 34.6987 11.1988 34.2696 12.0023C33.8405 12.8058 33.2569 13.5166 32.5524 14.094C31.8479 14.6714 31.0362 15.1039 30.1641 15.3668C29.292 15.6297 28.3765 15.7178 27.4703 15.626C27.1647 15.5993 26.8612 15.5516 26.5622 15.4833C26.386 15.4467 26.2126 15.3979 26.0432 15.3373C25.3079 15.1518 24.5505 15.0688 23.7924 15.0908C21.5817 15.1341 19.4634 15.9855 17.8378 17.4843C17.7568 17.5654 17.653 17.6303 17.5686 17.7308C16.679 18.5528 15.9645 19.5459 15.4679 20.6506C14.9713 21.7554 14.7029 22.949 14.6788 24.16C14.6547 25.371 14.8754 26.5744 15.3276 27.698C15.7798 28.8217 16.4543 29.8424 17.3105 30.6991C18.1668 31.5558 19.1872 32.2307 20.3106 32.6835C21.434 33.1363 22.6373 33.3576 23.8483 33.3341C25.0593 33.3106 26.253 33.0429 27.358 32.5469C28.4631 32.0508 29.4565 31.3368 30.2789 30.4476C30.6507 30.0722 30.9893 29.6652 31.2908 29.2314C32.0161 28.1881 32.5127 27.0033 32.748 25.7546C32.9833 24.506 32.952 23.2217 32.6562 21.986C32.6049 21.823 32.5627 21.6574 32.5297 21.4897C32.5297 21.467 32.5103 21.4476 32.5103 21.4054C32.3038 20.5173 32.2748 19.5972 32.4249 18.6978C32.575 17.7984 32.9012 16.9376 33.3849 16.1646C33.8685 15.3917 34.5001 14.7219 35.2433 14.1936C35.9865 13.6654 36.8267 13.2892 37.7157 13.0865C38.0347 13.0082 38.3605 12.9605 38.6886 12.9438L38.8314 12.9211C38.9756 12.9049 39.1208 12.8984 39.2659 12.9016H39.3081C40.2047 12.8157 41.0438 12.4214 41.6822 11.786C41.8281 11.6206 41.9741 11.4616 42.0973 11.2897C42.3928 10.8759 42.6033 10.4076 42.7165 9.91189C42.8297 9.41617 42.8434 8.90291 42.7568 8.40185C42.6702 7.9008 42.4851 7.4219 42.2121 6.99291C41.9391 6.56392 41.5837 6.19336 41.1665 5.90271C40.4202 5.37638 39.5126 5.12924 38.6025 5.20454C37.6924 5.27984 36.8377 5.67278 36.1881 6.31461Z" fill="url(#paint1_linear)"/>
</g>
<defs>
<linearGradient id="paint0_linear" x1="41.8735" y1="6.35999" x2="6.19784" y2="41.5492" gradientUnits="userSpaceOnUse">
<stop offset="0.09" stop-color="#00EDD3"/>
<stop offset="0.41" stop-color="#1B456E"/>
</linearGradient>
<linearGradient id="paint1_linear" x1="41.8832" y1="5.8865" x2="16.9103" y2="31.1838" gradientUnits="userSpaceOnUse">
<stop offset="0.4" stop-color="#00EDD3"/>
<stop offset="0.89" stop-color="#1B456E"/>
</linearGradient>
<clipPath id="clip0">
<rect width="48" height="48" fill="white"/>
</clipPath>
</defs>
</svg>
