<svg width="48" height="48" viewBox="0 0 48 48" fill="none" xmlns="http://www.w3.org/2000/svg">
<g clip-path="url(#clip0)">
<path d="M21.3204 24.001L39.2205 34.2542C39.3644 34.3407 39.5287 34.3873 39.6965 34.3892C39.8643 34.3912 40.0297 34.3484 40.1755 34.2653C40.3213 34.1822 40.4424 34.0617 40.5262 33.9163C40.61 33.7709 40.6537 33.6058 40.6526 33.438V14.5497C40.6547 14.3816 40.6116 14.216 40.5277 14.0702C40.4439 13.9245 40.3225 13.804 40.1761 13.7213C40.0297 13.6385 39.8638 13.5967 39.6957 13.6001C39.5276 13.6035 39.3635 13.6521 39.2205 13.7406L21.3204 24.001Z" fill="#31CB9E"/>
<path d="M38.8411 9.20157L26.6045 0.201368C26.4778 0.104099 26.3291 0.0394914 26.1716 0.0132404C26.014 -0.0130106 25.8524 -9.90914e-05 25.701 0.0508369C25.5496 0.101773 25.4131 0.189169 25.3034 0.305322C25.1938 0.421476 25.1144 0.562819 25.0722 0.716893L20.6044 20.7651L38.7337 10.741C38.8716 10.67 38.9889 10.5647 39.0743 10.4352C39.1596 10.3056 39.2101 10.1563 39.2209 10.0015C39.2317 9.84678 39.2025 9.69186 39.1359 9.55173C39.0694 9.4116 38.9678 9.291 38.8411 9.20157Z" fill="#31CB9E"/>
<path d="M26.5902 47.7941L38.841 38.7939C38.9695 38.7037 39.0726 38.5819 39.1405 38.4403C39.2084 38.2987 39.2387 38.1421 39.2287 37.9854C39.2186 37.8287 39.1685 37.6772 39.083 37.5455C38.9976 37.4137 38.8798 37.3062 38.7408 37.233L20.6044 27.209L25.0722 47.2571C25.1093 47.4129 25.1845 47.557 25.291 47.6766C25.3976 47.7961 25.5321 47.8873 25.6826 47.9419C25.8331 47.9966 25.9948 48.013 26.1532 47.9897C26.3116 47.9664 26.4618 47.9041 26.5902 47.8085" fill="#31CB9E"/>
<path d="M16.6663 23.6289L21.3204 1.86229C21.3559 1.68191 21.3368 1.49503 21.2656 1.32557C21.1943 1.15611 21.074 1.01178 20.9203 0.911047C20.7665 0.810315 20.5861 0.757768 20.4023 0.760132C20.2185 0.762496 20.0395 0.819664 19.8884 0.924317L7.96686 10.0677C7.66499 10.2993 7.42069 10.5975 7.25302 10.9391C7.08535 11.2806 6.99885 11.6563 7.00026 12.0367V35.2354C6.9944 35.6207 7.07876 36.002 7.2466 36.3489C7.41444 36.6957 7.6611 36.9985 7.96686 37.233L19.8311 46.3478C19.9822 46.4524 20.1612 46.5096 20.345 46.512C20.5288 46.5143 20.7092 46.4618 20.863 46.3611C21.0168 46.2603 21.137 46.116 21.2083 45.9465C21.2796 45.7771 21.2987 45.5902 21.2631 45.4098L16.6663 23.6289Z" fill="#31CB9E"/>
</g>
<defs>
<clipPath id="clip0">
<rect width="48" height="48" fill="white"/>
</clipPath>
</defs>
</svg>
