<svg width="48" height="48" viewBox="0 0 48 48" fill="none" xmlns="http://www.w3.org/2000/svg">
<g clip-path="url(#clip0)">
<path d="M48.1455 0.145508H0.145508V48.1453H48.1455V0.145508Z" fill="black" stroke="black" stroke-miterlimit="10"/>
<path d="M40.8472 13.9891C40.28 13.5418 39.6035 12.9309 38.3707 12.7781C37.2145 12.6254 36.0363 13.3999 35.2399 13.9127C34.4436 14.4254 32.9381 15.9309 32.3163 16.3891C31.6945 16.8472 30.1017 17.2727 27.5381 18.8109C24.9745 20.349 14.9163 26.8072 14.9163 26.8072L17.5345 26.84L5.86178 32.8508H7.02906L5.34904 34.1272C5.34904 34.1272 6.83268 34.5199 8.07634 33.7345V34.0944C8.07634 34.0944 21.9745 28.6181 24.6581 30.0363L23.0218 30.5163C23.1636 30.5163 25.8036 30.6908 25.8036 30.6908C25.8676 31.2375 26.0514 31.7634 26.3418 32.231C26.6321 32.6986 27.022 33.0964 27.4836 33.3963C29.0763 34.4435 29.109 35.0218 29.109 35.0218C29.109 35.0218 28.2799 35.3599 28.2799 35.7854C28.2799 35.7854 29.5018 35.4145 30.6363 35.4472C31.3564 35.4745 32.0705 35.588 32.7635 35.7854C32.7635 35.7854 32.6763 35.3272 31.5745 35.0218C30.4727 34.7163 29.3817 33.5163 28.8472 32.8617C28.5198 32.4451 28.3064 31.9504 28.228 31.4264C28.1496 30.9023 28.2088 30.3669 28.3999 29.8727C28.7817 28.8799 30.1127 28.3345 32.8618 26.9163C36.1017 25.2363 36.8436 23.9927 37.3017 23.0217C37.76 22.0508 38.4361 20.1199 38.818 19.2145C39.298 18.0472 39.8873 17.4254 40.3782 17.0545C40.869 16.6836 43.0508 15.8654 43.0508 15.8654C43.0508 15.8654 41.3817 14.4145 40.8472 13.9891Z" fill="white"/>
</g>
<defs>
<clipPath id="clip0">
<rect width="48" height="48" fill="white"/>
</clipPath>
</defs>
</svg>
