<svg width="48" height="48" viewBox="0 0 48 48" fill="none" xmlns="http://www.w3.org/2000/svg">
<path d="M17.6919 15.6016L17.7352 15.7223C17.9243 16.2725 18.2749 16.7529 18.7413 17.1007C19.2076 17.4485 19.768 17.6476 20.3492 17.672C20.9304 17.6964 21.5055 17.545 21.9994 17.2375C22.4932 16.93 22.8829 16.4808 23.1174 15.9484L28.3819 4.06607C28.6177 3.53145 28.6862 2.93802 28.5784 2.36376C28.4706 1.78951 28.1916 1.26129 27.7781 0.848524C27.4467 0.51753 27.0399 0.271871 26.5927 0.132624C26.1455 -0.00662259 25.6712 -0.0353014 25.2105 0.0490483C24.7498 0.133398 24.3164 0.328258 23.9475 0.616912C23.5786 0.905565 23.2853 1.2794 23.0927 1.70633L17.791 13.4741C17.4883 14.1447 17.4528 14.9056 17.6919 15.6016Z" fill="#E11F53"/>
<path d="M26.5332 13.025C26.6826 12.6869 26.9003 12.3834 27.1726 12.1334C27.4449 11.8835 27.766 11.6926 28.1156 11.5726L34.6839 9.32123C35.1591 9.15801 35.6705 9.13157 36.16 9.2449C36.6495 9.35824 37.0973 9.6068 37.4524 9.96226L37.5391 10.049C37.8643 10.3734 38.1007 10.776 38.2257 11.2181C38.3506 11.6601 38.3599 12.1269 38.2527 12.5736C38.1455 13.0203 37.9253 13.4319 37.6132 13.7691C37.3012 14.1062 36.9078 14.3576 36.4707 14.499L29.8188 16.6668C29.3254 16.8275 28.796 16.8418 28.2946 16.7079C27.7933 16.574 27.3415 16.2977 26.9939 15.9124C26.6462 15.5271 26.4177 15.0494 26.336 14.5369C26.2542 14.0245 26.3227 13.4993 26.5332 13.025Z" fill="#E11F53"/>
<path d="M32.2622 17.6176L32.1414 17.6578C31.5925 17.8482 31.1135 18.1993 30.7667 18.6655C30.42 19.1317 30.2215 19.6915 30.1971 20.272C30.1727 20.8525 30.3236 21.427 30.63 21.9206C30.9364 22.4143 31.3843 22.8043 31.9154 23.04L43.7977 28.3045C44.3315 28.5419 44.9248 28.6119 45.4992 28.5052C46.0737 28.3985 46.6022 28.1201 47.0152 27.7069C47.347 27.376 47.5935 26.9695 47.7334 26.5223C47.8732 26.0751 47.9024 25.6007 47.8183 25.1397C47.7342 24.6787 47.5394 24.2451 47.2506 23.8761C46.9619 23.5071 46.5878 23.2138 46.1605 23.0214L34.3928 17.7167C33.7212 17.4131 32.959 17.3777 32.2622 17.6176Z" fill="#4C8BF5"/>
<path d="M34.9099 26.5423C35.2481 26.6922 35.5518 26.9101 35.8022 27.1823C36.0526 27.4545 36.2443 27.7753 36.3654 28.1248L38.6168 34.6838C38.7793 35.159 38.8053 35.6703 38.692 36.1597C38.5787 36.649 38.3306 37.0968 37.9757 37.4523L37.889 37.539C37.5647 37.862 37.1632 38.0968 36.7226 38.221C36.2821 38.3452 35.8171 38.3546 35.3718 38.2485C34.9265 38.1424 34.5158 37.9242 34.1786 37.6147C33.8414 37.3051 33.5889 36.9145 33.4452 36.4799L31.2774 29.828C31.1181 29.3357 31.1044 28.8078 31.2381 28.3078C31.3717 27.8079 31.647 27.3573 32.0308 27.0101C32.4146 26.663 32.8905 26.4341 33.4013 26.3512C33.9121 26.2682 34.436 26.3346 34.9099 26.5423Z" fill="#4C8BF5"/>
<path d="M30.1904 32.2653L30.1502 32.1476C29.9591 31.6004 29.6081 31.1231 29.1427 30.7776C28.6774 30.432 28.119 30.2341 27.5399 30.2094C26.9608 30.1847 26.3876 30.3344 25.8945 30.6391C25.4014 30.9438 25.0112 31.3895 24.7742 31.9185L19.5097 43.8008C19.2725 44.3352 19.2026 44.9289 19.3093 45.5037C19.416 46.0786 19.6942 46.6077 20.1073 47.0214C20.4387 47.3524 20.8455 47.5981 21.2927 47.7373C21.7399 47.8766 22.2142 47.9053 22.6749 47.8209C23.1357 47.7366 23.569 47.5417 23.9379 47.253C24.3068 46.9644 24.6001 46.5906 24.7927 46.1636L30.0975 34.3959C30.399 33.7235 30.4323 32.9613 30.1904 32.2653Z" fill="#43C6AC"/>
<path d="M21.2656 34.9068C21.1159 35.2452 20.8978 35.549 20.6249 35.799C20.352 36.049 20.0303 36.2397 19.68 36.3591L13.1148 38.6105C12.637 38.7768 12.122 38.8048 11.629 38.6914C11.1359 38.578 10.6849 38.3278 10.3277 37.9695L10.2441 37.8828C9.92208 37.5572 9.68874 37.1547 9.56635 36.7134C9.44396 36.2722 9.43659 35.8069 9.54494 35.362C9.6533 34.9171 9.87377 34.5074 10.1853 34.1718C10.4969 33.8363 10.8892 33.5861 11.3249 33.4451L17.9768 31.2773C18.4688 31.1191 18.9961 31.106 19.4953 31.2397C19.9946 31.3734 20.4448 31.6482 20.7918 32.0313C21.1389 32.4143 21.3682 32.8892 21.4522 33.3992C21.5362 33.9092 21.4714 34.4326 21.2656 34.9068Z" fill="#43C6AC"/>
<path d="M15.6016 30.2711L15.7223 30.2308C16.2725 30.0417 16.7529 29.6911 17.1007 29.2248C17.4485 28.7585 17.6476 28.1981 17.672 27.6168C17.6964 27.0356 17.545 26.4605 17.2375 25.9667C16.93 25.4728 16.4808 25.0832 15.9484 24.8486L4.06607 19.5841C3.5317 19.3471 2.93795 19.2779 2.3634 19.3857C1.78885 19.4935 1.26058 19.7733 0.848524 20.188C0.51753 20.5194 0.271871 20.9261 0.132624 21.3733C-0.00662259 21.8205 -0.0353014 22.2948 0.0490483 22.7556C0.133398 23.2163 0.328258 23.6497 0.616912 24.0185C0.905565 24.3874 1.2794 24.6807 1.70633 24.8734L13.4741 30.1751C14.1451 30.4768 14.906 30.5111 15.6016 30.2711Z" fill="#F8B233"/>
<path d="M12.9012 21.4389C12.5651 21.288 12.2636 21.0697 12.0154 20.7975C11.7672 20.5253 11.5775 20.205 11.4581 19.8565L9.19742 13.2913C9.03153 12.8135 9.00368 12.2985 9.11706 11.8056C9.23044 11.3126 9.48046 10.8616 9.83845 10.5042L9.92516 10.4175C10.2503 10.0932 10.6531 9.85768 11.0952 9.73329C11.5373 9.60891 12.0038 9.59985 12.4504 9.70699C12.8969 9.81412 13.3086 10.0339 13.6461 10.3453C13.9836 10.6567 14.2357 11.0494 14.3783 11.4859L16.5461 18.1378C16.7114 18.6325 16.7291 19.1646 16.597 19.6692C16.4649 20.1738 16.1886 20.6289 15.802 20.9791C15.4154 21.3292 14.9352 21.5592 14.4201 21.6408C13.9049 21.7225 13.3771 21.6523 12.9012 21.4389Z" fill="#F8B233"/>
</svg>
