<svg width="48" height="48" viewBox="0 0 48 48" fill="none" xmlns="http://www.w3.org/2000/svg">
<path d="M35.3934 43.9573L5.32343 22.8489C4.29798 22.1305 3.4608 21.1756 2.88279 20.065C2.30479 18.9544 2.003 17.7208 2.003 16.4688C2.003 15.2168 2.30479 13.9832 2.88279 12.8726C3.4608 11.762 4.29798 10.807 5.32343 10.0887L12.6071 5L42.6771 26.1111C43.702 26.8299 44.5386 27.7849 45.1163 28.8955C45.6939 30.0061 45.9955 31.2394 45.9955 32.4912C45.9955 33.743 45.6939 34.9764 45.1163 36.087C44.5386 37.1975 43.702 38.1526 42.6771 38.8713L35.3934 43.9573ZM12.6044 8.39429L6.92705 12.3662C6.26708 12.828 5.72822 13.4422 5.35617 14.1566C4.98412 14.871 4.78986 15.6647 4.78986 16.4702C4.78986 17.2757 4.98412 18.0693 5.35617 18.7837C5.72822 19.4981 6.26708 20.1123 6.92705 20.5741L35.4016 40.563L41.079 36.5938C41.7384 36.1316 42.2767 35.5173 42.6484 34.8029C43.0201 34.0886 43.2141 33.2951 43.2141 32.4899C43.2141 31.6846 43.0201 30.8912 42.6484 30.1768C42.2767 29.4624 41.7384 28.8481 41.079 28.3859L12.6044 8.39429Z" fill="#4BC0C8"/>
<path d="M12.5766 40.5437L6.90754 36.5636C6.24812 36.1014 5.70978 35.4871 5.33811 34.7727C4.96645 34.0583 4.7724 33.2649 4.7724 32.4596C4.7724 31.6543 4.96645 30.8609 5.33811 30.1465C5.70978 29.4322 6.24812 28.8179 6.90754 28.3557L21.5822 18.0958L19.1616 16.4014L5.32043 26.0781C4.29498 26.7965 3.45779 27.7514 2.87979 28.862C2.30179 29.9726 2 31.2062 2 32.4582C2 33.7103 2.30179 34.9438 2.87979 36.0545C3.45779 37.1651 4.29498 38.12 5.32043 38.8383L12.5849 43.938L21.5712 37.6501L19.1506 35.9502L12.5766 40.5437Z" fill="#02819B"/>
<path d="M42.6905 10.1189L35.4233 5.01924L26.4288 11.3127L28.8493 13.0126L35.4206 8.42453L41.0924 12.4047C41.7518 12.8669 42.2902 13.4812 42.6618 14.1956C43.0335 14.91 43.2276 15.7034 43.2276 16.5087C43.2276 17.3139 43.0335 18.1073 42.6618 18.8217C42.2902 19.5361 41.7518 20.1504 41.0924 20.6126L26.415 30.8642L28.8356 32.5641L42.6795 22.8791C43.705 22.1608 44.5422 21.2059 45.1202 20.0952C45.6982 18.9846 46 17.751 46 16.499C46 15.247 45.6982 14.0134 45.1202 12.9028C44.5422 11.7922 43.705 10.8373 42.6795 10.1189H42.6905Z" fill="#02819B"/>
<path d="M18.4864 16.8587L7.05093 24.86L8.64519 27.1385L20.0807 19.1372L18.4864 16.8587Z" fill="#02819B"/>
<path d="M39.6126 21.6276L34.0425 25.528L35.6352 27.8055L41.4115 23.7593C40.8064 23.0607 40.2095 22.3455 39.6126 21.6276Z" fill="#02819B"/>
</svg>
