<svg width="48" height="48" viewBox="0 0 48 48" fill="none" xmlns="http://www.w3.org/2000/svg">
<path d="M28.8405 3.56117L24.3038 8.09788L25.2354 9.02952C25.3598 9.15567 25.508 9.25584 25.6714 9.32421C25.8348 9.39258 26.0102 9.42779 26.1873 9.42779C26.3645 9.42779 26.5399 9.39258 26.7033 9.32421C26.8667 9.25584 27.0149 9.15567 27.1392 9.02952L31.676 4.49281L30.7443 3.56117C30.6199 3.43502 30.4717 3.33485 30.3083 3.26648C30.1449 3.19811 29.9695 3.1629 29.7924 3.1629C29.6153 3.1629 29.4399 3.19811 29.2765 3.26648C29.1131 3.33485 28.9649 3.43502 28.8405 3.56117ZM17.2962 3.56117L16.2025 4.49281L20.9418 9.02952C21.0626 9.15447 21.2074 9.25383 21.3675 9.32169C21.5275 9.38955 21.6996 9.42452 21.8734 9.42452C22.0473 9.42452 22.2193 9.38955 22.3794 9.32169C22.5394 9.25383 22.6842 9.15447 22.8051 9.02952L23.7367 8.09788L19.1595 3.56117C19.0386 3.43622 18.8939 3.33686 18.7338 3.269C18.5738 3.20114 18.4017 3.16617 18.2278 3.16617C18.054 3.16617 17.8819 3.20114 17.7219 3.269C17.5618 3.33686 17.4171 3.43622 17.2962 3.56117ZM33.1342 9.5156L24.5063 18.1434L26.2481 19.9257C26.7248 20.3909 27.3644 20.6512 28.0304 20.6512C28.6964 20.6512 29.336 20.3909 29.8127 19.9257L38.4405 11.2574L36.6987 9.5156C36.2289 9.053 35.596 8.79372 34.9367 8.79372C34.2774 8.79372 33.6445 9.053 33.1747 9.5156H33.1342ZM11.3013 9.5156L9.55949 11.2574L18.1873 19.8852C18.4179 20.1254 18.6947 20.3164 19.0009 20.4469C19.3072 20.5775 19.6367 20.6447 19.9696 20.6447C20.3025 20.6447 20.632 20.5775 20.9383 20.4469C21.2446 20.3164 21.5213 20.1254 21.7519 19.8852L23.4937 18.1434L14.8658 9.5156C14.3892 9.05045 13.7495 8.79008 13.0835 8.79008C12.4175 8.79008 11.7779 9.05045 11.3013 9.5156ZM23.0481 9.31307L22.157 10.2447L24.0203 12.108L25.8835 10.2447L24.9519 9.31307C24.831 9.18812 24.6863 9.08876 24.5262 9.0209C24.3662 8.95304 24.1941 8.91807 24.0203 8.91807C23.8464 8.91807 23.6743 8.95304 23.5143 9.0209C23.3542 9.08876 23.2095 9.18812 23.0886 9.31307H23.0481ZM39.2506 17.9409L24.8709 32.2802L27.7468 35.1966C28.1257 35.6013 28.5837 35.9239 29.0923 36.1445C29.6009 36.3651 30.1494 36.4789 30.7038 36.4789C31.2582 36.4789 31.8067 36.3651 32.3153 36.1445C32.8239 35.9239 33.2819 35.6013 33.6608 35.1966L48 20.8574L45.1241 17.9409C44.7452 17.5362 44.2872 17.2136 43.7786 16.993C43.27 16.7725 42.7215 16.6587 42.1671 16.6587C41.6127 16.6587 41.0642 16.7725 40.5556 16.993C40.047 17.2136 39.589 17.5362 39.2101 17.9409H39.2506ZM2.79494 17.9409L0 20.8169L14.3392 35.1966C14.7181 35.6013 15.1761 35.9239 15.6847 36.1445C16.1933 36.3651 16.7418 36.4789 17.2962 36.4789C17.8506 36.4789 18.3991 36.3651 18.9077 36.1445C19.4163 35.9239 19.8743 35.6013 20.2532 35.1966L23.1696 32.2802L8.83038 17.9409C8.45148 17.5362 7.99355 17.2136 7.48492 16.993C6.97629 16.7725 6.42781 16.6587 5.87342 16.6587C5.31903 16.6587 4.77054 16.7725 4.26192 16.993C3.75329 17.2136 3.29535 17.5362 2.91646 17.9409H2.79494ZM22.1165 20.4523L20.3747 22.1941L23.8987 25.7181L27.5443 22.1941L25.8025 20.4523C25.5691 20.2172 25.2914 20.0305 24.9855 19.9032C24.6797 19.7758 24.3516 19.7103 24.0203 19.7103C23.6889 19.7103 23.3608 19.7758 23.055 19.9032C22.7491 20.0305 22.4714 20.2172 22.238 20.4523H22.1165ZM21.0633 36.0878L18.1468 38.9637L24.0203 44.8371L29.8532 38.9637L26.9772 36.0878C26.5983 35.6831 26.1404 35.3604 25.6318 35.1399C25.1231 34.9193 24.5746 34.8055 24.0203 34.8055C23.4659 34.8055 22.9174 34.9193 22.4088 35.1399C21.9001 35.3604 21.4422 35.6831 21.0633 36.0878Z" fill="url(#paint0_linear)"/>
<defs>
<linearGradient id="paint0_linear" x1="17.8127" y1="27.432" x2="57.6527" y2="27.432" gradientUnits="userSpaceOnUse">
<stop stop-color="#7CB7FF"/>
<stop offset="1" stop-color="#BA6DF6"/>
</linearGradient>
</defs>
</svg>
