<svg width="48" height="48" viewBox="0 0 48 48" fill="none" xmlns="http://www.w3.org/2000/svg">
<path d="M24 48C37.2548 48 48 37.2548 48 24C48 10.7452 37.2548 0 24 0C10.7452 0 0 10.7452 0 24C0 37.2548 10.7452 48 24 48Z" fill="#172852"/>
<path d="M19.332 10.7256C22.1424 9.67437 25.3056 9.67197 28.1688 10.536C31.896 11.6928 35.0424 14.5056 36.6864 18.036C37.14 19.0416 37.5744 20.0904 37.6176 21.2088C35.5224 19.9944 33.2256 19.2072 30.924 18.4896C27.2424 17.1624 23.388 16.2408 19.9032 14.4168C19.092 13.932 18.0576 13.4352 17.8368 12.4248C17.748 11.5512 18.672 11.064 19.332 10.7256Z" fill="#FFD83D"/>
<path d="M10.848 19.2215C11.6616 17.0135 12.996 14.9639 14.808 13.4447C15.2688 17.2343 16.8816 20.8967 19.5456 23.6519C22.74 26.9711 27.2904 29.0087 31.92 28.9319C33.7584 28.9895 35.5559 28.5647 37.3487 28.2215C35.5847 34.5959 28.5984 38.8271 22.1256 37.8095C18.2184 37.3103 14.6112 34.9967 12.4344 31.7303C9.9792 28.1207 9.36001 23.3279 10.848 19.2215Z" fill="#FFD83D"/>
<path d="M30.924 18.4896C33.2256 19.2072 35.5224 19.9944 37.6176 21.2088L37.7592 21.2832C37.9536 22.7448 38.0952 24.2352 37.836 25.6992C36.7824 25.2528 35.928 24.468 35.0352 23.7744C33.3168 22.344 31.5624 20.7072 30.924 18.4896Z" fill="#FF6F03"/>
</svg>
