<svg width="48" height="48" viewBox="0 0 48 48" fill="none" xmlns="http://www.w3.org/2000/svg">
<path d="M35.3159 15.9199C34.5117 15.457 33.4778 15.457 32.5587 15.9199L26.1253 19.7389L21.7598 22.1691L15.4413 25.9881C14.6371 26.451 13.6031 26.451 12.6841 25.9881L7.74413 22.9792C6.93995 22.5163 6.36554 21.5905 6.36554 20.549V14.7626C6.36554 13.8368 6.82507 12.911 7.74413 12.3323L12.6841 9.43917C13.4883 8.97626 14.5222 8.97626 15.4413 9.43917L20.3812 12.4481C21.1854 12.911 21.7598 13.8368 21.7598 14.8783V18.6973L26.1253 16.1513V12.2166C26.1253 11.2908 25.6658 10.365 24.7467 9.78635L15.5561 4.34718C14.752 3.88427 13.718 3.88427 12.799 4.34718L3.37859 9.90208C2.45953 10.365 2 11.2908 2 12.2166V23.095C2 24.0208 2.45953 24.9466 3.37859 25.5252L12.6841 30.9644C13.4883 31.4273 14.5222 31.4273 15.4413 30.9644L21.7598 27.2611L26.1253 24.7151L32.4439 21.0119C33.248 20.549 34.282 20.549 35.201 21.0119L40.141 23.905C40.9452 24.368 41.5196 25.2938 41.5196 26.3353V32.1217C41.5196 33.0475 41.0601 33.9733 40.141 34.5519L35.3159 37.4451C34.5117 37.908 33.4778 37.908 32.5587 37.4451L27.6188 34.5519C26.8146 34.089 26.2402 33.1632 26.2402 32.1217V28.4184L21.8747 30.9644V34.7834C21.8747 35.7092 22.3342 36.635 23.2533 37.2136L32.5587 42.6528C33.3629 43.1157 34.3969 43.1157 35.3159 42.6528L44.6214 37.2136C45.4256 36.7507 46 35.8249 46 34.7834V23.7893C46 22.8635 45.5405 21.9377 44.6214 21.359L35.3159 15.9199Z" fill="#8247E5"/>
</svg>
