<svg width="48" height="48" viewBox="0 0 48 48" fill="none" xmlns="http://www.w3.org/2000/svg">
<g clip-path="url(#clip0)">
<path d="M23.9988 0C37.2533 0 47.9976 10.7443 47.9976 23.9988C47.9976 37.2533 37.2533 47.9976 23.9988 47.9976C10.7443 47.9976 0 37.2533 0 23.9988C0 10.7443 10.7443 0 23.9988 0Z" fill="#5B449B"/>
<path d="M19.223 30.0225V18.4431L37.7981 14.9117V33.6223L19.223 30.0225ZM10.4035 35.1703V14.0753H13.0913V35.1703H10.4035ZM19.103 16.9072L12.0834 15.4912L10.4155 15.8752L10.3915 12.4314L25.7387 15.5392L19.103 16.9072ZM10.3915 35.9982L10.4155 32.5544L12.0834 32.9384L19.103 31.5224L25.7387 32.8904L10.3915 35.9982Z" fill="white"/>
</g>
<defs>
<clipPath id="clip0">
<rect width="48" height="47.9988" fill="white"/>
</clipPath>
</defs>
</svg>
