<svg width="48" height="48" viewBox="0 0 48 48" fill="none" xmlns="http://www.w3.org/2000/svg">
<rect width="48" height="48" fill="#6E2EF4"/>
<path d="M23.5638 31.9433L31.9433 23.5638C32.4994 23.009 33.2529 22.6974 34.0384 22.6974C34.824 22.6974 35.5775 23.009 36.1336 23.5638C36.6884 24.1199 37 24.8734 37 25.659C37 26.4445 36.6884 27.198 36.1336 27.7541L27.7541 36.1336C27.198 36.6884 26.4445 37 25.659 37C24.8734 37 24.1199 36.6884 23.5638 36.1336C23.009 35.5775 22.6974 34.824 22.6974 34.0384C22.6974 33.2529 23.009 32.4994 23.5638 31.9433ZM11.8664 24.4362C12.4225 24.9907 13.1757 25.3021 13.961 25.3021C14.7463 25.3021 15.4996 24.9907 16.0556 24.4362L24.4362 16.0556C24.9907 15.4996 25.3021 14.7463 25.3021 13.961C25.3021 13.1757 24.9907 12.4225 24.4362 11.8664C23.8801 11.3116 23.1266 11 22.341 11C21.5555 11 20.802 11.3116 20.2459 11.8664L11.8664 20.2459C11.3116 20.802 11 21.5555 11 22.341C11 23.1266 11.3116 23.8801 11.8664 24.4362ZM20.8556 27.1411C21.4118 27.6959 22.1652 28.0075 22.9508 28.0075C23.7363 28.0075 24.4898 27.6959 25.0459 27.1411L27.1411 25.0459C27.6959 24.4898 28.0075 23.7363 28.0075 22.9508C28.0075 22.1652 27.6959 21.4118 27.1411 20.8556C26.5849 20.3008 25.8315 19.9892 25.0459 19.9892C24.2604 19.9892 23.5069 20.3008 22.9508 20.8556L20.8556 22.9508C20.3008 23.5069 19.9892 24.2604 19.9892 25.0459C19.9892 25.8315 20.3008 26.5849 20.8556 27.1411Z" fill="white"/>
</svg>
