<svg width="48" height="48" viewBox="0 0 48 48" fill="none" xmlns="http://www.w3.org/2000/svg">
<circle cx="24" cy="24" r="24" fill="url(#paint0_linear)"/>
<path d="M23.9988 38.94C23.4465 38.956 22.9089 38.7601 22.4963 38.3922C22.0837 38.0243 21.8272 37.5124 21.7795 36.9614L21.5297 35.0019C19.151 34.3233 17.7595 32.5614 17.3979 29.7638L15.2571 13.2543C14.7978 13.1803 14.333 13.1468 13.8679 13.1543C13.1795 13.1486 12.4936 13.2375 11.8294 13.4185V38.4566H7.6286V18.3305C7.6286 15.5995 8.85363 13.6709 11.0849 12.8685V11.5709C11.0849 10.0709 11.9959 9.06378 13.3494 9.06378C14.7028 9.06378 15.552 9.90664 15.7709 11.4447L15.9374 12.6471C18.3803 13.3304 19.8075 15.2947 20.2309 18.4828L22.21 34.3971C23.3924 34.6257 24.6076 34.6257 25.7899 34.3971L27.769 18.4852C28.1829 15.2947 29.6268 13.3304 32.0626 12.64L32.2291 11.4376C32.448 9.90664 33.309 9.05664 34.6506 9.05664C35.9922 9.05664 36.9151 10.0638 36.9151 11.5638V12.8614C39.1464 13.6638 40.3714 15.5924 40.3714 18.3233V38.4495H36.1659V13.4162C35.5016 13.2352 34.8157 13.1462 34.1273 13.1519C33.6622 13.1444 33.1974 13.1779 32.7381 13.2519L30.5973 29.7638C30.2429 32.5114 28.818 34.3162 26.4655 35.0019L26.23 36.9638C26.1933 37.521 25.9383 38.0412 25.5205 38.4112C25.1027 38.7813 24.5558 38.9713 23.9988 38.94ZM22.3075 35.1923L22.524 36.8804C22.5467 37.2506 22.7143 37.5969 22.9903 37.8443C23.2664 38.0917 23.6287 38.2201 23.9988 38.2019C24.1829 38.2151 24.3678 38.1912 24.5425 38.1316C24.7173 38.072 24.8782 37.978 25.016 37.855C25.1538 37.732 25.2654 37.5826 25.3444 37.4156C25.4235 37.2486 25.4682 37.0675 25.476 36.8828L25.6924 35.1923C24.5716 35.3765 23.4283 35.3765 22.3075 35.1923ZM36.9151 37.7185H39.6221V18.3305C39.6221 16.0162 38.6896 14.4185 36.9151 13.6733V37.7185ZM8.37075 37.7185H11.0849V13.6733C9.31272 14.4185 8.38979 16.0162 8.38979 18.3305L8.37075 37.7185ZM16.0444 13.459L18.1425 29.6662C18.4422 32.0114 19.5483 33.5281 21.4274 34.19L19.4888 18.5757C19.132 15.8233 18.0021 14.1424 16.0444 13.459ZM31.9555 13.459C29.9979 14.1424 28.8633 15.8233 28.5112 18.5781L26.5726 34.1804C28.4541 33.5185 29.5578 32.0019 29.8575 29.6566L31.9555 13.459ZM11.8341 12.6305C12.5014 12.468 13.186 12.3881 13.8727 12.3924C14.3021 12.3878 14.7313 12.4133 15.1572 12.4685L15.0287 11.5328C14.8646 10.3852 14.2984 9.80426 13.3494 9.80426C12.4003 9.80426 11.8341 10.4781 11.8341 11.5614V12.6305ZM34.1273 12.3924C34.814 12.3881 35.4986 12.468 36.1659 12.6305V11.5709C36.1659 10.4876 35.5854 9.81378 34.6506 9.81378C33.7158 9.81378 33.1354 10.3947 32.9713 11.5424L32.8428 12.4781C33.2687 12.4228 33.6979 12.3973 34.1273 12.4019V12.3924Z" fill="white"/>
<defs>
<linearGradient id="paint0_linear" x1="25.5" y1="-4.8" x2="29.4" y2="45.9" gradientUnits="userSpaceOnUse">
<stop stop-color="#E7F3FF"/>
<stop offset="0.411626" stop-color="#DF733A"/>
<stop offset="1" stop-color="#806DF2"/>
</linearGradient>
</defs>
</svg>
