<svg width="48" height="48" viewBox="0 0 48 48" fill="none" xmlns="http://www.w3.org/2000/svg">
<path d="M24 48C37.2548 48 48 37.2548 48 24C48 10.7452 37.2548 0 24 0C10.7452 0 0 10.7452 0 24C0 37.2548 10.7452 48 24 48Z" fill="url(#paint0_linear)"/>
<path d="M12.1872 31.2V19.904L20.7536 26.3512V31.2H22.94V25.896C22.9396 25.6989 22.8935 25.5046 22.8054 25.3283C22.7172 25.152 22.5894 24.9986 22.432 24.88L12.0432 17.0584C11.8532 16.9173 11.6278 16.8316 11.392 16.8109C11.1562 16.7902 10.9193 16.8352 10.7076 16.9411C10.4958 17.047 10.3176 17.2094 10.1927 17.4105C10.0678 17.6116 10.0011 17.8433 10 18.08V31.2H12.1872ZM35.8784 31.2V19.904L27.312 26.3512V31.2H25.1256V25.896C25.126 25.6989 25.1721 25.5046 25.2602 25.3283C25.3484 25.152 25.4762 24.9986 25.6336 24.88L36.0224 17.0616C36.2122 16.9206 36.4373 16.835 36.6728 16.8141C36.9084 16.7933 37.145 16.8381 37.3566 16.9436C37.5682 17.049 37.7465 17.2111 37.8716 17.4116C37.9968 17.6122 38.0639 17.8436 38.0656 18.08V31.2H35.8784Z" fill="white"/>
<defs>
<linearGradient id="paint0_linear" x1="24" y1="0" x2="24" y2="48" gradientUnits="userSpaceOnUse">
<stop stop-color="#4FA89B"/>
<stop offset="1" stop-color="#6ACEBB"/>
</linearGradient>
</defs>
</svg>
