<svg width="48" height="48" viewBox="0 0 48 48" fill="none" xmlns="http://www.w3.org/2000/svg">
<path fill-rule="evenodd" clip-rule="evenodd" d="M47.962 23.8478C47.962 37.0186 37.2254 47.6956 23.981 47.6956C10.7367 47.6956 0 37.0186 0 23.8478C0 10.677 10.7367 0 23.981 0C37.2254 0 47.962 10.677 47.962 23.8478ZM25.0379 14.6919C25.0379 12.8794 26.5072 11.4102 28.3196 11.4102C30.132 11.4102 31.6014 12.8794 31.6014 14.692V24.1394H35.8921V17.2969C35.8921 16.2513 36.7398 15.4036 37.7854 15.4036C38.8311 15.4036 39.6787 16.2513 39.6787 17.2969V24.1394H35.8921V31.7279C35.8921 32.913 34.9314 33.8737 33.7463 33.8737C32.5614 33.8737 31.6006 32.913 31.6006 31.7279V24.1395H25.0379V33.7104C25.0379 35.5926 23.5121 37.1184 21.6299 37.1184C19.7478 37.1184 18.222 35.5926 18.222 33.7104V24.1394H25.0379V14.6919ZM13.9302 17.7992C13.9302 16.6141 14.891 15.6534 16.0759 15.6534C17.261 15.6534 18.2217 16.6141 18.2217 17.7992V24.1396H13.9302V17.7992ZM11.1535 30.1299C12.687 30.1299 13.9302 28.8867 13.9302 27.3531V24.1396H8.37656V27.3531C8.37656 28.8867 9.61979 30.1299 11.1535 30.1299ZM43.7761 26.2213C43.7761 27.379 42.8376 28.3175 41.68 28.3175C40.5224 28.3175 39.584 27.379 39.584 26.2213V24.1486H43.7761V26.2213ZM6.28008 19.9796C5.1225 19.9796 4.18402 20.9181 4.18402 22.0756V24.1485H8.37615V22.0756C8.37615 20.9181 7.43777 19.9796 6.28008 19.9796Z" fill="url(#paint0_linear)"/>
<defs>
<linearGradient id="paint0_linear" x1="31.9154" y1="-1.46622e-06" x2="13.649" y2="43.7886" gradientUnits="userSpaceOnUse">
<stop stop-color="#6F56FD"/>
<stop offset="1" stop-color="#00CABE"/>
</linearGradient>
</defs>
</svg>
