<svg width="48" height="48" viewBox="0 0 48 48" fill="none" xmlns="http://www.w3.org/2000/svg">
<circle cx="24" cy="24" r="24" fill="black"/>
<path d="M11.2929 31.6868H36.5128V35.6521H11.2929V31.6868Z" fill="white"/>
<path d="M11.4503 15.153C11.4503 14.1219 11.3873 13.1218 11.2929 12.0893H15.7855L15.9415 14.1866C16.441 13.4763 17.6602 11.7349 20.8287 11.7349C24.4679 11.7349 25.5022 14.0262 25.8103 14.7985C27.1212 12.1864 29.2607 11.7672 30.8928 11.7672C34.0915 11.7672 35.3775 13.735 35.7223 14.3793C36.5692 15.7986 36.5089 17.765 36.5089 19.1843V28.1042H31.838V18.8042C31.838 17.0628 31.5876 15.1273 29.1728 15.1273C26.3805 15.1273 26.3176 17.8041 26.3176 20.2235V28.1042H21.6441V18.7004C21.6441 17.4429 21.6127 15.1206 19.0406 15.1206C16.1238 15.1206 16.1238 17.7017 16.1238 18.8042V28.1042H11.4503V15.153Z" fill="white"/>
</svg>
