<svg width="48" height="48" viewBox="0 0 48 48" fill="none" xmlns="http://www.w3.org/2000/svg">
<path d="M46.6817 29.936L36.5457 12.3538C34.3236 8.68927 28.9047 8.65028 26.7605 12.5098L16.1177 30.7936C14.1295 34.1463 16.5855 38.3566 20.562 38.3566H41.8865C45.902 38.3566 48.9039 34.0293 46.6817 29.936Z" fill="#00B897"/>
<path d="M32.0624 31.3005L31.4386 30.2089C30.8539 29.1952 29.5673 27.0121 29.5673 27.0121L20.9907 12.12C18.7686 8.80628 13.5057 8.53339 11.2836 12.7048L1.3035 29.975C-0.76269 33.6005 1.69334 38.3176 6.17659 38.3567H27.3842H36.4287H41.8086C36.3118 38.3957 34.5575 35.5497 32.0624 31.3005Z" fill="#76FCB2"/>
<path d="M32.0624 31.3003L31.4386 30.2089C30.8539 29.1952 29.5673 27.0121 29.5673 27.0121L24.0315 17.2659L16.0786 30.8326C14.0905 34.1852 16.5465 38.3955 20.523 38.3955H27.3452H36.3897H41.8086C36.2728 38.3566 34.5574 35.5497 32.0624 31.3003Z" fill="url(#paint0_linear)"/>
<defs>
<linearGradient id="paint0_linear" x1="13.2482" y1="24.6684" x2="37.8859" y2="33.7727" gradientUnits="userSpaceOnUse">
<stop stop-color="#53E57A" stop-opacity="0"/>
<stop offset="1" stop-color="#00A977"/>
</linearGradient>
</defs>
</svg>
