<svg width="48" height="48" viewBox="0 0 48 48" fill="none" xmlns="http://www.w3.org/2000/svg">
<path d="M24 48C37.2548 48 48 37.2548 48 24C48 10.7452 37.2548 0 24 0C10.7452 0 0 10.7452 0 24C0 37.2548 10.7452 48 24 48Z" fill="url(#paint0_linear)"/>
<path d="M24 39.3917C32.6422 39.3917 39.648 32.3859 39.648 23.7437C39.648 15.1016 32.6422 8.0957 24 8.0957C15.3579 8.0957 8.35201 15.1016 8.35201 23.7437C8.35201 32.3859 15.3579 39.3917 24 39.3917Z" fill="white"/>
<path d="M33.5132 5.98558L23.1159 23.9942C22.415 25.2082 22.8308 26.7605 24.0446 27.4613C25.2584 28.162 26.8106 27.746 27.5115 26.532L37.9087 8.52335C38.6097 7.30932 38.1939 5.75707 36.9801 5.05628C35.7663 4.3555 34.2141 4.77156 33.5132 5.98558Z" fill="url(#paint1_linear)"/>
<path d="M29.017 32.1888L28.968 24.2659L25.1923 30.624H22.609L18.8333 24.5386V32.1888H13.4938V14.8022H18.312L23.975 24.0672L29.4893 14.8022H34.3075L34.3574 32.1888H29.017Z" fill="#09006E"/>
<path d="M23.7024 22.9786L31.0637 10.2307C31.2302 9.94206 31.452 9.68902 31.7164 9.48607C31.9808 9.28312 32.2825 9.13425 32.6044 9.04796C32.9264 8.96166 33.2621 8.93963 33.5926 8.98313C33.923 9.02662 34.2416 9.1348 34.5302 9.30146C35.1129 9.63817 35.538 10.1925 35.7121 10.8425C35.8862 11.4926 35.795 12.1852 35.4586 12.768L28.0982 25.5168C27.7617 26.0996 27.2074 26.525 26.5574 26.6992C25.9073 26.8735 25.2146 26.7824 24.6317 26.4461C24.049 26.1092 23.6238 25.5548 23.4496 24.9046C23.2753 24.2545 23.3663 23.5617 23.7024 22.9786Z" fill="url(#paint2_linear)"/>
<defs>
<linearGradient id="paint0_linear" x1="-1.224" y1="49.224" x2="47.1734" y2="0.826559" gradientUnits="userSpaceOnUse">
<stop offset="0.04" stop-color="#09006E"/>
<stop offset="0.13" stop-color="#080E74"/>
<stop offset="0.29" stop-color="#073484"/>
<stop offset="0.53" stop-color="#05709D"/>
<stop offset="0.81" stop-color="#02C3C0"/>
<stop offset="1" stop-color="#00FFD9"/>
</linearGradient>
<linearGradient id="paint1_linear" x1="32.225" y1="13.684" x2="37.0246" y2="5.37092" gradientUnits="userSpaceOnUse">
<stop offset="0.15" stop-color="#09006E"/>
<stop offset="1" stop-color="#00FFD9"/>
</linearGradient>
<linearGradient id="paint2_linear" x1="24.635" y1="26.5987" x2="34.3901" y2="9.70161" gradientUnits="userSpaceOnUse">
<stop stop-color="#09006E"/>
<stop offset="0.45" stop-color="#064E8F"/>
<stop offset="1" stop-color="#00FFD9"/>
</linearGradient>
</defs>
</svg>
