<svg width="48" height="48" viewBox="0 0 48 48" fill="none" xmlns="http://www.w3.org/2000/svg">
<g clip-path="url(#clip0)">
<path d="M3.45432 34.2907C5.3621 34.2907 6.90866 32.7441 6.90866 30.8364C6.90866 28.9286 5.3621 27.3821 3.45432 27.3821C1.54654 27.3821 -1.52588e-05 28.9286 -1.52588e-05 30.8364C-1.52588e-05 32.7441 1.54654 34.2907 3.45432 34.2907Z" fill="#4A90E2"/>
<path d="M44.6178 13.7091C42.7477 13.7091 41.1635 15.2212 41.1635 17.1634C41.1635 19.8992 40.7306 20.6178 37.7091 20.6178H37.4206C35.6948 20.7621 34.3269 22.2021 34.3269 24V24.0721C34.3269 26.7357 33.822 27.3822 30.8726 27.3822C30.7283 27.3822 30.5841 27.3822 30.5119 27.4543C28.7861 27.6707 27.4183 29.1107 27.4183 30.8365C27.4183 32.7066 28.9304 34.2908 30.8726 34.2908C32.6705 34.2908 34.1827 32.8508 34.2548 31.1251V30.8365C34.2548 28.3893 35.0456 27.4543 37.637 27.3822H37.7091C39.5071 27.3822 41.0192 25.9422 41.0913 24.1443V23.9278C41.0913 21.4085 41.8821 20.4735 44.5457 20.4735C46.4157 20.4735 48 18.9614 48 17.0192C48 15.2212 46.4879 13.7091 44.6178 13.7091ZM24.3246 20.6178H24.0361C21.0146 20.6178 20.5818 19.8992 20.5818 17.1634C20.5818 15.2934 19.0696 13.7091 17.1274 13.7091C15.2574 13.7091 13.6731 15.2212 13.6731 17.1634C13.6731 19.8992 13.2403 20.5456 10.2188 20.5456H9.9302C8.20442 20.6899 6.83656 22.1299 6.83656 23.9278C6.83656 25.7979 8.3487 27.3822 10.2909 27.3822C12.0888 27.3822 13.601 25.9422 13.6731 24.2164V24C13.6731 21.4807 14.4638 20.5456 17.1274 20.5456C19.791 20.5456 20.5818 21.4807 20.5818 23.9278C20.5818 25.7979 22.0939 27.3822 24.0361 27.3822C25.9783 27.3822 27.4904 25.87 27.4904 23.9278C27.4183 22.2021 26.0504 20.7621 24.3246 20.6178Z" fill="#4A90E2"/>
</g>
<defs>
<clipPath id="clip0">
<rect width="48" height="48" fill="white"/>
</clipPath>
</defs>
</svg>
