<svg width="48" height="48" viewBox="0 0 48 48" fill="none" xmlns="http://www.w3.org/2000/svg">
<path d="M38.4639 2.45333L28.4484 17.3333C27.7558 18.3467 29.0877 19.5733 30.0466 18.72L39.9023 10.1333C40.1687 9.92 40.5416 10.08 40.5416 10.4533V37.28C40.5416 37.6533 40.0622 37.8133 39.8491 37.5467L10.0155 1.81333C9.0566 0.64 7.67148 0 6.12653 0H5.06104C2.29079 0 0 2.29333 0 5.12V42.88C0 45.7067 2.29079 48 5.11432 48C6.87236 48 8.52386 47.0933 9.4828 45.5467L19.4983 30.6667C20.1909 29.6533 18.859 28.4267 17.9001 29.28L8.0444 37.8133C7.77803 38.0267 7.40511 37.8667 7.40511 37.4933V10.72C7.40511 10.3467 7.88457 10.1867 8.09767 10.4533L37.9312 46.1867C38.8901 47.36 40.3285 48 41.8202 48H42.8857C45.7092 48 48 45.7067 48 42.88V5.12C48 2.29333 45.7092 0 42.8857 0C41.0744 0 39.4229 0.906667 38.4639 2.45333Z" fill="black"/>
</svg>
