<svg width="48" height="48" viewBox="0 0 48 48" fill="none" xmlns="http://www.w3.org/2000/svg">
<path d="M0.0153503 10.5828V36.8959C0.0158254 37.0539 0.0586106 37.2091 0.139522 37.3462C0.220435 37.4834 0.336705 37.598 0.476967 37.6785L12.0174 44.1264V17.2729L0.0153503 10.5828Z" fill="#60BEFF"/>
<path d="M35.9825 3.87378L47.523 10.3216C47.6632 10.4022 47.7795 10.5167 47.8605 10.6539C47.9413 10.7911 47.9841 10.9463 47.9846 11.1043V37.4173L35.9825 30.7086V3.87378Z" fill="#1A4199"/>
<path d="M11.9977 44.1262L23.9998 37.4175L11.9977 30.7087V44.1262Z" fill="#3CA9E5"/>
<path d="M12.4597 4.1352L35.983 17.2917V30.7092L0.0153503 10.583L11.5558 4.1352C11.6925 4.05645 11.8487 4.01489 12.0078 4.01489C12.1668 4.01489 12.3231 4.05645 12.4597 4.1352Z" fill="#3CA9E5"/>
<path d="M35.9829 3.87378L24.0001 10.5825L35.9829 17.2912V3.87378Z" fill="#2853C3"/>
<path d="M47.9847 37.4175L36.4443 43.8653C36.3022 43.9387 36.1435 43.9771 35.9826 43.9771C35.8216 43.9771 35.6631 43.9387 35.521 43.8653L11.9977 30.7087V17.2727L47.9847 37.4175Z" fill="#2853C3"/>
</svg>
