<svg width="48" height="48" viewBox="0 0 48 48" fill="none" xmlns="http://www.w3.org/2000/svg">
<path fill-rule="evenodd" clip-rule="evenodd" d="M24 46.6479C36.5081 46.6479 46.6479 36.5081 46.6479 24C46.6479 11.4919 36.5081 1.35211 24 1.35211C11.4919 1.35211 1.35211 11.4919 1.35211 24C1.35211 36.5081 11.4919 46.6479 24 46.6479ZM24 48C37.2548 48 48 37.2548 48 24C48 10.7452 37.2548 0 24 0C10.7452 0 0 10.7452 0 24C0 37.2548 10.7452 48 24 48Z" fill="#070001"/>
<path d="M32.7211 10.8946L32.0451 10.2185C29.8141 8.25798 26.9746 7.2439 23.9324 7.2439C20.6197 7.2439 17.4422 8.5284 15.1437 10.8946C12.7775 13.2608 11.493 16.3707 11.493 19.6833V40.3707H36.3718V19.7509C36.3718 16.3707 35.0197 13.2608 32.7211 10.8946ZM28.8676 39.0862C27.7183 39.4918 26.4338 39.6946 25.1493 39.6946H16.1577V35.5707C15.9549 35.3678 15.7521 35.0974 15.6169 34.8946C14.062 32.8664 13.2507 30.365 13.2507 27.796V20.0214C13.2507 16.9791 14.4 14.1397 16.4282 11.9087C16.6986 11.9087 17.0366 11.9087 17.3746 11.9763C19.4704 12.1791 22.3099 12.9228 24.7437 14.6129C26.907 16.1002 29.5437 18.8045 29.5437 23.1988V38.8833C29.3408 38.9509 29.138 39.0185 28.8676 39.0862Z" fill="#070001"/>
<path d="M24.8113 14.6129C22.3775 12.9904 19.538 12.1791 17.4422 11.9763C17.1042 11.9763 16.7662 11.9087 16.4958 11.9087C14.4676 14.1397 13.3183 16.9791 13.3183 20.0214V27.796C13.3183 30.365 14.1296 32.8664 15.6845 34.8946C15.8873 35.0974 16.0225 35.3678 16.2253 35.5707V39.6946H25.2169C26.5014 39.6946 27.7183 39.4918 28.9352 39.0862C29.2056 39.0186 29.4084 38.9509 29.6789 38.8157V23.1312C29.6113 18.7369 26.9746 16.1002 24.8113 14.6129ZM16.9014 38.9509V36.3143C18.1183 37.4636 19.538 38.4101 21.0929 38.9509H16.9014ZM28.8676 38.3425C27.7183 38.7481 26.4338 38.9509 25.1493 38.9509C22.1746 38.9509 19.4028 37.8016 17.2394 35.6383L16.8338 35.2326C16.5634 34.9622 16.2929 34.6242 16.0901 34.2862C14.6704 32.3932 13.9267 30.0946 13.9267 27.7284V20.0214C13.9267 17.3171 14.9408 14.6805 16.6986 12.6524C21.431 12.8552 28.8 16.1002 28.8 23.1312V38.3425H28.8676Z" fill="#070001"/>
<path d="M21.0476 29.9088C20.8448 29.9088 20.642 29.7059 20.642 29.5031V22.6074C20.642 20.782 22.1293 19.2947 23.9547 19.2947C25.78 19.2947 27.2674 20.782 27.2674 22.6074C27.2674 22.8102 27.0645 23.013 26.8617 23.013C26.6589 23.013 26.4561 22.8102 26.4561 22.6074C26.4561 21.2552 25.3068 20.1059 23.9547 20.1059C22.6026 20.1059 21.4533 21.2552 21.4533 22.6074V29.5031C21.4533 29.7059 21.2505 29.9088 21.0476 29.9088Z" fill="#070001"/>
<path d="M25.1716 24.5679C24.9688 24.5679 24.766 24.3651 24.766 24.1623C24.766 23.6891 24.4279 23.351 23.9547 23.351C23.4814 23.351 23.1434 23.6891 23.1434 24.1623C23.1434 24.3651 22.9406 24.5679 22.7378 24.5679C22.535 24.5679 22.3322 24.3651 22.3322 24.1623C22.3322 23.2158 23.0758 22.4722 24.0223 22.4722C24.9688 22.4722 25.7124 23.2158 25.7124 24.1623C25.5772 24.3651 25.3744 24.5679 25.1716 24.5679Z" fill="#070001"/>
<path d="M21.0477 29.9088C19.8308 29.9088 18.8167 28.8948 18.8167 27.6779C18.8167 27.475 19.0195 27.2722 19.2223 27.2722C19.4251 27.2722 19.6279 27.475 19.6279 27.6779C19.6279 28.4215 20.2364 29.03 20.98 29.03C21.7237 29.03 22.3322 28.4215 22.3322 27.6779C22.3322 27.475 22.535 27.2722 22.7378 27.2722C22.9406 27.2722 23.1434 27.475 23.1434 27.6779C23.211 28.8948 22.2646 29.9088 21.0477 29.9088Z" fill="#070001"/>
<path d="M18.6815 25.244C18.5462 25.244 18.4786 25.1764 18.411 25.1088L16.5857 23.2835V24.8384C16.5857 25.0412 16.3829 25.244 16.18 25.244C15.9772 25.244 15.7068 25.0412 15.7068 24.7708V22.2694C15.7068 22.0666 15.842 21.9313 15.9772 21.8637C16.18 21.7961 16.3153 21.7961 16.4505 21.9313L18.2758 23.7567V22.675C18.2758 22.4722 18.4786 22.2694 18.6815 22.2694C18.8843 22.2694 19.0871 22.4722 19.0871 22.675V24.7708C19.0871 24.9736 18.9519 25.1088 18.8167 25.1764C18.8167 25.244 18.7491 25.244 18.6815 25.244Z" fill="#070001"/>
<path d="M20.98 23.0806C20.7772 23.0806 20.5744 22.8778 20.5744 22.675C20.5744 22.6074 20.5744 20.9172 19.4251 20.9172C19.2223 20.9172 19.0195 20.7144 19.0195 20.5116C19.0195 20.3088 19.2223 20.106 19.4251 20.106C20.98 20.106 21.3857 21.7961 21.3857 22.675C21.3857 22.8778 21.1829 23.0806 20.98 23.0806Z" fill="#070001"/>
</svg>
