<svg width="48" height="48" viewBox="0 0 48 48" fill="none" xmlns="http://www.w3.org/2000/svg">
<path d="M23.9909 47.5536C37.0164 47.5536 47.5756 36.9944 47.5756 23.9688C47.5756 10.9433 37.0164 0.384033 23.9909 0.384033C10.9653 0.384033 0.406052 10.9433 0.406052 23.9688C0.406052 36.9944 10.9653 47.5536 23.9909 47.5536Z" fill="url(#paint0_linear)"/>
<path d="M24.4622 30.299C24.4622 30.299 29.3453 31.5009 33.216 28.464C37.0867 25.427 36.96 20.8401 36.96 20.8401C36.96 20.8401 32.5833 19.4779 28.608 22.3761C24.6326 25.2744 24.4622 30.299 24.4622 30.299Z" fill="white"/>
<path d="M24.4464 32.5922C24.4464 32.5922 25.2418 36.0299 28.3714 37.4881C31.501 38.9464 34.3306 37.4181 34.3306 37.4181C34.3306 37.4181 33.7958 34.2462 30.721 32.6757C27.6461 31.1051 24.4464 32.5922 24.4464 32.5922Z" fill="white"/>
<path d="M31.8043 31.1039C31.8043 31.1039 33.4925 32.9811 35.9568 32.8107C38.4211 32.6403 39.6634 30.7035 39.6634 30.7035C39.6634 30.7035 38.2306 28.9016 35.76 28.9828C33.2894 29.0639 31.8043 31.1039 31.8043 31.1039Z" fill="white"/>
<path d="M29.3352 19.2547C29.3352 19.2547 26.7326 14.9524 21.8472 14.3659C16.9618 13.7793 13.8096 17.1057 13.8096 17.1057C13.8096 17.1057 15.9413 21.1636 20.8013 21.9259C25.6613 22.6881 29.3352 19.2547 29.3352 19.2547Z" fill="white"/>
<path d="M30.9672 17.6457C30.9672 17.6457 32.8354 14.6524 31.6541 11.4057C30.4728 8.15898 27.3907 7.2417 27.3907 7.2417C27.3907 7.2417 25.5259 9.8649 26.592 13.1519C27.6581 16.439 30.9672 17.6457 30.9672 17.6457Z" fill="white"/>
<path d="M24.7123 13.4952C24.7123 13.4952 24.8453 10.9738 22.9843 9.35185C21.1234 7.72993 18.8731 8.22097 18.8731 8.22097C18.8731 8.22097 18.613 10.5077 20.4158 12.1959C22.2187 13.884 24.7123 13.4952 24.7123 13.4952Z" fill="white"/>
<path d="M20.329 25.1677C20.329 25.1677 16.0267 27.7708 15.4402 32.6557C14.8536 37.5407 18.18 40.6943 18.18 40.6943C18.18 40.6943 22.2379 38.5626 23.0002 33.7021C23.7624 28.8416 20.329 25.1677 20.329 25.1677Z" fill="white"/>
<path d="M18.72 23.5358C18.72 23.5358 15.7262 21.6676 12.4824 22.8479C9.23858 24.0283 8.31842 27.1113 8.31842 27.1113C8.31842 27.1113 10.9392 28.9761 14.2224 27.9129C17.5056 26.8497 18.72 23.5358 18.72 23.5358Z" fill="white"/>
<path d="M14.5694 29.791C14.5694 29.791 12.048 29.6576 10.426 31.519C8.80413 33.3805 9.29517 35.6297 9.29517 35.6297C9.29517 35.6297 11.5819 35.8899 13.27 34.087C14.9582 32.2841 14.5694 29.791 14.5694 29.791Z" fill="white"/>
<defs>
<linearGradient id="paint0_linear" x1="23.9909" y1="0.384033" x2="23.9909" y2="47.5536" gradientUnits="userSpaceOnUse">
<stop offset="0.01" stop-color="#6172B0"/>
<stop offset="0.08" stop-color="#495B9E"/>
<stop offset="0.09" stop-color="#485A9D"/>
<stop offset="0.37" stop-color="#2F4387"/>
<stop offset="0.55" stop-color="#253A7E"/>
<stop offset="1" stop-color="#20326E"/>
</linearGradient>
</defs>
</svg>
