<svg width="48" height="48" viewBox="0 0 48 48" fill="none" xmlns="http://www.w3.org/2000/svg">
<g clip-path="url(#clip0)">
<path d="M45.14 32.096C45.1413 26.6969 45.1413 21.2978 45.14 15.8989C45.1619 15.3468 44.8847 14.7975 44.4416 14.472C38.0079 9.77114 31.5741 5.06953 25.1402 0.367203C24.9456 0.215051 24.7207 0.106339 24.4806 0.0483813C24.2405 -0.00957669 23.9907 -0.0154362 23.7482 0.031197C23.4484 0.0899981 23.1782 0.240001 22.9374 0.420484C16.5495 5.08953 10.1612 9.75834 3.77258 14.4269C3.53377 14.5929 3.33892 14.8145 3.20483 15.0725C3.07074 15.3306 3.00143 15.6174 3.00288 15.9082C2.99904 21.3059 2.99904 26.7034 3.00288 32.1006C2.99448 32.6853 3.29785 33.2526 3.77858 33.5819C10.1665 38.2486 16.5532 42.9162 22.9386 47.585C23.5497 48.1077 24.5083 48.149 25.139 47.6395C31.5523 42.9566 37.9631 38.2716 44.3715 33.5843C44.8542 33.2591 45.1664 32.6817 45.1396 32.0963" fill="#050708"/>
<path d="M21.8462 3.89552C22.0156 3.70351 22.1875 3.40423 22.4853 3.44407C23.4984 3.45007 24.5139 3.42823 25.5267 3.45487C25.7022 3.56383 25.8366 3.72727 25.9866 3.86768C25.9827 4.91314 25.9827 5.95884 25.9866 7.00478C25.6851 7.00838 25.3827 7.02182 25.0813 7.00118C25.063 6.92726 25.0268 6.78205 25.0093 6.70837C25.0093 5.92764 25.077 5.14594 25.0117 4.36641C24.2672 4.36753 23.5231 4.36753 22.7796 4.36641C22.776 4.62897 22.7748 4.89298 22.7724 5.15554C22.4589 5.15554 22.1443 5.15554 21.8296 5.15314C21.8318 4.73529 21.7857 4.31048 21.8462 3.89552Z" fill="white"/>
<path d="M19.3203 5.17112C19.6628 5.15792 20.0053 5.15792 20.3489 5.16632C20.3537 6.61259 20.3597 8.05766 20.3453 9.50273C20.0185 9.50993 19.6918 9.50993 19.3662 9.50753C19.2574 8.0675 19.3443 6.61619 19.3203 5.17112Z" fill="white"/>
<path d="M28.0325 6.72518C28.9445 6.71318 29.8551 6.71678 30.7666 6.72278C30.7714 7.05688 30.7714 7.38977 30.7666 7.72363C29.8546 7.73323 28.9426 7.73683 28.0306 7.72123C28.0272 7.38953 28.0272 7.05568 28.0306 6.72518" fill="white"/>
<path d="M22.5023 7.21765C22.8702 7.20925 23.2381 7.21045 23.6063 7.21045C23.9584 7.89542 24.4002 8.53455 24.6863 9.25216C24.3486 9.268 24.0097 9.268 23.672 9.2692C23.2708 8.59167 22.8834 7.90622 22.5023 7.21765Z" fill="white"/>
<path d="M26.2589 8.422C26.5772 8.4148 26.8954 8.416 27.2151 8.4208C28.0815 9.76482 28.9237 11.1247 29.7966 12.4656C29.7966 12.8736 29.7966 13.2816 29.7894 13.6896C29.6948 13.6726 29.5086 13.6399 29.4154 13.6243C28.6748 12.5203 27.9934 11.3769 27.2612 10.2681C27.2492 11.5161 27.2648 12.7642 27.2528 14.0122C26.9211 14.0183 26.5887 14.0183 26.2556 14.0122C26.2515 12.1495 26.2455 10.2856 26.2589 8.422Z" fill="white"/>
<path d="M30.2141 9.17826C30.553 9.17106 30.8931 9.17106 31.232 9.18066C31.2344 9.50011 31.2344 9.821 31.232 10.1407C30.8931 10.1491 30.553 10.1491 30.2153 10.1431C30.2129 9.82212 30.2129 9.50051 30.2153 9.17826" fill="white"/>
<path d="M13.4601 9.49411C13.7275 9.48931 13.9951 9.49051 14.2624 9.49291C14.9765 9.44491 15.6893 9.45907 16.4035 9.50011C16.4059 9.80996 16.4035 10.121 16.4011 10.4309C15.3451 11.0649 14.3304 11.7682 13.2592 12.3749C12.9434 12.2549 12.7024 12.0022 12.4446 11.7914C13.1455 11.3642 13.8316 10.914 14.5397 10.4988C14.1813 10.4805 13.822 10.4829 13.4637 10.4793C13.4575 10.15 13.4563 9.82164 13.4601 9.49411Z" fill="white"/>
<path d="M21.908 9.86204C22.2361 9.85244 22.5651 9.85364 22.892 9.86204C22.9004 10.1913 22.9004 10.5192 22.892 10.8485C22.564 10.8581 22.236 10.8585 21.908 10.8497C21.9003 10.5204 21.9003 10.1912 21.908 9.86204Z" fill="white"/>
<path d="M17.0933 10.8254C17.6187 11.6218 18.1282 12.4291 18.6605 13.2207C19.1919 12.4195 19.705 11.6062 20.2412 10.8086C20.2412 11.3366 20.2762 11.8702 20.2304 12.3977C19.7439 13.2315 19.1811 14.0194 18.6569 14.8304C18.1414 14.0328 17.5954 13.2521 17.1065 12.439C17.0511 11.9038 17.0909 11.3628 17.0933 10.8254Z" fill="white"/>
<path d="M31.6372 10.9598C33.2141 10.9526 34.7911 10.953 36.3682 10.961C36.3682 11.2805 36.3682 11.6014 36.3668 11.9211C34.7909 11.9247 33.2144 11.9251 31.6372 11.9222C31.6358 11.6014 31.6348 11.2798 31.6372 10.9598Z" fill="white"/>
<path d="M23.29 12.2088C23.607 12.2028 23.9252 12.2028 24.2437 12.2064C24.2596 13.6054 24.2437 15.0058 24.2521 16.4065C24.1045 16.5469 23.9581 16.6897 23.8141 16.8325C22.7211 16.8445 21.6284 16.8325 20.5366 16.8385C20.3926 16.7005 20.245 16.5685 20.1154 16.4197C20.0597 15.9913 20.1008 15.5542 20.0996 15.1237C20.4036 15.1213 20.7085 15.1213 21.0145 15.1237C21.0229 15.3706 21.0217 15.6174 21.0181 15.8643C21.7698 15.9491 22.5272 15.8883 23.2825 15.9066C23.2864 14.6741 23.2744 13.4398 23.29 12.2088Z" fill="white"/>
<path d="M38.5359 16.3443C38.526 15.2883 38.526 14.2317 38.5359 13.1746C38.8664 13.1674 39.1967 13.1662 39.5283 13.1746C39.5391 14.2306 39.5391 15.2876 39.5283 16.3455C39.1976 16.351 38.8674 16.3498 38.5369 16.3455" fill="white"/>
<path d="M33.8271 13.9723C34.4511 13.9663 35.0784 13.8694 35.6991 13.9699C36.1057 15.2952 36.4544 16.6409 36.8586 17.9686C36.5391 17.971 36.2182 17.971 35.8985 17.971C35.5935 16.9412 35.3333 15.8991 35.0187 14.8714C34.8432 14.8738 34.6678 14.8762 34.4921 14.8774C34.2307 15.9147 33.9161 16.9362 33.6461 17.9696C33.324 17.9707 33.0021 17.9703 32.6803 17.9684C33.0766 16.6409 33.4483 15.3044 33.8271 13.9723Z" fill="white"/>
<path d="M7.14842 14.4783C8.5863 14.4699 10.0254 14.4663 11.463 14.4783C11.4714 14.8088 11.4714 15.1378 11.4642 15.4683C10.0242 15.4815 8.58606 15.4779 7.14698 15.4695C7.14242 15.139 7.14242 14.8066 7.14842 14.4771" fill="white"/>
<path d="M12.1411 14.4795C12.468 14.4771 12.7946 14.4759 13.1227 14.4795C13.1299 14.8112 13.1299 15.1438 13.1227 15.4755C12.7946 15.4791 12.468 15.4779 12.1411 15.4755C12.1372 15.1438 12.1372 14.8133 12.1411 14.4819" fill="white"/>
<path d="M15.7548 14.5203C16.0755 14.5179 16.3976 14.5191 16.7182 14.5227C16.7278 15.2907 16.723 16.0609 16.723 16.8297C16.3973 16.8321 16.0719 16.8333 15.7476 16.8297C15.7443 16.0616 15.7342 15.2895 15.7548 14.5191" fill="white"/>
<path d="M40.8887 15.2103C41.2579 15.2031 41.6282 15.2043 41.9973 15.2031C42.3628 15.8809 42.8071 16.5231 43.0792 17.2472C42.7432 17.2592 42.4051 17.2604 42.0686 17.2619C41.6707 16.5805 41.2917 15.8878 40.8885 15.2103" fill="white"/>
<path d="M26.3364 16.0323C26.6564 16.0299 26.9764 16.0299 27.2964 16.0323C27.3036 17.0852 27.2985 18.1381 27.2985 19.1912C26.9767 19.1936 26.6558 19.1948 26.3342 19.1948C26.3342 18.141 26.3325 17.0857 26.3364 16.0311" fill="white"/>
<path d="M29.7125 17.3127C29.7087 16.9835 29.7087 16.6535 29.7125 16.3227C30.0356 16.3179 30.3605 16.3179 30.6843 16.3263C30.6843 16.6556 30.6867 16.9847 30.6819 17.3139C30.3593 17.3151 30.0339 17.3139 29.7113 17.3139" fill="white"/>
<path d="M11.4462 18.7722C12.2219 18.2058 13.0499 17.7133 13.8463 17.1783C14.3729 17.1843 14.898 17.1783 15.4246 17.1855C14.6426 17.7448 13.8112 18.2276 13.0245 18.7794C13.8331 19.2877 14.6258 19.8203 15.4294 20.3334C14.8884 20.343 14.3474 20.337 13.8064 20.3382C13.0257 19.8083 12.2147 19.3199 11.4462 18.7722Z" fill="white"/>
<path d="M38.5372 17.8537C38.8686 17.8465 39.2003 17.8453 39.5332 17.8537C39.5414 18.1854 39.5404 18.5157 39.5308 18.8474C39.2003 18.8546 38.8689 18.8534 38.5384 18.8474C38.5312 18.5168 38.5312 18.1864 38.5384 17.8561" fill="white"/>
<path d="M4.48947 17.9893C6.14551 17.9797 7.80442 17.9761 9.46261 17.9917C9.46621 18.3052 9.46621 18.6198 9.46741 18.9345C8.72675 19.4197 7.9861 19.9074 7.22481 20.3577C6.90296 20.2403 6.6596 19.9737 6.38479 19.7781C6.79496 19.5191 7.21137 19.2685 7.60881 18.9913C6.56911 18.9865 5.52965 18.9973 4.48875 18.9853C4.48395 18.6536 4.48395 18.3216 4.48875 17.9893" fill="white"/>
<path d="M18.6691 18.9503C20.1034 18.9563 21.5374 18.9431 22.9705 18.9563C23.0053 19.2824 23.0009 19.6116 22.9573 19.9367C21.5278 19.9427 20.0998 19.9379 18.6718 19.9391C18.6692 19.6084 18.6683 19.2788 18.6691 18.9503Z" fill="white"/>
<path d="M23.9073 18.9563C24.2522 18.9491 24.5959 18.9491 24.941 18.9611C24.9422 19.283 24.9417 19.6042 24.9396 19.9245C24.5959 19.9341 24.251 19.9341 23.9075 19.9281C23.9042 19.6039 23.9042 19.2801 23.9075 18.9563" fill="white"/>
<path d="M28.4182 20.3433C28.3733 20.0032 28.722 19.829 28.9011 19.5954C29.3223 19.5954 29.7433 19.593 30.1647 19.6014C30.1743 19.9185 30.1743 20.2355 30.1693 20.554C29.9034 20.5588 29.6355 20.5588 29.3696 20.5624V22.8209C30.6075 22.8293 31.8457 22.8161 33.0839 22.8281C33.0875 23.1487 33.0875 23.4696 33.0791 23.7881C31.6849 23.7977 30.2893 23.7893 28.8951 23.7929C28.7172 23.5606 28.376 23.3849 28.4194 23.0474C28.4132 22.1465 28.4132 21.2451 28.4194 20.3433" fill="white"/>
<path d="M33.1127 20.043C33.454 20.031 33.7977 20.031 34.1402 20.043C34.1439 20.3698 34.1439 20.6966 34.1402 21.0234C33.7977 21.0354 33.4564 21.0354 33.1139 21.0234C33.1103 20.6954 33.1103 20.3687 33.1139 20.0406" fill="white"/>
<path d="M36.3746 20.043C37.8173 20.0236 39.2588 20.037 40.7015 20.0358C40.7039 20.3687 40.7039 20.7028 40.7 21.0354C39.2585 21.0354 37.8173 21.0474 36.3755 21.0294C36.3707 20.7002 36.3707 20.3714 36.3755 20.043" fill="white"/>
<path d="M16.3904 21.1941C17.199 21.1929 18.0061 21.1941 18.8145 21.1929C18.8217 21.5289 18.8217 21.8649 18.8145 22.2009C18.0071 22.2022 17.2002 22.2022 16.3938 22.2009C16.3797 21.8649 16.379 21.5293 16.3916 21.1941" fill="white"/>
<path d="M21.7215 21.1941C22.9899 21.1929 24.2584 21.1941 25.5266 21.1917C25.9874 21.1197 26.4489 21.5983 26.3906 22.0533C26.3878 22.985 26.3874 23.9177 26.3891 24.8515C26.2269 25.027 26.0637 25.2 25.9002 25.3742C25.4802 25.3742 25.0617 25.3742 24.6417 25.3694C24.6381 25.0494 24.6377 24.7299 24.6405 24.4109C24.903 24.4073 25.1661 24.4049 25.4284 24.4013C25.4284 23.6678 25.4284 22.9332 25.4308 22.1997C24.1986 22.0896 22.9571 22.1815 21.7213 22.1488C21.7182 21.8288 21.7182 21.5106 21.7213 21.1941" fill="white"/>
<path d="M12.7823 21.4893C13.402 21.4857 14.0205 21.4821 14.6402 21.4917C15.0153 22.8314 15.4183 24.1639 15.773 25.5099C15.461 25.5099 15.149 25.5099 14.8387 25.5123C14.5204 24.4786 14.2746 23.4257 13.9466 22.397C13.7699 22.4078 13.5933 22.421 13.4164 22.4344C13.1817 23.4705 12.8464 24.4798 12.5898 25.5111C12.2692 25.5111 11.9483 25.5111 11.6298 25.5075C12.0114 24.168 12.3913 22.8266 12.7818 21.4893" fill="white"/>
<path d="M39.8167 22.6996C40.8968 22.6888 41.9782 22.6778 43.0568 22.7032C43.3292 22.8712 43.6364 23.1439 43.5771 23.502C43.5771 24.27 43.5723 25.0402 43.5771 25.8089C43.5675 26.178 43.5843 26.5472 43.5735 26.9163C43.5905 27.2177 43.5082 27.5141 43.5255 27.8168C43.2181 27.8168 42.9106 27.8168 42.6032 27.8132C42.6068 26.4262 42.6032 25.038 42.6056 23.651C41.8512 23.6304 41.0976 23.6462 40.3435 23.6402C40.3421 23.898 40.3421 24.1558 40.3375 24.4147C40.0203 24.4195 39.7031 24.4211 39.3859 24.4195C39.3799 23.9947 39.3814 23.5687 39.3823 23.1439C39.5285 22.9975 39.6725 22.8496 39.8165 22.6996" fill="white"/>
<path d="M9.08245 22.7383H10.0857C10.0881 23.7924 10.0857 24.8453 10.0857 25.8984H9.07765C9.08245 24.8455 9.07885 23.7914 9.08125 22.7383" fill="white"/>
<path d="M5.93454 23.6196C6.26383 23.6148 6.59287 23.6244 6.92096 23.6462C6.92464 23.9584 6.92464 24.271 6.92096 24.5841C6.58927 24.5877 6.25783 24.5889 5.92614 24.5841C5.92254 24.2621 5.92374 23.9414 5.93454 23.6208" fill="white"/>
<path d="M17.7228 29.3963C17.7142 27.5324 17.7138 25.6684 17.7216 23.8042C18.0485 23.7994 18.3751 23.7994 18.702 23.8066C19.47 25.0447 20.262 26.2695 21.0464 27.4991C21.3853 27.9359 21.182 28.5217 21.2365 29.0301C21.1227 29.0301 21.0089 29.0325 20.8964 29.0349C20.1908 27.914 19.4537 26.8126 18.7783 25.6748C18.6562 26.9118 18.7565 28.1595 18.7167 29.4013C18.3843 29.4047 18.053 29.4047 17.7228 29.3963Z" fill="white"/>
<path d="M22.0804 24.5211C22.4131 24.5139 22.7459 24.5131 23.0788 24.5187C23.0836 25.3333 23.0824 26.1479 23.0788 26.9622C22.7448 26.9682 22.4119 26.9682 22.078 26.9598C22.0725 26.1467 22.0711 25.3333 22.078 24.5211" fill="white"/>
<path d="M28.1143 25.6104C28.4401 25.608 28.7667 25.6068 29.0936 25.6104C29.0997 25.9421 29.0997 26.2737 29.0936 26.6052C28.7667 26.6065 28.4403 26.6065 28.1143 26.6052C28.1105 26.2748 28.1105 25.9436 28.1143 25.6116" fill="white"/>
<path d="M31.289 25.6539C32.3032 25.6407 33.3175 25.6479 34.3329 25.6503C34.3739 25.9467 34.3994 26.2482 34.3703 26.5484C34.2743 26.7433 34.0447 26.6657 33.8728 26.684C33.0088 26.6585 32.1422 26.7337 31.2842 26.636C31.2782 26.3074 31.2782 25.9808 31.289 25.6539Z" fill="white"/>
<path d="M35.381 25.7943C35.7079 25.7895 36.0381 25.7677 36.365 25.8183C36.3964 26.9631 36.3782 28.1118 36.3722 29.258C36.0418 29.2641 35.7118 29.2641 35.3822 29.258C35.3711 28.1039 35.3711 26.9498 35.3822 25.7955" fill="white"/>
<path d="M26.3364 26.4725C26.6558 26.4725 26.9767 26.4701 27.2964 26.4725C27.3 26.8017 27.3009 27.132 27.2964 27.4637C26.9764 27.4685 26.6564 27.4685 26.3364 27.4637C26.334 27.1334 26.334 26.8017 26.3364 26.4713" fill="white"/>
<path d="M10.9487 27.1764C12.0887 27.053 13.2398 27.151 14.3846 27.1147C14.6796 27.1109 14.9746 27.1242 15.268 27.1546C15.2728 27.4874 15.2716 27.8215 15.268 28.1542C13.828 28.1518 12.3911 28.1614 10.9535 28.1494C10.9448 27.8251 10.9448 27.5014 10.9475 27.1764" fill="white"/>
<path d="M4.49065 27.9126C4.64689 27.7602 4.80409 27.6064 4.96154 27.454C5.37794 27.4516 5.79411 27.4504 6.20956 27.4588C6.21436 27.7734 6.21436 28.0893 6.21196 28.4039C5.953 28.4099 5.69523 28.4111 5.43626 28.4135C5.44226 29.164 5.43266 29.9142 5.44226 30.6647C6.66821 30.6683 7.89439 30.6563 9.12034 30.6707C9.12634 30.9805 9.12634 31.2892 9.12394 31.599C8.82009 31.6002 8.51505 31.6014 8.21192 31.6014C7.12398 31.5906 6.0346 31.6197 4.94786 31.5882C4.76641 31.4853 4.58353 31.3158 4.50121 31.1236C4.47265 30.0539 4.49785 28.9828 4.49185 27.9126" fill="white"/>
<path d="M29.9249 28.5365C30.0884 28.3829 30.253 28.2291 30.4213 28.0791C31.4813 28.0875 32.5416 28.0791 33.6017 28.0827C33.7616 28.2351 33.9212 28.3889 34.0817 28.5401C34.083 29.5895 34.083 30.6384 34.0817 31.687C33.7587 31.6894 33.4354 31.687 33.1136 31.6786C33.1136 30.7963 33.1064 29.9152 33.1172 29.0329C32.3732 29.0317 31.6323 29.0329 30.8902 29.0317C30.8914 29.3003 30.8902 29.5691 30.8842 29.8377C30.566 29.8425 30.2477 29.8425 29.9305 29.8413C29.9201 29.4063 29.9225 28.9719 29.9237 28.5365" fill="white"/>
<path d="M36.7315 30.3887C37.9075 29.6226 39.0953 28.8767 40.2812 28.1279C40.5644 28.3168 40.8428 28.5153 41.1188 28.7137C40.2654 29.2577 39.4125 29.8004 38.5603 30.3417C39.8129 30.3549 41.0658 30.3417 42.3196 30.3489C42.322 30.6817 42.322 31.0158 42.3196 31.3485C40.4578 31.3545 38.5963 31.3545 36.7351 31.3485C36.7303 31.0276 36.7303 30.7069 36.7327 30.3885" fill="white"/>
<path d="M23.422 30.5785C24.6021 29.793 25.8196 29.0643 26.9995 28.279C27.28 28.4727 27.5575 28.67 27.8431 28.855C27.0271 29.4286 26.1609 29.9286 25.3293 30.4815C26.5747 30.5034 27.82 30.4791 29.0654 30.4947C29.0738 30.8372 29.0738 31.1809 29.0654 31.5234C27.2016 31.5342 25.3375 31.527 23.4734 31.527C23.4254 31.2128 23.4254 30.8946 23.4232 30.5773" fill="white"/>
<path d="M11.1714 29.7314C11.6893 30.5234 12.2087 31.3154 12.7206 32.1096C13.27 31.3252 13.7615 30.5016 14.3061 29.7131C14.3169 30.2469 14.3085 30.7819 14.3133 31.3156C13.7711 32.1096 13.2748 32.935 12.7182 33.7181C12.2027 32.9314 11.7028 32.1341 11.1654 31.3617C11.1601 30.8184 11.1546 30.2738 11.1714 29.7314Z" fill="white"/>
<path d="M16.8483 31.7634C16.8363 31.4245 16.8351 31.0856 16.8543 30.7479C17.18 30.7443 17.5079 30.7455 17.8336 30.7719C17.8408 31.1022 17.8408 31.4326 17.8336 31.7632C17.5062 31.7658 17.1781 31.767 16.8495 31.7632" fill="white"/>
<path d="M21.4627 32.2525C21.7932 32.2489 22.1246 32.2477 22.4551 32.2525C22.4635 33.4833 22.4551 34.7143 22.4599 35.9451C22.2252 35.9547 21.9902 35.9657 21.7555 35.9873C21.6804 35.9726 21.5304 35.9463 21.4552 35.9328C21.4627 34.7068 21.4492 33.4797 21.4627 32.2537" fill="white"/>
<path d="M28.2994 33.0247C28.9234 33.0127 29.5458 33.0211 30.1693 33.0175C30.5517 34.3572 30.9346 35.697 31.3179 37.0369C30.9961 37.0369 30.674 37.0369 30.3534 37.0297C30.0798 36.0058 29.7834 34.988 29.5049 33.9653C29.3307 33.9545 29.1565 33.9471 28.9822 33.9387C28.6942 34.9721 28.407 36.0053 28.1206 37.0383C27.7988 37.0383 27.4779 37.0383 27.1573 37.0335C27.5492 35.6998 27.9389 34.3661 28.2994 33.0254" fill="white"/>
<path d="M14.1693 35.2442C15.3566 34.4817 16.5415 33.7144 17.7454 32.9773C18.0226 33.1722 18.3022 33.3613 18.5768 33.5608C17.7151 34.097 16.8703 34.661 16.0001 35.1825C17.2613 35.2065 18.5235 35.1789 19.7859 35.1972C19.7919 35.5289 19.7931 35.8603 19.7835 36.192C17.9136 36.198 16.0437 36.2066 14.1739 36.1884C14.1645 35.8735 14.1657 35.5589 14.1693 35.2442Z" fill="white"/>
<path d="M23.9764 33.2208C24.324 33.2246 24.6715 33.2036 25.0161 33.1579C25.4241 33.8299 25.9055 34.4964 26.115 35.2613C25.7894 35.2637 25.4639 35.2637 25.1397 35.2661C24.7567 34.5812 24.3689 33.8994 23.9764 33.2208Z" fill="white"/>
<path d="M37.7215 33.631C38.0616 33.6202 38.4028 33.6202 38.7439 33.6274C38.7453 33.9528 38.7453 34.2788 38.7439 34.6053C38.4028 34.6137 38.0625 34.6137 37.7225 34.5993C37.7165 34.276 37.7165 33.9542 37.7225 33.631" fill="white"/>
<path d="M35.2152 36.2355C35.6268 35.5736 36.0672 34.9308 36.4812 34.2701C36.4932 34.7602 36.5006 35.2517 36.4884 35.743C36.5004 35.9271 36.3662 36.0699 36.2803 36.2187C35.8243 36.8929 35.387 37.5803 34.9394 38.2587C34.4009 37.4552 33.8794 36.643 33.3468 35.8347C33.3444 35.2973 33.3396 34.76 33.3528 34.2238C33.8755 35.0069 34.3694 35.8105 34.9044 36.5862C35.0554 36.5223 35.1233 36.3603 35.2164 36.2355" fill="white"/>
<path d="M9.88619 35.2831C10.7588 35.2541 11.6327 35.2685 12.5066 35.2747C12.5114 35.5978 12.532 35.9227 12.4907 36.2452C11.6241 36.2875 10.754 36.2671 9.88739 36.2512C9.88379 35.9282 9.88379 35.6062 9.88619 35.2831Z" fill="white"/>
<path d="M20.5247 37.3927C21.9237 37.3721 23.3217 37.3927 24.7207 37.3819C24.8807 37.5419 25.0407 37.7029 25.2007 37.8648C25.1947 38.9336 25.1971 40.0035 25.1983 41.0745C25.058 41.2209 24.9192 41.369 24.7819 41.5187C24.3341 41.5283 23.8862 41.5295 23.4379 41.5163C23.4439 41.2137 23.4053 40.905 23.4778 40.6086C23.7307 40.582 23.9849 40.5916 24.2402 40.5892C24.2426 39.8401 24.2402 39.092 24.2402 38.3441C23.0009 38.3369 21.7603 38.3599 20.5223 38.3321C20.5185 38.0186 20.5185 37.7055 20.5223 37.3927" fill="white"/>
<path d="M13.8039 37.7485C14.1306 37.7437 14.4578 37.7445 14.7855 37.7509C14.7903 38.0775 14.7907 38.4051 14.7867 38.7337C14.4574 38.7385 14.1294 38.7389 13.8027 38.7349C13.7982 38.4056 13.7982 38.0768 13.8027 37.7485" fill="white"/>
<path d="M31.1134 38.2771C31.4838 37.9651 31.8203 38.4852 32.1373 38.6371C32.1373 38.6662 32.1373 38.7254 32.1373 38.7545C31.3095 39.2883 30.4623 39.793 29.6525 40.3546L30.1222 40.351C30.3713 40.351 30.6215 40.3538 30.8727 40.3594C30.8751 40.6863 30.8751 41.0141 30.8703 41.341C29.8513 41.3557 28.8322 41.3518 27.8131 41.3434C27.7925 41.0348 27.7891 40.7249 27.7865 40.4175C28.8744 39.6735 30.0097 39.0014 31.1122 38.2771" fill="white"/>
<path d="M15.6423 39.1849C16.9652 39.1801 18.2893 39.1729 19.6119 39.1885C19.6143 39.514 19.6143 39.84 19.6119 40.1666C18.2878 40.1861 16.9649 40.1774 15.6411 40.1714C15.6351 39.8424 15.6363 39.513 15.6411 39.1849" fill="white"/>
<path d="M19.1679 41.6975C19.5407 41.6939 19.9134 41.6927 20.2863 41.6999C20.6312 42.3861 21.0899 43.0181 21.3551 43.7429C21.021 43.7611 20.6881 43.7611 20.3543 43.7635C19.9463 43.0821 19.5649 42.3844 19.1679 41.6975Z" fill="white"/>
<path d="M25.7747 42.7407C26.1004 42.7383 26.4258 42.7431 26.75 42.7647C26.756 43.0904 26.7536 43.4171 26.7126 43.7416C26.4016 43.7429 26.0914 43.7429 25.7819 43.7416C25.7699 43.4055 25.7699 43.0736 25.7745 42.7407" fill="white"/>
<path d="M23.5055 45.9797C23.5055 45.2196 23.4884 44.4583 23.5175 43.6982C23.8455 43.6982 24.1746 43.7165 24.5014 43.7462C24.5051 44.4905 24.5051 45.2353 24.5014 45.9804C24.1693 45.9855 23.8373 45.9855 23.5055 45.9804" fill="white"/>
</g>
<defs>
<clipPath id="clip0">
<rect width="48" height="48" fill="white"/>
</clipPath>
</defs>
</svg>
