<svg width="48" height="48" viewBox="0 0 48 48" fill="none" xmlns="http://www.w3.org/2000/svg">
<path d="M7.62792 23.4238C7.62816 23.892 7.48955 24.3497 7.22963 24.7391C6.96971 25.1284 6.60015 25.432 6.16771 25.6113C5.73526 25.7906 5.25934 25.8376 4.80016 25.7465C4.34097 25.6553 3.91915 25.43 3.58803 25.099C3.25691 24.7681 3.03138 24.3463 2.93996 23.8872C2.84854 23.4281 2.89534 22.9521 3.07444 22.5196C3.25354 22.087 3.5569 21.7173 3.94613 21.4572C4.33537 21.1971 4.79301 21.0583 5.26116 21.0583C5.88866 21.0583 6.49047 21.3075 6.93429 21.7511C7.37811 22.1947 7.6276 22.7963 7.62792 23.4238ZM45.2322 23.4238C45.2324 23.892 45.0938 24.3498 44.8338 24.7392C44.5738 25.1286 44.2042 25.4321 43.7717 25.6114C43.3392 25.7907 42.8632 25.8377 42.404 25.7464C41.9448 25.6551 41.5229 25.4297 41.1919 25.0986C40.8608 24.7675 40.6354 24.3457 40.5441 23.8865C40.4528 23.4273 40.4998 22.9513 40.679 22.5188C40.8583 22.0862 41.1619 21.7166 41.5513 21.4566C41.9407 21.1967 42.3984 21.058 42.8666 21.0583C43.4931 21.0599 44.0934 21.3097 44.5359 21.7532C44.9784 22.1966 45.2271 22.7974 45.2274 23.4238H45.2322ZM26.4306 32.7607C26.4309 33.2289 26.2922 33.6867 26.0323 34.0761C25.7723 34.4655 25.4027 34.769 24.9702 34.9483C24.5376 35.1276 24.0617 35.1745 23.6024 35.0833C23.1432 34.992 22.7214 34.7665 22.3903 34.4355C22.0593 34.1044 21.8338 33.6826 21.7425 33.2234C21.6513 32.7641 21.6982 32.2882 21.8775 31.8556C22.0568 31.4231 22.3603 31.0535 22.7497 30.7935C23.1391 30.5336 23.5969 30.3949 24.0651 30.3951C24.6924 30.3955 25.2939 30.6448 25.7374 31.0884C26.181 31.5319 26.4303 32.1334 26.4306 32.7607ZM16.9648 28.1514C16.9648 28.6195 16.826 29.0771 16.5659 29.4663C16.3059 29.8555 15.9362 30.1589 15.5038 30.338C15.0713 30.5171 14.5954 30.564 14.1363 30.4727C13.6772 30.3813 13.2555 30.1559 12.9245 29.8249C12.5935 29.4939 12.3681 29.0722 12.2768 28.6131C12.1854 28.154 12.2323 27.6781 12.4114 27.2457C12.5906 26.8132 12.8939 26.4436 13.2831 26.1835C13.6723 25.9234 14.1299 25.7846 14.598 25.7846C15.2257 25.7846 15.8277 26.034 16.2716 26.4778C16.7154 26.9217 16.9648 27.5237 16.9648 28.1514ZM35.7675 28.1514C35.7687 28.6199 35.6308 29.0783 35.3712 29.4684C35.1117 29.8585 34.7422 30.1628 34.3095 30.3427C33.8769 30.5226 33.4006 30.57 32.9409 30.479C32.4813 30.388 32.059 30.1626 31.7276 29.8313C31.3962 29.5001 31.1706 29.0779 31.0793 28.6184C30.9881 28.1588 31.0353 27.6824 31.215 27.2497C31.3947 26.817 31.6988 26.4473 32.0887 26.1876C32.4787 25.9278 32.937 25.7897 33.4055 25.7906C34.0314 25.7919 34.6312 26.0409 35.0739 26.4834C35.5165 26.9258 35.7659 27.5255 35.7675 28.1514ZM6.8601 30.5874C6.85986 30.9036 6.76585 31.2127 6.58996 31.4755C6.41407 31.7383 6.1642 31.9431 5.87194 32.0639C5.57968 32.1847 5.25817 32.2161 4.94805 32.1542C4.63793 32.0923 4.35315 31.9398 4.1297 31.716C3.90625 31.4922 3.75418 31.2072 3.69271 30.897C3.63125 30.5868 3.66315 30.2653 3.78439 29.9732C3.90563 29.6811 4.11076 29.4316 4.37383 29.2561C4.63691 29.0806 4.94611 28.987 5.26235 28.9873C5.47233 28.9874 5.68022 29.0289 5.87415 29.1094C6.06808 29.1899 6.24426 29.3078 6.39262 29.4564C6.54099 29.605 6.65863 29.7814 6.73884 29.9754C6.81905 30.1695 6.86025 30.3774 6.8601 30.5874ZM44.4643 30.5874C44.4641 30.9036 44.3701 31.2127 44.1942 31.4755C44.0183 31.7383 43.7685 31.9431 43.4762 32.0639C43.1839 32.1847 42.8624 32.2161 42.5523 32.1542C42.2422 32.0923 41.9574 31.9398 41.734 31.716C41.5105 31.4922 41.3584 31.2072 41.297 30.897C41.2355 30.5868 41.2674 30.2653 41.3886 29.9732C41.5099 29.6811 41.715 29.4316 41.9781 29.2561C42.2412 29.0806 42.5504 28.987 42.8666 28.9873C43.2906 28.9876 43.6971 29.1562 43.9969 29.4559C44.2967 29.7557 44.4652 30.1622 44.4655 30.5862L44.4643 30.5874ZM25.6628 40.0509C25.6631 40.3672 25.5695 40.6765 25.3939 40.9396C25.2182 41.2028 24.9685 41.4079 24.6763 41.5291C24.3841 41.6502 24.0625 41.682 23.7522 41.6203C23.442 41.5587 23.157 41.4064 22.9333 41.1827C22.7096 40.959 22.5573 40.674 22.4956 40.3637C22.434 40.0534 22.4657 39.7318 22.5869 39.4396C22.7081 39.1474 22.9132 38.8977 23.1763 38.7221C23.4394 38.5465 23.7487 38.4529 24.0651 38.4531C24.4886 38.4538 24.8947 38.6223 25.1942 38.9218C25.4937 39.2213 25.6622 39.6273 25.6628 40.0509ZM16.1982 35.3162C16.1982 35.6324 16.1044 35.9416 15.9286 36.2046C15.7529 36.4676 15.5031 36.6725 15.2108 36.7935C14.9186 36.9145 14.5971 36.9461 14.2869 36.8843C13.9767 36.8225 13.6918 36.6701 13.4682 36.4463C13.2446 36.2226 13.0924 35.9376 13.0309 35.6273C12.9693 35.3171 13.0011 34.9956 13.1224 34.7034C13.2436 34.4113 13.4487 34.1617 13.7118 33.9861C13.9749 33.8106 14.2841 33.717 14.6004 33.7172C14.8103 33.7172 15.0182 33.7586 15.2121 33.8389C15.4061 33.9193 15.5822 34.0371 15.7306 34.1856C15.879 34.3341 15.9967 34.5104 16.0769 34.7044C16.1571 34.8983 16.1983 35.1062 16.1982 35.3162ZM35.0009 35.3162C35.0016 35.6327 34.9083 35.9423 34.7329 36.2058C34.5575 36.4693 34.3078 36.6748 34.0155 36.7963C33.7232 36.9177 33.4014 36.9497 33.0909 36.8881C32.7804 36.8265 32.4952 36.6742 32.2713 36.4503C32.0475 36.2265 31.8952 35.9413 31.8336 35.6308C31.772 35.3203 31.804 34.9985 31.9254 34.7062C32.0469 34.4139 32.2524 34.1642 32.5159 33.9888C32.7794 33.8134 33.089 33.7201 33.4055 33.7208C33.8282 33.7221 34.2331 33.8906 34.5318 34.1895C34.8305 34.4885 34.9988 34.8935 34.9997 35.3162H35.0009ZM6.09347 36.2141C6.09347 36.3795 6.04444 36.5411 5.95259 36.6785C5.86074 36.816 5.7302 36.9231 5.57746 36.9864C5.42472 37.0497 5.25665 37.0662 5.0945 37.034C4.93236 37.0017 4.78342 36.9221 4.66651 36.8052C4.54961 36.6883 4.47 36.5394 4.43775 36.3772C4.4055 36.2151 4.42205 36.047 4.48532 35.8943C4.54858 35.7415 4.65572 35.611 4.79318 35.5191C4.93064 35.4273 5.09225 35.3782 5.25758 35.3782C5.47927 35.3782 5.69188 35.4663 5.84864 35.6231C6.0054 35.7798 6.09347 35.9924 6.09347 36.2141ZM43.6977 36.2141C43.6977 36.3795 43.6487 36.5411 43.5568 36.6785C43.465 36.816 43.3344 36.9231 43.1817 36.9864C43.029 37.0497 42.8609 37.0662 42.6988 37.034C42.5366 37.0017 42.3877 36.9221 42.2708 36.8052C42.1539 36.6883 42.0743 36.5394 42.042 36.3772C42.0098 36.2151 42.0263 36.047 42.0896 35.8943C42.1528 35.7415 42.26 35.611 42.3974 35.5191C42.5349 35.4273 42.6965 35.3782 42.8618 35.3782C43.0835 35.3782 43.2961 35.4663 43.4529 35.6231C43.6097 35.7798 43.6977 35.9924 43.6977 36.2141ZM24.895 45.68C24.895 45.8453 24.846 46.0069 24.7541 46.1444C24.6623 46.2818 24.5317 46.389 24.379 46.4522C24.2262 46.5155 24.0582 46.5321 23.896 46.4998C23.7339 46.4676 23.5849 46.3879 23.468 46.271C23.3511 46.1541 23.2715 46.0052 23.2393 45.8431C23.207 45.6809 23.2236 45.5128 23.2868 45.3601C23.3501 45.2074 23.4573 45.0768 23.5947 44.985C23.7322 44.8931 23.8938 44.8441 24.0591 44.8441C24.2808 44.8441 24.4934 44.9322 24.6502 45.0889C24.8069 45.2457 24.895 45.4583 24.895 45.68ZM15.4303 40.9477C15.4303 41.113 15.3813 41.2746 15.2895 41.412C15.1976 41.5495 15.0671 41.6566 14.9143 41.7199C14.7616 41.7832 14.5935 41.7997 14.4314 41.7675C14.2692 41.7352 14.1203 41.6556 14.0034 41.5387C13.8865 41.4218 13.8069 41.2729 13.7746 41.1107C13.7424 40.9486 13.7589 40.7805 13.8222 40.6278C13.8855 40.475 13.9926 40.3445 14.1301 40.2526C14.2675 40.1608 14.4291 40.1118 14.5945 40.1118C14.8161 40.1118 15.0288 40.1998 15.1855 40.3566C15.3423 40.5134 15.4303 40.726 15.4303 40.9477ZM34.2331 40.9477C34.2331 41.113 34.184 41.2746 34.0922 41.412C34.0003 41.5495 33.8698 41.6566 33.7171 41.7199C33.5643 41.7832 33.3963 41.7997 33.2341 41.7675C33.072 41.7352 32.923 41.6556 32.8061 41.5387C32.6892 41.4218 32.6096 41.2729 32.5774 41.1107C32.5451 40.9486 32.5617 40.7805 32.6249 40.6278C32.6882 40.475 32.7953 40.3445 32.9328 40.2526C33.0702 40.1608 33.2319 40.1118 33.3972 40.1118C33.6189 40.1118 33.8315 40.1998 33.9882 40.3566C34.145 40.5134 34.2331 40.726 34.2331 40.9477ZM27.1961 5.19787C27.1961 5.83045 27.0085 6.44883 26.657 6.97476C26.3055 7.5007 25.8059 7.91058 25.2214 8.15255C24.637 8.39452 23.9938 8.45771 23.3735 8.33412C22.7531 8.21054 22.1833 7.90573 21.7361 7.45827C21.289 7.0108 20.9846 6.44077 20.8615 5.82028C20.7384 5.1998 20.802 4.55674 21.0444 3.97244C21.2869 3.38815 21.6971 2.88888 22.2233 2.53778C22.7495 2.18668 23.368 1.99953 24.0006 2C24.8483 2.00063 25.6611 2.33783 26.2603 2.93748C26.8595 3.53713 27.1961 4.35016 27.1961 5.19787ZM27.1961 14.6577C27.1961 15.2903 27.0085 15.9086 26.6571 16.4345C26.3056 16.9604 25.8061 17.3703 25.2217 17.6123C24.6373 17.8543 23.9943 17.9176 23.3739 17.7941C22.7535 17.6706 22.1837 17.3659 21.7365 16.9186C21.2894 16.4712 20.9849 15.9013 20.8616 15.2809C20.7384 14.6605 20.8019 14.0175 21.0441 13.4331C21.2863 12.8488 21.6964 12.3495 22.2224 11.9982C22.7485 11.647 23.3669 11.4596 23.9994 11.4599C24.8473 11.4602 25.6604 11.7973 26.2599 12.3969C26.8593 12.9966 27.1961 13.8098 27.1961 14.6577ZM27.1961 23.9958C27.1961 24.6284 27.0085 25.2467 26.6571 25.7726C26.3056 26.2985 25.8061 26.7084 25.2217 26.9504C24.6373 27.1924 23.9943 27.2556 23.3739 27.1322C22.7535 27.0087 22.1837 26.704 21.7365 26.2566C21.2894 25.8093 20.9849 25.2394 20.8616 24.619C20.7384 23.9986 20.8019 23.3555 21.0441 22.7712C21.2863 22.1869 21.6964 21.6876 22.2224 21.3363C22.7485 20.9851 23.3669 20.7977 23.9994 20.798C24.4197 20.7981 24.8358 20.8811 25.2239 21.0422C25.6121 21.2032 25.9647 21.4393 26.2616 21.7367C26.5584 22.0341 26.7938 22.3872 26.9541 22.7756C27.1145 23.1641 27.1967 23.5803 27.1961 24.0006V23.9958ZM46 14.6577C46 15.2902 45.8124 15.9085 45.4611 16.4344C45.1097 16.9603 44.6102 17.3702 44.0259 17.6122C43.4416 17.8542 42.7986 17.9176 42.1783 17.7942C41.5579 17.6708 40.9881 17.3662 40.5409 16.919C40.0937 16.4718 39.7891 15.9019 39.6657 15.2816C39.5423 14.6613 39.6056 14.0183 39.8477 13.434C40.0897 12.8496 40.4996 12.3502 41.0255 11.9988C41.5514 11.6474 42.1696 11.4599 42.8021 11.4599C43.6503 11.4599 44.4636 11.7968 45.0634 12.3965C45.6631 12.9962 46 13.8096 46 14.6577ZM8.39574 14.6577C8.39669 15.2904 8.20994 15.9092 7.85913 16.4357C7.50832 16.9622 7.00921 17.3728 6.42496 17.6156C5.84071 17.8584 5.19757 17.9224 4.57693 17.7995C3.95629 17.6767 3.38604 17.3725 2.93833 16.9255C2.49062 16.4784 2.18558 15.9086 2.0618 15.2882C1.93802 14.6677 2.00107 14.0245 2.24297 13.4399C2.48487 12.8552 2.89474 12.3555 3.42073 12.0039C3.94672 11.6523 4.56519 11.4647 5.19787 11.4647C6.04517 11.4647 6.85784 11.8009 7.45742 12.3996C8.057 12.9983 8.39448 13.8104 8.39574 14.6577ZM17.8604 9.92542C17.8613 10.5579 17.6747 11.1765 17.3241 11.7029C16.9735 12.2293 16.4747 12.6399 15.8907 12.8828C15.3067 13.1257 14.6638 13.19 14.0433 13.0676C13.4228 12.9451 12.8526 12.6414 12.4047 12.1948C11.9568 11.7482 11.6514 11.1789 11.527 10.5588C11.4027 9.93861 11.4651 9.29553 11.7063 8.71084C11.9474 8.12614 12.3566 7.62609 12.8819 7.27392C13.4073 6.92175 14.0253 6.73327 14.6577 6.73233C15.5059 6.73233 16.3193 7.06924 16.919 7.66896C17.5187 8.26868 17.8556 9.08207 17.8556 9.9302L17.8604 9.92542ZM17.8556 19.2671C17.8556 19.8996 17.6681 20.5178 17.3167 21.0437C16.9653 21.5696 16.4659 21.9795 15.8815 22.2215C15.2972 22.4636 14.6542 22.5269 14.0339 22.4035C13.4135 22.2801 12.8437 21.9755 12.3965 21.5283C11.9493 21.0811 11.6447 20.5113 11.5213 19.891C11.3979 19.2706 11.4613 18.6276 11.7033 18.0433C11.9453 17.459 12.3552 16.9595 12.8811 16.6081C13.407 16.2568 14.0253 16.0692 14.6577 16.0692C15.5059 16.0692 16.3193 16.4061 16.919 17.0058C17.5187 17.6056 17.8556 18.419 17.8556 19.2671ZM36.6631 9.9302C36.6631 10.5627 36.4756 11.181 36.1242 11.7068C35.7728 12.2327 35.2734 12.6426 34.689 12.8846C34.1047 13.1267 33.4617 13.19 32.8414 13.0666C32.221 12.9432 31.6512 12.6387 31.204 12.1914C30.7568 11.7442 30.4522 11.1744 30.3288 10.5541C30.2054 9.93375 30.2688 9.29076 30.5108 8.70643C30.7528 8.12209 31.1627 7.62265 31.6886 7.27127C32.2145 6.91988 32.8328 6.73233 33.4652 6.73233C34.3134 6.73233 35.1268 7.06924 35.7265 7.66896C36.3262 8.26868 36.6631 9.08207 36.6631 9.9302ZM36.6631 19.2671C36.6631 19.8996 36.4756 20.5178 36.1242 21.0437C35.7728 21.5696 35.2734 21.9795 34.689 22.2215C34.1047 22.4636 33.4617 22.5269 32.8414 22.4035C32.221 22.2801 31.6512 21.9755 31.204 21.5283C30.7568 21.0811 30.4522 20.5113 30.3288 19.891C30.2054 19.2706 30.2688 18.6276 30.5108 18.0433C30.7528 17.459 31.1627 16.9595 31.6886 16.6081C32.2145 16.2568 32.8328 16.0692 33.4652 16.0692C34.3134 16.0692 35.1268 16.4061 35.7265 17.0058C36.3262 17.6056 36.6631 18.419 36.6631 19.2671Z" fill="#141414"/>
</svg>
