<svg width="48" height="48" viewBox="0 0 48 48" fill="none" xmlns="http://www.w3.org/2000/svg">
<path d="M24 0C37.2549 0 48 10.7451 48 24C48 37.2549 37.2549 48 24 48C10.7451 48 0 37.2549 0 24C0 10.7451 10.7451 0 24 0Z" fill="#1A82FF"/>
<path d="M32.7744 33.8825C30.6967 36.4279 27.7746 37.7006 24.0082 37.7006C20.2418 37.7006 17.3193 36.4279 15.2407 33.8825C13.1616 31.3358 12.1225 28.0439 12.1234 24.0069C12.1243 19.9698 13.163 16.6784 15.2393 14.1326C17.317 11.5858 20.2395 10.3127 24.0069 10.3131C27.7742 10.3136 30.6962 11.5867 32.773 14.1326C34.8507 16.6779 35.8898 19.9694 35.8903 24.0069C35.8907 28.0443 34.8521 31.3362 32.7744 33.8825Z" fill="white"/>
<path d="M23.9643 32.3781C24.9559 32.3781 25.7989 32.1079 26.4933 31.5675C27.1877 31.0272 27.6905 30.2944 28.0018 29.3691C28.3127 28.4434 28.5321 27.5561 28.6601 26.7072C28.7881 25.8583 28.8517 24.9582 28.8507 24.0069C28.8507 22.8357 28.7799 21.7874 28.6382 20.8622L20.0955 29.7641C20.8855 31.5058 22.1751 32.3771 23.9643 32.3781Z" fill="#1A82FF"/>
<path d="M24.0494 15.6357C23.0578 15.6357 22.2149 15.9058 21.5205 16.4462C20.8261 16.9865 20.3232 17.7193 20.0119 18.6446C19.6992 19.5703 19.4798 20.4576 19.3536 21.3065C19.2256 22.1554 19.1621 23.0555 19.163 24.0069C19.163 24.6336 19.1831 25.2251 19.2233 25.7815L27.371 17.2923C26.5797 16.1883 25.4725 15.6361 24.0494 15.6357Z" fill="#1A82FF"/>
<path d="M12.7872 32.4933L11.7381 31.4866L19.6937 23.1936L20.7429 24.2002L12.7872 32.4933ZM27.7769 23.8395L26.7278 22.8329L34.6834 14.5399L35.7326 15.5465L27.7769 23.8395Z" fill="#1A82FF"/>
</svg>
