<svg width="48" height="48" viewBox="0 0 48 48" fill="none" xmlns="http://www.w3.org/2000/svg">
<g clip-path="url(#clip0)">
<path d="M24 48C37.2548 48 48 37.2548 48 24C48 10.7452 37.2548 0 24 0C10.7452 0 0 10.7452 0 24C0 37.2548 10.7452 48 24 48Z" fill="white"/>
<path fill-rule="evenodd" clip-rule="evenodd" d="M24 0.78699C11.1798 0.78699 0.786991 11.1798 0.786991 24C0.786991 36.8202 11.1798 47.213 24 47.213C36.8202 47.213 47.213 36.8202 47.213 24C47.213 11.1798 36.8202 0.78699 24 0.78699ZM-0.00476074 24C-0.00476074 10.7425 10.7425 -0.00476074 24 -0.00476074C37.2575 -0.00476074 48.0048 10.7425 48.0048 24C48.0048 37.2575 37.2575 48.0048 24 48.0048C10.7425 48.0048 -0.00476074 37.2575 -0.00476074 24Z" fill="#EB1A6B"/>
<path d="M29.9022 28.4208C30.5304 28.8711 30.8504 29.1437 31.2059 29.3689C33.363 30.803 35.7096 30.9452 37.2385 29.4993C38.8622 27.923 38.9926 25.9437 38.2341 23.9171C37.4282 21.6178 35.5319 20.2311 33.2445 20.5867C32.2133 20.7645 30.9926 21.5348 30.4119 22.3882C28.9778 24.4622 28.48 27.1171 26.0978 28.5037C25.7778 28.6815 25.8726 29.7126 25.8726 30.3526C25.92 34.8563 22.637 38.3171 17.9082 38.7674C14.1748 39.123 8.5926 36.1126 8.64001 31.9289C10.6193 32.8297 12.5037 34.0859 14.6252 34.5363C16.3793 34.9393 18.4889 34.7615 20.2548 34.1808C22.5541 33.4104 23.6326 31.2059 23.36 29.2267C23.0874 27.52 22.4119 27.0696 18.9511 26.4771C18.7259 25.4815 18.5008 24.403 18.2756 23.1941C18.6311 23.1467 18.9037 23.0637 19.1763 23.0637C20.7526 22.9334 22.4593 22.8859 22.5896 20.6815C22.72 18.9274 21.0608 16.8533 19.1289 17.043C17.2445 17.2208 15.4904 18.2163 13.3215 18.9748C12.9185 18.3467 12.243 17.3156 11.6148 16.2726C14.3645 13.037 18.8563 12.4089 22.1393 14.7911C25.1496 16.9482 25.4222 20.4208 22.7674 24.4622C23.5378 25.1852 24.2963 25.8963 25.3748 26.9393C25.7304 25.8608 25.92 25.0904 26.1807 24.3793C26.5363 23.3482 26.8089 22.2222 27.3896 21.2741C28.8237 18.7971 30.8148 17.0904 33.9082 17.4459C36.9185 17.8015 38.4593 19.5911 39.6089 22.3882C40.8652 25.6593 40.3556 28.1245 39.6089 29.9971C38.8622 31.8697 36.1126 33.7778 34.1333 33.4578C31.5259 33.0548 30.0445 31.3956 29.9022 28.4208Z" fill="black"/>
<path d="M21.2267 11.1882C25.363 14.0682 29.0133 13.6652 32.6992 11.1407C33.3748 12.2193 33.9555 13.12 34.5481 14.0207C30.1748 17.4459 23.0637 15.6919 21.2267 11.1882Z" fill="black"/>
<path d="M24.5096 9.52888C25.3155 8.53333 25.9437 7.82222 26.7141 6.92148C27.6148 7.86963 28.1955 8.49777 28.9185 9.3037C28.243 10.0741 27.6148 10.7378 26.8089 11.603C26.0385 10.9274 25.3629 10.2874 24.5096 9.52888Z" fill="#F01871"/>
</g>
<defs>
<clipPath id="clip0">
<rect width="48" height="48" fill="white"/>
</clipPath>
</defs>
</svg>
