<svg width="48" height="48" viewBox="0 0 48 48" fill="none" xmlns="http://www.w3.org/2000/svg">
<path d="M24 48C37.2548 48 48 37.2548 48 24C48 10.7452 37.2548 0 24 0C10.7452 0 0 10.7452 0 24C0 37.2548 10.7452 48 24 48Z" fill="#1A53F0"/>
<path d="M19.5663 26.8705C16.4958 26.8705 14.0067 29.3619 14.0067 32.4352C14.0067 35.5086 16.4961 38 19.5666 38C22.6371 38 25.1265 35.5086 25.1265 32.4352C25.1265 29.3619 22.6373 26.8705 19.5666 26.8705H19.5663ZM19.5663 36.3167C17.4265 36.3167 15.6904 34.5799 15.6904 32.4372C15.6904 30.2944 17.4258 28.5576 19.5663 28.5576C21.7069 28.5576 23.4425 30.2944 23.4425 32.4372C23.4389 34.578 21.7057 36.3141 19.5663 36.3167ZM31.4401 15.0002C28.3696 15.0002 25.8802 17.4917 25.8802 20.565C25.8802 23.6383 28.3696 26.1298 31.4401 26.1298C34.5106 26.1298 37 23.6383 37 20.565C37 17.4917 34.5111 15 31.4403 15L31.4401 15.0002ZM31.4401 24.4465C29.3003 24.4465 27.5642 22.7097 27.5642 20.5669C27.5642 18.4241 29.2989 16.6874 31.4403 16.6874C33.5818 16.6874 35.3165 18.4241 35.3165 20.5669C35.3129 22.7087 33.5785 24.4426 31.4403 24.4462L31.4401 24.4465ZM19.5663 15C16.9195 14.9983 14.6376 16.8642 14.1115 19.4607C13.5855 22.0573 14.9605 24.6651 17.3977 25.6962C18.5833 26.1932 19.9046 26.2658 21.1378 25.9017C22.3709 25.5377 23.44 24.7593 24.1639 23.6985C24.8878 22.6378 25.2219 21.3599 25.1097 20.0813C24.9976 18.8028 24.4459 17.6023 23.5483 16.6833H25.1248V15H19.5663ZM23.4428 20.5648C23.4428 22.7073 21.7073 24.4443 19.5666 24.4443C17.4258 24.4443 15.6906 22.7073 15.6906 20.5648C15.6906 18.4222 17.4258 16.6859 19.5663 16.6859C21.7069 16.6859 23.4408 18.4234 23.4447 20.5655H23.4428V20.5648Z" fill="white"/>
</svg>
