<svg width="48" height="48" viewBox="0 0 48 48" fill="none" xmlns="http://www.w3.org/2000/svg">
<g clip-path="url(#clip0)">
<path d="M37.6453 3.13159e-06C34.9037 -0.00213101 32.2733 1.08661 30.3315 3.02723C28.3897 4.96786 27.2951 7.60179 27.288 10.3508V21.8274C26.2213 21.8996 25.1307 21.9451 24 21.9451C22.8693 21.9451 21.784 21.9905 20.712 22.0547V10.3508C20.6684 7.62563 19.5581 5.02682 17.6207 3.11507C15.6834 1.20333 13.0742 0.131882 10.356 0.131882C7.63785 0.131882 5.02863 1.20333 3.09125 3.11507C1.15387 5.02682 0.0436134 7.62563 0 10.3508V37.7802C0.0436134 40.5054 1.15387 43.1042 3.09125 45.016C5.02863 46.9277 7.63785 47.9991 10.356 47.9991C13.0742 47.9991 15.6834 46.9277 17.6207 45.016C19.5581 43.1042 20.6684 40.5054 20.712 37.7802V26.3036C21.7787 26.2314 22.8693 26.186 24 26.186C25.1307 26.186 26.216 26.1405 27.288 26.0763V37.7802C27.3316 40.5054 28.4419 43.1042 30.3793 45.016C32.3166 46.9277 34.9258 47.9991 37.644 47.9991C40.3622 47.9991 42.9714 46.9277 44.9088 45.016C46.8461 43.1042 47.9564 40.5054 48 37.7802V10.3508C47.9929 7.60225 46.8987 4.96873 44.9575 3.02818C43.0162 1.08763 40.3865 -0.00142243 37.6453 3.13159e-06ZM10.3547 4.24088C11.9727 4.24017 13.5249 4.88307 14.6707 6.02853C15.8165 7.17399 16.4624 8.72845 16.4667 10.3508V22.5039C13.4368 22.9442 10.4779 23.783 7.66667 24.9987C6.44862 25.5348 5.302 26.221 4.25333 27.0416V10.3508C4.25756 8.7303 4.902 7.17745 6.04553 6.0323C7.18907 4.88715 8.73853 4.243 10.3547 4.24088ZM16.4667 37.7802C16.4667 39.4056 15.8227 40.9645 14.6765 42.1138C13.5303 43.2632 11.9757 43.9089 10.3547 43.9089C8.73366 43.9089 7.17905 43.2632 6.03283 42.1138C4.88661 40.9645 4.24267 39.4056 4.24267 37.7802V35.0287C4.24267 32.5981 6.16267 30.2958 9.38133 28.8626C11.6493 27.8815 14.0289 27.1837 16.4667 26.7849V37.7802ZM37.6453 43.8901C36.0273 43.8909 34.4751 43.248 33.3293 42.1025C32.1835 40.957 31.5376 39.4026 31.5333 37.7802V25.6271C34.5633 25.1868 37.5221 24.348 40.3333 23.1323C41.5514 22.5963 42.698 21.91 43.7467 21.0894V37.7802C43.7424 39.4007 43.098 40.9536 41.9545 42.0987C40.8109 43.2439 39.2615 43.888 37.6453 43.8901ZM38.6187 19.2524C36.3507 20.2335 33.9711 20.9313 31.5333 21.3301V10.3508C31.5333 8.72542 32.1773 7.16656 33.3235 6.01721C34.4697 4.86786 36.0243 4.22216 37.6453 4.22216C39.2663 4.22216 40.8209 4.86786 41.9672 6.01721C43.1134 7.16656 43.7573 8.72542 43.7573 10.3508V13.1023C43.7573 15.5223 41.8373 17.8245 38.6187 19.2524Z" fill="url(#paint0_linear)"/>
</g>
<defs>
<linearGradient id="paint0_linear" x1="3.04" y1="44.4231" x2="44.8" y2="2.66307" gradientUnits="userSpaceOnUse">
<stop stop-color="#00AEE9"/>
<stop offset="1" stop-color="#69FABD"/>
</linearGradient>
<clipPath id="clip0">
<rect width="48" height="48" fill="white"/>
</clipPath>
</defs>
</svg>
