<svg width="48" height="48" viewBox="0 0 48 48" fill="none" xmlns="http://www.w3.org/2000/svg">
<path d="M13.7628 8.52381C13.061 9.70517 11.5343 10.0946 10.3529 9.39278C9.17156 8.691 8.78217 7.16425 9.48395 5.98289C10.1857 4.80153 11.7125 4.41214 12.8938 5.11392C14.0752 5.8157 14.4646 7.34245 13.7628 8.52381Z" fill="#5F45BA"/>
<path d="M5.26888 7.41945C4.77389 8.25322 3.69373 8.52821 2.85996 8.03323C2.02618 7.53825 1.75119 6.46028 2.24618 5.62431C2.74116 4.78834 3.82132 4.51554 4.6551 5.01053C5.49107 5.50771 5.76606 6.58568 5.26888 7.41945Z" fill="#5F45BA"/>
<path d="M28.9137 43.4323C38.0302 42.3609 45.3626 34.9076 45.961 25.4215C46.6341 14.7474 38.5252 5.54952 27.8512 4.87854C26.5994 4.79934 25.3432 4.84334 24.1003 5.00614C21.5352 5.21513 19.3682 6.1941 19.3682 6.1941C17.6127 7.05207 16.4797 8.48642 16.4797 10.4048C16.4797 12.8995 18.5015 14.9234 20.9962 14.9234C21.4142 14.9234 22.8573 14.4658 23.2005 14.347C24.5117 13.8894 25.902 13.7003 27.288 13.7904C30.975 14.0236 34.0923 16.1444 35.7621 19.1517C36.7301 20.894 37.1766 22.8762 37.049 24.8649C36.6861 30.6177 31.7296 34.989 25.9746 34.626C22.5757 34.4104 19.6608 32.591 17.9163 29.9533V29.9555V29.9533C15.8307 27.2254 16.3125 22.863 16.3103 22.808C16.2245 20.3814 14.238 18.4411 11.7917 18.4411C9.70175 18.4411 7.9484 19.8601 7.42702 21.785C7.32582 22.1634 7.27303 23.2721 7.28843 23.4195C6.85724 33.9088 14.8848 42.8691 25.4136 43.5313C26.5818 43.6039 27.7522 43.5709 28.9137 43.4323Z" fill="#5F45BA"/>
<path d="M11.1713 15.4316C10.2605 16.965 8.2806 17.4687 6.74945 16.558C5.2183 15.6472 4.71232 13.6673 5.62309 12.1361C6.53386 10.605 8.51379 10.099 10.0449 11.0097C11.5761 11.9205 12.0799 13.9005 11.1713 15.4316Z" fill="#5F45BA"/>
</svg>
