<svg width="48" height="48" viewBox="0 0 48 48" fill="none" xmlns="http://www.w3.org/2000/svg">
<g clip-path="url(#clip0)">
<path d="M13.3589 7.24961C14.272 6.20984 15.1118 5.33004 15.9116 4.58354C2.40802 4.15031 6.34047 13.9148 1.9148 23.8259C-3.15072 35.25 2.51467 39.6023 10.9528 40.962C9.7744 39.5578 8.81285 37.9852 8.10007 36.2964C2.65463 29.4113 4.8608 16.8608 13.3589 7.24961Z" fill="#EFE812"/>
<path d="M45.8516 19.4202C44.2569 23.592 41.9498 27.4552 39.0331 30.8376C36.6948 33.6793 33.8939 36.1061 30.7483 38.016C27.0951 40.3309 22.8491 41.5371 18.5244 41.4885C15.9995 41.5112 13.4767 41.3352 10.9794 40.962C12.366 42.6182 14.0849 43.9648 16.025 44.9144C28.2355 50.8198 29.002 39.8556 41.9191 34.2901C49.1708 31.1642 49.1975 25.0589 45.8449 19.4202" fill="#EDE70A"/>
<path d="M30.7483 8.02278C32.516 8.33218 34.2193 8.93599 35.7872 9.80904C39.8946 12.1185 43.3555 15.4235 45.8516 19.4202C48.0511 13.2216 47.0246 8.35603 42.2191 7.47623C36.9269 6.50978 32.7945 6.19652 28.8221 3.42381C23.9298 0.0245792 19.6375 1.131 15.9183 4.59022L16.7248 4.62354C21.8836 4.93014 26.8159 5.95657 30.7216 8.00944" fill="#EDE70A"/>
<path d="M13.3589 7.2496C4.86081 16.8608 2.65464 29.4113 8.12674 36.2964C6.86088 33.3076 6.30845 30.0652 6.51322 26.8259C6.71799 23.5866 7.67433 20.4395 9.30647 17.6339C13.9121 9.95565 23.1567 6.62307 30.7483 8.02276C26.8159 5.94323 21.8836 4.94345 16.7515 4.63685L15.945 4.59686C15.1185 5.35669 14.2787 6.20983 13.3589 7.2496Z" fill="#DEC21C"/>
<path d="M35.7872 9.7957C34.2184 8.92729 32.5152 8.328 30.7483 8.02277C35.9205 10.7422 39.353 15.3544 39.353 22.6461C39.3231 25.7242 38.5192 28.7452 37.0156 31.4311C35.5119 34.117 33.3566 36.3815 30.7483 38.016C33.8955 36.1082 36.6967 33.6811 39.0331 30.8376C41.9498 27.4553 44.2569 23.5921 45.8516 19.4202C43.3572 15.4186 39.8962 12.1088 35.7872 9.7957Z" fill="#E5CB22"/>
<path d="M30.7483 8.02277C23.1567 6.62309 13.9121 9.95567 9.30648 17.6006C7.6675 20.4098 6.70735 23.5629 6.50253 26.8088C6.29771 30.0547 6.85389 33.3035 8.12674 36.2964C8.83699 37.9865 9.79877 39.5595 10.9794 40.962C13.4767 41.3352 15.9995 41.5113 18.5244 41.4886C22.8491 41.5371 27.0951 40.3309 30.7483 38.016C33.3571 36.3819 35.5126 34.1176 37.0164 31.4316C38.5201 28.7456 39.3237 25.7243 39.353 22.6461C39.353 15.3545 35.9205 10.7422 30.7483 8.02277ZM29.8952 34.5501C27.0874 36.3536 23.6798 36.9719 20.4174 36.27C17.1551 35.5681 14.3033 33.6029 12.4858 30.8043C8.71328 24.9856 10.5795 17.474 16.2382 13.4749C22.5702 8.97589 30.6883 10.7488 33.6477 17.2207C36.5337 23.5259 35.7405 30.811 29.8952 34.5501Z" fill="#CCA727"/>
</g>
<defs>
<clipPath id="clip0">
<rect width="48" height="48" fill="white"/>
</clipPath>
</defs>
</svg>
