<svg width="48" height="48" viewBox="0 0 48 48" fill="none" xmlns="http://www.w3.org/2000/svg">
<path fill-rule="evenodd" clip-rule="evenodd" d="M16.1495 4.13106C17.6576 2.62298 20.1027 2.62298 21.6108 4.13106L34.2399 16.7602L29.12 21.8802L18.8802 11.6403L8.64031 21.8802L13.7602 27.0001L18.8802 21.8802L24.0001 27.0001L18.8802 32.12L26.56 39.7999C27.9739 41.2138 27.9739 43.506 26.56 44.9199C25.1462 46.3337 22.854 46.3337 21.4401 44.9199L1.13105 24.6108C-0.377016 23.1027 -0.377016 20.6576 1.13105 19.1495L16.1495 4.13106Z" fill="#3CEAAA"/>
<path fill-rule="evenodd" clip-rule="evenodd" d="M26.3893 4.1311C27.8974 2.62301 30.3424 2.62307 31.8505 4.13115L46.8689 19.1496C48.377 20.6576 48.377 23.1027 46.8689 24.6108L26.7306 44.7492C25.2225 46.2573 22.7774 46.2573 21.2693 44.7492L18.88 42.3599L29.1199 32.1201L18.88 21.8802L24 16.7603L34.2398 27.0001L39.3597 21.8802L24 6.5204L26.3893 4.1311Z" fill="#03BCE4"/>
<path d="M24.0001 16.7605L18.8802 11.6406L13.7603 16.7605L18.8802 21.8804L24.0001 16.7605Z" fill="#029ABB"/>
<path opacity="0.95" d="M34.2398 16.7605L29.1199 11.6406L24 16.7605L29.1199 21.8804L34.2398 16.7605Z" fill="#3CEAAA"/>
</svg>
