<svg width="48" height="48" viewBox="0 0 48 48" fill="none" xmlns="http://www.w3.org/2000/svg">
<path d="M32.76 3.35999H15.96V20.16H32.76V3.35999Z" fill="white"/>
<path d="M40.536 7.46399L7.464 40.536C16.608 31.416 31.416 31.416 40.536 40.536C44.784 36.312 47.4 30.456 47.4 23.976C47.4 17.544 44.784 11.688 40.536 7.46399ZM27.36 47.16C26.808 47.232 26.256 47.304 25.68 47.352C26.232 47.304 26.808 47.232 27.36 47.16Z" fill="#D95E59"/>
<path d="M40.224 7.15201C40.128 7.05601 40.008 6.96001 39.912 6.84001C39.672 6.60001 39.408 6.38401 39.144 6.16801C39.096 6.12001 39.024 6.07201 38.976 6.02401C38.832 5.90401 38.688 5.78401 38.544 5.66401C38.304 5.47201 38.088 5.30401 37.848 5.13601C37.536 4.89601 37.2 4.68001 36.888 4.46401C36.72 4.34401 36.552 4.24801 36.408 4.15201C35.904 3.84001 35.4 3.55201 34.896 3.28801C34.728 3.19201 34.56 3.12001 34.392 3.02401C34.056 2.85601 33.696 2.68801 33.36 2.54401C32.88 2.32801 32.376 2.13601 31.896 1.96801C31.656 1.89601 31.44 1.80001 31.2 1.72801C31.056 1.68001 30.936 1.65601 30.792 1.60801C29.808 1.32001 28.8 1.08001 27.768 0.912009C27.624 0.888009 27.504 0.864009 27.384 0.840009C27.096 0.792009 26.832 0.768009 26.544 0.744009C26.256 0.720009 25.992 0.696009 25.704 0.672009C25.464 0.648009 25.2 0.648009 24.936 0.624009C24.816 0.624009 24.696 0.624009 24.576 0.624009C24.12 0.600009 23.664 0.624009 23.232 0.624009C23.088 0.624009 22.968 0.624009 22.824 0.648009C22.656 0.648009 22.488 0.672009 22.32 0.672009C22.152 0.672009 21.96 0.696009 21.792 0.720009C21.6 0.744009 21.408 0.744009 21.24 0.792009C21.096 0.816009 20.976 0.816009 20.832 0.840009C20.76 0.840009 20.688 0.864009 20.616 0.864009C20.448 0.888009 20.304 0.912009 20.136 0.936009C19.944 0.960009 19.776 1.00801 19.584 1.03201C19.44 1.05601 19.296 1.08001 19.152 1.12801C19.056 1.15201 18.984 1.17601 18.888 1.17601C18.744 1.20001 18.672 1.20001 18.6 1.22401C18.504 1.24801 18.408 1.27201 18.288 1.29601C18.168 1.32001 18.072 1.34401 17.952 1.39201C17.904 1.39201 17.832 1.41601 17.76 1.44001C17.664 1.46401 17.568 1.48801 17.472 1.51201C17.352 1.53601 17.256 1.58401 17.16 1.60801C17.088 1.63201 17.04 1.65601 16.968 1.68001C16.824 1.72801 16.68 1.77601 16.56 1.82401C16.512 1.82401 16.488 1.84801 16.44 1.87201C16.272 1.92001 16.128 1.99201 15.96 2.04001C15.768 2.08801 15.6 2.16001 15.432 2.23201C15.168 2.32801 14.904 2.44801 14.64 2.56801C14.376 2.68801 14.112 2.80801 13.872 2.92801C13.728 3.00001 13.584 3.07201 13.44 3.14401C13.296 3.21601 13.152 3.28801 13.008 3.36001C8.928 5.54401 5.568 8.90401 3.384 12.984C3.312 13.128 3.24 13.272 3.168 13.416C3.096 13.56 3.024 13.704 2.952 13.848C2.832 14.112 2.712 14.352 2.592 14.616C2.472 14.88 2.376 15.144 2.256 15.408C2.16 15.6 2.088 15.768 2.016 15.96C1.968 16.104 1.92 16.248 1.872 16.392C1.848 16.488 1.8 16.584 1.776 16.68C1.752 16.752 1.728 16.848 1.704 16.92C1.656 17.04 1.632 17.16 1.584 17.28C1.56 17.328 1.56 17.376 1.536 17.424C1.488 17.568 1.44 17.736 1.416 17.88C1.416 17.904 1.416 17.928 1.392 17.952C1.344 18.096 1.32 18.24 1.272 18.384C1.248 18.456 1.224 18.528 1.224 18.6C1.2 18.72 1.176 18.816 1.152 18.936C1.128 18.984 1.128 19.032 1.104 19.104C1.08 19.272 1.032 19.416 1.008 19.584C0.959999 19.776 0.935999 19.944 0.911999 20.136C0.887999 20.328 0.839999 20.496 0.815999 20.688C0.767999 20.976 0.743999 21.24 0.719999 21.528C0.695999 21.816 0.671999 22.08 0.647999 22.368C0.623999 22.608 0.623999 22.872 0.599999 23.136C0.599999 23.256 0.599999 23.376 0.599999 23.496C0.575999 23.952 0.599999 24.408 0.599999 24.84C0.599999 24.984 0.599999 25.104 0.623999 25.248C0.623999 25.416 0.647999 25.584 0.647999 25.776C0.647999 25.944 0.671999 26.136 0.695999 26.304C0.719999 26.472 0.719999 26.64 0.743999 26.832C0.743999 26.856 0.743999 26.856 0.743999 26.88C0.767999 27 0.767999 27.12 0.791999 27.24C0.815999 27.336 0.815999 27.456 0.839999 27.552C0.839999 27.6 0.863999 27.648 0.863999 27.696C0.887999 27.84 0.911999 28.008 0.935999 28.152C0.935999 28.176 0.935999 28.2 0.935999 28.224C0.959999 28.392 1.008 28.584 1.032 28.752C1.056 28.896 1.104 29.064 1.128 29.208C2.112 33.6 4.344 37.512 7.416 40.584L40.536 7.46401C40.44 7.34401 40.32 7.24801 40.224 7.15201ZM28.104 15.72C25.848 18.024 22.152 18.024 19.848 15.72C17.568 13.44 17.568 9.72001 19.848 7.46401C22.128 5.20801 25.848 5.18401 28.104 7.46401C30.36 9.74401 30.384 13.464 28.104 15.72Z" fill="#FF6666"/>
<path d="M40.536 40.56C38.688 42.408 36.528 43.944 34.152 45.096C33.648 45.336 33.12 45.576 32.592 45.768C32.424 45.84 32.232 45.912 32.064 45.96C31.92 46.008 31.776 46.056 31.656 46.104C31.56 46.128 31.464 46.176 31.368 46.2C31.296 46.224 31.2 46.248 31.128 46.272C31.008 46.32 30.888 46.344 30.768 46.392C30.72 46.416 30.672 46.416 30.624 46.44C30.48 46.488 30.312 46.536 30.168 46.56C30.144 46.56 30.12 46.56 30.096 46.584C29.952 46.632 29.808 46.656 29.664 46.704C29.592 46.728 29.52 46.752 29.448 46.752C29.328 46.776 29.232 46.8 29.112 46.824C29.064 46.848 29.016 46.848 28.944 46.872C28.776 46.896 28.632 46.944 28.464 46.968C28.272 47.016 28.104 47.04 27.912 47.064C27.72 47.088 27.552 47.136 27.36 47.16C26.808 47.232 26.256 47.304 25.68 47.352C25.44 47.376 25.176 47.376 24.912 47.4C24.792 47.4 24.672 47.4 24.552 47.4C24.096 47.424 23.64 47.4 23.208 47.4C23.064 47.4 22.944 47.4 22.8 47.376C22.632 47.376 22.464 47.352 22.272 47.352C22.104 47.352 21.912 47.328 21.744 47.304C21.576 47.28 21.408 47.28 21.216 47.256C21.192 47.256 21.192 47.256 21.168 47.256C21.048 47.232 20.928 47.232 20.808 47.208C20.712 47.184 20.592 47.184 20.496 47.16C20.448 47.16 20.4 47.136 20.352 47.136C20.208 47.112 20.04 47.088 19.896 47.064C19.872 47.064 19.848 47.064 19.824 47.064C19.656 47.04 19.464 46.992 19.296 46.968C14.736 46.032 10.632 43.776 7.464 40.584C16.608 31.416 31.392 31.416 40.536 40.56Z" fill="#FFF4C7"/>
<path d="M21.936 9.528C20.784 10.68 20.784 12.528 21.936 13.68C23.088 14.832 24.936 14.832 26.088 13.68C27.24 12.528 27.24 10.68 26.088 9.528C24.912 8.376 23.064 8.376 21.936 9.528Z" fill="#016273"/>
</svg>
