<svg width="48" height="48" viewBox="0 0 48 48" fill="none" xmlns="http://www.w3.org/2000/svg">
<path d="M47.0254 8.9683C46.3841 8.31438 45.5415 8 44.6864 8C44.6864 8 44.6864 8 44.6738 8C43.6678 8 42.7624 8.45271 42.1587 9.1695L16.7943 34.5339C15.5117 35.8166 15.5117 37.9041 16.7943 39.1994C18.077 40.4821 20.1645 40.4821 21.4598 39.1994L41.3917 19.2675V36.6592C41.3917 38.4826 42.863 39.9539 44.6864 39.9539C46.5098 39.9539 47.9811 38.4826 47.9811 36.6592V11.6343C48.0691 10.6785 47.7548 9.69767 47.0254 8.9683Z" fill="#3F4FC7"/>
<path d="M31.1931 8.96836C29.9104 7.68568 27.8229 7.68568 26.5276 8.96836L0.962011 34.534C-0.320671 35.8167 -0.320671 37.9042 0.962011 39.1994C2.24469 40.4821 4.3322 40.4821 5.62745 39.1994L31.1931 13.6212C32.4757 12.3385 32.4757 10.251 31.1931 8.96836Z" fill="#65BEE3"/>
</svg>
