<svg width="48" height="48" viewBox="0 0 48 48" fill="none" xmlns="http://www.w3.org/2000/svg">
<g clip-path="url(#clip0)">
<path d="M47.639 23.5209C46.2951 22.2286 45.0244 20.8652 43.6806 19.5729C43.2859 19.2695 43.1473 18.7376 43.3456 18.2806C43.8981 16.4141 44.3775 14.5477 44.9051 12.6812C45.0495 12.2261 44.9763 12.036 44.4738 11.915C42.5543 11.4369 40.6598 10.8627 38.7153 10.3827C38.1627 10.2636 37.9471 9.9756 37.8277 9.4725C37.3483 7.60603 36.8208 5.78757 36.3645 3.92111C36.2201 3.37 36.0526 3.25095 35.5 3.41801C33.6286 3.94415 31.7342 4.42229 29.8628 4.90235C29.5509 4.99836 29.2621 5.06941 28.9752 4.78329C27.4388 3.20678 25.8312 1.6994 24.3449 0.0480058C24.1755 0.0518462 24.006 0.0364844 23.8405 0C23.8501 0.126735 23.7846 0.24963 23.673 0.311077C22.2328 1.72245 20.7947 3.13382 19.3776 4.57015C19.1062 4.90235 18.648 5.01948 18.2494 4.85818C16.378 4.33204 14.5067 3.8539 12.6353 3.32584C12.1077 3.18182 11.8921 3.27783 11.7477 3.82894C11.2683 5.6954 10.7158 7.56187 10.2364 9.42833C10.1863 9.82006 9.88403 10.1331 9.4932 10.1945C7.59871 10.6726 5.75043 11.1988 3.85594 11.6539C3.23215 11.7979 3.06465 12.013 3.25525 12.6582C3.80781 14.5016 4.23908 16.3911 4.76661 18.2576C4.93603 18.655 4.81859 19.114 4.47781 19.3828C3.06272 20.7462 1.69384 22.1595 0.278753 23.5228C-0.10438 23.8819 -0.0812763 24.097 0.278753 24.4561C1.67074 25.8194 3.01459 27.2077 4.40465 28.5711C4.74735 28.8246 4.87635 29.2778 4.71655 29.6714C4.18902 31.5148 3.73273 33.3563 3.18017 35.1997C2.98764 35.8449 3.0839 36.1099 3.78086 36.277C5.65224 36.7321 7.47549 37.2813 9.34687 37.7364C9.89943 37.8554 10.1151 38.1435 10.2344 38.6466C10.7138 40.5361 11.2414 42.3795 11.7227 44.269C11.8421 44.7471 12.0115 44.8681 12.4909 44.7241C14.3392 44.1979 16.2086 43.7678 18.0569 43.2397C18.5478 43.0554 19.1023 43.2109 19.4238 43.6219C20.7427 44.9852 22.0865 46.3025 23.4073 47.6659C23.8154 48.096 24.0542 48.121 24.4874 47.6889C25.8062 46.3006 27.1982 44.9852 28.542 43.5969C28.8443 43.1994 29.3737 43.0535 29.8377 43.2378C31.686 43.7889 33.5324 44.2421 35.3807 44.7702C35.9082 44.9142 36.1238 44.8182 36.2682 44.2671C36.7245 42.4237 37.3002 40.5822 37.7565 38.7387C37.8758 38.1876 38.1396 37.9726 38.6691 37.8535C40.5404 37.3984 42.3637 36.8723 44.2351 36.4172C44.7876 36.2981 44.9551 36.083 44.7876 35.507C44.2601 33.6405 43.7807 31.726 43.2512 29.8365C43.0818 29.4391 43.1993 28.9801 43.54 28.7113C44.907 27.3959 46.2509 26.0076 47.6428 24.6922C48.1434 24.216 48.0953 23.976 47.639 23.5209ZM12.0596 22.4456C12.0596 22.4475 12.0596 22.4494 12.0596 22.4513C12.0519 23.2636 11.3858 23.9146 10.5714 23.9069H9.08311C8.45931 23.9069 7.83552 23.9069 7.18862 23.9299C6.85362 23.9299 6.75736 23.8109 6.82859 23.4748C6.99609 22.7816 7.16359 22.2305 8.07618 22.0865C9.25253 21.9194 10.3788 21.5123 11.5302 21.1763C11.9383 21.0803 12.1058 21.1283 12.0577 21.5584C12.0365 21.8465 12.0596 22.1575 12.0596 22.4456ZM11.9884 35.5012C10.9988 34.5718 10.1131 33.7135 9.2044 32.8551C9.97259 32.425 10.7158 32.0179 11.4358 31.5878C11.844 31.3478 11.9884 31.3958 11.9884 31.8989C11.9653 33.0664 11.9884 34.2608 11.9884 35.5012ZM9.3257 32.352C9.0369 32.5191 8.96567 32.4481 8.89443 32.16C8.6788 31.2978 8.41503 30.4376 8.1994 29.5754C8.15127 29.3834 8.12816 29.1453 8.31877 29.0243C8.5113 28.9052 8.65377 29.0723 8.79817 29.1433C9.78199 29.6944 10.7658 30.2686 11.894 30.8907C10.9814 31.3938 10.1401 31.8489 9.3257 32.352ZM7.50244 19.5249C7.26178 20.124 6.42236 20.2181 5.87172 20.6022C5.31916 19.1908 5.31916 19.1908 6.27988 18.2095C6.95181 17.5394 7.62374 16.8942 8.29566 16.224C8.35727 16.1856 8.42081 16.1549 8.48819 16.128C8.14934 17.3243 7.93371 18.4726 7.50244 19.5249ZM8.94064 15.8649C8.98877 15.6499 9.15627 15.6979 9.27564 15.7689C10.092 16.2471 10.8833 16.7252 11.7939 17.2533C10.4982 17.9945 9.32184 18.6646 7.97992 19.3828C8.31684 18.1135 8.62874 16.9883 8.94064 15.8649ZM6.42236 22.1575C6.15859 22.1575 6.15859 21.8945 6.11046 21.7274C5.84669 20.9382 5.89483 20.8902 7.33494 20.2911C7.20017 20.8422 7.07118 21.2954 6.96144 21.7274C6.92486 21.9905 6.68805 22.1806 6.42236 22.1575ZM4.98224 22.5646C4.06965 22.8047 3.15899 23.0197 2.2464 23.2348L2.17516 23.1388L5.48666 21.2013C6.03922 22.2305 6.01419 22.3016 4.98224 22.5646ZM5.67919 22.7567C6.30299 22.6126 6.11046 23.2598 6.23175 23.5228C6.35112 23.7859 6.18362 23.9049 5.89675 23.9049H1.98456C1.98456 23.8569 1.96146 23.7859 1.96146 23.7379C3.18402 23.4268 4.40658 23.0677 5.67919 22.7567ZM6.61874 25.0206C6.85747 25.925 7.09621 26.8295 7.36767 27.8049C5.54827 26.9216 5.78316 27.419 6.61874 25.0206ZM6.00072 27.5899C6.60141 27.5668 7.67957 28.5711 7.67957 29.1222C7.52555 29.5293 7.20017 29.9114 6.88828 30.3435C6.86517 30.3435 6.84014 30.3665 6.81704 30.3665C6.57638 30.4145 5.40195 28.9782 5.45008 28.7151C5.47319 28.6671 5.47319 28.6191 5.49822 28.5711C5.66379 28.2351 5.47319 27.6129 6.00072 27.5899ZM6.52825 31.5379C6.76891 31.1788 6.93641 31.0348 7.27141 31.4419C7.58138 31.7952 7.90868 32.1293 8.25523 32.4461C8.3746 32.5902 8.61526 32.7092 8.30337 32.9012C6.93641 33.6674 5.54442 34.4566 4.17747 35.2228C4.13896 35.1882 4.10816 35.1479 4.0812 35.1037C4.88597 33.9074 5.7023 32.7342 6.52825 31.5379ZM7.86247 29.7194C8.07811 30.4856 8.27064 31.2518 8.48627 32.064C6.92678 30.9637 6.87865 30.8197 7.86247 29.7194ZM8.43814 28.068C8.17437 28.4751 7.88558 28.308 7.79124 27.972C7.45624 26.8237 7.14434 25.6754 6.85555 24.5271C6.73618 24.145 7.07118 24.2391 7.26371 24.2391H11.0777C10.1401 25.6044 9.30067 26.8487 8.43814 28.068ZM11.844 20.7462C10.3808 21.1283 8.91753 21.5123 7.38115 21.9194C7.47742 20.5311 7.95681 19.6228 9.22943 19.1197C10.1882 18.7376 11.0527 18.1155 12.0846 17.5413V20.4121C12.1058 20.5676 12.0018 20.7154 11.844 20.7462ZM12.0596 13.3994V16.9652C11.172 16.4621 10.3808 15.984 9.61256 15.5289C9.3488 15.3849 9.27756 15.2409 9.54133 14.9778C10.1882 14.3556 10.812 13.7335 11.4358 13.0883C11.5533 12.9174 11.7766 12.8579 11.9633 12.9443C12.1559 13.0172 12.0596 13.2323 12.0596 13.3994ZM9.39693 14.3806C9.63759 12.6812 9.75696 12.5621 11.0045 12.9443C10.452 13.4474 9.90136 13.9255 9.39693 14.3806ZM11.869 5.16926C11.9171 5.1923 11.9884 5.1923 12.0365 5.21727V8.39909C12.0365 9.71445 12.0365 9.71445 10.5733 9.90647C11.0045 8.30308 11.4358 6.72465 11.869 5.16926ZM10.2845 10.8877C10.3808 10.2656 10.8602 10.3366 11.2683 10.1695C11.9633 9.88151 12.1077 10.1926 12.0365 10.7917V11.0797C12.0365 12.372 11.3896 12.8502 10.1882 12.4201C10.0438 12.372 9.94757 12.324 9.97259 12.18C10.0689 11.748 10.2133 11.3178 10.2845 10.8877ZM4.76661 11.8689C6.48012 11.4388 8.19747 10.9837 9.99762 10.5286C9.85322 11.1028 9.73386 11.5579 9.61449 12.036C9.51822 12.4181 9.23136 12.3471 8.96759 12.324C7.57561 12.205 6.16052 12.109 4.74543 11.9899C4.76276 11.9515 4.77046 11.9093 4.76661 11.8689ZM8.98877 12.6812C9.32377 12.7042 9.39693 12.8252 9.32377 13.1593C8.8925 15.1218 8.91561 15.1218 7.21173 14.1156C6.32417 13.5895 5.41158 13.0633 4.42775 12.4892C6.03922 12.3471 7.52555 12.6102 8.98877 12.6812ZM3.78278 12.8022C3.75968 12.7311 3.75968 12.6831 3.73465 12.6102C3.80589 12.6102 3.85402 12.6332 3.92718 12.6332C5.3673 13.4704 6.83052 14.3326 8.31684 15.1698C8.46124 15.2658 8.67687 15.3138 8.43621 15.5769C7.45239 16.5812 6.49359 17.6104 5.53287 18.6397C5.44046 18.609 5.35189 18.5705 5.26911 18.5206C4.76661 16.6062 4.28721 14.7166 3.78278 12.8022ZM5.03037 19.4539C5.10161 19.5249 5.17477 19.5499 5.17477 19.5729C5.50977 20.7942 5.50977 20.7942 4.40658 21.4163C3.59025 21.8945 2.75083 22.3496 1.84016 22.8527C2.94336 21.6544 3.97531 20.5541 5.03037 19.4539ZM1.14513 24.2391C2.68152 24.2391 4.19287 24.2391 5.72733 24.216C6.13549 24.216 6.30299 24.2871 6.13549 24.7671C5.89483 25.4123 5.91986 26.4416 5.48859 26.6566C4.98416 26.9197 4.28913 26.1305 3.68844 25.8194C2.82399 25.3643 1.98456 24.8382 1.12203 24.36C1.12973 24.3197 1.13936 24.2794 1.14513 24.2391ZM1.7439 25.2933L1.767 25.2702C2.99149 25.7253 4.04655 26.4915 5.17284 27.1137C5.48474 27.2807 5.4135 27.7128 4.95721 28.621C3.85594 27.5169 2.75083 26.4646 1.7439 25.2933ZM5.19787 29.5274C5.26911 29.5504 5.34227 29.5504 5.36537 29.5754C6.61296 30.7717 6.61296 30.7717 5.62914 32.1831C5.10161 32.9492 4.54905 33.6904 4.02152 34.4317L3.90215 34.3356L5.19787 29.5274ZM3.73465 35.916C5.4135 34.9597 6.92486 34.0975 8.46124 33.2354C8.65377 33.1163 8.75003 33.1393 8.82127 33.3794C9.1813 34.7427 9.54133 36.083 9.94949 37.5904C7.81434 36.9932 5.8698 36.4671 3.73465 35.916ZM11.9268 42.9037C11.8786 42.9037 11.8305 42.9268 11.7824 42.9268C11.3511 41.3714 10.9429 39.816 10.5117 38.2126H10.502C10.6695 38.1895 10.7177 38.1646 10.7754 38.1895C11.9268 38.4526 11.9268 38.4526 11.9268 39.6489V42.9037ZM11.9653 38.0225C11.7978 38.0455 11.7727 38.0705 11.7727 38.0705C10.7177 37.9994 10.142 37.4714 9.99762 36.396C9.85322 35.4859 9.56636 34.6256 9.47009 33.6674C10.2383 34.4336 11.0527 35.1517 11.7496 35.989C12.2521 36.5862 11.7727 37.3293 11.9653 38.0225ZM12.0596 26.5376L11.9884 29.8884C11.9884 30.3185 11.9171 30.5105 11.4608 30.2225C10.6445 29.7444 9.83012 29.2662 8.98877 28.8342C8.62874 28.6422 8.62874 28.4751 8.84437 28.164C9.6838 26.9677 10.5232 25.7714 11.3396 24.5501C11.4339 24.3389 11.663 24.2199 11.8921 24.2621C12.2271 24.3101 12.0596 24.5732 12.0596 24.7402C12.0846 25.3394 12.0596 25.9385 12.0596 26.5376ZM32.693 15.2428C31.9729 14.7647 31.0853 14.5726 30.7734 13.6394C30.6483 13.3725 30.6579 13.0614 30.7965 12.8022C31.4203 11.7729 32.021 10.7437 32.5967 9.71445C32.8373 9.30736 32.9798 9.38033 33.2917 9.6434C33.8192 10.0985 34.0118 10.5536 33.7711 11.2468C33.3649 12.5621 33.053 13.9025 32.693 15.2428ZM35.6926 33.2853C35.6926 35.2708 35.6926 35.2708 33.7018 35.1037C32.743 35.0327 31.7592 34.9367 30.7985 34.8637C30.5578 34.8407 30.3672 34.8157 30.294 34.5296C30.2228 34.2416 30.4866 34.2185 30.6541 34.1225C32.1654 33.2853 33.6537 32.4481 35.14 31.5859C35.5963 31.3228 35.7407 31.4419 35.6926 31.945C35.6675 32.4 35.6926 32.8302 35.6926 33.2853ZM27.0307 39.3378C26.2143 38.7387 25.2787 38.2856 24.343 37.7344C25.2074 37.2563 25.9987 36.8012 26.815 36.3231C26.9556 36.2155 27.1558 36.2367 27.2713 36.3711C28.3264 37.4234 29.4065 38.4776 30.5097 39.5779C30.3653 39.6969 30.3422 39.7219 30.3422 39.7219C29.1658 40.248 28.0877 40.152 27.0307 39.3378ZM28.0145 40.344C26.7669 40.6551 25.6637 40.9662 24.5605 41.2542C24.2968 41.3253 24.2005 41.2542 24.2005 40.9662V38.0955C25.5193 38.8597 26.6957 39.5529 28.0145 40.344ZM15.8274 39.1708C15.4924 39.0748 15.6599 38.8827 15.7562 38.7157C16.38 37.6384 17.0269 36.5612 17.6988 35.3898C18.3938 36.8492 19.0426 38.1895 19.6664 39.5299C19.9071 40.008 19.6664 40.1751 19.2833 40.081C18.1301 39.8179 16.9787 39.4819 15.8274 39.1708ZM18.9945 40.392C17.4119 41.4443 17.3638 41.4213 15.9718 39.5779C17.0018 39.864 17.9626 40.104 18.9945 40.392ZM15.3576 33.2123C15.3807 33.0933 15.4539 32.9723 15.5983 33.0683C16.1027 33.3794 16.7015 33.5234 17.0615 34.0495C17.4215 34.5757 17.5659 35.1018 17.1096 35.724C16.5629 36.5247 16.0738 37.3658 15.6464 38.2356C15.2864 38.9288 14.9995 38.8808 14.5914 38.3316C14.4239 38.0916 14.0869 37.9726 14.1601 37.5904C14.5548 36.133 14.9398 34.6717 15.3576 33.2123ZM12.3965 10.3366C12.3927 10.3174 12.3888 10.2963 12.3888 10.2771C12.3677 10.014 12.566 9.78357 12.8297 9.76245C13.3573 9.66644 13.8848 9.52242 14.4123 9.38033C14.4758 9.3688 14.5413 9.3688 14.6048 9.38033C14.5606 9.40913 14.5259 9.45138 14.5086 9.49938C13.8367 10.1446 13.1647 10.8147 12.3965 11.5579C12.3965 11.1028 12.4196 10.7206 12.3965 10.3366ZM12.564 12.013C13.4285 11.1028 14.316 10.2175 15.2748 9.23631C16.018 10.5286 16.6668 11.6769 17.435 12.9692C15.7311 12.8502 14.1717 12.7542 12.6372 12.5871C12.1809 12.5391 12.3715 12.2031 12.564 12.013ZM20.7446 8.63912C21.6322 9.33232 22.6872 9.83542 23.7673 10.4576C22.9028 10.9607 22.1366 11.3908 21.3684 11.8459C21.1759 11.965 21.0334 12.0379 20.8409 11.8459C19.7858 10.7687 18.7057 9.71637 17.5775 8.59111C18.7307 8.13602 19.6895 7.82494 20.7446 8.63912ZM20.0977 7.87294C21.3222 7.53883 22.4003 7.25079 23.5035 6.96276C23.7673 6.89171 23.9117 6.91475 23.9117 7.25079V10.0985C22.616 9.35536 21.4165 8.63912 20.0977 7.87294ZM23.0107 17.8985C22.77 17.6104 22.3869 17.9215 22.0981 17.9945C20.8986 18.2825 20.9217 18.3056 20.2979 17.2283C19.7704 16.272 19.2429 15.3138 18.6672 14.3806C18.4516 13.9985 18.4747 13.8065 18.8828 13.6394C19.1235 13.5434 19.3391 13.4243 19.5548 13.3283C20.0592 13.1133 20.5136 12.5391 20.9949 12.6351C21.5474 12.7542 21.8824 13.4013 22.3137 13.8084C23.6479 15.1487 24.9668 16.5121 26.3356 17.8044C26.8516 18.2768 27.1693 18.9258 27.2232 19.6228C25.6733 19.3598 24.1524 19.1197 22.6506 18.8336C22.6506 18.7856 22.6275 18.7376 22.6506 18.6896C22.7219 18.4016 23.2744 18.2326 23.0107 17.8985ZM12.4196 14.8587L12.4293 14.6187C12.4293 12.9193 12.4293 12.9193 14.085 13.0403C15.1401 13.1113 16.2202 13.2323 17.2752 13.3034C17.5159 13.3264 17.7219 13.3264 17.7931 13.6144C17.8644 13.9025 17.6006 13.9255 17.4581 14.0215L12.9241 16.6062C12.4447 16.8942 12.3965 16.6772 12.4196 16.272C12.4447 15.792 12.4196 15.3388 12.4196 14.8587ZM13.931 16.4621C15.2017 15.84 16.378 15.1218 17.5775 14.4036C18.0338 14.1156 18.2013 14.2596 18.4169 14.6667C18.9926 15.767 19.6164 16.8443 20.2652 17.8965C20.529 18.3267 20.4577 18.4477 19.9764 18.5667C17.6969 19.1409 15.4173 19.763 13.1397 20.3852C12.6353 20.5292 12.4447 20.4812 12.5159 19.9301C12.539 19.596 12.5159 19.2369 12.5159 18.6858C12.1077 17.5643 12.8528 16.9652 13.931 16.4621ZM12.4447 23.4018C12.4678 23.0908 12.5159 22.7567 12.5159 22.4456C12.539 20.9382 12.539 20.9382 13.956 20.5561C15.8043 20.0779 17.6507 19.5998 19.4989 19.0717C20.2421 18.8567 20.9622 18.7607 21.7534 19.1428C20.7465 20.3391 19.7627 21.5354 18.802 22.7317C18.467 22.4917 18.6094 21.8695 18.2013 21.9175C17.8413 21.9655 17.9375 22.4917 17.8182 22.8027C17.7315 23.0351 17.668 23.2751 17.6256 23.5209C17.6256 23.5267 17.6237 23.5343 17.6237 23.5401C17.5794 23.8109 17.3234 23.9952 17.05 23.951C15.683 23.928 14.3141 23.903 12.9472 23.928C12.5159 23.928 12.3965 23.7609 12.4447 23.4018ZM17.5544 8.15906C17.3099 8.24739 17.0384 8.13218 16.9306 7.89599C16.7631 7.63292 17.0269 7.5369 17.1462 7.41785C17.7219 6.7957 17.7469 6.7957 19.0657 7.75197C18.5132 7.89599 18.0107 7.992 17.5544 8.15906ZM17.0115 6.98772C16.6996 7.44281 16.4108 7.46586 16.0045 7.01076C15.4038 6.3406 14.7338 5.71845 14.085 5.07325C14.1081 5.02524 14.1331 4.95419 14.1562 4.90619C15.2748 5.33632 16.2105 6.10249 17.2271 6.60559C17.2521 6.81874 17.0846 6.86674 17.0115 6.98772ZM17.9144 9.45138C18.827 10.3366 19.7146 11.2218 20.6984 12.18C20.2498 12.4757 19.7858 12.7484 19.3064 12.9942C18.6364 13.2957 17.847 13.023 17.5063 12.372C16.8825 11.2718 16.2587 10.1945 15.6349 9.09421C17.0018 8.54311 17.0018 8.56615 17.9144 9.45138ZM12.3715 24.8612C12.3715 24.4061 12.4427 24.216 12.9722 24.2391C14.2679 24.2871 15.5636 24.2621 16.8594 24.2621C17.1944 24.2621 17.3869 24.3101 17.2675 24.7172C16.5725 27.2289 15.9006 29.7425 15.2036 32.3271C14.7723 32.064 14.4123 31.872 14.0754 31.6819C12.3003 30.6776 12.3003 30.6776 12.3484 28.6671C12.3965 27.3979 12.3965 26.1305 12.3715 24.8612ZM18.1069 35.3188C17.9876 35.1037 17.9144 34.9117 18.1301 34.7197C18.2976 34.5526 18.4419 34.7197 18.5863 34.7907C20.2421 35.747 21.8728 36.7282 23.5998 37.7344C22.5678 38.3336 21.6322 38.8827 20.7215 39.4339C20.4096 39.6489 20.194 39.7219 20.0014 39.2668C19.4027 37.9514 18.7538 36.6342 18.1069 35.3188ZM17.6507 33.7634C17.4581 33.6444 17.2906 33.5003 17.0981 33.3813C16.5937 33.0222 15.7542 32.9512 15.6349 32.377C15.5155 31.8509 15.8755 31.2037 16.043 30.6066C16.5224 28.8841 17.0269 27.1847 17.435 25.4373C17.5756 24.7018 17.9972 24.0509 18.6114 23.6188C19.0908 24.9342 19.5471 26.2265 20.0746 27.4478C20.219 27.8779 20.194 28.0469 19.6915 27.9509C19.524 27.9278 19.3083 27.8549 19.2121 28.0469C19.1158 28.2389 19.3314 28.3349 19.4277 28.477C19.7627 28.9321 20.5309 29.1952 20.4828 29.7924C20.4346 30.2955 19.9783 30.7736 19.6915 31.2767C19.2352 32.0429 18.7789 32.8091 18.3476 33.5983C18.1551 33.9554 17.9626 34.0015 17.6507 33.7634ZM20.4808 27.7339C19.9764 26.3705 19.4739 24.9822 18.9695 23.6188C18.8366 23.373 18.8867 23.0697 19.0888 22.8776C20.0727 21.7524 21.0315 20.6041 21.9672 19.4558C22.1077 19.2426 22.3695 19.1447 22.6141 19.2157C24.0542 19.4788 25.5174 19.7419 26.9556 19.9819C27.279 20.0126 27.5486 20.2431 27.6275 20.5561C28.1069 21.8714 28.5863 23.2117 29.0907 24.529C29.239 24.8171 29.1793 25.1665 28.9463 25.3912C28.0106 26.4685 27.0981 27.5918 26.1624 28.694C25.9949 28.886 25.8736 29.1241 25.6098 29.0051C24.0272 28.742 22.5139 28.4789 20.9795 28.2159C20.6734 28.164 20.5771 27.972 20.4808 27.7339ZM25.4712 29.3603C25.4712 29.7674 24.8243 29.9594 25.0881 30.2705C25.3518 30.5816 25.8081 30.2936 26.12 30.1515C26.9594 29.7693 27.3907 30.0804 27.7758 30.8447C28.2552 31.8489 28.8558 32.8071 29.4315 33.7634C29.6722 34.1705 29.624 34.3856 29.1908 34.5526C28.9117 34.6659 28.6402 34.7927 28.3745 34.9348C27.0557 35.6529 27.0557 35.6529 26.0237 34.6237C24.6568 33.2603 23.3129 31.895 21.946 30.5566C21.4184 30.0305 20.914 29.5043 20.914 28.5711C22.4485 28.8342 23.9598 29.0973 25.4712 29.3603ZM30.5347 40.056C30.7811 39.9638 31.0565 40.0656 31.1816 40.296C31.326 40.5361 31.0622 40.6302 30.9409 40.7742C30.3653 41.3963 30.3653 41.3963 29.0464 40.4401C29.599 40.296 30.0784 40.2 30.5347 40.056ZM30.2228 38.8847C29.4546 37.9994 28.5921 37.2102 27.7507 36.396C27.4157 36.0619 27.4388 35.9179 27.8701 35.7259C28.3976 35.4859 28.8058 35.0077 29.4777 35.1517C30.0534 35.0077 30.3422 35.3438 30.6059 35.8449C31.1335 36.8262 31.686 37.7825 32.2617 38.7407C32.4292 39.0517 32.4061 39.1708 32.0461 39.3148C31.326 39.6009 30.7734 39.5299 30.2228 38.8847ZM34.1658 31.7299C32.9182 32.352 31.7188 33.0933 30.5193 33.7884C30.1362 34.0034 29.9436 34.0284 29.703 33.5964C29.1023 32.4481 28.4554 31.3228 27.7835 30.2225C27.5428 29.8404 27.6872 29.7194 28.0472 29.6234C30.398 29.0243 32.7257 28.4271 35.0534 27.78C35.5097 27.6609 35.654 27.732 35.6059 28.1871C35.5828 28.5461 35.6059 28.9283 35.6059 29.5024H35.5963C36.0045 30.6277 35.269 31.2268 34.1658 31.7299ZM35.6675 24.8862C35.6444 25.1742 35.5963 25.4853 35.5963 25.7714C35.5732 27.2788 35.5732 27.2558 34.0849 27.6609C32.2848 28.1391 30.4866 28.6172 28.6864 29.1203C27.9182 29.3354 27.15 29.5024 26.3587 29.0492L29.3333 25.5083C29.6683 25.7234 29.5008 26.3705 29.909 26.2976C30.3171 26.2265 30.244 25.6754 30.3402 25.3413C30.6521 24.264 30.6521 24.264 31.7553 24.264C32.8585 24.264 33.9867 24.2871 35.115 24.264C35.5963 24.264 35.7157 24.4541 35.6675 24.8862ZM30.629 23.0428C30.4615 23.7129 30.1015 24.1431 29.5258 24.5982C28.9733 23.1138 28.4708 21.7024 27.9433 20.2911C28.2783 20.051 28.7923 20.4831 28.9021 20.076C29.0214 19.7649 28.542 19.5499 28.3014 19.3098C27.5101 18.4957 27.5101 18.5206 28.0857 17.5144C28.6383 16.5812 29.2139 15.696 29.6933 14.7378C29.9821 14.1636 30.269 14.2116 30.7003 14.5457C30.8389 14.6571 30.9833 14.7608 31.1315 14.8568C31.5628 15.1909 32.356 15.287 32.4754 15.7901C32.5948 16.2932 32.2598 16.8903 32.1154 17.4415C31.6379 19.3098 31.0853 21.1763 30.629 23.0428ZM32.2848 9.04429C32.5967 9.11533 32.4523 9.33232 32.356 9.49938C31.7322 10.5766 31.1084 11.6539 30.4134 12.8252C29.6933 11.3658 29.0696 10.0025 28.4458 8.6852C28.2301 8.23011 28.4227 8.04001 28.8289 8.1341C29.9821 8.39909 31.1335 8.73321 32.2848 9.04429ZM29.1427 7.79998C30.8697 6.74769 30.1978 6.50766 32.2136 8.6372C31.0853 8.35108 30.1496 8.08801 29.1427 7.79998ZM30.0052 12.8252C30.1015 13.0172 30.2209 13.2323 30.0283 13.4474C29.7877 13.7104 29.6202 13.4474 29.4527 13.3514C27.822 12.4181 26.2143 11.4619 24.5105 10.4557C25.5906 9.8335 26.5975 9.25935 27.5582 8.6852C27.8701 8.49318 27.9895 8.61415 28.1108 8.87722C28.7346 10.1926 29.3815 11.5099 30.0052 12.8252ZM33.4361 8.97324C33.1011 8.97324 33.2436 8.71017 33.3398 8.54311C33.9405 7.51386 34.5393 6.50958 35.14 5.48034C35.2055 5.48418 35.2709 5.50146 35.3325 5.52834C35.0303 6.6536 34.7569 7.82494 34.3737 8.95019C34.2043 9.49938 33.773 8.97324 33.4361 8.97324ZM34.6356 5.59939C34.0599 6.60367 33.4592 7.60987 32.8836 8.61415C32.2367 7.94399 31.6591 7.32184 31.0353 6.67664C32.4022 5.88743 33.7942 4.9542 35.2825 4.23603C35.2594 4.78521 34.8762 5.16926 34.6356 5.59939ZM30.3518 5.21727C31.6225 4.85818 32.8951 4.54711 34.1908 4.21299L34.2621 4.357H34.2524C33.1107 5.0022 31.9729 5.74533 30.8081 6.34252C30.3287 6.58255 30.0168 5.9604 29.8243 5.57635C29.6317 5.1923 30.1593 5.26335 30.3518 5.21727ZM28.9983 5.52834C29.5258 5.6954 29.7896 6.1985 30.1747 6.50958C30.1939 6.57679 30.1747 6.64976 30.1265 6.7016C29.6183 7.04341 29.0792 7.33912 28.5189 7.58683C28.1108 7.73085 27.1269 6.53454 27.2482 6.10249C27.2482 6.03144 27.3676 5.95848 27.4408 5.93543C27.9433 5.79142 28.4458 5.67044 28.9983 5.52834ZM28.6864 5.16926C28.6729 5.18078 28.6633 5.19806 28.6633 5.21727C27.0807 5.76837 27.0557 5.76837 26.3356 4.26099C25.9525 3.44681 25.5674 2.6576 25.1593 1.77237C25.76 2.01048 28.3033 4.4991 28.6864 5.16926ZM24.2968 1.34032C24.368 1.34032 24.4161 1.31728 24.4893 1.31728C25.1362 2.68064 25.785 4.04593 26.4319 5.36128C26.5513 5.60131 26.5763 5.74341 26.2644 5.86438C24.393 6.60559 24.2968 6.55759 24.2968 4.59703V1.34032ZM24.728 6.98772C25.5674 7.25079 26.4069 7.46586 27.2463 7.68092C27.4388 7.72893 27.6294 7.77693 27.6776 8.01504C27.7007 8.15906 27.6063 8.23011 27.485 8.30308C26.43 8.90219 25.398 9.52434 24.2467 10.1926V7.3468C24.2236 6.96276 24.368 6.86674 24.728 6.98772ZM24.6664 10.9588C26.2028 11.892 27.7373 12.8022 29.2967 13.6874C29.6799 13.9025 29.7049 14.0695 29.4893 14.4286C28.7942 15.5289 28.1704 16.6542 27.5216 17.7794C27.3541 18.0905 27.2328 18.2345 26.8978 17.8985C25.0495 16.08 23.2032 14.2846 21.2606 12.3951H21.2509C22.2097 11.844 23.003 11.4138 23.7789 10.9357C24.0484 10.7514 24.4065 10.761 24.6664 10.9588ZM19.6761 4.90619C21.0334 3.51786 22.3772 2.12954 23.7211 0.743129C23.7923 0.791135 23.8405 0.839141 23.9136 0.887147L23.9233 5.93543C23.9233 6.29452 23.7789 6.39053 23.467 6.29452C22.1712 5.93543 20.8524 5.57635 19.4835 5.19422C19.5394 5.09053 19.6029 4.99452 19.6761 4.90619ZM19.3776 5.59939C20.5771 5.91047 21.8016 6.22155 23.001 6.55567V6.72273C22.0422 6.9858 21.0584 7.24887 20.0746 7.5369C19.2583 7.72893 18.7789 7.0338 18.1551 6.74769C18.1069 6.72465 18.0838 6.60367 18.0838 6.55567C18.1069 6.2926 19.1139 5.52834 19.3776 5.59939ZM18.5382 5.31136C17.8182 6.48462 17.7469 6.50766 16.715 5.88551C15.8274 5.3344 14.8436 4.88123 14.0273 4.21107C15.5964 4.40309 17.0365 5.02524 18.5382 5.31136ZM13.6191 5.07325C14.4354 5.88743 15.2748 6.69968 16.043 7.56187C16.4512 8.04 15.7793 8.13602 15.6349 8.39909C15.5155 8.61415 15.3461 8.63912 15.2036 8.37605C14.6029 7.32376 14.0042 6.29452 13.4035 5.24223C13.4766 5.1923 13.5479 5.12125 13.6191 5.07325ZM12.3965 7.46586C12.3484 6.46158 12.3734 5.48034 12.3734 4.47414C12.4235 4.46838 12.4735 4.45301 12.5178 4.42613C13.286 5.76645 14.0542 7.10677 14.8205 8.47014C14.988 8.73321 14.9398 8.87722 14.6279 8.92523C14.6048 8.92523 14.5798 8.94827 14.5567 8.94827C13.8848 9.11533 13.0454 9.61843 12.5891 9.37841C12.0596 9.09229 12.4196 8.13602 12.3965 7.46586ZM12.3003 35.0788C12.4196 33.8345 12.3234 32.5671 12.3234 31.1538C13.2591 31.7049 14.0504 32.1581 14.8417 32.6132C15.1054 32.7803 15.0342 32.9723 14.961 33.1873C14.5779 34.5757 14.2179 35.964 13.8097 37.4944C13.1166 36.7302 12.1809 36.3231 12.3003 35.0788ZM12.3965 36.6591C12.7797 37.0412 13.1397 37.4003 13.4997 37.7364C13.7154 37.9284 13.6441 38.1185 13.571 38.3355C13.4747 38.6696 13.236 38.4315 13.0916 38.4065C12.1809 38.2145 12.0846 38.0225 12.3965 36.6591ZM12.3234 42.9287C12.3003 42.9287 12.2752 42.9056 12.2521 42.9056C12.2521 41.4943 12.2521 40.1059 12.229 38.7176C12.3003 38.6946 12.3484 38.6466 12.3734 38.6466C13.4285 38.8616 13.4054 38.8866 13.1416 39.8909C12.8759 40.8932 12.5891 41.9225 12.3234 42.9287ZM12.7566 42.7367C13.0685 41.6114 13.3573 40.4631 13.6923 39.3398C13.8848 38.6466 14.3642 39.2207 14.6511 39.2438C15.1304 39.3148 14.7954 39.6259 14.6992 39.7949C14.1948 40.6801 13.6923 41.5423 13.1628 42.4275C13.0685 42.5696 13.0434 42.7597 12.7566 42.7367ZM12.7797 43.908C13.596 42.4717 14.4104 41.0123 15.2267 39.5529C15.9699 40.152 16.5224 40.8203 17.1693 41.4904C15.6811 42.3276 14.3141 43.2378 12.8278 43.956L12.7797 43.908ZM13.8598 43.956C14.8917 43.1188 16.0661 42.5197 17.2194 41.9225C17.8432 41.6344 17.9876 42.4736 18.6114 42.8077C16.8594 43.2148 15.4192 43.7659 13.8598 43.956ZM19.162 42.6637C18.9213 42.6406 17.9375 41.8015 17.9375 41.6344C17.9221 41.5864 17.9298 41.5327 17.9606 41.4904C18.0569 41.2984 19.5682 40.5802 19.7839 40.6052C20.5752 40.7012 20.527 41.4904 20.864 41.9686C20.9602 42.1126 20.8409 42.2316 20.7196 42.2566C20.194 42.4006 19.6664 42.5446 19.162 42.6637ZM20.8409 40.8932C21.6572 41.1083 22.3522 41.3003 23.1204 41.4923C21.5609 42.2816 21.2741 42.2105 20.8409 40.8932ZM19.6414 43.4068C19.3064 43.1188 19.3295 42.9997 19.7858 42.8807C21.1046 42.5216 21.1046 42.4985 21.6803 43.7179C22.1366 44.6991 22.616 45.6804 23.0723 46.6616C21.9209 45.5363 20.7696 44.4591 19.6414 43.4068ZM23.7673 45.2733V46.8997C23.7192 46.8997 23.6961 46.9228 23.6479 46.9228C23.001 45.5824 22.3522 44.2191 21.6803 42.8787C21.5128 42.5197 21.5609 42.4006 21.9691 42.2796C23.7923 41.7535 23.7923 41.7285 23.7923 43.643C23.7923 44.196 23.7673 44.7222 23.7673 45.2733ZM23.8636 39.6489C23.8636 41.3483 23.8636 41.3483 22.2328 40.9163C21.7534 40.7972 21.2741 40.6532 20.7927 40.5341C20.6002 40.4861 20.4577 40.3901 20.4327 40.2C20.4096 40.008 20.5771 39.96 20.6965 39.889C21.584 39.3628 22.4966 38.8597 23.3842 38.3105C23.8405 38.0225 23.8886 38.2395 23.8636 38.6216V39.6489ZM23.4901 37.2333C21.9306 36.3 20.3711 35.3898 18.7885 34.4816C18.4997 34.3145 18.4054 34.1705 18.596 33.8594C19.3642 32.5921 20.0842 31.3228 20.8755 29.9825C22.795 31.8969 24.6318 33.7384 26.5128 35.5819C26.7284 35.7969 26.7534 35.8929 26.4646 36.06C25.7446 36.4421 25.0495 36.8742 24.3295 37.2813C24.0657 37.433 23.7346 37.4157 23.4901 37.2333ZM28.3264 43.3818C27.0307 44.7452 25.7118 46.0855 24.4161 47.4489L24.2005 47.3049C24.2005 45.6055 24.2005 43.908 24.1774 42.1836C24.1774 41.8495 24.3449 41.8245 24.6087 41.8956C25.8331 42.2297 27.0557 42.5888 28.2802 42.8999C28.7827 43.0228 28.4939 43.2148 28.3264 43.3818ZM28.6383 42.6176C27.4619 42.3065 26.2625 41.9724 25.0881 41.6613C25.1073 41.6076 25.115 41.5499 25.1112 41.4943C26.095 41.2312 27.1115 40.9201 28.1108 40.705C28.879 40.538 29.3352 41.2081 29.959 41.4943C29.9898 41.5538 30.0052 41.6191 30.0072 41.6863C29.9571 41.9954 28.9502 42.6886 28.6383 42.6176ZM33.8443 44.004C32.4292 43.6219 31.0141 43.2628 29.5971 42.8787C30.1015 41.8015 30.3884 41.7055 31.3491 42.2796L33.9405 43.787C33.8982 43.8561 33.8674 43.9291 33.8443 44.004ZM34.0464 43.4548C32.9663 42.8096 31.9113 42.1625 30.7118 41.4693C30.9178 41.3022 31.0622 41.2293 31.1431 41.1102C31.455 40.6801 31.6957 40.7281 32.0557 41.1102C32.5832 41.7093 33.1839 42.2355 33.7345 42.8096C33.902 42.9748 34.1658 43.0957 34.0464 43.4548ZM34.4681 43.0708C33.6517 42.2816 32.8855 41.4923 32.1404 40.7012C31.6841 40.1751 32.3329 40.056 32.5235 39.816C32.7873 39.4089 32.9067 39.839 33.0029 40.008L34.3699 42.3776C34.5451 42.5677 34.5836 42.8423 34.4681 43.0708ZM35.7157 43.7179C35.6675 43.7409 35.6444 43.7409 35.5963 43.7659C34.8281 42.4505 34.0695 41.1102 33.2936 39.7699C33.1261 39.4819 33.1492 39.3398 33.5093 39.2668C34.2293 39.0997 34.9494 38.8847 35.7157 38.6926V43.7179ZM33.8924 38.7157C34.4931 38.1415 35.14 37.5194 35.7157 36.9452C35.7888 38.5256 35.6194 38.6926 33.8924 38.7157ZM35.5231 36.252C34.6837 37.1622 33.8192 38.0955 32.8836 39.0997C32.0923 37.7114 31.4434 36.5401 30.6772 35.2477C32.356 35.3918 33.8924 35.4878 35.4038 35.6299C35.9313 35.6779 35.7407 36.012 35.5231 36.252ZM35.7503 18.1135C35.7272 19.836 35.7272 21.5354 35.7272 23.2578C35.7503 23.7609 35.6309 23.999 35.0322 23.976C33.7615 23.9049 32.4889 23.953 31.2182 23.953C30.9063 23.953 30.7388 23.9299 30.835 23.5459C31.5301 21.0112 32.2251 18.4765 32.9201 15.8937C33.7807 16.37 34.5701 16.8231 35.3441 17.3243C35.6271 17.4799 35.7888 17.7929 35.7503 18.1135ZM35.8119 13.4723C35.6675 14.5976 35.7888 15.7459 35.7888 17.0382C34.8531 16.5121 34.0715 16.0339 33.2705 15.6019C33.2705 15.6019 33.2686 15.6019 33.2686 15.6C33.103 15.527 33.0299 15.335 33.103 15.1698C33.5112 13.7335 33.8943 12.2741 34.3025 10.7437C35.2112 11.4849 35.9794 12.1551 35.8119 13.4723ZM35.6675 11.7249C35.269 11.2468 34.9725 10.8627 34.6356 10.5037C34.4758 10.3462 34.4373 10.1043 34.5393 9.90455C34.6587 9.61651 34.8743 9.76053 35.0437 9.78549C35.9313 9.95448 36.0045 10.1695 35.6675 11.7249ZM35.5097 9.52434C35.2459 9.40529 34.6221 9.6434 34.7896 8.97324C35.1015 7.77693 35.4365 6.60367 35.7484 5.40737H35.8581C35.8581 6.65168 35.8581 7.87295 35.8447 9.11533C35.8447 9.33232 35.9409 9.73941 35.5097 9.52434ZM46.2239 22.8527C46.2008 22.8757 46.2008 22.9237 46.1758 22.9487C45.0726 22.3265 43.9444 21.7754 42.9124 21.0822C42.3849 20.7001 43.0318 20.149 43.0318 19.6939C44.1138 20.7462 45.1688 21.7985 46.2239 22.8527ZM36.172 25.2203C36.507 24.5271 36.9883 24.024 37.9471 24.3351C38.8693 24.3351 39.8416 24.3581 40.8504 24.3351C41.2335 24.3351 41.3067 24.4791 41.2335 24.8382C41.0891 25.5083 40.8735 25.9634 40.0572 26.1055C38.9059 26.3206 37.7545 26.6797 36.6032 27.0157C36.1951 27.1348 35.9794 27.0637 36.0507 26.6086C36.1238 26.1535 35.9313 25.6754 36.172 25.2203ZM36.1238 12.6812C37.1076 13.6375 37.9952 14.4766 38.9078 15.3618C38.1165 15.8169 37.3483 16.2471 36.5801 16.6772C36.2682 16.8443 36.1238 16.8212 36.1238 16.4372V12.6812ZM38.7865 15.8649C39.0753 15.6979 39.1465 15.7939 39.2178 16.08C39.4334 16.9422 39.6972 17.8025 39.9128 18.6646C39.9975 18.8547 39.9475 19.0775 39.7934 19.2157C39.6009 19.3348 39.4815 19.1447 39.3371 19.0717C38.3302 18.5206 37.3214 17.9465 36.2413 17.3243C37.1558 16.7982 37.9721 16.3431 38.7865 15.8649ZM41.2432 14.5016C42.0826 14.0234 42.922 13.5683 43.7614 13.0902C43.8096 13.0672 43.8577 13.0902 44.0733 13.0902H44.0637C43.1511 14.4056 42.3117 15.6268 41.5069 16.8231C41.3394 17.0862 41.2432 17.0862 41.0025 16.8711C39.4931 15.4809 39.4681 15.5059 41.2432 14.5016ZM40.2979 20.2431C40.6329 21.3683 40.9216 22.4917 41.2104 23.6169C41.3298 23.999 41.0429 23.951 40.8273 23.951H37.0133C37.9721 22.5877 38.8135 21.3664 39.6047 20.1221C39.9147 19.6939 40.1785 19.8609 40.2979 20.2431ZM40.8504 27.876C40.8273 27.3249 41.066 26.8467 41.1854 26.3686C41.2335 26.1535 41.4261 26.0806 41.6417 26.0575C41.9305 26.0345 41.9305 26.2726 41.9767 26.4397C42.2655 27.2538 42.1211 27.4459 40.8504 27.876ZM36.1238 27.7339C36.532 26.9927 37.8027 27.1348 38.6902 26.8487C39.3622 26.6336 40.0341 26.4896 40.8023 26.2976C40.6348 26.9197 40.4904 27.4228 40.371 27.949C40.3133 28.1928 40.1438 28.3964 39.9147 28.5001C39.3622 28.7881 38.8346 29.0992 38.284 29.4102C37.589 29.8173 36.8689 30.1995 36.1007 30.6315L36.1238 27.7339ZM40.1304 28.8092C39.7954 30.0766 39.4835 31.2018 39.1716 32.3271C39.0753 32.6612 38.8597 32.4711 38.7153 32.3751C37.9471 31.945 37.2039 31.4899 36.3163 30.9637C37.6121 30.2225 38.7865 29.5523 40.1304 28.8092ZM40.4673 29.0012C40.5635 28.6191 41.8111 27.6609 42.1461 27.6859C42.2116 27.6993 42.2693 27.732 42.3136 27.7819C42.6737 28.189 42.6255 29.2182 42.2424 29.6004C41.5705 30.2705 40.8985 30.9407 40.2266 31.5859C40.0822 31.7049 39.9629 31.8969 39.6741 31.8259C39.9378 30.8447 40.2016 29.9114 40.4673 29.0012ZM42.4195 26.6566C42.3964 26.3936 42.0595 25.9865 42.4908 25.8425C43.592 25.5083 44.6914 25.1742 45.887 25.1243C44.8319 25.6984 43.8 26.2956 42.7545 26.8698C42.5158 27.0157 42.4426 26.8237 42.4195 26.6566ZM42.433 25.4354C41.8323 25.5794 42.0017 24.9572 41.9055 24.6692C41.7611 24.2621 42.1461 24.3351 42.3618 24.3351H46.2239C46.2297 24.3716 46.247 24.4042 46.272 24.4311C45.0013 24.7652 43.7287 25.1243 42.433 25.4354ZM41.5454 23.4018C41.2566 22.3016 41.0179 21.3914 40.7291 20.3391C42.3618 21.1763 42.3618 21.1763 41.5454 23.4018ZM42.073 20.6502C41.6032 20.4236 41.1546 20.1605 40.7291 19.8609C40.7099 19.8475 40.6925 19.8341 40.6752 19.8187C40.371 19.5633 40.3306 19.1121 40.5866 18.8067C40.731 18.5917 40.8754 18.3996 40.9948 18.1846C41.2104 17.7295 41.4261 17.8255 41.6898 18.1366C42.0248 18.5437 42.4811 18.8547 42.7449 19.2618C42.6255 19.7169 42.5293 20.0991 42.4099 20.5292C42.3618 20.6982 42.2424 20.7462 42.073 20.6502ZM42.8893 18.6877C42.8181 18.6646 42.7449 18.6646 42.7218 18.6397C41.4511 17.4914 41.4511 17.4914 42.4099 16.1031C42.9374 15.3618 43.4419 14.6187 43.9694 13.8775C44.0406 13.9005 44.1138 13.9486 44.185 13.9735C43.7537 15.5289 43.3456 17.1093 42.8893 18.6877ZM44.3775 12.2991C42.6255 13.2803 41.0179 14.1886 39.3641 15.1218C38.9559 13.6375 38.5728 12.1781 38.1646 10.6227C40.2497 11.1738 42.2174 11.7249 44.3775 12.2991ZM37.8989 11.1508C38.1877 12.228 38.4746 13.3283 38.7634 14.4286C38.7268 14.4574 38.6864 14.4824 38.644 14.4997C37.8758 13.7335 37.1076 12.9673 36.3414 12.2261C36.1739 12.0341 36.0776 10.4787 36.222 10.2886C36.2586 10.231 36.3221 10.1945 36.3895 10.1926C36.9401 10.0735 37.7545 10.5997 37.8989 11.1508ZM36.1566 8.78121C36.2528 7.58491 36.1797 6.38861 36.1797 5.1923H36.3144C36.7226 6.67664 37.1057 8.15906 37.5004 9.6434C37.5967 10.0025 37.4773 10.0505 37.1173 9.97752C36.4222 9.85846 36.0853 9.59539 36.1566 8.78121ZM36.0526 23.4018V21.5354L36.1007 18.2576C36.1007 17.8505 36.197 17.7064 36.6051 17.9465C37.4215 18.4496 38.2609 18.9277 39.1234 19.3828C39.4584 19.5499 39.4584 19.7169 39.2678 20.005C38.4284 21.2013 37.589 22.3976 36.7726 23.6188C36.6282 23.8589 36.4376 24.001 36.172 23.9069C35.9082 23.8089 36.0526 23.5689 36.0526 23.4018ZM36.0276 34.7927V31.2268C36.9498 31.7529 37.7064 32.2311 38.4996 32.6862C38.7884 32.8532 38.8115 32.9972 38.5709 33.2373C37.9471 33.8364 37.3233 34.4585 36.7226 35.0807C36.5974 35.242 36.3972 35.3246 36.1951 35.2958C35.9082 35.1997 36.0276 34.9597 36.0276 34.7927ZM38.7384 33.5714C38.3071 35.7969 38.4496 35.5339 37.1076 35.2938C37.5639 34.6486 38.1396 34.1935 38.7384 33.5714ZM36.2432 43.0228C36.1951 43.0228 36.1238 42.9997 36.0757 42.9997C36.0757 41.7785 36.0988 40.5341 36.0526 39.3148C36.0295 38.7637 36.172 38.4776 36.7476 38.4296C37.0152 38.3835 37.2809 38.3201 37.5389 38.2376C37.0826 39.889 36.6764 41.4674 36.2432 43.0228ZM37.1558 37.9514C35.8851 38.2625 36.1007 38.3105 36.0757 37.1373C36.0757 36.012 36.2682 35.6779 37.0114 35.7489C37.3945 35.772 37.9471 35.5339 38.1396 36.012C38.3302 36.4901 37.587 37.8305 37.1558 37.9514ZM43.3687 36.3231C41.6417 36.7782 39.9378 37.2333 38.1146 37.7344C38.259 37.1603 38.3783 36.6572 38.4977 36.1791C38.594 35.7969 38.9059 35.891 39.1696 35.916C40.5616 36.012 41.9286 36.108 43.3206 36.2271C43.3456 36.252 43.3456 36.3 43.3687 36.3231ZM39.2659 35.5569C38.8828 35.5339 38.7133 35.4379 38.8346 34.9578C39.314 33.1393 39.2909 33.1393 40.9216 34.0956L43.8 35.891C42.2174 35.7739 40.731 35.6529 39.2659 35.5569ZM44.4738 35.7739C42.7468 34.7447 41.1623 33.8114 39.651 32.9262C40.731 31.8489 41.763 30.7967 42.8662 29.7444C43.3687 31.6819 43.8962 33.6444 44.4738 35.7739ZM43.0087 28.6422C42.9798 28.6134 42.9567 28.5807 42.9374 28.5461C42.5774 27.3729 42.5543 27.3729 43.6575 26.7757C44.4969 26.3206 45.3614 25.8655 46.2008 25.4123L46.2971 25.4834C45.1919 26.5376 44.1138 27.5899 43.0087 28.6422ZM46.8727 23.953H42.3618C42.0268 23.953 41.8342 23.9299 41.9786 23.4979C42.1712 22.8987 42.3136 22.3016 42.458 21.7024C42.5293 21.4144 42.6255 21.3203 42.9143 21.4874C44.2582 22.2766 45.602 23.0197 46.944 23.784C46.9247 23.8416 46.8997 23.8992 46.8727 23.953Z" fill="#05BCA9"/>
<path d="M27.1981 7.22584C26.4549 7.2028 25.8061 6.89172 25.086 6.72274C26.3355 5.83944 26.9343 6.0065 27.1981 7.22584ZM39.7952 16.3201C39.9396 16.4391 40.1071 16.5601 40.2515 16.7022C41.0678 17.5164 41.0678 17.5164 40.3227 18.4726C40.059 18.1846 40.0821 17.8025 39.9627 17.4914C39.8607 17.1381 39.7798 16.779 39.722 16.4141C39.7413 16.3796 39.7644 16.3469 39.7952 16.3201ZM12.718 44.004C12.7411 43.981 12.7661 43.933 12.7892 43.908L12.8374 43.956L12.718 44.004ZM3.78275 12.8022C3.75965 12.7311 3.75965 12.6831 3.73462 12.6102C3.80585 12.6102 3.85399 12.6332 3.92715 12.6332C3.87902 12.6812 3.84051 12.7542 3.78275 12.8022Z" fill="#05BCA9"/>
</g>
<defs>
<clipPath id="clip0">
<rect width="48" height="48" fill="white"/>
</clipPath>
</defs>
</svg>
