<svg width="48" height="48" viewBox="0 0 48 48" fill="none" xmlns="http://www.w3.org/2000/svg">
<path d="M45.9762 25.5322C45.9808 25.524 45.9808 25.5141 45.9762 25.5058L40.8671 20.4964V6.32764H40.8454V6.30631H29.877V6.31748H29.8666V9.76212L21.9108 1.95834L2.02176 21.4546L2.01347 21.4678C2.00579 21.4703 2.00044 21.4771 2 21.4851V45.0417H40.7583V30.7002L46 25.5607L45.9762 25.5322ZM9.97965 42.3998H4.69443V22.5713L21.9066 5.69359L29.3982 13.0391C29.648 14.108 29.8047 15.1958 29.8666 16.2907V17.0609H29.8894C29.9205 26.4092 20.9035 32.9255 12.8813 32.0293C11.9072 31.9206 11.0678 31.7184 9.97965 31.4298V42.3998ZM38.0701 29.5967C38.0647 29.6017 38.0617 29.6087 38.0618 29.616V42.3998H12.672V34.9537C12.9891 34.9709 13.3145 34.9791 13.6565 34.9791C24.1016 34.9791 32.5693 27.2231 32.5693 17.6543C32.5693 17.4562 32.5693 17.26 32.5579 17.0639V8.94516H38.1644V21.5694C38.1561 21.5795 38.1561 21.5939 38.1644 21.6039L42.1915 25.5526" fill="#2CACE2"/>
</svg>
