<svg width="48" height="48" viewBox="0 0 48 48" fill="none" xmlns="http://www.w3.org/2000/svg">
<path d="M24 48C37.2548 48 48 37.2548 48 24C48 10.7452 37.2548 0 24 0C10.7452 0 0 10.7452 0 24C0 37.2548 10.7452 48 24 48Z" fill="#181818"/>
<path d="M25.0944 21.12L34.6368 11.5584L36.576 13.5168L27.0336 23.0592L25.0944 21.12ZM11.4048 34.7904L20.9664 25.2288L22.9056 27.1872L13.3632 36.7296L11.4048 34.7904ZM25.0944 27.1872L27.0336 25.2288L36.5952 34.7904L34.6368 36.7296L25.0944 27.1872ZM11.4048 13.5168L13.3632 11.5584L22.9056 21.1008L20.9664 23.0592L11.4048 13.5168ZM22.0416 24.1344L24 22.176L25.9584 24.1344L24 26.0928L22.0416 24.1344Z" fill="#F6D30C"/>
</svg>
