<svg width="48" height="48" viewBox="0 0 48 48" fill="none" xmlns="http://www.w3.org/2000/svg">
<path d="M24 0C37.248 0 48 10.752 48 24C48 37.248 37.248 48 24 48C10.752 48 0 37.248 0 24C0 10.752 10.752 0 24 0Z" fill="#071630"/>
<path opacity="0.9" d="M39.456 34.656C39.456 35.328 38.88 35.808 38.016 35.808C37.248 35.808 36.672 35.328 36.672 34.656V17.088C36.672 16.992 36.672 16.992 36.576 16.992C36.48 16.992 36.48 16.992 36.384 16.992L25.344 31.104C24.864 31.584 24 31.776 23.424 31.392C23.232 31.296 23.136 31.2 23.04 31.104L12 16.992C11.904 16.992 11.904 16.992 11.808 16.992L11.712 17.088V34.752C11.712 35.424 11.04 35.904 10.272 35.904C9.50401 35.904 8.92801 35.424 8.92801 34.752V13.632C8.92801 13.248 9.21601 12.864 9.50401 12.672C10.176 12.288 10.944 12.48 11.424 12.96L23.616 28.416C23.904 28.704 24.288 28.704 24.576 28.512C24.576 28.512 24.672 28.512 24.672 28.416L36.864 12.96C37.152 12.576 37.632 12.384 38.112 12.384C38.88 12.384 39.552 12.864 39.552 13.536L39.456 34.656Z" fill="url(#paint0_linear)"/>
<path d="M39.456 34.656C39.456 35.232 38.88 35.808 38.016 35.808C37.536 35.808 37.056 35.616 36.768 35.232L24.672 19.776C24.384 19.488 24 19.488 23.712 19.68C23.712 19.68 23.616 19.776 23.52 19.968L11.52 35.328C11.04 35.904 10.272 36 9.59999 35.616C9.21599 35.424 9.02399 35.04 9.02399 34.656V13.632C9.02399 12.96 9.59999 12.48 10.368 12.48C11.136 12.48 11.808 12.96 11.808 13.632V31.296C11.808 31.392 11.808 31.392 11.904 31.392C12 31.392 12 31.392 12.096 31.392L22.848 17.664C22.944 17.472 23.328 17.088 23.52 16.992C24.192 16.608 24.96 16.704 25.44 17.28L36.384 31.392C36.384 31.392 36.48 31.392 36.576 31.392C36.672 31.392 36.672 31.296 36.672 31.296V13.632C36.672 12.96 37.248 12.48 38.016 12.48C38.784 12.48 39.456 12.96 39.456 13.632V34.656Z" fill="url(#paint1_linear)"/>
<defs>
<linearGradient id="paint0_linear" x1="24.24" y1="35.8275" x2="24.24" y2="12.4891" gradientUnits="userSpaceOnUse">
<stop stop-color="#3F5CAA"/>
<stop offset="0.2" stop-color="#3F5FAC"/>
<stop offset="0.33" stop-color="#4168B2"/>
<stop offset="0.46" stop-color="#4378BD"/>
<stop offset="0.57" stop-color="#468ECC"/>
<stop offset="0.64" stop-color="#48A0D9"/>
<stop offset="0.8" stop-color="#3ABBEC"/>
<stop offset="0.9" stop-color="#35C6F4"/>
</linearGradient>
<linearGradient id="paint1_linear" x1="24.24" y1="35.8465" x2="24.24" y2="12.48" gradientUnits="userSpaceOnUse">
<stop stop-color="#4068B1"/>
<stop offset="0.13" stop-color="#3D7FC1"/>
<stop offset="0.39" stop-color="#39A5DD"/>
<stop offset="0.59" stop-color="#36BDEE"/>
<stop offset="0.72" stop-color="#35C6F4"/>
</linearGradient>
</defs>
</svg>
