<svg width="48" height="48" viewBox="0 0 48 48" fill="none" xmlns="http://www.w3.org/2000/svg">
<path d="M24 48C37.2548 48 48 37.2548 48 24C48 10.7452 37.2548 0 24 0C10.7452 0 0 10.7452 0 24C0 37.2548 10.7452 48 24 48Z" fill="#454545"/>
<path fill-rule="evenodd" clip-rule="evenodd" d="M17.25 24C17.25 20.2785 20.2785 17.25 24 17.25C27.7215 17.25 30.75 20.2785 30.75 24C30.75 24.9795 30.5355 25.908 30.159 26.7495L25.704 22.2945L22.296 25.704L26.751 30.159C25.8862 30.5484 24.9485 30.7499 24 30.75C22.2104 30.748 20.4947 30.0362 19.2292 28.7708C17.9638 27.5053 17.252 25.7896 17.25 24ZM34.9695 24C34.9714 21.8813 34.3564 19.8079 33.1995 18.033L37.5 13.731L34.269 10.5L29.967 14.802C28.248 13.6845 26.202 13.0305 24 13.0305C21.798 13.0305 19.752 13.6845 18.033 14.8005L13.731 10.5L10.5 13.731L14.802 18.033C13.6845 19.752 13.0305 21.798 13.0305 24C13.0305 26.202 13.686 28.248 14.802 29.967L10.5 34.269L13.731 37.5L18.033 33.198C19.752 34.3155 21.798 34.9695 24 34.9695C26.202 34.9695 28.248 34.3155 29.967 33.198L34.269 37.5L37.5 34.269L33.198 29.967C34.3555 28.1923 34.9711 26.1188 34.9695 24Z" fill="white"/>
</svg>
