<svg width="48" height="48" viewBox="0 0 48 48" fill="none" xmlns="http://www.w3.org/2000/svg">
<g clip-path="url(#clip0)">
<path d="M28.672 42.7575H16.576L6.81602 35.5588L3.09602 23.9315L6.80802 12.3041L16.568 5.10549H28.672L38.432 12.3041L42.144 23.9315L38.432 35.5588L38.296 35.6957L28.672 42.7575ZM16.848 41.92H28.4L37.752 35.0032L41.328 23.9315L37.752 12.8597L28.4 5.94292H16.848L7.50402 12.8597L3.92802 23.9315L7.50402 35.0032L16.848 41.92Z" fill="#2E9AD0"/>
<path d="M43.5281 40.8169L37.8881 35.6957L32.3841 33.6183L22.6241 34.8664L12.728 33.6183L7.22401 35.6957L6.95201 34.8664L12.584 32.652H12.728L22.6241 34.037L32.5281 32.652L32.6641 32.7889L38.4401 35.0033L44.0721 40.2613L43.5281 40.8169Z" fill="#2E9AD0"/>
<path d="M28.4 43.1682L22.624 35.1402L16.576 43.1682L12.176 33.3445L13 32.9258L16.848 41.5095L22.624 33.6183L28.264 41.5095L32.112 32.9258L37.336 22.4096L38.576 35.2771H37.752L36.784 25.4534L32.936 33.3445L28.4 43.1682Z" fill="#2E9AD0"/>
<path d="M3.64802 23.5128H41.8719V24.3422H3.64802V23.5128Z" fill="#2E9AD0"/>
<path d="M37.336 25.4533L32.528 15.9035L28.4 24.8977L22.624 14.5185L16.712 24.8977L12.584 15.9035L7.77599 25.4533L6.67199 12.7229L7.50399 12.586L8.32799 22.5465L12.584 14.1078L16.712 23.1021L22.624 12.8598L28.264 23.1021L32.528 14.1078L36.784 22.4096L37.472 12.586H38.304L37.336 25.4533Z" fill="#2E9AD0"/>
<path d="M32.112 15.211L28.264 6.49051L22.624 14.5185L16.848 6.49051L13 15.211L12.312 14.8003L16.576 4.83176L22.624 12.9966L28.4 4.83176L32.936 14.8003L32.112 15.211ZM37.752 35.2769L36.784 25.4533L32.528 34.0369L28.264 24.8977L22.624 35.2769L16.712 24.8977L12.584 34.0369L8.32799 25.4533L7.50399 35.2769H6.67199L7.77599 22.4096L12.584 32.0963L16.712 23.1021L22.624 33.4813L28.4 23.1021L32.528 32.2332L37.336 22.4096L38.576 35.2769H37.752Z" fill="#2E9AD0"/>
<path d="M32.528 15.4928L22.488 14.1079L12.584 15.4928L6.95201 12.9967L7.22401 12.1673L12.728 14.5185L22.488 13.2785L32.528 14.5185L37.888 12.1673L38.304 12.9967L32.528 15.4928Z" fill="#2E9AD0"/>
<path d="M16.712 43.9976C17.6222 43.9976 18.36 43.2549 18.36 42.3388C18.36 41.4227 17.6222 40.68 16.712 40.68C15.8018 40.68 15.064 41.4227 15.064 42.3388C15.064 43.2549 15.8018 43.9976 16.712 43.9976Z" fill="#2E9AD0"/>
<path d="M28.264 43.9976C29.1742 43.9976 29.9121 43.2549 29.9121 42.3388C29.9121 41.4227 29.1742 40.68 28.264 40.68C27.3539 40.68 26.616 41.4227 26.616 42.3388C26.616 43.2549 27.3539 43.9976 28.264 43.9976Z" fill="#2E9AD0"/>
<path d="M16.712 7.31995C17.6222 7.31995 18.36 6.57729 18.36 5.66119C18.36 4.74508 17.6222 4.00243 16.712 4.00243C15.8018 4.00243 15.064 4.74508 15.064 5.66119C15.064 6.57729 15.8018 7.31995 16.712 7.31995Z" fill="#2E9AD0"/>
<path d="M28.264 7.31995C29.1742 7.31995 29.9121 6.57729 29.9121 5.66119C29.9121 4.74508 29.1742 4.00243 28.264 4.00243C27.3539 4.00243 26.616 4.74508 26.616 5.66119C26.616 6.57729 27.3539 7.31995 28.264 7.31995Z" fill="#2E9AD0"/>
<path d="M37.888 14.2448C38.7981 14.2448 39.536 13.5022 39.536 12.5861C39.536 11.67 38.7981 10.9273 37.888 10.9273C36.9778 10.9273 36.24 11.67 36.24 12.5861C36.24 13.5022 36.9778 14.2448 37.888 14.2448Z" fill="#2E9AD0"/>
<path d="M7.08797 14.2448C7.99814 14.2448 8.73597 13.5022 8.73597 12.5861C8.73597 11.67 7.99814 10.9273 7.08797 10.9273C6.1778 10.9273 5.43997 11.67 5.43997 12.5861C5.43997 13.5022 6.1778 14.2448 7.08797 14.2448Z" fill="#2E9AD0"/>
<path d="M7.08797 37.0808C7.99814 37.0808 8.73597 36.3382 8.73597 35.4221C8.73597 34.506 7.99814 33.7634 7.08797 33.7634C6.1778 33.7634 5.43997 34.506 5.43997 35.4221C5.43997 36.3382 6.1778 37.0808 7.08797 37.0808Z" fill="#2E9AD0"/>
<path d="M3.64802 25.5903C4.55819 25.5903 5.29603 24.8476 5.29603 23.9316C5.29603 23.0155 4.55819 22.2728 3.64802 22.2728C2.73785 22.2728 2.00001 23.0155 2.00001 23.9316C2.00001 24.8476 2.73785 25.5903 3.64802 25.5903Z" fill="#2E9AD0"/>
<path d="M41.736 25.5903C42.6461 25.5903 43.384 24.8476 43.384 23.9316C43.384 23.0155 42.6461 22.2728 41.736 22.2728C40.8258 22.2728 40.088 23.0155 40.088 23.9316C40.088 24.8476 40.8258 25.5903 41.736 25.5903Z" fill="#2E9AD0"/>
<path d="M37.064 25.5903C37.9742 25.5903 38.7121 24.8476 38.7121 23.9316C38.7121 23.0155 37.9742 22.2728 37.064 22.2728C36.1539 22.2728 35.416 23.0155 35.416 23.9316C35.416 24.8476 36.1539 25.5903 37.064 25.5903Z" fill="#2E9AD0"/>
<path d="M8.04801 25.5903C8.95818 25.5903 9.69601 24.8476 9.69601 23.9316C9.69601 23.0155 8.95818 22.2728 8.04801 22.2728C7.13785 22.2728 6.40001 23.0155 6.40001 23.9316C6.40001 24.8476 7.13785 25.5903 8.04801 25.5903Z" fill="#2E9AD0"/>
<path d="M16.712 25.5903C17.6222 25.5903 18.36 24.8476 18.36 23.9316C18.36 23.0155 17.6222 22.2728 16.712 22.2728C15.8018 22.2728 15.064 23.0155 15.064 23.9316C15.064 24.8476 15.8018 25.5903 16.712 25.5903Z" fill="#2E9AD0"/>
<path d="M28.264 25.5903C29.1742 25.5903 29.9121 24.8476 29.9121 23.9316C29.9121 23.0155 29.1742 22.2728 28.264 22.2728C27.3539 22.2728 26.616 23.0155 26.616 23.9316C26.616 24.8476 27.3539 25.5903 28.264 25.5903Z" fill="#2E9AD0"/>
<path d="M24.2511 13.9567C24.3969 13.0524 23.7868 12.2004 22.8884 12.0536C21.99 11.9069 21.1435 12.5209 20.9977 13.4252C20.8519 14.3295 21.4619 15.1815 22.3604 15.3283C23.2588 15.475 24.1053 14.861 24.2511 13.9567Z" fill="#2E9AD0"/>
<path d="M12.584 16.7329C13.4941 16.7329 14.232 15.9903 14.232 15.0742C14.232 14.1581 13.4941 13.4154 12.584 13.4154C11.6738 13.4154 10.936 14.1581 10.936 15.0742C10.936 15.9903 11.6738 16.7329 12.584 16.7329Z" fill="#2E9AD0"/>
<path d="M32.528 16.7329C33.4381 16.7329 34.176 15.9903 34.176 15.0742C34.176 14.1581 33.4381 13.4154 32.528 13.4154C31.6178 13.4154 30.88 14.1581 30.88 15.0742C30.88 15.9903 31.6178 16.7329 32.528 16.7329Z" fill="#2E9AD0"/>
<path d="M22.624 36.1065C23.5342 36.1065 24.272 35.3639 24.272 34.4478C24.272 33.5316 23.5342 32.789 22.624 32.789C21.7138 32.789 20.976 33.5316 20.976 34.4478C20.976 35.3639 21.7138 36.1065 22.624 36.1065Z" fill="#2E9AD0"/>
<path d="M12.584 34.7216C13.4941 34.7216 14.232 33.9789 14.232 33.0628C14.232 32.1467 13.4941 31.404 12.584 31.404C11.6738 31.404 10.936 32.1467 10.936 33.0628C10.936 33.9789 11.6738 34.7216 12.584 34.7216Z" fill="#2E9AD0"/>
<path d="M32.528 34.7216C33.4381 34.7216 34.176 33.9789 34.176 33.0628C34.176 32.1467 33.4381 31.404 32.528 31.404C31.6178 31.404 30.88 32.1467 30.88 33.0628C30.88 33.9789 31.6178 34.7216 32.528 34.7216Z" fill="#2E9AD0"/>
<path d="M43.8 42.7576C45.015 42.7576 46 41.7662 46 40.5432C46 39.3203 45.015 38.3289 43.8 38.3289C42.585 38.3289 41.6 39.3203 41.6 40.5432C41.6 41.7662 42.585 42.7576 43.8 42.7576Z" fill="#2E9AD0"/>
</g>
<defs>
<clipPath id="clip0">
<rect width="44" height="40" fill="white" transform="translate(2 4)"/>
</clipPath>
</defs>
</svg>
