<svg width="48" height="48" viewBox="0 0 48 48" fill="none" xmlns="http://www.w3.org/2000/svg">
<path d="M24 48C37.2548 48 48 37.2548 48 24C48 10.7452 37.2548 0 24 0C10.7452 0 0 10.7452 0 24C0 37.2548 10.7452 48 24 48Z" fill="url(#paint0_linear)"/>
<path d="M13.5 13.95L16.05 12.6L16.35 13.2L25.65 7.8L25.05 7.35L24.3 6.9L24 6.75L8.70001 15.6V15.9L13.05 13.5L13.5 13.95ZM13.5 19.65L20.85 15.3L21.15 15.9L30.6 10.5L29.85 10.05L29.1 9.75L28.8 9.6L8.70001 21.15V21.45L13.05 19.05L13.5 19.65ZM13.5 22.35L23.25 16.8L23.55 17.25L33 11.85L32.25 11.55L31.5 11.1L31.2 10.95L8.70001 23.85V24.3L13.05 21.75L13.5 22.35ZM13.5 25.05L25.65 18.15L25.95 18.6L35.4 13.35L34.65 12.9L33.9 12.45L33.6 12.3L8.70001 26.7V27L13.05 24.6L13.5 25.05ZM13.5 27.9L28.05 19.5L28.35 20.1L37.8 14.7L37.05 14.25L36.45 13.95L36 13.65L8.70001 29.4V29.85L13.05 27.3L13.5 27.9ZM38.7 15.3L38.4 15L8.70001 32.25V32.55L13.05 30.15L13.5 30.75L28.05 22.2L28.35 22.8L39.3 16.65V15.6L38.7 15.3ZM10.65 34.35L13.05 32.85L13.35 33.45L28.05 25.05L28.35 25.65L39.3 19.35V17.4L10.2 34.05L10.65 34.35ZM28.05 27.9L28.35 28.5L39.3 22.05V20.1L12.6 35.55L13.05 35.7L15.45 34.2L15.9 34.8L28.05 27.9ZM15.45 37.05L18 35.7L18.3 36.3L28.05 30.6L28.35 31.2L39.3 24.9V22.95L15 36.9L15.45 37.05ZM17.85 38.4L20.4 37.05L20.7 37.65L28.05 33.45L28.35 34.05L39.3 27.75V25.65L17.4 38.25L17.85 38.4ZM19.8 39.6L20.25 39.9L22.8 38.4L23.1 39L28.05 36.15L28.35 36.75L39.3 30.45V28.5L19.8 39.6ZM22.65 41.25L25.05 39.75L25.5 40.35L28.05 39L28.35 39.6L39.3 33.3V31.2L22.35 41.1L22.65 41.25ZM28.2 9.15L27.45 8.7L26.7 8.4L26.4 8.1L8.70001 18.3V18.75L13.05 16.2L13.5 16.8L18.45 13.95L18.75 14.55L28.2 9.15Z" fill="white"/>
<defs>
<linearGradient id="paint0_linear" x1="0" y1="24" x2="48" y2="24" gradientUnits="userSpaceOnUse">
<stop stop-color="#001C3A"/>
<stop offset="0.6" stop-color="#001E3D"/>
<stop offset="0.7" stop-color="#001F3F"/>
<stop offset="1" stop-color="#002042"/>
</linearGradient>
</defs>
</svg>
