<svg width="48" height="48" viewBox="0 0 48 48" fill="none" xmlns="http://www.w3.org/2000/svg">
<path d="M24 48C37.2548 48 48 37.2548 48 24C48 10.7452 37.2548 0 24 0C10.7452 0 0 10.7452 0 24C0 37.2548 10.7452 48 24 48Z" fill="#0E0E21"/>
<path d="M24 48C37.2548 48 48 37.2548 48 24C48 10.7452 37.2548 0 24 0C10.7452 0 0 10.7452 0 24C0 37.2548 10.7452 48 24 48Z" fill="#0E0E21"/>
<path d="M37.3967 29.578L34.5412 24.7355C34.4352 24.5555 34.2009 24.5005 34.0283 24.613L32.169 25.8205C32.0013 25.928 31.9496 26.153 32.0507 26.3255L33.6831 29.093C33.7348 29.1805 33.7077 29.2905 33.6239 29.3455L24.0982 35.533C24.0366 35.573 23.9601 35.573 23.9009 35.533L14.3777 29.3455C14.2939 29.2905 14.2692 29.178 14.3185 29.093L15.951 26.3255C16.0521 26.153 16.0003 25.928 15.8326 25.8205L13.9733 24.613C13.7982 24.5005 13.5665 24.5555 13.4604 24.7355L10.6049 29.578C10.4003 29.923 10.5038 30.3705 10.8392 30.588L23.605 38.883C23.8467 39.0405 24.1574 39.0405 24.3991 38.883L37.1649 30.588C37.4953 30.3705 37.5989 29.923 37.3967 29.578Z" fill="white"/>
<path d="M15.4651 22.0355L17.3244 23.243C17.4995 23.3555 17.7313 23.3005 17.8373 23.1205L23.8417 12.9405C23.9132 12.8205 24.0858 12.8205 24.1573 12.9405L30.1618 23.1205C30.2678 23.3005 30.502 23.3555 30.6747 23.243L32.5339 22.0355C32.7016 21.928 32.7534 21.703 32.6523 21.5305L25.4766 9.36299C25.3434 9.13799 25.1042 9.00049 24.8453 9.00049H23.1537C22.8948 9.00049 22.6556 9.13799 22.5225 9.36299L15.3468 21.5305C15.2457 21.703 15.2975 21.928 15.4651 22.0355Z" fill="#2AE7A8"/>
</svg>
