<svg width="48" height="48" viewBox="0 0 48 48" fill="none" xmlns="http://www.w3.org/2000/svg">
<g clip-path="url(#clip0)">
<path d="M30.3558 26.5975L41.0064 16.0915C41.4021 15.7015 41.7159 15.2377 41.9295 14.727C42.1432 14.2164 42.2525 13.6689 42.2513 13.1162L42.2693 4.62454C42.2683 4.18892 42.0982 3.77032 41.7942 3.45523L21.3621 23.6281C20.965 24.0176 20.6497 24.481 20.4346 24.9917C20.2195 25.5024 20.1088 26.0502 20.1088 26.6034C20.1088 27.1567 20.2195 27.7045 20.4346 28.2152C20.6497 28.7258 20.965 29.1893 21.3621 29.5788L35.7683 43.789C36.1632 44.1778 36.6316 44.4858 37.1468 44.6955C37.6619 44.9051 38.2138 45.0123 38.7709 45.0109C39.3279 45.0096 39.8792 44.8996 40.3933 44.6874C40.9074 44.4752 41.3743 44.1649 41.7672 43.7742C42.1601 43.3834 42.4713 42.9199 42.6832 42.4102C42.8951 41.9004 43.0034 41.3544 43.002 40.8032C43.0006 40.252 42.8895 39.7065 42.6751 39.1977C42.4606 38.689 42.147 38.2271 41.7521 37.8383L30.3558 26.5975Z" fill="#008C62"/>
<path d="M40.6027 2.99906H8.5096C5.91461 2.99906 3.99919 4.93898 3.99919 7.58704V40.7175C3.99191 41.2805 4.09865 41.8392 4.31311 42.3606C4.52756 42.8821 4.8454 43.3558 5.24786 43.7537C5.65032 44.1517 6.12925 44.4658 6.6564 44.6777C7.18355 44.8895 7.74824 44.9948 8.31715 44.9872C8.88649 44.9968 9.45198 44.893 9.97991 44.6819C10.5078 44.4707 10.9874 44.1566 11.3901 43.7582C11.7927 43.3597 12.1102 42.8852 12.3236 42.3628C12.5369 41.8404 12.6419 41.2809 12.6321 40.7175V11.1723H33.9814L41.7994 3.47511C41.6429 3.31979 41.4561 3.19751 41.2504 3.11568C41.0447 3.03385 40.8243 2.99418 40.6027 2.99906Z" fill="#00E6A0"/>
</g>
<defs>
<clipPath id="clip0">
<rect width="39" height="42" fill="white" transform="translate(4 3)"/>
</clipPath>
</defs>
</svg>
