<svg width="48" height="48" viewBox="0 0 48 48" fill="none" xmlns="http://www.w3.org/2000/svg">
<path fill-rule="evenodd" clip-rule="evenodd" d="M24.534 41.1422C32.6551 41.1756 39.8346 37.0889 44.18 30.8848C45.9397 28.3733 47.2348 25.5082 47.9394 22.4167C47.9796 22.9842 48 23.5571 48 24.1348C48 37.3152 37.3719 48 24.2616 48C10.0173 48 0 38.1135 0 25.9178C0 16.4222 6.07271 8.32647 14.5942 5.20719C16.6653 4.49697 18.7813 4.10994 20.9873 4.10994C31.2345 4.10994 40.0872 12.4613 40.0872 22.7632C40.0872 24.5331 39.842 26.2454 38.8382 27.8677C39.2149 26.867 39.2686 26.1244 39.2686 25.3692C39.2686 16.8095 32.0936 10.1448 23.5794 10.1448C15.0652 10.1448 8.1631 17.0838 8.1631 25.6435C8.1631 32.8924 13.1132 38.979 19.8004 40.6731C21.1636 40.9471 22.5572 41.1357 24.534 41.1422Z" fill="url(#paint0_linear)"/>
<path fill-rule="evenodd" clip-rule="evenodd" d="M23.466 6.85782C15.3449 6.82441 8.1654 10.9111 3.81998 17.1152C2.06032 19.6267 0.76522 22.4918 0.0605666 25.5833C0.0204175 25.0158 0 24.4429 0 23.8652C0 10.6848 10.6281 0 23.7384 0C37.9827 0 48 9.88653 48 22.0822C48 31.5778 41.9273 39.6735 33.4058 42.7928C31.3347 43.503 29.2187 43.8901 27.0127 43.8901C16.7655 43.8901 7.91281 35.5387 7.91281 25.2368C7.91281 23.4669 8.15799 21.7546 9.16179 20.1323C8.78511 21.133 8.73138 21.8756 8.73138 22.6308C8.73138 31.1905 15.9064 37.8552 24.4206 37.8552C32.9348 37.8552 39.8369 30.9162 39.8369 22.3565C39.8369 15.1076 34.8868 9.021 28.1996 7.32688C26.8364 7.05285 25.4428 6.86432 23.466 6.85782Z" fill="url(#paint1_linear)"/>
<defs>
<linearGradient id="paint0_linear" x1="48" y1="26.055" x2="0" y2="26.055" gradientUnits="userSpaceOnUse">
<stop stop-color="#929297"/>
<stop offset="0.780357" stop-color="#88878D"/>
<stop offset="1" stop-color="#BAB9C6"/>
</linearGradient>
<linearGradient id="paint1_linear" x1="0" y1="21.945" x2="48" y2="21.945" gradientUnits="userSpaceOnUse">
<stop stop-color="#919FB7"/>
<stop offset="1" stop-color="#F8FAFE"/>
</linearGradient>
</defs>
</svg>
