<svg width="48" height="48" viewBox="0 0 48 48" fill="none" xmlns="http://www.w3.org/2000/svg">
<path d="M19.0847 34.7024C18.6222 34.7011 18.1664 34.5924 17.753 34.3849C17.3396 34.1774 16.9801 33.8768 16.7026 33.5068C16.4251 33.1368 16.2373 32.7074 16.154 32.2525C16.0707 31.7975 16.094 31.3295 16.2223 30.8851C16.3505 30.4407 16.5802 30.0322 16.8931 29.6917C17.2061 29.3511 17.5938 29.0878 18.0258 28.9226C18.4577 28.7573 18.9222 28.6946 19.3825 28.7393C19.8428 28.784 20.2865 28.9349 20.6786 29.1802C20.8508 29.2883 21.0498 29.3458 21.2531 29.3462C21.4647 29.3459 21.6724 29.2886 21.8541 29.1802C22.0331 29.0744 22.1798 28.9216 22.2781 28.7384C22.3764 28.5552 22.4228 28.3485 22.412 28.1408C22.3563 27.3692 22.602 26.606 23.0974 26.0118C23.5929 25.4176 24.2994 25.0386 25.0685 24.9547C25.1788 24.9428 25.2897 24.9367 25.4006 24.9364C25.9639 24.936 26.5156 25.0961 26.9912 25.398C27.1642 25.5069 27.3645 25.5644 27.569 25.564C27.7801 25.5642 27.9873 25.5068 28.1683 25.398H28.1816C28.357 25.2909 28.5002 25.1384 28.5961 24.9566C28.6919 24.7748 28.7369 24.5705 28.7262 24.3653C28.6702 23.5874 28.9204 22.8183 29.4236 22.2224C29.9268 21.6265 30.643 21.2509 31.4193 21.1758C31.5156 21.1758 31.6135 21.1625 31.7098 21.1625C32.5024 21.1625 33.2626 21.4774 33.8231 22.0378C34.3835 22.5983 34.6984 23.3585 34.6984 24.1511C34.6984 24.9437 34.3835 25.7039 33.8231 26.2643C33.2626 26.8248 32.5024 27.1397 31.7098 27.1397C31.1455 27.1415 30.5925 26.9819 30.1159 26.6798C29.9438 26.5717 29.7447 26.5141 29.5414 26.5137C29.3297 26.5133 29.1219 26.5707 28.9404 26.6798C28.7613 26.7858 28.6147 26.9389 28.5167 27.1225C28.4186 27.306 28.3728 27.513 28.3842 27.7208C28.3958 27.8777 28.3958 28.0354 28.3842 28.1923C28.3243 28.8823 28.0267 29.53 27.5421 30.0249C27.0576 30.5197 26.4162 30.8309 25.7277 30.9053C25.6174 30.9171 25.5065 30.9232 25.3956 30.9235C24.8318 30.9237 24.2796 30.7637 23.8034 30.462C23.6307 30.3537 23.431 30.2961 23.2272 30.2959C23.0156 30.2962 22.8079 30.3535 22.6262 30.462H22.6129C22.4375 30.5689 22.2943 30.7214 22.1987 30.9033C22.1031 31.0851 22.0586 31.2895 22.07 31.4947C22.0824 31.6538 22.0824 31.8137 22.07 31.9729C22.0083 32.6668 21.706 33.3174 21.2155 33.8122C20.725 34.307 20.077 34.6148 19.3836 34.6825C19.2844 34.6944 19.1846 34.701 19.0847 34.7024Z" fill="url(#paint0_linear)"/>
<path d="M19.0847 27.1297C18.3166 27.1376 17.575 26.8494 17.0138 26.325C16.4525 25.8006 16.1147 25.0802 16.0705 24.3133C16.0263 23.5465 16.279 22.792 16.7763 22.2066C17.2735 21.6211 17.9771 21.2496 18.741 21.1692C18.8568 21.1559 18.9732 21.1492 19.0897 21.1492C19.6535 21.149 20.2057 21.3091 20.6819 21.6108C20.8541 21.7189 21.0531 21.7764 21.2564 21.7768C21.468 21.7765 21.6757 21.7192 21.8575 21.6108C22.0368 21.5054 22.1838 21.3527 22.2822 21.1694C22.3806 20.986 22.4266 20.7792 22.4153 20.5714C22.3593 19.7933 22.6098 19.024 23.1133 18.4281C23.6168 17.8321 24.3334 17.4567 25.11 17.382C25.206 17.3726 25.3025 17.3682 25.3989 17.3687C26.1708 17.3544 26.9182 17.6393 27.4847 18.1638C28.0511 18.6883 28.3927 19.4116 28.4377 20.1823C28.4828 20.9529 28.2279 21.7111 27.7264 22.2981C27.225 22.885 26.5158 23.2551 25.7476 23.3309C25.6318 23.3442 25.5154 23.3508 25.3989 23.3508C24.8354 23.3507 24.2835 23.1913 23.8067 22.8909C23.6347 22.7811 23.4346 22.7234 23.2305 22.7249C23.0188 22.7244 22.811 22.7819 22.6295 22.8909C22.4507 22.9968 22.3043 23.1497 22.2062 23.3329C22.1082 23.5161 22.0622 23.7227 22.0733 23.9303C22.0857 24.0894 22.0857 24.2493 22.0733 24.4084C22.0119 25.1027 21.7098 25.7537 21.2193 26.2488C20.7287 26.7439 20.0806 27.052 19.3869 27.1198C19.2889 27.1198 19.191 27.1347 19.093 27.1347L19.0847 27.1297Z" fill="url(#paint1_linear)"/>
<path d="M21.2016 18.3499L21.0788 17.7339C21.1792 17.692 21.259 17.6122 21.301 17.5118C21.3429 17.4114 21.3436 17.2986 21.3029 17.1977L21.7728 16.8839C21.7941 16.9055 21.8174 16.9249 21.8425 16.942L21.2481 18.3615C21.2299 18.3598 21.2115 18.3598 21.1933 18.3615L21.2016 18.3499ZM21.2083 16.1168L21.6848 16.4323C21.6638 16.4828 21.653 16.5369 21.653 16.5916C21.653 16.6464 21.6638 16.7005 21.6848 16.751L21.2132 17.0632C21.1418 16.9916 21.0468 16.9486 20.9459 16.9422C20.845 16.9358 20.7453 16.9664 20.6653 17.0283L20.4163 16.8042C20.4569 16.7401 20.4784 16.6658 20.4784 16.59C20.4784 16.5141 20.4569 16.4399 20.4163 16.3758L20.662 16.1533C20.7341 16.2081 20.8222 16.2379 20.9127 16.238C20.9678 16.2383 21.0224 16.2274 21.0732 16.206C21.124 16.1845 21.17 16.1531 21.2083 16.1135V16.1168ZM19.9996 15.0874C20.0231 15.0774 20.0458 15.0658 20.0676 15.0525L20.5773 15.5838C20.5371 15.6405 20.5118 15.7064 20.5037 15.7755C20.4955 15.8445 20.5049 15.9145 20.5309 15.979C20.5386 15.9986 20.548 16.0175 20.5591 16.0354L20.3167 16.2529C20.2482 16.2 20.1646 16.1702 20.0781 16.1678C19.9916 16.1654 19.9065 16.1906 19.8352 16.2397L19.4085 15.8146C19.4585 15.7426 19.484 15.6563 19.481 15.5686C19.478 15.4809 19.4467 15.3966 19.3919 15.3281L19.6343 15.0525C19.6891 15.0855 19.7508 15.105 19.8146 15.1097C19.8783 15.1143 19.9423 15.1038 20.0012 15.0791L19.9996 15.0874ZM21.2963 15.9757C21.3387 15.8746 21.3393 15.7608 21.2979 15.6593C21.2565 15.5578 21.1765 15.4769 21.0754 15.4344H21.0655L21.1867 14.7952C21.2129 14.7949 21.239 14.7921 21.2647 14.7869L21.8425 16.2363C21.8166 16.2523 21.7927 16.2713 21.7711 16.2928L21.2963 15.9757ZM17.1023 14.8367C17.1521 14.8168 17.3048 14.7337 17.3298 14.6142L17.8959 14.7221C17.8925 14.8058 17.9158 14.8883 17.9623 14.9579L17.4543 15.4676C17.3839 15.4197 17.3004 15.3947 17.2152 15.3962L17.1023 14.8367ZM20.1772 14.9346C20.2316 14.8596 20.2591 14.7683 20.2552 14.6756L20.8115 14.5445C20.8314 14.591 20.8602 14.6333 20.8961 14.669C20.9366 14.7086 20.9846 14.7396 21.0373 14.7603L20.9161 15.3995C20.8591 15.3982 20.8025 15.4089 20.75 15.4311C20.7265 15.441 20.7038 15.4527 20.6819 15.4659L20.1772 14.9346ZM19.2126 13.9384L19.5446 14.4033C19.4766 14.475 19.4366 14.5687 19.4317 14.6674C19.4268 14.7661 19.4575 14.8632 19.5181 14.9413L19.2773 15.2152C19.2136 15.1762 19.1403 15.1555 19.0656 15.1555C18.9909 15.1555 18.9176 15.1762 18.8539 15.2152L18.6364 14.9745C18.6984 14.8933 18.728 14.7921 18.7198 14.6903C18.7115 14.5885 18.6658 14.4934 18.5916 14.4233L18.9087 13.9467C18.9489 13.9665 18.9935 13.9757 19.0382 13.9733C19.0954 13.9736 19.152 13.9617 19.2043 13.9384H19.2126ZM17.3646 14.4614C17.3672 14.4361 17.3672 14.4105 17.3646 14.3851L18.7111 13.8023C18.7335 13.8327 18.7591 13.8605 18.7875 13.8853L18.4754 14.3552C18.4253 14.3345 18.3717 14.324 18.3176 14.3241C18.2635 14.3241 18.2099 14.3349 18.1599 14.3557C18.11 14.3765 18.0646 14.407 18.0264 14.4454C17.9882 14.4837 17.958 14.5293 17.9374 14.5793L17.3646 14.4614ZM19.3437 13.8554C19.3634 13.8326 19.3812 13.8082 19.3969 13.7824L20.7882 14.3054C20.7849 14.3352 20.7849 14.3652 20.7882 14.395L20.2303 14.5262C20.1869 14.4273 20.1064 14.3494 20.006 14.3093C19.9057 14.2693 19.7937 14.2702 19.6941 14.312H19.6791L19.3437 13.8554ZM19.0366 13.1481C18.9749 13.1492 18.9142 13.164 18.8591 13.1916C18.8039 13.2193 18.7556 13.2589 18.7179 13.3077C18.6801 13.3565 18.6538 13.4131 18.6408 13.4734C18.6279 13.5338 18.6286 13.5962 18.6431 13.6562L17.3015 14.2373C17.2865 14.2088 17.2669 14.183 17.2434 14.1609C17.1652 14.087 17.0612 14.0465 16.9536 14.048C16.846 14.0495 16.7432 14.0929 16.6671 14.169C16.591 14.2451 16.5476 14.3479 16.546 14.4556C16.5445 14.5632 16.585 14.6671 16.659 14.7454L16.7005 14.7719C16.3712 15.2067 16.1678 15.7236 16.1127 16.2662C16.1028 16.3675 16.0978 16.4704 16.0978 16.5734C16.0978 17.366 16.4127 18.1262 16.9731 18.6866C17.5336 19.2471 18.2938 19.562 19.0864 19.562C19.1884 19.5622 19.2904 19.5567 19.3919 19.5454C19.9517 19.4906 20.4835 19.2742 20.9227 18.9227C20.9227 18.9227 20.9327 18.941 20.9393 18.9476C21.0071 19.0042 21.0936 19.0333 21.1818 19.0293C21.2699 19.0253 21.3534 18.9885 21.4159 18.9261C21.4783 18.8637 21.5151 18.7802 21.5191 18.692C21.5231 18.6038 21.4939 18.5173 21.4374 18.4495C21.4229 18.4345 21.4067 18.4211 21.3892 18.4097L21.982 16.9818C22.0349 16.9936 22.0895 16.9948 22.1429 16.9855C22.1962 16.9761 22.2472 16.9564 22.2929 16.9273C22.3387 16.8982 22.3782 16.8604 22.4093 16.8161C22.4404 16.7718 22.4625 16.7217 22.4743 16.6688C22.486 16.616 22.4873 16.5613 22.4779 16.5079C22.4686 16.4546 22.4488 16.4036 22.4197 16.3579C22.3907 16.3122 22.3529 16.2726 22.3085 16.2415C22.2642 16.2104 22.2142 16.1883 22.1613 16.1766C22.1288 16.1682 22.0952 16.1649 22.0617 16.1666C22.0363 16.1641 22.0107 16.1641 21.9853 16.1666L21.4042 14.7171C21.4504 14.6886 21.4906 14.6512 21.5223 14.6071C21.5541 14.563 21.5769 14.5131 21.5894 14.4602C21.6019 14.4074 21.6038 14.3525 21.5951 14.2989C21.5864 14.2453 21.5672 14.1939 21.5387 14.1476C21.5101 14.1014 21.4727 14.0613 21.4286 14.0295C21.3846 13.9977 21.3347 13.9749 21.2818 13.9625C21.2289 13.95 21.1741 13.948 21.1204 13.9567C21.0668 13.9654 21.0154 13.9846 20.9692 14.0132C20.9122 14.048 20.8648 14.0965 20.8314 14.1543L19.4516 13.6313C19.4711 13.5235 19.447 13.4123 19.3848 13.3221C19.3226 13.2319 19.2273 13.17 19.1196 13.1498H19.0515L19.0366 13.1481Z" fill="url(#paint2_linear)"/>
<path d="M23.9694 48C18.0202 47.9924 12.2858 45.7754 7.87859 41.7792C3.4714 37.7829 0.705551 32.2922 0.11756 26.3721C-0.470431 20.4519 1.16134 14.5244 4.69636 9.73934C8.23138 4.95424 13.4177 1.65265 19.2492 0.474981C25.0807 -0.702686 31.1418 0.327523 36.2567 3.36577C41.3716 6.40403 45.1758 11.2337 46.9313 16.9181C48.6868 22.6024 48.2685 28.7362 45.7576 34.1296C43.2466 39.5229 38.822 43.7915 33.3419 46.1072C30.3768 47.3618 27.189 48.0055 23.9694 48ZM23.9694 6.99C20.0493 6.98921 16.2501 8.34775 13.2194 10.8341C10.1887 13.3205 8.11383 16.7809 7.34846 20.6255C6.5831 24.4702 7.17456 28.4614 9.02206 31.9189C10.8696 35.3763 13.8588 38.0862 17.4804 39.5868C21.1019 41.0873 25.1318 41.2857 28.8832 40.148C32.6346 39.0103 35.8755 36.6071 38.0536 33.3477C40.2317 30.0883 41.2122 26.1746 40.828 22.2733C40.4439 18.372 38.7189 14.7247 35.947 11.9527C34.3778 10.3746 32.5112 9.12348 30.4553 8.27164C28.3993 7.41979 26.1948 6.98417 23.9694 6.99Z" fill="url(#paint3_linear)"/>
<defs>
<linearGradient id="paint0_linear" x1="2.75378" y1="50.5652" x2="31.0739" y2="22.2467" gradientUnits="userSpaceOnUse">
<stop stop-color="#F9C300"/>
<stop offset="1" stop-color="#F2E900"/>
</linearGradient>
<linearGradient id="paint1_linear" x1="1200.08" y1="3766.64" x2="2820.16" y2="1713.36" gradientUnits="userSpaceOnUse">
<stop stop-color="#F9C300"/>
<stop offset="1" stop-color="#F2E900"/>
</linearGradient>
<linearGradient id="paint2_linear" x1="456.052" y1="2303.59" x2="1549.99" y2="1214.35" gradientUnits="userSpaceOnUse">
<stop stop-color="#F9C300"/>
<stop offset="1" stop-color="#F2E900"/>
</linearGradient>
<linearGradient id="paint3_linear" x1="5082.72" y1="18917.3" x2="13269.6" y2="10730.4" gradientUnits="userSpaceOnUse">
<stop stop-color="#F9C300"/>
<stop offset="1" stop-color="#F2E900"/>
</linearGradient>
</defs>
</svg>
