<svg width="48" height="48" viewBox="0 0 48 48" fill="none" xmlns="http://www.w3.org/2000/svg">
<g clip-path="url(#clip0)">
<path fill-rule="evenodd" clip-rule="evenodd" d="M24.0013 47.9994C37.2206 47.9994 48.0014 37.2186 48.0014 23.9994C48.0014 10.7826 37.2206 -0.00062561 24.0013 -0.00062561C10.7845 -0.00062561 0.00125544 10.7826 0.00125544 23.9994C-0.00114457 37.2186 10.7821 47.9994 24.0013 47.9994Z" fill="black"/>
<path fill-rule="evenodd" clip-rule="evenodd" d="M17.8453 11.5602H21.3013C21.4333 11.5602 21.5389 11.6682 21.5389 11.8002V16.8498C21.5389 16.9842 21.6469 17.0898 21.7789 17.0898H26.2165C26.3485 17.0898 26.4565 16.9842 26.4565 16.8498V11.8002C26.4565 11.6682 26.5621 11.5602 26.6965 11.5602H30.1501C30.2821 11.5602 30.3901 11.6682 30.3901 11.8002V16.8498C30.3901 16.9842 30.4957 17.0898 30.6301 17.0898H34.8541C34.9885 17.0898 35.0941 17.1978 35.0941 17.3298V20.7762C35.0941 20.9106 34.9885 21.0162 34.8541 21.0162H30.6301C30.4957 21.0162 30.3901 21.1242 30.3901 21.2562V26.6201C30.3901 26.7521 30.4957 26.8601 30.6301 26.8601H34.8541C34.9885 26.8601 35.0941 26.9657 35.0941 27.1001V30.5465C35.0941 30.6785 34.9885 30.7865 34.8541 30.7865H30.6301C30.4957 30.7865 30.3901 30.8945 30.3901 31.0265V36.0761C30.3901 36.2081 30.2821 36.3161 30.1501 36.3161H26.6965C26.5621 36.3161 26.4565 36.2081 26.4565 36.0761V31.0265C26.4565 30.8921 26.3485 30.7865 26.2165 30.7865H21.7813C21.6493 30.7865 21.5413 30.8945 21.5413 31.0265V36.0761C21.5413 36.2081 21.4357 36.3161 21.3037 36.3161H17.8477C17.7157 36.3161 17.6077 36.2081 17.6077 36.0761V31.0265C17.6077 30.8921 17.5021 30.7865 17.3677 30.7865H13.1437C13.0093 30.7865 12.9037 30.6785 12.9037 30.5465V27.1001C12.9037 26.9657 13.0093 26.8601 13.1437 26.8601H17.3677C17.5021 26.8601 17.6077 26.7521 17.6077 26.6201V21.2562C17.6077 21.1242 17.5021 21.0162 17.3677 21.0162H13.1437C13.0093 21.0162 12.9037 20.9106 12.9037 20.7762V17.3298C12.9037 17.1978 13.0093 17.0898 13.1437 17.0898H17.3677C17.5021 17.0898 17.6077 16.9842 17.6077 16.8498V11.8002C17.6029 11.6682 17.7133 11.5602 17.8453 11.5602ZM26.4589 26.6225V21.2562C26.4589 21.1242 26.3509 21.0162 26.2189 21.0162H21.7813C21.6493 21.0162 21.5413 21.1242 21.5413 21.2562V26.6201C21.5413 26.7521 21.6493 26.8601 21.7813 26.8601H26.2189C26.3509 26.8625 26.4589 26.7521 26.4589 26.6225Z" fill="white"/>
</g>
<defs>
<clipPath id="clip0">
<rect width="48" height="48" fill="white"/>
</clipPath>
</defs>
</svg>
