<svg width="48" height="48" viewBox="0 0 48 48" fill="none" xmlns="http://www.w3.org/2000/svg">
<g clip-path="url(#clip0)">
<path d="M22.0732 38.9469L9.46399 48L17.4687 11.1641L22.0732 38.9469ZM22.3282 38.8619L30.0071 38.9611L17.7662 11.3058L22.3282 38.8619ZM30.7296 38.2527L36.6092 16.4628L34.3849 13.7427L30.7296 38.2527ZM27.8961 4.09448L18.2196 10.6116L32.3589 6.03545L27.8961 4.09448ZM26.6777 4.09448L20.6706 4.29283L19.7922 6.8005L26.6777 4.09448Z" fill="#384182"/>
<path d="M33.9599 12.9067L18.4746 10.7816L32.4298 6.38961L33.9599 12.9067ZM30.2904 4.71782L31.1405 2.4085L26.6777 0.467529L30.2904 4.71782ZM31.5797 2.18181L32.5856 5.80873L38.536 4.23612L31.5797 2.18181Z" fill="#F79534"/>
<path d="M30.3471 38.8194L17.9362 11.0508L34.1157 13.3176L30.3471 38.8194ZM27.4286 4.09445L19.778 7.08383L17.9362 10.4841L27.4286 4.09445ZM22.6824 1.82763L20.7698 3.93861L27.1169 3.78276L22.6824 1.82763ZM26.026 0.184179L22.9941 1.58678L29.9079 4.63282L26.026 0.184179ZM29.4829 0H26.2243L31.268 1.95514L29.4829 0ZM31.3672 2.59268L30.5879 4.91617L32.1464 5.66706L31.3672 2.59268Z" fill="#F0513A"/>
</g>
<defs>
<clipPath id="clip0">
<rect width="48" height="48" fill="white"/>
</clipPath>
</defs>
</svg>
