<svg width="48" height="48" viewBox="0 0 48 48" fill="none" xmlns="http://www.w3.org/2000/svg">
<path d="M24 48C37.2548 48 48 37.2548 48 24C48 10.7452 37.2548 0 24 0C10.7452 0 0 10.7452 0 24C0 37.2548 10.7452 48 24 48Z" fill="#20EE82"/>
<path d="M31.5323 23.2369V31.36H23.3846C18.9046 31.36 15.2615 27.7169 15.2615 23.2369C15.2615 18.7569 18.9046 15.1139 23.3846 15.1139C27.8646 15.1139 31.5323 18.7569 31.5323 23.2369ZM23.5077 9.69847C16.0246 9.47693 9.7723 15.36 9.55077 22.8431C9.32923 30.3262 15.2123 36.5785 22.6954 36.8H36.9477V23.4092C36.9477 15.9262 30.9661 9.7477 23.5077 9.69847Z" fill="white"/>
</svg>
