<svg width="48" height="48" viewBox="0 0 48 48" fill="none" xmlns="http://www.w3.org/2000/svg">
<path fill-rule="evenodd" clip-rule="evenodd" d="M45.0339 27.7966V31.1864C45.0339 40.678 31.2034 46.1017 27 47.4576L25.5085 48V42.1695L26.322 41.8983C32.9661 39.4576 39.6102 35.2542 39.6102 31.1864V27.7966H45.0339ZM24.0169 0L29.7119 1.76271V7.72881L24.0169 5.9661L23.6102 6.10169V19.5254H29.5763V25.0847H23.6102V47.8644L21.983 47.322C21.3051 47.0508 20.0847 46.6441 18.5932 45.9661L17.9153 45.6949V1.76271L24.0169 0ZM16.2881 2.44068V8.40678L8.55932 10.7119V19.5254H16.2881V45.1525L14.5254 44.339C9.23729 41.6271 3 37.1525 3 30.7797V27.7966H8.55932V30.7797C8.55932 32.1356 9.23729 33.4915 10.5932 34.8475V25.0847H3V6.37288L16.2881 2.44068ZM31.339 2.30508L44.8983 6.50847V25.2203H36.8983V33.3559C36.8983 33.3559 35.1356 35.661 31.339 37.5593C31.339 36.4746 31.339 20.0678 31.339 10.0339V2.30508ZM37.0339 9.8983V19.5254H39.4746V10.7119L37.0339 9.8983Z" fill="#050101"/>
</svg>
