<svg width="48" height="48" viewBox="0 0 48 48" fill="none" xmlns="http://www.w3.org/2000/svg">
<path d="M24 47.9206C36.831 47.9206 47.2326 37.519 47.2326 24.688C47.2326 11.8569 36.831 1.45532 24 1.45532C11.169 1.45532 0.767372 11.8569 0.767372 24.688C0.767372 37.519 11.169 47.9206 24 47.9206Z" fill="#FE0000"/>
<path d="M44.0573 29.4774C42.3903 29.2127 40.6703 29.1598 39.0297 29.5303C30.5358 31.7001 33.7376 35.3252 31.8588 30.2183C31.8588 30.1918 31.1709 29.7684 31.1444 29.742C31.0915 29.6361 31.0385 29.5567 30.9592 29.4774C29.9007 27.9162 28.3131 26.7784 26.4873 26.3021C26.4608 26.2756 26.4344 26.2756 26.4079 26.2756C23.8941 25.5876 21.0363 26.0639 18.9989 27.7309C18.2844 28.2602 17.57 28.6306 17.0408 29.3451L16.8026 29.5303C16.6968 29.6361 16.6438 29.742 16.5645 29.8478L16.2469 30.1389C15.6648 30.9856 15.8236 31.7265 15.4266 32.6791C15.3208 32.7585 15.3208 33.129 15.1885 32.9966C14.7387 32.5204 14.2888 32.0705 13.7861 31.7001C11.0606 29.3451 7.25024 28.6835 3.78387 29.398C3.65156 31.5148 4.78938 33.4994 6.03304 35.1135C7.38254 36.7805 8.9702 38.2094 10.6902 39.4531C11.775 40.2734 12.9129 40.9614 14.1036 41.6229C14.183 41.7023 14.2624 41.7552 14.3682 41.7552C14.4211 41.7816 14.4741 41.8081 14.527 41.8346C14.5799 41.861 14.6064 41.914 14.6857 41.914C15.3473 42.3109 16.0617 42.6549 16.7761 42.9459C16.7761 42.9459 16.7761 42.9459 16.7761 42.9195C16.7761 42.9195 16.7761 42.9195 16.7761 42.9459C16.8555 42.9988 16.9614 43.0518 17.0672 43.0518C17.0937 43.1047 17.1995 43.1576 17.2524 43.1312C17.2524 43.1312 17.2524 43.1312 17.226 43.1576C17.2524 43.1841 17.2789 43.2105 17.3318 43.2105C17.3847 43.237 17.4377 43.2635 17.4906 43.2635C17.5171 43.2899 17.57 43.3164 17.6229 43.3164C17.6758 43.3428 17.7023 43.3693 17.7552 43.3693C17.8875 43.4487 18.0463 43.4751 18.1786 43.5281C18.258 43.5545 18.3109 43.581 18.3903 43.6074C18.5755 43.6868 18.8136 43.7662 19.0253 43.8191C27.2546 46.6769 36.6483 41.8346 41.8346 35.431C41.8875 35.3781 41.914 35.3252 41.914 35.2723C42.0992 35.1664 42.2315 34.9018 42.3109 34.7166C42.4432 34.5049 42.6019 34.2932 42.7342 34.0286C42.7607 34.0022 42.7872 33.9757 42.7872 33.9492C42.8401 33.8434 42.9195 33.764 42.9459 33.6582C43.6075 32.4939 44.3748 30.7475 44.0573 29.4774ZM10.452 39.2149C10.4785 39.2149 10.4785 39.2149 10.452 39.2149C10.4785 39.2149 10.4785 39.2149 10.452 39.2149ZM15.215 33.1554C15.2414 33.1554 15.2414 33.1554 15.215 33.1554C15.2414 33.1819 15.215 33.1554 15.215 33.1554ZM16.6703 42.8665C16.6703 42.8665 16.6438 42.8665 16.6703 42.8665C16.6438 42.8665 16.6703 42.8665 16.6703 42.8665ZM21.301 44.269C21.3274 44.269 21.301 44.269 21.301 44.269V44.269ZM32.7585 42.3638C32.7585 42.3638 32.732 42.3638 32.7585 42.3638C32.732 42.3638 32.7585 42.3638 32.7585 42.3638Z" fill="#FDFDFD"/>
<path d="M35.2194 4.23371C48.0265 -7.77952 43.5546 10.5314 41.1467 17.7288C42.1786 20.2425 43.5546 22.8092 43.8721 25.6141C44.0045 26.8842 44.2955 28.366 44.1632 29.5568C40.6439 28.8159 36.7542 29.6361 34.0022 31.9912C31.7795 34.2403 33.1555 32.3351 30.9592 29.4774C26.5138 23.2855 17.7023 25.9845 15.5061 32.7321C15.4267 32.8908 15.3738 33.2877 15.1621 33.0231C12.3573 29.8214 7.93829 28.6571 3.83685 29.4509C3.75747 25.4024 5.2922 21.4333 6.82693 17.8081C5.05405 12.7276 2.9901 5.55676 5.23928 0.42335C7.35615 -1.05846 11.2194 3.01651 12.8071 4.33956C18.6814 10.8489 14.9504 6.48289 24.5557 6.80042C33.9229 6.98564 29.3451 10.5843 35.2194 4.23371Z" fill="#FDA000"/>
<path d="M12.0926 10.2932C11.5899 10.7431 11.0871 11.1929 10.6373 11.6692C10.3197 12.0132 10.0022 12.3307 9.71114 12.6747C9.36715 13.0981 9.02316 13.5479 8.67917 13.9713C8.3881 14.3682 8.12349 14.7916 7.83242 15.162C7.80596 15.1885 7.80596 15.2414 7.75304 15.2414C7.70012 15.2414 7.72658 15.1885 7.70012 15.162C7.54135 14.6857 7.38259 14.2359 7.22382 13.7596C7.06506 13.3098 6.93275 12.8335 6.80045 12.3572C6.66814 11.8544 6.53584 11.3517 6.40354 10.8489C6.35061 10.6108 6.27123 10.3991 6.24477 10.1609C6.16539 9.76402 6.086 9.3671 6.00662 8.94373C5.9537 8.6262 5.90078 8.33513 5.87432 8.0176C5.84786 7.80591 5.8214 7.62069 5.79494 7.409C5.76847 6.85332 5.71555 6.27118 5.74201 5.7155C5.74201 5.42443 5.79494 5.15983 5.8214 4.86876C5.87432 4.60415 5.8214 4.63061 6.13893 4.65707C6.58876 4.70999 7.0386 4.8423 7.46197 5.02752C8.07057 5.26567 8.59979 5.60966 9.10254 6.00657C9.55238 6.37703 9.94929 6.8004 10.3197 7.25023C10.505 7.48838 10.7167 7.75299 10.9019 7.99114C11.0871 8.22929 11.2723 8.49389 11.4311 8.7585C11.5634 8.99665 11.7222 9.26126 11.8809 9.49941C11.9868 9.68463 12.0926 9.89632 12.1985 10.108C12.2249 10.2403 12.172 10.2668 12.0926 10.2932Z" fill="#FE7900"/>
<path d="M41.7817 4.68357C41.8346 4.89526 41.8611 5.08049 41.8611 5.29217C41.8875 5.53032 41.8875 5.76847 41.914 6.00662C41.914 6.35061 41.8875 6.6946 41.8875 7.03859C41.8875 7.27674 41.8611 7.48843 41.8346 7.72658C41.7817 8.17641 41.7287 8.65271 41.6494 9.10254C41.57 9.52592 41.4906 9.97575 41.4112 10.3991C41.3054 10.849 41.1995 11.2723 41.0672 11.7222C40.9085 12.3572 40.6968 12.9923 40.5116 13.6274C40.4322 13.892 40.3528 14.1566 40.2734 14.3947C40.194 14.6858 40.0617 14.9504 39.9823 15.215C39.9559 15.2944 39.903 15.2944 39.8765 15.2415C39.6648 14.9239 39.4531 14.6064 39.215 14.2889C39.0827 14.1036 38.9504 13.9184 38.8181 13.7597C38.6328 13.5215 38.4476 13.2834 38.2624 13.0717C37.9978 12.7277 37.7067 12.4102 37.4156 12.0926C37.0981 11.7486 36.7806 11.4311 36.4631 11.1136C36.1985 10.849 35.9074 10.6108 35.6163 10.3462C35.484 10.2404 35.484 10.2404 35.5634 10.0816C35.8015 9.55238 36.1455 9.04962 36.4631 8.54686C36.7541 8.07057 37.0981 7.64719 37.4686 7.19736C37.6803 6.93275 37.9449 6.6946 38.183 6.42999C38.4741 6.11246 38.8445 5.84785 39.1885 5.60971C39.4796 5.42448 39.7707 5.21279 40.0882 5.10695C40.4851 4.94818 40.8555 4.78942 41.2789 4.76296C41.4377 4.7365 41.57 4.68357 41.7288 4.68357C41.7023 4.68357 41.7552 4.65711 41.7817 4.68357Z" fill="#FE7900"/>
<path d="M18.602 26.011C17.8346 25.9846 17.0673 25.8522 16.2999 25.6935C15.2944 25.4553 14.2889 25.1378 13.3627 24.688C12.86 24.4498 12.3572 24.1588 11.9338 23.7618C11.7486 23.5766 11.5899 23.3914 11.5899 23.1003C11.5634 22.5446 11.5369 21.989 11.6692 21.4333C11.6692 21.3804 11.6957 21.3539 11.6957 21.301C11.8809 20.7982 11.8545 20.8247 12.4101 20.8776C13.2304 20.957 13.9449 21.3274 14.6593 21.6714C15.8236 22.2536 16.9614 22.9416 18.0463 23.656C18.5491 24 18.9989 24.3969 19.3429 24.8997C19.4752 25.1113 19.5546 25.2966 19.6075 25.5347C19.634 25.7199 19.581 25.7729 19.4223 25.8522C19.1577 26.011 18.893 26.011 18.602 26.011Z" fill="black"/>
<path d="M36.7277 22.4123C36.7277 22.7299 36.7012 23.0209 36.6748 23.312C36.6748 23.3914 36.6219 23.4443 36.5689 23.4972C36.2249 23.8941 35.8016 24.1852 35.3517 24.4498C34.2668 25.0584 33.0761 25.4289 31.8589 25.7199C31.3032 25.8523 30.7475 25.9316 30.1919 25.9846C29.8479 26.011 29.4774 26.011 29.1334 25.9316C29.0805 25.9052 29.0011 25.8787 28.9482 25.8523C28.8424 25.7993 28.7894 25.7199 28.7894 25.5612C28.8688 25.1643 29.0541 24.8467 29.2922 24.5557C29.6891 24.0529 30.2183 23.6825 30.7475 23.3385C31.7001 22.7299 32.6527 22.1213 33.6582 21.6185C34.2933 21.301 34.9284 21.0099 35.6164 20.8511C35.828 20.7982 36.0397 20.7982 36.2779 20.7982C36.3573 20.7982 36.4102 20.8247 36.4366 20.9041C36.6483 21.2745 36.6748 21.6714 36.7012 22.0948C36.7277 22.2271 36.7277 22.3065 36.7277 22.4123Z" fill="black"/>
<path d="M41.7817 4.68355C41.5435 4.73648 41.2789 4.76294 41.0408 4.81586C40.7762 4.86878 40.4851 4.94816 40.2469 5.08047C40.1411 5.13339 40.0088 5.18631 39.903 5.21277C39.7442 5.26569 39.6383 5.34507 39.506 5.42446C39.2414 5.58322 39.0033 5.74199 38.7651 5.92721C38.4741 6.1389 38.2359 6.37705 37.9713 6.64166C37.7332 6.85334 37.5479 7.11795 37.3363 7.3561C37.1775 7.54133 37.0452 7.75301 36.8864 7.93824C36.7806 8.07054 36.6747 8.22931 36.5689 8.38807C36.3572 8.65268 36.2249 8.97021 36.0397 9.23482C35.8809 9.49943 35.7221 9.7905 35.5898 10.0551C35.5369 10.161 35.5105 10.2403 35.6163 10.3197C35.5369 10.3197 35.5105 10.2668 35.484 10.2139C35.3252 10.0551 35.14 9.9228 34.9812 9.7905C34.6902 9.57881 34.452 9.36713 34.1345 9.1819C34.0022 9.10252 33.8963 9.02313 33.7905 8.94375C33.7111 8.89083 33.6317 8.83791 33.5259 8.78499C33.473 8.75853 33.473 8.7056 33.4994 8.67914C33.6053 8.54684 33.7111 8.441 33.817 8.33515C33.9228 8.22931 34.0286 8.097 34.1345 8.01762C34.2668 7.91178 34.3462 7.77947 34.5049 7.67363C34.6372 7.59425 34.7166 7.46194 34.8225 7.3561C34.9812 7.19733 35.1665 7.03857 35.3252 6.8798C35.5634 6.66812 35.7751 6.42997 36.0397 6.24474C36.2249 6.08598 36.3837 5.92721 36.5953 5.79491C36.7277 5.71553 36.8335 5.58322 36.9658 5.50384C37.2833 5.26569 37.6009 5.00108 37.9448 4.76294C38.2624 4.55125 38.5799 4.3131 38.9239 4.12788C39.1885 3.96911 39.4796 3.81034 39.7442 3.67804C39.9823 3.54574 40.2469 3.43989 40.4851 3.33405C40.6968 3.22821 40.9349 3.17528 41.1466 3.0959C41.226 3.06944 41.2525 3.14882 41.2789 3.17528C41.3848 3.41343 41.4906 3.62512 41.57 3.86327C41.6494 4.10141 41.6758 4.33956 41.7552 4.57771C41.7817 4.57771 41.7817 4.63063 41.7817 4.68355Z" fill="#FE8E00"/>
<path d="M12.0926 10.2932C12.172 10.2138 12.172 10.1345 12.0662 9.97569C11.9868 9.84339 11.9074 9.73755 11.8809 9.57878C11.8809 9.52586 11.828 9.52586 11.8015 9.4994C11.6428 9.23479 11.484 8.97018 11.3253 8.70557C11.2194 8.52035 11.0871 8.36158 10.9813 8.20282C10.8225 7.96467 10.6637 7.75298 10.505 7.54129C10.2668 7.25022 10.0287 6.95916 9.76406 6.69455C9.57884 6.53578 9.44653 6.35056 9.23485 6.19179C9.02316 6.03302 8.83793 5.8478 8.62624 5.71549C8.44102 5.58319 8.22933 5.47735 8.04411 5.31858C7.96472 5.26566 7.83242 5.21274 7.75304 5.18628C7.38258 5.02751 7.01213 4.86875 6.61522 4.78936C6.42999 4.73644 6.21831 4.70998 6.03308 4.68352C5.92724 4.68352 5.90078 4.70998 5.90078 4.81583C5.90078 4.84229 5.90078 4.86875 5.87432 4.89521C5.84785 4.7629 5.90078 4.65706 5.92724 4.52476C6.00662 4.1543 6.086 3.81031 6.24477 3.46632C6.29769 3.33402 6.37707 3.22817 6.42999 3.06941C6.45645 2.99003 6.50938 2.96356 6.58876 2.99003C6.93275 3.12233 7.25028 3.25463 7.56781 3.38694C7.7795 3.49278 8.01765 3.59863 8.22933 3.73093C8.41456 3.83677 8.62624 3.94262 8.81147 4.04846C9.10254 4.23369 9.39361 4.41891 9.65822 4.60414C9.86991 4.73644 10.0816 4.89521 10.2668 5.05397C10.5579 5.29212 10.849 5.53027 11.1665 5.76842C11.4046 5.95364 11.6163 6.16533 11.8545 6.35056C11.9868 6.4564 12.1455 6.5887 12.2514 6.72101C12.4101 6.87977 12.5954 7.01208 12.7541 7.17084C12.9129 7.32961 13.0717 7.48837 13.2304 7.64714C13.548 7.93821 13.839 8.25574 14.1566 8.54681C14.2359 8.59973 14.2359 8.65265 14.1566 8.70557C13.9713 8.83788 13.7861 8.94372 13.6009 9.07602C13.4421 9.18187 13.2834 9.28771 13.1511 9.42001C12.9658 9.57878 12.7541 9.73755 12.5425 9.89631C12.4366 9.97569 12.3308 10.108 12.1985 10.1874C12.172 10.2668 12.1455 10.2932 12.0926 10.2932Z" fill="#FE8E00"/>
<path d="M17.279 17.5435C17.1996 17.3847 17.0408 17.1995 16.9615 17.0937C16.8291 16.9349 16.6175 16.6968 16.4058 16.538C16.1941 16.3792 16.0089 16.2205 15.7707 16.1146C15.1621 15.85 14.5535 15.8765 13.9714 16.1411C13.4951 16.3528 13.0717 16.6703 12.7806 17.1201C12.7542 17.1466 12.7542 17.173 12.7277 17.1995C12.3044 17.8346 12.3044 18.6284 12.7542 19.237C12.8865 19.4222 13.0453 19.581 13.3099 19.6074C13.5745 19.6339 13.8655 19.6604 14.1301 19.6868C14.6594 19.7133 15.215 19.6868 15.7443 19.6339C16.1147 19.581 16.4852 19.5281 16.8556 19.3958C17.0673 19.3164 17.2261 19.237 17.3319 19.0253C17.5701 18.5225 17.5171 18.0463 17.279 17.5435Z" fill="#F8FBF4"/>
<path d="M30.4564 19.0518C30.5623 19.2635 30.7475 19.3429 30.9327 19.4222C31.2767 19.5545 31.6736 19.6075 32.0441 19.6604C32.5733 19.7133 33.129 19.7398 33.6582 19.7133C33.9228 19.7133 34.2139 19.6604 34.4785 19.6339C34.7431 19.6075 34.9019 19.4487 35.0342 19.2635C35.484 18.6549 35.484 17.861 35.0606 17.226C35.0342 17.1995 35.0342 17.1731 35.0077 17.1466C34.7166 16.6968 34.3197 16.3792 33.817 16.1676C33.2348 15.9029 32.6262 15.85 32.0176 16.1411C31.7795 16.2469 31.5678 16.4057 31.3826 16.5645C31.1709 16.7232 30.9592 16.9614 30.8269 17.1201C30.7475 17.226 30.5888 17.4377 30.5094 17.57C30.2712 18.0463 30.2183 18.5226 30.4564 19.0518Z" fill="#F8FBF4"/>
<path d="M28.3131 39.4002C28.2073 39.2414 28.1279 39.1091 28.0485 38.9503C28.022 38.8974 28.022 38.8445 28.022 38.7916C28.022 38.183 28.022 37.5744 28.022 36.9658C28.022 36.8599 28.022 36.8335 27.8897 36.8599C26.4608 37.0981 25.032 37.2039 23.5766 37.1245C22.8622 37.0981 22.1477 37.0187 21.4333 36.8864C21.3274 36.8599 21.301 36.8864 21.301 36.9922C21.3274 37.6008 21.3274 38.2359 21.3539 38.8445C21.3539 39.0826 21.2216 39.215 21.1158 39.3737C21.0893 39.4266 21.0628 39.3473 21.0364 39.3208C20.8511 39.0562 20.7188 38.7651 20.613 38.4476C20.5336 38.2094 20.4542 37.9448 20.4013 37.7067C20.3748 37.6273 20.3748 37.6273 20.2955 37.6273C20.269 37.6273 20.2161 37.6273 20.1896 37.6273C19.925 37.6538 19.925 37.6538 19.8721 37.3892C19.8192 37.1775 19.7927 36.9658 19.7927 36.7541C19.7927 36.6747 19.7662 36.6218 19.7133 36.5689C19.6075 36.463 19.5016 36.3572 19.3693 36.2513C19.29 36.1984 19.3164 36.119 19.3164 36.0661C19.3429 36.0132 19.3958 36.0396 19.4487 36.0396C19.9779 36.0396 20.5072 36.0396 21.0099 36.0396C21.0893 36.0396 21.1422 36.0661 21.1422 36.172C21.1422 36.2513 21.1687 36.2513 21.2481 36.2513C21.989 36.2778 22.7563 36.2778 23.4972 36.3043C23.5766 36.3043 23.6295 36.2778 23.656 36.2249C23.7618 36.0661 23.8677 35.9073 23.9471 35.7486C24.0264 35.6163 24.0794 35.5634 24.2381 35.5898C24.3175 35.6163 24.344 35.5634 24.344 35.484C24.344 35.0341 24.344 34.6108 24.344 34.1609C24.344 34.0551 24.3175 34.0286 24.2381 34.0022C23.5766 33.7376 22.968 33.42 22.4388 32.9437C22.0419 32.5997 21.7244 32.2028 21.592 31.7001C21.5656 31.5678 21.5391 31.4619 21.5391 31.3296C21.5391 30.9592 21.5391 30.5887 21.5391 30.2447C21.5391 29.6097 22.0154 29.1334 22.624 29.1334C23.8412 29.1334 25.0849 29.1334 26.3021 29.1334C26.7784 29.1334 27.4664 29.6626 27.4664 30.3241C27.4664 30.6681 27.4664 31.0121 27.4399 31.3561C27.4134 32.1499 27.0694 32.785 26.4873 33.2877C26.1169 33.6052 25.6935 33.8434 25.2172 34.0022C25.1378 34.0286 25.1113 34.0551 25.1113 34.1345C25.1113 34.5843 25.1113 35.0341 25.1113 35.484C25.1113 35.5634 25.1378 35.5898 25.2172 35.5898C25.376 35.5634 25.4553 35.6163 25.5347 35.7486C25.6141 35.9073 25.7199 36.0396 25.8258 36.1984C25.8522 36.2513 25.9052 36.2778 25.9581 36.2778C26.5931 36.2778 27.2282 36.2778 27.8633 36.3043C27.9691 36.3043 27.9956 36.2249 28.0485 36.172C28.1014 36.0926 28.1543 36.0661 28.2337 36.0661C28.71 36.0661 29.1863 36.0661 29.6626 36.0661C29.7949 36.0661 29.7949 36.0926 29.7685 36.1984C29.6361 36.6482 29.5303 37.0981 29.4245 37.5744C29.398 37.6538 29.3715 37.7067 29.2657 37.7067C28.9217 37.7067 28.9217 37.7067 28.7894 38.0242C28.6836 38.4476 28.4983 38.9239 28.3131 39.4002Z" fill="black"/>
<path d="M24.4234 37.5744C25.032 37.5744 25.6141 37.5744 26.2227 37.5744C26.3286 37.5744 26.355 37.6009 26.355 37.7067C26.355 38.0243 26.355 38.0243 26.0904 38.183C25.8523 38.3418 25.8523 38.3418 25.6141 38.1566C25.376 37.9714 25.376 37.9714 25.1643 38.183C25.032 38.3153 24.9261 38.4741 24.7938 38.6064C24.6351 38.7652 24.3705 38.7652 24.2382 38.5535C24.1323 38.3947 24.0265 38.2095 23.9206 38.0507C23.8677 37.9714 23.8148 37.9449 23.7354 37.9449C23.4443 37.9449 23.4443 37.9449 23.3385 38.183C23.2856 38.2889 23.2591 38.3153 23.1533 38.2624C22.968 38.2095 22.7828 38.1301 22.5976 38.0243C22.5182 37.9978 22.4917 37.9449 22.4917 37.8655C22.4917 37.548 22.4917 37.548 22.8093 37.548C23.3385 37.5744 23.8942 37.5744 24.4234 37.5744Z" fill="black"/>
</svg>
