<svg width="48" height="48" viewBox="0 0 48 48" fill="none" xmlns="http://www.w3.org/2000/svg">
<path d="M2 4.03271L2.03271 43.9435L36.742 43.9108V39.6907L6.80892 39.7234L6.77621 8.25279L36.6766 8.22007V4L2 4.03271Z" fill="black"/>
<path d="M36.4475 36.3212C43.5137 36.3212 46 32.2974 46 28.8298C46 25.035 43.8081 22.6796 39.5226 21.8945L35.0409 21.0766C33.6342 20.8476 31.9985 20.2915 31.9985 18.5577C31.9985 16.4967 34.0594 15.7443 36.0223 15.7443C38.6066 15.7443 39.9806 16.5948 40.4386 18.4595H45.2148C44.626 14.2067 41.2565 11.5896 36.0877 11.5896C29.9048 11.5896 27.1568 15.1554 27.1568 18.7212C27.1568 22.287 29.2832 24.4789 33.2416 25.1986L37.8215 26.0164C39.4572 26.3108 41.1256 26.8997 41.1256 29.0588C41.1256 30.9562 39.4245 32.1339 36.6438 32.1666C33.5033 32.1666 31.6386 30.9889 31.2461 28.7316H26.5026C27.026 33.4751 30.6245 36.3212 36.4475 36.3212Z" fill="black"/>
</svg>
