<svg width="48" height="48" viewBox="0 0 48 48" fill="none" xmlns="http://www.w3.org/2000/svg">
<path d="M46 8.0396L45.1303 12.6337C45.1303 12.6337 42.956 12.0396 41.8491 14.1782L39.398 22.8119L40.4259 22.099H45.3279L44.221 25.901H38.6864L35.9342 35.2966C35.5644 36.541 34.8033 37.6325 33.7643 38.4087C32.7253 39.1848 31.4639 39.604 30.1679 39.604C28.8287 39.604 27.5278 39.1564 26.4712 38.3322C25.4146 37.5079 24.6626 36.3541 24.3344 35.0535L18.2986 13.238C18.2502 13.0534 18.142 12.8901 17.9911 12.7736C17.8402 12.657 17.655 12.5939 17.4644 12.5941C17.2711 12.5945 17.0835 12.6599 16.9317 12.7798C16.7799 12.8997 16.6726 13.0672 16.6271 13.2554L11.4879 33.7022C11.0358 35.5018 9.99687 37.0987 8.5359 38.2396C7.07494 39.3804 5.27557 40 3.42318 40H2L2.94879 35.4059C2.94879 35.4059 5.32075 35.8812 6.11141 33.4257L8.56244 24.8713L7.45553 25.8218H2.63252L3.66038 22.099H9.03684L12.1251 12.3311C12.4403 11.0925 13.1584 9.99432 14.1659 9.21003C15.1735 8.42574 16.413 7.99999 17.689 8C18.9674 8.00008 20.2091 8.42756 21.2176 9.21468C22.226 10.0018 22.9434 11.1036 23.256 12.3453L29.2373 34.3572C29.2939 34.5886 29.4263 34.7942 29.6134 34.9413C29.8005 35.0883 30.0313 35.1683 30.2691 35.1683C30.5051 35.1677 30.7342 35.0884 30.9203 34.943C31.1064 34.7976 31.2389 34.5943 31.297 34.3651L36.796 13.44C37.1803 11.9248 38.0522 10.5786 39.2769 9.60962C40.5015 8.64062 42.0107 8.10277 43.5711 8.07921L46 8.0396Z" fill="black"/>
</svg>
