<svg width="48" height="48" viewBox="0 0 48 48" fill="none" xmlns="http://www.w3.org/2000/svg">
<path d="M24 48C37.2548 48 48 37.2548 48 24C48 10.7452 37.2548 0 24 0C10.7452 0 0 10.7452 0 24C0 37.2548 10.7452 48 24 48Z" fill="#5B6DEE"/>
<path d="M19.95 22.53C19.1132 22.5257 18.2777 22.598 17.454 22.746C18.132 16.476 23.358 11.727 29.58 11.727C33.39 11.727 36 13.593 36 17.454C36 21.3165 32.8665 23.1825 28.296 23.1825C24.921 23.1825 23.325 22.5315 19.95 22.5315V22.53ZM19.704 24.8175C15.1335 24.8175 12 26.685 12 30.546C12 34.407 14.61 36.273 18.42 36.273C24.642 36.273 29.868 31.5255 30.546 25.254C29.7223 25.402 28.8868 25.4743 28.05 25.47C24.675 25.47 23.0775 24.8175 19.704 24.8175Z" fill="white"/>
</svg>
