<svg width="48" height="48" viewBox="0 0 48 48" fill="none" xmlns="http://www.w3.org/2000/svg">
<path d="M24 48C37.2548 48 48 37.2548 48 24C48 10.7452 37.2548 0 24 0C10.7452 0 0 10.7452 0 24C0 37.2548 10.7452 48 24 48Z" fill="url(#paint0_linear)"/>
<path d="M16.2499 18.1284C16.0619 17.8859 15.7765 17.7511 15.4718 17.7511H9.18807C9.13616 17.7511 9.0908 17.7309 9.05187 17.6972C9.01945 17.6636 9 17.6231 9 17.5759V13.1765C9 13.1293 9.01945 13.0889 9.05187 13.0552C9.0908 13.0148 9.13616 12.9946 9.18807 13.0013H15.8284C17.5015 13.0013 18.9476 13.7155 20.1667 15.137L21.7814 17.1852L18.6363 21.167L16.2499 18.1284ZM27.8576 15.1168C29.0702 13.7087 30.5228 13.0013 32.2153 13.0013H38.8364C38.8816 12.9946 38.9272 13.0148 38.9595 13.0417C38.9919 13.0754 39.0047 13.1226 38.9985 13.1765V17.5759C38.9985 17.6231 38.9852 17.6636 38.9595 17.6972C38.9272 17.7377 38.8816 17.7579 38.8364 17.7511H32.5525C32.2542 17.7444 31.9689 17.8859 31.7744 18.1284L27.1443 23.9832L31.7938 29.8783C31.9819 30.1007 32.2607 30.2354 32.546 30.2287H38.8297C38.8753 30.222 38.9272 30.2489 38.9529 30.2826C38.979 30.323 38.9985 30.3769 38.9919 30.4241V34.8236C38.9919 34.8707 38.979 34.9111 38.9529 34.9448C38.9205 34.9853 38.8753 35.0055 38.8297 34.9987H32.2153C30.5228 34.9987 29.0832 34.2846 27.877 32.863L24.0251 27.9784L20.1732 32.863C18.9605 34.2846 17.508 34.9987 15.8154 34.9987H9.18807C9.14267 35.0055 9.0908 34.9785 9.06485 34.9448C9.03242 34.9044 9.01945 34.8505 9.02592 34.8034V30.4039C9.02592 30.3567 9.03889 30.3163 9.06485 30.2826C9.09727 30.2422 9.14267 30.222 9.18807 30.2287H15.4718C15.77 30.2287 16.0554 30.0872 16.2499 29.8514L20.7957 24.0842L27.8576 15.1168Z" fill="#00D1FF"/>
<defs>
<linearGradient id="paint0_linear" x1="24.0033" y1="-0.00013892" x2="24.0033" y2="12.7011" gradientUnits="userSpaceOnUse">
<stop stop-color="#090220"/>
<stop offset="1" stop-color="#170659"/>
</linearGradient>
</defs>
</svg>
