<svg width="48" height="48" viewBox="0 0 48 48" fill="none" xmlns="http://www.w3.org/2000/svg">
<path d="M24.4514 38.2505C17.7713 38.2505 12.3466 32.8258 12.3466 26.1457C12.3466 19.6516 23.3044 8.18223 23.7694 7.70176L24.3429 7.09729L24.9319 7.68626C25.4123 8.16673 36.5562 19.6361 36.5562 26.1302C36.5562 32.8258 31.1315 38.2505 24.4514 38.2505ZM24.3584 9.43766C23.3974 10.4761 21.3826 12.7235 19.3832 15.3583C15.8339 20.039 13.9585 23.7588 13.9585 26.1302C13.9585 31.9113 18.6702 36.6231 24.4514 36.6231C30.2325 36.6231 34.9443 31.9113 34.9443 26.1302C34.9443 23.7588 33.0379 20.039 29.4266 15.3583C27.3962 12.739 25.3348 10.4761 24.3584 9.43766Z" fill="url(#paint0_linear)"/>
<path d="M24.4514 42.1252C15.6324 42.1252 8.4718 34.9492 8.4718 26.1457C8.4718 17.5282 20.4991 5.5009 21.0106 5.00492C21.3205 4.69494 21.8475 4.69494 22.1575 5.00492C22.4675 5.31491 22.4675 5.84188 22.1575 6.15186C22.0335 6.27585 10.0992 18.2101 10.0992 26.1457C10.0992 34.0657 16.5468 40.5133 24.4669 40.5133C32.3869 40.5133 38.8345 34.0657 38.8345 26.1457C38.8345 22.8909 36.7266 18.3961 32.7279 13.1109C29.659 9.06568 26.5747 5.99687 26.5437 5.96587C26.2182 5.65589 26.2182 5.14442 26.5437 4.81894C26.8537 4.49346 27.3652 4.49346 27.6907 4.81894C28.2176 5.33041 40.4619 17.5127 40.4619 26.1457C40.4309 34.9492 33.2703 42.1252 24.4514 42.1252Z" fill="url(#paint1_linear)"/>
<path d="M24.4514 46C13.726 46 5 37.274 5 26.5486C5 22.1159 7.23187 16.6602 11.6181 10.3521C14.8574 5.70238 18.0347 2.38558 18.1742 2.24608C18.4842 1.9206 18.9957 1.9206 19.3212 2.23058C19.6466 2.54057 19.6466 3.05204 19.3367 3.37752C19.3057 3.40851 16.0973 6.75632 12.9355 11.2975C8.79728 17.2337 6.6119 22.5034 6.6119 26.5486C6.6119 36.3751 14.6094 44.3881 24.4514 44.3881C34.2933 44.3881 42.2908 36.3906 42.2908 26.5486C42.2908 22.5034 40.0899 17.2337 35.9207 11.2975C32.7279 6.75632 29.4886 3.40851 29.4576 3.37752C29.1476 3.05204 29.1476 2.54057 29.4731 2.23058C29.7985 1.9206 30.31 1.9206 30.62 2.24608C31.1625 2.80405 43.9027 16.0403 43.9027 26.5486C43.9027 37.274 35.1767 46 24.4514 46Z" fill="url(#paint2_linear)"/>
<defs>
<linearGradient id="paint0_linear" x1="24.4514" y1="38.2486" x2="24.4514" y2="7.09539" gradientUnits="userSpaceOnUse">
<stop stop-color="#05AAC5"/>
<stop offset="1" stop-color="#71E0EC"/>
</linearGradient>
<linearGradient id="paint1_linear" x1="24.4669" y1="42.1233" x2="24.4669" y2="4.57293" gradientUnits="userSpaceOnUse">
<stop stop-color="#05AAC5"/>
<stop offset="1" stop-color="#71E0EC"/>
</linearGradient>
<linearGradient id="paint2_linear" x1="24.4514" y1="45.9981" x2="24.4514" y2="1.9981" gradientUnits="userSpaceOnUse">
<stop stop-color="#05AAC5"/>
<stop offset="1" stop-color="#71E0EC"/>
</linearGradient>
</defs>
</svg>
