<svg width="48" height="48" viewBox="0 0 48 48" fill="none" xmlns="http://www.w3.org/2000/svg">
<path d="M24 47.4001C36.9235 47.4001 47.4 36.9236 47.4 24.0001C47.4 11.0766 36.9235 0.600098 24 0.600098C11.0765 0.600098 0.600006 11.0766 0.600006 24.0001C0.600006 36.9236 11.0765 47.4001 24 47.4001Z" fill="white"/>
<path fill-rule="evenodd" clip-rule="evenodd" d="M21.6 9.6001H9.60001V15.6001H21.6V9.6001ZM38.4 9.6001H26.4V15.6001H38.4V9.6001ZM26.4 32.4001H32.4V26.4001H38.4V32.4001V38.4001H32.4H26.4V32.4001ZM21.6 32.4001H15.6V26.4001H9.60001V32.4001V38.4001H15.6H21.6V32.4001Z" fill="#62A7A5"/>
</svg>
