<svg width="48" height="48" viewBox="0 0 48 48" fill="none" xmlns="http://www.w3.org/2000/svg">
<g clip-path="url(#clip0)">
<path d="M24.0041 0C10.747 0 0 10.747 0 24.0041C0 37.2611 10.747 48.0081 24.0041 48.0081C37.2611 48.0081 48.0081 37.2611 48.0081 24.0041C48.0081 10.747 37.2611 0 24.0041 0ZM18.001 32.2978L17.7736 32.5253C17.3024 32.9964 16.7988 33.4432 16.2789 33.8575L15.6778 34.3286C15.6372 34.3611 15.5884 34.3774 15.5397 34.3774C15.4991 34.3774 15.4585 34.3693 15.426 34.3449C15.3447 34.2962 15.3041 34.2068 15.3285 34.1093L15.5641 33.0452C15.824 31.8917 15.7671 30.6813 15.4016 29.5522L15.2716 29.1623C15.1254 28.7074 14.9467 28.2606 14.7599 27.822L11.9898 21.2828L11.6893 20.3892C11.5999 20.113 11.5349 19.8287 11.5025 19.5363L11.4537 19.0895C11.3156 17.8304 11.7461 16.5957 12.6397 15.7021L12.8672 15.4747C13.3383 15.0036 13.8419 14.5568 14.3618 14.1425L14.9629 13.6713C15.036 13.6145 15.1335 13.6064 15.2148 13.6551C15.296 13.7038 15.3366 13.7932 15.3122 13.8907L15.0767 14.9548C14.8167 16.1083 14.8736 17.3187 15.2391 18.4478L15.3691 18.8377C15.5153 19.2926 15.694 19.7394 15.8809 20.178L18.659 26.7172L18.9596 27.6108C19.0489 27.8869 19.1139 28.1713 19.1464 28.4637L19.1951 28.9105C19.3251 30.1614 18.8946 31.4043 18.001 32.2978ZM27.3752 34.4424L27.0828 34.7348C26.4898 35.3278 25.8561 35.8964 25.1982 36.4082L24.4183 37.0256C24.3777 37.058 24.3209 37.0743 24.2721 37.0743C24.2315 37.0743 24.1828 37.058 24.1422 37.0337C24.0528 36.9768 24.0122 36.8793 24.0366 36.7819L24.3452 35.409C24.6702 33.9469 24.5971 32.4197 24.134 30.9981L23.9716 30.5026C23.7847 29.9259 23.5654 29.3573 23.3217 28.8049L19.8206 20.5598L19.4469 19.4388C19.3332 19.0976 19.252 18.7321 19.2114 18.3747L19.1464 17.8061C18.9677 16.2302 19.5119 14.6867 20.6248 13.5576L20.9172 13.2652C21.5102 12.6722 22.1438 12.1036 22.8018 11.5918L23.5817 10.9744C23.6629 10.9095 23.7685 10.9013 23.8578 10.9582C23.9472 11.0151 23.9878 11.1125 23.9634 11.21L23.6548 12.5828C23.3298 14.045 23.4029 15.5722 23.866 16.9937L24.0284 17.4893C24.2153 18.0579 24.4346 18.6346 24.6783 19.187L28.1794 27.4402L28.5531 28.5612C28.6668 28.9023 28.748 29.2679 28.7886 29.6253L28.8536 30.1939C29.0323 31.7698 28.4881 33.3214 27.3752 34.4424ZM35.3684 32.2978L35.141 32.5253C34.6698 32.9964 34.1662 33.4432 33.6463 33.8575L33.0452 34.3286C33.0046 34.3611 32.9558 34.3774 32.9071 34.3774C32.8665 34.3774 32.8259 34.3693 32.7934 34.3449C32.7121 34.2962 32.6715 34.2068 32.6959 34.1093L32.9315 33.0452C33.1914 31.8917 33.1345 30.6813 32.769 29.5522L32.639 29.1623C32.4928 28.7074 32.3141 28.2606 32.1273 27.822L29.3491 21.2828L29.0486 20.3892C28.9592 20.113 28.8942 19.8287 28.8617 19.5363L28.813 19.0895C28.6749 17.8304 29.1054 16.5957 29.999 15.7021L30.2264 15.4747C30.6976 15.0036 31.2012 14.5568 31.7211 14.1425L32.3222 13.6713C32.3953 13.6145 32.4928 13.6064 32.574 13.6551C32.6553 13.7038 32.6959 13.7932 32.6715 13.8907L32.4359 14.9548C32.176 16.1083 32.2329 17.3187 32.5984 18.4478L32.7284 18.8377C32.8746 19.2926 33.0533 19.7394 33.2401 20.178L36.0183 26.7172L36.3188 27.6108C36.4082 27.8869 36.4732 28.1713 36.5057 28.4637L36.5544 28.9105C36.6925 30.1614 36.262 31.4043 35.3684 32.2978Z" fill="#171FC9"/>
</g>
<defs>
<clipPath id="clip0">
<rect width="48" height="48" fill="white"/>
</clipPath>
</defs>
</svg>
