<svg width="48" height="48" viewBox="0 0 48 48" fill="none" xmlns="http://www.w3.org/2000/svg">
<path fill-rule="evenodd" clip-rule="evenodd" d="M48 24C48 37.2548 37.2548 48 24 48C10.7452 48 0 37.2548 0 24C0 10.7452 10.7452 0 24 0C37.2548 0 48 10.7452 48 24ZM25.5796 20.8298L16.987 10.8H9.12L18.6184 21.8864C19.6618 23.1048 19.6618 24.8957 18.6184 26.1136L9.12 37.2H16.987L25.5796 27.1702C27.1448 25.3433 27.1448 22.6566 25.5796 20.8298ZM39.1083 37.2L31.977 31.3947C31.174 30.7407 30.1064 30.5044 29.0996 30.757L24.8541 31.8222L29.2793 37.2H39.1083ZM31.977 16.6053L39.1083 10.8H29.2793L24.8541 16.1778L29.0996 17.243C30.1059 17.4956 31.1734 17.2588 31.977 16.6053Z" fill="#FD2E53"/>
</svg>
