<svg width="48" height="48" viewBox="0 0 48 48" fill="none" xmlns="http://www.w3.org/2000/svg">
<path d="M8.67483 31.922C8.43687 31.922 8.20424 31.9925 8.00638 32.1248C7.80852 32.257 7.65431 32.4449 7.56325 32.6647C7.47218 32.8846 7.44835 33.1265 7.49478 33.3599C7.5412 33.5933 7.65579 33.8077 7.82406 33.9759C7.99233 34.1442 8.20671 34.2588 8.4401 34.3052C8.6735 34.3516 8.91541 34.3278 9.13526 34.2367C9.35511 34.1457 9.54302 33.9915 9.67523 33.7936C9.80744 33.5957 9.878 33.3631 9.878 33.1252C9.878 32.9118 9.8197 32.7177 9.72268 32.5237C9.61512 32.3412 9.46198 32.1898 9.27828 32.0844C9.09459 31.979 8.88664 31.9231 8.67483 31.9222V31.922ZM25.6732 5.74503C25.6732 5.50707 25.6027 5.27445 25.4705 5.07659C25.3382 4.87873 25.1503 4.72451 24.9305 4.63345C24.7106 4.54238 24.4687 4.51856 24.2353 4.56498C24.0019 4.61141 23.7875 4.726 23.6193 4.89426C23.451 5.06253 23.3364 5.27692 23.29 5.51031C23.2436 5.7437 23.2674 5.98562 23.3585 6.20547C23.4495 6.42532 23.6037 6.61323 23.8016 6.74543C23.9995 6.87764 24.2321 6.94821 24.4701 6.94821C24.7886 6.94642 25.0936 6.81908 25.3188 6.59383C25.5441 6.36857 25.6714 6.06358 25.6732 5.74503ZM40.3443 16.1848C40.5822 16.1848 40.8148 16.1143 41.0127 15.9821C41.2106 15.8499 41.3648 15.662 41.4558 15.4421C41.5469 15.2222 41.5707 14.9803 41.5243 14.7469C41.4779 14.5135 41.3633 14.2992 41.195 14.1309C41.0268 13.9626 40.8124 13.848 40.579 13.8016C40.3456 13.7552 40.1037 13.779 39.8838 13.8701C39.664 13.9611 39.4761 14.1154 39.3439 14.3132C39.2117 14.5111 39.1411 14.7437 39.1411 14.9817C39.1419 15.1858 39.1954 15.3864 39.2964 15.5638C39.3998 15.7514 39.5514 15.9079 39.7357 16.0171C39.9199 16.1263 40.1301 16.1842 40.3443 16.1848ZM9.23649 13.8755C8.65437 13.5455 7.9363 13.7398 7.60652 14.3219C7.27674 14.904 7.47078 15.6221 8.05289 15.9519C8.63501 16.2816 9.35309 16.0876 9.68286 15.5055C10.0129 14.9427 9.8186 14.2053 9.23649 13.8755ZM40.8283 32.1547C40.6536 32.0384 40.4402 31.9994 40.2268 31.9801C40.0674 31.9779 39.9092 32.0074 39.7614 32.0669C39.6135 32.1264 39.479 32.2147 39.3655 32.3266C39.2521 32.4386 39.162 32.5719 39.1005 32.7189C39.039 32.866 39.0073 33.0238 39.0073 33.1831C39.0073 33.3425 39.039 33.5003 39.1005 33.6473C39.162 33.7943 39.2521 33.9277 39.3655 34.0396C39.479 34.1516 39.6135 34.2398 39.7614 34.2993C39.9092 34.3588 40.0674 34.3883 40.2268 34.3862C40.6536 34.3862 41.0408 34.1534 41.2746 33.7847C41.6046 33.222 41.4104 32.4845 40.8283 32.1547ZM23.2669 42.1867C23.2086 42.7301 23.5386 43.2539 24.043 43.4479C24.1594 43.4866 24.2954 43.5256 24.4118 43.5256C24.706 43.5251 24.9909 43.4222 25.2175 43.2345C25.4441 43.0468 25.5983 42.7861 25.6536 42.4971C25.6968 42.1846 25.6149 41.8677 25.4256 41.6154C25.2363 41.363 24.9551 41.1956 24.643 41.1496C24.331 41.1035 24.0133 41.1825 23.7592 41.3695C23.5052 41.5564 23.3352 41.8361 23.2862 42.1477C23.2757 42.1582 23.2689 42.1718 23.2669 42.1865" fill="#2683FF"/>
<path d="M42.0121 29.9427C41.8691 29.86 41.7198 29.7886 41.5657 29.7293V18.4939C41.7404 18.4356 41.9151 18.3386 42.0897 18.2612C43.8937 17.252 44.5537 14.9623 43.545 13.1572C42.5363 11.3521 40.2461 10.6932 38.4411 11.7019C38.2857 11.7796 38.15 11.8766 38.0143 11.9736L28.1179 6.24927C28.1372 6.07459 28.1566 5.91927 28.1566 5.74481C28.1564 3.66869 26.469 2 24.412 2C22.355 2 20.628 3.70763 20.628 5.76439C20.628 5.93907 20.6474 6.09439 20.6667 6.26885L10.848 11.9545C10.4574 11.6485 10.01 11.423 9.53164 11.2911C9.05331 11.1592 8.55356 11.1236 8.06135 11.1862C7.56913 11.2488 7.09422 11.4084 6.66412 11.6558C6.23403 11.9032 5.85729 12.2335 5.55572 12.6275C5.25415 13.0215 5.03375 13.4715 4.90728 13.9513C4.78081 14.4311 4.75079 14.9312 4.81894 15.4226C4.8871 15.9141 5.05208 16.3872 5.30433 16.8145C5.55659 17.2417 5.89111 17.6147 6.28851 17.9118C6.42425 18.0088 6.56021 18.1059 6.71531 18.2029C6.8738 18.2999 7.04311 18.378 7.21976 18.4356V29.6516C5.29852 30.4278 4.36683 32.6018 5.14298 34.5221C5.91913 36.4425 8.0925 37.3746 10.0137 36.5985C10.1884 36.5402 10.3437 36.4432 10.4988 36.3657C10.6542 36.2687 10.8093 36.1717 10.9646 36.0553L20.6863 41.6633C20.3563 43.7007 21.7535 45.6217 23.7911 45.9517C25.8288 46.2817 27.7498 44.8845 28.0796 42.8469C28.1183 42.6335 28.1183 42.4394 28.1183 42.2258C28.1157 42.0441 28.1028 41.8627 28.0796 41.6824L37.7432 36.1134C37.8985 36.2298 38.0536 36.3461 38.2283 36.4434C40.0323 37.4525 42.3227 36.8121 43.3323 35.0075C44.3018 33.2026 43.7197 30.9905 42.0121 29.9427ZM42.6912 34.6385C41.8957 35.9968 40.1298 36.4625 38.7715 35.667C37.6849 35.0266 37.1415 33.7653 37.4326 32.543L32.8918 29.8846C32.1911 30.5952 31.2959 31.0829 30.3189 31.2864C29.3418 31.49 28.3264 31.4003 27.4002 31.0286C26.7211 31.242 25.2662 31.3779 25.2662 31.3779V39.3727C26.8575 39.8578 27.7302 41.546 27.2462 43.1371C26.7622 44.7281 25.0729 45.601 23.4816 45.117C23.4622 45.117 23.4429 45.0977 23.4233 45.0977C23.2876 45.059 23.171 45.0007 23.0546 44.9424C21.5604 44.2049 20.9782 42.3809 21.7157 40.9063C22.0844 40.1688 22.7442 39.6257 23.5197 39.3733V31.2233C22.9498 31.0471 22.3922 30.8332 21.8508 30.5829C20.9838 30.7561 20.0893 30.7364 19.2308 30.5251C18.3722 30.3138 17.5708 29.9162 16.8832 29.3603L11.4693 32.4843C11.6015 33.0387 11.5665 33.6198 11.3685 34.1543C11.1706 34.6887 10.8186 35.1525 10.3571 35.4869C9.89556 35.8214 9.34525 36.0115 8.77572 36.0331C8.20619 36.0549 7.64301 35.9072 7.15739 35.6089C6.67177 35.3105 6.28551 34.8749 6.04745 34.357C5.80939 33.8392 5.73022 33.2624 5.81995 32.6995C5.90967 32.1367 6.16427 31.6131 6.55155 31.195C6.93882 30.7768 7.44139 30.4829 7.9957 30.3503C8.92717 30.1176 9.91673 30.389 10.6357 31.0488L15.7003 28.1186C13.9926 25.7125 14.2643 22.4137 16.3603 20.3179L10.5963 17.0191C9.45231 18.1056 7.64678 18.0476 6.56021 16.8833C6.30168 16.6087 6.10001 16.2857 5.96683 15.9328C5.83365 15.5799 5.77158 15.2042 5.7842 14.8273C5.79682 14.4503 5.88387 14.0796 6.04035 13.7364C6.19682 13.3932 6.41963 13.0844 6.69595 12.8277C7.86018 11.7411 9.64547 11.7992 10.732 12.9634C11.392 13.6619 11.6442 14.6321 11.4305 15.5636L17.8147 19.2309C18.6511 18.781 19.5819 18.535 20.5314 18.5129C21.4244 17.7759 23.7124 17.0191 23.7124 17.0191V8.28711C22.2958 7.86032 21.5003 6.36609 21.9271 4.94952C22.3539 3.53295 23.8492 2.75679 25.2658 3.18359C26.6824 3.61039 27.4779 5.10462 27.0511 6.52119C26.9249 6.94348 26.6957 7.32777 26.384 7.63942C26.0724 7.95107 25.6881 8.1803 25.2658 8.30647V16.8644C25.2658 16.8644 29.4572 17.9123 30.7768 19.4839L37.5683 15.6225C37.219 14.0702 38.1698 12.5177 39.7223 12.1685C41.2749 11.8194 42.8272 12.77 43.1763 14.3225C43.5254 15.8751 42.5748 17.4274 41.0223 17.7765C40.5602 17.8806 40.0796 17.8696 39.6228 17.7444C39.166 17.6191 38.747 17.3836 38.4026 17.0584L31.6886 20.8613C31.8827 21.2688 32.0574 21.6753 32.1737 22.1032C34.2501 23.5198 34.9875 26.2363 33.8814 28.5067L38.3253 31.0875C38.7731 30.6702 39.3438 30.4088 39.9522 30.3423C40.5607 30.2759 41.1744 30.408 41.7017 30.7188C43.0406 31.5143 43.5056 33.2609 42.6916 34.6385H42.6912Z" fill="#2683FF"/>
<path d="M30.1753 23.6168C30.1559 23.4615 30.1366 23.3258 30.117 23.1704C30.098 23.0654 30.0721 22.9617 30.0393 22.86C30.0393 22.8213 30.02 22.7824 30.02 22.7436C29.9813 22.6273 29.9423 22.4913 29.9036 22.3749V22.3556C29.6569 21.7046 29.2805 21.1105 28.7974 20.6092C28.6811 20.4928 28.584 20.3958 28.4481 20.2792L28.4287 20.2599C28.3123 20.1628 28.196 20.0658 28.06 19.9882L28.0406 19.9688C27.9243 19.8911 27.7883 19.7941 27.6719 19.7361L27.6526 19.7167C27.5272 19.6443 27.3976 19.5795 27.2645 19.5227L27.2258 19.5033C27.09 19.445 26.9541 19.3869 26.799 19.3286L26.7796 19.3093C26.6243 19.2705 26.4886 19.2122 26.3332 19.1929H26.3139C26.1604 19.1576 26.0048 19.1316 25.8481 19.1152H25.8288C25.0023 18.9978 24.1595 19.0981 23.3837 19.4063L23.2867 19.4839C23.1703 19.5227 22.9763 19.6197 22.8599 19.678C22.7993 19.718 22.7342 19.7505 22.6659 19.775C22.6076 19.7944 22.5105 19.872 22.4525 19.9107C22.3944 19.9494 22.2584 20.0465 22.1808 20.1048L22.1225 20.1435C22.0061 20.2211 21.9091 20.3182 21.7925 20.4152L21.6955 20.5122C21.5791 20.6286 21.4821 20.7256 21.385 20.8422C21.1542 20.8035 20.9206 20.784 20.6865 20.7839C20.6089 20.7839 20.5508 20.7839 20.4925 20.8033C19.6 20.842 18.7462 21.2107 18.0864 21.8124C17.7564 22.1035 17.4849 22.4724 17.2724 22.8602L17.2517 22.8998C17.1919 23.0126 17.14 23.1293 17.0964 23.2492C17.077 23.2879 17.077 23.3075 17.0577 23.3462C17.0165 23.4467 16.9841 23.5506 16.9606 23.6566C16.9413 23.6954 16.9413 23.7537 16.9219 23.7924C16.9026 23.8894 16.8832 23.9864 16.8636 24.1028C16.8636 24.1415 16.8443 24.1805 16.8443 24.2385C16.8281 24.3868 16.8217 24.5359 16.8249 24.6849C16.8217 24.8081 16.8281 24.9314 16.8443 25.0536C16.8443 25.0924 16.8636 25.1313 16.8636 25.1894C16.883 25.267 16.883 25.3447 16.9023 25.4221C16.9217 25.4996 16.9217 25.5191 16.9411 25.5774C16.9631 25.6333 16.9762 25.6922 16.9798 25.7521C16.9798 25.8104 17.0185 25.8685 17.0381 25.9268C17.054 25.9735 17.0734 26.0189 17.0964 26.0625C17.1256 26.1258 17.1515 26.1906 17.174 26.2566C17.1934 26.2953 17.2128 26.3149 17.2128 26.3536C17.4855 26.9927 17.9458 27.534 18.5328 27.9059C18.8238 28.0806 19.1149 28.2359 19.4253 28.3327C19.5456 28.3741 19.6689 28.4065 19.794 28.4297L19.8327 28.4491L20.1821 28.5074L20.2597 28.5267C20.3955 28.5461 20.5314 28.5461 20.6865 28.5461C21.2106 28.5461 21.715 28.4491 22.1808 28.2357C22.2971 28.3133 22.3942 28.391 22.5108 28.4684L22.5495 28.4878C22.6465 28.5461 22.7629 28.6042 22.8795 28.6625H22.8984C24.0075 29.2277 25.2875 29.3592 26.4883 29.0312H26.5077C26.6823 28.9935 26.8517 28.9349 27.0122 28.8565L27.5362 28.6238C28.0351 29.013 28.6497 29.2247 29.2825 29.2252C29.4183 29.2252 29.5349 29.2059 29.6706 29.2059L29.7676 29.1865C29.892 29.168 30.0151 29.1421 30.1364 29.1089C30.2559 29.0721 30.3727 29.0267 30.4857 28.9731L30.544 28.9538C30.6604 28.8955 30.7574 28.8374 30.874 28.7791C31.3591 28.4687 31.7278 28.0029 31.9412 27.4789C32.0189 27.3042 32.0576 27.1295 32.0965 26.9551V26.8968C32.1159 26.8191 32.1159 26.7415 32.1353 26.664C32.1353 26.567 32.1546 26.47 32.1546 26.373C32.1546 25.0924 31.3591 23.9862 30.1746 23.6175" fill="#2683FF"/>
</svg>
