<svg width="48" height="48" viewBox="0 0 48 48" fill="none" xmlns="http://www.w3.org/2000/svg">
<g clip-path="url(#clip0)">
<path d="M3.25992 17.5486L24.2613 30.7821C24.2681 30.7868 24.2761 30.7893 24.2843 30.7893C24.2925 30.7893 24.3005 30.7868 24.3072 30.7821L45.732 17.2488C45.7367 17.246 45.7409 17.2421 45.7441 17.2376C45.7473 17.233 45.7496 17.2279 45.7507 17.2224C45.7518 17.217 45.7518 17.2113 45.7506 17.2059C45.7495 17.2004 45.7472 17.1953 45.744 17.1907C45.7412 17.1856 45.7371 17.1815 45.732 17.1787L24.504 3.64998C24.4973 3.64529 24.4893 3.64278 24.4811 3.64278C24.4729 3.64278 24.4649 3.64529 24.4581 3.64998L3.25992 17.4761C3.25517 17.4796 3.25119 17.4841 3.24823 17.4893C3.24528 17.4944 3.2434 17.5001 3.24273 17.506C3.24205 17.5119 3.24259 17.5178 3.24431 17.5235C3.24603 17.5292 3.24889 17.5345 3.25272 17.539C3.25452 17.5426 3.25696 17.5458 3.25992 17.5486ZM24.2616 46.2986C23.9827 46.2988 23.7096 46.2182 23.4756 46.0665L0.984003 31.5825C0.976981 31.5745 0.973112 31.5642 0.973112 31.5535C0.973112 31.5428 0.976981 31.5325 0.984003 31.5245L1.9416 30.0348C1.94965 30.0278 1.95996 30.0239 1.97064 30.0239C1.98132 30.0239 1.99164 30.0278 1.99968 30.0348L24.2515 44.3664C24.2582 44.371 24.2662 44.3736 24.2744 44.3736C24.2826 44.3736 24.2906 44.371 24.2973 44.3664L45.3859 30.816C45.6237 30.6642 45.8193 30.4548 45.9546 30.2073C46.0899 29.9598 46.1605 29.6821 46.1599 29.4V26.064C46.1588 26.0526 46.1535 26.0421 46.145 26.0345C46.1365 26.0268 46.1255 26.0227 46.114 26.023C46.1073 26.0234 46.1007 26.025 46.0946 26.0278L24.7956 39.5925C24.5624 39.7406 24.2918 39.8193 24.0156 39.8193C23.7393 39.8193 23.4688 39.7406 23.2356 39.5925L1.71216 25.8994C1.18799 25.5712 0.75585 25.1151 0.456348 24.5741C0.156846 24.033 -0.000186422 23.4247 4.42954e-06 22.8062V18.1387C-0.000928266 17.7615 0.145465 17.3988 0.408004 17.1279L0.480004 17.0698L0.893523 16.7868L23.7257 1.90686L23.7497 1.89246C23.9792 1.76144 24.2402 1.69558 24.5045 1.70196C24.7687 1.70835 25.0262 1.78675 25.2492 1.9287L47.322 15.9893C47.5291 16.1207 47.6997 16.3024 47.818 16.5174C47.9362 16.7323 47.9982 16.9737 47.9982 17.2191C47.9982 17.4644 47.9362 17.7058 47.818 17.9208C47.6997 18.1358 47.5291 18.3174 47.322 18.4488L25.0605 32.5046C24.8283 32.6492 24.5602 32.7259 24.2867 32.7259C24.0131 32.7259 23.745 32.6492 23.5128 32.5046L1.91784 18.9089C1.90819 18.9033 1.89673 18.9016 1.88588 18.9043C1.87504 18.907 1.86567 18.9138 1.85976 18.9233C1.85588 18.9299 1.8542 18.9375 1.85496 18.9451V22.8038C1.85381 23.1087 1.92995 23.4088 2.07626 23.6762C2.22257 23.9436 2.43428 24.1695 2.6916 24.3329L23.9954 37.8736C24.0021 37.8783 24.0101 37.8808 24.0183 37.8808C24.0265 37.8808 24.0345 37.8783 24.0413 37.8736L45.7706 24.0113C46.038 23.8399 46.3544 23.7612 46.6709 23.7872C46.9875 23.8132 47.2867 23.9426 47.5226 24.1553C47.6756 24.301 47.7963 24.4773 47.8767 24.6727C47.9571 24.8681 47.9955 25.0783 47.9894 25.2895V29.3839C47.9912 29.9779 47.8433 30.5627 47.5592 31.0844C47.2751 31.606 46.8641 32.0476 46.3641 32.3683L25.0361 46.0723C24.8037 46.2171 24.5358 46.2949 24.2621 46.2971L24.2616 46.2986Z" fill="url(#paint0_linear)"/>
</g>
<defs>
<linearGradient id="paint0_linear" x1="4.42954e-06" y1="-0.21905" x2="48" y2="-0.21905" gradientUnits="userSpaceOnUse">
<stop stop-color="#21BBC0"/>
<stop offset="0.34" stop-color="#20B9C0"/>
<stop offset="1" stop-color="#1387C9"/>
</linearGradient>
<clipPath id="clip0">
<rect width="48" height="48" fill="white"/>
</clipPath>
</defs>
</svg>
