<svg width="48" height="48" viewBox="0 0 48 48" fill="none" xmlns="http://www.w3.org/2000/svg">
<path d="M24 48C37.2548 48 48 37.2548 48 24C48 10.7452 37.2548 0 24 0C10.7452 0 0 10.7452 0 24C0 37.2548 10.7452 48 24 48Z" fill="#5546FF"/>
<path d="M33.7922 36.6458L28.6258 28.5357H36.0451V25.4719H11.7146V28.5357H19.1339L13.9675 36.6458H17.8123L23.8799 27.1239L29.9474 36.6458H33.7922ZM36.0451 22.4982V19.4343H28.776L33.8824 11.4143H30.0075L23.8799 21.0864L17.7522 11.4143H13.8773L18.9837 19.4343H11.7146V22.5282L36.0451 22.4982Z" fill="white"/>
</svg>
