<svg width="48" height="48" viewBox="0 0 48 48" fill="none" xmlns="http://www.w3.org/2000/svg">
<circle cx="24" cy="24" r="24" fill="#7112FF"/>
<path d="M25.7228 19.7032C27.8905 20.4 29.3615 21.2516 30.6776 22.1806C32.4583 20.0903 32.5357 17.458 32.3808 15.6774C30.9099 17.458 28.6647 18.8516 25.7228 19.7032Z" fill="white"/>
<path d="M15.1937 38.4387C16.7421 36.3484 18.6776 35.8839 22.2389 35.0322C23.555 34.7226 25.1034 34.3355 26.9615 33.7935C31.297 32.5548 32.3808 30.0774 32.6131 28.7613C33.0002 26.9806 32.3808 25.1226 30.9873 24.0387C28.0453 21.6387 25.1808 20.7097 20.9228 19.7806L19.9937 19.6258L20.9228 19.5484C26.1099 18.929 29.7486 17.2258 31.6841 14.5161C33.155 12.5032 33.2324 10.4903 33.2324 9.56128C32.0712 11.3419 29.826 11.8839 26.1873 12.7355C24.7163 13.1226 23.0131 13.5097 21.0776 14.0516C16.7421 15.2903 15.6582 17.7677 15.426 19.0839C15.0389 20.8645 15.6582 22.7226 17.0518 23.8064C19.9937 26.2064 22.8582 27.1355 27.1163 28.0645L28.0453 28.2968L27.1163 28.3742C24.4841 28.6839 21.9292 29.3032 19.9937 30C17.5163 30.8516 15.9679 31.9355 15.3486 33.1742C14.3421 34.8 14.8841 37.5097 15.1937 38.4387Z" fill="white"/>
</svg>
