<svg width="48" height="48" viewBox="0 0 48 48" fill="none" xmlns="http://www.w3.org/2000/svg">
<path d="M11.079 6.1608L45.2592 29.4989L36.806 41.9948L2.62584 18.473L11.079 6.1608Z" fill="url(#paint0_linear)"/>
<path d="M45.2592 29.4989C42.319 33.7254 32.3957 32.0716 23.0237 25.4561C13.468 19.0243 8.32257 10.3874 11.079 6.1608C14.0193 1.93422 23.9425 3.5881 33.3145 10.2036C42.8703 16.4516 48.0157 25.2723 45.2592 29.4989Z" fill="url(#paint1_linear)"/>
<path d="M36.806 41.8111C33.8658 46.0377 23.9425 44.3838 14.5705 37.7683C5.19853 31.1528 -0.130637 22.6996 2.80959 18.2892C5.74982 14.0627 15.6731 15.7165 25.0451 22.3321C34.4171 28.9476 39.5625 37.5845 36.806 41.8111Z" fill="url(#paint2_linear)"/>
<path d="M45.2592 29.4988L36.806 41.9948C33.8658 46.2214 23.9425 44.3838 14.5705 37.952C12.7329 36.6657 11.079 35.3793 9.42514 33.9092C10.7115 33.7254 12.3654 32.9904 14.0193 31.1527C16.9595 28.0287 18.4296 27.2937 19.7159 27.4774C21.0023 27.4774 22.4724 28.7638 24.8613 31.8878C27.2503 35.0118 30.558 35.9306 32.5794 34.2767C32.7632 34.093 32.947 34.093 33.1307 33.9092C34.7846 32.6228 35.3359 32.0715 38.4599 26.1911C39.195 24.721 41.7677 22.332 45.2592 23.4346C46.178 25.8236 46.178 27.845 45.2592 29.4988Z" fill="#0E0F23"/>
<path fill-rule="evenodd" clip-rule="evenodd" d="M43.9728 28.7638C41.4001 32.4391 32.3957 30.6014 23.7588 24.5372C14.9381 18.473 9.79269 10.7549 12.3654 7.07962C14.9381 3.40433 23.9425 5.24197 32.5795 11.3062C41.2164 17.3704 46.3618 25.0885 43.9728 28.7638ZM35.8872 23.2509C34.6009 25.0885 30.1905 24.1697 25.7802 21.2295C21.5536 18.2892 18.9809 14.4302 20.2673 12.5925C21.5536 10.7549 25.9639 11.6737 30.3743 14.614C34.6009 17.5542 37.1736 21.4132 35.8872 23.2509Z" fill="white"/>
<defs>
<linearGradient id="paint0_linear" x1="17.7757" y1="2.84257" x2="24.5541" y2="26.1185" gradientUnits="userSpaceOnUse">
<stop stop-color="#03B8FF"/>
<stop offset="1" stop-color="#FA52A0"/>
</linearGradient>
<linearGradient id="paint1_linear" x1="23.3578" y1="1.21681" x2="30.1363" y2="24.4929" gradientUnits="userSpaceOnUse">
<stop stop-color="#03B8FF"/>
<stop offset="1" stop-color="#FA52A0"/>
</linearGradient>
<linearGradient id="paint2_linear" x1="12.211" y1="4.46301" x2="18.9895" y2="27.7391" gradientUnits="userSpaceOnUse">
<stop stop-color="#03B8FF"/>
<stop offset="1" stop-color="#FA52A0"/>
</linearGradient>
</defs>
</svg>
