<svg width="48" height="48" viewBox="0 0 48 48" fill="none" xmlns="http://www.w3.org/2000/svg">
<path d="M23.9996 47.9992C37.2542 47.9992 47.9992 37.2542 47.9992 23.9996C47.9992 10.745 37.2542 0 23.9996 0C10.745 0 0 10.745 0 23.9996C0 37.2542 10.745 47.9992 23.9996 47.9992Z" fill="url(#paint0_linear)"/>
<path fill-rule="evenodd" clip-rule="evenodd" d="M23.1306 8.65802C21.7371 8.81862 20.4415 9.45442 19.4619 10.4584C18.7263 11.1866 18.0297 11.9343 17.2844 12.6698C16.9114 13.0526 16.5343 13.4248 16.1573 13.8026C15.7802 14.1805 15.3643 14.5819 14.9727 14.9784C14.581 15.3748 14.2557 15.7228 13.8932 16.0909C13.3268 16.6574 12.7604 17.2238 12.194 17.7958C11.7595 18.2449 11.3347 18.7086 10.905 19.1568C10.6518 19.4247 10.3791 19.6731 10.1404 19.9547C9.15528 21.1565 8.61688 22.6625 8.61673 24.2165C8.61673 24.3079 8.61673 24.4018 8.62239 24.4924C8.64254 25.3847 8.87675 26.2592 9.30532 27.0421C9.5493 27.5152 9.83184 27.9675 10.1501 28.3942C10.3605 28.6903 10.5134 28.6855 10.7901 28.4565C10.843 28.4125 10.8925 28.3646 10.9382 28.3133C11.2109 28.026 11.4779 27.7396 11.7554 27.4531C12.1471 27.0421 12.5484 26.6318 12.9401 26.2159C13.3317 25.8 13.7565 25.342 14.1675 24.9124C14.3634 24.702 14.5721 24.5078 14.7696 24.3007C15.1895 23.8564 15.6006 23.3984 16.0205 22.9591C16.4405 22.5197 16.8661 22.1087 17.2771 21.679C17.6882 21.2493 18.1939 20.7234 18.6567 20.246C19.1196 19.7686 19.512 19.3672 19.9417 18.9279C20.5008 18.3493 21.0454 17.757 21.5988 17.1793C21.9427 16.8257 22.2963 16.4866 22.6402 16.1379C23.1176 15.6605 23.5619 15.1831 24.0304 14.7057C24.4989 14.2283 24.8468 13.9078 25.2481 13.4968C26.1452 12.5905 27.041 11.6789 27.9354 10.7618C27.9931 10.7049 28.0471 10.6444 28.0972 10.5806C28.3173 10.303 28.3359 10.2415 28.064 10.0457C27.6489 9.71866 27.2044 9.43072 26.7362 9.18559C25.9087 8.79859 25.0062 8.59805 24.0927 8.59814H24.0474C23.7422 8.59821 23.4374 8.6174 23.1346 8.65559L23.1298 8.65074L23.1306 8.65802ZM31.0352 14.5374H30.9778C30.5858 14.5375 30.1986 14.6231 29.8431 14.7881C29.4876 14.9531 29.1724 15.1937 28.9193 15.493C28.874 15.5431 28.8262 15.5909 28.7761 15.6362L27.3147 17.0692C26.8373 17.5474 26.3211 18.0677 25.8194 18.5694C25.4043 18.9845 24.9884 19.3907 24.5782 19.8066C24.1679 20.2225 23.7277 20.6853 23.2835 21.1199C22.8393 21.5544 22.3667 22.0099 21.9079 22.4574L20.2791 24.1L17.2512 27.1287C15.9134 28.4719 14.5775 29.8124 13.2435 31.1502C12.9862 31.4034 12.9813 31.4366 13.2435 31.7085C13.8835 32.3558 14.5333 32.9983 15.1539 33.6505C15.5379 34.0575 16.0446 34.3275 16.5966 34.4192C17.1174 34.5239 17.6554 34.5059 18.168 34.3666C18.5521 34.2716 18.9065 34.0828 19.1997 33.8172L20.7856 32.2854C21.1579 31.9278 21.5357 31.5742 21.9031 31.2109C22.6386 30.4826 23.3644 29.7495 24.0999 29.0261C24.6971 28.4387 25.3088 27.8561 25.9149 27.2686L28.4014 24.8452C29.175 24.0854 29.9534 23.3216 30.7367 22.5618C30.7888 22.4842 30.8613 22.4224 30.9462 22.3831C31.0311 22.3438 31.1251 22.3285 31.218 22.339C31.311 22.3494 31.3993 22.3851 31.4733 22.4422C31.5474 22.4993 31.6044 22.5757 31.6381 22.6629C32.0362 23.2444 32.2491 23.9326 32.249 24.6373C32.2488 24.7578 32.2426 24.8782 32.2304 24.9982C32.1661 25.7086 31.8731 26.3789 31.3953 26.9086C30.8216 27.5252 30.2107 28.1077 29.6152 28.7C29.1904 29.12 28.7558 29.5311 28.3302 29.9559C27.7808 30.5004 27.2411 31.0547 26.6917 31.5993C26.6108 31.6899 26.5347 31.7854 26.4489 31.8711L25.9092 32.4303C25.5046 32.8348 25.0928 33.2281 24.6955 33.6335C24.2982 34.0389 23.8418 34.513 23.417 34.9556C23.379 34.9985 23.3361 35.0269 23.2981 35.0649C22.8199 35.5091 22.3805 35.955 21.9266 36.4024C21.7121 36.6128 21.5066 36.8272 21.2962 37.0376C20.9337 37.4058 20.5607 37.7658 20.2119 38.1413C19.9975 38.3654 19.9975 38.5038 20.2508 38.681C20.6666 39.0002 21.1092 39.2828 21.5738 39.5258C22.7293 40.0483 24.0098 40.2304 25.2651 40.0509C26.5112 39.903 27.6801 39.3704 28.6094 38.5273C29.3158 37.9066 29.9469 37.2091 30.6056 36.5408C31.083 36.0626 31.5612 35.552 32.0718 35.06L33.4522 33.6699C33.8729 33.2451 34.288 32.8195 34.7137 32.3995C35.1393 31.9796 35.6685 31.4779 36.1459 31.0045C36.6233 30.5312 37.1015 30.0497 37.5789 29.5432C37.9596 29.1556 38.3111 28.7404 38.6308 28.3011C39.2267 27.4007 39.5987 26.3709 39.7159 25.2975C39.7806 24.7644 39.7806 24.2253 39.7159 23.6922C39.5738 22.7435 39.23 21.8363 38.7077 21.0317C38.332 20.4624 37.8825 19.9454 37.3709 19.4943C36.048 18.181 34.729 16.858 33.4352 15.5156C33.1532 15.2016 32.8082 14.9504 32.4227 14.7784C32.0373 14.6064 31.62 14.5173 31.1979 14.5171H31.1801L31.0368 14.5366L31.0352 14.5374Z" fill="white"/>
<defs>
<linearGradient id="paint0_linear" x1="3.27025" y1="10.07" x2="41.7881" y2="36.4244" gradientUnits="userSpaceOnUse">
<stop stop-color="#FF3B3B"/>
<stop offset="1" stop-color="#FF9914"/>
</linearGradient>
</defs>
</svg>
