<svg width="50" height="48" viewBox="0 0 50 48" fill="none" xmlns="http://www.w3.org/2000/svg">
<path d="M20.9172 28.1584H18.5911C18.2519 28.1584 18.155 28.2788 18.2034 28.5919C18.2761 28.9533 18.3973 29.2664 18.5911 29.5795C19.3907 30.9766 20.3841 32.2773 21.5229 33.4334C22.5406 34.5655 23.7521 35.529 25.0848 36.2757C25.5209 36.5166 26.0055 36.7093 26.4901 36.8056C26.6355 36.8538 26.7809 36.8779 26.9263 36.9501C27.4836 37.1188 27.8712 37.6728 27.847 38.2508V43.9354C27.847 44.0558 27.8228 44.1762 27.8228 44.2726C27.7259 45.1879 27.1201 45.6455 26.1994 45.501C21.7168 44.7543 17.6704 43.0682 14.3024 39.9851C12.3397 38.1304 10.7163 35.9626 9.48057 33.5539C8.85058 32.2773 8.31752 30.9525 7.90561 29.5795C7.54215 28.3993 7.34831 28.2547 6.08835 28.1825C5.33721 28.1343 4.61031 28.1102 3.8834 27.8693C0.927325 26.8818 0.0065794 23.076 2.18729 20.8359C3.18073 19.8243 4.41647 19.463 5.79758 19.5111C6.06412 19.5352 6.33065 19.5352 6.59718 19.4871C7.37254 19.3185 7.736 18.7404 7.92984 18.0418C8.36598 16.4039 8.99596 14.8383 9.81979 13.369C10.3286 12.4296 10.9101 11.5143 11.5644 10.6712C12.3397 9.73182 12.9212 9.65956 13.8662 10.4544C14.0358 10.599 14.1812 10.7435 14.3508 10.888L17.743 14.2602C18.5426 15.0551 18.6153 15.7054 17.9611 16.6448C17.6219 17.1265 17.3311 17.6564 17.0888 18.2105C17.0404 18.3309 16.9919 18.4513 16.9677 18.5958C16.8708 18.9571 17.0646 19.3185 17.4281 19.4389C17.4765 19.463 17.525 19.463 17.5492 19.463C17.9127 19.5352 18.3003 19.5593 18.688 19.5352H24.2125C25.1817 19.4871 26.1509 19.8002 26.9263 20.3542C29.0585 21.9921 29.5431 25.4125 26.9263 27.2913C26.1994 27.7971 25.3755 27.9657 24.5033 28.0139C23.3402 28.1102 22.1287 28.1584 20.9172 28.1584Z" fill="#007EA3"/>
<path d="M29.9551 2C35.2615 2.02409 40.3498 4.07148 44.5659 8.23854C45.9228 9.6115 47.1343 11.129 48.1277 12.791C48.6608 13.5859 48.9515 14.5252 48.9515 15.4887C48.9273 16.5967 48.3942 17.6566 47.4493 18.2828C46.0197 19.3426 44.4689 19.728 42.7728 19.0054C41.9248 18.62 41.2221 17.9697 40.7617 17.1507C39.7925 15.5851 38.5568 14.188 37.0787 13.08C35.1888 11.7071 32.9596 10.8399 30.6335 10.5991C27.6047 10.2378 24.8183 10.9363 22.2014 12.4779C21.9106 12.6465 21.6199 12.8151 21.3291 12.9355C20.9414 13.08 20.5295 13.0319 20.1903 12.791C19.8995 12.5983 19.6572 12.3815 19.4149 12.1406L16.0954 8.81662C15.8773 8.59984 15.6835 8.35897 15.5139 8.09401C15.2473 7.66045 15.2958 7.10645 15.6593 6.72105C15.9258 6.43201 16.2408 6.16705 16.58 5.95027C19.1969 4.11966 22.1287 3.01165 25.2786 2.43357C26.8294 2.16861 28.3801 2.02409 29.9551 2ZM30.6335 41.0691V38.3232C30.6335 37.4802 30.9727 37.0466 31.7966 36.878C34.3407 36.3722 36.6911 35.1196 38.5325 33.3131C39.4775 32.3978 40.2771 31.3621 40.9556 30.2541C41.3917 29.4833 42.0944 28.8811 42.9182 28.568C45.3412 27.6527 48.2489 29.0979 48.9031 31.5548C49.1211 32.3737 49.0242 33.2409 48.6123 33.9876C46.9647 37.167 44.5416 39.8889 41.5613 41.8881C38.9687 43.6705 36.0126 44.8508 32.9111 45.3566C32.6446 45.4048 32.4023 45.4289 32.1358 45.453C31.2635 45.5252 30.7547 45.0917 30.682 44.2245C30.6335 43.5501 30.6577 42.8516 30.6577 42.1771C30.6335 41.8158 30.6335 41.4545 30.6335 41.0691Z" fill="#1AA54A"/>
</svg>
