<svg width="48" height="48" viewBox="0 0 48 48" fill="none" xmlns="http://www.w3.org/2000/svg">
<path d="M44.969 15.5185C42.8656 13.5764 39.9559 10.6106 37.5861 8.50715L37.4458 8.40899C37.2125 8.22163 36.9495 8.07469 36.6676 7.97428C30.9533 6.90856 4.35918 1.93749 3.84034 2.0006C3.69496 2.02096 3.556 2.07367 3.43368 2.15485L3.30047 2.26002C3.13643 2.42661 3.01184 2.62786 2.93587 2.84897L2.90082 2.94012V3.43793V3.51505C5.89467 11.8516 17.7158 39.1609 20.0436 45.5692C20.1838 46.004 20.4503 46.8313 20.9481 46.8734H21.0603C21.3267 46.8734 22.4625 45.3729 22.4625 45.3729C22.4625 45.3729 42.7675 20.749 44.8218 18.1267C45.0877 17.8037 45.3225 17.4563 45.5229 17.0891C45.5741 16.8017 45.55 16.506 45.4529 16.2308C45.3558 15.9556 45.1891 15.7102 44.969 15.5185ZM27.672 18.3862L36.338 11.1995L41.4213 15.8831L27.672 18.3862ZM24.3065 17.9164L9.38634 5.68858L33.5265 10.1408L24.3065 17.9164ZM25.6527 21.1206L40.9235 18.6596L23.4652 39.6937L25.6527 21.1206ZM7.36005 6.90855L23.0585 20.2302L20.7868 39.7077L7.36005 6.90855Z" fill="#FF060A"/>
</svg>
