<svg width="48" height="48" viewBox="0 0 48 48" fill="none" xmlns="http://www.w3.org/2000/svg">
<path d="M24 0C10.7661 0 0 10.7655 0 23.9974C0 37.2293 10.7661 48 24 48C37.2339 48 48 37.2327 48 23.9974C48 10.7621 37.2339 0 24 0Z" fill="#FFE91C"/>
<path d="M24 0C10.7661 0 0 10.7655 0 23.9974C0 37.2293 10.7661 48 24 48C37.2339 48 48 37.2327 48 23.9974C48 10.7621 37.2339 0 24 0ZM24 46.1408C18.1298 46.1344 12.5019 43.7994 8.35102 39.6481C4.20017 35.4968 1.86541 29.8682 1.85902 23.9974C1.85902 11.79 11.7905 1.8644 24 1.8644C36.2095 1.8644 46.141 11.7952 46.141 24.0026C46.1332 29.8725 43.7979 35.4997 39.6472 39.6499C35.4964 43.8001 29.8693 46.1344 24 46.1408Z" fill="#3A3A3A"/>
<path d="M30.4393 9.84277L25.4779 13.0179H12.4234L9.63138 22.1881H19.2886L17.8642 26.9362L11.8094 35.7322L16.1845 32.419L16.0328 32.9968L14.0392 38.9453H24.7312L28.5751 23.0246L29.6736 22.1916H36.7734L39.5947 13.0214H28.4199L30.4393 9.84277ZM23.4068 37.155H16.4156L17.7952 32.8675L26.2626 26.2722L23.4068 37.155ZM11.4266 20.7842L13.3236 14.6409L21.5132 14.665L13.8771 19.5407L16.8743 20.8187L11.4266 20.7842ZM22.5014 22.0019L17.4555 19.3648L27.0972 13.1921L27.0713 13.2404L23.7172 18.5025L23.3723 19.0595L28.9976 21.4224L16.269 31.0721L22.5014 22.0019ZM37.7892 14.6409L35.7818 20.8187L32.0138 20.7911L26.3919 18.6698L28.8579 14.6409H37.7892Z" fill="#3A3A3A"/>
</svg>
