<svg width="48" height="48" viewBox="0 0 48 48" fill="none" xmlns="http://www.w3.org/2000/svg">
<path fill-rule="evenodd" clip-rule="evenodd" d="M35.9851 16.4386L35.9848 16.4399L38.5548 16.4538C38.8474 16.4323 39.1424 16.4336 39.4371 16.4583L45.714 16.492C46.6688 16.5469 47.4257 17.3419 47.4257 18.3154C47.4257 18.7751 47.2566 19.1955 46.9777 19.5162L43.9232 24.8326C43.899 24.8775 43.8743 24.9222 43.8488 24.9667L36.2906 38.1567C35.2669 39.9433 33.4256 40.9583 31.5178 40.9985V40.9999H31.429C31.3798 41.0001 31.3307 40.9996 31.2815 40.9988L8.9162 40.8837H6.4238L6.4239 40.8392C8.31737 40.5748 9.91039 39.3634 10.7172 37.6951L10.7351 37.6956L21.6922 18.4952C22.3073 17.2748 23.565 16.4386 25.0164 16.4386L24.9152 16.4407L24.9189 16.4386H35.9851Z" fill="#2BBDF7"/>
<path fill-rule="evenodd" clip-rule="evenodd" d="M18.4776 7.01703L38.2188 7.01735C39.1731 7.07237 39.93 7.8675 39.93 8.84073C39.93 9.23085 39.8083 9.59232 39.6014 9.88886L34.2734 19.2082L28.6098 29.1125L28.613 29.1117H28.6592L26.8479 32.275C25.3211 34.9394 26.1786 38.3316 28.7533 39.9439L28.9129 40.0404C29.6382 40.4623 30.4179 40.7034 31.2006 40.7778L31.2008 40.9108L21.8675 40.9106L21.8639 40.919H5.67818C4.75918 40.9022 3.82598 40.6677 2.96261 40.1855C0.185867 38.6348 -0.817363 35.1094 0.721787 32.3118L13.0048 9.98507C14.1305 7.93876 16.3046 6.84841 18.4776 7.01703Z" fill="#2B6DEF"/>
<path fill-rule="evenodd" clip-rule="evenodd" d="M24.952 16.4387L35.8231 16.4498L34.2505 19.2012L28.5869 29.1054L28.5901 29.1046H28.6361L26.825 32.268C25.2982 34.9326 26.1555 38.3249 28.7302 39.9369L28.89 40.0334C29.6153 40.4553 30.395 40.6966 31.1777 40.771L31.1779 40.9038H21.8446L21.8407 40.9119L6.38251 40.9125C8.09624 40.7334 9.70513 39.7828 10.6746 38.211L10.7837 38.0267L22.2169 17.8904C22.8652 17.046 23.8631 16.4879 24.9922 16.4359L24.952 16.4387Z" fill="white"/>
<path fill-rule="evenodd" clip-rule="evenodd" d="M24.952 16.4387L35.8231 16.4498L34.2505 19.2012L28.5869 29.1054L28.5901 29.1046H28.6361L26.825 32.268C25.2982 34.9326 26.1555 38.3249 28.7302 39.9369L28.89 40.0334C29.6153 40.4553 30.395 40.6966 31.1777 40.771L31.1779 40.9038H21.8446L21.8407 40.9119L6.38251 40.9125C8.09624 40.7334 9.70513 39.7828 10.6746 38.211L10.7837 38.0267L22.2169 17.8904C22.8652 17.046 23.8631 16.4879 24.9922 16.4359L24.952 16.4387Z" fill="#0CC19B" fill-opacity="0.5"/>
<path fill-rule="evenodd" clip-rule="evenodd" d="M24.952 16.4387L35.8231 16.4498L34.2505 19.2012L28.5869 29.1054L28.5901 29.1046H28.6361L26.825 32.268C25.2982 34.9326 26.1555 38.3249 28.7302 39.9369L28.89 40.0334C29.6153 40.4553 30.395 40.6966 31.1777 40.771L31.1779 40.9038H21.8446L21.8407 40.9119L6.38251 40.9125C8.09624 40.7334 9.70513 39.7828 10.6746 38.211L10.7837 38.0267L22.2169 17.8904C22.8652 17.046 23.8631 16.4879 24.9922 16.4359L24.952 16.4387Z" fill="#003CB2"/>
</svg>
