<svg width="48" height="48" viewBox="0 0 48 48" fill="none" xmlns="http://www.w3.org/2000/svg">
<circle cx="24" cy="24" r="24" fill="#FF4A4A"/>
<path d="M29.3456 29.25H27.7375C27.4397 29.25 27.1865 29.0118 27.1865 28.6991V24.4702L24.3723 26.2273C24.134 26.3762 23.8362 26.3762 23.598 26.2273L20.7986 24.4702V28.6991C20.7986 28.9969 20.5604 29.25 20.2477 29.25H18.6544C18.3566 29.25 18.1035 29.0118 18.1035 28.6991V20.5392C18.1035 20.1372 18.431 19.8096 18.8331 19.8096C18.982 19.8096 19.116 19.8542 19.2351 19.9436L23.6724 22.9961C23.8511 23.1301 24.1042 23.1301 24.2829 22.9961L28.7202 19.9436C29.0478 19.7202 29.5094 19.8096 29.7328 20.1372C29.8221 20.2563 29.8519 20.4052 29.8668 20.5392V28.6991C29.8817 28.9969 29.6434 29.25 29.3456 29.25Z" fill="white"/>
<path d="M15.7061 29.2351H5.72962C5.32759 29.2351 5 28.9075 5 28.5055V20.3009C5.01489 19.9882 5.25313 19.75 5.56583 19.75H7.17398C7.47179 19.75 7.72492 19.9882 7.72492 20.3009V26.54H13.7704V20.3009C13.7704 20.0031 14.0086 19.75 14.3213 19.75H15.8848C16.1826 19.75 16.4357 19.9882 16.4357 20.3009V28.5055C16.4357 28.9075 16.1082 29.2351 15.7061 29.2351Z" fill="white"/>
<path d="M32.2939 19.75H42.2704C42.6724 19.75 43 20.0776 43 20.4796V28.6842C43 28.982 42.7617 29.2351 42.4639 29.2351H40.8558C40.558 29.2351 40.3048 28.9969 40.3048 28.6842V22.8025C40.3048 22.6089 40.1411 22.4451 39.9475 22.4451H34.6317C34.4381 22.4451 34.2743 22.6089 34.2743 22.8025V28.6842C34.2743 28.982 34.036 29.2351 33.7233 29.2351H32.1152C31.8174 29.2351 31.5643 28.9969 31.5643 28.6842V20.4796C31.5643 20.0776 31.8918 19.75 32.2939 19.75Z" fill="white"/>
<path d="M36.4781 24.1724H38.0713C38.3691 24.1724 38.6223 24.4107 38.6223 24.7233V26.3464C38.6223 26.6442 38.384 26.8973 38.0713 26.8973H36.4781C36.1803 26.8973 35.9271 26.6591 35.9271 26.3464V24.7085C35.9271 24.4107 36.1803 24.1724 36.4781 24.1724Z" fill="white"/>
</svg>
