<svg width="48" height="48" viewBox="0 0 48 48" fill="none" xmlns="http://www.w3.org/2000/svg">
<g clip-path="url(#clip0)">
<path d="M26.1817 47.9999H18.5347H10.8877L0.0451965 37.1573V29.5103V21.8634L10.8878 11.0208H18.5348H26.1817L37.0244 21.8635V29.5104V37.1574L26.1817 47.9999ZM18.4777 43.4347H24.2414L32.459 35.2741V29.5103V23.7466L24.2985 15.529H18.5347H12.7709L4.55335 23.7466V29.5103V35.2741L12.7139 43.4347H18.4777Z" fill="black"/>
<path d="M37.0814 37.0431H29.4345H21.7875L10.9449 26.2005V18.5536V10.9067L21.7876 0.0640259H29.4345H37.0815L47.9241 10.9067V18.5536V26.2006L37.0814 37.0431ZM29.4345 32.4779H35.1982L43.3588 24.3173V18.5536V12.7899L35.1982 4.57227H29.4345H23.6707L15.4532 12.7328V18.4966V24.2603L23.6137 32.4209L29.4345 32.4779Z" fill="#38F997"/>
</g>
<defs>
<clipPath id="clip0">
<rect width="48" height="48" fill="white"/>
</clipPath>
</defs>
</svg>
