<svg width="48" height="48" viewBox="0 0 48 48" fill="none" xmlns="http://www.w3.org/2000/svg">
<path d="M19.7143 12.0073C19.2377 11.9392 19.215 11.9166 19.4419 11.8939C19.8731 11.8258 20.8716 11.9166 21.575 12.0754C23.2088 12.4612 24.6838 13.4596 26.2496 15.2069L26.658 15.6835L27.248 15.5927C29.7669 15.1842 32.3538 15.5019 34.5095 16.5004C35.0995 16.7727 36.0299 17.3173 36.1434 17.4535C36.1887 17.4988 36.2568 17.7938 36.3022 18.0888C36.4609 19.1553 36.3929 19.9496 36.0526 20.5623C35.8711 20.9027 35.8711 20.9934 35.9845 21.2884C36.0753 21.5153 36.3475 21.6742 36.5973 21.6742C37.1419 21.6742 37.7091 20.8119 37.9816 19.6092L38.0949 19.1327L38.299 19.3596C39.4565 20.653 40.3642 22.4457 40.5003 23.7165L40.5456 24.0569L40.3416 23.7619C40.0011 23.2399 39.6833 22.8996 39.2521 22.6045C38.4808 22.0827 37.6637 21.9238 35.508 21.8103C33.5564 21.6969 32.4445 21.538 31.3553 21.175C29.4945 20.5623 28.5415 19.768 26.3403 16.8408C25.3646 15.5473 24.7519 14.8438 24.1392 14.2539C22.8004 12.9604 21.4615 12.2796 19.7143 12.0073Z" fill="#FF007A"/>
<path d="M36.62 14.8891C36.6653 14.0268 36.7787 13.4595 37.0285 12.9375C37.1192 12.7333 37.2099 12.5518 37.2326 12.5518C37.2552 12.5518 37.2099 12.7106 37.1419 12.8922C36.9601 13.3914 36.9374 14.0948 37.0512 14.8891C37.2099 15.9102 37.2779 16.0464 38.367 17.1583C38.8662 17.6802 39.4565 18.3383 39.6833 18.6106L40.0691 19.1098L39.6833 18.7467C39.2067 18.2929 38.1176 17.4306 37.8678 17.3171C37.7091 17.2264 37.6864 17.2264 37.573 17.3398C37.4823 17.4306 37.4593 17.5667 37.4593 18.2248C37.4366 19.2459 37.3006 19.8813 36.9601 20.5394C36.7787 20.8798 36.756 20.8117 36.9148 20.4259C37.0285 20.131 37.0512 19.9948 37.0512 19.019C37.0512 17.0448 36.8241 16.5683 35.4399 15.7741C35.0995 15.5698 34.5095 15.2748 34.1691 15.116C33.806 14.9571 33.5338 14.821 33.5564 14.821C33.6018 14.7756 34.9407 15.1614 35.4626 15.3883C36.2568 15.706 36.3929 15.7287 36.4836 15.706C36.5519 15.6379 36.5973 15.4564 36.62 14.8891Z" fill="#FF007A"/>
<path d="M20.6446 18.2702C19.6915 16.954 19.0788 14.9117 19.215 13.3914L19.2604 12.9148L19.4873 12.9602C19.8957 13.0283 20.5992 13.3006 20.9396 13.5048C21.8473 14.0494 22.2558 14.7983 22.6415 16.659C22.755 17.2036 22.9138 17.839 22.9819 18.0432C23.0953 18.3836 23.5265 19.1778 23.8896 19.6771C24.1392 20.0401 23.9803 20.2217 23.413 20.1763C22.5507 20.0855 21.3935 19.2913 20.6446 18.2702Z" fill="#FF007A"/>
<path d="M35.4626 28.1414C30.9696 26.326 29.3811 24.7602 29.3811 22.1053C29.3811 21.7195 29.4038 21.4018 29.4038 21.4018C29.4265 21.4018 29.5854 21.538 29.7896 21.6968C30.6973 22.4229 31.7184 22.7406 34.5549 23.1491C36.2114 23.3987 37.1646 23.5803 38.0269 23.8753C40.7724 24.7829 42.4745 26.6437 42.883 29.1625C42.9964 29.8887 42.9284 31.2729 42.7466 31.999C42.5879 32.5663 42.134 33.6102 42.0206 33.6329C41.998 33.6329 41.9526 33.5194 41.9526 33.3379C41.9073 32.3848 41.4307 31.4771 40.6364 30.7737C39.6833 29.9567 38.4581 29.344 35.4626 28.1414Z" fill="#FF007A"/>
<path d="M32.2857 28.8903C32.2403 28.5499 32.1268 28.1187 32.0588 27.9372L31.9453 27.5969L32.1495 27.8465C32.4445 28.1868 32.6714 28.5953 32.8757 29.1626C33.0345 29.5937 33.0345 29.7299 33.0345 30.4334C33.0345 31.1141 33.0118 31.273 32.8757 31.6587C32.6488 32.2714 32.3765 32.7026 31.9226 33.1791C31.1057 34.0187 30.0392 34.4725 28.5188 34.6768C28.2465 34.6995 27.4749 34.7676 26.7942 34.8129C25.0923 34.9037 23.9577 35.0852 22.9365 35.4483C22.8004 35.4937 22.6642 35.5391 22.6415 35.5164C22.5961 35.471 23.2996 35.0626 23.8669 34.7902C24.6611 34.4045 25.4781 34.2003 27.2707 33.8826C28.1557 33.7464 29.0634 33.5649 29.2903 33.4741C31.5368 32.7707 32.6488 31.0233 32.2857 28.8903Z" fill="#FF007A"/>
<path d="M34.3507 32.5437C33.7607 31.2502 33.6246 30.0249 33.9422 28.8676C33.9876 28.7541 34.033 28.6406 34.0784 28.6406C34.1238 28.6406 34.2599 28.7087 34.3961 28.7995C34.6684 28.981 35.2357 29.2987 36.688 30.093C38.5261 31.0914 39.5699 31.8629 40.2959 32.7479C40.9315 33.5194 41.3173 34.4045 41.4987 35.4937C41.6121 36.1064 41.5441 37.5814 41.3853 38.194C40.8861 40.1228 39.7513 41.6658 38.095 42.5509C37.8452 42.6869 37.6411 42.778 37.6184 42.778C37.5957 42.778 37.6864 42.5509 37.8225 42.2788C38.3671 41.1213 38.4354 40.0095 38.0269 38.7613C37.7771 37.9899 37.2553 37.0595 36.2115 35.4937C34.9634 33.6783 34.6684 33.2018 34.3507 32.5437Z" fill="#FF007A"/>
<path d="M17.445 39.4872C19.1243 38.0803 21.1892 37.0819 23.0954 36.7644C23.9123 36.628 25.2738 36.6734 26.0227 36.8778C27.2254 37.1953 28.3146 37.8762 28.8819 38.7159C29.4265 39.5326 29.6761 40.2362 29.9257 41.8019C30.0165 42.4145 30.1299 43.0501 30.1526 43.1861C30.3342 44.0032 30.6972 44.6384 31.1511 44.9789C31.8546 45.5008 33.0799 45.5235 34.2826 45.0696C34.4868 45.0016 34.6683 44.9335 34.6683 44.9562C34.7137 45.0016 34.101 45.4101 33.6926 45.6142C33.1253 45.9093 32.6715 46 32.0588 46C30.9695 46 30.0392 45.4328 29.2903 44.2979C29.1315 44.0712 28.8138 43.4129 28.5415 42.8003C27.7473 40.9622 27.3388 40.4176 26.4084 39.805C25.5915 39.2832 24.5477 39.1698 23.7535 39.5553C22.7096 40.0545 22.4373 41.3934 23.1635 42.2104C23.4585 42.5509 24.0031 42.823 24.4569 42.891C25.2965 43.0047 26.0227 42.3464 26.0227 41.5068C26.0227 40.9622 25.8184 40.6447 25.2738 40.395C24.5477 40.0771 23.7535 40.4403 23.7762 41.1439C23.7762 41.4387 23.9123 41.6205 24.2073 41.7565C24.3888 41.8472 24.3888 41.8472 24.2527 41.8246C23.5946 41.6885 23.4357 40.8715 23.9577 40.3496C24.5931 39.7143 25.9319 39.9864 26.3857 40.8715C26.5673 41.2346 26.59 41.9606 26.4311 42.4145C26.0454 43.4129 24.9561 43.9351 23.8442 43.64C23.0954 43.4356 22.7777 43.2315 21.87 42.3011C20.2815 40.6674 19.6689 40.3496 17.3997 40.0091L16.9685 39.9411L17.445 39.4872Z" fill="#FF007A"/>
<path fill-rule="evenodd" clip-rule="evenodd" d="M5.50898 2.97576C10.7963 9.39764 18.9427 19.3822 19.3512 19.9268C19.6916 20.3806 19.5554 20.8118 18.9881 21.1294C18.6704 21.311 18.0124 21.4925 17.6947 21.4925C17.3316 21.4925 16.9005 21.311 16.6054 21.016C16.4012 20.8118 15.5162 19.5183 13.5193 16.4095C11.9989 14.0268 10.7055 12.0526 10.6828 12.0299C10.592 11.9845 10.592 11.9845 13.3604 16.9314C15.1078 20.0402 15.6751 21.1522 15.6751 21.2883C15.6751 21.5833 15.5843 21.7421 15.2212 22.1506C14.6085 22.8314 14.3362 23.6029 14.132 25.214C13.9051 27.0067 13.2924 28.2775 11.5451 30.4332C10.5239 31.704 10.3651 31.9309 10.1155 32.4528C9.7978 33.0882 9.70703 33.4513 9.66165 34.2682C9.61626 35.1305 9.70703 35.6751 9.95664 36.492C10.1836 37.2183 10.4332 37.6948 11.0459 38.6252C11.5678 39.4419 11.8855 40.0548 11.8855 40.2816C11.8855 40.463 11.9309 40.463 12.7478 40.2816C14.6993 39.8277 16.3104 39.0564 17.1954 38.1033C17.74 37.5131 17.8762 37.1956 17.8762 36.3786C17.8762 35.8566 17.8535 35.7432 17.7174 35.4255C17.4904 34.9263 17.0593 34.5178 16.1289 33.8824C14.9035 33.0428 14.3816 32.362 14.2455 31.4544C14.132 30.6828 14.2681 30.1609 14.9489 28.7313C15.6524 27.2563 15.8339 26.6437 15.9474 25.146C16.0154 24.1929 16.1289 23.8071 16.4012 23.5121C16.6962 23.1944 16.9458 23.081 17.6493 22.9902C18.8066 22.8314 19.5554 22.5364 20.1454 21.9691C20.6673 21.4925 20.8942 21.016 20.917 20.3125L20.9396 19.7906L20.6446 19.4729C19.5781 18.2476 4.80554 2 4.73746 2C4.71477 2 5.07784 2.43115 5.50898 2.97576ZM12.4755 35.2439C12.7251 34.8128 12.5889 34.2682 12.1805 33.9959C11.7947 33.7463 11.2047 33.8597 11.2047 34.2001C11.2047 34.2909 11.2501 34.3816 11.3862 34.427C11.5905 34.5405 11.6132 34.654 11.4543 34.9036C11.2955 35.1532 11.2955 35.3801 11.4997 35.539C11.8174 35.7886 12.2485 35.6524 12.4755 35.2439Z" fill="#FF007A"/>
<path fill-rule="evenodd" clip-rule="evenodd" d="M21.6658 23.308C21.1212 23.4668 20.5993 24.0568 20.4404 24.6468C20.3496 25.0099 20.395 25.668 20.5539 25.8722C20.8035 26.1899 21.0304 26.2807 21.6658 26.2807C22.9138 26.2807 23.9804 25.7361 24.0938 25.078C24.2073 24.5334 23.7308 23.7845 23.0727 23.4442C22.7323 23.2626 22.0289 23.1945 21.6658 23.308ZM23.1181 24.4426C23.2996 24.1703 23.2315 23.8753 22.8912 23.6711C22.2785 23.2853 21.3481 23.603 21.3481 24.193C21.3481 24.488 21.8246 24.8057 22.2785 24.8057C22.5735 24.8057 22.9819 24.6241 23.1181 24.4426Z" fill="#FF007A"/>
</svg>
