<svg width="48" height="48" viewBox="0 0 48 48" fill="none" xmlns="http://www.w3.org/2000/svg">
<path d="M24 0C37.2542 0 48 10.7458 48 24C48 37.2542 37.2538 48 24 48C10.7462 48 0 37.2571 0 24C0 10.7429 10.7443 0 24 0Z" fill="#53AE94"/>
<path d="M26.9272 20.865V17.3523H34.9982V12H13.0207V17.3523H21.0926V20.8622C14.5325 21.1621 9.59998 22.4552 9.59998 24.0042C9.59998 25.5533 14.5349 26.8463 21.0926 27.1481V38.4H26.9291V27.1472C33.4774 26.8463 38.4 25.5542 38.4 24.0066C38.4 22.4589 33.4774 21.1668 26.9291 20.866L26.9272 20.865ZM26.9291 26.1941V26.1913C26.7645 26.2017 25.9184 26.2522 24.0346 26.2522C22.5285 26.2522 21.4689 26.2097 21.0955 26.1904V26.1951C15.2998 25.9396 10.9737 24.9351 10.9737 23.7331C10.9737 22.5312 15.3003 21.5281 21.0955 21.2721V25.1943C21.4751 25.2203 22.5608 25.2841 24.0593 25.2841C25.8591 25.2841 26.764 25.2094 26.9301 25.1943V21.2721C32.7144 21.5286 37.0305 22.534 37.0305 23.7317C37.0305 24.9294 32.7125 25.9353 26.9301 26.1918" fill="white"/>
</svg>
