<svg width="48" height="48" viewBox="0 0 48 48" fill="none" xmlns="http://www.w3.org/2000/svg">
<path d="M20.9148 43.0403L2.09652 4.71047C2.02753 4.56923 1.99554 4.41279 2.00356 4.25581C2.01157 4.09883 2.05932 3.94646 2.14232 3.81298C2.22533 3.67951 2.34088 3.5693 2.47813 3.49269C2.61538 3.41608 2.76984 3.37559 2.92702 3.375H9.44864C9.62011 3.37478 9.78834 3.42166 9.93498 3.51053C10.0816 3.5994 10.201 3.72684 10.2802 3.87894L24.0233 31.6863C24.2976 32.2475 24.7241 32.7205 25.254 33.0513C25.7839 33.3821 26.3961 33.5575 27.0208 33.5575C27.6455 33.5575 28.2577 33.3821 28.7876 33.0513C29.3175 32.7205 29.744 32.2475 30.0183 31.6863L43.7174 3.90094C43.7966 3.74884 43.916 3.6214 44.0626 3.53253C44.2093 3.44366 44.3775 3.39678 44.549 3.397H45.3585C45.4673 3.39572 45.5746 3.42256 45.67 3.47493C45.7654 3.5273 45.8456 3.60342 45.903 3.69591C45.9603 3.78841 45.9928 3.89415 45.9972 4.00288C46.0017 4.11161 45.978 4.21965 45.9284 4.31653L26.9118 43.0403C26.6369 43.6012 26.2101 44.0736 25.6801 44.4041C25.15 44.7345 24.5379 44.9097 23.9133 44.9097C23.2887 44.9097 22.6766 44.7345 22.1465 44.4041C21.6165 44.0736 21.1897 43.6012 20.9148 43.0403Z" fill="url(#paint0_linear)"/>
<path opacity="0.1" d="M20.9152 43.0403L10.2806 3.90094C10.2076 3.75314 10.0956 3.62809 9.95679 3.53927C9.81794 3.45046 9.65746 3.40127 9.49269 3.397H2.95009C2.79131 3.39459 2.63455 3.43281 2.4947 3.50803C2.35484 3.58325 2.23654 3.69298 2.15102 3.82678C2.0655 3.96059 2.0156 4.11404 2.00607 4.27255C1.99654 4.43106 2.02769 4.58938 2.09656 4.73247L20.9152 43.0403Z" fill="white"/>
<path opacity="0.1" d="M24.0238 31.7062L2.09704 4.71047C2.03405 4.57527 2.004 4.42706 2.00937 4.27799C2.01474 4.12893 2.05537 3.98327 2.12792 3.85294C2.20048 3.72262 2.3029 3.61136 2.42678 3.52828C2.55066 3.4452 2.69247 3.39267 2.84058 3.375H9.47117C9.63399 3.3869 9.79127 3.43921 9.92878 3.5272C10.0663 3.61519 10.1797 3.73608 10.2587 3.87894L24.0238 31.7062Z" fill="white"/>
<defs>
<linearGradient id="paint0_linear" x1="2.00235" y1="-3.89358" x2="45.9978" y2="-3.89358" gradientUnits="userSpaceOnUse">
<stop stop-color="#9D4ABE"/>
<stop offset="0.03" stop-color="#9055C4"/>
<stop offset="0.15" stop-color="#6B74D6"/>
<stop offset="0.26" stop-color="#4C8FE5"/>
<stop offset="0.39" stop-color="#34A3F0"/>
<stop offset="0.52" stop-color="#22B2F9"/>
<stop offset="0.66" stop-color="#18BAFD"/>
<stop offset="0.83" stop-color="#15BDFF"/>
<stop offset="1" stop-color="#28BAD5"/>
</linearGradient>
</defs>
</svg>
