<svg width="48" height="48" viewBox="0 0 48 48" fill="none" xmlns="http://www.w3.org/2000/svg">
<path d="M13.3894 5.05273C13.718 5.05273 14.0233 5.22225 14.1973 5.50078L30.2895 31.2406C30.4827 31.5497 30.4827 31.942 30.2895 32.2512L23.8546 42.54C23.7674 42.6791 23.6148 42.7636 23.4506 42.7636C23.2864 42.7636 23.1338 42.6791 23.0466 42.54L0.0738476 5.78208C-0.0178577 5.6353 -0.0229103 5.45038 0.0608371 5.29892C0.144458 5.14747 0.303616 5.05324 0.476669 5.05273H13.3894ZM46.4245 5.05273C46.5976 5.05324 46.7568 5.14747 46.8404 5.29892C46.9241 5.45038 46.9191 5.6353 46.8274 5.78208L38.1545 19.6601C38.0674 19.7992 37.9146 19.8837 37.7504 19.8837C37.5864 19.8837 37.4336 19.7992 37.3465 19.6601L28.6736 5.78208C28.5819 5.6353 28.5769 5.45038 28.6606 5.29892C28.7442 5.14747 28.9034 5.05324 29.0765 5.05273H46.4245Z" fill="#FF8837"/>
</svg>
