<svg width="48" height="48" viewBox="0 0 48 48" fill="none" xmlns="http://www.w3.org/2000/svg">
<path d="M24 48C37.2548 48 48 37.2548 48 24C48 10.7452 37.2548 0 24 0C10.7452 0 0 10.7452 0 24C0 37.2548 10.7452 48 24 48Z" fill="#136AAD"/>
<path fill-rule="evenodd" clip-rule="evenodd" d="M10.5 16.635L14.5005 18.33V27.8595L24 22.179L33.591 27.8595V18.33L37.5 16.635V34.596L24 26.6235L10.5 34.596V16.635ZM10.9545 15.9015L24 8.25L37.137 15.9015L33.591 17.3685L24 11.8245L14.5005 17.3685L10.9545 15.9015ZM13.773 33.633L16.728 31.938L24.045 36.1755L31.272 31.938L34.317 33.633L24.045 39.75L13.773 33.633Z" fill="white"/>
</svg>
