<svg width="48" height="48" viewBox="0 0 48 48" fill="none" xmlns="http://www.w3.org/2000/svg">
<path fill-rule="evenodd" clip-rule="evenodd" d="M17.4674 19.3098L15.1342 25.6697L12.8015 19.3098H8.92708L6.58815 25.6854L4.24945 19.3098H1.0909L4.50387 28.6137H8.67299L10.8641 22.6403L13.0555 28.6137H17.2133L20.6262 19.3098H17.4674Z" fill="#1C1C1C"/>
<path fill-rule="evenodd" clip-rule="evenodd" d="M43.3767 19.3098L41.1277 21.175L43.4365 23.097L47.9944 19.3098H43.3767Z" fill="#F69023"/>
<path fill-rule="evenodd" clip-rule="evenodd" d="M28.7089 16.3635L37.792 23.9595L34.9117 26.3571L28.9516 19.3098H25.0699L14.6807 31.56H18.558L27.0108 21.5964L29.4502 24.4809H26.2671L24.6423 26.4024H31.075L32.9452 28.6137H36.8201H36.8196L40.1008 25.8813L43.3825 28.6137H48L33.3231 16.3635H28.7089Z" fill="#1C1C1C"/>
</svg>
