<svg width="48" height="48" viewBox="0 0 48 48" fill="none" xmlns="http://www.w3.org/2000/svg">
<g clip-path="url(#clip0)">
<path d="M39.1389 10.0736L37.821 11.3916C40.9658 14.8307 42.7098 19.3222 42.7098 23.9824C42.7098 28.6427 40.9658 33.1342 37.821 36.5733L39.1389 37.8913C42.6364 34.0977 44.5781 29.1268 44.5781 23.9671C44.5781 18.8073 42.6364 13.8364 39.1389 10.0428V10.0736Z" fill="#5A5564"/>
<path d="M11.4223 10.1879C14.8614 7.04303 19.3529 5.29904 24.0132 5.29904C28.6734 5.29904 33.1649 7.04303 36.6041 10.1879L37.922 8.86994C34.1284 5.37252 29.1576 3.43079 23.9978 3.43079C18.838 3.43079 13.8672 5.37252 10.0736 8.86994L11.4223 10.1879Z" fill="#5A5564"/>
<path d="M10.1878 36.5865C7.04667 33.1482 5.30497 28.6594 5.30497 24.0022C5.30497 19.3451 7.04667 14.8563 10.1878 11.4179L8.86985 10.1C5.37243 13.8936 3.43069 18.8644 3.43069 24.0242C3.43069 29.184 5.37243 34.1548 8.86985 37.9484L10.1878 36.5865Z" fill="#5A5564"/>
<path d="M36.5865 37.8033C33.1474 40.9482 28.6558 42.6922 23.9956 42.6922C19.3354 42.6922 14.8438 40.9482 11.4047 37.8033L10.0868 39.1213C13.8804 42.6187 18.8512 44.5605 24.011 44.5605C29.1708 44.5605 34.1416 42.6187 37.9352 39.1213L36.5865 37.8033Z" fill="#5A5564"/>
<path d="M32.3207 19.6024C32.0571 16.8522 29.6848 15.9297 26.6842 15.6485V11.8616H24.3646V15.5782C23.754 15.5782 23.1301 15.5782 22.5107 15.5782V11.8616H20.2087V15.6749H15.5036V18.157C15.5036 18.157 17.2169 18.1263 17.1906 18.157C17.4995 18.123 17.8095 18.2103 18.0554 18.4004C18.3013 18.5905 18.4637 18.8687 18.5085 19.1762V29.6145C18.5019 29.7229 18.4736 29.829 18.4253 29.9263C18.377 30.0236 18.3097 30.1103 18.2273 30.1812C18.1465 30.2534 18.0519 30.3085 17.9493 30.3433C17.8466 30.378 17.7379 30.3916 17.6299 30.3833C17.6606 30.4096 15.9429 30.3833 15.9429 30.3833L15.5036 33.1554H20.1647V37.0302H22.4843V33.2125H24.3383V37.0126H26.6623V33.1817C30.581 32.9445 33.3136 31.978 33.6562 28.3097C33.933 25.3575 32.5448 24.0395 30.3262 23.5079C31.6749 22.8445 32.5096 21.6145 32.3207 19.6024ZM29.0697 27.8528C29.0697 30.7347 24.1318 30.4052 22.559 30.4052V25.2916C24.1318 25.2959 29.0697 24.8435 29.0697 27.8528ZM27.9934 20.648C27.9934 23.2839 23.8726 22.9632 22.5634 22.9632V18.3152C23.8726 18.3152 27.9934 17.9022 27.9934 20.648Z" fill="#F09242"/>
<path d="M23.9956 48C19.2492 47.9991 14.6097 46.5909 10.6636 43.9535C6.71745 41.316 3.64199 37.5676 1.82603 33.1824C0.0100723 28.7971 -0.464837 23.9719 0.461348 19.3168C1.38753 14.6616 3.67322 10.3856 7.02942 7.02945C10.3856 3.67325 14.6616 1.38756 19.3167 0.461378C23.9719 -0.464807 28.7971 0.0101028 33.1824 1.82606C37.5676 3.64202 41.3159 6.71748 43.9534 10.6636C46.5909 14.6097 47.9991 19.2492 48 23.9956C48.0006 27.1481 47.3801 30.2698 46.1739 33.1824C44.9678 36.095 43.1997 38.7414 40.9705 40.9706C38.7414 43.1997 36.095 44.9678 33.1824 46.174C30.2697 47.3801 27.1481 48.0006 23.9956 48V48ZM23.9956 1.87151C19.6227 1.87498 15.349 3.17476 11.7147 5.60654C8.08033 8.03833 5.24849 11.493 3.57707 15.5338C1.90565 19.5746 1.46968 24.0203 2.32428 28.3088C3.17888 32.5974 5.28567 36.5363 8.37837 39.6278C11.4711 42.7193 15.4109 44.8245 19.6998 45.6774C23.9886 46.5303 28.4341 46.0926 32.4743 44.4196C36.5145 42.7465 39.968 39.9133 42.3983 36.278C44.8287 32.6427 46.1267 28.3685 46.1285 23.9956C46.1296 21.0892 45.5579 18.211 44.4459 15.5257C43.3339 12.8404 41.7035 10.4006 39.648 8.34583C37.5924 6.29107 35.1519 4.66165 32.4662 3.55073C29.7804 2.43982 26.902 1.8692 23.9956 1.87151V1.87151Z" fill="#282138"/>
</g>
<defs>
<clipPath id="clip0">
<rect width="48" height="48" fill="white"/>
</clipPath>
</defs>
</svg>
