<svg width="49" height="48" viewBox="0 0 49 48" fill="none" xmlns="http://www.w3.org/2000/svg">
<path d="M47.9994 23.1345C47.9859 23.1345 47.9589 23.1345 47.9454 23.1345L46.2417 14.9002C46.6203 14.7514 46.8096 14.3323 46.6744 13.9402C46.5662 13.6562 46.2958 13.4669 45.9983 13.4669C45.8631 13.4669 45.7414 13.5075 45.6197 13.5751L38.9132 5.62467C39.2107 5.34072 39.2107 4.881 38.9403 4.59706C38.6699 4.31312 38.1966 4.2996 37.9127 4.57002C37.8586 4.6241 37.8045 4.69171 37.7639 4.75931L31.0169 1.70354C31.0439 1.62241 31.0575 1.55481 31.0575 1.47368C31.0575 1.06805 30.7194 0.730019 30.3138 0.730019C29.9487 0.730019 29.6377 0.98692 29.5837 1.35199H25.4732C25.1758 1.10861 24.7566 1.10861 24.4592 1.35199H20.3487C20.2811 0.946357 19.9161 0.675934 19.5104 0.730019C19.1048 0.797624 18.8344 1.16269 18.8885 1.56833C18.8885 1.60889 18.902 1.66298 18.9155 1.70354L12.1685 4.77284C11.9927 4.40777 11.5465 4.27255 11.1814 4.44833C10.8163 4.6241 10.6811 5.0703 10.8569 5.43537C10.8975 5.50298 10.938 5.57058 11.0056 5.63819L4.25859 13.548C4.15042 13.4804 4.01521 13.4399 3.88 13.4399C3.47436 13.4399 3.13634 13.7644 3.13634 14.1835C3.13634 14.4945 3.32563 14.7785 3.6231 14.8866L1.94648 23.148C1.93296 23.148 1.90591 23.148 1.89239 23.148C1.37859 23.148 0.959435 23.5672 0.959435 24.081C0.959435 24.5948 1.37859 25.014 1.89239 25.014C1.90591 25.014 1.93296 25.014 1.94648 25.014L3.63662 33.2618C3.25803 33.3971 3.05521 33.8162 3.19042 34.2083C3.29859 34.5058 3.58253 34.6951 3.89352 34.6951C4.02873 34.6951 4.15042 34.6545 4.27211 34.5869L11.0056 42.5103C10.7082 42.7942 10.7082 43.254 10.9786 43.5379C11.2625 43.8354 11.7223 43.8354 12.0062 43.5649C12.0603 43.5109 12.1144 43.4433 12.1549 43.3756L18.902 46.4449C18.8749 46.5261 18.8614 46.5937 18.8614 46.6748C18.8614 47.0804 19.1994 47.4185 19.6051 47.4185C19.9701 47.4185 20.2811 47.1616 20.3352 46.7965H24.4456C24.7431 47.0399 25.1623 47.0399 25.4597 46.7965H29.5701C29.6377 47.2021 30.0163 47.4726 30.422 47.4049C30.7735 47.3509 31.0439 47.0399 31.0439 46.6748C31.0439 46.5937 31.0304 46.5126 31.0034 46.4449L37.7504 43.3756C37.9397 43.7407 38.3724 43.8759 38.7375 43.6866C39.1025 43.4973 39.2377 43.0647 39.0485 42.6996C39.0079 42.632 38.9673 42.5644 38.8997 42.5103L45.6197 34.614C45.7279 34.6816 45.8631 34.7221 45.9983 34.7221C46.4039 34.7221 46.742 34.3976 46.742 33.9785C46.742 33.6675 46.5527 33.3835 46.2552 33.2754L47.9589 24.9869C47.9724 24.9869 47.9994 24.9869 48.013 24.9869C48.5268 24.9869 48.9459 24.5678 48.9459 24.054C48.9459 23.5402 48.5268 23.1345 47.9994 23.1345ZM45.9307 14.9542L46.6879 21.0252L44.2811 15.9818C44.5921 15.752 44.7138 15.3328 44.5786 14.9678L45.3493 14.6027C45.4845 14.8055 45.7008 14.9272 45.9307 14.9542ZM42.6451 30.7199L42.4828 24.6489C42.7262 24.6354 42.929 24.4731 42.9966 24.2433H44.2135C44.2135 24.2703 44.227 24.2973 44.2406 24.3379C44.2541 24.3785 44.2541 24.4055 44.2676 24.4326V24.4461C44.3623 24.6895 44.5515 24.8652 44.7814 24.9599L44.1459 29.2731L42.9966 31.3554L42.6451 30.7199ZM6.90873 31.3689L5.77296 29.2866L5.13746 24.9734C5.44845 24.8517 5.66479 24.5813 5.71887 24.2433H6.94929C6.96282 24.2838 6.98986 24.3109 7.00338 24.3514C7.0845 24.5137 7.24676 24.6218 7.43606 24.6489L7.2738 30.7199L6.90873 31.3689ZM7.2738 17.4286L7.43606 23.4996C7.24676 23.5266 7.09803 23.6348 7.00338 23.7971C6.97634 23.8241 6.96282 23.8647 6.94929 23.9052H5.71887C5.67831 23.5807 5.44845 23.2968 5.13746 23.1751L5.77296 18.8618L6.90873 16.7796L7.2738 17.4286ZM43.0101 16.7931L44.1594 18.8754L44.7949 23.1886C44.5516 23.2833 44.3758 23.4725 44.2811 23.7024V23.7159C44.2676 23.743 44.2541 23.7835 44.2541 23.8106C44.2406 23.8376 44.2406 23.8647 44.227 23.9052H43.0101C42.9425 23.6754 42.7397 23.5131 42.4963 23.4996L42.6586 17.4151L43.0101 16.7931ZM43.1318 16.5903L43.4023 16.1035C43.5104 16.1441 43.6186 16.1711 43.7268 16.1711H43.7538L44.0648 18.3075L43.1318 16.5903ZM46.4851 23.9323H46.0389C45.9983 23.6618 45.8361 23.4185 45.5927 23.2697C45.5792 23.2562 45.5521 23.2562 45.5386 23.2427C45.5251 23.2292 45.498 23.2157 45.471 23.2157C45.3493 23.1616 45.2276 23.1345 45.1059 23.1345C45.0924 23.1345 45.0653 23.1345 45.0518 23.1345L44.5245 19.592L46.6879 23.5402C46.5932 23.6483 46.5121 23.7835 46.4851 23.9323ZM46.7014 24.6083L44.538 28.5565L45.0654 25.014C45.0789 25.014 45.0924 25.014 45.1194 25.014C45.2411 25.014 45.3763 24.9869 45.4845 24.9328C45.5115 24.9193 45.5251 24.9193 45.5521 24.9058C45.5792 24.8923 45.5927 24.8923 45.6062 24.8787C45.8496 24.7435 46.0118 24.5002 46.0524 24.2162H46.4986C46.5121 24.3649 46.5932 24.5137 46.7014 24.6083ZM42.6586 16.8202L42.6721 16.3875C42.7127 16.3875 42.7397 16.374 42.7803 16.374L42.8479 16.4957L42.6586 16.8202ZM42.8208 15.2517C42.8208 15.2517 42.8208 15.2652 42.8208 15.2517C42.7668 15.2382 42.6992 15.2247 42.6315 15.2247C42.591 15.2247 42.5369 15.2382 42.4963 15.2382V15.2111L42.3206 14.819L42.8614 15.0083C42.8344 15.103 42.8208 15.1841 42.8208 15.2517ZM42.4693 16.374L42.4558 17.1987L40.049 21.3633L37.6963 18.6861C37.7775 18.5914 37.8316 18.4562 37.8316 18.321C37.8316 18.2669 37.818 18.2128 37.8045 18.1587L42.1448 16.1035C42.2124 16.2388 42.3341 16.3334 42.4693 16.374ZM34.6 36.3311L34.911 36.223L34.627 37.0342C34.6 37.0342 34.573 37.0207 34.5459 37.0207C34.5054 37.0207 34.4648 37.0207 34.4377 37.0342C34.5865 36.8314 34.6541 36.5745 34.6 36.3311ZM34.5054 36.0607C34.4242 35.9255 34.3161 35.8038 34.1808 35.7227L36.4524 30.0709L36.6958 30.0303C36.7499 30.1655 36.8445 30.2872 36.9797 30.3548L35.0462 35.8849L34.5054 36.0607ZM33.9645 37.6157L32.6665 37.859L33.2073 37.2641C33.4507 37.4264 33.7617 37.4534 34.0321 37.3452C33.9915 37.4264 33.9645 37.5075 33.9645 37.5886V37.6157ZM25.5273 39.3734L31.9904 38.1835L28.2315 42.321L25.4192 39.6979C25.4868 39.6033 25.5273 39.4951 25.5273 39.3734ZM25.4868 39.1841C25.4462 39.0895 25.3921 39.0083 25.311 38.9407L26.7172 36.6421H32.8152C32.8423 36.7909 32.9099 36.9396 33.0045 37.0613L32.2068 37.9402L25.4868 39.1841ZM24.4997 39.7114L21.6873 42.321L17.9284 38.17L24.3915 39.3599C24.3915 39.3599 24.3915 39.3599 24.3915 39.3734C24.3915 39.4951 24.4321 39.6033 24.4997 39.7114ZM24.4321 39.1841L17.7121 37.9402L16.9144 37.0613C17.009 36.9396 17.0766 36.7909 17.1037 36.6421H23.2017L24.6079 38.9407C24.5268 39.0083 24.4727 39.0895 24.4321 39.1841ZM15.9408 37.5886C15.9408 37.5075 15.9138 37.4264 15.8732 37.3452C16.1437 37.4534 16.4546 37.4264 16.698 37.2641L17.2389 37.859L15.9408 37.6157V37.5886ZM15.4811 37.0478C15.4135 37.0342 15.3459 37.0342 15.2783 37.0478L14.9944 36.2365L15.3054 36.3447C15.2918 36.3987 15.2918 36.4528 15.2918 36.5069C15.3054 36.7097 15.3594 36.8855 15.4811 37.0478ZM15.4135 36.0742L14.8727 35.8849L12.9392 30.3548C13.0744 30.2872 13.169 30.179 13.2231 30.0303L13.4665 30.0709L15.7515 35.7092C15.6163 35.7903 15.5082 35.912 15.427 36.0472V36.0742H15.4135ZM15.3189 11.8309L15.0079 11.939L15.2918 11.1278C15.3189 11.1278 15.3459 11.1413 15.373 11.1413C15.4135 11.1413 15.4541 11.1413 15.4811 11.1278C15.3594 11.29 15.2918 11.4793 15.2918 11.6686C15.2918 11.7227 15.3054 11.7768 15.3189 11.8309ZM15.4135 12.1013C15.4946 12.2365 15.6028 12.3582 15.738 12.4393L13.4665 18.0911L13.2231 18.1317C13.169 17.9965 13.0744 17.8748 12.9392 17.8072L14.8727 12.2771L15.4135 12.1013ZM15.9544 10.5464L17.2524 10.303L16.7115 10.8979C16.4682 10.7357 16.1572 10.7086 15.8868 10.8168C15.9273 10.7357 15.9544 10.6545 15.9544 10.5734V10.5464ZM24.3915 8.78861L17.9284 9.97847L21.6873 5.82748L24.4997 8.45058C24.4321 8.54523 24.3915 8.66692 24.3915 8.77509V8.78861ZM24.4321 8.9779C24.4727 9.07255 24.5268 9.15368 24.6079 9.22129L23.2017 11.5199H17.1037C17.0766 11.3711 17.009 11.2224 16.9144 11.1007L17.7121 10.2219L24.4321 8.9779ZM25.4192 8.45058L28.2315 5.82748L31.9904 9.97847L25.5273 8.78861C25.5273 8.78861 25.5273 8.78861 25.5273 8.77509C25.5273 8.66692 25.4868 8.54523 25.4192 8.45058ZM25.4868 8.9779L32.2068 10.2219L33.0045 11.1007C32.9099 11.2224 32.8423 11.3711 32.8152 11.5199H26.7172L25.311 9.22129C25.3921 9.15368 25.4462 9.07255 25.4868 8.9779ZM33.978 10.5734C33.978 10.6545 34.0051 10.7357 34.0456 10.8168C33.7752 10.7086 33.4642 10.7357 33.2208 10.8979L32.68 10.303L33.978 10.5464V10.5734ZM34.4377 11.1142C34.4783 11.1278 34.5189 11.1278 34.5459 11.1278C34.573 11.1278 34.6 11.1278 34.627 11.1142L34.911 11.9255L34.6 11.8173C34.6541 11.574 34.6 11.3171 34.4377 11.1142ZM34.5054 12.1013L35.0462 12.2906L36.9797 17.8207C36.8445 17.8883 36.7499 17.9965 36.6958 18.1452L36.4524 18.1047L34.1944 12.4393C34.3296 12.3582 34.4377 12.2365 34.5054 12.1013ZM39.0079 23.1886C38.8456 23.1345 38.6699 23.121 38.4941 23.1616L37.5882 20.9035L37.3989 18.8754C37.453 18.8618 37.507 18.8348 37.5611 18.8078L39.9544 21.5255L39.0079 23.1886ZM40.1707 21.7689L41.942 23.77L41.8879 23.9052L39.6299 23.8917C39.5893 23.6618 39.4676 23.459 39.2918 23.3238L40.1707 21.7689ZM37.9668 23.5266C37.9262 23.5131 37.8721 23.4996 37.8316 23.4996L37.6828 21.9717L38.2101 23.2697C38.1155 23.3509 38.0344 23.432 37.9668 23.5266ZM38.2101 24.8787L37.6828 26.1768L37.8316 24.6489C37.8721 24.6489 37.9262 24.6354 37.9668 24.6218C38.0344 24.73 38.1155 24.8111 38.2101 24.8787ZM37.453 21.3903L37.6558 23.5402C37.48 23.5942 37.3313 23.7295 37.2637 23.9052H33.2208C33.1938 23.8511 33.1668 23.7971 33.1397 23.743L36.6147 19.308L37.453 21.3903ZM24.3104 23.4049C24.1752 23.5402 24.0806 23.7024 24.0535 23.8917L17.7527 23.9052C17.6986 23.7971 17.6175 23.7024 17.5093 23.6483L19.8214 17.5909C19.9431 17.6179 20.0648 17.6179 20.1865 17.5638L24.3104 23.4049ZM20.4299 17.361C20.4839 17.2799 20.5245 17.1987 20.538 17.1041H24.9594H29.3808C29.3944 17.1987 29.4349 17.2799 29.489 17.361L25.338 23.2157C25.2163 23.1616 25.0946 23.1345 24.9594 23.1345H24.9459C24.8107 23.1345 24.689 23.1616 24.5673 23.2157L20.4299 17.361ZM17.7527 24.2838L24.0535 24.2973C24.0941 24.4866 24.1752 24.6489 24.3104 24.7841L20.173 30.6252C20.0513 30.5711 19.9296 30.5711 19.8079 30.5982L17.4958 24.5407C17.6175 24.4731 17.6986 24.3785 17.7527 24.2838ZM24.5808 24.9599C24.7025 25.014 24.8242 25.041 24.9594 25.041H24.973C25.1082 25.041 25.2299 25.014 25.3515 24.9599L29.5025 30.828C29.4484 30.9092 29.4079 30.9903 29.3944 31.0849H24.973H20.5515C20.538 30.9903 20.4975 30.9092 20.4434 30.828L24.5808 24.9599ZM25.6084 24.7706C25.7437 24.6354 25.8383 24.4731 25.8654 24.2838L32.1392 24.2703C32.1797 24.392 32.2744 24.5002 32.3961 24.5813L30.111 30.5847C29.9893 30.5576 29.8676 30.5576 29.7459 30.6117L25.6084 24.7706ZM32.1392 23.8782H25.8654C25.8248 23.6889 25.7437 23.5266 25.6084 23.3914L29.7459 17.5503C29.8676 17.6044 29.9893 17.6044 30.111 17.5773L32.3961 23.5807C32.2744 23.6618 32.1797 23.7565 32.1392 23.8782ZM29.9623 16.428C29.8946 16.428 29.827 16.4416 29.7594 16.4686L26.9065 11.8173H32.8152C32.8423 12.0066 32.9369 12.1824 33.0721 12.3176L30.1245 16.4686C30.0704 16.4416 30.0163 16.428 29.9623 16.428ZM29.5972 16.5633C29.489 16.6579 29.4079 16.7796 29.3808 16.9283H24.9459H20.511C20.4839 16.7796 20.4163 16.6579 20.2946 16.5633L23.2017 11.8173H26.6901L29.5972 16.5633ZM20.173 16.4686C20.0513 16.4145 19.9161 16.4145 19.7944 16.4551L16.8603 12.3041C16.9955 12.1689 17.0766 11.9931 17.1172 11.8038H23.0259L20.173 16.4686ZM19.6592 17.5097L17.347 23.5672C17.3065 23.5537 17.2659 23.5537 17.2254 23.5537C17.1172 23.5537 17.009 23.5807 16.9279 23.6348L13.3718 19.1052L13.7234 18.2264L19.4023 17.1852C19.4563 17.3204 19.5375 17.4286 19.6592 17.5097ZM17.2254 24.6083C17.2659 24.6083 17.3065 24.6083 17.347 24.5948L19.6592 30.6523C19.5375 30.7199 19.4563 30.828 19.4158 30.9633L13.7369 29.9221L13.3854 29.0433L16.9414 24.5137C17.0225 24.5678 17.1172 24.5948 17.2254 24.6083ZM19.7944 31.6934C19.9161 31.734 20.0513 31.734 20.173 31.6799L23.0259 36.3311H17.1172C17.0901 36.1418 16.9955 35.9661 16.8603 35.8309L19.7944 31.6934ZM20.3217 31.5987C20.4299 31.5041 20.511 31.3824 20.538 31.2337H24.973H29.3944C29.4214 31.3824 29.489 31.5041 29.6107 31.5987L26.7037 36.3311H23.2423L20.3217 31.5987ZM29.7459 31.6799C29.8676 31.734 29.9893 31.734 30.111 31.6934L33.0586 35.8444C32.9234 35.9796 32.8423 36.1554 32.8017 36.3447H26.893L29.7459 31.6799ZM30.2597 30.6523L32.5448 24.6354C32.707 24.6759 32.8828 24.6489 33.018 24.5407L36.5335 29.0433L36.182 29.9221L30.5031 30.9633C30.4625 30.828 30.3814 30.7199 30.2597 30.6523ZM32.68 23.4996C32.6394 23.4996 32.5854 23.4996 32.5448 23.5131L30.2597 17.4962C30.3814 17.4286 30.4625 17.3204 30.5031 17.1852L36.182 18.2264L36.5335 19.1052L33.018 23.6078C32.9099 23.5402 32.8017 23.4996 32.68 23.4996ZM36.831 18.7402L36.7634 18.8348L36.547 18.294L36.6687 18.321V18.3345C36.6687 18.4833 36.7228 18.632 36.831 18.7402ZM36.831 19.0241L36.9662 18.8483C37.0473 18.8889 37.1284 18.9159 37.2096 18.9159L37.3448 20.3221L36.831 19.0241ZM36.1008 18.0235L30.5301 17.0095C30.5301 17.0095 30.5301 17.0095 30.5301 16.9959C30.5301 16.8472 30.4761 16.712 30.3814 16.6038L33.302 12.4664C33.4913 12.561 33.6941 12.588 33.8969 12.534L36.1008 18.0235ZM26.5008 11.5199H23.4045L24.7566 9.31593C24.8783 9.37002 25.0135 9.37002 25.1487 9.31593L26.5008 11.5199ZM16.0084 12.561C16.2113 12.6016 16.4141 12.588 16.6034 12.4934L19.5239 16.6309C19.4293 16.739 19.3752 16.8742 19.3752 17.023C19.3752 17.023 19.3752 17.023 19.3752 17.0365L13.8045 18.0506L16.0084 12.561ZM13.2501 18.321L13.3718 18.294L13.1555 18.8348L13.0879 18.7402C13.1961 18.632 13.2501 18.4833 13.2501 18.3345C13.2501 18.3345 13.2637 18.321 13.2501 18.321ZM12.9527 18.8483L13.0879 19.0241L12.5606 20.3221L12.6958 18.9159C12.7904 18.9024 12.8715 18.8889 12.9527 18.8483ZM13.3042 19.2945L16.8062 23.743C16.7656 23.7835 16.7386 23.8241 16.7115 23.8782H12.6146C12.5606 23.7159 12.4389 23.5807 12.2766 23.5266L12.4794 21.3633L13.3042 19.2945ZM12.3307 20.9171L11.4248 23.1616C11.2625 23.121 11.0732 23.121 10.911 23.1886L9.96451 21.539L12.3577 18.8213C12.4118 18.8483 12.4659 18.8754 12.52 18.8889L12.3307 20.9171ZM12.0873 23.4996H12.0603C12.0197 23.4996 11.9792 23.4996 11.9386 23.5131C11.871 23.4185 11.7899 23.3373 11.7087 23.2833L12.2361 21.9852L12.0873 23.4996ZM12.2361 26.1768L11.7087 24.8787C11.8034 24.8111 11.8845 24.7435 11.9386 24.6489C11.9792 24.6624 12.0197 24.6624 12.0603 24.6624H12.0873L12.2361 26.1768ZM10.6406 23.3238C10.4648 23.459 10.3431 23.6618 10.3025 23.8917L8.05803 23.9052C8.04451 23.8511 8.01746 23.8106 7.99042 23.7565L9.74817 21.7689L10.6406 23.3238ZM7.86873 23.6348C7.80113 23.5807 7.72 23.5402 7.62535 23.5131L7.47662 17.8072L9.64 21.6066L7.86873 23.6348ZM7.63887 24.6489C7.73352 24.6354 7.81465 24.5948 7.88225 24.5272L9.66704 26.5554L7.50366 30.3548L7.63887 24.6489ZM8.00394 24.392C8.03098 24.3514 8.05803 24.2973 8.07155 24.2433L10.3161 24.2568C10.3566 24.4866 10.4783 24.6895 10.6541 24.8247L9.76169 26.3796L8.00394 24.392ZM10.911 24.9734C11.0732 25.0275 11.249 25.041 11.4248 25.0004L12.3307 27.2449L12.52 29.2731C12.4659 29.2866 12.4118 29.3137 12.3577 29.3407L9.96451 26.6365L10.911 24.9734ZM12.4659 26.7852L12.2631 24.6218C12.4254 24.5678 12.547 24.4326 12.6011 24.2703H16.698C16.7251 24.3244 16.7521 24.3649 16.7927 24.4055L13.2907 28.8675L12.4659 26.7852ZM13.0879 29.4218L13.1555 29.3272L13.3718 29.868L13.2501 29.841V29.8275C13.2637 29.6787 13.1961 29.53 13.0879 29.4218ZM13.0879 29.1379L12.9527 29.3137C12.8715 29.2731 12.7904 29.2461 12.7093 29.2461L12.5741 27.8399L13.0879 29.1379ZM13.818 30.1249L19.3887 31.139C19.3887 31.2878 19.4428 31.423 19.5375 31.5311L16.6034 35.6686C16.4276 35.574 16.2113 35.5469 16.0084 35.601L13.818 30.1249ZM23.418 36.6421H26.5008L25.1487 38.8461C25.027 38.792 24.8918 38.792 24.7566 38.8461L23.418 36.6421ZM33.9104 35.601C33.7076 35.5604 33.5048 35.574 33.3155 35.6686L30.3814 31.5311C30.4761 31.423 30.5301 31.2878 30.5301 31.139L36.1008 30.1249L33.9104 35.601ZM36.6552 29.8275L36.5335 29.8545L36.7499 29.3137L36.8175 29.4083C36.7093 29.5165 36.6552 29.6652 36.6552 29.814V29.8275ZM36.9662 29.3137L36.831 29.1379L37.3583 27.8399L37.2231 29.2461C37.1285 29.2461 37.0473 29.2731 36.9662 29.3137ZM36.6147 28.854L33.1397 24.419C33.1803 24.3649 33.2073 24.3109 33.2208 24.2568H37.2637C37.3177 24.4326 37.4665 24.5678 37.6558 24.6218L37.453 26.7717L36.6147 28.854ZM37.5882 27.2314L38.4941 24.9869C38.6563 25.0275 38.8456 25.0275 39.0079 24.9599L39.9544 26.6095L37.5611 29.3272C37.507 29.3002 37.453 29.2731 37.3989 29.2596L37.5882 27.2314ZM39.2783 24.8247C39.4541 24.6895 39.5758 24.4866 39.6163 24.2568L41.8744 24.2433L41.9285 24.3785L40.1572 26.3796L39.2783 24.8247ZM42.0637 24.5137C42.1313 24.5678 42.1989 24.6083 42.2935 24.6354L42.4423 30.3548L40.2789 26.5554L42.0637 24.5137ZM42.2935 23.5266C42.2124 23.5537 42.1313 23.5942 42.0637 23.6483L40.2654 21.6066L42.4287 17.8072L42.2935 23.5266ZM42.1989 15.4275L40.0896 14.0618L41.9149 14.6973L41.9285 14.7109L42.2259 15.3869C42.2259 15.414 42.2124 15.414 42.1989 15.4275ZM42.0907 15.6033C42.0501 15.7114 42.0366 15.8331 42.0637 15.9413L37.7234 18.01C37.6017 17.8207 37.3718 17.7126 37.1555 17.7531L35.2761 12.3582L39.3053 13.7779L42.0907 15.6033ZM35.1544 12.0202L34.8163 11.0602C34.8704 11.0331 34.9245 10.9926 34.9651 10.952L38.3048 13.1424L35.1544 12.0202ZM34.7217 9.99199C34.573 9.9379 34.4107 9.96495 34.2755 10.0461L30.0704 4.85396C30.1245 4.79988 30.1515 4.73227 30.1786 4.66467L37.3718 5.65171C37.3718 5.80044 37.4259 5.94917 37.5341 6.05734L37.2772 6.40889L34.7217 9.99199ZM37.3989 5.43537L30.2056 4.43481C30.2056 4.17791 30.0569 3.94805 29.8135 3.8534L29.9082 3.46129L29.9352 3.3396L36.3037 4.82692L37.3854 5.40833L37.3989 5.43537ZM29.8946 4.98917L34.1132 10.1813C34.0727 10.2354 34.0321 10.2895 34.0051 10.3571L32.4501 10.0731L28.4344 5.65171L29.2051 4.93509C29.3944 5.08382 29.6648 5.11086 29.8946 4.98917ZM29.6242 3.79931H29.5837C29.3944 3.79931 29.2051 3.89396 29.0834 4.04269L26.1899 2.47424L29.7324 3.29903L29.6242 3.79931ZM28.2992 5.48946L27.4338 4.52945H28.9752C28.9887 4.61058 29.0158 4.70523 29.0699 4.77284L28.2992 5.48946ZM28.0963 5.67875L25.2839 8.31537C25.0946 8.16664 24.8242 8.16664 24.6214 8.31537L21.8225 5.67875L22.8501 4.54298H24.9594H27.0687L28.0963 5.67875ZM21.6197 5.48946L20.8625 4.77284C20.9166 4.70523 20.9437 4.61058 20.9572 4.52945H22.4986L21.6197 5.48946ZM20.3352 5.0703C20.4704 5.0703 20.6056 5.01622 20.7273 4.93509L21.498 5.65171L17.4823 10.0731L15.9273 10.3571C15.9003 10.2895 15.8732 10.2354 15.8192 10.1813L20.0377 4.98917C20.1189 5.04326 20.227 5.0703 20.3352 5.0703ZM20.1865 3.31255L23.729 2.48777L20.8355 4.05622C20.7138 3.90748 20.538 3.81283 20.3352 3.81283H20.2946L20.1865 3.31255ZM19.6997 4.43481L12.52 5.43537L12.5065 5.40833L13.5882 4.82692L19.9566 3.3396L19.9837 3.46129L20.0783 3.8534C19.8485 3.94805 19.6997 4.17791 19.6997 4.43481ZM12.547 5.66523L19.7403 4.67819C19.7673 4.74579 19.8079 4.8134 19.8484 4.86748L15.6434 10.0596C15.5082 9.97847 15.3459 9.95143 15.1972 10.0055L12.6417 6.42241L12.3848 6.07086C12.493 5.94917 12.547 5.81396 12.547 5.66523ZM14.7645 12.0202L11.6006 13.1424L14.9403 10.952C14.9808 10.9926 15.0349 11.0331 15.089 11.0602L14.7645 12.0202ZM14.6428 12.3717L12.7634 17.7531C12.5335 17.7126 12.3172 17.8072 12.1955 18.01L7.85521 15.9413C7.86873 15.9007 7.86873 15.8466 7.86873 15.8061C7.86873 15.7385 7.85521 15.6573 7.82817 15.5897L10.6135 13.7644L14.6428 12.3717ZM7.72 15.4275C7.70648 15.414 7.69296 15.4004 7.67943 15.3869L7.9769 14.7109L7.99042 14.6973L9.81577 14.0618L7.72 15.4275ZM7.77408 16.1306L12.1144 18.1858C12.1008 18.2399 12.0873 18.294 12.0873 18.348C12.0873 18.4833 12.1414 18.6049 12.2225 18.7131L9.86986 21.3633L7.47662 17.1987L7.4631 16.374C7.58479 16.3334 7.70648 16.2388 7.77408 16.1306ZM7.42253 15.2247V15.2517C7.38197 15.2382 7.32789 15.2382 7.28732 15.2382C7.21972 15.2382 7.15211 15.2517 7.09803 15.2788V15.2652C7.09803 15.1841 7.08451 15.103 7.05746 15.0354L7.59831 14.8461L7.42253 15.2247ZM7.26028 16.8202L7.07098 16.4957L7.13859 16.374C7.17915 16.3875 7.2062 16.3875 7.24676 16.3875L7.26028 16.8202ZM4.79944 23.1345C4.33972 23.1345 3.9476 23.4861 3.89352 23.9323H3.4338C3.40676 23.77 3.33915 23.6348 3.21746 23.5266L5.38084 19.5785L4.85352 23.121C4.84 23.1345 4.82648 23.1345 4.79944 23.1345ZM5.38084 28.57L3.21746 24.6218C3.33915 24.5137 3.40676 24.3785 3.4338 24.2162H3.90704C3.96113 24.6759 4.35324 25.014 4.81296 25.014C4.82648 25.014 4.85352 25.014 4.86704 25.014L5.38084 28.57ZM5.85408 18.3075L6.16507 16.1711H6.19211C6.30028 16.1711 6.40845 16.1441 6.51662 16.1035L6.78704 16.5903L5.85408 18.3075ZM5.46197 19.0106L3.04169 23.4185C3.01465 23.4049 3.00112 23.4049 2.97408 23.3914L3.14986 21.8365L5.89465 16.1171L5.46197 19.0106ZM3.04169 24.7435L5.46197 29.1514L5.88113 32.0449L3.13634 26.3255L2.96056 24.7706C2.9876 24.7571 3.01465 24.7435 3.04169 24.7435ZM5.85408 29.8545L6.80056 31.5717L6.53014 32.0449C6.42197 32.0044 6.3138 31.9773 6.20563 31.9773H6.17859L5.85408 29.8545ZM7.26028 31.3283L7.24676 31.761C7.2062 31.761 7.17915 31.7745 7.13859 31.7745L7.07098 31.6528L7.26028 31.3283ZM7.09803 32.8968C7.09803 32.8968 7.09803 32.8833 7.09803 32.8968C7.15211 32.9103 7.21972 32.9238 7.28732 32.9238C7.32789 32.9238 7.38197 32.9103 7.42253 32.9103V32.9373L7.59831 33.3295L7.05746 33.1402C7.08451 33.059 7.09803 32.9779 7.09803 32.8968ZM7.44958 31.788L7.4631 30.9633L9.85634 26.7987L12.209 29.4759C12.1279 29.5706 12.0738 29.7058 12.0738 29.841C12.0738 29.8951 12.0873 29.9492 12.1008 30.0033L7.76056 32.0585C7.70648 31.9097 7.58479 31.8286 7.44958 31.788ZM7.72 32.7345L9.81577 34.1002L7.99042 33.4647L7.9769 33.4511L7.67943 32.7751C7.70648 32.748 7.70648 32.7345 7.72 32.7345ZM7.82817 32.5587C7.85521 32.4911 7.86873 32.4235 7.86873 32.3424C7.86873 32.3018 7.86873 32.2478 7.85521 32.2072L12.1955 30.1385C12.3172 30.3278 12.547 30.4359 12.7634 30.3954L14.6428 35.7768L10.6135 34.3706L7.82817 32.5587ZM14.7645 36.1418L15.1025 37.1018C15.0485 37.1289 14.9944 37.1695 14.9538 37.21L11.6006 35.0196L14.7645 36.1418ZM15.2107 38.17C15.3594 38.2241 15.5217 38.1971 15.6569 38.1159L19.862 43.308C19.8079 43.3621 19.7808 43.4297 19.7538 43.4973L12.5606 42.5103C12.5606 42.3616 12.5065 42.2128 12.3983 42.1047L12.6552 41.7531L15.2107 38.17ZM12.52 42.7266L19.6997 43.7272C19.6997 43.9841 19.8484 44.214 20.0918 44.3086L19.9972 44.7007L19.9701 44.8224L13.6017 43.3351L12.52 42.7537V42.7266ZM20.0377 43.1864L15.8056 37.9942C15.8462 37.9402 15.8868 37.8861 15.9138 37.8185L17.4687 38.1024L21.4845 42.5238L20.7138 43.2269C20.511 43.0647 20.2406 43.0511 20.0242 43.1728V43.1864H20.0377ZM20.3082 44.3627H20.3487C20.538 44.3627 20.7273 44.268 20.849 44.1193L23.7425 45.6878L20.2 44.863L20.3082 44.3627ZM21.6332 42.6726L22.4986 43.6326H20.9572C20.9437 43.5514 20.9166 43.4568 20.8625 43.3892L21.6332 42.6726ZM21.8225 42.4833L24.6349 39.8331C24.8242 39.9818 25.0946 39.9818 25.2975 39.8331L28.1099 42.4697L27.0823 43.6055H24.973H22.8637L21.8225 42.4833ZM28.2992 42.6726L29.0563 43.3892C29.0023 43.4568 28.9752 43.5514 28.9617 43.6326H27.4203L28.2992 42.6726ZM29.5837 43.1052C29.4485 43.1052 29.3132 43.1593 29.1915 43.2404L28.4208 42.5238L32.4366 38.1024L33.9916 37.8049C34.0186 37.8726 34.0456 37.9266 34.0997 37.9807L29.8811 43.1728C29.7865 43.1187 29.6783 43.0782 29.5701 43.0782L29.5837 43.1052ZM29.7324 44.863L26.1899 45.6878L29.0834 44.1193C29.2051 44.268 29.3808 44.3627 29.5837 44.3627H29.6242L29.7324 44.863ZM30.2192 43.7272L37.3989 42.7266V42.7537L36.3172 43.3351L29.9487 44.8224L29.9217 44.7007L29.827 44.3086C30.0704 44.214 30.2192 43.9841 30.2192 43.7272ZM37.3583 42.5103L30.1651 43.4973C30.138 43.4297 30.0975 43.3621 30.0569 43.308L34.262 38.1159C34.3972 38.1971 34.5594 38.2241 34.7082 38.17L37.2637 41.7531L37.5206 42.1047C37.4259 42.2128 37.3718 42.348 37.3583 42.5103ZM35.1544 36.1554L38.3183 35.0196L34.9786 37.21C34.938 37.1695 34.8839 37.1289 34.8299 37.1018L35.1544 36.1554ZM35.2761 35.8038L37.1555 30.4089C37.3854 30.4495 37.6017 30.3548 37.7234 30.152L42.0637 32.2207C42.0366 32.3289 42.0501 32.4506 42.0907 32.5587L39.3053 34.3706L35.2761 35.8038ZM42.1989 32.7345C42.2124 32.748 42.2259 32.7616 42.2394 32.7751L41.942 33.4511L41.9285 33.4647L40.1031 34.1002L42.1989 32.7345ZM42.1313 32.0449L37.791 29.9897C37.8045 29.9356 37.818 29.8816 37.818 29.8275C37.818 29.6923 37.7639 29.5706 37.6828 29.4624L40.049 26.7852L42.4423 30.9497L42.4558 31.7745C42.3341 31.8286 42.2124 31.9097 42.1313 32.0449ZM42.4963 32.9373V32.9103C42.5369 32.9238 42.591 32.9238 42.6315 32.9238C42.6992 32.9238 42.7668 32.9103 42.8208 32.8833V32.8968C42.8208 32.9779 42.8344 33.059 42.8614 33.1266L42.3206 33.3159L42.4963 32.9373ZM42.6586 31.3418L42.8479 31.6664L42.7803 31.788C42.7397 31.7745 42.7127 31.7745 42.6721 31.7745L42.6586 31.3418ZM44.0648 29.868L43.7538 32.0044H43.7268C43.6186 32.0044 43.5104 32.0314 43.4023 32.072L43.1318 31.5987L44.0648 29.868ZM44.4569 29.1649L46.8907 24.7571C46.9177 24.7706 46.9313 24.7706 46.9583 24.7841L46.7825 26.3255L44.0377 32.0449L44.4569 29.1649ZM46.8907 23.432L44.4569 19.0106L44.0377 16.1171L46.7825 21.8365L46.9583 23.3914C46.9313 23.4049 46.9042 23.4049 46.8907 23.432ZM45.3493 13.7373L45.3628 13.7509L45.3899 13.7914C45.2682 13.9672 45.2276 14.1835 45.2682 14.3864L44.4704 14.7379C44.2946 14.4945 44.0242 14.3458 43.7268 14.3458C43.6456 14.3458 43.5645 14.3593 43.4834 14.3864L39.8597 7.72044L44.6327 12.7503L45.3493 13.7373ZM41.9014 9.53227L39.4676 6.97678L39.0214 6.16551L41.9014 9.53227ZM38.6023 5.89509L38.8051 6.27368L38.5347 5.98974C38.5617 5.97622 38.5752 5.93565 38.6023 5.89509ZM39.1837 6.9903L43.1994 14.508C43.1048 14.5757 43.0237 14.6703 42.9561 14.7649L42.4828 14.6027L42.1448 14.481L38.3859 6.16551L39.1837 6.9903ZM38.0073 6.2872C38.0749 6.2872 38.129 6.27368 38.1966 6.26016L41.7662 14.3593L41.7392 14.3458L39.1025 13.4128L35.0732 10.7762C35.1679 10.5599 35.1273 10.303 34.9651 10.1407L37.7369 6.23312C37.818 6.26016 37.9127 6.2872 38.0073 6.2872ZM37.6017 5.13791C37.5611 5.16495 37.5341 5.20551 37.507 5.23255L37.1149 5.01622L37.6017 5.13791ZM37.0879 4.75931L36.2901 4.58354L34.4513 3.58298L37.0879 4.75931ZM30.2192 2.20382C30.449 2.24439 30.6924 2.14974 30.8411 1.97396L31.6659 2.33903L35.4789 4.39424L30.0028 3.10974L30.2192 2.20382ZM29.5837 1.66298C29.6242 1.81171 29.7189 1.94692 29.8406 2.04157L29.8811 2.08213H29.8946C29.9217 2.09565 29.9623 2.12269 29.9893 2.13622L29.7865 3.04213L26.5414 2.28495L25.7707 2.08213C25.7707 2.06861 25.7707 2.06861 25.7707 2.05509L29.5837 1.66298ZM27.4203 1.58185L25.7166 1.73058C25.7031 1.6765 25.6761 1.63593 25.649 1.58185H27.4203ZM25.649 2.42016L28.9887 4.23199C28.9752 4.25903 28.9752 4.2996 28.9617 4.32664H27.231L25.5814 2.51481C25.6084 2.48776 25.6355 2.46072 25.649 2.42016ZM24.5268 2.7041C24.7972 2.87988 25.1352 2.87988 25.4056 2.7041L26.893 4.34016H24.973H23.053L24.5268 2.7041ZM24.3239 2.51481L22.6879 4.32664H20.9572C20.9572 4.2996 20.9437 4.25903 20.9301 4.23199L24.2563 2.43368C24.2834 2.46072 24.3104 2.48776 24.3239 2.51481ZM24.2428 1.59537C24.2158 1.63593 24.2023 1.69002 24.1752 1.7441L22.4715 1.59537H24.2428ZM20.0107 2.09565H20.0242L20.0648 2.05509C20.1865 1.96044 20.2811 1.82523 20.3217 1.6765L24.1346 2.06861C24.1346 2.08213 24.1346 2.08213 24.1346 2.09565L23.3639 2.29847L20.1189 3.05565L19.9025 2.14974C19.9431 2.13622 19.9837 2.10917 20.0107 2.09565ZM19.0642 1.97396C19.213 2.14974 19.4563 2.24439 19.6862 2.20382L19.9025 3.09622L14.4265 4.38072L18.2394 2.33903L19.0642 1.97396ZM15.4676 3.56946L13.6287 4.57002L12.831 4.75931L15.4676 3.56946ZM12.8039 5.02974L12.4118 5.24608C12.3848 5.20551 12.3442 5.17847 12.3172 5.15143L12.8039 5.02974ZM11.9115 6.2872C12.0062 6.2872 12.1008 6.26016 12.182 6.23312L14.9538 10.1407C14.7915 10.3165 14.7375 10.5599 14.8456 10.7762L10.8163 13.3993L8.1662 14.3323L8.13915 14.3458L11.7087 6.24664C11.7763 6.2872 11.8439 6.2872 11.9115 6.2872ZM11.3166 5.89509C11.3301 5.93565 11.3572 5.96269 11.3707 6.00326L11.1003 6.2872L11.3166 5.89509ZM11.5194 6.16551L7.76056 14.4945L7.43606 14.6162L6.97634 14.7785C6.90873 14.6838 6.8276 14.5892 6.73296 14.5216L10.7487 7.00382L11.5194 6.16551ZM10.8975 6.16551L10.4513 6.97678L8.01746 9.53227L10.8975 6.16551ZM4.52901 13.7238L4.54253 13.7103L5.2862 12.7503L10.0592 7.72044L6.43549 14.3864C6.35436 14.3593 6.27324 14.3458 6.19211 14.3458C5.89465 14.3458 5.62422 14.4945 5.44845 14.7379L4.62366 14.3593C4.63718 14.3052 4.63718 14.2511 4.63718 14.1971C4.63718 14.0483 4.59662 13.8996 4.50197 13.7644L4.52901 13.7238ZM3.9476 14.9137C4.17746 14.9002 4.3938 14.7649 4.51549 14.5621L5.32676 14.9542C5.19155 15.3193 5.31324 15.7385 5.62422 15.9683L3.21746 21.0117L3.9476 14.9137ZM3.42028 17.0095L2.92 21.6607L2.23042 23.094L3.42028 17.0095ZM2.83887 22.472L2.74422 23.3509C2.67662 23.3509 2.60901 23.3644 2.54141 23.3914C2.51436 23.3644 2.4738 23.3373 2.43324 23.3103L2.83887 22.472ZM2.54141 24.7706C2.60901 24.7976 2.67662 24.7976 2.74422 24.8111L2.83887 25.69L2.44676 24.8652C2.4738 24.8247 2.51436 24.7976 2.54141 24.7706ZM2.23042 25.0545L2.92 26.4878L3.42028 31.139L2.23042 25.0545ZM3.96112 33.2078L3.23098 27.1233L5.63775 32.1666C5.32676 32.3965 5.20507 32.8156 5.34028 33.1807L4.54253 33.5458C4.40732 33.3565 4.19098 33.2348 3.96112 33.2078ZM4.55606 34.4247L4.54253 34.4111L4.51549 34.3706C4.61014 34.2489 4.6507 34.1002 4.6507 33.9379C4.6507 33.8838 4.63718 33.8297 4.63718 33.7756L5.46197 33.4106C5.63774 33.654 5.90817 33.8027 6.20563 33.8027C6.28676 33.8027 6.36789 33.7892 6.44901 33.7621L10.0727 40.428L5.29972 35.3982L4.55606 34.4247ZM8.03098 38.6162L10.4648 41.1717L10.911 41.983L8.03098 38.6162ZM11.3301 42.2534L11.1138 41.8748L11.3842 42.1587C11.3572 42.1723 11.3437 42.2128 11.3301 42.2534ZM10.7352 41.1582L6.71944 33.6404C6.81408 33.5728 6.89521 33.4782 6.96282 33.3835L7.42253 33.5458L7.74704 33.6675L11.5059 41.983L10.7352 41.1582ZM11.9115 41.8613C11.8439 41.8613 11.7899 41.8748 11.7223 41.8883L8.15267 33.8027L8.17972 33.8162L10.8163 34.7492L14.8456 37.3858C14.751 37.6021 14.7915 37.859 14.9538 38.0213L12.182 41.9424C12.1008 41.8883 12.0062 41.8748 11.9115 41.8613ZM12.3172 43.0241C12.3577 42.9971 12.3848 42.9565 12.4118 42.9295L12.8039 43.1458L12.3172 43.0241ZM12.831 43.3892L13.6287 43.5785L15.4676 44.5655L12.831 43.3892ZM19.6997 45.9582C19.4699 45.9176 19.2265 46.0123 19.0777 46.188L18.253 45.823L14.44 43.7813L19.9161 45.0658L19.6997 45.9582ZM20.3217 46.499C20.2811 46.3503 20.1865 46.2151 20.0648 46.1204L20.0242 46.0799H20.0107C19.9837 46.0664 19.9431 46.0393 19.9161 46.0258L20.1324 45.1199L23.3775 45.8771L24.1482 46.0799C24.1482 46.0934 24.1482 46.0934 24.1482 46.1069L20.3217 46.499ZM22.4851 46.5666L24.1887 46.4179C24.2023 46.472 24.2293 46.5126 24.2563 46.5666H22.4851ZM24.2699 45.7283L20.9301 43.93C20.9437 43.903 20.9437 43.8624 20.9572 43.8354H22.6879L24.3375 45.6472C24.3104 45.6607 24.2834 45.6878 24.2699 45.7283ZM25.4056 45.4714C25.1352 45.2957 24.7972 45.2957 24.5268 45.4714L23.0394 43.8354H24.9594H26.8794L25.4056 45.4714ZM25.5949 45.6337L27.231 43.8218H28.9617C28.9617 43.8489 28.9752 43.8895 28.9887 43.9165L25.6625 45.7148C25.6355 45.6878 25.6084 45.6607 25.5949 45.6337ZM25.6761 46.5666C25.7031 46.5261 25.7166 46.472 25.7437 46.4179L27.4473 46.5666H25.6761ZM29.9082 46.0528H29.8946L29.8541 46.0934C29.7324 46.188 29.6377 46.3233 29.5972 46.472L25.7842 46.0799C25.7842 46.0664 25.7842 46.0664 25.7842 46.0528L26.5549 45.85L29.8 45.0928L30.0028 45.9988C29.9758 46.0123 29.9352 46.0393 29.9082 46.0528ZM30.8546 46.1745C30.7059 45.9987 30.4625 45.9041 30.2327 45.9447L30.0163 45.0523L35.4924 43.7678L31.6794 45.8095L30.8546 46.1745ZM34.4377 44.5655L36.2901 43.5785L37.0879 43.3892L34.4377 44.5655ZM37.1149 43.1323L37.507 42.9159C37.5341 42.9565 37.5746 42.9835 37.6017 43.0106L37.1149 43.1323ZM38.0073 41.8613C37.9127 41.8613 37.818 41.8883 37.7369 41.9289L34.9651 38.0078C35.1273 37.832 35.1814 37.5886 35.0732 37.3723L39.1025 34.7356L41.7392 33.8027L41.7662 33.7892L38.1966 41.8883C38.1425 41.8748 38.0749 41.8613 38.0073 41.8613ZM38.6023 42.2399C38.5887 42.1993 38.5617 42.1723 38.5482 42.1317L38.8186 41.8478L38.6023 42.2399ZM38.3994 41.9695L42.1583 33.654L42.4963 33.5323L42.9696 33.37C43.0372 33.4647 43.1183 33.5593 43.213 33.6269L39.1972 41.1447L38.3994 41.9695ZM39.0349 41.9695L39.4811 41.1582L41.9149 38.6027L39.0349 41.9695ZM45.3628 34.4382L45.3493 34.4517L44.6327 35.3982L39.8597 40.428L43.4834 33.7621C43.5645 33.7892 43.6456 33.8027 43.7268 33.8027C44.0242 33.8027 44.2946 33.654 44.4704 33.4106L45.2682 33.8162C45.2141 34.019 45.2546 34.2354 45.3899 34.4111L45.3628 34.4382ZM45.9442 33.2483C45.7144 33.2618 45.498 33.3971 45.3763 33.5864L44.5921 33.1807C44.7273 32.8156 44.6056 32.3965 44.2946 32.1666L46.7014 27.1233L45.9442 33.2483ZM46.4986 31.139L46.9989 26.4878L47.6884 25.0545L46.4986 31.139ZM47.1746 24.7976C47.2423 24.7976 47.3099 24.7841 47.3775 24.7571C47.4045 24.7841 47.4451 24.8111 47.4856 24.8382L47.0935 25.663L47.1746 24.7976ZM47.08 22.472L47.4721 23.2968C47.4315 23.3238 47.4045 23.3509 47.3639 23.3779C47.2963 23.3509 47.2287 23.3509 47.1611 23.3373L47.08 22.472ZM46.9989 21.6607L46.4986 17.0095L47.6749 23.094L46.9989 21.6607Z" fill="#0432A9"/>
</svg>
