<svg width="48" height="48" viewBox="0 0 48 48" fill="none" xmlns="http://www.w3.org/2000/svg">
<circle cx="24" cy="24" r="24" fill="#101E41"/>
<path d="M35.3679 11.1428V11.1429C35.2616 11.1431 35.1571 11.1714 35.0651 11.2247L35.0647 11.2243C35.0647 11.2243 33.409 12.1739 32.7061 12.5621C32.13 12.8803 32.0881 13.2633 32.0915 13.3927C32.0881 13.5221 32.13 13.905 32.7061 14.2232C33.409 14.6114 35.0647 15.5611 35.0647 15.5611L35.0651 15.5605C35.1571 15.6139 35.2616 15.6421 35.3679 15.6424C35.5286 15.6424 35.6827 15.5785 35.7963 15.4649C35.9099 15.3513 35.9737 15.1972 35.9737 15.0365C35.9736 14.9302 35.9455 14.8257 35.8922 14.7337C35.839 14.6417 35.7624 14.5653 35.6703 14.5122L35.6707 14.5113L33.6307 13.3926L35.6708 12.2739L35.6703 12.273C35.7625 12.2199 35.839 12.1435 35.8923 12.0515C35.9456 11.9595 35.9737 11.855 35.9738 11.7487C35.9738 11.588 35.91 11.4339 35.7964 11.3203C35.6828 11.2067 35.5287 11.1428 35.368 11.1428L35.3679 11.1428ZM21.4957 11.4671C21.2222 11.4671 20.9513 11.521 20.6986 11.6257C20.4458 11.7304 20.2162 11.8838 20.0228 12.0772C19.8293 12.2706 19.6759 12.5003 19.5712 12.753C19.4665 13.0057 19.4126 13.2766 19.4126 13.5501C19.4126 13.8237 19.4665 14.0946 19.5712 14.3473C19.6759 14.6 19.8293 14.8297 20.0227 15.0231C20.2162 15.2165 20.4458 15.37 20.6985 15.4746C20.9513 15.5793 21.2222 15.6332 21.4957 15.6332C21.7693 15.6332 22.0401 15.5793 22.2929 15.4746C22.5456 15.3699 22.7752 15.2165 22.9686 15.0231C23.1621 14.8296 23.3155 14.6 23.4202 14.3473C23.5248 14.0945 23.5787 13.8237 23.5787 13.5501C23.5787 12.9977 23.3592 12.4679 22.9686 12.0772C22.578 11.6866 22.0482 11.4671 21.4957 11.4671ZM42.9014 18.4109C42.6411 18.4113 42.3845 18.4725 42.1521 18.5896C41.9197 18.7068 41.7179 18.8767 41.5628 19.0857L41.5599 19.0835L38.2511 23.7359L38.2571 23.7378C38.0446 24.0227 37.9286 24.368 37.9259 24.7234C37.9286 25.0787 38.0447 25.424 38.2571 25.7088L38.2511 25.7109L41.5599 30.3631L41.5628 30.3611C41.7179 30.5701 41.9197 30.7399 42.1521 30.857C42.3846 30.9742 42.6411 31.0354 42.9014 31.0358C43.1207 31.0358 43.3379 30.9926 43.5405 30.9087C43.7431 30.8247 43.9272 30.7017 44.0823 30.5467C44.2374 30.3916 44.3604 30.2075 44.4443 30.0049C44.5283 29.8023 44.5715 29.5851 44.5715 29.3658C44.5708 29.0216 44.4638 28.6861 44.2651 28.4051L44.267 28.4037L41.6475 24.7234L44.267 21.0431L44.2651 21.0416C44.4637 20.7606 44.5708 20.4251 44.5715 20.081C44.5715 19.8617 44.5283 19.6445 44.4444 19.4419C44.3604 19.2392 44.2374 19.0551 44.0823 18.9001C43.9273 18.745 43.7432 18.622 43.5405 18.538C43.3379 18.4541 43.1207 18.4109 42.9014 18.4109V18.4109ZM19.3218 33.567C18.8586 33.567 18.4832 33.9608 18.4831 34.4466C18.4833 34.7819 18.6653 35.0879 18.9522 35.2357C23.8107 38.2829 28.0808 38.0063 28.0808 38.0063C28.0808 38.0063 32.3509 38.2829 37.2093 35.2357C37.4963 35.0879 37.6783 34.7819 37.6785 34.4466C37.6784 33.9608 37.3029 33.567 36.8398 33.567C36.6629 33.5675 36.4906 33.6263 36.3476 33.7355C36.3476 33.7355 36.2744 33.7842 36.2744 33.7842C36.2744 33.7842 32.631 36.3461 28.0808 36.2677C23.5307 36.3461 19.8871 33.7842 19.8871 33.7842C19.8871 33.7842 19.814 33.7355 19.814 33.7355C19.671 33.6263 19.4987 33.5673 19.3218 33.567Z" fill="white"/>
<path d="M30.7171 18.3386C30.5623 18.3398 30.4076 18.3476 30.2535 18.3621C30.1697 18.3703 30.086 18.3804 30.0027 18.3925C29.9062 18.4045 29.8101 18.4191 29.7144 18.4363C29.6372 18.4519 29.5603 18.4691 29.4838 18.4881C29.3836 18.5107 29.2841 18.5361 29.1853 18.5644C29.115 18.5862 29.0452 18.6094 28.9758 18.6341C28.8738 18.668 28.7729 18.7049 28.6731 18.7448C28.6089 18.772 28.5451 18.8005 28.4819 18.8303C28.3804 18.8756 28.2804 18.924 28.1818 18.9755C28.1242 19.0072 28.0671 19.0399 28.0106 19.0737C27.9103 19.1309 27.8119 19.1914 27.7155 19.2549C27.6653 19.2895 27.6156 19.325 27.5666 19.3614C27.4685 19.431 27.3728 19.5038 27.2796 19.5798C27.2367 19.6163 27.1945 19.6535 27.1528 19.6913C27.0585 19.7733 26.967 19.8586 26.8787 19.9469C26.8424 19.9847 26.8068 20.0229 26.7717 20.0617C26.6838 20.1549 26.5993 20.2512 26.5183 20.3505C26.4873 20.3901 26.4568 20.4301 26.427 20.4706C26.3472 20.5741 26.2713 20.6805 26.1992 20.7895C26.1743 20.8291 26.1498 20.869 26.1259 20.9093C26.0552 21.0227 25.9887 21.1387 25.9266 21.257C25.9065 21.2972 25.887 21.3377 25.868 21.3784C25.808 21.5002 25.7526 21.6242 25.7019 21.7501C25.6869 21.7898 25.6723 21.8297 25.6582 21.8697C25.6099 21.9986 25.5666 22.1294 25.5283 22.2616C25.5174 22.3021 25.5071 22.3427 25.4972 22.3833C25.4618 22.517 25.4316 22.6519 25.4066 22.7878C25.4001 22.8283 25.3939 22.8689 25.3883 22.9095C25.3662 23.0472 25.3494 23.1857 25.3381 23.3247C25.3307 23.4133 25.3256 23.502 25.3226 23.5908H25.3213V23.626C25.3196 23.6634 25.3183 23.701 25.3173 23.7385C25.3178 23.7532 25.3184 23.7679 25.319 23.7825H25.3195H25.3213V29.4282H25.322C25.327 29.8562 25.5005 30.265 25.8049 30.5659C26.1092 30.8668 26.5199 31.0356 26.9479 31.0358C27.3759 31.0356 27.7865 30.8667 28.0908 30.5658C28.3951 30.2649 28.5686 29.8562 28.5736 29.4282H28.5745V29.4092V23.6015C28.6044 23.1353 28.7854 22.6916 29.09 22.3374C29.3946 21.9833 29.8064 21.738 30.2628 21.6388C30.2682 21.6374 30.2735 21.6361 30.2789 21.6347C30.3325 21.6241 30.3865 21.6156 30.4408 21.6091C30.4583 21.6062 30.476 21.6036 30.4936 21.6012C30.5373 21.5973 30.5811 21.5948 30.625 21.5936C30.6556 21.5914 30.6863 21.5899 30.717 21.589C30.7171 21.589 30.7171 21.589 30.7172 21.589C30.7523 21.5899 30.7873 21.5917 30.8223 21.5943C30.8615 21.5954 30.9006 21.5977 30.9396 21.601C30.9604 21.6038 30.9812 21.607 31.0019 21.6104C31.0532 21.6167 31.1044 21.6248 31.1551 21.6347C31.162 21.6364 31.1688 21.6381 31.1756 21.6399C31.2393 21.6536 31.3022 21.6701 31.3643 21.6894C31.7772 21.8204 32.1409 22.073 32.4078 22.4142C32.6746 22.7553 32.8321 23.1692 32.8597 23.6015V29.4092V29.4282H32.8606C32.8656 29.8561 33.0391 30.2649 33.3434 30.5658C33.6477 30.8667 34.0583 31.0356 34.4863 31.0358C34.9143 31.0356 35.325 30.8668 35.6293 30.5659C35.9337 30.265 36.1072 29.8562 36.1122 29.4282H36.1129V23.7825H36.1147H36.1154C36.116 23.7678 36.1166 23.7532 36.117 23.7385C36.1161 23.701 36.1148 23.6634 36.113 23.6259V23.5908H36.1118C36.1088 23.502 36.1036 23.4133 36.0963 23.3248C36.0849 23.1844 36.0679 23.0446 36.0456 22.9055C36.0402 22.8669 36.0343 22.8283 36.0281 22.7898C36.003 22.6527 35.9725 22.5166 35.9368 22.3819C35.9271 22.3417 35.9169 22.3017 35.9062 22.2618C35.8679 22.1295 35.8245 21.9987 35.7762 21.8697C35.7621 21.8297 35.7476 21.7899 35.7326 21.7502C35.6816 21.6235 35.6258 21.4988 35.5654 21.3763C35.5468 21.3366 35.5278 21.2971 35.5083 21.2579C35.446 21.1391 35.3793 21.0227 35.3083 20.9088C35.2845 20.8687 35.2601 20.829 35.2352 20.7895C35.1631 20.6805 35.0872 20.5741 35.0074 20.4706C34.9775 20.4301 34.9471 20.3901 34.9161 20.3505C34.8351 20.2512 34.7506 20.1549 34.6627 20.0617C34.6276 20.0229 34.5919 19.9846 34.5557 19.9469C34.4673 19.8585 34.3759 19.7733 34.2816 19.6913C34.2399 19.6535 34.1976 19.6163 34.1548 19.5798C34.0613 19.5036 33.9654 19.4306 33.867 19.3608C33.8184 19.3248 33.7692 19.2896 33.7193 19.2553C33.6224 19.1913 33.5234 19.1305 33.4225 19.073C33.3666 19.0395 33.3101 19.0071 33.2531 18.9757C33.1542 18.9241 33.0537 18.8755 32.9518 18.83C32.8889 18.8004 32.8254 18.7719 32.7613 18.7448C32.6615 18.7049 32.5606 18.668 32.4586 18.6341C32.3892 18.6094 32.3194 18.5862 32.2491 18.5644C32.1503 18.5361 32.0508 18.5107 31.9506 18.4881C31.8741 18.4691 31.7972 18.4519 31.7199 18.4363C31.6243 18.4191 31.5282 18.4045 31.4317 18.3925C31.3484 18.3804 31.2647 18.3703 31.1809 18.3621C31.0267 18.3476 30.8721 18.3398 30.7172 18.3386C30.7172 18.3386 30.7172 18.3386 30.7171 18.3386L30.7171 18.3386ZM5.05514 18.4464C4.62375 18.4464 4.21003 18.6178 3.90499 18.9228C3.59994 19.2279 3.42857 19.6416 3.42857 20.073C3.42903 20.1936 3.44291 20.3139 3.46995 20.4314L3.46643 20.4322L5.77335 29.8361L5.77771 29.835C5.87113 30.1794 6.07523 30.4836 6.35855 30.7006C6.64187 30.9176 6.98869 31.0353 7.34556 31.0358C7.6907 31.0354 8.02675 30.9252 8.30513 30.7212C8.58351 30.5172 8.78978 30.2299 8.89411 29.9009L8.89616 29.9109L10.6156 25.0036L12.3351 29.9109L12.3371 29.9009C12.4415 30.2299 12.6477 30.5172 12.9261 30.7212C13.2045 30.9252 13.5406 31.0354 13.8857 31.0358C14.2426 31.0353 14.5894 30.9176 14.8727 30.7006C15.156 30.4836 15.3601 30.1794 15.4535 29.835L15.4579 29.8361L17.7648 20.4322L17.7613 20.4314C17.7884 20.3139 17.8022 20.1936 17.8027 20.073C17.8027 19.6416 17.6313 19.2279 17.3263 18.9228C17.0212 18.6178 16.6075 18.4464 16.1761 18.4464C15.7897 18.4469 15.4161 18.5849 15.1222 18.8358C14.8283 19.0866 14.6333 19.4339 14.5721 19.8155L14.5684 19.8148L13.6129 23.6987L12.1514 19.5239L12.146 19.5259C12.145 19.5235 12.144 19.5211 12.143 19.5187C12.1278 19.4773 12.1109 19.4366 12.0923 19.3966C12.0882 19.387 12.084 19.3775 12.0796 19.368C12.0606 19.3289 12.04 19.2906 12.0179 19.2532C12.0126 19.2437 12.0072 19.2343 12.0017 19.225C11.9792 19.1886 11.9552 19.1531 11.9299 19.1186C11.9233 19.1091 11.9166 19.0997 11.9098 19.0904C11.8845 19.0574 11.8581 19.0255 11.8304 18.9946C11.8217 18.9845 11.8129 18.9745 11.804 18.9647C11.7762 18.9352 11.7474 18.9068 11.7175 18.8795C11.7076 18.8701 11.6976 18.8608 11.6874 18.8516C11.6575 18.8256 11.6267 18.8008 11.5949 18.7771C11.583 18.7678 11.571 18.7586 11.5588 18.7496C11.528 18.7279 11.4964 18.7073 11.4641 18.6878C11.4498 18.6787 11.4353 18.6699 11.4206 18.6612C11.389 18.6435 11.3569 18.6269 11.3241 18.6113C11.3078 18.6031 11.2913 18.5951 11.2747 18.5874C11.2433 18.5737 11.2114 18.5611 11.1792 18.5494C11.16 18.542 11.1407 18.535 11.1213 18.5283C11.0899 18.5183 11.0582 18.5093 11.0263 18.5013C11.0057 18.4956 10.9849 18.4903 10.9641 18.4854C10.933 18.4789 10.9018 18.4732 10.8703 18.4685C10.8477 18.4646 10.8251 18.4612 10.8023 18.4582C10.7729 18.4551 10.7434 18.4528 10.7138 18.4514C10.6813 18.4487 10.6486 18.4471 10.616 18.4464C10.6157 18.4464 10.6155 18.4464 10.6153 18.4464C10.5819 18.4471 10.5485 18.4488 10.5152 18.4515C10.4869 18.453 10.4586 18.4552 10.4304 18.4581C10.4059 18.4613 10.3815 18.4649 10.3572 18.4692C10.3274 18.4737 10.2978 18.479 10.2684 18.4851C10.2465 18.4902 10.2248 18.4958 10.2032 18.5017C10.1718 18.5097 10.1408 18.5185 10.11 18.5283C10.0905 18.535 10.0712 18.542 10.0521 18.5494C10.0198 18.5611 9.98796 18.5737 9.95651 18.5874C9.9399 18.5951 9.92341 18.603 9.90707 18.6113C9.87443 18.6268 9.84231 18.6434 9.81078 18.6611C9.79566 18.67 9.78069 18.6792 9.76588 18.6887C9.73425 18.7078 9.70328 18.7279 9.67302 18.7491C9.66026 18.7585 9.64765 18.7681 9.63517 18.7779C9.60384 18.8013 9.57336 18.8259 9.54379 18.8516C9.53366 18.8607 9.52364 18.87 9.51374 18.8795C9.4839 18.9068 9.4551 18.9351 9.42737 18.9645C9.41822 18.9747 9.40918 18.985 9.40028 18.9953C9.37294 19.0259 9.34676 19.0574 9.3218 19.0899C9.31464 19.0997 9.30759 19.1095 9.30065 19.1195C9.2756 19.1537 9.2519 19.1888 9.2296 19.2249C9.22396 19.2344 9.21843 19.2441 9.21299 19.2538C9.19111 19.2909 9.17072 19.3289 9.15186 19.3676C9.14731 19.3775 9.14285 19.3874 9.1385 19.3973C9.12015 19.437 9.10341 19.4775 9.08831 19.5185C9.08729 19.521 9.08626 19.5234 9.08524 19.5259L9.07977 19.5239L7.61833 23.6987L6.66283 19.8147L6.65911 19.8155C6.59794 19.4339 6.40293 19.0866 6.10902 18.8358C5.81511 18.5849 5.44149 18.4469 5.05509 18.4464L5.05514 18.4464ZM21.562 18.4465C21.1355 18.4468 20.7262 18.6146 20.4223 18.9138C20.1183 19.2129 19.944 19.6195 19.9368 20.0459H19.9354V20.0731V29.4092V29.5212H19.9394C19.9678 29.9322 20.151 30.3171 20.4522 30.5982C20.7534 30.8794 21.15 31.0357 21.562 31.0358C21.9737 31.0353 22.3699 30.8788 22.6707 30.5977C22.9715 30.3166 23.1545 29.9319 23.1829 29.5212H23.1885V29.4092V20.0731V20.0459H23.1876C23.1805 19.6194 23.0061 19.2128 22.7021 18.9136C22.398 18.6144 21.9886 18.4467 21.562 18.4465H21.562Z" fill="#FBC509"/>
</svg>
