<svg width="48" height="48" viewBox="0 0 48 48" fill="none" xmlns="http://www.w3.org/2000/svg">
<path d="M12.9524 29.7524L1.52381 33.1809L1.14285 11.4667L12.5714 8.79999L12.9524 29.7524Z" fill="#8400FD"/>
<path d="M2.28571 33.9428C1.79048 33.9428 1.33333 33.7904 0.914286 33.5238C0.342857 33.1428 0 32.5333 0 31.8857V12.1524C0 11.2 0.72381 10.4 1.71429 10.1714L11.0476 8.07616C11.7714 7.92378 12.5333 8.03807 13.1429 8.45711C13.7524 8.87616 14.0952 9.52378 14.0952 10.2095V29.3714C14.0952 30.3238 13.3714 31.2 12.3429 31.4666L2.93333 33.8666C2.70476 33.9047 2.51429 33.9428 2.28571 33.9428ZM10.6286 10.4C10.5143 10.4 10.3619 10.4 10.2476 10.4381L3.00952 12.2666C2.3619 12.419 1.86667 13.0285 1.86667 13.7143V30.8571C1.86667 31.3143 2.09524 31.7714 2.47619 32.0381C2.85714 32.3047 3.31429 32.419 3.77143 32.2666L11.0857 30.1714C11.7714 29.9809 12.2667 29.3333 12.2667 28.6095V12C12.2667 11.5047 12.0381 11.0476 11.6571 10.7428C11.3143 10.5143 10.9714 10.4 10.6286 10.4Z" fill="white"/>
<path d="M20.9524 36.9905L9.52381 40.419L9.14285 18.7048L20.5714 16.0381L20.9524 36.9905Z" fill="#02FFDB"/>
<path d="M10.5524 40.7619C10.0952 40.7619 9.63809 40.6095 9.25714 40.3428C8.72381 39.9619 8.38095 39.3905 8.38095 38.7428V19.6571C8.38095 18.7428 9.06666 17.9428 10.019 17.7524L18.8571 15.7333C19.5429 15.5809 20.2667 15.7333 20.8381 16.1143C21.4095 16.5333 21.7143 17.1428 21.7143 17.7905V36.3428C21.7143 37.2952 21.0286 38.1333 20.0381 38.3619L11.1238 40.6857C10.9333 40.7238 10.7429 40.7619 10.5524 40.7619ZM18.6286 17.2571C18.5143 17.2571 18.3619 17.2571 18.2476 17.2952L11.0095 19.1238C10.3619 19.2762 9.86667 19.8857 9.86667 20.5714V37.7143C9.86667 38.1714 10.0952 38.6286 10.4762 38.8952C10.8571 39.1619 11.3143 39.2762 11.7714 39.1238L19.0857 37.0286C19.7714 36.8381 20.2667 36.1905 20.2667 35.4667V18.8571C20.2667 18.3619 20.0381 17.9047 19.6571 17.6C19.3143 17.3714 18.9714 17.2571 18.6286 17.2571Z" fill="white"/>
<path d="M29.7143 30.1334L18.2857 33.5619L17.9048 11.8476L29.3333 9.18097L29.7143 30.1334Z" fill="#8400FD"/>
<path d="M19.3143 33.9428C18.8571 33.9428 18.4 33.7904 18.019 33.5238C17.4857 33.1428 17.1429 32.5714 17.1429 31.9238V12.7619C17.1429 11.8476 17.8286 11.0476 18.7809 10.8571L27.5809 8.83806C28.2667 8.68568 28.9905 8.83806 29.5619 9.21901C30.1333 9.63806 30.4381 10.2476 30.4381 10.8952V29.4857C30.4381 30.4381 29.7524 31.2762 28.7619 31.5047L19.8857 33.8285C19.6952 33.9047 19.5048 33.9428 19.3143 33.9428ZM27.3905 10.4C27.2762 10.4 27.1238 10.4 27.0095 10.4381L19.7333 12.2666C19.0857 12.419 18.5905 13.0285 18.5905 13.7142V30.8571C18.5905 31.3142 18.819 31.7714 19.2 32.0381C19.5809 32.3047 20.0762 32.419 20.5333 32.2666L27.8095 30.1714C28.4952 29.9809 28.9905 29.3333 28.9905 28.6095V12C28.9905 11.5047 28.7619 11.0476 28.3809 10.7428C28.0762 10.5142 27.7333 10.4 27.3905 10.4Z" fill="white"/>
<path d="M38.4762 36.9905L27.0476 40.419L26.6667 18.7048L38.0952 16.0381L38.4762 36.9905Z" fill="#02FFDB"/>
<path d="M27.8095 40.7999C27.3143 40.7999 26.8571 40.6476 26.4381 40.3809C25.8667 39.9999 25.5238 39.3904 25.5238 38.7428V19.0095C25.5238 18.0571 26.2476 17.2571 27.2381 17.0285L36.5714 14.9333C37.2952 14.7809 38.0571 14.8952 38.6667 15.3142C39.2762 15.7333 39.619 16.3809 39.619 17.0285V36.1904C39.619 37.1428 38.8952 38.019 37.8667 38.2857L28.4571 40.6857C28.2286 40.7619 28.0381 40.7999 27.8095 40.7999ZM36.1524 17.2571C36.0381 17.2571 35.8857 17.2571 35.7714 17.2952L28.5333 19.1238C27.8857 19.2761 27.3905 19.8857 27.3905 20.5714V37.7142C27.3905 38.1714 27.619 38.6285 28 38.8952C28.3809 39.1619 28.8381 39.2761 29.2952 39.1238L36.6095 37.0285C37.2952 36.838 37.7905 36.1904 37.7905 35.4666V18.8571C37.7905 18.3619 37.5619 17.9047 37.1809 17.5999C36.8381 17.3714 36.4952 17.2571 36.1524 17.2571Z" fill="white"/>
<path d="M47.2381 29.7524L35.8095 33.1809L35.4286 11.4667L46.8571 8.79999L47.2381 29.7524Z" fill="#8400FD"/>
<path d="M36.1905 33.9428C35.6952 33.9428 35.2381 33.7904 34.819 33.5238C34.2476 33.1428 33.9048 32.5333 33.9048 31.8857V12.1524C33.9048 11.2 34.6286 10.4 35.619 10.1714L44.9524 8.07616C45.6762 7.92378 46.4381 8.03807 47.0476 8.45711C47.6571 8.87616 48 9.52378 48 10.1714V29.3333C48 30.2857 47.2762 31.1619 46.2476 31.4285L36.8381 33.8285C36.6095 33.9047 36.419 33.9428 36.1905 33.9428ZM44.5333 10.4C44.419 10.4 44.2667 10.4 44.1524 10.4381L36.9143 12.2666C36.2667 12.419 35.7714 13.0285 35.7714 13.7143V30.8571C35.7714 31.3143 36 31.7714 36.3809 32.0381C36.7619 32.3047 37.219 32.419 37.6762 32.2666L44.9905 30.1714C45.6762 29.9809 46.1714 29.3333 46.1714 28.6095V12C46.1714 11.5047 45.9428 11.0476 45.5619 10.7428C45.219 10.5143 44.8762 10.4 44.5333 10.4Z" fill="white"/>
</svg>
