<svg width="48" height="48" viewBox="0 0 48 48" fill="none" xmlns="http://www.w3.org/2000/svg">
<circle cx="24" cy="24" r="24" fill="#06250B"/>
<path d="M28 21.3333H31.4667V31.4666H28V21.3333Z" fill="#3AAC59"/>
<path d="M23.2403 20.5708C21.9075 20.5708 20.5446 20.8898 20.2052 21.4837C20.2007 21.4913 20.1962 21.4982 20.1918 21.5059V17.2544H16.6324V23.9992V24.0108C16.9865 24.1729 17.3496 24.3582 17.717 24.5677C17.8412 24.6389 17.9464 24.7011 18.0239 24.7478C18.0726 24.777 18.1212 24.8064 18.1698 24.8366C18.1748 24.8398 16.1353 28.0157 13.3578 28.6826C11.7167 29.0769 9.7782 28.5995 9.38546 26.9533C9.36904 26.8851 9.35999 26.8166 9.34937 26.7482C9.61105 26.5925 9.87865 26.4494 10.1477 26.3169C10.8275 26.0206 11.3462 25.7986 11.5426 25.7233C11.5598 25.7169 11.5772 25.7103 11.5943 25.704C11.5946 25.704 11.5951 25.7039 11.5953 25.7039C11.5955 25.7039 11.5955 25.7037 11.5959 25.7035C13.2165 25.1157 14.5769 24.9129 14.5769 24.9129C13.3414 24.8061 12.2807 24.8921 11.3929 25.068C11.3926 25.0675 11.3917 25.0673 11.3917 25.0673C11.3917 25.0673 11.385 25.0689 11.3731 25.072C10.5693 25.233 9.90803 25.4671 9.39463 25.7007C9.68066 24.5142 10.7131 23.4834 11.9348 23.1898C12.0422 23.164 12.151 23.1441 12.2602 23.127C12.2916 23.1222 12.3229 23.1179 12.3544 23.1138C12.4392 23.1023 12.5245 23.0933 12.6103 23.0863C12.6376 23.0842 12.6652 23.0813 12.6927 23.0798C12.8024 23.0729 12.9125 23.0694 13.023 23.0699C13.0447 23.07 13.0664 23.0712 13.088 23.0713C13.1797 23.0727 13.2713 23.0762 13.363 23.0821C13.3954 23.0841 13.4277 23.0862 13.4599 23.0888C13.4921 23.0914 13.5242 23.0944 13.5563 23.0974C14.0823 23.1518 14.7286 23.293 15.445 23.5364V21.2048C15.0993 21.0979 14.7325 20.9943 14.3517 20.9006C13.3479 20.6332 11.6242 20.3485 9.73909 20.8077C6.70703 21.5466 5.84714 23.7898 5.84714 26.531C5.84714 26.8803 5.87485 27.2071 5.92546 27.5145C5.26725 27.9505 4.62077 28.4511 4.03317 29.0225C4.03317 29.0225 4.9077 28.6325 6.06278 28.1193C6.83384 30.752 9.52345 31.6376 11.5488 31.6376C13.661 31.6376 15.017 31.0346 16.6324 30.0267V31.3034H20.1918V24.9705C20.1962 24.9622 20.2007 24.954 20.2052 24.9455V24.8379C20.5439 23.9327 21.1199 23.6992 21.76 23.6992C22.606 23.6992 23.1346 24.3 23.1346 25.2548V31.3034H26.6941V24.2296C26.6941 22.0025 25.3019 20.5708 23.2403 20.5708Z" fill="#3AAC59"/>
<path d="M29.6767 16.3694C28.602 16.3694 27.8441 17.1294 27.8441 18.2076C27.8441 19.2857 28.602 20.0456 29.6767 20.0456C30.7515 20.0456 31.5095 19.2857 31.5095 18.2076C31.5095 17.1294 30.7515 16.3694 29.6767 16.3694Z" fill="#3AAC59"/>
<path d="M43.304 25.5646H43.3084L43.3046 21.0507H39.7409L39.7214 21.6924C36.284 19.4777 34.0896 21.7552 34.0896 21.7552C33.0401 22.7164 32.431 24.2339 32.431 26.1394C32.431 29.5175 34.4555 31.527 37.0872 31.527C38.0736 31.527 38.9823 31.3036 39.767 30.2156C39.858 30.4693 40.0604 31.0903 40.2055 31.3036H43.9138C43.2782 30.2569 43.2833 26.6275 43.304 25.5646ZM37.9182 28.6005C36.764 28.6005 35.9502 27.5958 35.9502 26.1704C35.9502 24.745 36.764 23.7401 37.9182 23.7401C38.7276 23.7401 39.3692 24.2347 39.6804 25.0216V27.319C39.3693 28.1059 38.7276 28.6005 37.9182 28.6005Z" fill="#3AAC59"/>
</svg>
