<svg width="48" height="48" viewBox="0 0 48 48" fill="none" xmlns="http://www.w3.org/2000/svg">
<circle cx="24" cy="24" r="24" fill="#67B2E8"/>
<path d="M10.0192 15.6875C11.8742 14.6141 13.8161 13.7734 15.8587 13.1655C18.6413 12.3387 21.4655 11.9496 24.3661 12.0052C25.714 12.033 27.9581 12.2519 28.3367 12.3978C28.3506 12.4255 28.3228 12.4429 28.2916 12.4429C28.163 12.502 28.0171 12.5437 27.8851 12.6027C25.4951 13.6032 23.7999 15.7048 23.3066 18.2546C23.2337 18.675 23.192 19.0953 23.1781 19.5156C23.1642 20.1548 23.1051 20.7905 22.9175 21.4123C22.2784 23.6599 20.4407 25.4107 18.1653 25.9353C15.1778 26.6127 12.1626 25.1363 10.8599 22.3676C10.7869 22.2079 10.7313 22.0481 10.7001 21.8883C10.4812 20.9469 10.3249 20.0054 10.2068 19.0467C10.0783 17.9906 10.0053 16.9311 10.0053 15.8751C10.0192 15.8021 10.0192 15.7604 10.0192 15.6875Z" fill="white"/>
<path d="M31.3492 33.0593C31.377 32.7849 31.4083 32.5382 31.4222 32.2777C31.4951 30.843 31.1894 29.4813 30.5085 28.2203C29.8555 27.0183 28.9418 26.0596 27.7712 25.337C27.6704 25.264 27.5523 25.2085 27.4516 25.1355C25.8432 24.1212 24.8566 22.6865 24.5092 20.8175C23.8874 17.4549 26.003 14.2103 29.3205 13.4113C30.4946 13.1369 31.6375 13.1647 32.7839 13.526C33.7253 13.8178 34.625 14.2068 35.5213 14.6272C36.1431 14.919 36.7371 15.2351 37.3346 15.5686C37.4076 15.6137 37.4631 15.6415 37.5535 15.6971C37.5535 15.7562 37.5674 15.7979 37.5674 15.8569C37.5674 16.6246 37.5222 17.4062 37.4666 18.174C37.3659 19.303 37.1922 20.4354 36.9594 21.5366C36.2473 24.8124 34.9898 27.8416 33.1625 30.652C32.6554 31.4336 32.1065 32.1874 31.5264 32.9134C31.4673 32.9586 31.436 33.0142 31.3492 33.0593Z" fill="white"/>
<path d="M23.7884 39.5438C23.5695 39.4569 22.906 39.0505 22.1939 38.5746C20.6133 37.5185 19.1508 36.2992 17.8169 34.9375C16.4864 33.5723 15.2984 32.082 14.2805 30.4736C13.3252 28.9798 12.5297 27.4166 11.8905 25.7631C11.8766 25.7179 11.8627 25.6901 11.8454 25.6172C11.9183 25.6623 11.9461 25.6762 11.9913 25.704C12.4984 26.0966 13.0334 26.4301 13.6135 26.6732C14.3535 26.9928 15.1212 27.2117 15.9306 27.2811C17.5668 27.4409 19.1022 27.1075 20.5543 26.2946C21.3081 25.8742 22.121 25.5998 22.9755 25.4817C26.0047 25.1065 29.02 26.9025 29.9614 30.0324C30.4408 31.6408 30.2949 33.204 29.555 34.729C29.4542 34.9305 29.3674 35.1216 29.2632 35.3092C29.2041 35.4238 29.1346 35.5419 29.0304 35.6288C27.4984 37.0808 25.8171 38.3557 23.9934 39.4291C23.9204 39.4708 23.8475 39.516 23.7884 39.5438Z" fill="white"/>
</svg>
