<svg width="48" height="48" viewBox="0 0 48 48" fill="none" xmlns="http://www.w3.org/2000/svg">
<path d="M39.7898 10.5639L34.4918 13.2632L8.90828 26.2942C8.82177 25.6344 8.77824 24.9696 8.77797 24.3042C8.78146 21.649 9.47857 19.0408 10.8002 16.7379C12.1219 14.4351 14.0222 12.5175 16.313 11.175C18.6039 9.83258 21.2056 9.11192 23.8607 9.0844C26.5157 9.05689 29.1319 9.72348 31.45 11.0182L34.4825 9.47305L34.9348 9.24222C32.1569 7.22593 28.8755 6.01698 25.4535 5.74897C22.0314 5.48097 18.6018 6.16435 15.5439 7.72358C12.4859 9.28282 9.91855 11.6572 8.12562 14.5843C6.33269 17.5114 5.38397 20.8772 5.38433 24.3097C5.38433 24.7838 5.40232 25.256 5.43831 25.7264C5.48872 26.3925 5.341 27.0586 5.01373 27.6409C4.68646 28.2232 4.19427 28.6958 3.59909 28.999L2 29.8144V33.6176L6.7079 31.218L8.23253 30.4399L9.73481 29.6748L36.7052 15.9327L39.7358 14.3894L46 11.1969V7.39554L39.7898 10.5639Z" fill="black"/>
<path d="M46 15.0019L11.2669 32.6868L8.23625 34.2337L2 37.4114V41.2109L8.19343 38.0555L13.4915 35.3563L39.101 22.3067C39.1876 22.9709 39.2311 23.6399 39.2313 24.3097C39.2297 26.968 38.5328 29.5796 37.2099 31.8852C35.8869 34.1909 33.9839 36.1104 31.6898 37.4533C29.3957 38.7961 26.7902 39.5156 24.1321 39.5403C21.474 39.5649 18.8556 38.8939 16.537 37.5939L16.3508 37.6925L13.0633 39.3679C15.8406 41.3843 19.1213 42.5936 22.5428 42.8622C25.9644 43.1309 29.3936 42.4484 32.4516 40.8903C35.5096 39.3321 38.0773 36.9589 39.871 34.0328C41.6647 31.1068 42.6146 27.7418 42.6157 24.3097C42.6157 23.8313 42.5971 23.3529 42.5617 22.88C42.5114 22.2142 42.6589 21.5483 42.9858 20.9661C43.3127 20.3838 43.8044 19.9111 44.3991 19.6074L46 18.792V15.0019Z" fill="black"/>
</svg>
