<svg width="48" height="48" viewBox="0 0 48 48" fill="none" xmlns="http://www.w3.org/2000/svg">
<g clip-path="url(#clip0)">
<path d="M24 0C10.7473 0 0 10.7471 0 24.0002C0 26.649 0.429382 29.197 1.22214 31.5809H8.40013V11.3876L24.0004 26.9879L39.6002 11.3876V31.5807H46.7782C47.5715 29.1968 48.0009 26.6489 48.0009 24C48.0007 10.7465 37.2533 0 24 0Z" fill="#FF6600"/>
<path d="M20.4129 30.5746L13.6046 23.7662V36.4723H3.49187C7.70506 43.3842 15.3141 48 23.9996 48C32.6851 48 40.2949 43.3842 44.5076 36.4723H34.395V23.766L27.5867 30.5742L23.9998 34.161L20.4133 30.5744H20.4129V30.5746Z" fill="#4C4C4C"/>
</g>
<defs>
<clipPath id="clip0">
<rect width="48" height="48" fill="white"/>
</clipPath>
</defs>
</svg>
