<svg width="48" height="48" viewBox="0 0 48 48" fill="none" xmlns="http://www.w3.org/2000/svg">
<path d="M39.5547 42H45.9141L32.6797 29.0536C27.887 24.3676 20.1165 24.3676 15.3204 29.0536L2.08084 42H8.44537L18.5001 32.1654C19.965 30.7389 21.9393 29.9392 23.9962 29.9392C26.0531 29.9392 28.0274 30.7389 29.4923 32.1654L39.5547 42Z" fill="#23292F"/>
<path d="M8.36367 5.99999H2L15.3203 19.0262C20.113 23.7122 27.8835 23.7122 32.6797 19.0262L46 5.99999H39.6406L29.5 15.9144C28.035 17.3409 26.0608 18.1406 24.0039 18.1406C21.947 18.1406 19.9727 17.3409 18.5077 15.9144L8.36367 5.99999Z" fill="#23292F"/>
</svg>
