<svg width="48" height="48" viewBox="0 0 48 48" fill="none" xmlns="http://www.w3.org/2000/svg">
<path d="M28.7163 46C25.5767 46 23.285 45.2438 21.8413 43.7313C20.504 42.4509 19.728 40.6932 19.6828 38.8424C19.6666 38.2802 19.7969 37.7234 20.061 37.2268C20.3074 36.7979 20.6633 36.442 21.0922 36.1956C21.5908 35.9469 22.1404 35.8174 22.6975 35.8174C23.2547 35.8174 23.8043 35.9469 24.3028 36.1956C24.731 36.4411 25.0852 36.7973 25.3282 37.2268C25.5999 37.721 25.735 38.2787 25.7198 38.8424C25.7478 39.5158 25.5546 40.1798 25.1698 40.7331C24.8491 41.1846 24.3908 41.5201 23.8635 41.6894C24.3794 42.3461 25.1093 42.801 25.926 42.975C26.8399 43.2405 27.7863 43.377 28.7379 43.3806C29.9977 43.3916 31.2316 43.0226 32.2785 42.3219C33.3647 41.5545 34.1747 40.4576 34.5885 39.1937C35.1127 37.6895 35.3684 36.1047 35.3438 34.5119C35.3861 32.8513 35.1059 31.1983 34.5187 29.6444C34.0771 28.4015 33.2388 27.3385 32.1331 26.6194C31.1052 25.9689 29.912 25.6276 28.6956 25.6363C27.6359 25.726 26.6141 26.0729 25.7188 26.6469L23.5119 27.7537V26.6469L33.4325 13.3383H19.6825V27.1488C19.6436 28.1454 19.9073 29.1304 20.4387 29.9744C20.6959 30.3422 21.0436 30.6373 21.4483 30.8313C21.8531 31.0252 22.301 31.1113 22.7488 31.0812C23.5761 31.0645 24.3762 30.7826 25.0312 30.2769C25.7737 29.7328 26.4197 29.0682 26.9425 28.3106C26.9896 28.1779 27.0764 28.0628 27.191 27.981C27.2831 27.9014 27.4007 27.8574 27.5224 27.8572C27.7613 27.8791 27.9873 27.9753 28.1687 28.1322C28.3986 28.3889 28.5237 28.7226 28.5193 29.0672C28.4927 29.2988 28.4514 29.5284 28.3955 29.7547C27.9071 30.9369 27.0884 31.9534 26.0374 32.6824C25.0608 33.3431 23.9072 33.6933 22.7281 33.6869C19.7512 33.6869 17.6887 33.1002 16.5406 31.9269C15.9507 31.2784 15.4961 30.5187 15.2033 29.6924C14.9105 28.866 14.7855 27.9896 14.8356 27.1144V13.3383H7.84375V10.7725H14.87V4.92188L13.2613 3.31209V2H17.9294L19.6825 2.9075V10.7725L37.8459 10.7172L39.6544 12.5322L28.5169 23.725C29.1898 23.4544 29.8984 23.283 30.6206 23.2163C32.0497 23.2789 33.4439 23.6769 34.6906 24.3781C36.1344 25.0642 37.3512 26.1498 38.1969 27.5062C38.9545 28.6549 39.4908 29.935 39.7781 31.2806C40.0143 32.3419 40.141 33.4247 40.1562 34.5119C40.1636 36.587 39.6931 38.636 38.7812 40.5C37.9165 42.3049 36.4612 43.7603 34.6562 44.625C32.8086 45.5355 30.7754 46.0062 28.7156 46H28.7163Z" fill="#2C7DF7"/>
</svg>
