<svg width="48" height="48" viewBox="0 0 48 48" fill="none" xmlns="http://www.w3.org/2000/svg">
<path d="M24 48C37.2545 48 48 37.2545 48 24C48 10.7455 37.2545 0 24 0C10.7455 0 0 10.7455 0 24C0 37.2545 10.7455 48 24 48Z" fill="url(#paint0_linear)"/>
<path d="M36.2471 25.3363H11.7535C11.361 25.3375 10.9849 25.4939 10.7074 25.7713C10.4298 26.0488 10.2733 26.4248 10.272 26.8172C10.273 27.2099 10.4294 27.5862 10.707 27.8639C10.9846 28.1416 11.3608 28.2981 11.7535 28.2992H17.9073L22.0773 39.3114C22.1892 39.6042 22.3907 39.8541 22.6532 40.0254C22.9156 40.1968 23.2255 40.2808 23.5385 40.2654C23.8516 40.2808 24.1615 40.1968 24.4239 40.0254C24.6864 39.8541 24.8879 39.6042 24.9998 39.3114L29.1698 28.2987H36.2476C36.6402 28.2975 37.0163 28.1411 37.2939 27.8635C37.5715 27.5859 37.7279 27.2098 37.7291 26.8172C37.7279 26.4247 37.5715 26.0485 37.2939 25.771C37.0163 25.4934 36.6402 25.3369 36.2476 25.3358L36.2471 25.3363ZM23.538 34.8032L21.0747 28.2981H26.0013L23.538 34.8027V34.8032ZM11.7535 22.5709H36.2476C36.6403 22.5697 37.0165 22.4132 37.2941 22.1355C37.5717 21.8578 37.7281 21.4815 37.7291 21.0889C37.7279 20.6963 37.5715 20.3202 37.2939 20.0426C37.0163 19.765 36.6402 19.6086 36.2476 19.6074H32.4611L35.5146 11.5429C35.6525 11.1754 35.6395 10.7682 35.4782 10.4103C35.3169 10.0523 35.0205 9.7728 34.6538 9.63269C34.2862 9.49475 33.879 9.5079 33.5211 9.66928C33.1631 9.83066 32.8836 10.1272 32.7436 10.494L29.292 19.6074H17.7835L14.3324 10.494C14.1922 10.1272 13.9127 9.83085 13.5549 9.66949C13.197 9.50812 12.7898 9.49489 12.4222 9.63269C12.0555 9.7728 11.7591 10.0523 11.5978 10.4103C11.4366 10.7682 11.4235 11.1754 11.5615 11.5429L14.6155 19.6074H11.7535C11.3609 19.6086 10.9848 19.765 10.7072 20.0426C10.4296 20.3202 10.2732 20.6963 10.272 21.0889C10.2732 21.4814 10.4296 21.8576 10.7072 22.1351C10.9848 22.4127 11.3609 22.5692 11.7535 22.5703V22.5709Z" fill="white"/>
<defs>
<linearGradient id="paint0_linear" x1="5.04982" y1="39.0927" x2="42.4244" y2="9.32564" gradientUnits="userSpaceOnUse">
<stop stop-color="#F8B342"/>
<stop offset="1" stop-color="#F2C35E"/>
</linearGradient>
</defs>
</svg>
