<svg width="48" height="48" viewBox="0 0 48 48" fill="none" xmlns="http://www.w3.org/2000/svg">
<path fill-rule="evenodd" clip-rule="evenodd" d="M24 0C37.2528 0 48 10.7472 48 24C48 37.2528 37.2528 48 24 48C10.7472 48 0 37.2528 0 24C0 10.7472 10.7472 0 24 0Z" fill="#006AE3"/>
<path d="M23.0112 34.1184V14.1504H25.1856V34.1184H23.0112Z" fill="white"/>
<path d="M34.08 20.8032L27.3648 22.584L25.8672 15.6144L27.864 15.1632L28.6512 18.4656C28.6512 18.4656 30.4656 15.4896 28.0464 12.408C26.6208 10.824 25.944 10.7568 24.3456 10.5072C22.9392 10.3056 19.6704 10.7808 18.696 14.5968C18.2832 17.0544 18.7488 18.8736 21.9168 21.2544L21.7392 23.904C21.7392 23.904 18.2016 21.4128 17.2896 19.6656C16.584 18.2832 15.3744 15.552 17.5584 11.7504C18.7344 9.84961 21.0528 8.02561 25.1376 8.21761C27.192 8.30401 32.208 10.8144 31.4304 16.68C31.296 17.7792 30.7248 19.2432 30.7248 19.2432L33.48 18.6288L34.08 20.8032Z" fill="white"/>
<path d="M30.2448 36.4272C29.016 38.2944 26.6496 40.056 22.5744 39.7584C20.52 39.6192 15.576 36.9744 16.5072 31.1328C16.6704 30.0384 17.28 28.5936 17.28 28.5936L14.5104 29.1312L13.968 26.9472L20.7312 25.344L22.0464 32.352L20.0352 32.7504L19.3344 29.424C19.3344 29.424 17.4432 32.3472 19.776 35.496C21.1584 37.1184 21.8304 37.2 23.4288 37.4928C24.8256 37.7328 28.1088 37.3392 29.184 33.552C29.6592 31.1088 29.2416 29.2752 26.1408 26.808L26.3904 24.1632C26.3904 24.1632 29.8608 26.7456 30.7248 28.5168C31.3872 29.9232 32.5248 32.688 30.2448 36.4272Z" fill="white"/>
</svg>
