<svg width="48" height="48" viewBox="0 0 48 48" fill="none" xmlns="http://www.w3.org/2000/svg">
<g clip-path="url(#clip0)">
<path d="M24 48C37.2548 48 48 37.2548 48 24C48 10.7452 37.2548 0 24 0C10.7452 0 1.52588e-05 10.7452 1.52588e-05 24C1.52588e-05 37.2548 10.7452 48 24 48Z" fill="#E9A93C"/>
<path d="M32.5593 16.5182V12.8574H26.0108V8.8399H21.9891V12.8574H15.4417V17.7065H25.5924L17.2912 29.1307L15.4417 31.4818V35.1425H21.9891V39.1472H22.4714V39.1643H25.5285V39.1472H26.0108V35.1425H32.5593V30.2934H22.4076L30.7087 18.8692L32.5593 16.5182Z" fill="white"/>
</g>
<defs>
<clipPath id="clip0">
<rect width="48" height="48" fill="white"/>
</clipPath>
</defs>
</svg>
