<svg width="48" height="48" viewBox="0 0 48 48" fill="none" xmlns="http://www.w3.org/2000/svg">
<g clip-path="url(#clip0)">
<path fill-rule="evenodd" clip-rule="evenodd" d="M41.4167 24.0007C41.4167 21.2167 40.7627 18.5854 39.602 16.2514L43.5453 10.0687C46.35 13.9961 48.0007 18.8061 48.0007 24.0007C48.0007 37.2554 37.2553 48.0007 24.0007 48.0007C18.8047 48.0007 13.994 46.3494 10.0653 43.5434L16.2633 39.6074C18.594 40.7661 21.2207 41.4167 24.0007 41.4167C33.6193 41.4167 41.4167 33.6194 41.4167 24.0007ZM22.8813 26.4454C17.742 27.7814 14.0613 30.8047 14.0613 30.8047C16.234 33.972 19.89 36.0507 24.0333 36.0507C29.9413 36.0507 34.858 31.824 35.9 26.242C33.6053 25.804 31.5033 25.6114 29.564 25.6114C27.0913 25.6114 24.8833 25.9254 22.8813 26.4454Z" fill="url(#paint0_linear)"/>
<path fill-rule="evenodd" clip-rule="evenodd" d="M7.57703 29.8113C6.93437 27.994 6.5837 26.038 6.5837 24.0007C6.5837 14.3813 14.3817 6.584 24.0004 6.584C26.8164 6.584 29.4764 7.25267 31.8304 8.43933L38.039 4.532C34.091 1.68067 29.2424 0 24.0004 0C10.745 0 -0.000299454 10.7453 -0.000299454 24.0007C-0.000299454 29.3773 1.7677 34.3407 4.75437 38.342C8.19237 32.034 13.4524 28.1033 18.1217 25.9747C27.5137 21.6927 36.1037 24.0333 36.1037 24.0333C36.1037 17.3967 30.699 12.0167 24.0337 12.0167C17.367 12.0167 11.963 17.3967 11.963 24.0333C11.963 24.592 12.0017 25.1413 12.0757 25.68C12.0757 25.68 9.5277 27.5567 7.57703 29.8113Z" fill="#041742"/>
</g>
<defs>
<linearGradient id="paint0_linear" x1="25.0615" y1="43.3052" x2="51.6644" y2="15.6645" gradientUnits="userSpaceOnUse">
<stop stop-color="#0E9DE5"/>
<stop offset="1" stop-color="#26DB8D"/>
</linearGradient>
<clipPath id="clip0">
<rect width="48" height="48" fill="white"/>
</clipPath>
</defs>
</svg>
