<svg width="48" height="48" viewBox="0 0 48 48" fill="none" xmlns="http://www.w3.org/2000/svg">
<path d="M40.9992 19.8346L34.0879 22.916L15.7532 32.2485L34.0879 41.0637V26.4927L40.9992 23.3783V44.9046L34.0879 47.986L7.09203 35.0659V28.1986L25.779 19.0312L7.09203 10.0509V3.08453L14.1134 0.00305176L40.9992 12.9453V19.8346Z" fill="#49C1BF"/>
<path d="M7.09203 3.08452L34.0879 16.0267L40.9992 12.9452L14.1134 0.00305176L7.09203 3.08452Z" fill="#077A8F"/>
<path d="M34.0882 15.9975L40.9995 12.916V19.8053L34.0882 22.8867V15.9975Z" fill="#298E97"/>
<path d="M7.09203 3.09058V10.0569L25.779 19.0372L7.09203 28.2046V35.0719L34.0879 47.992V41.0807L15.7532 32.2545L34.0879 22.9221V16.0328L7.09203 3.09058Z" fill="#49C1BF"/>
<path d="M34.0882 47.9408L40.9995 44.8593V23.333L34.0882 26.4475V47.9408Z" fill="#298E97"/>
</svg>
