<svg width="48" height="48" viewBox="0 0 48 48" fill="none" xmlns="http://www.w3.org/2000/svg">
<path fill-rule="evenodd" clip-rule="evenodd" d="M23.9754 2.32716L24 2.32715L24.0246 2.32716C24.2923 2.32746 24.5092 2.54477 24.5089 2.81255C24.5086 3.08032 24.2913 3.29716 24.0235 3.29686L24 3.29685L23.9765 3.29686C23.7087 3.29716 23.4914 3.08032 23.4911 2.81255C23.4908 2.54477 23.7077 2.32746 23.9754 2.32716ZM22.5504 2.85528C22.5745 3.12197 22.3779 3.35771 22.1112 3.38182L22.0649 3.38606C21.7982 3.41077 21.562 3.21465 21.5373 2.94802C21.5126 2.68139 21.7087 2.44521 21.9754 2.4205L22.0239 2.41606C22.2906 2.39195 22.5263 2.5886 22.5504 2.85528ZM25.4496 2.85528C25.4737 2.5886 25.7094 2.39195 25.9761 2.41606L26.0246 2.4205C26.2913 2.44521 26.4874 2.68139 26.4627 2.94802C26.438 3.21465 26.2018 3.41077 25.9351 3.38606L25.8888 3.38182C25.6221 3.35771 25.4255 3.12197 25.4496 2.85528ZM20.6051 3.07689C20.6537 3.34021 20.4796 3.59309 20.2163 3.64172L20.1705 3.65023C19.9073 3.69945 19.654 3.52597 19.6048 3.26276C19.5556 2.99955 19.729 2.74627 19.9923 2.69706L20.0402 2.68814C20.3036 2.63952 20.5564 2.81357 20.6051 3.07689ZM27.3949 3.07689C27.4436 2.81357 27.6965 2.63952 27.9598 2.68814L28.0078 2.69706C28.271 2.74628 28.4444 2.99955 28.3952 3.26276C28.346 3.52598 28.0927 3.69945 27.8295 3.65023L27.7837 3.64172C27.5204 3.5931 27.3463 3.34021 27.3949 3.07689ZM18.6888 3.4774C18.7617 3.73507 18.6119 4.00302 18.3542 4.07589L18.3093 4.08864C18.0518 4.16209 17.7835 4.01289 17.7101 3.75538C17.6366 3.49788 17.7858 3.22959 18.0433 3.15613L18.0903 3.14279C18.348 3.06992 18.6159 3.21973 18.6888 3.4774ZM29.3112 3.4774C29.3841 3.21973 29.652 3.06992 29.9097 3.14279L29.9567 3.15614C30.2142 3.22959 30.3634 3.49788 30.2899 3.75539C30.2165 4.01289 29.9482 4.16209 29.6907 4.08864L29.6458 4.07589C29.3881 4.00302 29.2383 3.73507 29.3112 3.4774ZM16.8181 4.05424C16.9146 4.30401 16.7904 4.58474 16.5406 4.68125L16.4971 4.69812C16.2475 4.7952 15.9665 4.67159 15.8695 4.42203C15.7724 4.17248 15.896 3.89147 16.1455 3.79439L16.1911 3.77672C16.4409 3.68021 16.7216 3.80446 16.8181 4.05424ZM31.1819 4.05424C31.2784 3.80446 31.5591 3.68022 31.8089 3.77673L31.8545 3.7944C32.104 3.89147 32.2276 4.17248 32.1305 4.42204C32.0335 4.67159 31.7525 4.7952 31.5029 4.69812L31.4594 4.68125C31.2096 4.58474 31.0854 4.30402 31.1819 4.05424ZM15.0092 4.80247C15.1284 5.04222 15.0308 5.33326 14.791 5.45253L14.7492 5.47338C14.5098 5.59319 14.2185 5.49618 14.0987 5.25671C13.9789 5.01724 14.0759 4.72598 14.3154 4.60616L14.3591 4.58434C14.5988 4.46507 14.8899 4.56273 15.0092 4.80247ZM32.9908 4.80248C33.1101 4.56273 33.4012 4.46507 33.6409 4.58434L33.6846 4.60616C33.9241 4.72598 34.0211 5.01724 33.9013 5.25671C33.7815 5.49619 33.4902 5.59319 33.2508 5.47338L33.209 5.45253C32.9692 5.33326 32.8716 5.04222 32.9908 4.80248ZM13.2773 5.71522C13.4182 5.94292 13.3479 6.24174 13.1202 6.38266L13.0805 6.40728C12.8531 6.54871 12.5541 6.47904 12.4127 6.25167C12.2713 6.02429 12.3409 5.72531 12.5683 5.58388L12.6098 5.55811C12.8375 5.41719 13.1364 5.48753 13.2773 5.71522ZM34.7227 5.71522C34.8636 5.48753 35.1625 5.41719 35.3902 5.55811L35.4317 5.58388C35.6591 5.72532 35.7287 6.0243 35.5873 6.25167C35.4459 6.47904 35.1469 6.54871 34.9195 6.40728L34.8798 6.38266C34.6521 6.24174 34.5818 5.94292 34.7227 5.71522ZM11.637 6.78403C11.7983 6.99778 11.7558 7.30181 11.5421 7.4631L11.5048 7.49126C11.2914 7.65303 10.9873 7.61118 10.8255 7.39779C10.6638 7.18441 10.7056 6.88028 10.919 6.71851L10.958 6.68904C11.1717 6.52775 11.4758 6.57028 11.637 6.78403ZM36.3629 6.78403C36.5242 6.57028 36.8283 6.52775 37.042 6.68904L37.081 6.71852C37.2944 6.88028 37.3362 7.18441 37.1745 7.39779C37.0127 7.61118 36.7086 7.65303 36.4952 7.49126L36.4579 7.4631C36.2442 7.30181 36.2017 6.99778 36.3629 6.78403ZM10.102 7.99923C10.2823 8.19727 10.2678 8.50392 10.0698 8.68415L10.0353 8.71561C9.83769 8.89628 9.531 8.88254 9.35033 8.6849C9.16965 8.48727 9.1834 8.18058 9.38104 7.99991L9.41713 7.96699C9.61517 7.78676 9.92182 7.80119 10.102 7.99923ZM37.8979 7.99924C38.0782 7.8012 38.3848 7.78676 38.5829 7.96699L38.619 7.99991C38.8166 8.18059 38.8303 8.48727 38.6497 8.6849C38.469 8.88254 38.1623 8.89629 37.9647 8.71561L37.9302 8.68416C37.7322 8.50392 37.7177 8.19727 37.8979 7.99924ZM8.68503 9.3502C8.88266 9.53088 8.89641 9.83756 8.71573 10.0352L8.68428 10.0697C8.50405 10.2677 8.1974 10.2822 7.99936 10.1019C7.80132 9.92169 7.78688 9.61504 7.96711 9.417L8.00003 9.38091C8.18071 9.18328 8.48739 9.16953 8.68503 9.3502ZM39.315 9.35021C39.5126 9.16953 39.8193 9.18328 40 9.38092L40.0329 9.41701C40.2131 9.61505 40.1987 9.92169 40.0006 10.1019C39.8026 10.2822 39.4959 10.2677 39.3157 10.0697L39.2843 10.0352C39.1036 9.83756 39.1173 9.53088 39.315 9.35021ZM7.39792 10.8254C7.6113 10.9872 7.65315 11.2913 7.49138 11.5047L7.46322 11.5419C7.30193 11.7557 6.9979 11.7982 6.78415 11.6369C6.5704 11.4756 6.52787 11.1716 6.68916 10.9579L6.71864 10.9189C6.88041 10.7055 7.18453 10.6636 7.39792 10.8254ZM40.6021 10.8254C40.8155 10.6637 41.1196 10.7055 41.2814 10.9189L41.3108 10.9579C41.4721 11.1716 41.4296 11.4756 41.2158 11.6369C41.0021 11.7982 40.6981 11.7557 40.5368 11.5419L40.5086 11.5047C40.3468 11.2913 40.3887 10.9872 40.6021 10.8254ZM6.25179 12.4126C6.47917 12.554 6.54883 12.853 6.4074 13.0804L6.38278 13.12C6.24186 13.3477 5.94304 13.4181 5.71535 13.2772C5.48765 13.1362 5.41731 12.8374 5.55823 12.6097L5.584 12.5682C5.72544 12.3408 6.02442 12.2711 6.25179 12.4126ZM41.7482 12.4126C41.9756 12.2711 42.2746 12.3408 42.416 12.5682L42.4418 12.6097C42.5827 12.8374 42.5123 13.1362 42.2846 13.2772C42.057 13.4181 41.7581 13.3477 41.6172 13.12L41.5926 13.0804C41.4512 12.853 41.5208 12.554 41.7482 12.4126ZM5.25684 14.0986C5.49631 14.2184 5.59331 14.5096 5.4735 14.7491L5.45266 14.7909C5.33338 15.0306 5.04234 15.1283 4.8026 15.009C4.56285 14.8898 4.46519 14.5987 4.58446 14.359L4.60629 14.3152C4.7261 14.0758 5.01736 13.9787 5.25684 14.0986ZM42.7432 14.0986C42.9826 13.9788 43.2739 14.0758 43.3937 14.3152L43.4155 14.359C43.5348 14.5987 43.4371 14.8898 43.1974 15.009C42.9577 15.1283 42.6666 15.0306 42.5473 14.7909L42.5265 14.7491C42.4067 14.5096 42.5037 14.2184 42.7432 14.0986ZM4.42216 15.8693C4.67172 15.9664 4.79532 16.2474 4.69825 16.497L4.68137 16.5405C4.58486 16.7903 4.30414 16.9145 4.05436 16.818C3.80458 16.7215 3.68034 16.4408 3.77685 16.191L3.79452 16.1454C3.8916 15.8959 4.1726 15.7723 4.42216 15.8693ZM43.5778 15.8693C43.8274 15.7723 44.1084 15.8959 44.2055 16.1454L44.2231 16.191C44.3197 16.4408 44.1954 16.7215 43.9456 16.818C43.6959 16.9145 43.4151 16.7903 43.3186 16.5405L43.3018 16.497C43.2047 16.2474 43.3283 15.9664 43.5778 15.8693ZM3.75551 17.7099C4.01301 17.7834 4.16221 18.0517 4.08876 18.3092L4.07601 18.3541C4.00315 18.6117 3.73519 18.7615 3.47752 18.6887C3.21985 18.6158 3.07004 18.3479 3.14291 18.0902L3.15626 18.0432C3.22971 17.7857 3.498 17.6365 3.75551 17.7099ZM44.2445 17.7099C44.502 17.6365 44.7703 17.7857 44.8437 18.0432L44.8571 18.0902C44.9299 18.3479 44.7801 18.6158 44.5225 18.6887C44.2648 18.7616 43.9968 18.6117 43.924 18.3541L43.9112 18.3092C43.8378 18.0517 43.987 17.7834 44.2445 17.7099ZM3.26289 19.6047C3.5261 19.6539 3.69957 19.9071 3.65036 20.1704L3.64184 20.2162C3.59322 20.4795 3.34034 20.6535 3.07701 20.6049C2.81369 20.5563 2.63964 20.3034 2.68826 20.0401L2.69718 19.9921C2.7464 19.7289 2.99967 19.5554 3.26289 19.6047ZM44.7371 19.6047C45.0003 19.5554 45.2536 19.7289 45.3028 19.9921L45.3117 20.0401C45.3604 20.3034 45.1863 20.5563 44.923 20.6049C44.6597 20.6536 44.4068 20.4795 44.3582 20.2162L44.3496 20.1704C44.3004 19.9071 44.4739 19.6539 44.7371 19.6047ZM2.94814 21.5372C3.21477 21.5619 3.41089 21.7981 3.38618 22.0647L3.38194 22.1111C3.35783 22.3777 3.12209 22.5744 2.8554 22.5503C2.58872 22.5262 2.39207 22.2904 2.41618 22.0237L2.42062 21.9752C2.44533 21.7086 2.68151 21.5125 2.94814 21.5372ZM45.0518 21.5372C45.3185 21.5125 45.5547 21.7086 45.5794 21.9753L45.5838 22.0237C45.6079 22.2904 45.4113 22.5262 45.1446 22.5503C44.8779 22.5744 44.6422 22.3777 44.618 22.1111L44.6138 22.0647C44.5891 21.7981 44.7852 21.5619 45.0518 21.5372ZM2.81267 23.491C3.08044 23.4913 3.29728 23.7086 3.29698 23.9764L3.29697 23.9999L3.29698 24.0233C3.29728 24.2911 3.08044 24.5084 2.81267 24.5087C2.5449 24.509 2.32758 24.2922 2.32728 24.0244L2.32727 23.9999L2.32728 23.9753C2.32758 23.7075 2.5449 23.4907 2.81267 23.491ZM45.1873 23.491C45.4551 23.4907 45.6724 23.7075 45.6727 23.9753L45.6727 23.9999L45.6727 24.0244C45.6724 24.2922 45.4551 24.509 45.1873 24.5087C44.9195 24.5084 44.7027 24.2911 44.703 24.0234L44.703 23.9999L44.703 23.9764C44.7027 23.7086 44.9195 23.4913 45.1873 23.491ZM2.8554 25.4495C3.12209 25.4254 3.35783 25.622 3.38194 25.8887L3.38618 25.935C3.41089 26.2017 3.21477 26.4378 2.94814 26.4625C2.68151 26.4872 2.44533 26.2911 2.42062 26.0245L2.41618 25.976C2.39207 25.7093 2.58872 25.4736 2.8554 25.4495ZM45.1446 25.4495C45.4113 25.4736 45.6079 25.7093 45.5838 25.976L45.5794 26.0245C45.5547 26.2911 45.3185 26.4873 45.0518 26.4625C44.7852 26.4378 44.5891 26.2017 44.6138 25.935L44.618 25.8887C44.6422 25.622 44.8779 25.4254 45.1446 25.4495ZM3.07701 27.3948C3.34033 27.3462 3.59322 27.5202 3.64184 27.7836L3.65035 27.8294C3.69957 28.0926 3.5261 28.3459 3.26288 28.3951C2.99967 28.4443 2.7464 28.2708 2.69718 28.0076L2.68826 27.9596C2.63964 27.6963 2.81369 27.4434 3.07701 27.3948ZM44.923 27.3948C45.1863 27.4434 45.3604 27.6963 45.3117 27.9597L45.3028 28.0076C45.2536 28.2708 45.0003 28.4443 44.7371 28.3951C44.4739 28.3459 44.3004 28.0926 44.3496 27.8294L44.3582 27.7836C44.4068 27.5202 44.6597 27.3462 44.923 27.3948ZM3.47752 29.3111C3.73519 29.2382 4.00314 29.388 4.07601 29.6457L4.08876 29.6906C4.16221 29.9481 4.01301 30.2163 3.75551 30.2898C3.498 30.3633 3.22971 30.2141 3.15626 29.9565L3.14291 29.9096C3.07004 29.6519 3.21985 29.3839 3.47752 29.3111ZM44.5225 29.3111C44.7801 29.3839 44.9299 29.6519 44.8571 29.9096L44.8437 29.9566C44.7703 30.2141 44.502 30.3633 44.2445 30.2898C43.987 30.2164 43.8378 29.9481 43.9112 29.6906L43.924 29.6457C43.9968 29.388 44.2648 29.2382 44.5225 29.3111ZM4.05436 31.1817C4.30414 31.0852 4.58486 31.2095 4.68137 31.4592L4.69824 31.5028C4.79532 31.7523 4.67171 32.0333 4.42216 32.1304C4.1726 32.2275 3.89159 32.1039 3.79452 31.8543L3.77685 31.8087C3.68034 31.559 3.80458 31.2782 4.05436 31.1817ZM43.9456 31.1817C44.1954 31.2783 44.3197 31.559 44.2231 31.8088L44.2055 31.8543C44.1084 32.1039 43.8274 32.2275 43.5778 32.1304C43.3283 32.0333 43.2047 31.7523 43.3017 31.5028L43.3186 31.4593C43.4151 31.2095 43.6959 31.0852 43.9456 31.1817ZM4.8026 32.9907C5.04234 32.8714 5.33338 32.9691 5.45265 33.2089L5.4735 33.2506C5.59331 33.4901 5.49631 33.7814 5.25683 33.9012C5.01736 34.021 4.7261 33.924 4.60629 33.6845L4.58446 33.6408C4.46519 33.401 4.56285 33.11 4.8026 32.9907ZM43.1974 32.9907C43.4371 33.11 43.5348 33.401 43.4155 33.6408L43.3937 33.6845C43.2739 33.924 42.9826 34.021 42.7432 33.9012C42.5037 33.7814 42.4067 33.4901 42.5265 33.2506L42.5473 33.2089C42.6666 32.9691 42.9576 32.8714 43.1974 32.9907ZM5.71534 34.7226C5.94304 34.5817 6.24186 34.652 6.38278 34.8797L6.4074 34.9194C6.54883 35.1468 6.47917 35.4457 6.25179 35.5872C6.02442 35.7286 5.72544 35.6589 5.584 35.4316L5.55823 35.39C5.41731 35.1623 5.48765 34.8635 5.71534 34.7226ZM42.2846 34.7226C42.5123 34.8635 42.5827 35.1623 42.4418 35.39L42.416 35.4316C42.2746 35.6589 41.9756 35.7286 41.7482 35.5872C41.5208 35.4457 41.4512 35.1468 41.5926 34.9194L41.6172 34.8797C41.7581 34.652 42.057 34.5817 42.2846 34.7226ZM6.78415 36.3628C6.9979 36.2015 7.30193 36.2441 7.46322 36.4578L7.49138 36.4951C7.65315 36.7084 7.6113 37.0126 7.39791 37.1743C7.18453 37.3361 6.8804 37.2943 6.71864 37.0809L6.68916 37.0419C6.52787 36.8281 6.5704 36.5241 6.78415 36.3628ZM41.2158 36.3628C41.4296 36.5241 41.4721 36.8281 41.3108 37.0419L41.2814 37.0809C41.1196 37.2943 40.8155 37.3361 40.6021 37.1743C40.3887 37.0126 40.3468 36.7084 40.5086 36.4951L40.5368 36.4578C40.6981 36.2441 41.0021 36.2015 41.2158 36.3628ZM7.99936 37.8978C8.1974 37.7176 8.50405 37.732 8.68428 37.9301L8.71573 37.9646C8.89641 38.1622 8.88266 38.4689 8.68502 38.6495C8.48739 38.8302 8.18071 38.8165 8.00003 38.6188L7.96711 38.5827C7.78688 38.3847 7.80132 38.0781 7.99936 37.8978ZM40.0006 37.8978C40.1987 38.0781 40.2131 38.3847 40.0329 38.5827L40 38.6188C39.8193 38.8165 39.5126 38.8302 39.315 38.6495C39.1173 38.4689 39.1036 38.1622 39.2843 37.9646L39.3157 37.9301C39.4959 37.732 39.8026 37.7176 40.0006 37.8978ZM9.35033 39.3148C9.531 39.1172 9.83768 39.1035 10.0353 39.2841L10.0698 39.3156C10.2678 39.4958 10.2823 39.8025 10.102 40.0005C9.92182 40.1986 9.61517 40.213 9.41713 40.0328L9.38104 39.9998C9.1834 39.8192 9.16965 39.5125 9.35033 39.3148ZM38.6497 39.3148C38.8303 39.5125 38.8166 39.8192 38.619 39.9998L38.5829 40.0328C38.3848 40.213 38.0782 40.1986 37.8979 40.0005C37.7177 39.8025 37.7322 39.4958 37.9302 39.3156L37.9647 39.2841C38.1623 39.1035 38.469 39.1172 38.6497 39.3148ZM10.8255 40.602C10.9873 40.3886 11.2914 40.3467 11.5048 40.5085L11.5421 40.5367C11.7558 40.6979 11.7983 41.002 11.637 41.2157C11.4758 41.4295 11.1717 41.472 10.958 41.3107L10.919 41.2812C10.7056 41.1195 10.6638 40.8153 10.8255 40.602ZM37.1745 40.602C37.3362 40.8153 37.2944 41.1195 37.081 41.2812L37.042 41.3107C36.8283 41.472 36.5242 41.4295 36.3629 41.2157C36.2017 41.002 36.2442 40.6979 36.4579 40.5367L36.4952 40.5085C36.7086 40.3467 37.0127 40.3886 37.1745 40.602ZM12.4127 41.7481C12.5541 41.5207 12.8531 41.451 13.0805 41.5925L13.1202 41.6171C13.3479 41.758 13.4182 42.0568 13.2773 42.2845C13.1364 42.5122 12.8375 42.5826 12.6098 42.4416L12.5683 42.4159C12.3409 42.2744 12.2713 41.9754 12.4127 41.7481ZM35.5873 41.7481C35.7287 41.9755 35.6591 42.2744 35.4317 42.4159L35.3902 42.4416C35.1625 42.5826 34.8636 42.5122 34.7227 42.2845C34.5818 42.0568 34.6521 41.758 34.8798 41.6171L34.9195 41.5925C35.1469 41.451 35.4459 41.5207 35.5873 41.7481ZM14.0987 42.743C14.2185 42.5036 14.5098 42.4066 14.7492 42.5264L14.791 42.5472C15.0308 42.6665 15.1284 42.9575 15.0092 43.1973C14.8899 43.437 14.5988 43.5347 14.3591 43.4154L14.3154 43.3936C14.0759 43.2738 13.9789 42.9825 14.0987 42.743ZM33.9013 42.743C34.0211 42.9825 33.9241 43.2738 33.6846 43.3936L33.6409 43.4154C33.4011 43.5347 33.1101 43.437 32.9908 43.1973C32.8716 42.9575 32.9692 42.6665 33.209 42.5472L33.2508 42.5264C33.4902 42.4066 33.7815 42.5036 33.9013 42.743ZM15.8695 43.5777C15.9665 43.3282 16.2475 43.2045 16.4971 43.3016L16.5406 43.3185C16.7904 43.415 16.9146 43.6957 16.8181 43.9455C16.7216 44.1953 16.4409 44.3195 16.1911 44.223L16.1455 44.2053C15.896 44.1083 15.7724 43.8273 15.8695 43.5777ZM32.1305 43.5777C32.2276 43.8273 32.104 44.1083 31.8544 44.2054L31.8089 44.223C31.5591 44.3195 31.2784 44.1953 31.1819 43.9455C31.0853 43.6957 31.2096 43.415 31.4594 43.3185L31.5029 43.3016C31.7525 43.2045 32.0335 43.3282 32.1305 43.5777ZM17.7101 44.2444C17.7835 43.9869 18.0518 43.8377 18.3093 43.9111L18.3542 43.9239C18.6119 43.9967 18.7617 44.2647 18.6888 44.5223C18.6159 44.78 18.348 44.9298 18.0903 44.857L18.0433 44.8436C17.7858 44.7702 17.6366 44.5019 17.7101 44.2444ZM30.2899 44.2444C30.3634 44.5019 30.2142 44.7702 29.9567 44.8436L29.9097 44.857C29.652 44.9298 29.3841 44.78 29.3112 44.5223C29.2383 44.2647 29.3881 43.9967 29.6458 43.9239L29.6907 43.9111C29.9482 43.8377 30.2165 43.9869 30.2899 44.2444ZM19.6048 44.737C19.654 44.4738 19.9073 44.3003 20.1705 44.3495L20.2163 44.358C20.4796 44.4067 20.6537 44.6595 20.605 44.9229C20.5564 45.1862 20.3035 45.3602 20.0402 45.3116L19.9922 45.3027C19.729 45.2535 19.5556 45.0002 19.6048 44.737ZM28.3952 44.737C28.4444 45.0002 28.271 45.2535 28.0077 45.3027L27.9598 45.3116C27.6964 45.3602 27.4436 45.1862 27.3949 44.9229C27.3463 44.6595 27.5204 44.4067 27.7837 44.358L27.8295 44.3495C28.0927 44.3003 28.346 44.4738 28.3952 44.737ZM21.5373 45.0517C21.562 44.7851 21.7982 44.589 22.0648 44.6137L22.1112 44.6179C22.3779 44.642 22.5745 44.8778 22.5504 45.1445C22.5263 45.4111 22.2905 45.6078 22.0239 45.5837L21.9754 45.5792C21.7087 45.5545 21.5126 45.3184 21.5373 45.0517ZM26.4627 45.0517C26.4874 45.3184 26.2913 45.5545 26.0246 45.5792L25.9761 45.5837C25.7094 45.6078 25.4737 45.4112 25.4496 45.1445C25.4255 44.8778 25.6221 44.642 25.8888 44.6179L25.9351 44.6137C26.2018 44.589 26.438 44.7851 26.4627 45.0517ZM23.4911 45.1872C23.4914 44.9194 23.7087 44.7026 23.9765 44.7029L24 44.7029L24.0235 44.7029C24.2912 44.7026 24.5086 44.9194 24.5089 45.1872C24.5092 45.455 24.2923 45.6723 24.0245 45.6726L24 45.6726L23.9754 45.6726C23.7077 45.6723 23.4908 45.455 23.4911 45.1872Z" fill="#5A11A8"/>
<path fill-rule="evenodd" clip-rule="evenodd" d="M23.9755 8.72731L24 8.72729L24.0245 8.72731C24.2923 8.72773 24.509 8.94515 24.5086 9.21292C24.5082 9.4807 24.2907 9.69743 24.023 9.69701L24 9.69699L23.977 9.69701C23.7092 9.69743 23.4918 9.4807 23.4914 9.21292C23.491 8.94515 23.7077 8.72773 23.9755 8.72731ZM25.4271 9.27215C25.4614 9.00657 25.7044 8.81901 25.97 8.85323L26.0183 8.85953C26.2838 8.89459 26.4705 9.13822 26.4355 9.40368C26.4004 9.66915 26.1568 9.85594 25.8913 9.82088L25.8461 9.81498C25.5805 9.78076 25.3929 9.53773 25.4271 9.27215ZM22.5728 9.27216C22.607 9.53773 22.4195 9.78076 22.1539 9.81498L22.1086 9.82088C21.8432 9.85594 21.5996 9.66915 21.5645 9.40368C21.5294 9.13822 21.7162 8.89459 21.9817 8.85953L22.03 8.85323C22.2956 8.81901 22.5386 9.00658 22.5728 9.27216ZM27.3373 9.58206C27.406 9.32326 27.6716 9.16918 27.9304 9.23791L27.9776 9.25053C28.2362 9.3201 28.3894 9.58611 28.3198 9.84469C28.2502 10.1033 27.9842 10.2565 27.7257 10.1869L27.6815 10.1751C27.4227 10.1064 27.2686 9.84086 27.3373 9.58206ZM20.6627 9.58206C20.7314 9.84086 20.5773 10.1064 20.3185 10.1751L20.2743 10.1869C20.0158 10.2565 19.7497 10.1033 19.6802 9.84469C19.6106 9.58611 19.7638 9.3201 20.0224 9.25053L20.0696 9.23791C20.3284 9.16918 20.5939 9.32326 20.6627 9.58206ZM29.1907 10.1402C29.2928 9.89272 29.5763 9.7749 29.8238 9.87708L29.8688 9.89573C30.116 9.9987 30.2329 10.2826 30.1299 10.5297C30.027 10.7769 29.7431 10.8938 29.4959 10.7909L29.4538 10.7734C29.2063 10.6712 29.0885 10.3878 29.1907 10.1402ZM18.8093 10.1402C18.9115 10.3878 18.7937 10.6712 18.5462 10.7734L18.504 10.7909C18.2569 10.8938 17.973 10.7769 17.87 10.5297C17.7671 10.2826 17.884 9.9987 18.1312 9.89573L18.1762 9.87708C18.4237 9.7749 18.7071 9.89272 18.8093 10.1402ZM30.9546 10.9372C31.0883 10.7052 31.3848 10.6256 31.6168 10.7593L31.659 10.7837C31.8906 10.9182 31.9693 11.2149 31.8348 11.4465C31.7003 11.6781 31.4036 11.7568 31.172 11.6223L31.1325 11.5994C30.9005 11.4657 30.8209 11.1692 30.9546 10.9372ZM17.0454 10.9372C17.1791 11.1692 17.0994 11.4657 16.8675 11.5994L16.8279 11.6223C16.5964 11.7568 16.2996 11.6781 16.1652 11.4465C16.0307 11.2149 16.1094 10.9182 16.341 10.7837L16.3832 10.7593C16.6152 10.6256 16.9116 10.7052 17.0454 10.9372ZM32.599 11.9581C32.7618 11.7456 33.0661 11.7052 33.2787 11.868L33.3174 11.8978C33.5294 12.0613 33.5688 12.3657 33.4053 12.5778C33.2418 12.7898 32.9374 12.8292 32.7253 12.6657L32.6891 12.6379C32.4765 12.475 32.4361 12.1707 32.599 11.9581ZM15.401 11.9581C15.5638 12.1707 15.5235 12.475 15.3109 12.6379L15.2747 12.6657C15.0626 12.8292 14.7582 12.7898 14.5947 12.5778C14.4312 12.3657 14.4705 12.0613 14.6826 11.8978L14.7213 11.868C14.9339 11.7052 15.2382 11.7456 15.401 11.9581ZM34.0965 13.1844C34.2856 12.9948 34.5925 12.9943 34.7822 13.1833L34.8167 13.2178C35.0057 13.4075 35.0052 13.7145 34.8156 13.9035C34.6259 14.0925 34.3189 14.0921 34.1299 13.9024L34.0976 13.8701C33.908 13.6811 33.9075 13.3741 34.0965 13.1844ZM13.9035 13.1844C14.0925 13.3741 14.092 13.6811 13.9024 13.8701L13.8701 13.9024C13.681 14.0921 13.3741 14.0925 13.1844 13.9035C12.9948 13.7145 12.9943 13.4075 13.1833 13.2178L13.2178 13.1834C13.4074 12.9943 13.7144 12.9948 13.9035 13.1844ZM35.4222 14.5947C35.6343 14.4312 35.9388 14.4706 36.1023 14.6826L36.132 14.7213C36.2948 14.9339 36.2545 15.2382 36.0419 15.401C35.8293 15.5639 35.525 15.5235 35.3621 15.311L35.3343 15.2747C35.1708 15.0627 35.2102 14.7582 35.4222 14.5947ZM12.5777 14.5947C12.7898 14.7582 12.8292 15.0627 12.6657 15.2747L12.6378 15.311C12.475 15.5235 12.1707 15.5639 11.9581 15.401C11.7455 15.2382 11.7052 14.9339 11.868 14.7213L11.8977 14.6826C12.0612 14.4706 12.3657 14.4312 12.5777 14.5947ZM36.5535 16.1652C36.7851 16.0307 37.0818 16.1094 37.2163 16.341L37.2407 16.3832C37.3744 16.6152 37.2948 16.9117 37.0628 17.0454C36.8308 17.1791 36.5343 17.0995 36.4006 16.8675L36.3777 16.828C36.2432 16.5964 36.322 16.2997 36.5535 16.1652ZM11.4465 16.1652C11.678 16.2997 11.7567 16.5964 11.6223 16.828L11.5994 16.8675C11.4657 17.0995 11.1692 17.1791 10.9372 17.0454C10.7052 16.9117 10.6256 16.6152 10.7593 16.3832L10.7837 16.341C10.9182 16.1094 11.2149 16.0307 11.4465 16.1652ZM37.4703 17.8701C37.7175 17.7671 38.0013 17.884 38.1043 18.1312L38.1229 18.1762C38.2251 18.4237 38.1073 18.7072 37.8598 18.8093C37.6123 18.9115 37.3288 18.7937 37.2266 18.5462L37.2091 18.5041C37.1062 18.2569 37.2231 17.973 37.4703 17.8701ZM10.5297 17.8701C10.7769 17.973 10.8938 18.2569 10.7908 18.5041L10.7734 18.5462C10.6712 18.7937 10.3877 18.9115 10.1402 18.8094C9.89269 18.7072 9.77487 18.4237 9.87705 18.1762L9.8957 18.1312C9.99867 17.884 10.2825 17.7671 10.5297 17.8701ZM38.1553 19.6802C38.4139 19.6106 38.6799 19.7639 38.7495 20.0224L38.7621 20.0697C38.8308 20.3285 38.6768 20.594 38.418 20.6627C38.1591 20.7314 37.8936 20.5774 37.8249 20.3186L37.8131 20.2744C37.7435 20.0158 37.8967 19.7498 38.1553 19.6802ZM9.84466 19.6802C10.1032 19.7498 10.2565 20.0158 10.1869 20.2744L10.1751 20.3186C10.1064 20.5774 9.84083 20.7314 9.58203 20.6627C9.32323 20.594 9.16915 20.3285 9.23788 20.0697L9.2505 20.0224C9.32007 19.7639 9.58608 19.6106 9.84466 19.6802ZM38.5963 21.5645C38.8618 21.5295 39.1054 21.7162 39.1405 21.9817L39.1468 22.03C39.181 22.2956 38.9934 22.5387 38.7279 22.5729C38.4623 22.6071 38.2193 22.4195 38.185 22.1539L38.1791 22.1087C38.1441 21.8432 38.3309 21.5996 38.5963 21.5645ZM9.40365 21.5645C9.66912 21.5996 9.85591 21.8432 9.82085 22.1087L9.81495 22.1539C9.78073 22.4195 9.5377 22.6071 9.27212 22.5729C9.00654 22.5387 8.81898 22.2956 8.8532 22.03L8.8595 21.9817C8.89456 21.7162 9.13818 21.5295 9.40365 21.5645ZM38.7871 23.4914C39.0549 23.491 39.2723 23.7077 39.2727 23.9755L39.2727 24L39.2727 24.0245C39.2723 24.2923 39.0549 24.509 38.7871 24.5086C38.5193 24.5082 38.3026 24.2908 38.303 24.023L38.303 24L38.303 23.977C38.3026 23.7093 38.5193 23.4919 38.7871 23.4914ZM9.21289 23.4914C9.48067 23.4919 9.6974 23.7093 9.69698 23.977L9.69696 24L9.69698 24.023C9.6974 24.2908 9.48067 24.5082 9.21289 24.5086C8.94512 24.509 8.7277 24.2923 8.72728 24.0245L8.72726 24L8.72728 23.9755C8.7277 23.7077 8.94512 23.491 9.21289 23.4914ZM38.7279 25.4272C38.9934 25.4614 39.181 25.7044 39.1468 25.97L39.1405 26.0183C39.1054 26.2838 38.8618 26.4706 38.5963 26.4355C38.3309 26.4005 38.1441 26.1568 38.1791 25.8914L38.185 25.8461C38.2193 25.5805 38.4623 25.393 38.7279 25.4272ZM9.27212 25.4272C9.5377 25.393 9.78073 25.5805 9.81495 25.8461L9.82085 25.8914C9.85591 26.1568 9.66912 26.4005 9.40365 26.4355C9.13818 26.4706 8.89456 26.2838 8.8595 26.0183L8.8532 25.97C8.81898 25.7044 9.00654 25.4614 9.27212 25.4272ZM38.418 27.3373C38.6768 27.4061 38.8308 27.6716 38.7621 27.9304L38.7495 27.9776C38.6799 28.2362 38.4139 28.3894 38.1553 28.3198C37.8967 28.2503 37.7435 27.9843 37.8131 27.7257L37.8249 27.6815C37.8936 27.4227 38.1591 27.2686 38.418 27.3373ZM9.58203 27.3373C9.84083 27.2686 10.1064 27.4227 10.1751 27.6815L10.1869 27.7257C10.2565 27.9843 10.1032 28.2503 9.84466 28.3198C9.58608 28.3894 9.32007 28.2362 9.2505 27.9776L9.23788 27.9304C9.16915 27.6716 9.32323 27.4061 9.58203 27.3373ZM37.8598 29.1907C38.1073 29.2929 38.2251 29.5763 38.1229 29.8239L38.1043 29.8688C38.0013 30.116 37.7175 30.2329 37.4703 30.13C37.2231 30.027 37.1062 29.7432 37.2091 29.496L37.2266 29.4539C37.3288 29.2063 37.6123 29.0885 37.8598 29.1907ZM10.1402 29.1907C10.3877 29.0885 10.6712 29.2063 10.7734 29.4539L10.7908 29.496C10.8938 29.7432 10.7769 30.027 10.5297 30.13C10.2825 30.2329 9.99867 30.116 9.8957 29.8688L9.87705 29.8239C9.77487 29.5763 9.89269 29.2929 10.1402 29.1907ZM10.9372 30.9546C11.1692 30.8209 11.4657 30.9006 11.5994 31.1326L11.6223 31.1721C11.7567 31.4036 11.678 31.7004 11.4465 31.8348C11.2149 31.9693 10.9182 31.8906 10.7837 31.659L10.7593 31.6168C10.6256 31.3849 10.7052 31.0884 10.9372 30.9546ZM37.0628 30.9546C37.2948 31.0884 37.3744 31.3849 37.2407 31.6168L37.2163 31.659C37.0818 31.8906 36.7851 31.9693 36.5535 31.8348C36.322 31.7004 36.2432 31.4036 36.3777 31.1721L36.4006 31.1326C36.5343 30.9006 36.8308 30.8209 37.0628 30.9546ZM36.0419 32.599C36.2545 32.7618 36.2948 33.0661 36.132 33.2787L36.1023 33.3174C35.9388 33.5295 35.6343 33.5688 35.4222 33.4053C35.2102 33.2418 35.1708 32.9374 35.3343 32.7253L35.3621 32.6891C35.525 32.4765 35.8293 32.4362 36.0419 32.599ZM11.9581 32.599C12.1707 32.4362 12.475 32.4765 12.6378 32.6891L12.6657 32.7253C12.8292 32.9374 12.7898 33.2418 12.5777 33.4053C12.3657 33.5688 12.0612 33.5295 11.8977 33.3174L11.868 33.2787C11.7052 33.0661 11.7455 32.7618 11.9581 32.599ZM34.8156 34.0965C35.0052 34.2856 35.0057 34.5926 34.8167 34.7822L34.7822 34.8167C34.5925 35.0057 34.2856 35.0053 34.0965 34.8156C33.9075 34.626 33.908 34.319 34.0976 34.1299L34.1299 34.0976C34.3189 33.908 34.6259 33.9075 34.8156 34.0965ZM13.1844 34.0965C13.3741 33.9075 13.681 33.908 13.8701 34.0976L13.9024 34.1299C14.092 34.319 14.0925 34.626 13.9035 34.8156C13.7144 35.0053 13.4074 35.0057 13.2178 34.8167L13.1833 34.7822C12.9943 34.5926 12.9948 34.2856 13.1844 34.0965ZM14.5947 35.4223C14.7582 35.2102 15.0626 35.1708 15.2747 35.3343L15.3109 35.3622C15.5235 35.525 15.5638 35.8293 15.401 36.0419C15.2382 36.2545 14.9339 36.2948 14.7213 36.132L14.6826 36.1023C14.4705 35.9388 14.4312 35.6343 14.5947 35.4223ZM33.4053 35.4223C33.5688 35.6343 33.5294 35.9388 33.3174 36.1023L33.2787 36.132C33.0661 36.2948 32.7618 36.2545 32.599 36.0419C32.4361 35.8293 32.4765 35.525 32.6891 35.3622L32.7253 35.3343C32.9374 35.1708 33.2418 35.2102 33.4053 35.4223ZM31.8348 36.5535C31.9693 36.7851 31.8906 37.0818 31.659 37.2163L31.6168 37.2407C31.3848 37.3745 31.0883 37.2948 30.9546 37.0628C30.8209 36.8308 30.9005 36.5343 31.1325 36.4006L31.172 36.3777C31.4036 36.2433 31.7003 36.322 31.8348 36.5535ZM16.1652 36.5535C16.2996 36.322 16.5964 36.2433 16.8279 36.3777L16.8675 36.4006C17.0994 36.5343 17.1791 36.8308 17.0454 37.0628C16.9116 37.2948 16.6152 37.3745 16.3832 37.2407L16.341 37.2163C16.1094 37.0818 16.0307 36.7851 16.1652 36.5535ZM17.87 37.4703C17.973 37.2231 18.2569 37.1062 18.504 37.2092L18.5462 37.2266C18.7937 37.3288 18.9115 37.6123 18.8093 37.8598C18.7071 38.1073 18.4237 38.2251 18.1762 38.123L18.1312 38.1043C17.884 38.0013 17.7671 37.7175 17.87 37.4703ZM30.1299 37.4703C30.2329 37.7175 30.116 38.0013 29.8688 38.1043L29.8238 38.123C29.5763 38.2251 29.2928 38.1073 29.1907 37.8598C29.0885 37.6123 29.2063 37.3288 29.4538 37.2266L29.4959 37.2092C29.7431 37.1062 30.027 37.2231 30.1299 37.4703ZM19.6802 38.1554C19.7497 37.8968 20.0158 37.7435 20.2743 37.8131L20.3185 37.8249C20.5773 37.8937 20.7314 38.1592 20.6627 38.418C20.5939 38.6768 20.3284 38.8309 20.0696 38.7621L20.0224 38.7495C19.7638 38.6799 19.6106 38.4139 19.6802 38.1554ZM28.3198 38.1554C28.3894 38.4139 28.2362 38.6799 27.9776 38.7495L27.9304 38.7621C27.6716 38.8309 27.406 38.6768 27.3373 38.418C27.2686 38.1592 27.4227 37.8937 27.6815 37.8249L27.7257 37.8131C27.9842 37.7435 28.2502 37.8968 28.3198 38.1554ZM21.5645 38.5964C21.5996 38.3309 21.8432 38.1441 22.1086 38.1792L22.1539 38.1851C22.4195 38.2193 22.607 38.4623 22.5728 38.7279C22.5386 38.9935 22.2956 39.181 22.03 39.1468L21.9817 39.1405C21.7162 39.1055 21.5294 38.8618 21.5645 38.5964ZM26.4355 38.5964C26.4706 38.8618 26.2838 39.1055 26.0183 39.1405L25.97 39.1468C25.7044 39.181 25.4614 38.9935 25.4271 38.7279C25.3929 38.4623 25.5805 38.2193 25.8461 38.1851L25.8913 38.1792C26.1568 38.1441 26.4004 38.3309 26.4355 38.5964ZM23.4914 38.7871C23.4918 38.5193 23.7092 38.3026 23.977 38.303L24 38.3031L24.023 38.303C24.2907 38.3026 24.5082 38.5193 24.5086 38.7871C24.509 39.0549 24.2923 39.2723 24.0245 39.2727L24 39.2727L23.9755 39.2727C23.7077 39.2723 23.491 39.0549 23.4914 38.7871Z" fill="#5A11A8"/>
<path d="M24 33.6969C29.3555 33.6969 33.697 29.3554 33.697 24C33.697 18.6445 29.3555 14.303 24 14.303C18.6445 14.303 14.303 18.6445 14.303 24C14.303 29.3554 18.6445 33.6969 24 33.6969Z" fill="#5A11A8"/>
<path d="M35.5879 10.0847C37.4087 10.0847 38.8848 8.60856 38.8848 6.78769C38.8848 4.96683 37.4087 3.49072 35.5879 3.49072C33.767 3.49072 32.2909 4.96683 32.2909 6.78769C32.2909 8.60856 33.767 10.0847 35.5879 10.0847Z" fill="#5A11A8"/>
<path d="M33.6485 36.7514C34.7196 36.7514 35.5879 35.8831 35.5879 34.812C35.5879 33.7409 34.7196 32.8726 33.6485 32.8726C32.5774 32.8726 31.7091 33.7409 31.7091 34.812C31.7091 35.8831 32.5774 36.7514 33.6485 36.7514Z" fill="#5A11A8"/>
<path d="M27.9758 21.1394L26.1818 22.8364C25.9394 22.3515 25.5515 21.8667 25.0182 21.6243L25.9394 20.7515C24.5818 19.8303 22.7879 19.9273 21.5758 20.994L21.5273 21.0425C21.5273 21.0425 21.4788 21.0425 21.4788 21.0909C21.1394 21.3818 20.6061 21.3334 20.3151 20.994C20.2182 20.8485 20.1212 20.6546 20.1212 20.5091C20.1212 20.2667 20.2182 20.0243 20.4121 19.8788C21.3818 19.0061 22.6424 18.5212 23.903 18.5212C25.4545 18.5212 26.9091 19.1515 27.9273 20.3637C28.0242 20.4606 28.0727 20.6061 28.0727 20.7515C28.1212 20.9455 28.0727 21.0425 27.9758 21.1394ZM20.897 25.697L21.8182 24.8243C22.0606 25.3091 22.4485 25.794 22.9818 26.0364L22.0606 26.9091C23.4667 27.7818 25.3091 27.4909 26.4727 26.3758C26.7636 26.0364 27.297 25.9394 27.6848 26.2303C27.8788 26.3758 27.9758 26.6182 27.9758 26.8606C27.9758 27.1031 27.8788 27.3455 27.6848 27.4909C25.6485 29.5758 22.2545 29.5758 20.2182 27.5394C20.1697 27.4909 20.0727 27.394 20.0242 27.297C19.9273 27.2 19.8788 27.0546 19.8788 26.9576C19.8788 26.7637 19.9758 26.5697 20.1697 26.4243L20.897 25.697ZM19.9758 27.2485C20.0242 27.2485 20.0242 27.2485 19.9758 27.2485V27.2485ZM24 22.1091C24.9697 22.1091 25.7455 22.9334 25.7455 23.8546C25.7455 24.7758 24.9212 25.6 24 25.6C23.0788 25.6 22.2545 24.7758 22.2545 23.8546C22.2545 22.9334 22.9818 22.1091 24 22.1091Z" fill="white"/>
<path d="M24 25.6969C24.9372 25.6969 25.697 24.9372 25.697 23.9999C25.697 23.0627 24.9372 22.303 24 22.303C23.0628 22.303 22.303 23.0627 22.303 23.9999C22.303 24.9372 23.0628 25.6969 24 25.6969Z" fill="white"/>
</svg>
