<svg width="48" height="48" viewBox="0 0 48 48" fill="none" xmlns="http://www.w3.org/2000/svg">
<circle cx="24" cy="24" r="24" fill="#1D2227"/>
<path d="M23.453 8H24.4117C25.0131 8.03952 25.6157 8.0752 26.2131 8.16C28.2582 8.448 30.2526 9.128 32.031 10.1802C31.6217 10.5054 31.183 10.7915 30.7633 11.1027C27.9264 13.1333 25.0965 15.1744 22.256 17.2C22.0259 17.0093 21.8266 16.7854 21.6083 16.5821C20.96 15.9613 20.3299 15.3222 19.6762 14.7088C19.4378 14.7949 19.2202 14.927 18.9978 15.0466C17.5138 15.8746 16.2509 17.0813 15.3314 18.5078C14.1342 16.997 12.9869 15.4469 11.8542 13.888C11.8187 13.836 11.787 13.7821 11.7547 13.728C12.1824 13.2169 12.6426 12.7338 13.1323 12.2818C15.584 10 18.768 8.51072 22.0987 8.12032C22.5483 8.0592 23.0022 8.048 23.453 8ZM31.2267 13.983C32.2305 13.2259 33.236 12.4704 34.264 11.7467C36.3739 13.5019 38.0113 15.8173 38.9785 18.384C40.204 21.6069 40.3285 25.2304 39.343 28.533C38.9982 29.6965 38.5204 30.8165 37.919 31.8706C37.8251 31.7906 37.759 31.685 37.6857 31.5883L31.8747 23.9115C31.4985 23.4088 31.1113 22.9146 30.7411 22.4075C31.5891 21.4966 32.4736 20.6176 33.3245 19.7086C32.7315 18.428 31.8824 17.2825 30.8294 16.3429C30.4157 15.9661 29.9597 15.6418 29.4989 15.3266C30.0605 14.8613 30.6486 14.4282 31.2267 13.983ZM9.12304 18.1378C9.41104 17.4253 9.73216 16.7218 10.131 16.064C10.695 16.7741 11.2336 17.505 11.787 18.224C13.5418 20.5225 15.2958 22.8211 17.049 25.12C17.1638 25.2714 17.2874 25.4163 17.3861 25.5792C16.5006 26.5034 15.5923 27.4058 14.7106 28.3336C14.9232 28.836 15.2112 29.3032 15.5118 29.7576C15.9681 30.4286 16.5017 31.0436 17.1018 31.5899C17.5338 31.9936 18.0162 32.337 18.5011 32.6734C18.0786 33.0285 17.6326 33.3549 17.1968 33.693C16.4203 34.2873 15.6373 34.8732 14.848 35.4507C14.4746 35.7152 14.1165 36.0018 13.7314 36.2493C11.2472 34.1726 9.41872 31.325 8.56928 28.2013C8.224 26.9634 8.056 25.6826 8 24.4V23.6C8.01856 23.3227 8.03584 23.0453 8.0552 22.768C8.17722 21.1798 8.53718 19.619 9.12304 18.1378ZM31.6185 30.8766C32.0145 30.4483 32.3529 29.9726 32.6832 29.4936C33.0405 29.9331 33.3813 30.3864 33.7277 30.8347C34.5857 31.9626 35.4352 33.0968 36.2566 34.2512C36.0222 34.5781 35.7321 34.8614 35.4566 35.1541C33.1577 37.5205 30.1126 39.1541 26.8624 39.7392C26.0944 39.8866 25.3128 39.949 24.5325 40H23.3736C23.0299 39.9565 22.6832 39.9493 22.3395 39.9098C20.104 39.6747 17.913 38.9696 15.9774 37.824C16.6402 37.3189 17.3123 36.8262 17.9782 36.3246C20.52 34.4287 23.0608 32.5314 25.6008 30.6326C26.0318 31.0299 26.4387 31.453 26.8629 31.8582C27.3589 32.3328 27.8357 32.8299 28.3421 33.2944C29.5851 32.7258 30.6998 31.8866 31.6185 30.8766Z" fill="white"/>
</svg>
